<svg version="1.1" xmlns="http://www.w3.org/2000/svg" xmlns:xlink="http://www.w3.org/1999/xlink" width="784" height="403" viewBox="0,0,784,403"><g transform="translate(72,18)"><g data-paper-data="{&quot;isPaintingLayer&quot;:true}" fill-rule="nonzero" stroke-linejoin="miter" stroke-miterlimit="10" stroke-dasharray="" stroke-dashoffset="0" style="mix-blend-mode: normal"><path d="M-72,378v-396h784v396z" fill="#000000" stroke="none" stroke-width="0" stroke-linecap="butt"/><path d="M82.5,239l32,134" fill="none" stroke="#000000" stroke-width="2" stroke-linecap="round"/><path d="M130.5,379l-43,-118l85,-94l65,-17" fill="none" stroke="#ffffff" stroke-width="2" stroke-linecap="round"/><path d="M230.5,154l33,5l4,31l-80,77l-2,8" fill="none" stroke="#ffffff" stroke-width="2" stroke-linecap="round"/><path d="M182.5,283l61,101" fill="none" stroke="#ffffff" stroke-width="2" stroke-linecap="round"/><path d="M187.5,268l-4,22" fill="none" stroke="#ffffff" stroke-width="2" stroke-linecap="round"/><path d="M118.5,241l58,8" fill="none" stroke="#ffffff" stroke-width="2" stroke-linecap="round"/><path d="M113.5,272l59,2" fill="none" stroke="#ffffff" stroke-width="2" stroke-linecap="round"/><path d="M188.5,298l-61,1" fill="none" stroke="#ffffff" stroke-width="2" stroke-linecap="round"/><path d="M172.5,189l27,-23l47,-4l15,19l-22,27l-58,-24" fill="none" stroke="#ffffff" stroke-width="2" stroke-linecap="round"/><path d="M195.5,170l-1,-105l202,15l-12,243l-185,-21l4,-59" fill="none" stroke="#ffffff" stroke-width="2" stroke-linecap="round"/><path d="M214.5,98l-2,63" fill="none" stroke="#ffffff" stroke-width="2" stroke-linecap="round"/><path d="M208.5,101l161,12l-19,175l-133,-19l5,-38" fill="none" stroke="#ffffff" stroke-width="2" stroke-linecap="round"/><path d="M261.5,279v29" fill="none" stroke="#ffffff" stroke-width="2" stroke-linecap="round"/><path d="M294.5,279l-1,26l-33,-4" fill="none" stroke="#ffffff" stroke-width="2" stroke-linecap="round"/><path d="M250.5,278l43,8" fill="none" stroke="#ffffff" stroke-width="2" stroke-linecap="round"/><path d="M269.5,89l66,5" fill="none" stroke="#ffffff" stroke-width="2" stroke-linecap="round"/><path d="M254.5,80v12" fill="none" stroke="#ffffff" stroke-width="2" stroke-linecap="round"/><text transform="translate(25.5,38) scale(1.16965,0.5)" font-size="40" xml:space="preserve" fill="#ffffff" fill-rule="nonzero" stroke="none" stroke-width="1" stroke-linecap="butt" stroke-linejoin="miter" stroke-miterlimit="10" stroke-dasharray="" stroke-dashoffset="0" font-family="Sans Serif" font-weight="normal" text-anchor="start" style="mix-blend-mode: normal"><tspan x="0" dy="0">CANT STOP</tspan></text><text transform="translate(323.3705,135.81935) rotate(100.67061) scale(0.5,0.5)" font-size="40" xml:space="preserve" fill="#ffffff" fill-rule="nonzero" stroke="none" stroke-width="1" stroke-linecap="butt" stroke-linejoin="miter" stroke-miterlimit="10" stroke-dasharray="" stroke-dashoffset="0" font-family="Sans Serif" font-weight="normal" text-anchor="start" style="mix-blend-mode: normal"><tspan x="0" dy="0">SCROLLING</tspan></text></g></g></svg>