<svg version="1.1" xmlns="http://www.w3.org/2000/svg" xmlns:xlink="http://www.w3.org/1999/xlink" width="722" height="419" viewBox="0,0,722,419"><g transform="translate(41,29.5)"><g data-paper-data="{&quot;isPaintingLayer&quot;:true}" fill-rule="nonzero" stroke-linecap="butt" stroke-linejoin="miter" stroke-miterlimit="10" stroke-dasharray="" stroke-dashoffset="0" style="mix-blend-mode: normal"><path d="M-41,389.5v-419h722v419z" fill="#000000" stroke="none" stroke-width="0"/><path d="M106.5,274v-101h385v101z" fill="none" stroke="#ffffff" stroke-width="2"/><path d="M132.5,322v-47.82608h25v47.82608z" fill="none" stroke="#ffffff" stroke-width="2"/><path d="M173.5,297v-21h10v21z" fill="none" stroke="#ffffff" stroke-width="2"/><path d="M436.5,311v-40h26v40z" fill="none" stroke="#ffffff" stroke-width="2"/><path d="M470.5,289v-16h10v16z" fill="none" stroke="#ffffff" stroke-width="2"/><path d="M100.5,172v-46h96v46z" fill="none" stroke="#ffffff" stroke-width="2"/><path d="M198.5,173v-42h46v42z" fill="none" stroke="#ffffff" stroke-width="2"/><path d="M189.5,175v-49h31v49z" fill="none" stroke="#ffffff" stroke-width="2"/><path d="M224.5,161v-12h10v12z" fill="none" stroke="#ffffff" stroke-width="2"/><path d="M226.5,147v-11h8v11z" fill="none" stroke="#ffffff" stroke-width="2"/><path d="M243.5,173l1,-27c0,0 22.73959,-6.55238 42.02378,-7.02082c11.14263,-0.27067 36.48519,3.67016 58.97432,3.73035c17.27292,0.04623 61.95765,-4.13337 80.0065,-4.41932c17.94219,-0.28426 65.9954,34.70979 65.9954,34.70979z" fill="none" stroke="#ffffff" stroke-width="2"/><text transform="translate(190.28022,255.83771) rotate(-16.47705) scale(0.99037,0.52029) skewX(-13.95128)" font-size="40" xml:space="preserve" fill="#ffffff" fill-rule="nonzero" stroke="none" stroke-width="1" stroke-linecap="butt" stroke-linejoin="miter" stroke-miterlimit="10" stroke-dasharray="" stroke-dashoffset="0" font-family="Sans Serif" font-weight="normal" text-anchor="start" style="mix-blend-mode: normal"><tspan x="0" dy="0">good night.</tspan></text></g></g></svg>