<svg version="1.1" xmlns="http://www.w3.org/2000/svg" xmlns:xlink="http://www.w3.org/1999/xlink" width="79.09479" height="161.00365" viewBox="0,0,79.09479,161.00365"><g transform="translate(-279.20258,-101.74944)"><g data-paper-data="{&quot;isPaintingLayer&quot;:true}" fill-rule="nonzero" stroke-linejoin="miter" stroke-miterlimit="10" stroke-dasharray="" stroke-dashoffset="0" style="mix-blend-mode: normal"><path d="M313.76396,198.75972c-0.17539,3.68333 -3.34851,6.80841 -5.13895,2.36529c-1.37102,-3.4023 -0.33974,-7.33195 -0.3125,-11c0.01675,-2.25545 4.04647,-3.50823 4.8125,-1.125c0.93627,2.91285 0.5625,6.45306 0.5625,9.37745z" fill="#ffffd6" stroke="none" stroke-width="0.5" stroke-linecap="butt"/><path d="M327.68751,199.87501c-2.87169,0 -3.05656,-7.4911 -2.58778,-10.05722c0.00378,-0.02166 0.00783,-0.04323 0.01216,-0.06469c0.23044,-1.14266 1.24005,-2.00309 2.45062,-2.00309c1.38071,0 2.5,1.11929 2.5,2.5c0,0.2807 -0.04626,0.55058 -0.13157,0.80246c1.18484,3.71708 0.20078,8.82254 -2.24343,8.82254z" fill="#ffffd6" stroke="none" stroke-width="0.5" stroke-linecap="butt"/><path d="M308.75001,186.12501c-2.22479,-4.44958 -0.32308,-11.43322 -0.0625,-16.05776c0.13169,-2.33718 -1.18221,-4.47562 1.00696,-6.17831c1.98412,-1.54321 3.16582,0.82024 3.74676,2.45496c0.01854,-0.0316 0.03812,-0.06291 0.05878,-0.09389c2.33865,-3.50797 4.3278,0.85642 5.84819,2.25016c0.85258,0.78156 1.2335,-2.22366 2.33931,-2.56266c3.10095,-0.95061 7.51792,-5.26239 10.02118,-3.131c0.42723,0.36377 -0.78259,1.15793 -0.38061,1.92874c0.93854,1.79967 -1.04056,3.43299 -1.59369,4.65479c-1.33858,2.95675 -1.8541,4.75356 -1.21427,8.26465c0.4751,2.60718 3.11395,6.48809 1.31016,8.98808c-0.87273,1.20958 -2.98638,0.52235 -4.02952,-0.31264c-0.32118,-0.25709 -2.02193,-1.40089 -2.07399,-1.23716c-0.88989,2.79903 0.85131,3.5792 0.85131,5.92179c0,6.47091 1.73022,13.51687 0.875,19.84549c-0.61487,4.55003 -9.24587,5.22196 -11.89058,2.57726c-2.52904,-2.52903 0.49826,-3.22582 -0.71357,-5.64948c-0.18291,-0.34741 -0.28643,-0.74312 -0.28643,-1.16302c0,-0.02273 0.0003,-0.04538 0.0009,-0.06796c0.08288,-6.02958 0.83786,-12.5083 0.8741,-18.72667c0.00456,-0.78222 0.00832,-1.56444 0.01137,-2.34667c-0.75948,1.97179 -3.47424,3.09056 -4.69887,0.6413z" fill="#ffffff" stroke="none" stroke-width="0.5" stroke-linecap="butt"/><path d="M312.7228,230.04355c-0.4475,-2.75966 -0.07757,-5.77553 -0.41028,-8.56811c-0.12709,-1.06671 -1.49887,-3.35549 -1.25,-4.47543c1.18869,-5.34912 14.53917,-5.14033 16.0625,-0.875c1.53564,4.2998 -0.03792,9.58826 -0.1875,13.99969c-0.12286,3.62358 0.43112,7.06407 0.21389,10.76975c-0.13398,2.28554 0.18175,6.0643 -0.90139,8.23057c-1.37105,2.7421 -3.77847,0.52344 -5.78078,1.19448c-4.46855,1.49757 -7.36251,-1.85782 -5.73858,-6.7296c-0.02832,-0.15063 -0.04314,-0.30603 -0.04314,-0.46488c0,-0.07879 0.00365,-0.15673 0.01078,-0.23367c0.15484,-4.05409 -1.31134,-8.75204 -1.97549,-12.8478z" fill="#ff0000" stroke="none" stroke-width="0.5" stroke-linecap="butt"/><path d="M319.10014,157.52131c0.72138,0.05266 1.1627,0.86078 1.73769,1.29959c0.16734,0.12771 1.30021,-0.75666 2.54778,0.52134c1.94393,1.99134 -1.61228,8.68948 -4.49999,8.52905c-2.75794,-0.15322 -3.66756,-4.35369 -3.64704,-6.47488c0.00236,-0.24371 -0.0529,-2.23394 0.44792,-2.46271l1.52991,-0.78448c0.06043,0 0.1202,0.00285 0.17917,0.00841c0.58014,-0.03841 1.10547,-0.68005 1.70455,-0.63632z" fill="#ffffd6" stroke="none" stroke-width="0.5" stroke-linecap="butt"/><path d="M312.69829,252.01092c1.23703,-0.53784 3.29385,0.16513 4.39282,-0.42898c0.59616,-0.32228 0.86567,-0.89081 1.77813,-0.89081c0.50556,0 1.27658,0.62944 1.65309,0.56665c2.252,-0.37559 3.81047,-1.1736 6.07605,-0.6072c0.87185,0.21796 0.95538,1.44429 1.3811,1.6516c0.69558,0.33873 2.09852,-0.18571 2.96059,-0.07043c2.37446,0.31754 6.29783,2.38183 5.74149,5.50369c-0.65294,3.66388 -9.83986,0.98782 -12.53916,0.46824c-1.1838,-0.22787 -2.59038,-1.33343 -3.56288,-0.62099c-0.76001,0.55677 -6.5524,2.70725 -8.18067,3.23604c-0.58066,0.18858 -1.83874,-0.10851 -2.88434,-0.57896c-0.67602,-0.05939 -1.24958,-0.47586 -1.53092,-1.05966c-0.08337,-0.12187 -0.12956,-0.24227 -0.12956,-0.35806c-0.03674,-0.14683 -0.05624,-0.30049 -0.05624,-0.45871c0,-0.3018 0.07097,-0.58702 0.19714,-0.83988c0.70009,-2.15378 2.88645,-4.72259 4.70337,-5.51255z" fill="#ffffff" stroke="none" stroke-width="0.5" stroke-linecap="butt"/><path d="M299.38792,157.38554c0,0 -4.22307,-17.29411 -4.22307,-24.93623c0,-2.75768 -0.95763,-11.04158 3.54451,-14.9676c5.80536,-5.06248 17.7568,-5.54445 21.79391,-5.54445c3.39251,0 15.74324,-2.37128 21.09113,2.11689c6.84841,5.74747 6.45938,19.01195 6.45938,23.02043c0,7.07165 -3.82087,20.31096 -3.82087,20.31096c0,0 -15.47704,2.21209 -23.12634,2.21209c-7.28084,0 -21.71865,-2.21209 -21.71865,-2.21209z" fill="#ffffd6" stroke="#000000" stroke-width="3" stroke-linecap="butt"/><path d="M299.05417,136.14105l21.09771,0.37674" fill="none" stroke="#000000" stroke-width="3" stroke-linecap="round"/><path d="M319.11582,137.36547l0.28256,8.1942l-12.62095,-0.56512v-8.28839l8.75932,0.18837" fill="none" stroke="#000000" stroke-width="3" stroke-linecap="round"/><path d="M311.86349,143.86431l-0.47093,-6.31047" fill="none" stroke="#000000" stroke-width="3" stroke-linecap="round"/><path d="M312.24024,137.64801l3.48489,6.68722" fill="none" stroke="#000000" stroke-width="3" stroke-linecap="round"/><path d="M312.61699,142.73407l3.29651,-0.28256" fill="none" stroke="#000000" stroke-width="3" stroke-linecap="round"/><path d="M311.44667,136.98872l3.33659,4.52093l-3.48489,-2.34741" fill="none" stroke="#000000" stroke-width="3" stroke-linecap="round"/><path d="M311.7693,142.92246l5.74536,1.13023" fill="none" stroke="#000000" stroke-width="3" stroke-linecap="round"/><path d="M316.57281,142.54571l-0.47093,-3.95582" fill="none" stroke="#000000" stroke-width="3" stroke-linecap="round"/><path d="M317.9084,136.5394c1.72467,0.91977 1.03707,5.89512 1.01907,6.85398c-0.03575,1.90416 -2.04149,1.97469 -3.31526,1.24682c-0.79595,-0.45482 -0.52965,-2.88253 -2.17374,-4.1156c-0.84674,-0.18452 -1.48078,-0.93848 -1.48078,-1.84053c0,-0.65172 0.33096,-1.22613 0.83398,-1.56435c1.27816,-1.15704 3.68896,-1.34175 5.11673,-0.58032z" fill="#000000" stroke="none" stroke-width="0.5" stroke-linecap="butt"/><path d="M308.37861,143.39338l0.28256,-5.83954" fill="none" stroke="#ffffff" stroke-width="3" stroke-linecap="round"/><path d="M310.16813,143.86432l-0.6593,-6.78141" fill="none" stroke="#ffffff" stroke-width="3" stroke-linecap="round"/><path d="M314.97164,144.80619l-8.10001,-0.65931l0.18837,-7.62909h7.81745" fill="none" stroke="#000000" stroke-width="3" stroke-linecap="round"/><path d="M322.88328,136.51779l21.09771,0.37674" fill="none" stroke="#000000" stroke-width="3" stroke-linecap="round"/><path d="M342.94494,137.74221l0.28256,8.1942l-12.62095,-0.56512v-8.28839l8.75932,0.18837" fill="none" stroke="#000000" stroke-width="3" stroke-linecap="round"/><path d="M335.22166,137.93059l0.47093,6.31047" fill="none" stroke="#000000" stroke-width="3" stroke-linecap="round"/><path d="M339.55423,144.71199l-3.48488,-6.68722" fill="none" stroke="#000000" stroke-width="3" stroke-linecap="round"/><path d="M336.4461,143.11083l3.29651,-0.28256" fill="none" stroke="#000000" stroke-width="3" stroke-linecap="round"/><path d="M335.65253,137.64801l3.33659,4.52094l-3.48489,-2.34741" fill="none" stroke="#000000" stroke-width="3" stroke-linecap="round"/><path d="M341.34378,144.42943l-5.74536,-1.13023" fill="none" stroke="#000000" stroke-width="3" stroke-linecap="round"/><path d="M340.40192,142.92246l-0.47093,-3.95582" fill="none" stroke="#000000" stroke-width="3" stroke-linecap="round"/><path d="M341.73751,136.91615c1.72467,0.91977 1.03707,5.89512 1.01906,6.85398c-0.03575,1.90416 -2.04149,1.97469 -3.31526,1.24682c-0.79595,-0.45482 -0.52965,-2.88253 -2.17374,-4.1156c-0.84674,-0.18452 -1.48078,-0.93848 -1.48078,-1.84053c0,-0.65172 0.33096,-1.22613 0.83398,-1.56435c1.27816,-1.15704 3.68896,-1.34175 5.11673,-0.58032z" fill="#000000" stroke="none" stroke-width="0.5" stroke-linecap="butt"/><path d="M332.49027,137.93059l-0.28256,5.83954" fill="none" stroke="#ffffff" stroke-width="3" stroke-linecap="round"/><path d="M333.33795,137.45966l0.6593,6.78141" fill="none" stroke="#ffffff" stroke-width="3" stroke-linecap="round"/><path d="M338.80076,145.18293l-8.10002,-0.65931l0.18837,-7.62909h7.81745" fill="none" stroke="#000000" stroke-width="3" stroke-linecap="round"/><path d="M313.08791,153.5655l9.23025,-0.09418" fill="none" stroke="#000000" stroke-width="3" stroke-linecap="round"/><path d="M357.49709,131.93982l-0.14343,0.07723l0.33475,0.3451c-0.00225,1.00551 0.25677,2.04089 -0.00676,3.01653c-0.71879,2.66115 -2.2179,2.0044 -3.38575,4.5044c-0.35102,0.75143 0.47941,1.95677 -0.23157,2.44558c-3.88254,2.66929 -7.27805,-0.91019 -8.27893,-3.77255c-0.70971,-2.02966 -0.2384,-3.89382 0.48796,-5.76075c-0.25105,-0.06425 -0.50104,-0.1192 -0.74983,-0.16077c-3.58292,0.01175 -7.14706,0.74952 -10.69644,0.52472c-2.81241,-0.17812 -5.53,-1.0017 -8.33581,-1.22079c-3.05575,-0.23862 -4.09995,-0.08091 -7.25629,-0.47566c-2.96979,-0.37142 -4.99482,-1.55161 -8.136,-1.27044c-1.5576,0.13943 -4.04694,1.52897 -5.14212,1.84629c-1.29235,0.37444 -2.64449,0.55117 -3.98279,0.74409c-2.21245,0.31894 -3.6248,-0.49087 -5.53875,-0.55911c1.33415,2.51185 1.63634,5.5228 1.54783,8.22002l0.74466,1.23721c0.16131,0.25635 0.25367,0.55423 0.25367,0.87202c0,0.64359 -0.37882,1.2055 -0.94186,1.50614v0.92811c0,0.96028 -0.84338,1.73875 -1.88373,1.73875c-0.74135,0 -1.38266,-0.39529 -1.69007,-0.96999l-0.91271,-1.62221c-1.192,0.18431 -1.85833,-0.89203 -1.85833,-0.89203l-0.08542,-0.16413c-0.82137,-0.68485 -1.56986,-1.95291 -2.13529,-2.99841c-0.52376,-0.01408 -1.03774,-0.0648 -1.51691,-0.24593c-3.08562,-1.16638 -3.40458,-3.50921 -2.65153,-5.97902c-0.20715,-0.76349 -0.26448,-1.73713 -0.13702,-2.97021c0.0281,-0.27184 0.18298,-0.48403 0.39897,-0.6693c-3.80262,0.27516 -6.30821,-0.21263 -6.36438,-4.23191c-0.0328,-2.34671 1.23406,-3.96605 2.95379,-5.28237c0.46659,-0.78066 1.22511,-1.58221 2.13053,-2.25632c0.55139,-1.20379 1.17433,-2.37412 1.88773,-3.54118l0.23282,-0.12616l-0.06095,-0.05626l1.69535,-1.56488v0c0.21044,-0.19424 0.47044,-0.34274 0.761,-0.42795c1.16084,-1.98224 2.69086,-3.70537 5.22521,-4.50513c1.03573,-0.32685 2.31551,-0.5912 3.28138,-0.11582c0.79683,0.39218 0.21672,2.18798 1.11433,2.27927c0.78591,0.07994 0.29874,-1.45923 0.68442,-2.09633c1.56335,-2.58249 3.75449,-4.67546 7.01117,-5.16752c1.27957,-0.19333 2.62268,-0.57684 3.87814,-0.27777c0.71808,0.17107 0.76128,1.3204 1.46014,1.54946c0.80797,0.26483 2.99304,-1.28198 3.47817,-1.48932c2.25119,-0.96214 5.0758,-1.56382 7.53113,-0.82577c0.81736,0.24569 0.80707,1.45579 1.48032,1.94914c1.98197,1.45235 2.74417,0.88721 4.89146,0.50136c2.42854,-0.79064 4.70167,-1.74274 7.38503,-1.61551c3.30064,0.15648 4.71681,2.3971 7.04773,3.95641c0.2246,-0.08728 0.47138,-0.13553 0.73037,-0.13553c0.66422,0 1.24815,0.31732 1.58356,0.7967l0.26758,0.37049c1.04552,0.18881 2.13932,0.27568 3.0702,0.72643c2.51583,1.21822 5.91825,5.23447 6.69752,7.92887c0.37646,1.30167 -0.20546,2.86328 0.03866,4.17297c0.4596,2.46567 3.49963,5.62444 2.39881,8.21376c-0.29573,0.6956 -0.73392,1.3304 -1.2381,1.92573zM351.27275,140.03267c0.00849,0.00947 0.01142,0.00798 0.00743,-0.00805c-0.00247,0.0027 -0.00495,0.00537 -0.00743,0.00805z" fill="#29241d" stroke="none" stroke-width="0.5" stroke-linecap="butt"/><path d="M308.56129,198.01334c0.16905,-1.32035 0.31732,-2.61102 0.37858,-3.77692c0.02564,-0.48784 -1.44854,-0.21155 -1.40795,-0.67387c0.40467,-4.60998 1.41322,-10.99197 1.30684,-13.83228c-0.21043,-5.61847 -1.07237,-15.99266 -1.07237,-15.99266l7.34652,1.3186" fill="none" stroke="#000000" stroke-width="3" stroke-linecap="round"/><path d="M315.96058,251.58193l-4.6466,-34.56538l1.60202,-3.1091l13.31624,0.12559" fill="none" stroke="#000000" stroke-width="3" stroke-linecap="round"/><path d="M322.61641,165.43294l-3.76745,3.13954l-3.17093,-4.83489l-0.56511,-3.57907" fill="none" stroke="#000000" stroke-width="3" stroke-linecap="round"/><path d="M332.44318,162.419l-8.66513,2.26046l0.56512,-4.52093" fill="none" stroke="#000000" stroke-width="3" stroke-linecap="round"/><path d="M313.04082,212.52605l0.75349,-47.09311" fill="none" stroke="#000000" stroke-width="3" stroke-linecap="round"/><path d="M324.97108,165.99808l0.94186,47.65822l1.83032,3.14424l-0.6059,35.28373l9.92095,3.64186l-0.25117,5.27443l-15.32095,-2.51163" fill="none" stroke="#000000" stroke-width="3" stroke-linecap="round"/><path d="M329.66042,195.83652c0.16517,-1.37929 0.34321,-2.85557 0.47238,-4.55744c0.47731,-6.28876 -1.40055,-12.56035 -1.36566,-15.67721c0.04442,-3.96855 2.5458,-12.05263 2.5458,-12.05263" fill="none" stroke="#000000" stroke-width="3" stroke-linecap="round"/><path d="M308.33151,198.5865l3.57907,8.66513" fill="none" stroke="#000000" stroke-width="3" stroke-linecap="round"/><path d="M325.44201,206.62373l4.7721,-10.54886" fill="none" stroke="#000000" stroke-width="3" stroke-linecap="round"/><path d="M320.23037,214.2842l1.25581,43.57682l-11.67909,3.01395l-2.26047,-4.39535l7.66048,-5.02326" fill="none" stroke="#000000" stroke-width="3" stroke-linecap="round"/><path d="M315.96058,250.82845l10.17211,-0.37674" fill="none" stroke="#000000" stroke-width="3" stroke-linecap="round"/><path d="M314.32804,255.72613l-2.13489,-1.75814" fill="none" stroke="#000000" stroke-width="3" stroke-linecap="round"/><path d="M311.94197,256.6052l-1.88372,-1.38139" fill="none" stroke="#000000" stroke-width="3" stroke-linecap="round"/><path d="M328.51876,254.72148l3.01395,-1.50698" fill="none" stroke="#000000" stroke-width="3" stroke-linecap="round"/><path d="M332.66294,255.47497l1.75815,-1.50698" fill="none" stroke="#000000" stroke-width="3" stroke-linecap="round"/><path d="M312.31251,185.25001l-4,5.125" fill="none" stroke="#000000" stroke-width="3" stroke-linecap="round"/><path d="M325.06251,186.50001l4.5,1.875" fill="none" stroke="#000000" stroke-width="3" stroke-linecap="round"/><path d="M314.83333,189.66668v-10.11111h4v10.11111z" fill="#000000" stroke="none" stroke-width="0" stroke-linecap="butt"/><path d="M324.27779,184.72223c0,2.48528 -1.34314,4.5 -3,4.5c-1.65686,0 -3,-2.01472 -3,-4.5c0,-2.48528 1.34314,-4.5 3,-4.5c1.65686,0 3,2.01472 3,4.5z" fill="#000000" stroke="none" stroke-width="0" stroke-linecap="butt"/><path d="M314.66033,189.27671l5.01269,4.89104" fill="none" stroke="#000000" stroke-width="0.5" stroke-linecap="round"/><path d="M318.65801,195.20744c-3.78264,-4.41308 2.82119,-7.86517 4.94308,-4.53075c2.66095,4.18149 -3.19159,7.20659 -4.89262,4.53356z" fill="#000000" stroke="none" stroke-width="0.5" stroke-linecap="butt"/><path d="M307.9375,139.125v-1.625h10.75v1.625z" fill="#ffffd6" stroke="#000000" stroke-width="0.5" stroke-linecap="butt"/><path d="M331.6875,139.25v-1.375h11.375v1.375z" fill="#ffffd6" stroke="#000000" stroke-width="0.5" stroke-linecap="butt"/><path d="M323.02927,184.4637c0.2863,1.21677 -0.93047,1.50307 -0.93047,1.50307l-2.5046,0.52974c-1.10533,-0.40472 -1.72456,-1.15729 -2.1567,-0.12151c0,0 -0.75,1 -1.75,0.25c-1,-0.75 -0.25,-1.75 -0.25,-1.75c1.49809,-1.67479 2.27231,-1.79733 4.3433,-0.87151l1.7454,-0.47026c0,0 1.21677,-0.2863 1.50307,0.93047z" fill="#222222" stroke="none" stroke-width="0.5" stroke-linecap="butt"/><path d="M324.3125,193c0,1.25 -1.25,1.25 -1.25,1.25l-1.30195,-0.00108c-2.22456,-0.1983 -2.94654,-0.904 -4.87968,0.41614c0,0 -1.04006,0.69338 -1.73344,-0.34669c-0.69338,-1.04006 0.34669,-1.73344 0.34669,-1.73344c2.48621,-1.62701 3.70564,-1.03524 6.37032,-0.83386l1.19805,-0.00108c0,0 1.25,0 1.25,1.25z" fill="#222222" stroke="none" stroke-width="0.5" stroke-linecap="butt"/><path d="M318.39399,192.7106c0.3571,0.12363 0.79351,0.42581 0.79351,1.1644c0,1.25 -1.25,1.25 -1.25,1.25l-1.125,-0.5c-0.26081,-0.95106 -0.25217,-0.48222 -0.30272,0.23418c0,0 -0.35918,1.19728 -1.55647,0.8381c-1.19728,-0.35918 -0.8381,-1.55647 -0.8381,-1.55647c0.98903,-2.52452 2.44471,-3.1047 4.27878,-1.43021z" fill="#a5a5a5" stroke="none" stroke-width="0.5" stroke-linecap="butt"/></g></g></svg>