<svg version="1.1" xmlns="http://www.w3.org/2000/svg" xmlns:xlink="http://www.w3.org/1999/xlink" width="710" height="389" viewBox="0,0,710,389"><g transform="translate(35,14.5)"><g data-paper-data="{&quot;isPaintingLayer&quot;:true}" fill-rule="nonzero" stroke="none" stroke-linecap="butt" stroke-linejoin="miter" stroke-miterlimit="10" stroke-dasharray="" stroke-dashoffset="0" style="mix-blend-mode: normal"><path d="M-35,374.5v-389h710v389z" fill="#000000" stroke-width="0"/><path d="M533,239c0,2.5 -2.5,2.5 -2.5,2.5l-4.38449,-1.74886c-1.96638,-6.30712 -2.18362,-12.93906 -2.82711,-19.49547c-3.66708,-1.04701 -7.81547,-1.36788 -10.81808,-1.66135c-9.77608,-0.95552 -19.74668,-1.57541 -29.58138,-1.08474c-6.57287,0.32793 -13.20501,1.39953 -19.75103,2.09139c-34.37212,3.63286 -68.03454,11.87123 -102.66793,13.18256c-32.9641,1.24813 -65.99012,0.74828 -98.97905,0.71788c-1.22057,0.67891 -2.43837,1.26954 -3.60185,1.76605c-0.95619,0.40805 -1.85783,1.03036 -2.88641,1.18149c-1.81482,0.26664 -3.66844,0.03404 -5.50266,0.05106c-1.92259,-0.24408 -3.84518,-0.48816 -5.76777,-0.73223l-0.29938,-2.35818c-5.37326,-0.05524 -10.75126,-0.12526 -16.12959,-0.1786c-0.06915,2.63142 -0.11712,5.27082 -0.30906,7.93925c-0.33899,4.71265 -0.99793,9.09064 -0.9942,13.82978v2c0,0 0,2.5 -2.5,2.5c-2.5,0 -2.5,-2.5 -2.5,-2.5v-2c0.00361,-4.84976 0.65841,-9.35238 1.0058,-14.17022c0.18527,-2.56938 0.24647,-5.11017 0.31795,-7.64249c-10.59712,-0.07891 -21.19027,-0.05534 -31.74574,0.3115c-11.3876,0.39576 -22.66975,1.0012 -34.07801,1.00122c-2.30864,0 -5.00691,0.27491 -7.65102,0.37881c-0.06665,0.23351 -0.13318,0.46705 -0.19962,0.70062c0.04474,0.15606 0.09786,0.31073 0.16033,0.46387c0.49706,1.21829 1.97254,1.74301 2.92253,2.65341c1.20332,1.15317 2.35702,2.35702 3.53553,3.53553c0,0 1.76777,1.76777 0,3.53553c-1.76777,1.76777 -3.53553,0 -3.53553,0c-0.41362,-0.41362 -2.70045,-2.6759 -4.64985,-4.66679c-0.30515,1.06802 -0.61288,2.13529 -0.92578,3.20107c-0.37494,1.27712 -1.11038,2.49086 -1.15963,3.82097c-0.15849,4.28063 1.88766,9.9066 2.77364,14.08918c2.28312,10.77829 5.40915,21.49474 6.86828,32.41355c0.65616,4.91012 2.42423,10.99607 2.27049,16.34684c0.37522,1.19135 0.7574,2.38086 1.1446,3.56906c2.83087,-0.68094 6.68363,-0.19599 9.26866,-0.36869c6.63483,-0.44325 13.24252,-0.97697 19.86223,-1.60712c22.97859,-2.1874 45.74477,-6.17194 68.50233,-9.96483c34.62819,-5.58767 69.24627,-10.41624 104.06468,-14.63557c14.0879,-1.70718 28.23745,-3.02486 42.38769,-4.34395c2.08841,-1.31683 4.17683,-2.63365 6.26525,-3.95047c3.54676,-2.23637 7.17034,-5.15039 10.98381,-6.91039c4.1909,-1.93419 8.8101,-3.27362 13.23219,-4.53803c0.15666,-0.04479 9.31083,-2.66874 9.53243,-2.69842c14.52143,-1.94499 28.88556,1.92079 42.8893,5.03542c2.86098,0.63577 5.74077,1.41983 8.62655,2.15821c2.26164,-0.33997 4.51779,-0.70247 6.76607,-1.09661c7.82971,-1.37259 15.6283,-3.39382 23.37464,-5.18146c4.35093,-1.00408 8.4031,-1.99472 12.64304,-3.39257c2.56982,-0.84724 5.08637,-1.21568 6.96444,-3.43002c1.94657,-2.29509 -0.28637,-2.66473 -1.16308,-4.51875c-0.59347,-1.25505 -0.95417,-2.6041 -1.35484,-3.937c-3.40096,-0.99282 -6.77797,-1.67974 -10.39937,-1.66138h-3c0,0 -2.5,0 -2.5,-2.5c0,-2.5 2.5,-2.5 2.5,-2.5h3c2.89981,0.01262 5.64838,0.38254 8.36761,0.98822c-1.2683,-3.21442 -2.63454,-6.38738 -3.72317,-9.65075c-1.29092,-3.8698 -2.56908,-9.01632 -5.47634,-12.13625c-0.36087,-0.38726 -0.76407,-0.74266 -1.20265,-1.06918c0.46765,5.25129 0.82402,10.61247 2.41903,15.61681l-0.38449,-1.74886c0,0 2.5,0 2.5,2.5zM521.00958,206.21861c-0.5742,-5.35284 0.37799,-10.5314 1.4312,-15.71861c-21.98026,0 -43.96052,0 -65.94077,0c-17.99024,-0.00039 -35.99235,0.57437 -53.97954,0.90717c-16.33985,0.30232 -32.56801,-0.0529 -48.75293,2.50261c-10.94731,1.72852 -22.038,3.52158 -32.81574,6.1304c-12.77546,3.09238 -25.77808,6.87198 -38.28381,10.92083c-3.27763,1.06117 -6.42308,2.29247 -9.66313,3.33655c0.00101,2.78584 -0.01382,7.14137 -0.11213,7.42689c-0.30572,0.88798 -0.70735,1.74475 -1.18782,2.56838c0.24809,-0.11639 0.49515,-0.23889 0.74112,-0.36779c2.82156,-1.47865 5.00461,-3.9427 7.51911,-5.89843c0,0 1.97338,-1.53485 3.50823,0.43853c1.53485,1.97338 -0.43853,3.50823 -0.43853,3.50823c-0.43239,0.3363 -8.00934,6.24487 -8.26793,6.38038c-0.1155,0.06053 -0.23158,0.12014 -0.3482,0.17883c28.6241,0.10053 57.26658,0.33723 85.86208,-0.74549c34.51574,-1.30688 68.07393,-9.53768 102.33158,-13.15845c6.6382,-0.7016 13.36183,-1.78032 20.02741,-2.11287c10.07605,-0.50271 20.30603,0.106 30.32138,1.10268c2.95086,0.29366 6.35283,0.65285 9.65189,1.41067c-0.46184,-2.5468 -1.53391,-8.16201 -1.60348,-8.81052zM525.99029,185.54855c2.45145,0.49029 1.96116,2.94174 1.96116,2.94174c-1.14346,5.71729 -2.60675,11.39988 -1.96103,17.2911c0.40033,3.65237 1.178,7.23613 1.75909,10.86354c2.12019,0.89701 4.04431,2.07688 5.58237,3.65384c3.42484,3.51143 5.03839,9.40465 6.52366,13.86375c1.45969,4.38228 3.42125,8.61023 4.98022,12.98581c0.32177,0.10394 0.64435,0.20989 0.96796,0.31768c11.09947,3.69689 21.33783,8.49782 31.62579,14.0626c4.63619,2.51704 8.48931,5.48054 12.65492,8.7026c2.77343,2.14522 5.33577,4.61258 7.5178,7.35714c1.17478,1.47763 2.7596,2.72171 3.48336,4.46517c1.80389,4.34537 1.01751,5.89302 -0.04122,9.65943c-0.48598,1.72887 -0.7409,3.54721 -1.50093,5.17433c-5.00848,10.72251 -17.54834,15.7166 -27.17464,21.22621c-0.93567,0.53553 -1.86956,1.07419 -2.80164,1.61598c0.67957,0.27923 1.43283,0.89825 1.43283,2.27053c0,2.5 -2.5,2.5 -2.5,2.5l-5.57438,-0.06688c-1.77142,-0.93171 -3.91321,-1.36576 -5.31425,-2.79512c-2.72446,-2.77953 -1.61142,-9.6789 -1.6115,-12.99725c-0.00059,-5.84534 1.24813,-12.92537 -1.58697,-18.26453c-0.85962,-1.61887 -2.52338,-1.72879 -4.21836,-1.89496c-4.23339,-0.41501 -7.63839,-0.45834 -11.88081,-1.57249c-9.33948,-2.45274 -18.68204,-4.80006 -28.22353,-6.44259c-2.98549,-0.51394 -6.04369,-0.51078 -9.03241,-1.0056c-2.54156,-0.42079 -5.08583,-1.01391 -7.6261,-1.65355c-10.57685,1.55728 -21.2642,2.65664 -31.82243,4.21803c-19.16497,2.83419 -38.48552,4.65679 -57.80756,6.45935c-3.20697,2.02211 -6.41396,4.04419 -9.62101,6.06617c-9.34936,6.23346 -18.07199,14.43117 -28.09052,19.44941c-3.84586,1.92638 -8.86794,4.68447 -13.14411,5.45988c-4.72768,0.85729 -10.62908,0.04012 -15.44606,0.04012c-11.81825,0 -23.66224,-0.58078 -35.37517,1.05336c-11.65513,1.235 -22.79914,4.13722 -34.3311,6.05234c-4.91136,0.81563 -9.92736,1.01533 -14.83469,1.85179c-5.79863,0.98839 -11.59261,2.90284 -17.30057,4.32983c-10.49312,2.62328 -20.93696,5.37132 -31.37577,8.2028c-9.5379,2.9368 -18.6128,6.33634 -27.75857,10.29048c-4.01372,1.73532 -6.01571,4.1648 -10.58846,0.6695c-2.94885,-2.25403 -4.0402,-9.63441 -5.05687,-12.91712c-2.0806,-6.718 -4.40296,-13.37167 -6.62205,-20.05262c-0.50916,-0.06397 -1.01737,-0.1347 -1.52453,-0.21259c-0.32664,-2.52025 -0.64957,-5.03313 -0.97867,-7.53984c-0.57261,-1.8417 -1.12744,-3.68811 -1.65737,-5.54113c0,0 -0.42701,-1.49452 0.5708,-2.4634c-1.19946,-8.4648 -2.59138,-16.87309 -4.56182,-25.27134c-1.52853,-6.51481 -2.97721,-13.06416 -4.26928,-19.6307c-0.12411,-0.63074 -1.84654,-10.09959 -1.83286,-10.44437c0.10148,-2.55711 1.00655,-5.50401 1.9972,-8.36844c-1.15753,-0.23299 -1.7363,-1.39052 -1.7363,-1.39052l-0.84406,-1.73128c-0.70802,-1.85547 -2.93489,-3.7535 -2.12406,-5.5664c0.73069,-1.63373 3.42929,-1.0907 5.20419,-1.32036c0.52352,-0.06774 1.0541,-0.11964 1.59017,-0.15848c-0.00718,-0.37932 -0.02897,-0.7284 -0.07143,-1.03606c-1.08966,-7.89391 -4.00927,-15.95985 -5.94409,-23.69912c-0.87459,-3.49837 -2.92306,-8.66372 -3.05591,-12.30088c-0.06234,-1.70658 -0.63565,-4.02628 0.7135,-5.07323c1.79265,-1.3911 4.50306,-0.59131 6.76777,-0.73223c6.24895,-0.38883 12.41866,-0.32123 18.68386,-0.89018c15.99052,-2.08962 32.15768,-5.10596 48.31614,-5.10982c6.24121,-0.00149 10.4217,-0.82061 15.77084,3.06011c1.25965,0.91386 2.68553,1.81704 3.39984,3.19965c1.47686,2.85861 1.36138,6.86602 1.33301,10.12066c0.21941,-0.08226 0.44005,-0.16143 0.66208,-0.23713c7.56518,-2.5793 15.85762,-3.1957 23.78337,-3.1408c1.87969,0.01302 3.82102,-0.3991 5.63863,0.08015c1.81761,0.47926 3.31079,1.78178 4.94508,2.71049c1.09196,0.62053 2.39268,1.00228 3.23223,1.93641c3.09182,3.44013 4.25631,6.82684 4.60773,10.85621c2.75109,-0.93153 5.45124,-1.97387 8.25508,-2.88164c12.62543,-4.08761 25.74982,-7.9016 38.64759,-11.02359c10.90867,-2.64052 22.13215,-4.46007 33.21224,-6.20956c14.77032,-2.33216 29.54112,-2.33204 44.46409,-2.47071c19.6832,-0.1829 39.36359,-0.99984 59.04818,-1.00026c22.33333,0 44.66667,0 67,0l0.59215,0.3706c0.43935,-0.31 1.0519,-0.4913 1.89814,-0.32205zM266.07464,213.60634c-0.60634,-2.42536 1.81902,-3.0317 1.81902,-3.0317c0.03144,-0.00783 0.06286,-0.01569 0.09427,-0.02359c-0.09807,-3.33682 -0.75209,-5.87023 -3.25301,-8.7806c-0.53128,-0.61827 -1.46019,-0.72693 -2.16956,-1.12857c-1.26532,-0.71643 -2.34638,-1.85375 -3.7524,-2.22447c-1.40601,-0.37073 -2.90736,0.0718 -4.36137,0.08509c-7.39777,0.06761 -15.03745,0.45083 -22.11737,2.85421c-0.80969,0.27486 -1.59807,0.60277 -2.37503,0.95915c-0.14699,6.70729 -0.69625,13.27972 -1.80883,19.97704c-0.03282,0.19571 -0.06427,0.39131 -0.09443,0.5868c0.05323,0.03175 0.10671,0.06309 0.16042,0.09403c1.27844,0.73623 2.84305,0.78955 4.25903,1.20363c7.60882,2.22508 15.1417,2.32265 23.0246,2.32265c2.43223,0 4.87414,0.03846 7.28383,-0.12486c1.68697,-1.52917 4.61226,-3.96578 5.32344,-6.0996c0.50909,-1.52746 0.379,-3.15114 0.18731,-4.78683c-0.76319,-0.03854 -1.84302,-0.37469 -2.21994,-1.88237zM217.27251,204.31919c1.08104,-1.75812 3.28918,-2.49398 4.93377,-3.74096c0.93865,-0.43902 1.86418,-0.91092 2.79002,-1.38218c0.00254,-0.42865 0.00363,-0.85808 0.00334,-1.28836c-0.00123,-1.80862 0.25277,-6.75577 -0.67031,-8.66745c-0.37912,-0.78516 -1.30992,-1.15685 -2.02523,-1.65539c-4.30988,-3.00381 -7.69185,-2.08359 -12.80409,-2.08484c-15.96792,-0.0039 -31.96386,3.01755 -47.76599,5.07946c-6.32236,0.57537 -12.87054,1.48655 -19.23401,0.92054c-1.10037,-0.09787 -2.1308,-0.81731 -3.23223,-0.73223c-0.38871,0.03002 0.58199,0.55975 0.7135,0.92677c0.42927,1.19798 0.63217,2.46537 0.94409,3.69912c1.06088,4.1962 2.09954,8.39815 3.14929,12.59715c1.60672,6.42687 4.01372,13.14419 4.90663,19.70373c0.07044,0.51751 0.07139,1.04401 0.03339,1.57493c2.52845,0.06607 5.07309,0.23053 7.48534,0.23053c11.35685,0.00001 22.58574,-0.60618 33.92199,-0.99878c10.67168,-0.36959 21.3813,-0.39089 32.09464,-0.31019c0.05833,-1.03021 0.13303,-2.06121 0.23318,-3.09437c-5.48667,-5.03495 -9.46312,-14.29526 -5.4773,-20.77748zM224.72318,204.89855c-1.06921,0.68858 -2.52341,0.99373 -3.20762,2.06574c-0.65809,1.03108 -0.45764,2.42054 -0.43632,3.64355c0.04806,2.75726 0.98123,5.61252 2.57948,8.01137c0.65613,-4.61221 1.03632,-9.17549 1.2149,-13.79064c-0.0501,0.02344 -0.10025,0.04677 -0.15044,0.06998zM227.50214,228.23503c0.03883,0.00039 0.07766,0.00077 0.1165,0.00116c-0.03797,-0.01587 -0.07584,-0.03184 -0.1136,-0.0479c-0.00097,0.01558 -0.00194,0.03116 -0.0029,0.04674zM578.56397,308.80651c5.23888,-2.99856 10.14552,-5.5871 14.0031,-10.392c2.56092,-3.18981 5.91437,-10.09694 3.93311,-14.36752c-1.75234,-3.77715 -6.2796,-7.40697 -9.46818,-9.85565c-3.96694,-3.04642 -7.57131,-5.88908 -11.98128,-8.26485c-9.0166,-4.8771 -17.98431,-9.15063 -27.56291,-12.58673c1.36812,2.85895 2.30501,5.66254 0.0949,9.04311c-2.27014,3.4724 -6.03956,4.22649 -9.54872,5.4077c-4.37566,1.47289 -8.60507,2.48387 -13.09988,3.52111c-5.54653,1.27995 -11.11946,2.67591 -16.71137,3.8746c0.89963,0.08777 1.79658,0.19456 2.68706,0.34754c9.69134,1.66497 19.19168,4.04003 28.676,6.53948c2.35413,0.6204 4.73311,1.25132 7.16038,1.43885c4.40779,0.34055 9.10614,-0.36899 11.84093,4.11162c3.75255,6.14807 2.41206,14.15685 2.41276,21.01666c0.00007,2.65306 -0.24979,5.31499 -0.03214,7.95911c0.04955,0.60197 -0.01586,1.34526 0.42092,1.76245c0.0865,0.08262 0.17852,0.15703 0.27505,0.22474c5.58659,-3.34174 11.25043,-6.54645 16.90029,-9.78023zM442.84675,270.47584c-3.04437,0.40482 -5.89916,1.71126 -8.85233,2.55437c-4.13044,1.17921 -8.46064,2.41793 -12.38305,4.20918c-2.94662,1.34564 -5.7948,3.46636 -8.56695,5.35854c15.99298,-1.52125 31.96681,-3.17266 47.83337,-5.51908c6.36544,-0.94135 12.77836,-1.71352 19.18551,-2.52011c-12.17768,-2.7874 -24.64851,-5.75412 -37.21655,-4.08291zM165.655,337.55378c0.62646,2.02276 1.62608,8.69891 3.40932,10.49612c0.51941,0.52348 1.44678,0.6411 2.16289,0.46503c2.81645,-0.69246 5.24767,-2.47271 7.89618,-3.65478c7.7837,-3.47399 15.61209,-6.16252 23.76897,-8.67283c10.49762,-2.84902 21.00081,-5.61255 31.55344,-8.2507c5.80841,-1.4521 11.69488,-3.38138 17.59515,-4.3941c4.93997,-0.8479 9.98945,-1.04816 14.93365,-1.86925c11.60162,-1.92669 22.8137,-4.84164 34.54128,-6.08268c11.91731,-1.66433 23.9612,-1.09058 35.98412,-1.09058c4.51317,0 10.12056,0.84404 14.55394,0.04012c3.79921,-0.68893 8.40214,-3.31654 11.80016,-5.01225c9.83176,-4.90635 18.43169,-13.05664 27.60621,-19.17246c0.44354,-0.27969 0.88708,-0.55939 1.33063,-0.83908c-10.83031,1.02643 -21.65188,2.10577 -32.43756,3.41278c-34.74902,4.21089 -69.29772,9.02953 -103.85694,14.60596c-22.86903,3.81154 -45.7466,7.81013 -68.83776,10.00825c-9.18207,0.87407 -18.68957,2.25869 -27.98953,1.87796c2.02253,6.03696 4.10463,12.05831 5.98584,18.1325z" fill="#ffffff" stroke-width="0.5"/><path d="M303.65706,126.78387c0.06766,0.03533 0.13218,0.07164 0.19368,0.10885c-0.02863,-0.87408 0.00748,-1.73878 0.24376,-2.57358c0.11854,-0.41882 5.09706,-8.46921 5.51733,-9.14597c8.19237,-13.19222 24.94367,-19.74628 39.44596,-23.09605c10.05771,-2.32315 19.90496,-3.36823 30.24331,-3.46078c4.26956,-0.03822 9.31109,-0.79409 13.53473,-0.09368c6.6884,1.10913 13.68979,3.46019 19.19399,7.29657c3.95673,2.75781 9.23403,6.65274 11.69708,10.93936c0.12967,0.22567 2.99859,9.84125 3.10019,10.31971c1.2077,5.68781 1.22325,8.96617 -0.53651,14.45569c-0.55465,1.59345 -0.76068,3.35527 -1.66394,4.78034c-0.99483,1.56954 -2.58874,2.6667 -3.89439,3.98897c-4.61091,4.66961 -8.92003,7.57661 -14.61034,10.89486c-14.19764,8.27921 -30.38276,14.50068 -46.87864,16.19054c-8.2347,0.84358 -16.97255,0.09869 -25.25253,0.10531c-6.43856,-0.0109 -14.25509,-0.86237 -20.36103,-3.15039c-0.16531,-0.06194 -8.87207,-4.88286 -9.16936,-5.06348c-0.66678,-0.40511 -1.32424,-0.82552 -1.97504,-1.2562c-3.12081,2.19823 -6.76283,5.26472 -10.11793,6.32076c-2.78943,0.87799 -5.89539,1.20574 -9.05787,1.298l-2.5337,1.50725c0,0 -2.14996,1.2758 -3.42576,-0.87417c-0.13825,-0.23298 -0.23628,-0.4557 -0.30117,-0.66764c-1.89288,-0.04936 -3.7435,-0.10891 -5.49402,-0.10862c-2.94876,0.00049 -6.15088,1.07011 -8.84535,-0.12781c-0.03828,-0.01702 -0.07652,-0.03434 -0.11473,-0.05196c-1.49577,1.03576 -5.18602,1.92317 -6.93645,2.8957c-2.72752,1.51541 -5.20974,3.44631 -7.93542,4.96502c-1.66208,0.92608 -3.34832,1.78523 -5.05353,2.59615c0.48623,0.39053 1.02793,0.68595 1.6212,0.85165c1.43946,0.40204 2.99443,-0.25535 4.48222,-0.11336c3.1498,0.3006 6.18077,1.35821 9.26953,2.0446c0,0 2.44047,0.54233 1.89814,2.98279c-0.54233,2.44047 -2.98279,1.89814 -2.98279,1.89814c-2.91124,-0.64694 -5.76453,-1.6438 -8.73047,-1.9554c-1.82958,-0.19221 -3.7925,0.52517 -5.51778,-0.11336c-1.85442,-0.68633 -3.55264,-1.93185 -4.85272,-3.43833c-1.1537,0.48999 -2.31363,0.9664 -3.47829,1.43473c-1.35468,0.78811 -2.63321,1.83766 -4.16758,2.01717c-0.10939,0.0128 -0.2188,0.02366 -0.32822,0.03269l0.01058,0.05291l-4.85228,0.97046c-0.17418,0.03842 -0.35518,0.05867 -0.54091,0.05867c-1.38071,0 -2.5,-1.11929 -2.5,-2.5c0,-1.18975 0.83109,-2.18539 1.9444,-2.43804l3.83376,-0.95844c1.11099,-0.43422 2.2199,-0.86802 3.32523,-1.30668c1.3001,-0.86676 2.72344,-1.61586 4.15722,-2.35413c-1.0796,-3.83019 -0.6415,-8.24441 3.05976,-10.14689c1.71766,-0.88289 3.76004,-0.8913 5.65952,-1.24034c4.25749,-0.78235 8.60128,-1.26331 12.89752,-1.85181c-1.7485,-3.28074 -2.06237,-7.22697 0.6725,-10.26798c2.18813,-2.43307 7.16844,-4.13055 10.18526,-5.09208c4.79109,-1.52703 9.7684,-2.66315 14.64371,-3.88685c4.03759,-0.99272 8.50511,-1.26943 12.83473,-1.17032c-0.03739,-0.54814 -0.0247,-1.09415 0.07509,-1.63627c0.08801,-0.47814 4.46985,-8.80105 4.8708,-9.56899l0.12438,-0.23824c0,0 1.15706,-2.21613 3.37318,-1.05907zM303.96417,131.49156c-1.4178,2.29981 -3.27486,4.43847 -3.7581,7.06376c-0.05879,0.31938 -0.06852,0.63955 -0.04636,0.96028c1.48406,-0.02322 3.19454,-0.33777 4.10805,0.71663c0.047,0.05425 0.0918,0.10985 0.13449,0.16674c-0.82615,-2.81503 -0.55002,-5.79586 -0.43809,-8.90741zM301.62929,151.69c0.15991,0.46388 0.92153,0.35292 1.3402,0.6088c0.20382,0.12457 0.40553,0.25245 0.60575,0.38266c0.15808,0.07719 0.31519,0.17879 0.46825,0.30993c1.00295,0.6741 1.98043,1.38824 3.01303,2.01561c2.7136,1.64867 5.34106,3.53375 8.31379,4.64938c5.5418,2.07978 12.76402,2.85847 18.61641,2.83763c8.10898,-0.00649 16.68371,0.74674 24.74699,-0.07928c15.78837,-1.61739 31.28599,-7.60947 44.86883,-15.53547c7.06279,-4.12135 15.36246,-8.7147 17.94462,-16.92642c0.48802,-1.39642 1.25361,-2.72508 1.46405,-4.18927c0.52914,-3.68162 -1.44861,-8.80532 -2.43914,-12.25716c-0.40615,-1.41536 -0.44687,-2.98007 -1.18046,-4.2568c-0.7336,-1.27673 -2.06551,-2.09931 -3.08318,-3.16352c-3.09517,-3.23671 -6.78074,-6.83214 -10.88346,-8.82904c-6.4708,-3.1495 -14.06352,-3.74691 -21.07994,-3.68501c-11.67258,0.10298 -22.78017,0.74782 -34.16194,3.37681c-9.49957,2.19423 -18.50096,5.23531 -26.34725,11.21593c-2.52938,1.92795 -5.48619,3.38268 -7.62196,5.73921c-2.13577,2.35653 -3.27003,5.45641 -4.96423,8.14796c-0.76713,1.21872 -1.95194,2.24328 -2.34413,3.62891c-0.39219,1.38562 0.0799,2.87916 0.0945,4.31914c0.04724,4.65812 -1.30096,10.88124 3.21054,14.21925c2.30455,1.70511 5.5095,0.01476 7.60266,-0.62306c0,0 2.40381,-0.6868 3.09061,1.71701c0.6868,2.40381 -1.71701,3.09061 -1.71701,3.09061c-4.4203,1.19791 -7.2063,2.87904 -11.77528,-0.04143c-1.66276,-1.06283 -2.36267,-3.1625 -3.48917,-4.7828c-0.31866,-0.45834 -0.59085,-0.92191 -0.82292,-1.39055c0.17276,1.14851 0.00235,2.43106 -0.2067,3.53543c-0.27524,1.45406 -1.50644,2.55275 -2.37468,3.75117c-0.35599,0.49136 -0.72899,0.97175 -1.11714,1.44212c0.06496,0.25974 0.14048,0.51727 0.22838,0.77225zM293.23423,158.46505c1.60402,-0.92965 3.24828,-2.17134 4.79527,-3.33488c-0.12746,-0.1057 -0.24541,-0.21902 -0.35039,-0.34262c-1.40872,1.28525 -2.90825,2.50211 -4.44487,3.6775zM281.67395,160.73366c4.54294,-3.41108 9.90468,-6.72792 13.96783,-10.62949c0.31826,-0.3056 0.61272,-0.63307 0.89299,-0.97349c-0.2168,-1.69102 -0.42105,-3.42505 -0.55301,-4.5799c-1.46779,0.03337 -2.96372,-0.04705 -4.48175,-0.05077c-2.64834,-0.0065 -5.33904,0.14708 -7.90402,0.80636c-3.2167,0.80721 -6.42525,1.64754 -9.62524,2.51862c-3.76687,1.02539 -9.53823,1.89327 -12.52064,4.73934c-1.6895,1.61226 -0.83261,4.31691 0.59472,6.17721l0.81716,-0.16343c0.17418,-0.03842 0.35518,-0.05867 0.54091,-0.05867c1.3648,0 2.47417,1.09364 2.49956,2.45238c1.83128,0.1242 3.79011,-0.47205 5.65168,-0.47226c3.10483,-0.00036 6.63705,0.25048 10.1198,0.23412zM245.01047,168.9673c0.08895,-0.04906 0.17783,-0.09833 0.26664,-0.14779c1.71288,-0.95407 3.33137,-2.06829 4.97354,-3.1422c-1.81041,0.25689 -3.6194,0.52188 -5.42471,0.80605c-1.71316,0.26967 -4.7235,-0.27661 -5.00085,1.43532c-0.12149,0.74991 -0.10645,1.61191 0.03513,2.49737c0.13906,-0.08868 0.27686,-0.17853 0.41328,-0.26969l1.83975,-1.2265c0,0 1.57463,-1.04976 2.89722,0.04743z" fill="#ffffff" stroke-width="0.5"/><text transform="translate(82.5,69) scale(0.5,0.5)" font-size="40" xml:space="preserve" fill="#ffffff" fill-rule="nonzero" stroke="none" stroke-width="1" stroke-linecap="butt" stroke-linejoin="miter" stroke-miterlimit="10" stroke-dasharray="" stroke-dashoffset="0" font-family="Pixel" font-weight="normal" text-anchor="start" style="mix-blend-mode: normal"><tspan x="0" dy="0">when everybodys dreaming</tspan></text></g></g></svg>