<svg version="1.1" xmlns="http://www.w3.org/2000/svg" xmlns:xlink="http://www.w3.org/1999/xlink" width="611" height="328" viewBox="0,0,611,328"><g transform="translate(-14.5,-16)"><g data-paper-data="{&quot;isPaintingLayer&quot;:true}" fill-rule="nonzero" stroke-linejoin="miter" stroke-miterlimit="10" stroke-dasharray="" stroke-dashoffset="0" style="mix-blend-mode: normal"><path d="M15.5,343v-326h609v326z" fill="#ffffff" stroke="#000000" stroke-width="2" stroke-linecap="butt"/><path d="" fill="#ffffff" stroke="#000000" stroke-width="2" stroke-linecap="butt"/><path d="M23.25,284.75v-248h590v248z" fill="#ffffff" stroke="#000000" stroke-width="2" stroke-linecap="butt"/><text transform="translate(23.25,306.75) scale(0.5,0.5)" font-size="40" xml:space="preserve" fill="#000000" fill-rule="nonzero" stroke="none" stroke-width="1" stroke-linecap="butt" stroke-linejoin="miter" stroke-miterlimit="10" stroke-dasharray="" stroke-dashoffset="0" font-family="Sans Serif" font-weight="normal" text-anchor="start" style="mix-blend-mode: normal"><tspan x="0" dy="0">Skibidi player</tspan></text><text transform="translate(26.25,322.44108) scale(0.28884,0.28884)" font-size="40" xml:space="preserve" fill="#000000" fill-rule="nonzero" stroke="none" stroke-width="1" stroke-linecap="butt" stroke-linejoin="miter" stroke-miterlimit="10" stroke-dasharray="" stroke-dashoffset="0" font-family="Sans Serif" font-weight="normal" text-anchor="start" style="mix-blend-mode: normal"><tspan x="0" dy="0">Jan 18 2025</tspan></text><text transform="translate(97.25,323.90654) scale(0.28972,0.31308)" font-size="40" xml:space="preserve" fill="#000000" fill-rule="nonzero" stroke="none" stroke-width="1" stroke-linecap="butt" stroke-linejoin="miter" stroke-miterlimit="10" stroke-dasharray="" stroke-dashoffset="0" font-family="Sans Serif" font-weight="normal" text-anchor="start" style="mix-blend-mode: normal"><tspan x="0" dy="0">999D views</tspan></text><text transform="translate(25.25,337.33921) scale(0.27558,0.27558)" font-size="40" xml:space="preserve" fill="#000000" fill-rule="nonzero" stroke="none" stroke-width="1" stroke-linecap="butt" stroke-linejoin="miter" stroke-miterlimit="10" stroke-dasharray="" stroke-dashoffset="0" font-family="Sans Serif" font-weight="normal" text-anchor="start" style="mix-blend-mode: normal"><tspan x="0" dy="0">RandomLifeGameBrainrot TV Entertainment</tspan></text><path d="M307.51252,157.43251l-0.55134,-0.66161l-0.58648,-0.58648l-0.09258,-0.1543l-0.13966,-0.11347l-0.39339,-0.52453l-0.70771,-0.7077l-0.01991,-0.03319l-0.0849,-0.04245l-0.40043,-0.1001l-0.27156,-0.14483l-0.3721,-0.09302l-0.08666,-0.15165l-0.40657,-0.21684l-0.27397,-0.9741l-0.48281,-0.84491l0.16431,-0.28754l-0.08967,-0.3188l0.67332,-0.70259l0.50204,-0.87857l0.44702,-0.11176l0.12084,-0.1261h0.38356l0.29858,-0.07464h2.36154l1.36238,-0.15138l0.01401,0.0019l0.01331,-0.00477l1.653,-0.1653l2.96933,-0.32993l1.31635,-0.16455l0.01749,0.00212l0.01652,-0.00614l1.36568,-0.15174l1.17016,-0.26004l1.33131,-0.53252l1.23771,-0.68762l0.88308,-0.63077l1.02036,-1.02036v0c0.28705,-0.28705 0.64357,-0.50462 1.04219,-0.62532l0.06266,-0.03759l0.03621,0.00988c0.20028,-0.0517 0.41027,-0.0792 0.6267,-0.0792c0.07873,0 0.15662,0.00364 0.23349,0.01076c0.12485,-0.07351 0.25665,-0.13648 0.39417,-0.18769l0.05831,-0.46649l0.46513,-1.20158l2.32565,-0.96903l2.01556,1.51167l0.15505,1.27911l-0.16667,1.33333l-0.11014,0.28454l-0.03719,0.30283l-0.61339,1.59481l0.03983,0.08691l0.20472,0.26937l0.38528,0.89897l0.00436,0.0025l0.00461,0.01845l0.10575,0.24675l0.08012,0.4967l0.12202,0.4881v0.26845l0.00303,0.01878l-0.00303,0.00401v3.87542l-0.07464,0.29857v0.30777l-0.16667,0.66666l-0.04613,0.08649l-0.00752,0.09774l-0.11745,0.35234l-0.13614,0.68071l-0.06763,0.14277l-0.01212,0.15751l-0.16667,0.5l-0.14781,0.23228l-0.08016,0.26339l-0.5,0.83334l-0.21762,0.21762l-0.15834,0.2639l-1.5,1.5l-0.09911,0.05947l-0.0682,0.09332l-0.22627,0.18856c1.75386,-0.00595 3.50831,-0.03141 5.26079,-0.03282c5.52736,-0.00443 11.08761,0.15215 16.60143,-0.24964v0.00001c3.03941,-0.22148 6.14444,-0.61559 9.2343,-0.76979c0.32463,-3.23591 0.62519,-6.46834 0.43533,-9.72987c-0.31951,-5.48858 -1.43587,-10.97219 -2.35453,-16.38179c-1.16782,-6.87687 -2.38967,-13.55279 -4.17606,-20.29637c-0.40165,-0.89604 -0.80268,-1.79563 -1.20656,-2.69602c-0.11362,0 -0.22724,0 -0.34085,0l-1.54153,-0.96479c0,0 -0.98457,-0.98457 0,-1.96914c0.13771,-0.13771 0.27541,-0.23689 0.41042,-0.30564c-2.67111,-5.77277 -5.63155,-11.44366 -9.80163,-16.28818c-2.05801,-2.39084 -4.7422,-4.52022 -7.11783,-6.5998c-4.59656,-4.02373 -9.14463,-6.95321 -15.40654,-7.29055c-2.13331,-0.02639 -2.47848,0.58843 -4.36132,1.52985c-0.5251,0.26256 -1.14314,0.29972 -1.67087,0.55696c-2.57712,1.25625 -4.3479,4.05805 -5.4681,6.56006c-1.21535,2.71452 -1.18635,4.81797 -1.52586,7.69987c-0.21006,1.78303 -0.91837,3.48183 -1.14666,5.26262c-0.77172,6.0199 -1.10336,12.03491 -1.1039,18.15976c-0.00036,11.8096 -0.0002,23.61922 -0.00013,35.42884l0.83546,-0.00794c0,0 1.3924,0 1.3924,1.3924c0,1.3924 -1.3924,1.3924 -1.3924,1.3924l-0.83545,-0.01037c0,0.76242 0.00001,1.52483 0.00001,2.28726c2.97391,0.716 5.93813,1.67397 8.9323,2.20635c0.23765,0.04225 0.47644,0.08169 0.71617,0.11865l-0.84367,-0.84367l-0.09258,-0.15429l-0.13966,-0.11347l-0.5,-0.66666l-0.08818,-0.20944l-0.14789,-0.17253l-0.33333,-0.66667l-0.03904,-0.17565l-0.09661,-0.15181zM322.80129,153.27627l-1.61121,0.74364l-0.13831,0.02623l-0.11877,0.07558l-3,1l-0.04566,0.00351l-0.0395,0.02319l-2.83333,0.83333l-0.07574,0.00312l-0.06752,0.03445l-1.42781,0.3295l1.88657,1.88657l0.33357,0.27797l0.48985,0.06998h3.14466l0.92209,-0.13173l0.437,-0.0874l0.228,-0.114l0.66452,-0.44302l0.54126,-0.54125l0.07659,-0.53616l0.03698,-0.09078l-0.00258,-0.09799l0.31543,-1.41941zM314.93901,164.17677c-2.09502,-0.16428 -4.21615,-0.32919 -6.25767,-0.69218c-2.83142,-0.50343 -5.63602,-1.37617 -8.4448,-2.0776c0,0.23354 0,1.58101 0,1.81455c0,0 0,1.3924 -1.3924,1.3924c-1.3924,0 -1.3924,-1.3924 -1.3924,-1.3924v-1.11392c0,-0.43998 0,-0.87997 0,-1.31995c-0.16583,-0.03118 -0.33172,-0.06115 -0.49765,-0.0898c-1.47105,-0.25395 -3.2986,0.01736 -4.79346,0.01736h-0.83485c-8.036,6.63965 -16.67519,12.5172 -24.05938,19.90139c-1.86927,1.86927 -4.10291,3.69443 -5.76278,5.75012c-0.83016,1.02812 -1.45666,2.20118 -2.11557,3.351c0.36498,1.02025 0.35691,2.23878 0.11902,2.90598c-0.29705,0.83308 -0.9462,1.46138 -1.59615,2.09482c0,0.00396 -0.00001,0.00792 -0.00001,0.01188c0.12804,0.02262 0.25342,0.06317 0.37527,0.12407c0.98194,0.49078 0.78717,2.12428 0.69814,3.21842c-0.04936,0.60666 -0.45049,1.11006 -0.7853,1.63902c0.63075,0.79254 0.08168,1.55057 -0.09314,1.75607c0.16001,2.0876 0.35874,4.17084 0.35874,6.31027c0,0.43698 0.00238,4.71127 -0.00871,5.14723c0.12079,0.13807 0.24223,0.27731 0.3634,0.41898c3.17383,3.71063 7.14832,7.18633 11.93984,8.67349c1.31669,0.40867 2.75713,-0.03779 4.13577,-0.03725c3.42682,0.00132 7.03139,-0.20497 10.43059,-0.54868c2.55104,-0.25795 5.21145,-1.15914 7.73005,-1.66293c9.23319,-1.83826 17.60886,-6.38924 25.71915,-10.97979c7.45429,-4.21925 14.9488,-8.11248 22.08409,-12.88399c3.00784,-2.04183 6.12096,-4.03134 8.86045,-6.43612c4.77724,-4.19356 8.76909,-9.28406 13.21139,-13.81424c1.28339,-1.30878 2.63607,-2.55291 3.85162,-3.92494c0.06103,-0.06889 0.22798,-0.2753 0.45821,-0.5637c0.31291,-2.20528 0.64634,-4.4056 0.82136,-6.61792c-1.72738,0.09586 -3.75412,0.6329 -5.14328,-0.04048c-0.20783,-0.10075 -0.40896,-0.22253 -0.59947,-0.36172c-3.15026,0.39466 -6.26346,0.46665 -9.44948,0.46771h-1.11435c0,0 -0.7341,0 -1.13624,-0.53303c-1.02393,0.10335 -2.0386,0.20065 -3.03819,0.27321c-5.58108,0.40512 -11.20657,0.25249 -16.80119,0.25698c-3.24059,0.0026 -6.48499,0.08014 -9.72171,-0.02262l-0.2287,0.06534l-0.34851,0.01162l-0.33829,0.08458h-3l-0.24157,-0.06039l-0.24872,0.01184l-0.83333,-0.16666l-0.38666,-0.18315l-0.40929,-0.12457zM245.3391,207.50109c1.1771,-1.28429 2.04753,-2.76909 3.1366,-4.11834c0.1832,-0.92034 0.35045,-1.85283 0.48006,-2.80377c0.18741,-1.37507 -0.16328,-2.79299 0.05855,-4.16292c0.35649,-2.20153 0.80753,-3.91699 1.79989,-5.96926l-0.147,-0.49122c0,0 0,-1.39239 1.3924,-1.39239c1.3924,0 1.39239,1.39239 1.39239,1.39239l-0.147,1.73662c-1.2912,2.47532 -1.23941,4.79333 -1.40779,7.35812c0.31142,-0.51185 0.61105,-1.03253 0.91042,-1.55208c0.31226,-1.57309 0.67462,-3.37458 0.71918,-3.48799c0.02899,-0.07378 0.79869,-1.33633 1.54216,-2.54925c0.07078,-1.58184 0.42389,-3.1655 1.68337,-3.41752c0.14716,-0.02945 0.28787,-0.04662 0.42232,-0.05253c0.66488,-1.15595 1.31525,-2.32272 2.14968,-3.35788c0.06883,-0.08539 3.83526,-3.84792 4.0038,-4.01645c1.9619,-1.9619 3.86789,-4.03019 5.90988,-5.90816c4.6032,-4.23345 9.92317,-7.60092 14.81779,-11.46471c2.05513,-1.62232 3.99873,-3.42553 6.01105,-5.1025c2.30223,-1.90889 4.70609,-3.08876 7.38489,-4.05954c-0.00007,-12.00935 -0.00023,-24.01868 0.00013,-36.02803c0.00025,-2.77496 -0.25674,-5.73346 0.01771,-8.4937c0.33082,-3.32716 0.67564,-6.69753 1.10602,-9.99765c0.23176,-1.77723 0.94025,-3.4729 1.14556,-5.25337c0.2208,-1.91477 0.11965,-3.89251 0.64899,-5.74587c0.99986,-3.50073 3.05324,-7.12066 5.94564,-9.40525c1.06112,-0.83813 2.40334,-1.24018 3.61277,-1.84489c2.1621,-1.08105 3.1433,-1.78919 5.66395,-1.8119c6.93325,0.41235 12.04936,3.50745 17.16121,7.97845c2.47468,2.16443 5.25141,4.38902 7.3946,6.87883c4.72813,5.49283 7.98701,11.99647 10.96175,18.55974c1.68707,0.00007 3.37413,0.00018 5.0612,0.00026c-0.14224,-0.19898 -0.23879,-0.46908 -0.23879,-0.83573c0,-1.3924 1.3924,-1.3924 1.3924,-1.3924l2.0048,0.01798c0.34958,-0.09637 0.77909,-0.04664 1.04874,-0.28909c0.42012,-0.37772 0.44591,-1.08831 0.8823,-1.44709c0.0356,-0.02927 0.07161,-0.05794 0.10801,-0.08603l-0.01578,-0.01578l1.11392,-1.11391c0.25197,-0.25197 0.60007,-0.40783 0.98457,-0.40783c0.769,0 1.39239,0.6234 1.39239,1.3924v1.67088c0,0.83552 0,1.67104 0,2.50656c2.33167,0.00432 4.59201,0.06126 6.86603,-0.15174c-0.15164,-0.28497 -0.52902,-1.19812 0.43752,-1.84248c1.15855,-0.77237 1.93091,0.38618 1.93091,0.38618c0.23538,0.37276 0.53948,0.71585 0.79928,1.07807c0.41061,0.06714 0.9225,0.31262 1.0784,1.0921c0.15073,0.75369 -0.19778,1.17454 -0.54029,1.40036c0.01822,1.65641 0.01037,4.09695 0.01037,4.4423c0,3.57974 -0.29674,7.05985 -0.46406,10.6282c-0.45904,9.78925 -0.0929,19.67377 -0.0929,29.47285c0,1.85654 0.09315,3.71539 0,5.56959c-0.00501,0.09979 -0.00543,0.20188 -0.00272,0.30559c0.02041,0.00443 0.04106,0.00925 0.06195,0.01447c1.35082,0.3377 1.01312,1.68852 1.01312,1.68852c-0.16085,0.6422 -0.85839,3.75443 -1.32259,4.35742c-0.6152,0.79914 -1.62063,1.21273 -2.33195,1.92763c-0.91691,0.92151 -1.64577,2.00879 -2.42621,3.05219c-0.29022,2.15395 -0.53137,4.31549 -0.56143,6.50218c-0.08406,6.11549 0.00023,12.2383 0.00023,18.35434c0,3.7868 0.15712,7.49477 -0.46439,11.23647c-0.05558,1.85189 -0.44356,3.67893 -0.63769,5.52145c-0.17817,1.69095 0.16676,3.41071 -0.01864,5.10088c-0.60323,5.49915 -2.99051,10.82411 -3.90989,16.23746c-0.25093,1.47749 0.02554,3.28865 0.01797,4.78959c-0.00607,1.2036 -0.36997,2.37875 -0.57494,3.56479c-0.48093,2.78283 0.15648,5.47794 -0.54941,8.30147c0.01101,1.58449 0.15903,3.26605 0.01043,4.8425c-0.08405,0.89158 0.2758,2.077 -0.40783,2.65546c-0.824,0.69723 -2.13603,0.32713 -3.21241,0.40782c-1.6662,0.12491 -3.34175,0.00065 -5.01263,0c-5.72681,-0.00226 -11.47458,0.82742 -17.18874,1.11178c-1.8342,0.09128 -3.68209,-0.18789 -5.50939,-0.00464c-1.53332,0.15376 -3.05703,0.7347 -4.58851,0.56372c-0.93552,-0.10445 -2.32479,0.29241 -2.77274,-0.5355c-1.32478,-2.4485 0.33988,-3.66616 1.58393,-4.93068c1.34312,-4.38802 3.26646,-8.72498 4.20648,-13.24081c0.8471,-4.06946 0.69695,-8.28941 1.16559,-12.37436c0.35909,-3.13007 2.29895,-5.90236 2.79235,-8.96426c0.0886,-0.54986 -0.09306,-1.12174 0,-1.67087c0.22288,-1.31517 0.94636,-2.5215 1.10637,-3.8458c0.01748,-0.14471 0.03367,-0.28967 0.04896,-0.43481c-0.00592,0.00552 -0.00998,0.00918 -0.01207,0.01085c-2.57254,2.06164 -5.48749,3.92826 -8.52085,5.14897c-4.31091,1.73483 -8.34264,4.17485 -12.68689,5.78122c-7.04528,2.60512 -14.84809,2.39327 -22.13103,3.80897c-7.62683,1.28154 -14.95844,2.28521 -22.70821,2.28521c-2.2695,0 -5.28459,0.50615 -7.50378,-0.02513c-2.33902,-0.55997 -5.82638,-2.15907 -7.79131,-3.57946c-1.23473,-0.89255 -1.87941,-2.40796 -2.95522,-3.48676c-0.51488,-0.51631 -1.3479,-0.67565 -1.79285,-1.25331c-1.15051,-1.49368 -1.56723,-4.89557 -1.91216,-6.61293c-0.68725,-2.81008 -0.55327,-5.44493 -0.1354,-8.06089c-0.10316,0.11232 -0.20871,0.22315 -0.31698,0.33228l-1.54154,0.40783c0,0 -1.39239,0 -1.39239,-1.3924c0,-1.2569 1.13458,-1.37921 1.3554,-1.39111zM249.83175,211.95543c-0.04785,0 -0.09513,-0.00241 -0.14173,-0.00712c-0.12002,1.65021 -0.04022,3.32247 0.39727,5.0476c0.28622,1.43746 0.63591,2.86467 1.0654,4.266c0.12811,0.41799 0.06054,0.93196 0.34256,1.26602c0.39348,0.46611 1.11696,0.54381 1.5489,0.97452c0.97476,0.97199 1.48846,2.40477 2.61437,3.19676c1.72405,1.21273 4.64728,2.59825 6.68963,3.10405c2.00661,0.49694 4.91395,-0.02513 6.97716,-0.02513c7.58417,0 14.7495,-0.98673 22.21354,-2.24093c7.10566,-1.36244 14.79738,-1.12795 21.6575,-3.67953c2.56423,-0.95375 4.91278,-2.47534 7.36451,-3.64989c2.44658,-1.17208 5.31619,-1.73175 7.6769,-3.06116c2.70875,-1.52541 5.06718,-3.56701 7.31898,-5.70497l1.01565,-2.03129c0.22327,-0.47098 0.70304,-0.79668 1.25889,-0.79668c0.769,0 1.3924,0.62339 1.3924,1.39239c0,0.16536 -0.02883,0.324 -0.08174,0.47115l-0.53421,1.60264c-0.34766,1.3743 -0.32732,2.81674 -0.50841,4.22289c-0.1749,1.35802 -0.90045,2.60036 -1.12147,3.95163c-0.0899,0.54965 0.09416,1.12192 0,1.67087c-0.51807,3.02056 -2.44827,5.78501 -2.77724,8.85844c-0.44573,4.16434 -0.34062,8.4579 -1.20317,12.60162c-1.00046,4.80621 -2.93545,9.52944 -4.56394,14.13735c-0.59018,0.57999 -1.29094,1.06966 -1.75783,1.75283c-0.14696,0.21503 0.31634,-0.47233 0.56902,-0.53549c0.51346,-0.12834 1.06274,0.06321 1.58777,-0.00361c0.92227,-0.11739 1.80976,-0.45607 2.73506,-0.54658c2.59457,-0.2538 5.19057,0.04203 7.7979,-0.24769c2.67811,-0.29758 5.2141,-0.18276 7.89206,-0.31706c2.44464,-0.12261 4.82803,-0.55501 7.28257,-0.55595c1.67088,-0.00064 3.35316,-0.19497 5.01263,0c0.43317,0.05089 0.82949,0.54574 1.24326,0.40782c0.25246,-0.08415 -0.36245,-0.42408 -0.40782,-0.6863c-0.09495,-0.54881 0,-1.11392 0,-1.67088c0,-1.17064 0.00379,-2.34127 0.01043,-3.51188c0.71626,-2.86506 0.10453,-5.55531 0.5645,-8.4073c0.09348,-0.57959 0.45698,-1.09235 0.55696,-1.67087c0.3729,-2.15772 -0.35629,-4.5131 0,-6.68351c0.21609,-1.31631 0.92251,-2.52462 1.10637,-3.84581c0.37644,-2.70501 0.95254,-5.33243 1.71525,-8.01407c0.3957,-1.39124 0.91278,-2.768 1.06592,-4.20629c0.18049,-1.69521 -0.15441,-3.4185 0.02,-5.11435c0.18894,-1.83703 0.58299,-3.65758 0.63588,-5.50355c0.61084,-3.65252 0.45125,-7.26788 0.45125,-10.96612c0,-6.1329 -0.08466,-12.27263 0.00023,-18.40497c0.0138,-0.99648 0.07227,-1.98812 0.15965,-2.97644c-0.89312,0.91087 -1.72603,1.76 -1.75565,1.7902c-4.49041,4.57848 -8.52748,9.71107 -13.35546,13.95102c-2.83108,2.48627 -6.0395,4.54845 -9.14858,6.65898c-7.20172,4.81601 -14.76406,8.74733 -22.2863,13.00805c-8.36996,4.74087 -17.0045,9.36432 -26.52686,11.27695c-2.60317,0.52056 -5.33679,1.42592 -7.97296,1.70046c-3.49317,0.36379 -7.21329,0.56391 -10.73384,0.56524c-1.59191,0.0006 -3.24709,0.40759 -4.77558,-0.03725c-0.99375,-0.28921 -1.86497,-0.89815 -2.79359,-1.35514c-3.98018,-1.95872 -6.9485,-4.13175 -9.85369,-7.34279c-0.24948,0.23604 -0.58623,0.3808 -0.95679,0.3808c-0.62635,0 -1.15612,-0.41358 -1.3311,-0.98254l-0.54681,-1.64042l0.07981,-0.0266l-0.13329,-0.19067c-0.00349,-0.36802 -0.01062,-0.73898 -0.02014,-1.11226c-0.28427,-0.45641 -0.5436,-0.95787 -0.77689,-1.5457c-0.39661,-0.99936 -0.68574,-2.09787 -0.89598,-3.24051c-0.38974,0.44022 -0.79434,0.86973 -1.22193,1.28292l-0.4793,1.91717c-0.14072,0.62007 -0.69525,1.08295 -1.35789,1.08295zM370.97035,161.55065c-0.00042,0.25533 -0.00388,0.51036 -0.01011,0.76511c0.11402,0.02454 0.22803,0.04847 0.34203,0.07136c0.35202,0.07066 0.90118,0.29063 1.0769,-0.02248c0.22876,-0.40762 -0.26182,-0.90468 -0.2949,-1.37094c-0.13142,-1.85187 0,-3.71305 0,-5.56959c0,-10.75735 -0.56361,-21.70623 0.3305,-32.42888c0.21533,-2.58228 0.22646,-5.08152 0.22646,-7.67218c0,-1.3964 0.18542,-2.66496 0.06932,-3.87048c-2.61234,0.30155 -5.18947,0.25353 -7.86676,0.25039c0,6.21933 0,12.43865 0,18.65798c0,6.37164 0.09605,12.71127 -0.38611,19.06618c-0.21025,2.77124 -0.3831,5.54336 -0.5568,8.31709c-0.0689,1.1002 -0.38842,2.21094 -0.33473,3.3034c1.15359,0.16996 2.29604,0.42047 3.42284,0.77445c0.30605,0.00277 0.61208,0.0059 0.91808,0.00707c0.09271,0.00036 0.18527,0.00283 0.27769,0.00719c0.00069,-0.09519 0.00096,-0.19041 0.00079,-0.28567c0,0 0,-1.3924 1.3924,-1.3924c1.3924,0 1.39239,1.3924 1.39239,1.3924zM371.1954,165.16986c-0.13811,0.01369 -0.27284,-0.0003 -0.4056,-0.03173c-0.05969,0.65033 -0.13131,1.29956 -0.21046,1.94819c0.57224,-0.45686 1.283,-0.76075 1.75517,-1.31945c0.20005,-0.2367 0.33776,-0.50608 0.43717,-0.79543c-0.52372,0.10408 -1.07213,0.14844 -1.57629,0.19842zM297.39243,157.94778c0.01976,0.00327 0.03953,0.00657 0.0593,0.00988c0,-0.30451 0,-0.60903 0,-0.91354c-0.60491,0.24237 -1.19474,0.49893 -1.77188,0.7796c0.59215,0.00253 1.17095,0.03433 1.71258,0.12405zM359.82853,150.91517c0.19181,3.29486 -0.08752,6.56036 -0.41105,9.8291c0.50408,0.00479 1.0071,0.0194 1.5087,0.04565c0.00995,-0.13362 0.01776,-0.2662 0.01957,-0.39663c0.03867,-2.7832 0.33165,-5.61353 0.52378,-8.39076c0.50067,-7.23721 0.58947,-14.38521 0.58947,-21.64158c0,-6.21928 0,-12.43856 0,-18.65784c-3.23362,0.00024 -6.46723,-0.00003 -9.70084,-0.00019c0.2623,0.58976 0.52365,1.17891 0.78493,1.76677c1.84992,6.89505 3.10156,13.7238 4.29633,20.75928c0.9359,5.51115 2.06361,11.09461 2.38912,16.68619zM361.27798,108.91835c0.26033,-0.00002 0.52068,-0.00003 0.78102,-0.00005c0,-0.1215 0,-0.24301 0,-0.36451c-0.24752,0.13539 -0.51398,0.25607 -0.78102,0.36456z" data-paper-data="{&quot;index&quot;:null}" fill="#000000" stroke="none" stroke-width="0.5" stroke-linecap="butt"/><path d="M356.6289,160.82982c-3.08985,0.1542 -6.19921,0.55074 -9.23861,0.77222c-5.51382,0.40179 -11.08411,0.24763 -16.61146,0.25207c-4.47344,0.00359 -8.96851,0.16297 -13.42484,-0.24452c-2.70245,-0.24562 -5.52407,-0.36641 -8.19718,-0.8417c-2.99416,-0.53238 -5.9629,-1.49307 -8.93681,-2.20907c-0.00001,-0.76242 -0.00067,-1.52534 -0.00067,-2.28777l0.86955,-0.03366c0,0 1.35876,0.04438 1.35876,-1.34802c0,-1.3924 -1.39338,-1.39317 -1.39338,-1.39317l-0.83578,0.00767c-0.00007,-11.80962 -0.00996,-23.64241 -0.0096,-35.45202c0.00054,-6.12486 0.33754,-12.15444 1.10927,-18.17434c0.22829,-1.78079 0.93903,-3.48245 1.14909,-5.26548c0.33951,-2.8819 0.31385,-4.98828 1.5292,-7.7028c1.12021,-2.502 2.89548,-5.30653 5.47261,-6.56278c0.52773,-0.25725 1.14678,-0.29487 1.67188,-0.55743c1.88284,-0.94142 2.23075,-1.55727 4.36406,-1.53088c6.26191,0.33734 10.82016,3.2656 15.41672,7.28933c2.37563,2.07958 5.06688,4.21036 7.12488,6.6012c4.17009,4.84451 7.14548,10.52737 9.81659,16.30014c-0.13501,0.06875 -0.27269,0.16799 -0.41039,0.3057c-0.98457,0.98457 0.00108,1.97111 0.00108,1.97111l1.54235,0.96658c0.11361,0 0.2273,0.00015 0.34091,0.00015c0.40388,0.90039 0.80605,1.80343 1.20771,2.69948c1.78638,6.74358 3.00555,13.44014 4.17338,20.31701c0.91865,5.40961 2.02954,10.90011 2.34904,16.38869c0.18986,3.26153 -0.11374,6.49638 -0.43838,9.73229z" data-paper-data="{&quot;noHover&quot;:false,&quot;origItem&quot;:[&quot;Path&quot;,{&quot;applyMatrix&quot;:true,&quot;segments&quot;:[[[247.35772,172.04668],[-5.45713,-0.39766],[9.89987,0.72141]],[[277.16498,172.49492],[-9.92417,-0.00796],[8.0319,0.00645]],[[301.25313,172.05759],[-8.00118,0.73163],[4.85215,-0.441]],[[315.96239,170.5495],[-4.79948,0.85336],[5.37592,-0.95586]],[[332.00001,166.58808],[-5.33955,1.28556],[0,-1.36891]],[[332.00003,162.48138],[0,1.36891],[0,0]],[330.5,162.5],[[328,160],[0,2.5],[0,-2.5]],[330.5,157.5],[[332.00005,157.51424],[0,0],[0.00013,-21.20374]],[[331.99982,93.90303],[0.00065,21.20374],[-0.00097,-10.99696]],[[330.01781,61.29782],[1.3856,10.80852],[-0.40988,-3.19734]],[[327.95902,51.84898],[0.37715,3.20137],[-0.60958,-5.17435]],[[325.2194,38.02414],[2.18211,4.87381],[-2.01128,-4.49227]],[[315.40162,26.24579],[4.62714,2.25555],[-0.94752,-0.46187]],[[312.40162,25.24579],[0.94281,0.47141],[-3.38057,-1.69028]],[[304.57104,22.49899],[3.83027,-0.04737],[-11.24303,0.60568]],[[276.90915,35.58892],[8.25297,-7.22446],[-4.26536,3.7338]],[[264.12935,47.43864],[3.69507,-4.29268],[-7.48723,8.69815]],[[246.53087,76.68347],[4.79588,-10.3648],[0.24241,0.12344]],[[247.26777,77.23224],[-0.24724,-0.24725],[1.76776,1.76776]],[247.26777,80.76777],[[244.5,82.5],[0,0],[-0.20399,0]],[[243.88802,82.5],[0.20399,0],[-0.72514,1.61662]],[[241.72168,87.34061],[0.72116,-1.60882],[-3.2074,12.10786]],[[234.22371,123.78201],[2.0968,-12.34717],[-1.64942,9.71274]],[[229.99625,153.19492],[0.57366,-9.85455],[-0.34089,5.85595]],[[230.77787,170.66455],[-0.58288,-5.80996],[5.54772,0.27687]]],&quot;closed&quot;:true}],&quot;index&quot;:null}" fill="#ffffff" stroke="none" stroke-width="0.5" stroke-linecap="butt"/><path d="M249.66231,211.94573c0.04661,0.0047 0.09389,0.00712 0.14173,0.00712c0.66264,0 1.21723,-0.46346 1.35795,-1.08353l0.47941,-1.91812c0.42759,-0.41319 0.88713,-0.83359 1.27688,-1.27381c0.21023,1.14264 0.4996,2.23962 0.89621,3.23898c0.23329,0.58783 0.4927,1.08856 0.77697,1.54497c0.00952,0.37328 0.0167,0.74367 0.02019,1.11169l0.1333,0.19058l-0.07981,0.02659l0.54685,1.63958c0.17498,0.56896 0.70476,0.98204 1.33111,0.98204c0.37056,0 0.7073,-0.14453 0.95678,-0.38057c2.90519,3.21103 5.87325,5.37929 9.85343,7.33801c0.92862,0.45699 1.79963,1.06471 2.79338,1.35392c1.52849,0.44484 3.18353,0.03711 4.77543,0.03651c3.52054,-0.00133 7.24017,-0.20343 10.73334,-0.56722c2.63617,-0.27454 5.36944,-1.18097 7.97261,-1.70153c9.52236,-1.91264 18.10592,-6.5141 26.47587,-11.25497c7.52224,-4.26071 15.08495,-8.1914 22.28667,-13.00739c3.10909,-2.11054 6.31786,-4.1721 9.14894,-6.65837c4.82798,-4.23995 8.86615,-9.37082 13.35657,-13.94931c0.02962,-0.03021 0.90797,-0.91155 1.80109,-1.8224c-0.08738,0.98832 -0.14533,1.98072 -0.15912,2.9772c-0.08489,6.13233 0.00287,12.2783 0.00287,18.4112c0,3.69824 0.16079,7.31831 -0.45005,10.97082c-0.05288,1.84596 -0.44665,3.66909 -0.63558,5.50612c-0.17441,1.69585 0.16055,3.42162 -0.01995,5.11683c-0.15314,1.43829 -0.67034,2.81714 -1.06603,4.20837c-0.76272,2.68164 -1.3395,5.31306 -1.71593,8.01808c-0.18386,1.32119 -0.89082,2.5314 -1.10691,3.84771c-0.3563,2.17041 0.37181,4.52862 -0.00109,6.68634c-0.09998,0.57851 -0.46383,1.09203 -0.55731,1.67163c-0.45997,2.85199 0.15004,5.54528 -0.56623,8.41034c-0.00663,1.17061 -0.01115,2.34229 -0.01115,3.51293c0,0.55696 -0.09529,1.12254 -0.00034,1.67135c0.04536,0.26221 0.66019,0.60225 0.40774,0.6864c-0.41377,0.13793 -0.81021,-0.35677 -1.24338,-0.40767c-1.65947,-0.19498 -3.34263,0.00044 -5.01351,0.00108c-2.45453,0.00095 -4.83967,0.43522 -7.28431,0.55782c-2.67796,0.13429 -5.21637,0.02158 -7.89448,0.31916c-2.60733,0.28971 -5.20647,-0.00402 -7.80103,0.24978c-0.9253,0.09051 -1.81419,0.42996 -2.73647,0.54735c-0.52502,0.06683 -1.07509,-0.12435 -1.58855,0.00399c-0.25268,0.06316 -0.73899,0.69982 -0.59203,0.48478c0.46689,-0.68316 1.16633,-1.17222 1.75652,-1.75221c1.62848,-4.60791 3.55677,-9.32638 4.55723,-14.1326c0.86256,-4.14373 0.75191,-8.42982 1.19765,-12.59416c0.32897,-3.07343 2.25647,-5.82945 2.77454,-8.85c0.09415,-0.54895 -0.09009,-1.11964 -0.00019,-1.6693c0.22103,-1.35127 0.94648,-2.58986 1.12137,-3.94787c0.18109,-1.40614 0.16117,-2.84482 0.50883,-4.21912l0.53448,-1.60136c0.0529,-0.14716 0.08181,-0.30541 0.08181,-0.47078c0,-0.769 -0.623,-1.39094 -1.392,-1.39094c-0.55585,0 -0.98219,0.30998 -1.20546,0.78095l-1.01524,2.0329c-2.25179,2.13796 -4.60956,4.18505 -7.31831,5.71046c-2.36071,1.32941 -5.23094,1.89545 -7.67751,3.06753c-2.45174,1.17455 -4.81011,2.71208 -7.37434,3.66583c-6.86012,2.55158 -14.59312,2.30967 -21.69878,3.67212c-7.46405,1.2542 -14.63205,2.23495 -22.21623,2.23495c-2.06321,0 -4.9709,0.5209 -6.9775,0.02395c-2.04234,-0.5058 -4.96611,-1.89374 -6.69016,-3.10647c-1.12591,-0.79199 -1.63986,-2.22657 -2.61462,-3.19855c-0.43194,-0.43072 -1.15548,-0.50897 -1.54896,-0.97508c-0.28201,-0.33406 -0.2145,-0.84866 -0.34261,-1.26664c-0.42949,-1.40133 -0.77923,-2.83061 -1.06545,-4.26807c-0.43749,-1.72513 -0.51716,-3.39978 -0.39714,-5.04999z" data-paper-data="{&quot;noHover&quot;:false,&quot;origItem&quot;:[&quot;Path&quot;,{&quot;applyMatrix&quot;:true,&quot;segments&quot;:[[[422.5,262.5],[0.0859,0],[-1.18975,0]],[[420.06196,260.5556],[0.25265,1.1133],[0,0]],[[419.20141,257.11339],[0,0],[-0.76771,-0.74187]],[[417.00747,254.80995],[0.69977,0.7904],[-0.37747,2.05158]],[[415.39877,260.62818],[0.71209,-1.79431],[-0.41886,1.05542]],[[414.00388,263.40343],[0.51039,-0.81947],[-0.0171,0.6702]],[[413.96772,265.40046],[0.00627,-0.66077],[0,0]],[413.7284,265.7428],[413.87171,265.79057],[[412.88994,268.73588],[0,0],[-0.31417,1.02156]],[[410.5,270.5],[1.1246,0],[-0.66532,0]],[[408.78212,269.81629],[0.44793,0.42381],[-5.21617,5.76531]],[[391.09017,283],[7.14627,-3.51681],[-1.6673,0.82051]],[[386.07438,285.43312],[1.78424,-0.51927],[-2.74435,0.79869]],[[377.5,285.5],[2.85821,0.00108],[-6.32101,-0.00239]],[[358.22777,284.48514],[6.27186,0.65317],[-4.73315,-0.49293]],[[343.91262,281.43203],[4.6739,0.93464],[-17.09706,-3.43407]],[[296.28461,261.18468],[15.02794,8.51207],[-13.5059,-7.64996]],[[256.27036,237.8292],[12.93043,8.64695],[-5.58225,-3.78938]],[[239.84441,225.87324],[5.08311,4.464],[-8.66846,-7.61267]],[[215.86516,200.82469],[8.06239,8.22051],[-0.05318,-0.05422]],[[212.71296,197.61046],[1.60357,1.63541],[0.15688,1.77448]],[[212.99959,202.95454],[-0.02477,-1.78914],[0.15243,11.01039]],[[213,236],[0,-11.01141],[0,6.64005]],[[213.81019,255.68926],[-1.09673,-6.55796],[0.09495,3.31436]],[[214.95188,265.57069],[-0.33922,-3.29833],[0.31315,3.04484]],[[214.9878,274.75331],[-0.32408,-3.04369],[0.27496,2.58239]],[[216.90161,282.30555],[-0.71046,-2.49791],[1.36943,4.81478]],[[219.98127,296.69454],[-0.67587,-4.85676],[0.33011,2.37216]],[[221.96772,303.59954],[-0.38797,-2.36339],[0.63971,3.8969]],[[221.96772,315.59954],[-0.66953,-3.87411],[0.17951,1.0387]],[[222.96772,318.59954],[-0.16784,-1.04064],[0.82587,5.12065]],[[223.98127,333.69454],[-1.28603,-5.14412],[0.01191,2.10179]],[[224,340],[0,-2.10183],[0,1]],[[224,343],[0.17048,-0.98536],[-0.08145,0.4708]],[[223.26777,344.23223],[-0.45327,-0.15109],[0.7429,0.24763]],[[225.5,343.5],[-0.77774,0.09138],[2.97951,-0.35007]],[[234.5,343.5],[-3,-0.00115],[4.40703,0.00168]],[[247.57559,344.49818],[-4.38926,-0.22012],[4.80819,0.24113]],[[261.7455,345.06745],[-4.80846,-0.53429],[4.68136,0.52017]],[[275.74634,345.51217],[-4.65845,-0.45568],[1.66134,0.16251]],[[280.65705,346.49353],[-1.65591,-0.21076],[0.94266,0.11998]],[[283.50784,346.50001],[-0.9219,-0.23043],[0.45368,0.1134]],[[284.52949,347.46147],[0.26386,0.38609],[-0.83828,-1.22661]],[[281.37337,344.31433],[1.05966,1.04135],[-2.92389,-8.27334]],[[273.17899,318.93122],[1.79629,8.62939],[-1.54869,-7.43991]],[[271.01873,296.30546],[0.8003,7.47693],[-0.59065,-5.51823]],[[266.03228,280.40046],[0.93018,5.42329],[-0.16905,-0.98561]],[[266.03228,277.40046],[0.16142,0.98689],[-0.39684,-2.42615]],[[264.01873,270.30546],[0.31401,2.43826],[-0.32514,-2.52468]],[[263.1059,262.72341],[0.62421,2.46751],[0,0]],[[262.14675,259.84593],[0,0],[-0.09499,-0.2642]],[[262,259],[0,0.29691],[0,-1.38071]],[[264.5,256.5],[-1.38071,0],[0.99801,0]],[[266.76029,257.93041],[-0.40086,-0.84561],[0,0]],[[268.58385,261.57752],[0,0],[4.04302,3.83863]],[[281.72481,271.82059],[-4.86346,-2.73881],[4.23857,2.38691]],[[295.50842,277.31678],[-4.39274,-2.10443],[4.40199,2.10886]],[[308.73113,283.87003],[-4.60398,-1.71242],[12.3171,4.58127]],[[347.61638,290.4765],[-12.75795,-2.44622],[13.40142,2.25186]],[[387.5,294.5],[-13.61711,0],[3.70442,0]],[[400.02723,294.54511],[-3.60279,0.89226],[3.66696,-0.90815]],[[412.03822,288.97189],[-3.09547,2.17741],[2.02153,-1.42198]],[[416.73223,283.23223],[-1.75014,1.74516],[0.77554,-0.77333]],[[419.51323,281.48252],[-0.70649,0.83688],[0.50635,-0.59979]],[[420.12829,279.20943],[-0.23002,0.75048],[0.77114,-2.51604]],[[422.04118,271.54999],[-0.5139,2.5809],[0.7855,-3.09742]],[[422.75446,262.48721],[0.21549,2.96289],[-0.08367,0.00846]]],&quot;closed&quot;:true}],&quot;index&quot;:null}" fill="#ffffff" stroke="none" stroke-width="0.5" stroke-linecap="butt"/><path d="M359.41499,160.71651c0.32353,-3.26874 0.60046,-6.53392 0.40866,-9.82878c-0.3255,-5.59156 -1.45149,-11.11995 -2.3874,-16.6311c-1.19476,-7.03548 -2.43835,-13.8645 -4.28827,-20.75955c-0.26128,-0.58786 -0.53292,-1.23174 -0.79522,-1.8215c3.23362,0.00015 6.47803,0.00044 9.71164,0.0002c0,6.21928 0.01232,12.44439 0.01232,18.66367c0,7.25637 -0.09925,14.45274 -0.59991,21.68995c-0.19213,2.77723 -0.48813,5.60819 -0.52679,8.3914c-0.00182,0.13043 -0.00971,0.26303 -0.01966,0.39664c-0.50159,-0.02625 -1.01127,-0.09613 -1.51537,-0.10092z" data-paper-data="{&quot;noHover&quot;:false,&quot;origItem&quot;:[&quot;Path&quot;,{&quot;applyMatrix&quot;:true,&quot;segments&quot;:[[[450.00939,305.80869],[-0.68875,11.8316],[1.16885,-20.07893]],[[458.58857,245.88979],[-3.36077,19.79014],[4.29032,-25.26388]],[[474.0164,171.34468],[-6.64294,24.75962],[0.93822,-2.11095]],[[476.83502,165.00034],[-0.94189,2.11778],[-11.61167,0.00056]],[[442,165.00105],[11.61167,0.00083],[0,22.33298]],[[442,232],[0,-22.33298],[0,26.05709]],[[444.11673,309.71335],[-1.79785,-25.98829],[0.68992,9.97284]],[[445.99757,339.84398],[-0.13884,-9.99428],[0.00651,0.46836]],[[446.06783,341.26824],[-0.03573,-0.47978],[1.80119,-0.09427]],[[451.48548,341.1043],[-1.81015,0.01721],[-1.16176,-11.73782]]],&quot;closed&quot;:true}],&quot;index&quot;:null}" fill="#ffffff" stroke="none" stroke-width="0.5" stroke-linecap="butt"/><path d="M370.9633,162.34344c0.00622,-0.25476 0.00979,-0.5098 0.01021,-0.76512c0,0 -0.00146,-1.39227 -1.39386,-1.39227c-1.3924,0 -1.39407,1.39244 -1.39407,1.39244c0.00018,0.09526 -0.0001,0.19049 -0.00079,0.28567c-0.09242,-0.00436 -0.18529,-0.00683 -0.278,-0.00719c-0.30601,-0.00117 -0.61307,-0.00432 -0.91912,-0.00709c-1.1268,-0.35398 -2.27316,-0.60495 -3.42675,-0.77491c-0.05369,-1.09244 0.26546,-2.20327 0.33436,-3.30347c0.1737,-2.77373 0.3442,-5.54644 0.55446,-8.31767c0.48216,-6.35491 0.38161,-12.74614 0.38161,-19.1178c0,-6.21933 0.00883,-12.44135 0.00883,-18.66068c2.67729,0.00314 5.26292,0.05137 7.87526,-0.25019c0.1161,1.20553 -0.06857,2.47423 -0.06857,3.87063c0,2.59066 -0.00866,5.09052 -0.22399,7.6728c-0.89412,10.72265 -0.33281,21.7254 -0.33281,32.48275c0,1.85653 -0.13273,3.71797 -0.00131,5.56984c0.03309,0.46626 0.52375,0.9633 0.29498,1.37092c-0.17573,0.31311 -0.72604,0.09331 -1.07806,0.02265c-0.11401,-0.02289 -0.22837,-0.04678 -0.34238,-0.07132z" data-paper-data="{&quot;noHover&quot;:false,&quot;origItem&quot;:[&quot;Path&quot;,{&quot;applyMatrix&quot;:true,&quot;segments&quot;:[[[410,344],[0.0015,0.91685],[0,0]],[[415,339],[-5,0],[5,0]],[[420,344],[0,0],[-0.00061,0.34206]],[[420.00284,345.0258],[-0.00248,-0.34181],[0.33188,-0.01565]],[[421,345],[-0.33291,0.00128],[1.09883,-0.00422]],[[424.29676,344.97463],[-1.09897,0.00992],[4.04627,-1.27115]],[[436.58794,342.19363],[-4.14246,0.61035],[0.1928,-3.92291]],[[435.38595,330.33137],[0.24741,3.95073],[-0.62374,-9.96027]],[[433.3865,300.46531],[0.75501,9.9513],[-1.73137,-22.82001]],[[432,232],[0,22.88015],[0,-22.33316]],[[432,165.00053],[0,22.33316],[-9.61395,0.01126]],[[403.75106,164.10138],[9.38071,1.08287],[-0.41688,4.32894]],[[404,178],[0,-5.01439],[0,9.30288]],[[404.81318,205.55023],[-0.77321,-9.27279],[3.21069,38.50429]],[[406,322],[0,-38.62886],[0,6.66667]],[[406,342],[0.4719,-6.64994],[-0.11881,1.67431]],[[404.94103,346.92294],[-0.82148,-1.46376],[0.631,1.12435]],[[408.80812,347.00368],[-1.2641,0.25374],[0.40939,-0.08218]],[[410.0363,346.74743],[-0.40943,0.08812],[-0.02239,-0.91481]]],&quot;closed&quot;:true}],&quot;index&quot;:null}" fill="#ffffff" stroke="none" stroke-width="0.5" stroke-linecap="butt"/><path d="M249.27476,209.72761c-1.3924,0 -1.3924,-1.3924 -1.3924,-1.3924l0.07146,-0.99728c1.68208,-5.02986 5.0346,-9.31122 7.95983,-13.69906c0,0 0.49748,-0.74622 1.29282,-0.64163c0.51898,-0.77317 1.08965,-1.5205 1.57826,-2.30838c0.8945,-1.44239 1.62491,-3.00441 2.69117,-4.32491c1.65987,-2.05568 3.89415,-3.88465 5.76342,-5.75392c7.38419,-7.38418 16.0351,-13.2784 24.0711,-19.91805l0.8353,-0.00029c1.49486,0 3.32533,-0.27292 4.79638,-0.01897c0.16594,0.02865 0.35549,0.10904 0.52132,0.14022c0,0.43998 0.00043,0.87977 0.00043,1.31975l0.00038,1.11373c0,0 -0.02447,1.34237 1.36793,1.34237c1.39241,0 1.39396,-1.39308 1.39396,-1.39308c0,-0.23355 0.00056,-1.58123 0.00056,-1.81477c2.80878,0.70143 5.62035,1.57252 8.45177,2.07595c2.75095,0.48913 5.65491,0.61901 8.43629,0.87192c4.54302,0.4107 9.12116,0.26332 13.68112,0.25966c5.59462,-0.00449 11.22615,0.15404 16.80723,-0.25108c0.99959,-0.07257 2.0148,-0.1691 3.03873,-0.27245c0.40213,0.53303 1.13659,0.53355 1.13659,0.53355l1.11454,0.00029c3.18603,-0.00106 6.30038,-0.07106 9.45064,-0.46573c0.19051,0.13919 0.39178,0.26123 0.59962,0.36198c1.38916,0.67338 3.41637,0.1373 5.14375,0.04144c-0.17502,2.21232 -0.50743,4.41509 -0.82034,6.62037c-0.23024,0.28841 -0.39712,0.49497 -0.45815,0.56386c-1.21555,1.37202 -2.56783,2.61734 -3.85123,3.92612c-4.4423,4.53019 -8.43298,9.62744 -13.21022,13.821c-2.73948,2.40478 -5.8529,4.39995 -8.86073,6.44177c-7.13529,4.77151 -14.64669,8.68623 -22.10098,12.90548c-8.11029,4.59055 -16.51181,9.1391 -25.745,10.97736c-2.5186,0.50378 -5.18212,1.40262 -7.73316,1.66057c-3.3992,0.34371 -7.00683,0.54688 -10.43366,0.54555c-1.37864,-0.00054 -2.81996,0.4448 -4.13665,0.03613c-4.79151,-1.48716 -8.76944,-4.96889 -11.94327,-8.67952c-0.94003,-1.09902 -1.89655,-2.05353 -2.44185,-3.45334c-1.11897,-2.87249 -1.26012,-6.73137 -1.26317,-9.77953c0.03291,-0.1624 0.06292,-0.32565 0.09082,-0.48952c-1.83879,2.71292 -3.56108,5.50727 -4.58364,8.5858l0.07145,0.11665c0,0 0,1.39239 -1.3924,1.39239z" data-paper-data="{&quot;index&quot;:null}" fill="#ffffff" stroke="none" stroke-width="0.5" stroke-linecap="butt"/><path d="M338.35893,147.34788c-1.39209,-0.0293 -1.36279,-1.42139 -1.36279,-1.42139l0.04791,-2.27247c0.25898,-6.14695 0.73087,-11.98633 -0.03746,-18.133c0,0 -0.1727,-1.38165 1.20894,-1.55435c1.38164,-0.1727 1.55435,1.20894 1.55435,1.20894c0.7866,6.29276 0.31507,12.27373 0.05761,18.56552l-0.04716,2.24397c0,0 -0.02931,1.39209 -1.4214,1.36279z" data-paper-data="{&quot;index&quot;:null}" fill="#000000" stroke="none" stroke-width="0.5" stroke-linecap="butt"/><path d="M308.03691,146.04607c-0.09026,-1.38947 1.29921,-1.47973 1.29921,-1.47973l0.88587,0.21758c0.47341,-5.48969 2.84399,-10.92295 2.27597,-16.49887c-0.16834,-1.65244 -0.72876,-3.24108 -1.08908,-4.86252c0,0 -0.30205,-1.35924 1.05719,-1.66129c1.35923,-0.30205 1.66129,1.05719 1.66129,1.05719c0.3823,1.72031 0.96499,3.40906 1.13876,5.16275c0.60494,6.10498 -1.44066,13.16466 -3.24239,18.92611l-2.50711,0.43798c0,0 -1.38946,0.09025 -1.47972,-1.29922z" data-paper-data="{&quot;index&quot;:null}" fill="#000000" stroke="none" stroke-width="0.5" stroke-linecap="butt"/><path d="M289.2379,208.61468c-2.06331,-0.00023 -4.12661,-0.00098 -6.18991,-0.0027c-0.70317,-0.00059 -5.25685,0.02285 -5.849,-0.10672c-3.4951,-0.7648 -5.91334,-3.40009 -7.02025,-6.63052c-0.02237,-2.43142 0.29083,-4.55391 0.57204,-6.95926c0.11286,-0.96528 -0.03348,-1.96008 0.1686,-2.91069c0.20056,-0.94343 0.7517,-1.7809 1.02536,-2.70577c0.80371,-2.71628 1.22011,-5.56554 2.93452,-7.95504c1.03255,-1.43915 2.81782,-2.60893 4.19285,-3.64153c2.89929,-2.17727 5.84224,-4.62882 9.35273,-5.7848c2.83286,-0.93284 5.82572,-0.62022 8.74844,-0.62022c3.41783,0 6.81472,0.04491 10.22975,0.17391c2.78129,0.39357 5.40151,0.37641 8.20661,0.385c3.63413,0.01111 7.07522,0.76327 10.66271,1.11875c3.30259,0.32725 6.63294,0.53015 9.81419,1.75059c3.98874,1.53021 6.10481,5.047 4.10948,9.15813c-0.16947,0.34916 -1.76668,2.64478 -2.12302,3.15937c-1.49463,2.15842 -2.99456,3.85982 -5.00841,5.54103c-7.56506,6.29534 -16.45621,10.70206 -25.54811,14.3387c-3.06654,1.22657 -6.32924,2.71183 -9.53632,3.49016c-2.76522,0.67109 -5.5411,0.39321 -8.33125,0.95838c0,0 -1.36536,0.27306 -1.63843,-1.09229c-0.27307,-1.36535 1.09229,-1.63842 1.09229,-1.63842c0.04503,-0.0089 0.09007,-0.01758 0.13512,-0.02605zM302.82189,205.83311c1.23936,-0.49868 2.46441,-1.01745 3.66033,-1.49584c8.81279,-3.52525 17.47284,-7.77772 24.79957,-13.89241c1.11511,-0.92746 2.0186,-1.62041 2.99343,-2.79306c1.60601,-1.93193 5.12435,-5.88878 3.48552,-8.66037c-1.17436,-1.98608 -4.99426,-2.22894 -6.95069,-2.72295c-1.56435,-0.39501 -3.20651,-0.36329 -4.81213,-0.52216c-2.59212,-0.25648 -5.15403,-0.83927 -7.74555,-1.10332c-3.70335,-0.37733 -7.37793,0.12403 -11.09565,-0.3978c-3.33248,-0.12145 -6.64832,-0.16298 -9.98346,-0.16298c-2.56174,0 -5.37252,-0.36664 -7.85218,0.47206c-3.22313,1.09017 -5.90587,3.3745 -8.57811,5.37601c-0.9375,0.70219 -2.84963,1.97897 -3.60458,3.04199c-1.50756,2.12275 -1.80974,4.71881 -2.52391,7.11888c-0.25441,0.85498 -0.78529,1.62118 -0.97138,2.49359c-0.18456,0.86524 -0.02525,1.77217 -0.12602,2.65111c-0.245,2.13687 -0.56267,4.03936 -0.58951,6.19281c1.06127,3.36004 4.14596,4.36515 7.35625,4.39502c6.92809,0.06445 13.85976,0.0052 20.78816,0.0052h1.67087c0,0 0.02916,0.00001 0.07905,0.00423z" data-paper-data="{&quot;index&quot;:null}" fill="#000000" stroke="none" stroke-width="0.5" stroke-linecap="butt"/><path d="M306.48402,204.36505c-1.19592,0.47838 -2.42748,0.99681 -3.66683,1.49549c-0.04988,-0.00422 -0.07918,-0.00424 -0.07918,-0.00424l-1.67358,-0.00062c-6.9284,0 -13.87609,0.04728 -20.80418,-0.01718c-3.21028,-0.02987 -6.29766,-1.04055 -7.35894,-4.40059c0.02684,-2.15345 0.3433,-4.06064 0.5883,-6.19752c0.10077,-0.87893 -0.05882,-1.78811 0.12574,-2.65334c0.1861,-0.87241 0.71688,-1.64077 0.97129,-2.49576c0.71416,-2.40007 1.01715,-5.00289 2.52471,-7.12564c0.75495,-1.06301 2.6683,-2.34359 3.6058,-3.04577c2.67223,-2.00151 5.36059,-4.29458 8.58372,-5.38475c2.47966,-0.8387 5.29764,-0.47753 7.85938,-0.47753c3.33514,0 6.66683,0.03844 9.99931,0.1599c3.71772,0.52182 7.40727,0.02674 11.11062,0.40407c2.59152,0.26405 5.15851,0.8524 7.75064,1.10888c1.60562,0.15887 3.24938,0.12978 4.81374,0.52479c1.95644,0.49401 5.7782,0.74116 6.95257,2.72725c1.63883,2.7716 -1.87813,6.73519 -3.48414,8.66712c-0.97483,1.17265 -1.87824,1.86835 -2.99335,2.79581c-7.32672,6.11469 -16.01283,10.3944 -24.82562,13.91965z" data-paper-data="{&quot;noHover&quot;:false,&quot;origItem&quot;:[&quot;Path&quot;,{&quot;applyMatrix&quot;:true,&quot;segments&quot;:[[[327.35807,251.50758],[-2.22522,-0.89537],[0.08957,-0.00758]],[327.5,251.5],[[330.5,251.5],[0,0],[12.43969,0]],[[367.8244,251.49065],[-12.43914,0.11573],[5.76396,-0.05362]],[[381.03228,243.59954],[-1.90548,6.03283],[-0.04818,-3.86644]],[[379.97385,232.48057],[0.43989,3.83668],[-0.18094,-1.57811]],[[379.74758,227.72062],[0.33137,1.55349],[-0.33412,-1.56638]],[[378.0035,223.24346],[0.45679,1.5351],[-1.28227,-4.30923]],[[373.47189,210.46178],[2.70678,3.81131],[-1.35548,-1.90861]],[[367,205],[1.68325,1.26075],[-4.79791,-3.59363]],[[351.59831,195.34757],[5.78701,1.95735],[-4.45214,-1.50586]],[[337.5,194.5],[4.59951,0],[-5.98812,0]],[[319.57506,194.79264],[5.98335,-0.21808],[-6.67504,0.93692]],[[299.65321,195.50686],[6.64924,-0.67747],[-4.65299,0.47408]],[[285.74634,197.48783],[4.65407,-0.46051],[-2.88283,0.28525]],[[277.10634,198.42536],[2.80875,-0.70923],[-3.5127,0.88698]],[[264.62663,203.31433],[2.10853,-3.56594],[-2.94247,4.9763]],[[270.88476,218.8637],[-2.88353,-3.4687],[1.75027,2.10546]],[[276.25935,223.87852],[-2.00214,-1.66522],[13.15487,10.9787]],[[320.78609,248.82185],[-15.82306,-6.32945],[2.14722,0.85892]]],&quot;closed&quot;:true}],&quot;index&quot;:null}" fill-opacity="0.60392" fill="#b7ffe7" stroke="none" stroke-width="0.5" stroke-linecap="butt"/><path d="M271.48956,163.50018v-57.82937h62.49304v57.82937z" data-paper-data="{&quot;index&quot;:null}" fill="#000000" stroke="#000000" stroke-width="2" stroke-linecap="butt"/><path d="M314.39521,201.86361c-1.1662,0.53304 -2.46312,0.76698 -3.63835,1.27769h-18.74721v-52.23299h22.38556z" data-paper-data="{&quot;index&quot;:null}" fill="#000000" stroke="#000000" stroke-width="2" stroke-linecap="butt"/><path d="M312.06338,188.68395v-25.18376h11.65915v25.18376z" data-paper-data="{&quot;index&quot;:null}" fill="#000000" stroke="#000000" stroke-width="2" stroke-linecap="butt"/><path d="M278.48503,189.15032v-30.78015h15.85644v30.78015z" data-paper-data="{&quot;index&quot;:null}" fill="#000000" stroke="#000000" stroke-width="2" stroke-linecap="butt"/><path d="M313.46246,202.22921c-1.05293,0.36018 -2.15452,0.60869 -3.14136,1.11835c-0.34036,0.17577 -0.47233,0.67195 -0.83785,0.78655c-0.53145,0.16663 -1.1425,-0.17613 -1.67087,0c-0.63504,0.21168 -1.04529,0.87579 -1.67088,1.11391c-0.2378,0.09051 -0.48544,-0.23268 -0.73741,-0.19725c-0.58213,0.08184 -1.15736,0.23202 -1.7292,0.41058c-1.19872,-0.0034 -2.38403,0.03619 -3.49507,0.17656c-1.40517,0.17753 -2.6987,0.98155 -4.11233,1.06911c-1.35078,0.08367 -2.70527,0.13312 -4.05785,0.20231v-4.70076h21.45283z" data-paper-data="{&quot;index&quot;:null}" fill="#000000" stroke="#000000" stroke-width="2" stroke-linecap="butt"/><path d="M274.28774,160.23564v-50.36752h55.96391v50.36752z" data-paper-data="{&quot;index&quot;:null}" fill="#fff7bd" stroke="#000000" stroke-width="2" stroke-linecap="butt"/><path d="M312.99611,138.78279v-27.04923h17.25554v27.04923z" data-paper-data="{&quot;index&quot;:null}" fill="#1d1b14" stroke="none" stroke-width="0" stroke-linecap="butt"/><path d="M274.98232,134.24819v-24.4892h18.18827v24.4892z" data-paper-data="{&quot;index&quot;:null}" fill="#1d1b14" stroke="none" stroke-width="0" stroke-linecap="butt"/><path d="M275.04185,123.02066v-13.05824h55.96391v13.05824z" data-paper-data="{&quot;index&quot;:null}" fill="#1d1b14" stroke="none" stroke-width="0" stroke-linecap="butt"/><path d="M305.53428,148.57647v-13.52461h12.12552v13.52461z" data-paper-data="{&quot;index&quot;:null}" fill="#ffffff" stroke="#000000" stroke-width="2" stroke-linecap="butt"/><path d="M286.87962,148.57647v-13.52461h13.05824v13.52461z" data-paper-data="{&quot;index&quot;:null}" fill="#ffffff" stroke="#000000" stroke-width="2" stroke-linecap="butt"/><path d="M305.53425,146.24465v-10.26005h5.13002v10.26005z" data-paper-data="{&quot;index&quot;:null}" fill="#2d2d2d" stroke="#000000" stroke-width="2" stroke-linecap="butt"/><path d="M292.00966,147.64375v-11.65915h5.59638v11.65915z" data-paper-data="{&quot;index&quot;:null}" fill="#2d2d2d" stroke="#000000" stroke-width="2" stroke-linecap="butt"/><path d="M314.39522,201.86363c-1.31238,0.59987 -2.79034,0.82094 -4.07409,1.48394c-0.34036,0.17577 -0.47233,0.67195 -0.83785,0.78655c-0.53145,0.16663 -1.14251,-0.17613 -1.67088,0c-0.24977,0.08325 -0.46476,0.23649 -0.67176,0.40628h-15.59735v-41.97294h22.85192z" data-paper-data="{&quot;index&quot;:null}" fill="#ffffff" stroke="#000000" stroke-width="2" stroke-linecap="butt"/><path d="M312.72974,180.8221v-16.3228h11.19279v16.3228z" data-paper-data="{&quot;index&quot;:null}" fill="#ffffff" stroke="#000000" stroke-width="2" stroke-linecap="butt"/><path d="M278.48506,179.35663v-16.32281h13.52461v16.32281z" data-paper-data="{&quot;index&quot;:null}" fill="#ffffff" stroke="#000000" stroke-width="2" stroke-linecap="butt"/><path d="M313.46249,189.15032v-7.92821h9.79368v7.92821z" data-paper-data="{&quot;index&quot;:null}" fill="#fff7bd" stroke="#000000" stroke-width="2" stroke-linecap="butt"/><path d="M279.88413,189.15032v-8.86095h11.19279v8.86095z" data-paper-data="{&quot;index&quot;:null}" fill="#fff7bd" stroke="#000000" stroke-width="2" stroke-linecap="butt"/><path d="M298.91121,205.93949c-0.94165,0.30191 -1.86382,0.70685 -2.84371,0.76754c-0.57482,0.03561 -1.15031,0.06502 -1.72603,0.09239v-0.85993z" data-paper-data="{&quot;index&quot;:null}" fill="#ff0000" stroke="#000000" stroke-width="2" stroke-linecap="butt"/><path d="M305.11798,204.54039l-0.01865,0.55937" data-paper-data="{&quot;index&quot;:null}" fill="none" stroke="#000000" stroke-width="2" stroke-linecap="round"/><path d="M309.76863,131.09353v-12.61154h7.11942v12.61154z" data-paper-data="{&quot;index&quot;:null}" fill="#1d1b14" stroke="none" stroke-width="0" stroke-linecap="butt"/><path d="M307.32769,126.21164v-6.7126h5.89894v6.7126z" data-paper-data="{&quot;index&quot;:null}" fill="#1d1b14" stroke="none" stroke-width="0" stroke-linecap="butt"/><path d="M291.66498,125.39799v-6.10235h9.76377v6.10235z" data-paper-data="{&quot;index&quot;:null}" fill="#1d1b14" stroke="none" stroke-width="0" stroke-linecap="butt"/><path d="M292.2752,129.46624v-12.61154h5.2887v12.61154z" data-paper-data="{&quot;index&quot;:null}" fill="#1d1b14" stroke="none" stroke-width="0" stroke-linecap="butt"/><path d="M334.97576,147.91667v-11.16666h5.33333v11.16666z" data-paper-data="{&quot;index&quot;:null}" fill="#fff7bd" stroke="#000000" stroke-width="0.5" stroke-linecap="butt"/><path d="M264.14242,149.08334v-11.5h6.66667v11.5z" data-paper-data="{&quot;index&quot;:null}" fill="#fff7bd" stroke="#000000" stroke-width="0.5" stroke-linecap="butt"/><path d="M311.03298,153.06684c0.20853,0.29556 0.08662,0.67422 0.08662,0.67422l-0.2773,0.86129c-0.4358,1.3536 -0.70766,3.26257 -1.4587,4.46502c-0.31,0.49633 -1.3943,1.35657 -1.82012,1.71096c-1.18047,0.98245 -1.41501,1.44995 -3.1002,1.55806c-0.37376,0.02397 -0.72101,-0.20331 -1.07898,-0.31343c-0.77586,-0.23868 -1.61784,-0.34433 -2.31179,-0.76546c-0.28828,-0.17494 -0.4363,-0.52983 -0.72264,-0.70794c-0.25611,-0.15931 -0.57419,-0.18487 -0.86129,-0.2773c-1.1322,-1.09159 -1.64587,-2.26141 -2.3599,-3.65353c-0.09175,-0.17888 -1.34389,-2.57991 -1.35209,-2.76174c-0.04342,-0.96329 0.69705,-2.45325 1.69408,-2.807c0.35548,-0.12612 0.72526,0.2361 1.10182,0.25772c0.67237,0.03861 1.32761,-0.38112 1.99699,-0.30692c0.99635,0.11045 1.91996,0.61206 2.91348,0.7456c0.39489,0.05307 2.71367,0.14517 3.04667,0.20678c0.47503,0.0879 0.92569,0.27805 1.38127,0.43878c0.32491,0.11463 0.6176,0.43629 0.95855,0.38671c0.35183,-0.05117 0.5556,-0.44449 0.8463,-0.64918c0.4106,-0.28912 0.83758,-0.55425 1.25637,-0.83138c0,0 0.62819,-0.41569 1.04388,0.21249c0.41569,0.62819 -0.21249,1.04388 -0.21249,1.04388c-0.08638,0.05716 -0.39235,0.26251 -0.77053,0.51238zM309.4232,154.09434c-0.17671,0.10381 -0.30391,0.17049 -0.34864,0.17685c-0.4529,0.06434 -2.27704,-0.73684 -2.82793,-0.83829c-0.97444,-0.17946 -1.98449,-0.05934 -2.96617,-0.19364c-0.96416,-0.13191 -1.85982,-0.61242 -2.82505,-0.73625c-0.66987,-0.08594 -1.32938,0.35795 -2.00277,0.30647c-0.2287,-0.01749 -0.39247,-0.31903 -0.62077,-0.29688c-0.14999,0.01455 -0.18154,0.24349 -0.24373,0.38075c-0.12334,0.27226 -0.34381,0.54444 -0.30996,0.84141c0.03749,0.32888 0.34568,0.56495 0.50346,0.85593c0.23938,0.44146 0.45837,0.89367 0.68756,1.3405c0.54403,1.06066 0.95435,2.2004 1.79823,3.05147c0.2871,0.09244 0.60518,0.118 0.86129,0.2773c0.28633,0.17811 0.43869,0.52606 0.72264,0.70794c0.58638,0.37561 1.33526,0.39715 1.99466,0.62102c0.21694,0.07365 0.41476,0.25208 0.6436,0.24117c1.05601,-0.05036 1.34376,-0.55676 2.10391,-1.2045c0.05191,-0.04423 1.35254,-1.0977 1.50048,-1.33703c0.28686,-0.46407 0.31517,-1.0447 0.48237,-1.56402c0.27729,-0.8613 0.5695,-1.76892 0.8468,-2.63021z" data-paper-data="{&quot;index&quot;:null}" fill="#0e0e0b" stroke="none" stroke-width="0.5" stroke-linecap="butt"/><path d="M262.86392,141.87562v-41.97186h27.04322v41.97187z" fill="#1d1b14" stroke="none" stroke-width="0" stroke-linecap="butt"/><path d="M312.15922,136.78599v-35.55588h28.48375v35.55588z" fill="#1d1b14" stroke="none" stroke-width="0" stroke-linecap="butt"/><path d="M269.49631,126.74278v-31.97593h62.81377v31.97593z" fill="#1d1b14" stroke="none" stroke-width="0" stroke-linecap="butt"/><path d="M285.53881,133.24521v-14.15516h7.99081v14.15516z" fill="#1d1b14" stroke="none" stroke-width="0" stroke-linecap="butt"/><path d="M288.86114,126.58492v-7.5342h6.62096v7.5342z" fill="#1d1b14" stroke="none" stroke-width="0" stroke-linecap="butt"/><path d="M306.62972,126.85255v-6.84927h10.95884v6.84927z" fill="#1d1b14" stroke="none" stroke-width="0" stroke-linecap="butt"/><path d="M308.80268,134.17411v-14.15516h5.93603v14.15516z" fill="#1d1b14" stroke="none" stroke-width="0" stroke-linecap="butt"/><path d="M265.08502,105.25614v-7.87245h10.82462v7.87245z" fill="#1d1b14" stroke="none" stroke-width="0" stroke-linecap="butt"/><path d="M330.03277,105.45297v-8.26607h7.47883v8.26607z" fill="#1d1b14" stroke="none" stroke-width="0" stroke-linecap="butt"/><path d="M273.35108,96.00602v-2.55853h54.71353v2.55853z" fill="#1d1b14" stroke="none" stroke-width="0" stroke-linecap="butt"/><path d="M264.49459,145.69876v-7.67564h15.94171v7.67564z" fill="#1d1b14" stroke="none" stroke-width="0" stroke-linecap="butt"/><path d="M322.35713,139.79443v-4.32985h15.54808v4.32985z" fill="#1d1b14" stroke="none" stroke-width="0" stroke-linecap="butt"/></g></g></svg>