<svg version="1.1" xmlns="http://www.w3.org/2000/svg" xmlns:xlink="http://www.w3.org/1999/xlink" width="807" height="406" viewBox="0,0,807,406"><g transform="translate(83.5,18)"><g data-paper-data="{&quot;isPaintingLayer&quot;:true}" fill-rule="nonzero" stroke="none" stroke-linecap="butt" stroke-linejoin="miter" stroke-miterlimit="10" stroke-dasharray="" stroke-dashoffset="0" style="mix-blend-mode: normal"><path d="M386.25375,105.59309v-11h8v11z" fill="#000000" stroke-width="0"/><path d="M-83.5,388v-406h807v406z" fill="#000000" stroke-width="0"/><text transform="translate(1,71.25) scale(2.03846,2.03846)" font-size="40" xml:space="preserve" fill="#ffffff" fill-rule="nonzero" stroke="none" stroke-width="1" stroke-linecap="butt" stroke-linejoin="miter" stroke-miterlimit="10" stroke-dasharray="" stroke-dashoffset="0" font-family="Sans Serif" font-weight="normal" text-anchor="start" style="mix-blend-mode: normal"><tspan x="0" dy="0">my heart rate rn</tspan></text><path d="M183.47655,302.81142l-1.36971,-1.80178c-1.33887,0.57379 -2.67348,1.19125 -4.08093,1.06083c-1.99471,-0.18484 -3.58451,-1.79067 -5.35435,-2.72913c-4.47603,-2.37344 -8.10187,-5.48325 -12.04198,-8.63612c-15.78782,-12.63336 -32.66568,-23.87505 -48.05284,-37.06104c-3.39332,-2.90856 -7.24302,-5.66533 -10.35013,-8.88206c-4.64805,-4.81203 -8.82922,-10.33957 -12.97948,-15.58118c-3.05045,-3.85261 -6.72668,-7.69063 -9.35638,-11.8389c-0.09233,-0.14564 -4.45121,-8.87277 -4.59896,-9.16829c-2.97862,-5.95765 -6.24122,-12.05512 -8.62609,-18.27874c-2.91157,-7.59812 -4.42737,-15.40468 -5.65721,-23.3986c-1.44311,-9.40937 -1.56103,-18.95043 -1.4941,-28.45373c0.02783,-3.9513 -0.89622,-7.38489 3.03991,-10.0823c6.25243,-4.28475 12.07482,1.59403 16.95081,4.70566c3.90632,2.49283 8.10808,4.62422 11.91029,7.27322c8.23298,5.7359 15.87118,12.42876 23.59142,18.82121c8.83069,6.84733 17.66761,13.66025 26.14589,20.94623c3.12846,2.68851 6.05057,5.86687 9.37322,8.31302c3.98873,2.93651 8.27657,5.51168 12.31873,8.38369c3.39202,2.41008 7.19122,4.13961 10.56061,6.52894c1.28532,0.91146 2.27624,2.2432 3.66831,2.9814c1.37245,0.72779 3.07113,0.64827 4.46599,1.33213c0.60672,0.29746 0.75611,1.84833 1.3449,1.51678c0.61001,-0.3435 -0.32246,-1.3694 -0.36575,-2.06813c-0.08124,-1.31112 -0.00438,-2.62726 -0.00656,-3.94089c0.38569,-1.86976 0.43904,-3.84032 1.15707,-5.60928c0.68715,-1.6929 1.98342,-3.06896 2.98555,-4.59665c3.72829,-5.68358 8.24225,-10.67197 12.63196,-15.85157c15.379,-18.14635 34.10204,-35.10308 55.71788,-45.19047c10.62285,-4.95164 22.3308,-9.24384 34.04353,-10.63433c6.15393,-0.73057 12.48587,-0.23808 18.67828,-0.85647c7.25147,-0.72415 16.82783,-1.80687 19.66291,7.24954c1.005,3.21038 -0.28462,7.98924 -0.91847,11.12877c-1.43277,7.09674 -5.19987,12.61312 -8.75206,18.86359c-14.12466,17.79639 -28.7167,35.45338 -43.85315,52.40734c-7.71295,8.63908 -15.93804,16.7865 -23.56927,25.5079c-13.86895,15.85023 -29.0966,30.2055 -43.47747,45.54305c-6.44393,6.87261 -12.90259,14.12963 -20.32822,20.02719c0.00612,0.08281 0.00929,0.16869 0.00929,0.25773c0,2.5 -2.5,2.5 -2.5,2.5l-0.422,-0.55512c-0.04292,0.03081 -0.08587,0.06156 -0.12886,0.09227zM184.51003,295.93589c6.7798,-5.55855 12.72813,-12.31383 18.67104,-18.65097c14.34003,-15.29128 29.52439,-29.60193 43.35244,-45.40542c7.64178,-8.73346 15.87724,-16.89287 23.60083,-25.54363c14.99111,-16.7907 29.39744,-34.29498 43.44046,-51.8768c3.18779,-5.6498 6.72937,-10.65884 7.99316,-17.04646c0.38001,-1.9207 1.6074,-6.50032 1.04269,-8.67704c-0.57588,-2.2198 -3.19941,-3.87733 -5.22958,-4.29981c-4.33665,-0.90245 -9.88114,0.76191 -14.22421,1.05931c-4.46918,0.30604 -9.0752,-0.18616 -13.51928,0.34142c-11.17678,1.32687 -22.38766,5.4667 -32.51854,10.20011c-20.9528,9.77797 -39.11819,26.29516 -54.01718,43.89139c-5.89947,6.96749 -13.85236,14.12427 -15.61404,23.31835c-0.0044,2.71937 0.48584,8.25931 -2.37232,9.99098c-1.55233,0.94051 -3.54114,-0.80506 -5.28904,-1.29407c-5.82774,-1.63043 -11.02888,-5.57336 -16.17198,-8.83622c-18.48865,-11.72947 -34.489,-27.03818 -51.77439,-40.44482c-7.62611,-6.31287 -15.16621,-12.93277 -23.29553,-18.60149c-3.75349,-2.61738 -7.91162,-4.71805 -11.7692,-7.17978c-2.45377,-1.56588 -7.82314,-7.11786 -11.36969,-4.84134c-2.33959,1.50177 -0.93465,8.90302 -0.9171,10.97475c0.06448,7.61 0.25887,15.1876 1.42177,22.72179c1.17625,7.64563 2.59836,15.09922 5.38394,22.36884c2.32668,6.07203 5.52316,12.02017 8.42964,17.83272c1.45247,2.90474 2.607,5.977 4.34531,8.72025c2.53702,4.00371 6.11492,7.70183 9.05799,11.41932c4.03503,5.09678 8.09362,10.47566 12.60615,15.1606c3.00746,3.12236 6.76766,5.79033 10.05731,8.61003c14.59551,12.51335 30.27445,23.69079 45.67728,35.15811c4.58099,3.41052 8.65675,7.06533 13.58943,9.96323c1.14949,0.67531 2.06236,1.99955 3.38986,2.12256c1.3275,0.12302 2.48145,-0.97567 3.72217,-1.46351c0,0 1.3041,-0.4347 2.30059,0.3076z" fill="#ffffff" stroke-width="0.5"/><text transform="translate(355,246) scale(0.5,0.5)" font-size="40" xml:space="preserve" fill="#ffffff" fill-rule="nonzero" stroke="none" stroke-width="1" stroke-linecap="butt" stroke-linejoin="miter" stroke-miterlimit="10" stroke-dasharray="" stroke-dashoffset="0" font-family="Sans Serif" font-weight="normal" text-anchor="start" style="mix-blend-mode: normal"><tspan x="0" dy="0">60-100 beats per minute </tspan></text><text transform="translate(421,283.5) scale(1.36246,0.89003)" font-size="40" xml:space="preserve" fill="#ffffff" fill-rule="nonzero" stroke="none" stroke-width="1" stroke-linecap="butt" stroke-linejoin="miter" stroke-miterlimit="10" stroke-dasharray="" stroke-dashoffset="0" font-family="Sans Serif" font-weight="normal" text-anchor="start" style="mix-blend-mode: normal"><tspan x="0" dy="0">wow</tspan></text><text transform="translate(167,342) scale(0.5,0.5)" font-size="40" xml:space="preserve" fill="#ffffff" fill-rule="nonzero" stroke="none" stroke-width="1" stroke-linecap="butt" stroke-linejoin="miter" stroke-miterlimit="10" stroke-dasharray="" stroke-dashoffset="0" font-family="Sans Serif" font-weight="normal" text-anchor="start" style="mix-blend-mode: normal"><tspan x="0" dy="0">MY HEARTS STEADY BEATIN</tspan></text></g></g></svg>