<svg version="1.1" xmlns="http://www.w3.org/2000/svg" xmlns:xlink="http://www.w3.org/1999/xlink" width="42.54958" height="43.32448" viewBox="0,0,42.54958,43.32448"><g transform="translate(-299.27601,-158.47544)"><g data-paper-data="{&quot;isPaintingLayer&quot;:true}" fill-rule="nonzero" stroke-linecap="butt" stroke-linejoin="miter" stroke-miterlimit="10" stroke-dasharray="" stroke-dashoffset="0" style="mix-blend-mode: normal"><path d="M340.81791,200.48191l-40.21785,0.31033l-0.31636,-40.99878l40.21785,-0.31033z" data-paper-data="{&quot;index&quot;:null}" fill="#ffffff" stroke="#000000" stroke-width="2"/><path d="M319.21917,170.65486c0.51062,0.3743 0.98933,0.75533 1.42724,1.13089c0.09551,-0.02336 0.19533,-0.03575 0.29804,-0.03575c0.24643,0 0.47621,0.07131 0.66982,0.19442c1.80719,-2.00587 3.77302,-3.81769 6.27976,-5.1929c0.58414,-0.44587 1.16763,-0.74535 1.71462,-0.77222c1.84807,-0.62749 3.92713,-0.6874 5.5684,0.3918c0.26493,0.0995 0.50855,0.28678 0.72313,0.58022c0.11036,0.1068 0.21777,0.22032 0.32194,0.34079c0.93418,1.0804 1.19835,2.48952 1.58661,3.79419c0.62523,2.10094 0.60853,3.75028 0.60101,5.93428c-1.18855,5.65372 -3.78627,13.78614 -9.81413,16.15353c-3.05673,1.2005 -6.62588,-0.19986 -8.36393,-2.82326c-0.40538,-0.61187 -1.19686,-2.06892 -1.58378,-3.39914c-0.5053,1.72066 -1.36992,4.24458 -2.88057,4.08512c-0.92236,1.13579 -1.9284,2.1407 -3.01927,2.81514c-0.18136,0.19462 -0.42409,0.3313 -0.69737,0.3792c-0.77214,0.36377 -1.56796,0.55968 -2.35039,0.60489c-0.2145,0.37977 -0.62188,0.63615 -1.08915,0.63615c-0.54081,0 -1.00141,-0.34345 -1.17558,-0.82413l-0.04903,-0.12608c-2.02495,-0.69092 -3.64052,-2.44582 -4.00925,-4.87734c-0.02188,-0.1443 -0.01614,-4.02669 -0.01614,-4.08912c0,-4.48625 -1.20045,-11.29902 1.18669,-15.21272c2.22456,-3.64717 5.84146,-3.80818 9.31417,-2.59513c0.20223,-0.05444 0.40597,-0.07349 0.60994,-0.06204c0.90033,-1.03651 1.96539,-1.73806 3.10704,-1.31016c1.46015,0.54726 1.59358,2.82546 1.64022,4.27935zM335.64589,178.02723c0.01666,-0.07465 0.03323,-0.14948 0.04977,-0.22461c-0.01959,0.03454 -0.03944,0.06904 -0.05955,0.10352c0.00327,0.04022 0.00653,0.08059 0.00978,0.12109z" fill="#ff0000" stroke="none" stroke-width="0.5"/><path d="M320.80317,172.99046c-1.21268,0.30317 -1.51585,-0.90951 -1.51585,-0.90951c-0.29954,-1.20086 -0.27307,-3.43008 -1.16732,-4.36306c-0.87122,-0.90896 -1.61002,-0.70436 -2.09473,-2.20825c-0.25713,-0.79779 -0.59565,-1.80896 -0.13746,-2.51084c0.48129,-0.73727 1.57723,-0.83309 2.4388,-1.01449c0.93287,-0.19641 1.65056,-0.11294 2.20411,0.16675c0.13763,0.04909 0.27438,0.12917 0.39694,0.25454c1.65262,1.31413 1.4561,4.76722 1.5993,6.77208l-0.01648,0.04456l0.01727,0v1.44444c0,0.52473 -0.32332,0.97395 -0.78162,1.15929c-0.0061,0.38274 -0.15246,0.96687 -0.94299,1.1645z" fill="#04ff00" stroke="none" stroke-width="0.5"/></g></g></svg>