<svg version="1.1" xmlns="http://www.w3.org/2000/svg" xmlns:xlink="http://www.w3.org/1999/xlink" width="42.72685" height="43.32448" viewBox="0,0,42.72685,43.32448"><g transform="translate(-219.27602,-158.47545)"><g data-paper-data="{&quot;isPaintingLayer&quot;:true}" fill-rule="nonzero" stroke-linecap="butt" stroke-linejoin="miter" stroke-miterlimit="10" stroke-dasharray="" stroke-dashoffset="0" style="mix-blend-mode: normal"><path d="M260.81792,200.48192l-40.21785,0.31033l-0.31636,-40.99878l40.21785,-0.31033z" data-paper-data="{&quot;index&quot;:null}" fill="#ffffff" stroke="#000000" stroke-width="2"/><path d="M245.0582,177.88359c-1.10404,-2.20246 -2.58621,-3.55302 -4.54161,-4.61348c-0.02954,1.3126 -0.20867,2.67784 -0.34108,3.0269c-0.21552,0.56814 -0.87295,0.8891 -1.10252,1.4517c-0.07913,0.19392 0.38864,-0.24695 0.59387,-0.20517c0.46116,0.09385 0.85592,0.39155 1.28388,0.58733c1.01272,0.09043 2.74347,-0.11234 4.16657,-0.04812zM239.51442,170.04063c3.62634,1.52077 6.10156,3.38227 7.8677,6.92135l0.51442,1.69862c0,0 0.20929,0.69763 -0.22417,1.1876c0.29327,0.70673 0.57137,1.4779 0.67982,1.77622c0.79266,2.18043 4.08597,6.70049 0.99176,8.40998c-0.36141,0.19967 -4.72401,0.10224 -5.13483,0.09008c-5.6203,-0.16628 -11.22861,-0.93758 -16.81193,-1.55792c0,0 -0.84067,-0.09341 -1.0621,-0.81808c-0.53349,-0.125 -0.98109,-0.32229 -1.23556,-0.63035c-1.41944,-1.71831 1.05054,-6.32986 1.81904,-7.74165c1.08946,-2.00142 2.0564,-4.06478 3.18413,-6.05027c0.44985,-0.79201 0.61614,-1.84699 1.36304,-2.36831c0.78896,-0.55068 2.93086,-0.31437 3.98537,-0.3727c0.71687,-0.03966 1.74175,-0.23486 2.68451,-0.28775c0.54536,-0.60407 1.37879,-0.25681 1.37879,-0.25681zM234.35945,186.01134c0.05223,0.33083 0.00183,0.58701 -0.09995,0.7848c4.63909,0.47751 9.28261,0.87337 13.94727,1.01187c0.28598,0.00849 -0.27533,-0.50169 -0.40568,-0.75637c-0.75093,-1.46722 -1.2358,-3.02618 -1.79656,-4.56786c-0.2301,-0.6326 0.13271,-1.71793 -0.49636,-1.95747c-1.06609,-0.40596 -3.88341,0.16279 -5.19759,0.02121c-0.49238,-0.21366 -3.45504,-1.42012 -3.55205,-1.85365c-0.35269,-1.57603 1.0882,-3.08542 1.18694,-4.69742c0.02455,-0.4009 -0.10049,-0.81554 -0.00211,-1.20496c0.04398,-0.17408 0.57586,-0.38863 0.39818,-0.36277c-0.93301,0.13577 -1.8108,0.60015 -2.75216,0.65266c-0.90611,0.05054 -2.00455,-0.60901 -2.72204,-0.0533c-0.84363,0.65341 -0.85455,1.95769 -1.35187,2.90179c-1.12262,2.13116 -2.31401,4.29073 -3.31903,6.47661c-0.03423,0.07446 -1.1517,3.14866 -1.10011,3.2074c0.63832,0.72665 1.92914,-0.17405 2.89633,-0.17463c0.79074,-0.12615 1.58149,-0.25229 2.37223,-0.37844l0.5649,-0.0892c0,0 1.2347,-0.19495 1.42965,1.03975z" fill="#000000" stroke="none" stroke-width="0.5"/><path d="M245.15666,178.11357c-1.4231,-0.06421 -3.21453,0.15295 -4.22725,0.06252c-0.42796,-0.19577 -0.84129,-0.50856 -1.30245,-0.60241c-0.20523,-0.04177 -0.67455,0.39692 -0.59543,0.203c0.22957,-0.5626 0.88063,-0.89693 1.09615,-1.46507c0.13241,-0.34906 0.33228,-1.77093 0.36182,-3.08353c1.95541,1.06046 3.50501,2.48257 4.60905,4.68503z" data-paper-data="{&quot;noHover&quot;:false,&quot;origItem&quot;:[&quot;Path&quot;,{&quot;applyMatrix&quot;:true,&quot;segments&quot;:[[[490.11639,355.76718],[0,0],[-2.20807,-4.40492]],[[481.03317,346.54021],[3.91081,2.12093],[-0.05907,2.6252]],[[480.351,352.59402],[0.26482,-0.69812],[-0.43103,1.13627]],[[478.14595,355.49742],[0.45914,-1.1252],[-0.15826,0.38783]],[[479.33369,355.08707],[-0.41046,-0.08354],[0.92232,0.18771]],[[481.90146,356.26172],[-0.85592,-0.39155],[2.02545,0.18085]],[[490.23459,356.16547],[-2.8462,-0.12842],[0,0]]],&quot;closed&quot;:true}]}" fill="#b1b1b1" stroke="none" stroke-width="0.5"/><path d="M232.89478,185.00729l-0.56653,0.08751c-0.79074,0.12615 -1.58597,0.24671 -2.37671,0.37286c-0.9672,0.00059 -2.26127,0.89588 -2.89959,0.16923c-0.05159,-0.05874 1.06164,-3.14425 1.09588,-3.2187c1.00502,-2.18588 2.20363,-4.38523 3.32626,-6.51639c0.49732,-0.94411 0.52149,-2.26165 1.36512,-2.91506c0.71749,-0.55571 1.82975,0.09727 2.73586,0.04673c0.94136,-0.05251 1.83768,-0.5188 2.77069,-0.65457c0.17768,-0.02586 -0.36015,0.28848 -0.40413,0.46257c-0.09839,0.38942 0.02632,0.80405 0.00176,1.20495c-0.09874,1.612 -1.51016,3.11325 -1.15747,4.68928c0.09701,0.43353 3.08163,1.60627 3.574,1.81993c1.31418,0.14158 4.13209,-0.43266 5.19818,-0.0267c0.62908,0.23954 0.26442,1.33595 0.49452,1.96854c0.56077,1.54168 1.03877,3.11525 1.7897,4.58246c0.13035,0.25468 0.69078,0.7661 0.40481,0.75761c-4.66467,-0.1385 -9.37139,-0.5194 -14.01049,-0.99691c0.10179,-0.19779 0.15044,-0.45491 0.09821,-0.78574c-0.19495,-1.2347 -1.44007,-1.04758 -1.44007,-1.04758z" data-paper-data="{&quot;noHover&quot;:false,&quot;origItem&quot;:[&quot;Path&quot;,{&quot;applyMatrix&quot;:true,&quot;segments&quot;:[[[468.71889,372.02268],[-0.38991,-2.46941],[0.10447,0.66166]],[[468.51898,373.59227],[0.20358,-0.39557],[9.27819,0.95502]],[[496.41353,375.616],[-9.32933,-0.27699],[0.57195,0.01698]],[[495.60218,374.10326],[0.2607,0.50936],[-1.50187,-2.93443]],[[492.00905,364.96753],[1.12153,3.08336],[-0.4602,-1.26519]],[[491.01633,361.05259],[1.25815,0.47909],[-2.13218,-0.81192]],[[480.62115,361.09502],[2.62836,0.28316],[-0.98475,-0.42732]],[[473.51704,357.38772],[0.19403,0.86706],[-0.70538,-3.15207]],[[475.89092,347.99289],[-0.19748,3.22399],[0.04911,-0.80181]],[[475.8867,345.58296],[-0.19677,0.77884],[0.08796,-0.34817]],[[476.68307,344.85741],[0.35536,-0.05171],[-1.86601,0.27154]],[[471.17874,346.16273],[1.88273,-0.10502],[-1.81223,0.10109]],[[465.73466,346.05612],[1.43497,-1.11142],[-1.68726,1.30683]],[[463.03093,351.85971],[0.99464,-1.88821],[-2.24524,4.26232]],[[456.39287,364.81292],[2.01005,-4.37176],[-0.06847,0.14891]],[[454.19266,371.22772],[-0.10319,-0.11747],[1.27663,1.4533]],[[459.98533,370.87845],[-1.93439,0.00117],[1.58149,-0.25229]],[[464.72979,370.12157],[-1.58149,0.25229],[0,0]],[465.85958,369.94318]],&quot;closed&quot;:true}]}" fill="#b1b1b1" stroke="none" stroke-width="0.5"/><path d="M237.79584,180.21707c-1.19728,0.35918 -1.55647,-0.8381 -1.55647,-0.8381l-0.0554,-0.19888c-2.19755,0.99099 -4.52178,1.8585 -6.54892,3.13549c0,0 -1.06,0.6625 -1.7225,-0.3975c-0.6625,-1.06 0.3975,-1.72249 0.3975,-1.72249c2.04773,-1.27113 4.33945,-2.16916 6.5507,-3.16036c-0.84441,-0.71982 -1.7042,-1.13168 -2.99737,-1.43407c0,0 -1.21268,-0.30317 -0.90951,-1.51585c0.30317,-1.21268 1.51584,-0.90951 1.51584,-0.90951c2.22021,0.58292 3.57831,1.44281 5.02099,3.00641c0.35014,0.04068 0.75715,0.22946 0.96634,0.82841c0.14512,0.41549 0.09285,0.73579 -0.0358,0.97643l0.21268,0.67356c0,0 0.35919,1.19729 -0.83809,1.55647z" fill="#090909" stroke="none" stroke-width="0.5"/><path d="M255.77293,188.027c-0.08141,0.99194 -1.50445,1.30343 -2.25668,1.95515l-0.96537,-0.07941c-0.07189,0.02042 -0.14481,0.03853 -0.21863,0.05432c-0.64983,0.29958 -1.34028,0.51954 -2.03414,0.66897c0,0 -1.22572,0.24515 -1.47087,-0.98058c-0.09624,-0.48118 0.0342,-0.81124 0.22817,-1.03468c-0.71724,-1.09526 -1.10384,-2.61488 -1.29064,-3.71101c-0.2697,-0.22068 -0.50434,-0.59294 -0.36935,-1.20043c0.2143,-0.96437 1.02141,-0.99721 1.35045,-0.96858c0.05964,-0.00671 0.12264,-0.01025 0.18918,-0.01025c0.4018,0 0.67445,0.12915 0.85945,0.30443c1.70258,0.59903 4.3216,1.91266 4.77942,3.44379c0.67529,0.6033 1.22787,1.20655 1.19899,1.55829z" fill="#090909" stroke="none" stroke-width="0.5"/><path d="M262.00287,173.43028c0,1.25 -1.25,1.25 -1.25,1.25l-0.80592,-0.00931c-3.01381,0.36684 -5.63831,1.57095 -8.55003,2.23385c-1.17663,0.26788 -2.52947,1.10768 -3.58283,0.51892c-0.77217,-0.43159 -0.38936,-1.77634 -0.22031,-2.64464c0.78156,-4.0145 5.98246,-5.99399 7.52449,-9.47421c1.6755,-3.78146 -2.95677,1.89415 -3.30847,2.6158c0,0 -0.55902,1.11803 -1.67705,0.55902c-1.11803,-0.55902 -0.55902,-1.67705 -0.55902,-1.67705c0.82578,-1.61798 5.90384,-8.69486 7.96537,-4.19036c1.78619,3.90286 -2.51029,6.2805 -4.47677,8.61525c-0.81313,0.96541 -1.55867,1.98803 -2.27106,3.03006c2.42513,-1.41955 6.7939,-1.81357 8.85112,-2.06802l1.11048,-0.00931c0,0 1.25,0 1.25,1.25z" fill="#090909" stroke="none" stroke-width="0.5"/></g></g></svg>