<svg version="1.1" xmlns="http://www.w3.org/2000/svg" xmlns:xlink="http://www.w3.org/1999/xlink" width="42.54958" height="43.32448" viewBox="0,0,42.54958,43.32448"><g transform="translate(-298.72522,-158.33775)"><g data-paper-data="{&quot;isPaintingLayer&quot;:true}" fill-rule="nonzero" stroke-linejoin="miter" stroke-miterlimit="10" stroke-dasharray="" stroke-dashoffset="0" style="mix-blend-mode: normal"><path d="M340.26711,200.34422l-40.21785,0.31033l-0.31636,-40.99878l40.21785,-0.31033z" data-paper-data="{&quot;index&quot;:null}" fill="#ffffff" stroke="#000000" stroke-width="2" stroke-linecap="butt"/><path d="M329.30939,171.92315l-12.34121,20.01011l-9.5459,-22.57463" data-paper-data="{&quot;index&quot;:null}" fill="none" stroke="#ffffff" stroke-width="2" stroke-linecap="round"/><path d="M325.08283,189.87345c0.20952,-0.29333 0.4432,-0.44164 0.6697,-0.50419c0.39583,-0.40393 0.66731,-0.8696 0.71915,-1.40103c0.33517,-3.43652 -2.19515,-4.70784 -5.19824,-3.77532c-4.44258,1.37952 -3.91248,6.24654 0.20124,7.16615c0.08647,0.00067 0.17294,0.00133 0.25941,0.002c0.81001,-0.2186 2.21345,-0.66957 3.28482,-1.39176c0.01962,-0.03165 0.0409,-0.0636 0.06393,-0.09585zM327.9649,190.43967c0.1501,0.01664 0.30046,0.03104 0.45101,0.04344c-0.09531,-0.13105 -0.18191,-0.26932 -0.26052,-0.41346c-0.00082,0.00135 -0.00165,0.0027 -0.00248,0.00405c-0.07171,0.11724 -0.14576,0.23064 -0.22206,0.34036zM331.55,191.8c0,1.25 -1.25,1.25 -1.25,1.25c-1.09257,-0.00231 -2.18626,-0.11568 -3.2649,-0.28967l-0.87806,-0.60408c-1.19795,0.8133 -2.61637,1.27744 -4.09112,1.68269c-0.21914,0.00137 -0.43829,0.00275 -0.65743,0.00412c-0.06318,0.00377 -0.12159,0.00344 -0.17269,0.00108c-0.31193,0.00195 -0.62387,0.00391 -0.9358,0.00586l-1.20927,-0.47335c-0.54123,-0.18018 -0.98179,-0.47679 -1.85021,-1.26902c-0.02403,-0.02192 -0.0478,-0.04389 -0.0713,-0.0659c-0.43599,0.07242 -0.82824,-0.1237 -0.82824,-0.1237c-3.91247,-1.96062 -7.55164,-4.50652 -11.39818,-6.59909c-1.62239,-0.8826 -2.78861,-1.34814 -2.48271,-3.67749c0.01437,-0.10943 0.03463,-0.22434 0.06023,-0.34412c-0.9398,-2.32641 0.7664,-4.61699 2.62901,-6.09705c0.06447,-0.13212 0.12701,-0.26129 0.18717,-0.38702c-0.47417,-0.35877 -0.8717,-0.75475 -1.12805,-1.20415c-1.75112,-3.06977 1.7356,-7.80223 3.91069,-9.58519c0,0 0.97609,-0.78087 1.75695,0.19522c0.19503,0.24379 0.28046,0.4754 0.29887,0.68571c6.02264,1.97236 12.15142,3.62276 18.17712,5.50195c2.69482,-0.41498 6.52486,-0.25559 7.88356,2.27088c1.22935,2.28595 0.417,4.61856 -1.14262,6.53618c0.74482,0.08012 1.51877,0.13889 2.11772,0.55787c3.52208,2.46379 1.7621,9.42562 -1.55173,11.14631c-0.86404,0.44865 -3.07353,0.61792 -4.05514,0.72826l-0.06214,-0.01676c0.00542,0.05407 0.00826,0.11084 0.00826,0.17046zM310.31268,174.69683c0.00767,0.03068 0.01437,0.06078 0.02014,0.0903c0.25901,0.13132 0.48814,0.25758 0.66983,0.37905c3.64974,2.44004 6.83162,3.76179 11.26327,4.39488c0.20492,0.02561 0.40983,0.05122 0.61475,0.07683c-1.51762,-2.57722 -0.94841,-5.90362 1.66972,-7.80135c-5.30209,-1.59714 -10.6702,-3.06446 -15.93346,-4.81335c-1.33964,1.51363 -3.03268,4.05745 -2.22537,5.36771c0.08776,0.14243 0.20862,0.28122 0.35508,0.41647c0.2777,-0.2052 0.95748,-0.57102 1.63725,0.10875c0.30415,0.30415 0.39898,0.6083 0.39253,0.87643l0.02041,-0.00523c0,0 1.21268,-0.30317 1.51585,0.90951zM306.85902,181.68197c0,0 1.11803,0.55902 0.55902,1.67705c-0.04669,0.09339 -0.09729,0.17508 -0.15081,0.24637c0.06653,0.02284 0.12057,0.04301 0.15871,0.06064c2.85603,1.32011 5.31983,3.26066 7.992,4.88108c-0.13003,-2.89498 2.53159,-5.70737 5.54822,-6.65986c-4.33787,-0.74233 -7.64998,-2.18198 -11.3688,-4.65343c-0.3768,-0.25041 -0.83431,-0.49526 -1.32448,-0.74664l-1.05212,0.25552c-0.60599,1.3176 -1.2409,2.65666 -1.78732,3.9676c0.29562,0.36212 0.7611,0.69306 1.42558,0.97166zM332.55688,189.02874c2.5502,-0.4813 3.87543,-1.47062 3.89313,-4.62311c0.00254,-0.45271 0.00735,-2.17789 -0.66076,-2.57736c-1.14374,-0.68386 -2.19462,-0.7204 -3.08032,-0.36232c-0.39578,0.29435 -0.79873,0.56365 -1.19833,0.80416c-0.93363,0.91807 -1.51091,2.3102 -1.56169,3.58183c-0.05082,1.27295 -0.10423,2.40552 0.47376,2.90837c0.13379,0.01294 0.22072,0.03777 0.22072,0.03777l0.76224,0.23515c0.16666,-0.00775 0.35147,-0.03246 0.55632,-0.0756c0,0 0.28364,-0.03152 0.59492,0.0711zM327.53536,183.383c0.08403,0.08682 0.16512,0.17609 0.24312,0.26767c0.02669,-0.09679 0.05493,-0.19256 0.08471,-0.28725c-0.10925,0.007 -0.21853,0.01353 -0.32783,0.01958zM332.28585,172.99528c-0.39528,1.18585 -1.58114,0.79057 -1.58114,0.79057c-0.83786,-0.28235 -1.67914,-0.55723 -2.52311,-0.82636c-3.03421,0.8341 -5.59156,3.16174 -2.95019,6.00685c0.55725,0.60024 1.33512,0.99076 2.10749,1.26324c0,0 0.49388,0.18521 0.71969,0.63582c0.31944,-0.02451 0.6386,-0.05245 0.95738,-0.08272c0.17251,-0.06528 0.33639,-0.12913 0.49272,-0.19262c0.59361,-0.5756 1.3115,-1.01051 2.14933,-1.26501c0.40526,-0.36859 0.78819,-0.82485 1.21082,-1.43163c0.36652,-0.52622 0.83263,-1.01584 1.02651,-1.62711c0.59007,-1.8604 -0.21482,-2.92966 -1.57671,-3.381c-0.00941,0.03587 -0.02032,0.07252 -0.03279,0.10995z" fill="#000000" stroke="none" stroke-width="0.5" stroke-linecap="butt"/><path d="M327.9008,183.33047c-0.02978,0.09469 -0.07149,0.26719 -0.09817,0.36399c-0.078,-0.09159 -0.2231,-0.25481 -0.30713,-0.34163c0.1093,-0.00604 0.29606,-0.01536 0.40531,-0.02236z" data-paper-data="{&quot;noHover&quot;:false,&quot;origItem&quot;:[&quot;Path&quot;,{&quot;applyMatrix&quot;:true,&quot;segments&quot;:[[[247.53536,183.383],[0.1093,-0.00604],[0.08403,0.08682]],[[247.77848,183.65068],[-0.078,-0.09159],[0.02669,-0.09679]],[[247.86319,183.36342],[-0.02978,0.09469],[-0.10925,0.007]]],&quot;closed&quot;:true}]}" fill="#773400" stroke="none" stroke-width="0.5" stroke-linecap="butt"/><path d="M327.88738,190.43873c0.0763,-0.10972 0.18881,-0.29754 0.26052,-0.41479c0.00083,-0.00135 0.00234,-0.00276 0.00316,-0.00411c0.07861,0.14414 0.20759,0.36466 0.3029,0.49571c-0.15055,-0.0124 -0.37833,-0.02841 -0.52843,-0.04504z" data-paper-data="{&quot;noHover&quot;:false,&quot;origItem&quot;:[&quot;Path&quot;,{&quot;applyMatrix&quot;:true,&quot;segments&quot;:[[[247.9649,190.43967],[0,0],[0.1501,0.01664]],[[248.41591,190.48311],[-0.15055,-0.0124],[-0.09531,-0.13105]],[[248.15539,190.06964],[0.07861,0.14414],[-0.00082,0.00135]],[[248.15292,190.07369],[0.00083,-0.00135],[-0.07171,0.11724]],[[247.93086,190.41405],[0.0763,-0.10972],[0,0]]],&quot;closed&quot;:true}]}" fill="#773400" stroke="none" stroke-width="0.5" stroke-linecap="butt"/><path d="M331.94672,189.00526c-0.20485,0.04313 -0.39519,0.06571 -0.56185,0.07346l-0.76998,-0.23956c0,0 -0.08873,-0.02615 -0.22252,-0.03908c-0.57799,-0.50285 -0.54309,-1.6644 -0.49227,-2.93735c0.05077,-1.27163 0.65167,-2.71772 1.5853,-3.63579c0.39959,-0.24051 0.82134,-0.51622 1.21711,-0.81057c0.8857,-0.35809 1.97393,-0.31125 3.11767,0.37261c0.66811,0.39947 0.68117,2.153 0.67862,2.60571c-0.0177,3.15249 -1.39969,4.20211 -3.94989,4.68341c-0.31128,-0.10261 -0.6022,-0.07284 -0.6022,-0.07284z" data-paper-data="{&quot;noHover&quot;:false,&quot;origItem&quot;:[&quot;Path&quot;,{&quot;applyMatrix&quot;:true,&quot;segments&quot;:[[[252.55688,189.02874],[-0.31128,-0.10261],[2.5502,-0.4813]],[[256.45001,184.40563],[-0.0177,3.15249],[0.00254,-0.45271]],[[255.78926,181.82827],[0.66811,0.39947],[-1.14374,-0.68386]],[[252.70893,181.46596],[0.8857,-0.35809],[-0.39578,0.29435]],[[251.51061,182.27012],[0.39959,-0.24051],[-0.93363,0.91807]],[[249.94892,185.85195],[0.05077,-1.27163],[-0.05082,1.27295]],[[250.42268,188.76032],[-0.57799,-0.50285],[0.13379,0.01294]],[250.6434,188.7981],[[251.40564,189.03324],[0,0],[0.16666,-0.00775]],[[251.96196,188.95765],[-0.20485,0.04313],[0,0]]],&quot;closed&quot;:true}]}" fill="#984200" stroke="none" stroke-width="0.5" stroke-linecap="butt"/><path d="M332.34997,172.84637c1.36189,0.45134 2.18504,1.55326 1.59498,3.41365c-0.19388,0.61127 -0.66133,1.12028 -1.02785,1.6465c-0.42263,0.60677 -0.81778,1.08462 -1.22304,1.45321c-0.83784,0.2545 -1.58643,0.70447 -2.18005,1.28007c-0.15632,0.06349 -0.32675,0.12761 -0.49926,0.19289c-0.31878,0.03027 -0.64948,0.05657 -0.96892,0.08108c-0.22581,-0.45062 -0.7303,-0.63996 -0.7303,-0.63996c-0.77238,-0.27248 -1.5709,-0.68349 -2.12816,-1.28373c-2.64137,-2.84511 -0.05154,-5.24513 2.98266,-6.07923c0.84398,0.26912 1.71972,0.54823 2.55758,0.83057c0,0 1.19459,0.40102 1.58988,-0.78483c0.01248,-0.03743 0.02304,-0.07435 0.03246,-0.11022z" data-paper-data="{&quot;noHover&quot;:false,&quot;origItem&quot;:[&quot;Path&quot;,{&quot;applyMatrix&quot;:true,&quot;segments&quot;:[[[252.28585,172.99528],[0.01248,-0.03743],[-0.39528,1.18585]],[[250.70472,173.78585],[0,0],[-0.83786,-0.28235]],[[248.1816,172.9595],[0.84398,0.26912],[-3.03421,0.8341]],[[245.23141,178.96635],[-2.64137,-2.84511],[0.55725,0.60024]],[[247.3389,180.22959],[-0.77238,-0.27248],[0,0]],[[248.0586,180.86541],[-0.22581,-0.45062],[0.31944,-0.02451]],[[249.01598,180.7827],[-0.31878,0.03027],[0.17251,-0.06528]],[[249.5087,180.59008],[-0.15632,0.06349],[0.59361,-0.5756]],[[251.65803,179.32507],[-0.83784,0.2545],[0.40526,-0.36859]],[[252.86885,177.89344],[-0.42263,0.60677],[0.36652,-0.52622]],[[253.89536,176.26633],[-0.19388,0.61127],[0.59007,-1.8604]],[[252.31865,172.88533],[1.36189,0.45134],[-0.00941,0.03587]]],&quot;closed&quot;:true}]}" fill="#984200" stroke="none" stroke-width="0.5" stroke-linecap="butt"/><path d="M325.05661,190.00213c-1.07137,0.72219 -2.52041,1.1897 -3.33042,1.4083c-0.08647,-0.00067 -0.17623,-0.00197 -0.2627,-0.00264c-4.11372,-0.9196 -4.64734,-5.88315 -0.20476,-7.26267c3.00308,-0.93252 5.59794,0.39067 5.26277,3.82719c-0.05183,0.53143 -0.32858,1.01568 -0.72441,1.41961c-0.22649,0.06255 -0.466,0.2198 -0.67551,0.51313c-0.02303,0.03225 -0.04535,0.06543 -0.06497,0.09708z" data-paper-data="{&quot;noHover&quot;:false,&quot;origItem&quot;:[&quot;Path&quot;,{&quot;applyMatrix&quot;:true,&quot;segments&quot;:[[[245.08283,189.87345],[-0.02303,0.03225],[0.20952,-0.29333]],[[245.75253,189.36926],[-0.22649,0.06255],[0.39583,-0.40393]],[[246.47167,187.96823],[-0.05183,0.53143],[0.33517,-3.43652]],[[241.27344,184.19291],[3.00308,-0.93252],[-4.44258,1.37952]],[[241.47468,191.35906],[-4.11372,-0.9196],[0.08647,0.00067]],[[241.73408,191.36106],[-0.08647,-0.00067],[0.81001,-0.2186]],[[245.0189,189.9693],[-1.07137,0.72219],[0.01962,-0.03165]]],&quot;closed&quot;:true}]}" fill="#984200" stroke="none" stroke-width="0.5" stroke-linecap="butt"/><path d="M305.38473,180.69897c0.54642,-1.31094 1.19406,-2.67341 1.80005,-3.99101l1.05645,-0.2595c0.49017,0.25138 0.95115,0.49364 1.32795,0.74405c3.71882,2.47144 7.10894,3.94837 11.4468,4.69069c-3.01663,0.95248 -5.71082,3.81584 -5.58079,6.71083c-2.67217,-1.62042 -5.20227,-3.59814 -8.0583,-4.91825c-0.03814,-0.01763 -0.09232,-0.03854 -0.15885,-0.06138c0.05352,-0.07129 0.10382,-0.1548 0.15051,-0.24819c0.55902,-1.11803 -0.55911,-1.69078 -0.55911,-1.69078c-0.66448,-0.2786 -1.1291,-0.61434 -1.42471,-0.97646z" data-paper-data="{&quot;noHover&quot;:false,&quot;origItem&quot;:[&quot;Path&quot;,{&quot;applyMatrix&quot;:true,&quot;segments&quot;:[[[226.85902,181.68197],[-0.66448,-0.2786],[0,0]],[[227.41803,183.35902],[0.55902,-1.11803],[-0.04669,0.09339]],[[227.26723,183.60539],[0.05352,-0.07129],[0.06653,0.02284]],[[227.42593,183.66603],[-0.03814,-0.01763],[2.85603,1.32011]],[[235.41793,188.54711],[-2.67217,-1.62042],[-0.13003,-2.89498]],[[240.96615,181.88725],[-3.01663,0.95248],[-4.33787,-0.74233]],[[229.59735,177.23382],[3.71882,2.47144],[-0.3768,-0.25041]],[[228.27288,176.48718],[0.49017,0.25138],[0,0]],[[227.22075,176.7427],[0,0],[-0.60599,1.3176]],[[225.43343,180.7103],[0.54642,-1.31094],[0.29562,0.36212]]],&quot;closed&quot;:true}]}" fill="#773400" stroke="none" stroke-width="0.5" stroke-linecap="butt"/><path d="M308.74695,173.79079l-0.02041,0.00526c0.00645,-0.26814 -0.08842,-0.57874 -0.39257,-0.88289c-0.67977,-0.67977 -1.25973,-0.30796 -1.53743,-0.10276c-0.14646,-0.13526 -0.36696,-0.28228 -0.45472,-0.42471c-0.80731,-1.31025 0.89893,-3.88301 2.23857,-5.39664c5.26326,1.74889 10.71725,3.24232 16.01934,4.83946c-2.61813,1.89773 -3.19838,5.2643 -1.68077,7.84152c-0.20492,-0.02561 -0.41102,-0.04985 -0.61594,-0.07546c-4.43165,-0.63309 -7.69673,-1.96897 -11.34647,-4.409c-0.18169,-0.12147 -0.41276,-0.25322 -0.67177,-0.38454c-0.00577,-0.02952 -0.01271,-0.06047 -0.02038,-0.09115c-0.30317,-1.21268 -1.51746,-0.91909 -1.51746,-0.91909z" data-paper-data="{&quot;noHover&quot;:false,&quot;origItem&quot;:[&quot;Path&quot;,{&quot;applyMatrix&quot;:true,&quot;segments&quot;:[[[230.31268,174.69683],[-0.30317,-1.21268],[0.00767,0.03068]],[[230.33282,174.78713],[-0.00577,-0.02952],[0.25901,0.13132]],[[231.00265,175.16618],[-0.18169,-0.12147],[3.64974,2.44004]],[[242.26592,179.56106],[-4.43165,-0.63309],[0.20492,0.02561]],[[242.88067,179.63789],[-0.20492,-0.02561],[-1.51762,-2.57722]],[[244.55038,171.83654],[-2.61813,1.89773],[-5.30209,-1.59714]],[[228.61692,167.02319],[5.26326,1.74889],[-1.33964,1.51363]],[[226.39155,172.39089],[-0.80731,-1.31025],[0.08776,0.14243]],[[226.74663,172.80737],[-0.14646,-0.13526],[0.2777,-0.2052]],[[228.38388,172.91612],[-0.67977,-0.67977],[0.30415,0.30415]],[[228.77642,173.79255],[0.00645,-0.26814],[0,0]],[228.79683,173.78732]],&quot;closed&quot;:true}]}" fill="#773400" stroke="none" stroke-width="0.5" stroke-linecap="butt"/><path d="M338.0625,166.06249c0,1.25 -1.25,1.25 -1.25,1.25l-1.43964,-0.04025c-1.16951,-0.30505 -2.32937,-0.52834 -3.48236,-0.71823c-0.23902,0.8719 -0.46759,1.69407 -0.6015,2.37476c0,0 -0.24128,1.22649 -1.46777,0.98522c-1.22649,-0.24128 -0.98522,-1.46777 -0.98522,-1.46777c0.14992,-0.76211 0.29756,-1.52468 0.4461,-2.28707c-1.5115,-0.22064 -3.01474,-0.44686 -4.5162,-0.79013l-0.04755,0.30908l-2.45174,-0.37719c-0.60951,-0.08332 -1.07911,-0.60603 -1.07911,-1.23842c0,-0.48027 0.27086,-0.89729 0.66816,-1.10661l1.41405,-0.78017c1.32872,-0.73291 6.8498,-4.31404 8.31325,-3.74972c0.96437,0.37187 1.05369,1.84255 1.17675,2.86878c0.09183,0.76579 -0.02408,1.70956 -0.22842,2.7013c1.27916,0.28244 2.47795,0.59911 3.47086,0.85666l0.81036,-0.04025c0,0 1.25,0 1.25,1.25zM326.27392,163.28626c1.10992,-0.06166 2.32094,0.0304 3.53716,0.20488c0.14358,-0.71095 0.26654,-1.42705 0.44955,-2.12884c0.06061,-0.23241 0.49637,-0.77045 0.28142,-0.6633c-1.36998,0.68293 -2.83215,1.67714 -4.26813,2.58727z" fill="#000000" stroke="none" stroke-width="0.5" stroke-linecap="butt"/></g></g></svg>