<svg version="1.1" xmlns="http://www.w3.org/2000/svg" xmlns:xlink="http://www.w3.org/1999/xlink" width="79.09479" height="171.97027" viewBox="0,0,79.09479,171.97027"><g transform="translate(-280.45258,-98.99948)"><g data-paper-data="{&quot;isPaintingLayer&quot;:true}" fill-rule="nonzero" stroke-linejoin="miter" stroke-miterlimit="10" stroke-dasharray="" stroke-dashoffset="0" style="mix-blend-mode: normal"><path d="M313.76396,198.75973c-0.02573,0.54043 -0.116,1.06884 -0.25697,1.56309c0,-1.52271 0,-3.04541 0,-4.56812c0,-1.85128 -0.03478,-3.70485 -0.07203,-5.5525c0.53283,2.6487 0.25255,5.64288 0.25255,8.17527z" fill="#ffffd6" stroke="none" stroke-width="0.5" stroke-linecap="butt"/><path d="M325.09972,189.8178c0.00378,-0.02166 0.00783,-0.04323 0.01216,-0.06469c0.18786,-0.93156 0.8936,-1.67553 1.8039,-1.91863c0.04397,1.46433 0.07849,2.93125 0.0784,4.40119c-0.00082,2.45373 -0.12589,4.90141 -0.20018,7.35671c-2.01225,-1.38792 -2.10871,-7.50592 -1.69427,-9.77457z" fill="#ffffd6" stroke="none" stroke-width="0.5" stroke-linecap="butt"/><path d="M319.34819,168.50018c0.85258,0.78156 1.2335,-2.22366 2.33931,-2.56266c1.35349,-0.41492 2.9577,-1.47018 4.54406,-2.35052c-0.00021,2.57073 -0.00045,5.14145 0.00068,7.71218c0.0091,3.33677 -0.16832,7.22416 0.51345,10.48704c0.02627,1.72249 0.08774,3.4478 0.14297,5.17663c-0.41331,-0.17285 -0.79331,-0.39688 -1.08792,-0.6327c-0.32118,-0.25709 -2.02193,-1.40089 -2.07399,-1.23716c-0.88989,2.79903 0.85131,3.5792 0.85131,5.92179c0,6.47091 1.73022,13.51687 0.875,19.84549c-0.11921,0.88214 -0.53973,1.61851 -1.15951,2.21321c-0.26286,-0.0029 -0.5257,-0.00624 -0.78854,-0.01004c-0.85388,-0.01145 -1.70112,-0.07924 -2.54543,-0.17448c-0.02116,-0.05841 -0.04524,-0.11612 -0.07261,-0.17302l0.02639,-0.05672c0,0 0,-0.25 -0.25,-0.25c-0.25,0 -0.25,0.25 -0.25,0.25l0.01568,0.16651c-2.34936,-0.29383 -4.68192,-0.75353 -7.07765,-0.75355c-0.23445,-0.00002 -0.47779,0.00382 -0.72825,0.01009c-0.05223,-0.15198 -0.08239,-0.2971 -0.09529,-0.43711c0.00329,-0.09043 0.00692,-0.18081 0.01088,-0.27116c0.09826,-0.34417 0.19112,-0.7043 0.27756,-1.07488c0.18791,-0.48119 0.38446,-0.97627 0.31933,-1.58348c0.22984,-1.33847 0.36728,-2.71025 0.37132,-3.89037c0,-3.02352 0,-6.04704 0,-9.07056c0,-2.15562 -0.04715,-4.31432 -0.09047,-6.46319c0.01093,-0.4884 0.01815,-0.97555 0.02098,-1.46112c0.00456,-0.78222 0.00832,-1.56444 0.01137,-2.34667c-0.02035,0.05283 -0.04209,0.10504 -0.06518,0.15659c0.05721,-1.67079 0.11575,-3.33324 0.13042,-4.96545c0,-3.5 0,-7 0,-10.5c0,-0.04681 0.00003,-0.09362 0.00009,-0.14043c0.01033,-0.07121 0.02139,-0.14232 0.03324,-0.21332c0.21524,-1.2918 0.23418,-2.57161 0.14702,-3.84591c2.25457,-2.99253 4.17568,1.17003 5.65375,2.52498z" fill="#ffffff" stroke="none" stroke-width="0.5" stroke-linecap="butt"/><path d="M320.58231,214.79256c-2.64546,0.49945 -5.64338,0.02138 -7.01981,-1.35505c-0.3127,-0.3127 -0.54046,-0.59739 -0.70179,-0.86079c0.16708,-0.00291 0.33081,-0.00456 0.4907,-0.00455c2.44581,0.00001 4.82488,0.47626 7.22415,0.76928c0.08859,0.46077 0.01299,0.99276 0.00675,1.45111z" fill="#ffffff" stroke="none" stroke-width="0.5" stroke-linecap="butt"/><path d="M321.08375,214.68503c0.00888,-0.42788 0.04485,-0.86648 -0.0064,-1.28523c0.8028,0.08831 1.60855,0.15105 2.42046,0.16358c0.06443,0.00093 0.12885,0.00183 0.19328,0.00271c-0.73295,0.51352 -1.63661,0.88511 -2.60734,1.11895z" fill="#ffffff" stroke="none" stroke-width="0.5" stroke-linecap="butt"/><path d="M312.75991,201.63354c0,1.0971 -0.06594,2.19082 -0.15879,3.28435c0.03647,-1.15586 0.09255,-2.32554 0.15879,-3.5042c0,0.07328 0,0.14657 0,0.21986z" fill="#ffffff" stroke="none" stroke-width="0.5" stroke-linecap="butt"/><path d="M321.25597,223.44425c0,3.20558 0,6.41116 0,9.61674c-0.00221,-0.01156 -0.00442,-0.02312 -0.00664,-0.03467c0.00738,-3.21517 -0.50446,-6.17688 -0.50446,-9.40801c0,-1.47456 0.08805,-2.96141 0.17415,-4.4562c0.16848,1.41273 0.33695,2.82073 0.33695,4.28214z" fill="#ff0000" stroke="none" stroke-width="0.5" stroke-linecap="butt"/><path d="M319.10014,157.52131c0.72138,0.05266 1.1627,0.86078 1.73769,1.29959c0.16734,0.12771 1.30021,-0.75666 2.54778,0.52134c1.94393,1.99134 -1.61228,8.68948 -4.49999,8.52905c-2.75794,-0.15322 -3.66756,-4.35369 -3.64704,-6.47488c0.00236,-0.24371 -0.0529,-2.23394 0.44792,-2.46271l1.52991,-0.78448c0.06043,0 0.1202,0.00285 0.17917,0.00841c0.58014,-0.03841 1.10547,-0.68005 1.70455,-0.63632z" fill="#ffffd6" stroke="none" stroke-width="0.5" stroke-linecap="butt"/><path d="" fill="#ffffff" stroke="none" stroke-width="0.5" stroke-linecap="butt"/><path d="M322.19974,256.08481c-0.04447,-0.00527 -0.08893,-0.01056 -0.1334,-0.01586c-0.0429,-0.47704 -0.08133,-0.94057 -0.10734,-1.38014c0.11307,0.03071 0.21402,0.047 0.28931,0.05565c-0.01335,0.44119 -0.03181,0.88918 -0.04857,1.34035z" fill="#ffffff" stroke="none" stroke-width="0.5" stroke-linecap="butt"/><path d="M296.98792,158.18555c0,0 -4.22307,-17.29411 -4.22307,-24.93623c0,-2.75768 -0.95763,-11.04158 3.54451,-14.9676c5.80536,-5.06248 17.7568,-5.54445 21.79391,-5.54445c3.39251,0 15.74324,-2.37128 21.09113,2.11689c6.84841,5.74747 6.45938,19.01195 6.45938,23.02043c0,7.07165 -3.82087,20.31096 -3.82087,20.31096c0,0 -15.47704,2.21209 -23.12634,2.21209c-7.28084,0 -21.71865,-2.21209 -21.71865,-2.21209z" fill="#ffffd6" stroke="#000000" stroke-width="3" stroke-linecap="butt"/><path d="M322.31815,153.47133l-9.23025,0.09418" fill="none" stroke="#000000" stroke-width="3" stroke-linecap="round"/><path d="M358.74709,131.70701l-0.14343,0.08367l0.33475,0.37387c-0.00225,1.08935 0.25677,2.21105 -0.00676,3.26804c-0.71879,2.88303 -2.2179,2.17152 -3.38575,4.87996c-0.35102,0.81408 0.47941,2.11992 -0.23157,2.64948c-3.88254,2.89185 -7.27805,-0.98608 -8.27893,-4.08709c-0.70971,-2.19889 -0.2384,-4.21848 0.48796,-6.24106c-0.25105,-0.06961 -0.50104,-0.12914 -0.74983,-0.17417c-3.58292,0.01273 -7.14706,0.81201 -10.69644,0.56847c-2.81241,-0.19297 -5.53,-1.08522 -8.33581,-1.32258c-3.05575,-0.25851 -4.09995,-0.08766 -7.25629,-0.51532c-2.96979,-0.40239 -4.99482,-1.68098 -8.136,-1.37636c-1.5576,0.15105 -4.04694,1.65645 -5.14212,2.00023c-1.29235,0.40566 -2.64449,0.59712 -3.98279,0.80613c-2.21245,0.34553 -3.6248,-0.5318 -5.53875,-0.60573c1.33415,2.72128 1.63634,5.98327 1.54783,8.90538l0.74466,1.34037c0.16131,0.27772 0.25367,0.60044 0.25367,0.94473c0,0.69725 -0.37882,1.30601 -0.94186,1.63172v1.00549c0,1.04035 -0.84338,1.88372 -1.88373,1.88372c-0.74135,0 -1.38266,-0.42825 -1.69007,-1.05086l-0.91271,-1.75747c-1.192,0.19968 -1.85833,-0.9664 -1.85833,-0.9664l-0.08542,-0.17781c-0.82137,-0.74195 -1.56986,-2.11574 -2.13529,-3.24841c-0.52376,-0.01525 -1.03774,-0.0702 -1.51691,-0.26643c-3.08562,-1.26363 -3.40458,-3.8018 -2.65153,-6.47753c-0.20715,-0.82715 -0.26448,-1.88197 -0.13702,-3.21786c0.0281,-0.29451 0.18298,-0.52439 0.39897,-0.7251c-3.80262,0.2981 -6.30821,-0.23036 -6.36438,-4.58475c-0.0328,-2.54237 1.23406,-4.29673 2.95379,-5.7228c0.46659,-0.84575 1.22511,-1.71413 2.13053,-2.44444c0.55139,-1.30416 1.17433,-2.57207 1.88773,-3.83643l0.23282,-0.13668l-0.06095,-0.06095l1.69535,-1.69535v0c0.21044,-0.21044 0.47044,-0.37132 0.761,-0.46363c1.16084,-2.14751 2.69086,-4.01431 5.22521,-4.88075c1.03573,-0.3541 2.31551,-0.64049 3.28138,-0.12548c0.79683,0.42488 0.21672,2.37041 1.11433,2.46931c0.78591,0.0866 0.29874,-1.5809 0.68442,-2.27112c1.56335,-2.79781 3.75449,-5.06529 7.01117,-5.59837c1.27957,-0.20945 2.62268,-0.62494 3.87814,-0.30093c0.71808,0.18533 0.76128,1.43049 1.46014,1.67865c0.80797,0.28691 2.99304,-1.38887 3.47817,-1.6135c2.25119,-1.04236 5.0758,-1.69421 7.53113,-0.89462c0.81736,0.26618 0.80707,1.57717 1.48032,2.11165c1.98197,1.57344 2.74417,0.96118 4.89146,0.54316c2.42854,-0.85656 4.70167,-1.88804 7.38503,-1.75021c3.30064,0.16953 4.71681,2.59696 7.04773,4.28628c0.2246,-0.09456 0.47138,-0.14683 0.73037,-0.14683c0.66422,0 1.24815,0.34378 1.58356,0.86313l0.26758,0.40138c1.04552,0.20455 2.13932,0.29867 3.0702,0.787c2.51583,1.31979 5.91825,5.6709 6.69752,8.58995c0.37646,1.4102 -0.20546,3.10201 0.03866,4.5209c0.4596,2.67125 3.49963,6.09339 2.39881,8.8986c-0.29573,0.7536 -0.73392,1.44133 -1.2381,2.08629zM352.52275,140.47462c0.00849,0.01026 0.01142,0.00865 0.00743,-0.00872c-0.00247,0.00292 -0.00495,0.00582 -0.00743,0.00872z" fill="#29241d" stroke="none" stroke-width="0.5" stroke-linecap="butt"/><path d="M313.58439,164.78187l1.52852,0.27435" fill="none" stroke="#000000" stroke-width="3" stroke-linecap="round"/><path d="M321.10386,213.98468l5.12838,0.04836" fill="none" stroke="#000000" stroke-width="3" stroke-linecap="round"/><path d="M322.61641,165.43294l-3.76745,3.13954l-3.17093,-4.83489l-0.56511,-3.57907" fill="none" stroke="#000000" stroke-width="3" stroke-linecap="round"/><path d="M330.77437,162.36657l-4.54283,1.67286l-2.45349,0.64004l0.56512,-4.52093" fill="none" stroke="#000000" stroke-width="3" stroke-linecap="round"/><path d="M313.09839,208.9279l-0.05034,3.14622" fill="none" stroke="#000000" stroke-width="3" stroke-linecap="round"/><path d="M313.41432,189.18213l0.37999,-23.74918" fill="none" stroke="#000000" stroke-width="3" stroke-linecap="round"/><path d="M324.97108,165.99809l0.9306,47.08833" fill="none" stroke="#000000" stroke-width="3" stroke-linecap="round"/><path d="M325.44201,206.62374l1.30015,-2.87402" fill="none" stroke="#000000" stroke-width="3" stroke-linecap="round"/><path d="M320.23037,214.28421l0.15663,5.43485" fill="none" stroke="#000000" stroke-width="3" stroke-linecap="round"/><path d="M310.72855,229.5072c0.03204,-3.09111 0.91332,-6.30644 1.0641,-9.41166c0.05759,-1.18614 -0.90167,-3.93942 -0.46456,-5.1123c0.96105,-2.5787 4.25917,-3.38613 7.61421,-3.02521c0.79436,0.28483 1.58666,0.57521 2.38508,0.84227c0.00867,0.54053 -0.17156,1.13152 -0.25225,1.64449c-0.00047,0.00302 -0.00095,0.00603 -0.00142,0.00905c-0.50511,3.20953 -1.33875,6.3357 -1.83325,9.47919c-0.55622,3.53584 -0.57437,6.87664 -1.1211,10.39578c0.01626,1.45265 -0.0695,2.91604 -0.17732,4.3821c-0.39029,2.48102 -0.78057,4.96205 -1.17086,7.44307c-0.36377,2.31246 -0.65585,4.62415 -0.96893,6.93568c-0.30325,-0.06001 -0.60884,-0.07824 -0.91651,-0.02642c-4.65909,0.78468 -6.93522,-3.41898 -4.50044,-8.41848c-0.00209,-0.16946 0.00994,-0.34156 0.03716,-0.51461c0.0135,-0.08583 0.03045,-0.17004 0.05066,-0.25251c0.84729,-4.3871 0.2079,-9.78277 0.25546,-14.37045z" fill="#ff0000" stroke="none" stroke-width="0.5" stroke-linecap="butt"/><path d="M315.75801,254.38273c0.61626,1.64334 -0.35381,2.56564 -0.98661,2.96935l0.31085,0.54399l-0.07981,0.0456c0.11897,0.17685 0.2281,0.36075 0.32545,0.55308c0.61453,1.21407 0.20095,2.72576 0.08279,4.08136c-0.32133,3.68642 -0.37186,8.12 -6.71995,5.50086c-0.48199,-0.19887 -0.8884,-0.4382 -1.22735,-0.7116c-1.2554,-0.02747 -2.28272,-0.98033 -2.42693,-2.20355l-0.33243,-2.49318l0.45229,-0.0603c-0.63144,-2.10942 -0.11561,-3.76363 1.86389,-7.01035l0.44508,-0.18455l-0.09802,-0.1307l1.76266,-1.322c-0.67945,-0.19035 -1.35984,-0.37757 -2.04154,-0.5605c0.70488,-0.12699 1.55791,0.12362 2.37309,0.31355c0.40483,-0.28221 0.89708,-0.44769 1.42798,-0.44769c0.28643,0 0.56161,0.04817 0.81789,0.13685l0.83204,-0.48322c0,0 2.12896,-0.79836 3.08759,1.158c0.0134,-0.00061 0.02679,-0.00124 0.04015,-0.00187c-0.00309,0.02224 -0.00618,0.04448 -0.00928,0.06672c0.03516,0.07602 0.06861,0.15601 0.10017,0.24016z" fill="#ffffff" stroke="none" stroke-width="0.5" stroke-linecap="butt"/><path d="" fill="#ffffff" stroke="none" stroke-width="0.5" stroke-linecap="butt"/><path d="" fill="#ffffff" stroke="none" stroke-width="0.5" stroke-linecap="butt"/><path d="" fill="#ffffff" stroke="none" stroke-width="0.5" stroke-linecap="butt"/><path d="M310.22742,253.58417l1.34558,-38.53526l2.11113,-3.08343l7.57464,1.53838" fill="none" stroke="#000000" stroke-width="3" stroke-linecap="round"/><path d="M324.30782,216.28179c2.10005,3.54385 1.25216,8.30962 1.69732,12.1483c0.36567,3.15312 1.37739,6.06807 1.6606,9.3034c0.17467,1.99544 0.99581,5.23141 0.2139,7.23514c-0.61593,1.57841 -1.88799,1.53993 -3.21745,1.48253c-0.25903,-2.07952 -0.56067,-4.21981 -1.28367,-6.07605c-0.69126,-1.76159 -1.11277,-3.62225 -1.59531,-5.45958c-0.14812,-0.95383 -0.29624,-1.90766 -0.44437,-2.86149c-0.45558,-2.93373 -0.91117,-5.86746 -1.36675,-8.80119c-0.39344,-2.5335 -1.42371,-4.79569 -1.82286,-7.35779c-0.00013,-0.0008 -0.00025,-0.00159 -0.00038,-0.00239l-0.00074,-0.00481c0,0 -0.00001,-0.00008 -0.00004,-0.00024c-0.06444,-0.41512 -0.07864,-0.85269 -0.19954,-1.25528c0.80739,-0.0179 1.61424,-0.0583 2.42046,-0.14291c0.07085,-0.0075 0.1417,-0.01503 0.21254,-0.02258c1.75096,0.25886 3.15652,0.85349 3.72628,1.81494z" fill="#ff0000" stroke="none" stroke-width="0.5" stroke-linecap="butt"/><path d="M333.68451,254.01935c-0.72099,1.44198 -1.90693,1.48912 -2.65832,1.34075c-0.12073,0.21677 -0.28606,0.43694 -0.50624,0.65712c-1.76776,1.76776 -3.53554,0 -3.53554,0c-1.58508,-1.82058 -5.73292,-5.00916 -2.12183,-7.95995c-0.05438,-0.41935 -0.10636,-0.84517 -0.15929,-1.27437c1.16228,-0.3827 2.27051,-0.67448 3.72677,-0.53381c0.61277,0.05919 0.92176,0.57305 1.20058,0.93171c-0.39797,0.08527 -0.79454,0.17323 -1.18953,0.26404c1.67286,0.82957 3.47926,2.64798 4.35199,3.43812l-0.22662,-0.2177c0,0 2.23607,1.11803 1.11804,3.3541z" fill="#ffffff" stroke="none" stroke-width="0.5" stroke-linecap="butt"/><path d="M328.75218,248.85693l-3.84109,-0.50713l-0.22717,-1.72368l3.25792,-0.49454" fill="none" stroke="#000000" stroke-width="0.5" stroke-linecap="round"/><path d="M322.76394,214.22562l0.01076,0.06033l2.23662,2.50827l4.12676,30.49366" fill="none" stroke="#000000" stroke-width="3" stroke-linecap="round"/><path d="M307.54054,197.93871c-1.17017,-3.11923 0.08751,-6.55148 0.32808,-9.81622c0.13328,-1.80867 3.46983,-2.68016 4.58699,-1.24629c-0.08199,0.81473 -0.15501,1.62759 -0.20771,2.43433c-0.20361,3.11686 -0.40722,6.23372 -0.61083,9.35058c-0.00688,0.1053 -0.01452,0.21052 -0.02288,0.31566c-1.2206,1.43696 -3.05304,1.6825 -4.07365,-1.03806z" fill="#ffffd6" stroke="none" stroke-width="0.5" stroke-linecap="butt"/><path d="M308.5379,184.58888c-1.96121,-4.10752 0.34274,-10.2027 0.87179,-14.30401c0.26738,-2.07275 -0.91933,-4.06275 1.36424,-5.43634c1.65832,-0.99749 2.65668,0.2049 3.2373,1.4906c-0.06475,1.38934 -0.18699,2.77775 -0.28011,4.16785c-0.55007,2.4471 -0.01317,5.10558 -0.7204,7.5052c-0.23806,2.20247 -0.81735,4.9728 -0.48967,7.22866c-1.19316,0.99596 -3.12437,1.1467 -3.98316,-0.65196z" fill="#ffffff" stroke="none" stroke-width="0.5" stroke-linecap="butt"/><path d="M307.65798,195.16351c0.2455,-1.16479 0.46854,-2.30451 0.5975,-3.33879c0.05397,-0.43276 -1.43315,-0.28282 -1.36575,-0.69189c0.67199,-4.07896 2.04967,-9.69657 2.10875,-12.23289c0.11687,-5.01714 -0.13972,-14.31187 -0.13972,-14.31187l5.17565,1.17947" fill="none" stroke="#000000" stroke-width="3" stroke-linecap="round"/><path d="M307.85409,188.34512l4.28963,-4.30322l-1.68101,19.56693l-3.06737,-7.94988" fill="none" stroke="#000000" stroke-width="3" stroke-linecap="round"/><path d="M325.06251,186.50002l1.83574,0.76489" fill="none" stroke="#000000" stroke-width="3" stroke-linecap="round"/><path d="M329.74759,202.79118c-0.13906,0.01466 -0.27353,0.00982 -0.40351,-0.01297c-0.17621,-2.69581 -0.292,-5.38872 -0.53998,-8.07483c-0.14715,-1.58958 -0.32698,-3.17112 -0.51673,-4.74864c0.04742,-0.00793 0.09532,-0.01447 0.14369,-0.01956c1.37402,-0.14479 2.59793,0.92582 2.73369,2.39127c0.0276,0.29792 0.0081,0.58922 -0.05203,0.86551c1.54456,3.82095 1.06724,9.34292 -1.36513,9.59922z" fill="#ffffd6" stroke="none" stroke-width="0.5" stroke-linecap="butt"/><path d="M330.10472,163.02615c0.46092,0.34129 -0.66496,1.31106 -0.18914,2.08702c1.11093,1.8117 -0.69799,3.75278 -1.12831,5.10756c-1.04138,3.27857 -1.37775,5.2397 -0.3958,8.89917c0.72913,2.71736 3.73678,6.55972 2.18752,9.40229c-0.45285,0.83089 -1.42451,0.97449 -2.36982,0.78666c-0.23292,-1.91221 -0.47586,-3.81932 -0.6882,-5.7285c-0.98368,-3.39006 -1.19716,-7.48534 -1.53366,-11.01936c-0.26278,-2.82404 -0.5241,-5.64823 -0.78551,-8.47242c1.76679,-1.24669 3.50509,-2.09743 4.90291,-1.06242z" fill="#ffffff" stroke="none" stroke-width="0.5" stroke-linecap="butt"/><path d="M331.64274,198.13055c0.02953,-1.48124 0.06239,-3.06677 0.02456,-4.88665c-0.13981,-6.72483 -2.62182,-13.18586 -2.89182,-16.49782c-0.34379,-4.21696 1.35527,-13.05845 1.35527,-13.05845" fill="none" stroke="#000000" stroke-width="3" stroke-linecap="round"/><path d="M331.88005,198.49432l-2.31692,7.28772l-2.3276,-15.61028" fill="none" stroke="#000000" stroke-width="3" stroke-linecap="round"/><path d="M328.24844,189.66175l2.23034,0.72768" fill="none" stroke="#000000" stroke-width="3" stroke-linecap="round"/><path d="M314.83333,189.66669v-10.11111h4v10.11111z" fill="#000000" stroke="none" stroke-width="0" stroke-linecap="butt"/><path d="M324.27779,184.72224c0,2.48528 -1.34314,4.5 -3,4.5c-1.65686,0 -3,-2.01472 -3,-4.5c0,-2.48528 1.34314,-4.5 3,-4.5c1.65686,0 3,2.01472 3,4.5z" fill="#000000" stroke="none" stroke-width="0" stroke-linecap="butt"/><path d="M314.66033,189.27672l5.01269,4.89104" fill="none" stroke="#000000" stroke-width="0.5" stroke-linecap="round"/><path d="M318.65801,195.20745c-3.78264,-4.41308 2.82119,-7.86517 4.94308,-4.53075c2.66095,4.18149 -3.19159,7.20659 -4.89262,4.53356z" fill="#000000" stroke="none" stroke-width="0.5" stroke-linecap="butt"/><path d="M323.4975,184.71251c0.6625,1.06 -0.3975,1.7225 -0.3975,1.7225l-1.92441,0.78726c-0.72317,-0.18311 -1.53185,-0.16215 -2.1695,-0.54932c-0.60853,-0.36948 -2.03173,-2.72403 -2.08875,-0.32433c0,0 -0.22361,1.22984 -1.45344,1.00623c-1.22984,-0.22361 -1.00623,-1.45344 -1.00623,-1.45344c0.5626,-2.22934 2.16507,-4.05662 4.84286,-2.74075c0.8655,0.4253 1.44533,1.47328 2.39889,1.61711l0.07559,-0.46274c0,0 1.06,-0.6625 1.7225,0.3975z" fill="#313131" stroke="none" stroke-width="0.5" stroke-linecap="butt"/><path d="M317.6875,194.00001c-0.75,-1 0.25,-1.75 0.25,-1.75l1,-0.75c0,0 0.07409,-0.05557 0.19707,-0.11629c1.15173,-1.29906 2.24145,-1.23074 4.05293,-0.00871l0.56085,0.97972c0,0 0.39528,1.18585 -0.79057,1.58114c-0.97619,0.3254 -1.41665,-0.42067 -1.54189,-0.69466c-0.29893,-0.07279 -0.68352,-0.00138 -0.7607,0.24086c0,0 -0.38207,0.68773 -1.08559,0.66887l-0.1321,0.09908c0,0 -1,0.75 -1.75,-0.25zM321.60925,193.31719l0.07825,0.05782c-0.02288,-0.02133 -0.04921,-0.04062 -0.07825,-0.05782z" fill="#313131" stroke="none" stroke-width="0.5" stroke-linecap="butt"/><path d="M315.04438,192.80314c0.85916,-0.5155 1.44286,0.07087 1.64068,0.3239c0.16371,-0.09177 0.3026,-0.22398 0.37744,-0.37703c0,0 0.75,-1 1.75,-0.25c1,0.75 0.25,1.75 0.25,1.75c-0.73412,0.84325 -1.88493,1.41866 -3,1.5l-1.44687,-1.23188c0,0 -0.64312,-1.07187 0.42875,-1.71499zM316.38489,193.24163l-0.32239,0.00838c0.10232,0.01954 0.21277,0.01525 0.32239,-0.00838z" fill="#9b9b9b" stroke="none" stroke-width="0.5" stroke-linecap="butt"/><path d="M325.21333,164.22025l7.22985,-1.80124l-5.71163,1.48998" fill="none" stroke="#000000" stroke-width="3" stroke-linecap="round"/><path d="M313.24867,187.98105l0.50555,23.59229" fill="none" stroke="#000000" stroke-width="3" stroke-linecap="round"/><path d="M309.5066,253.3046l-1.0057,0.48092" fill="none" stroke="#000000" stroke-width="3" stroke-linecap="round"/><path d="M324.16504,242.62868l1.4418,5.5269l-1.40461,3.56612l1.0111,4.04439" fill="none" stroke="#000000" stroke-width="3" stroke-linecap="round"/><path d="M314.76531,264.86597l-9.43691,-1.68516" fill="none" stroke="#000000" stroke-width="3" stroke-linecap="round"/><path d="M305.49692,256.9457l10.78505,2.19071l-1.51665,10.11098l-10.44801,-1.68516l1.68517,-10.11097l4.35407,-4.68791l5.37995,0.80922" fill="none" stroke="#000000" stroke-width="3" stroke-linecap="round"/><path d="M315.94494,258.9679l-0.77652,-3.80207l4.14685,-32.56416l5.05549,22.41267l-6.2351,-23.7608" fill="none" stroke="#000000" stroke-width="3" stroke-linecap="round"/><path d="M327.90959,247.34028l4.71846,1.17962l1.85368,2.86478l-1.0111,4.71845l-5.39252,2.52774l-3.37033,-1.85367l9.94246,-3.53885" fill="none" stroke="#000000" stroke-width="3" stroke-linecap="round"/><path d="M324.8763,252.7328l8.93136,-3.53884" fill="none" stroke="#000000" stroke-width="3" stroke-linecap="round"/><path d="M307.18208,255.93461h6.90917" fill="none" stroke="#000000" stroke-width="0.5" stroke-linecap="round"/><path d="M314.93384,254.92351l-7.2462,-0.50555" fill="none" stroke="#000000" stroke-width="0.5" stroke-linecap="round"/><path d="M325.8874,250.03654l4.21291,-1.17961" fill="none" stroke="#000000" stroke-width="0.5" stroke-linecap="round"/><path d="M331.61695,247.84582l-7.41472,2.0222" fill="none" stroke="#000000" stroke-width="0.5" stroke-linecap="round"/><path d="M304.83544,144.05232c0.34861,-1.27824 -0.98916,-4.4188 0.2337,-5.58366c3.52835,-3.36099 6.13256,1.82651 5.41419,5.17589c-0.6805,3.17284 -4.56781,4.34248 -5.48262,0.68322z" fill="#ffffff" stroke="none" stroke-width="0.5" stroke-linecap="butt"/><path d="M324.52346,143.11981c-1.11865,-3.97742 3.88941,-8.17707 5.60355,-3.51799c0.47777,1.2986 -0.0968,7.00528 -1.45099,7.77911c-3.05198,1.74399 -4.49065,-1.15656 -3.89926,-3.81785z" fill="#ffffff" stroke="none" stroke-width="0.5" stroke-linecap="butt"/><path d="M300.03704,138.10925l14.99754,-0.20267" fill="none" stroke="#000000" stroke-width="3" stroke-linecap="round"/><path d="M320.912,138.31192l17.2269,0.40534" fill="none" stroke="#000000" stroke-width="3" stroke-linecap="round"/><path d="M323.74339,138.94112v7.2961l6.48542,1.21602v-9.32279" fill="none" stroke="#000000" stroke-width="3" stroke-linecap="round"/><path d="M304.69844,138.51459l0.40534,7.09343" fill="none" stroke="#000000" stroke-width="3" stroke-linecap="round"/><path d="M308.14382,146.62137l4.45873,-1.41869l0.20267,-7.90411" fill="none" stroke="#000000" stroke-width="3" stroke-linecap="round"/><path d="M310.28601,138.96024l-0.20133,5.4358" fill="none" stroke="#000000" stroke-width="3" stroke-linecap="round"/><path d="M324.78147,139.66488l0.30199,5.13381" fill="none" stroke="#000000" stroke-width="3" stroke-linecap="round"/></g></g></svg>