<svg version="1.1" xmlns="http://www.w3.org/2000/svg" xmlns:xlink="http://www.w3.org/1999/xlink" width="245.69026" height="83.42893" viewBox="0,0,245.69026,83.42893"><defs><radialGradient cx="314.32947" cy="255.55548" r="104" gradientUnits="userSpaceOnUse" id="color-1"><stop offset="0" stop-color="#352000"/><stop offset="1" stop-color="#5d3a00"/></radialGradient></defs><g transform="translate(-195.15486,-187.28555)"><g data-paper-data="{&quot;isPaintingLayer&quot;:true}" fill-rule="nonzero" stroke="none" stroke-linecap="butt" stroke-linejoin="miter" stroke-miterlimit="10" stroke-dasharray="" stroke-dashoffset="0" style="mix-blend-mode: normal"><path d="M217.10243,242.16921c0.8694,-0.89814 1.76753,-0.02874 1.76753,-0.02874l1.63433,1.58204c0.29953,0.28994 0.57163,0.61926 0.83771,0.95674c0.26713,0.02203 0.5317,0.0573 0.79299,0.1095c0.00022,0.00004 0.00043,0.00009 0.00065,0.00013v-0.00013l2.49983,0.00269c0.00006,0 0.00011,0 0.00017,0c0.68974,0.00073 1.24866,0.56009 1.24866,1.25c0,0.60304 -0.42703,1.10634 -0.99519,1.22401c1.16712,0.17774 2.41356,0.06165 3.56391,0.34781c4.83182,1.20192 9.44684,1.80907 14.31854,2.58454c8.98144,1.42964 16.38756,6.58509 24.95119,8.73242c8.2398,0.69246 15.18257,6.25583 23.15309,8.01091c8.0333,1.76891 16.88599,0.84749 25.12472,0.84749c5.25569,0 11.59381,0.97541 16.75355,0.02454c2.22997,-0.41096 4.17259,-2.17433 6.17956,-3.03771c2.24985,-0.96787 4.96097,-1.3522 7.2999,-2.13212c6.45826,-2.1535 12.70869,-4.05049 19.40479,-5.29129c5.68944,-1.05426 11.48644,-2.85271 17.20947,-3.55406c4.07749,-0.49969 8.54104,-0.00937 12.65273,-0.00937c3.16667,0 6.33333,0 9.5,0c1.04585,0 2.21565,0.89806 3.11612,0.36612c0.18609,-0.10993 -0.03097,-0.34602 -0.19467,-0.57684l-0.03949,0.01974l-0.98875,-1.97751c-0.09145,-0.1737 -0.14321,-0.37156 -0.14321,-0.58151c0,-0.69036 0.55964,-1.25 1.25,-1.25c0.11286,0 0.22222,0.01496 0.32622,0.043l2.06253,0.50832l-0.00779,0.0316l0.12739,0.0043c5.94409,2.79245 11.92323,5.43501 18.57874,5.38539c1.48718,-0.01109 3.05465,0.52183 4.4615,0.03953c1.90697,-0.65376 -0.10071,-4.16473 -0.4516,-5.18507c-1.48242,-4.31059 -3.73744,-6.62448 -7.29737,-8.32706h-1.79961c-0.69036,0 -1.25,-0.55964 -1.25,-1.25c0,-0.67739 0.53882,-1.22893 1.21124,-1.24941l2.44371,-0.08635c4.09023,-0.23544 7.20018,-1.51614 10.84544,-3.23279c0.3017,-1.30145 1.89268,-4.41437 0.75483,-5.65157c-1.00918,-1.09729 -2.73972,-1.17835 -4.08495,-1.82088c-2.252,-1.07564 -4.34172,-2.09034 -6.73008,-2.82342c-3.09004,-0.94845 -6.26326,-2.25892 -9.42726,-2.90827c-3.75559,-0.77076 -8.01313,-0.72817 -11.84232,-0.97984c-0.48761,-0.03205 -4.58468,-0.18288 -4.69681,-0.22243c-0.06264,-0.02209 -0.12469,-0.04542 -0.18622,-0.06988l-0.00534,0.01403l-2.3093,-0.87867c-0.48519,-0.17176 -0.83275,-0.63463 -0.83275,-1.17867c0,-0.45345 0.24145,-0.8505 0.60279,-1.06962l2.09825,-1.31931l0.01919,0.03051l0.11203,-0.10244c7.87529,-2.65471 15.69687,-5.11595 23.40271,-8.22603c0.67832,-0.27377 1.38718,-0.60785 2.11293,-0.93674c-13.80576,0.15988 -27.76226,0.64529 -41.23808,-2.10339v0.06515h-2c-0.69036,0 -1.25,-0.55964 -1.25,-1.25c0,-0.34518 0.13991,-0.65768 0.36612,-0.88388c0.58926,-0.58926 2.64298,-2.64298 3.23223,-3.23223c0.495,-0.44422 1.21973,-0.72276 1.48499,-1.33267c0.2425,-0.55756 -0.09598,-5.18336 -0.63947,-5.52357c-0.50686,-0.31729 -1.18051,0.20764 -1.77747,0.24255c-2.67818,0.15665 -4.12223,0.81533 -6.61959,1.87938c-10.13576,4.31854 -18.50066,10.02837 -27.06609,16.88818c-1.94833,2.00146 -4.69961,6.13779 -7.20051,7.31768c-1.09952,0.51874 -2.47163,1.12183 -3.58982,0.64465c-1.48503,-0.63374 -3.0398,-6.11843 -3.57568,-7.5921c-1.9908,-5.47476 -4.25825,-11.02704 -5.68245,-16.68343c-0.01459,-0.05793 -0.92623,-5.07086 -0.92721,-5.1123c-0.01386,-0.5884 0.6116,-1.1958 0.36107,-1.72837c-0.15142,-0.3219 -0.65674,0.28507 -1.00425,0.3611c-1.18104,0.25839 -2.35269,0.94432 -3.08606,1.90546c-5.24614,6.37351 -8.54946,14.09427 -12.71694,21.2114c-0.93154,1.59086 -2.64815,5.94069 -4.17816,6.88257c-1.91754,1.18044 -4.69275,0.51381 -6.27529,-0.83029c-0.1716,-0.14574 -2.60041,-4.21473 -2.81537,-4.57208c-1.78458,-2.96665 -3.26127,-5.84955 -4.626,-9.03125c-0.98494,-2.29626 -2.19371,-4.61975 -2.99224,-6.9862c-0.40083,-1.18788 0.18983,-3.27744 -1.01578,-3.62128c-0.52555,-0.14989 -0.98263,0.47866 -1.47192,0.72211c-2.09263,1.04122 -3.99059,1.91116 -5.79231,3.4041c-3.71798,3.08078 -7.48051,6.30113 -9.94168,10.50427c-0.77712,1.32715 -2.41472,6.59069 -3.55391,7.23621c-3.00438,1.70241 -5.34691,-2.00293 -6.99457,-3.65058c-3.58476,-3.58476 -6.50493,-7.4707 -9.2997,-11.70984c-1.59078,-2.41292 -2.35028,-5.87154 -5.67111,-5.36972c-5.12125,0.77388 -7.84344,7.42614 -9.59177,11.80319c-0.34662,0.86779 -1.64047,4.42558 -2.43191,4.92027c-1.57616,0.98518 -4.00763,-0.2294 -5.40396,-0.71735c-2.17541,-1.40611 -4.13368,-3.00219 -6.22735,-4.52111c-1.28575,-0.93279 -2.32336,-2.2358 -3.74162,-2.95119c-2.62177,-1.32245 -5.23142,1.17302 -6.09688,3.51711c-0.48521,1.31419 0.08702,2.80072 0.09759,4.20158c0.02905,3.84903 -0.17506,8.21313 1.46606,11.80981c0.36837,0.80731 1.18129,1.38843 1.44536,2.23561c0.37172,1.19248 -0.06983,4.57922 -0.92124,5.43557c-1.45518,1.46363 -4.00202,1.16606 -5.77512,1.17666c-1.66667,0 -3.33333,0.00011 -5,0c-2.11332,-0.00014 -6.81519,-0.6939 -8.62263,0.64035c-1.41815,1.04688 0.4756,1.96748 0.92973,2.52886c2.11578,2.61543 3.46802,4.20425 6.72917,5.43696c2.73705,1.0346 6.44551,2.41865 9.30964,2.91197c1.02967,0.17735 2.10846,0.1057 3.19259,0.00883l-0.90789,-0.87884c0,0 -0.89814,-0.8694 -0.02874,-1.76753zM220.67239,247.36368c-2.57841,0.14091 -4.91834,0.60476 -6.78794,2.55881c0,0 -0.88388,0.88388 -1.76777,0c-0.88388,-0.88388 0,-1.76777 0,-1.76777c0.52152,-0.50432 1.05401,-0.93215 1.59988,-1.2953c-1.33887,-0.33172 -2.60947,-0.8148 -4.16626,-1.30023c-3.11393,-0.97098 -6.58193,-1.49307 -9.27847,-3.50498c-2.55634,-1.90732 -7.11458,-6.70182 -4.14864,-9.90596c1.59693,-1.72518 5.74199,-1.31541 7.84911,-1.35933c2.50641,-0.05224 5.02125,-0.00032 7.52826,-0.00032c0.48915,0.00343 3.34025,0.21605 3.96829,-0.40448c1.73771,-1.71693 -1.28619,-5.93333 -1.71838,-7.50903c-0.92697,-3.37956 -0.93817,-6.7323 -0.9649,-10.22514c-0.00185,-0.24221 -0.05804,-4.76191 0.02764,-5.00213c1.39295,-3.90529 5.46003,-6.80643 9.53191,-4.99956c3.58915,1.59267 6.71187,5.33927 10.01338,7.49363c0.97237,0.34874 2.16898,1.46696 2.9849,0.83339c1.09395,-0.84948 1.78034,-4.88128 2.39158,-6.12899c2.23763,-4.56763 5.07115,-10.35495 10.63823,-10.94877c4.82567,-0.51473 5.79193,3.02446 8.06652,6.4746c2.70303,4.09999 5.51503,7.8529 8.98025,11.31812c0.35137,0.35137 3.20779,3.9861 3.93436,3.27835c0.42137,-0.41045 0.22729,-1.15765 0.4141,-1.71543c0.78018,-2.32947 1.03861,-2.54026 2.27592,-4.64579c3.24425,-5.52072 8.89806,-10.93249 14.63325,-13.80485c1.1672,-0.58457 4.31979,-2.38302 5.6474,-1.8858c1.00665,0.37701 1.36961,1.68304 1.83406,2.65246c1.37542,2.87082 2.27264,6.30948 3.5531,9.29471c1.65206,3.85157 3.64565,7.25882 5.75938,10.87034c0.92191,1.57517 0.75735,2.22967 2.67748,2.59236c2.47484,0.46747 3.96851,-4.42265 5.00304,-6.18939c4.23823,-7.23796 7.60654,-15.05239 12.94408,-21.53694c1.26075,-1.45278 5.49505,-4.92727 7.78829,-2.44554c0.74461,0.80581 0.20774,2.18523 0.36107,3.27163c0.2238,1.58572 0.47063,3.17344 0.86165,4.7264c1.40337,5.57368 3.64834,11.04433 5.60778,16.43999c0.5567,1.53298 1.2813,3.00068 1.85908,4.52584c0.20392,0.53828 -0.03315,1.35472 0.45034,1.66707c0.97213,0.62801 1.93575,-1.3017 2.73529,-2.13846c1.74417,-1.82537 3.52694,-3.61613 5.29134,-5.42194c8.01665,-6.44471 15.94348,-12.2996 25.4665,-16.35707c2.193,-0.93437 4.80867,-2.52919 7.13498,-3.01358c0.54275,-0.11301 5.68732,-0.04534 5.96736,0.15782c1.47183,1.06775 2.22803,6.83631 1.54739,8.47497c-0.38481,0.92644 -1.36703,1.46858 -2.05054,2.20287c-0.32825,0.32825 -0.6565,0.6565 -0.98475,0.98475c3.27918,-0.51101 8.19241,1.84754 10.99809,2.12032c11.37501,1.10591 23.43343,-0.00672 34.87055,-0.00672h2c0.69036,0 1.25,0.55964 1.25,1.25c0,0.5623 -0.37128,1.03788 -0.88206,1.19497l-2.34436,0.78145l-0.09162,-0.27485c-2.19596,1.07388 -4.43108,1.85691 -6.87115,2.84172c-7.55989,3.05117 -15.21467,5.51841 -22.95795,8.06528c2.97122,-0.16927 6.06055,0.31738 8.98367,0.56097c7.45155,0.62096 14.8471,2.20977 21.65533,5.45608c1.69876,0.81 6.07057,2.11203 7.19447,3.56658c2.05317,2.6572 0.10067,6.18827 -0.74082,8.80975c-3.09905,1.7865 -5.91467,3.05048 -9.14722,3.70424c0.41721,0.38663 0.85279,0.81094 1.32951,1.22956c2.8262,2.48174 3.84462,5.67396 4.80792,9.27858c0.26616,0.99596 0.99869,2.00847 0.73313,3.0046c-1.05553,3.95927 -4.89384,2.98619 -7.81503,3.00363c-6.61113,0.03947 -12.60562,-2.32525 -18.51074,-5.09406c0.45249,0.63727 0.46359,1.46569 -0.70921,2.7554c-0.65193,0.71692 -1.91758,0.29368 -2.88388,0.36612c-2.9604,0.22192 -6.03246,0 -9,0c-4.81881,0 -10.07112,-0.60031 -14.84727,-0.00937c-5.67111,0.70168 -11.41931,2.48583 -17.05943,3.53095c-6.58349,1.21993 -12.71852,3.0885 -19.06972,5.20484c-2.26391,0.75438 -4.92583,1.10978 -7.098,2.05497c-2.19293,0.95422 -4.23935,2.73648 -6.67912,3.19407c-5.32583,0.99887 -11.82478,0.02454 -17.24645,0.02454c-8.41364,0 -17.46602,0.93941 -25.66835,-0.90731c-7.8915,-1.77674 -14.87031,-7.32874 -23.01525,-7.98424c-8.58064,-2.12172 -15.97042,-7.30505 -24.93811,-8.7303c-4.94042,-0.78519 -9.63576,-1.39761 -14.53217,-2.62814c-1.67373,-0.42063 -3.53742,-0.0964 -5.11618,-0.7934c-0.14166,-0.06254 -1.11001,-0.9727 -2.05812,-1.88152z" fill="#00ff0f" stroke-width="0.5"/><path d="M219.15202,241.16275c-0.8694,0.89813 0.02862,1.76668 0.02862,1.76668l0.90782,0.87835c-1.08413,0.09687 -2.26173,0.1839 -3.2914,0.00655c-2.86413,-0.49332 -6.57284,-1.87925 -9.30989,-2.91385c-3.26115,-1.23271 -4.61362,-2.82411 -6.7294,-5.43954c-0.45413,-0.56138 -2.34794,-1.48305 -0.92979,-2.52993c1.80744,-1.33425 6.60923,-0.64444 8.72255,-0.6443c1.66667,0.00011 3.33333,-0.00009 5,-0.00009c1.7731,-0.0106 4.22,0.2905 5.67518,-1.17313c0.85141,-0.85635 1.29295,-4.2458 0.92123,-5.43828c-0.26407,-0.84718 -1.07695,-1.42939 -1.44532,-2.2367c-1.64112,-3.59668 -1.43643,-7.96641 -1.46548,-11.81544c-0.01057,-1.40086 -0.58245,-2.88933 -0.09724,-4.20352c0.86546,-2.34409 3.47562,-4.84184 6.09739,-3.51939c1.41826,0.71539 2.55313,2.04162 3.83888,2.97441c2.09367,1.51892 4.05229,3.11332 6.2277,4.51943c1.39633,0.48795 3.72963,1.68347 5.30579,0.69829c0.79144,-0.49469 2.08602,-4.05565 2.43264,-4.92344c1.74833,-4.37705 4.47364,-11.03786 9.59489,-11.81174c3.32083,-0.50182 4.17149,2.99786 5.76227,5.41078c2.79477,4.23914 5.71705,8.11915 9.30181,11.70391c1.64766,1.64765 3.89365,5.32696 6.89803,3.62455c1.13919,-0.64552 2.77948,-5.91691 3.5566,-7.24406c2.46117,-4.20314 6.23194,-7.43642 9.94992,-10.5172c1.80172,-1.49294 3.70496,-2.36805 5.79759,-3.40927c0.48929,-0.24345 0.94781,-0.87317 1.47336,-0.72328c1.20561,0.34384 0.67804,2.51096 1.07887,3.69884c0.79853,2.36645 2.00985,4.68763 2.99479,6.98389c1.36473,3.1817 2.8458,6.05976 4.63038,9.02641c0.21496,0.35735 2.64676,4.42214 2.81836,4.56788c1.58254,1.3441 4.28021,1.94852 6.19775,0.76808c1.53001,-0.94188 3.26794,-5.30436 4.19948,-6.89522c4.16748,-7.11713 7.49564,-14.83873 12.74178,-21.21224c0.73337,-0.96114 1.90815,-1.64627 3.08919,-1.90466c0.34751,-0.07603 0.85384,-0.6827 1.00526,-0.3608c0.25053,0.53257 -0.37472,1.14004 -0.36086,1.72844c0.00098,0.04144 0.91592,5.05555 0.93051,5.11348c1.4242,5.65639 3.71144,11.22292 5.70224,16.69768c0.53588,1.47367 2.09944,6.97356 3.58447,7.6073c1.11819,0.47718 2.3959,-0.09292 3.49542,-0.61166c2.5009,-1.17989 5.25459,-5.31033 7.20292,-7.31179c8.56543,-6.85981 17.01915,-12.61552 27.15491,-16.93406c2.49736,-1.06405 3.94189,-1.72183 6.62007,-1.87848c0.59696,-0.03491 1.27079,-0.55949 1.77765,-0.2422c0.54349,0.34021 0.88345,4.96916 0.64095,5.52672c-0.26526,0.60991 -0.98982,0.88886 -1.48482,1.33308c-0.58925,0.58925 -2.6425,2.64414 -3.23176,3.2334c-0.22621,0.2262 -0.36594,0.53917 -0.36594,0.88435c0,0.69036 0.56004,1.2511 1.2504,1.2511l2.00015,0.00044l-0.00001,-0.06519c13.47582,2.74868 27.43409,2.26997 41.23985,2.11009c-0.72575,0.32889 -1.43457,0.66321 -2.11289,0.93698c-7.70584,3.11008 -15.52705,5.57357 -23.40234,8.22828l-0.11202,0.10249l-0.01919,-0.03053l-2.09817,1.31993c-0.36134,0.21912 -0.60272,0.61678 -0.60272,1.07023c0,0.54404 0.34764,1.00768 0.83283,1.17944l2.30936,0.87933l0.00534,-0.01404c0.06153,0.02446 0.12358,0.04784 0.18622,0.06993c0.11213,0.03955 4.20923,0.19073 4.69684,0.22278c3.82919,0.25167 8.08679,0.21002 11.84238,0.98078c3.164,0.64935 6.33729,1.96139 9.42733,2.90984c2.38836,0.73308 4.4781,1.74907 6.7301,2.82471c1.34523,0.64253 3.07576,0.72435 4.08494,1.82164c1.13785,1.2372 -0.45322,4.35249 -0.75492,5.65394c-3.64526,1.71665 -6.75535,2.99913 -10.84558,3.23457l-2.44373,0.0865c-0.67242,0.02048 -1.21131,0.57266 -1.21131,1.25005c0,0.69036 0.55958,1.25051 1.24994,1.25051l1.79962,-0.0001c3.55993,1.70258 5.81447,4.01958 7.29689,8.33017c0.35089,1.02034 2.35814,4.53338 0.45117,5.18714c-1.40685,0.4823 -2.97442,-0.05021 -4.4616,-0.03912c-6.65551,0.04962 -12.73199,-2.61586 -18.67608,-5.40831l-0.12739,-0.00431l0.00779,-0.03158l-2.06253,-0.5083c-0.104,-0.02804 -0.11591,-0.02057 -0.22877,-0.02057c-0.69036,0 -1.25019,0.56044 -1.25019,1.2508c0,0.20995 0.05169,0.40809 0.14314,0.58179l0.98852,1.97838l0.03949,-0.01976c0.1637,0.23082 0.38069,0.46717 0.1946,0.5771c-0.90047,0.53194 -2.07034,-0.36586 -3.11619,-0.36586c-3.16667,0 -6.33379,0.00153 -9.50046,0.00153c-4.11169,0 -8.57616,-0.4877 -12.65365,0.01199c-5.72303,0.70135 -11.52374,2.50749 -17.21318,3.56175c-6.6961,1.2408 -12.9573,3.15051 -19.41556,5.30401c-2.33893,0.77992 -5.05691,1.16911 -7.30676,2.13698c-2.00697,0.86338 -3.95706,2.63035 -6.18703,3.04131c-5.15974,0.95087 -11.51819,-0.02129 -16.77388,-0.02129c-8.23873,0 -17.118,0.9122 -25.1513,-0.85671c-7.97052,-1.75508 -14.92723,-7.33357 -23.16703,-8.02603c-8.56363,-2.14733 -15.97493,-7.31482 -24.95637,-8.74446c-4.8717,-0.77547 -9.48755,-1.38601 -14.31937,-2.58793c-1.15035,-0.28616 -2.3969,-0.17062 -3.56402,-0.34836c0.56816,-0.11767 0.99509,-0.6215 0.99509,-1.22454c0,-0.68991 -0.55905,-1.25003 -1.24879,-1.25076c-0.00006,0 -0.00011,0 -0.00017,0l-2.49987,-0.0029v0.00013c-0.00022,-0.00004 -0.00043,-0.00009 -0.00065,-0.00013c-0.26129,-0.0522 -0.52588,-0.08759 -0.79301,-0.10962c-0.26608,-0.33748 -0.53826,-0.66734 -0.83779,-0.95728l-1.63446,-1.58294c0,0 -0.79898,-0.88243 -1.66838,0.01571z" data-paper-data="{&quot;noHover&quot;:false,&quot;origItem&quot;:[&quot;Path&quot;,{&quot;applyMatrix&quot;:true,&quot;segments&quot;:[[[137.10243,242.1692],[0,0],[0.8694,-0.89814]],[138.86996,242.14046],[[140.50429,243.7225],[0,0],[0.29953,0.28994]],[[141.342,244.67924],[-0.26608,-0.33748],[0.26713,0.02203]],[[142.13499,244.78874],[-0.26129,-0.0522],[0.00022,0.00004]],[[142.13564,244.78887],[-0.00022,-0.00004],[0,0]],[142.13564,244.78874],[[144.63547,244.79143],[0,0],[0.00006,0]],[[144.63564,244.79143],[-0.00006,0],[0.68974,0.00073]],[[145.8843,246.04143],[0,-0.68991],[0,0.60304]],[[144.88911,247.26544],[0.56816,-0.11767],[1.16712,0.17774]],[[148.45302,247.61325],[-1.15035,-0.28616],[4.83182,1.20192]],[[162.77156,250.19779],[-4.8717,-0.77547],[8.98144,1.42964]],[[187.72275,258.93021],[-8.56363,-2.14733],[8.2398,0.69246]],[[210.87584,266.94112],[-7.97052,-1.75508],[8.0333,1.76891]],[[236.00056,267.78861],[-8.23873,0],[5.25569,0]],[[252.75411,267.81315],[-5.15974,0.95087],[2.22997,-0.41096]],[[258.93367,264.77544],[-2.00697,0.86338],[2.24985,-0.96787]],[[266.23357,262.64332],[-2.33893,0.77992],[6.45826,-2.1535]],[[285.63836,257.35203],[-6.6961,1.2408],[5.68944,-1.05426]],[[302.84783,253.79797],[-5.72303,0.70135],[4.07749,-0.49969]],[[315.50056,253.7886],[-4.11169,0],[3.16667,0]],[[325.00056,253.7886],[-3.16667,0],[1.04585,0]],[[328.11668,254.15472],[-0.90047,0.53194],[0.18609,-0.10993]],[[327.92201,253.57788],[0.1637,0.23082],[0,0]],[327.88252,253.59762],[[326.89377,251.62011],[0,0],[-0.09145,-0.1737]],[[326.75056,251.0386],[0,0.20995],[0,-0.69036]],[[328.00056,249.7886],[-0.69036,0],[0.11286,0]],[[328.32678,249.8316],[-0.104,-0.02804],[0,0]],[330.38931,250.33992],[330.38152,250.37152],[[330.50891,250.37582],[0,0],[5.94409,2.79245]],[[349.08765,255.76121],[-6.65551,0.04962],[1.48718,-0.01109]],[[353.54915,255.80074],[-1.40685,0.4823],[1.90697,-0.65376]],[[353.09755,250.61567],[0.35089,1.02034],[-1.48242,-4.31059]],[[345.80018,242.28861],[3.55993,1.70258],[0,0]],[[344.00057,242.28861],[0,0],[-0.69036,0]],[[342.75057,241.03861],[0,0.69036],[0,-0.67739]],[[343.96181,239.7892],[-0.67242,0.02048],[0,0]],[[346.40552,239.70285],[0,0],[4.09023,-0.23544]],[[357.25096,236.47006],[-3.64526,1.71665],[0.3017,-1.30145]],[[358.00579,230.81849],[1.13785,1.2372],[-1.00918,-1.09729]],[[353.92084,228.99761],[1.34523,0.64253],[-2.252,-1.07564]],[[347.19076,226.17419],[2.38836,0.73308],[-3.09004,-0.94845]],[[337.7635,223.26592],[3.164,0.64935],[-3.75559,-0.77076]],[[325.92118,222.28608],[3.82919,0.25167],[-0.48761,-0.03205]],[[321.22437,222.06365],[0.11213,0.03955],[-0.06264,-0.02209]],[[321.03815,221.99377],[0.06153,0.02446],[0,0]],[321.03281,222.0078],[[318.72351,221.12913],[0,0],[-0.48519,-0.17176]],[[317.89076,219.95046],[0,0.54404],[0,-0.45345]],[[318.49355,218.88084],[-0.36134,0.21912],[0,0]],[320.5918,217.56153],[320.61099,217.59204],[[320.72302,217.4896],[0,0],[7.87529,-2.65471]],[[344.12573,209.26357],[-7.70584,3.11008],[0.67832,-0.27377]],[[346.23866,208.32683],[-0.72575,0.32889],[-13.80576,0.15988]],[[305.00058,206.22344],[13.47582,2.74868],[0,0]],[305.00058,206.28859],[[303.00058,206.28859],[0,0],[-0.69036,0]],[[301.75058,205.03859],[0,0.69036],[0,-0.34518]],[[302.1167,204.15471],[-0.22621,0.2262],[0.58926,-0.58926]],[[305.34893,200.92248],[-0.58925,0.58925],[0.495,-0.44422]],[[306.83392,199.58981],[-0.26526,0.60991],[0.2425,-0.55756]],[[306.19445,194.06624],[0.54349,0.34021],[-0.50686,-0.31729]],[[304.41698,194.30879],[0.59696,-0.03491],[-2.67818,0.15665]],[[297.79739,196.18817],[2.49736,-1.06405],[-10.13576,4.31854]],[[270.7313,213.07635],[8.56543,-6.85981],[-1.94833,2.00146]],[[263.53079,220.39403],[2.5009,-1.17989],[-1.09952,0.51874]],[[259.94097,221.03868],[1.11819,0.47718],[-1.48503,-0.63374]],[[256.36529,213.44658],[0.53588,1.47367],[-1.9908,-5.47476]],[[250.68284,196.76315],[1.4242,5.65639],[-0.01459,-0.05793]],[[249.75563,191.65085],[0.00098,0.04144],[-0.01386,-0.5884]],[[250.1167,189.92248],[0.25053,0.53257],[-0.15142,-0.3219]],[[249.11245,190.28358],[0.34751,-0.07603],[-1.18104,0.25839]],[[246.02639,192.18904],[0.73337,-0.96114],[-5.24614,6.37351]],[[233.30945,213.40044],[4.16748,-7.11713],[-0.93154,1.59086]],[[229.13129,220.28301],[1.53001,-0.94188],[-1.91754,1.18044]],[[222.856,219.45272],[1.58254,1.3441],[-0.1716,-0.14574]],[[220.04063,214.88064],[0.21496,0.35735],[-1.78458,-2.96665]],[[215.41463,205.84939],[1.36473,3.1817],[-0.98494,-2.29626]],[[212.42239,198.86319],[0.79853,2.36645],[-0.40083,-1.18788]],[[211.40661,195.24191],[1.20561,0.34384],[-0.52555,-0.14989]],[[209.93469,195.96402],[0.48929,-0.24345],[-2.09263,1.04122]],[[204.14238,199.36812],[1.80172,-1.49294],[-3.71798,3.08078]],[[194.2007,209.87239],[2.46117,-4.20314],[-0.77712,1.32715]],[[190.64679,217.1086],[1.13919,-0.64552],[-3.00438,1.70241]],[[183.65222,213.45802],[1.64766,1.64765],[-3.58476,-3.58476]],[[174.35252,201.74818],[2.79477,4.23914],[-1.59078,-2.41292]],[[168.68141,196.37846],[3.32083,-0.50182],[-5.12125,0.77388]],[[159.08964,208.18165],[1.74833,-4.37705],[-0.34662,0.86779]],[[156.65773,213.10192],[0.79144,-0.49469],[-1.57616,0.98518]],[[151.25377,212.38457],[1.39633,0.48795],[-2.17541,-1.40611]],[[145.02642,207.86346],[2.09367,1.51892],[-1.28575,-0.93279]],[[141.2848,204.91227],[1.41826,0.71539],[-2.62177,-1.32245]],[[135.18792,208.42938],[0.86546,-2.34409],[-0.48521,1.31419]],[[135.28551,212.63096],[-0.01057,-1.40086],[0.02905,3.84903]],[[136.75157,224.44077],[-1.64112,-3.59668],[0.36837,0.80731]],[[138.19693,226.67638],[-0.26407,-0.84718],[0.37172,1.19248]],[[137.27569,232.11195],[0.85141,-0.85635],[-1.45518,1.46363]],[[131.50057,233.28861],[1.7731,-0.0106],[-1.66667,0]],[[126.50057,233.28861],[1.66667,0.00011],[-2.11332,-0.00014]],[[117.87794,233.92896],[1.80744,-1.33425],[-1.41815,1.04688]],[[118.80767,236.45782],[-0.45413,-0.56138],[2.11578,2.61543]],[[125.53684,241.89478],[-3.26115,-1.23271],[2.73705,1.0346]],[[134.84648,244.80675],[-2.86413,-0.49332],[1.02967,0.17735]],[[138.03907,244.81558],[-1.08413,0.09687],[0,0]],[137.13118,243.93674],[[137.10244,242.16921],[-0.8694,0.89813],[0,0]]],&quot;closed&quot;:true,&quot;fillColor&quot;:[0,0,0,1]}]}" fill="#a5ff97" stroke-width="0.5"/><path d="M419.00057,235.5386c0,13.53098 -46.56239,24.5 -104,24.5c-57.43761,0 -104,-10.96902 -104,-24.5c0,-13.53098 46.56239,-24.5 104,-24.5c57.43761,0 104,10.96902 104,24.5z" fill="url(#color-1)" stroke-width="0"/><path d="M306.69461,243.23477c-1.23476,0.19461 -1.42937,-1.04015 -1.42937,-1.04015l-0.0383,-0.24302c-0.02806,-0.19062 -0.06357,-0.40665 -0.10686,-0.64097c-0.86672,0.36252 -1.62401,0.65645 -1.8897,0.73946c-1.78982,0.55919 -3.56249,0.97816 -5.3319,1.29126c0.07421,1.59217 -0.09453,3.1953 -0.50044,5.17978c-0.01179,0.05763 -0.02243,0.11582 -0.03213,0.17447c3.02264,-0.11671 5.97239,-0.4238 9.01966,-0.94698c1.40559,-0.24132 3.11689,0.25662 4.23133,-0.63329c0.35073,-0.28007 -0.00849,-0.90137 0.05805,-1.34524c0.21441,-1.43035 0.25235,-2.9315 -0.08397,-4.33819c-0.37482,-1.56775 -1.20224,-3.09771 -2.38021,-4.28991c0.29401,1.15637 0.51124,2.20586 0.41581,2.39957c-0.07021,0.14253 -0.54315,0.41495 -1.18461,0.73005c0.10552,0.46391 0.18967,0.90094 0.25447,1.29078l0.0383,0.24302c0,0 0.19461,1.23476 -1.04015,1.42937zM285.16351,233.35898c0.15922,-0.3976 0.28866,-0.80216 0.39195,-1.21192c-1.23293,-0.0151 -2.48568,0.55737 -3.72915,0.71832c-3.53731,0.45785 -7.07462,0.9157 -10.61193,1.37355c0.02971,0.39172 0.04398,0.77933 0.00509,1.15079c-0.02571,0.24558 -0.04453,0.49144 -0.05672,0.73742c1.29717,0.05651 2.59456,0.12126 3.89227,0.19541c0.38906,0.02223 0.77473,0.04114 1.15747,0.05889c0.15563,-0.12438 0.30473,-0.25131 0.4386,-0.38482c2.48087,-2.47432 4.20132,-2.22865 7.52776,-2.54847c0.33011,-0.03174 0.65824,-0.06146 0.98466,-0.08917zM278.79267,243.20548c-1.0252,0.16762 -4.69873,0.55231 -5.11038,0.59698c-0.31162,0.03381 -0.62353,0.06473 -0.93569,0.09302c0.21097,0.48261 0.43898,0.95831 0.68168,1.42564c1.80747,0.91251 3.63333,2.15003 4.72093,3.73248c0.69767,1.0151 1.94179,2.20986 1.52121,3.36757c-0.14075,0.38743 -0.41891,0.69335 -0.79327,0.93436c0.20352,0.18426 0.43075,0.33744 0.69178,0.44657c1.26199,0.52762 5.48388,-0.5543 6.90138,-0.66216c1.08333,-0.07037 1.94723,-0.27476 2.74895,-0.56897c-0.49051,-1.13283 -1.28056,-2.30487 -0.73332,-3.30185c0.35179,-0.64089 5.13576,-0.51911 6.01405,-0.51911c0.14154,0 0.28281,-0.00038 0.42384,-0.00115c-0.01051,-0.22895 -0.01832,-0.45754 0.01396,-0.67175c0.22322,-1.48111 0.87168,-2.92243 0.87423,-4.41346c-4.09266,0.54403 -8.1971,0.59366 -12.4854,0.57428c-1.18163,-0.33184 -2.91221,-0.57454 -4.53395,-1.03245zM271.22649,228.39961c-4.86791,1.04737 -9.72736,2.13479 -14.53866,3.37936c-3.17777,0.82201 -6.31407,1.76594 -9.45213,2.69062c0.3102,0.15983 0.62729,0.31538 0.95336,0.46584c0.6158,0.28414 1.22551,0.55479 1.83194,0.81126c1.93077,0.00257 3.86091,0.00924 5.79071,0.02387c0.49926,-0.15957 0.89505,-0.28287 1.07692,-0.34149c2.87496,-0.92661 5.72383,-1.99863 8.6469,-2.73814c0.62949,-0.40148 1.2502,-0.8108 1.86146,-1.22743c0.64917,-0.44246 1.28638,-0.91458 1.91452,-1.40722c0.04309,-0.24058 0.08309,-0.40429 0.11757,-0.45632c0.40089,-0.60497 1.10455,-0.89935 1.7974,-1.20036zM268.78686,234.56154c-0.78672,0.12412 -1.54144,0.28687 -2.28491,0.47652c-0.4728,0.29761 -0.95023,0.59089 -1.43203,0.87964c1.20059,0.03112 2.40125,0.06771 3.60204,0.11072c0.01194,-0.29555 0.03178,-0.5911 0.05982,-0.88644c0.00967,-0.10188 0.02884,-0.30689 0.05508,-0.58044zM276.68985,254.05674c-2.02013,0.29753 -4.47443,0.09124 -5.52735,0.12029c-1.97118,0.05429 -4.12477,0.22243 -6.30393,0.33869c1.54378,0.61083 3.10126,1.18178 4.70418,1.6109c3.96035,1.06023 8.16987,1.46342 12.20118,2.19634c4.88695,0.89922 10.24492,-0.62094 15.02346,0.46054c3.12382,0.70698 5.38332,3.59131 8.69336,3.89263c1.06393,0.09685 3.10528,0.414 3.13758,-0.65384c0.03815,-1.26094 -2.05529,-1.46345 -3.09045,-2.18446c-4.47103,-3.11414 -8.34341,-4.66802 -13.24085,-5.87438c-1.77485,0.89155 -3.36794,1.47676 -5.62704,1.66928c-1.89306,0.14404 -6.34254,1.19201 -8.05538,0.4759c-0.1821,-0.07613 -1.05629,-1.05621 -1.91475,-2.05188zM295.94336,252.16608c3.98342,1.05543 7.42392,3.09492 11.01835,5.6238c2.8422,1.99964 6.62905,4.51211 1.3728,7.08106c-4.57789,2.23741 -8.19965,-2.78406 -12.12192,-3.65441c-4.70579,-1.04421 -10.05776,0.43611 -14.89589,-0.43389c-4.09953,-0.74542 -8.37288,-1.16283 -12.40048,-2.24105c-3.75254,-1.00459 -7.2582,-2.76807 -10.91537,-4.03085c-0.72013,-0.06375 -1.42292,-0.15552 -2.10162,-0.28242c-1.34518,-0.25151 -2.73529,-0.74686 -4.11983,-1.3224c-2.02056,-0.43083 -4.03918,-0.86535 -5.97088,-1.54595c-4.38421,-1.54472 -8.61123,-3.55458 -12.98604,-5.19037c-0.70119,0.03106 -1.40134,0.04841 -2.09994,0.05164c-2.98945,0.01383 -5.07619,0.28016 -7.80015,-1.16573c-0.87981,-0.46701 -2.18837,-0.61594 -2.56102,-1.53968c-0.09057,-0.2245 0.08685,-1.13199 0.34002,-2.16432c-2.63501,-1.00964 -4.83717,-1.87139 -6.31944,-4.79248c-0.74001,-1.45832 -2.01776,-3.34542 -0.98406,-5.14884c1.22745,-2.14146 5.43937,-2.93714 7.58499,-3.55532c3.3638,-0.96916 6.66631,-0.56774 10.0752,-1.07648c3.29723,-0.49207 6.455,-1.66105 9.7766,-2.12119c0.40728,-0.05616 0.81416,-0.11434 1.22067,-0.17435c4.11785,-1.63704 8.56991,-2.77439 12.73766,-4.18316c3.87336,-1.30927 7.53323,-2.41015 11.34759,-3.24088c-2.14909,-0.48458 -4.27192,-1.06891 -6.16528,-1.92424c-2.13112,-0.96274 -4.22278,-2.79721 -6.16871,-4.0945c0,0 -1.04006,-0.69338 -0.34669,-1.73344c0.69338,-1.04006 1.73344,-0.34669 1.73344,-0.34669c1.83539,1.2236 3.81941,3.0005 5.83129,3.9055c3.09872,1.39391 6.87043,2.01568 10.286,2.71421c2.06056,-0.88762 4.12252,-1.77207 6.18625,-2.65257c1.40725,-0.60041 7.08573,-2.93092 8.48162,-1.68804c0.96257,0.85706 0.83362,2.54288 0.62784,3.81518c-0.15577,0.96312 -1.08205,1.62389 -1.63731,2.42611c-0.15274,0.22068 -0.3045,0.44101 -0.45573,0.66078c0.15051,0.10374 0.30104,0.20782 0.44891,0.31046c4.06212,0.84016 8.1198,1.70095 12.15213,2.68167l2.40409,0.5848c0.4762,0.105 0.85048,0.48155 0.95219,0.95897c3.88942,-0.15057 7.88188,-0.32956 11.32307,1.23568c2.17139,0.98767 7.05416,2.0026 4.74136,5.78809c-0.5575,0.9125 -1.91279,0.9587 -2.89204,1.38829c-2.16047,0.94777 -4.60642,1.23205 -7.07055,1.4467c0.15007,0.25348 0.29104,0.51225 0.42231,0.77624c2.93402,1.55738 5.24702,4.35467 6.02577,7.5307c0.4536,1.84995 1.11088,6.46727 -0.63749,8.04197c-0.79241,0.7137 -2.05199,0.58422 -3.08939,0.83133c-3.96801,0.9452 -8.22223,1.53144 -12.29369,1.53398c-0.03748,0.00002 -0.07496,0.00015 -0.11245,0.00039c-0.04627,0.08707 -0.09876,0.17126 -0.15852,0.25208c-0.20802,0.28137 -0.48085,0.4905 -0.78566,0.6636zM297.56664,240.72231c0.84588,-0.15235 1.70239,-0.32656 2.57502,-0.52571c1.48067,-0.3379 2.90135,-0.89763 4.34899,-1.35835c-0.39116,-1.15934 -0.93375,-2.25536 -1.65119,-2.77703c-1.07134,-0.77899 -2.64913,-0.08269 -3.96917,-0.19269c-0.88694,-0.07391 -1.75735,-0.14228 -2.61834,-0.20007c0.41913,0.75599 0.4434,1.71561 0.68893,2.55755c0.26149,0.89666 0.46988,1.71658 0.62576,2.4963zM292.38113,233.06837c1.95805,0.01122 3.92455,0.09577 5.96094,0.25022l-0.37686,-0.18843c-0.42281,-0.20043 -0.7152,-0.63114 -0.7152,-1.13014c0,-0.67742 0.53887,-1.22898 1.21133,-1.24941l2.37061,-0.08356c0.10477,-0.02035 0.44533,-0.08654 0.90147,-0.17506c-3.45592,-2.81051 -9.00382,-3.18971 -13.41386,-3.23597c0.09313,1.12569 0.10407,2.2648 -0.00158,3.3856c1.26126,0.73952 2.85947,1.70715 3.1126,1.85902c0.11871,0.07123 0.47926,0.28555 0.95055,0.56774zM285.88286,229.84016c0.03895,-0.85419 -0.00141,-1.71639 -0.09114,-2.57212c-3.41098,0.10754 -7.44234,0.69491 -10.50684,1.80262c-0.47128,0.17035 -0.98587,0.31255 -1.48837,0.47789c-0.84213,0.74072 -1.69264,1.47054 -2.55892,2.16651c3.4226,-0.443 6.84521,-0.886 10.26781,-1.32901c0.30403,-0.03935 2.95931,-0.3948 4.37746,-0.5459zM251.88022,242.27551c-0.0548,-0.00133 -0.10959,-0.0027 -0.16439,-0.00409c-3.79034,1.3699 -7.68969,2.42779 -11.61063,3.10254c2.36134,0.97276 4.74331,1.91056 7.1522,2.84469c1.65304,0.64102 3.44623,1.5467 5.24524,2.30307c1.93807,0.41244 3.87922,0.81851 5.74643,1.43422c0.09667,0.03188 0.19322,0.06415 0.28966,0.09681c4.05451,0.32331 8.6911,-0.26798 12.55483,-0.37475c0.80387,-0.02218 2.28789,-0.06558 3.50374,-0.094c-1.0873,-1.32566 -2.09331,-2.78502 -2.95662,-4.33646c-0.31235,-0.15569 -0.64338,-0.30383 -0.99896,-0.44454c-1.94093,-0.76805 -3.92774,-1.72232 -5.9341,-2.59734c-1.21225,0.00846 -2.4241,0.01063 -3.63368,0.02135c-1.63292,0.01448 -6.96003,0.72392 -8.23083,-0.20522c-0.34266,-0.25053 -0.68379,-0.91989 -0.96289,-1.74627zM282.43032,216.72328c0.16525,-0.23157 0.33258,-0.46304 0.50293,-0.69395c0.41068,-0.55671 0.93747,-1.03603 1.26471,-1.64554c0.1886,-0.35127 0.61717,-1.02197 0.24709,-1.1703c-0.50329,-0.20172 -0.95761,0.52876 -1.47933,0.67641c-1.25851,0.35617 -2.41302,0.6992 -3.56197,1.08836c0.14466,0.01746 0.2827,0.04117 0.41317,0.07185c0.95662,0.22493 1.66308,1.0476 2.48431,1.58731c0.02807,0.01845 0.07183,0.04755 0.12909,0.08586zM233.82032,228.78894c-0.79208,0.18109 -1.58828,0.34193 -2.39322,0.46206c-3.28643,0.49046 -6.5178,0.06055 -9.74755,1.00484c-1.40462,0.41067 -5.13917,1.01952 -6.07746,2.33399c-0.48221,0.67555 1.34374,4.09313 1.78209,4.52659c0.95668,0.94602 2.48622,1.46544 3.93845,1.92014c0.15614,-0.54625 0.28673,-0.98345 0.34907,-1.18758c0.26872,-0.87992 0.26604,-1.91466 0.8493,-2.62619c1.77311,-2.16303 6.6502,-3.80341 9.11352,-5.17192c0.72789,-0.40438 1.45579,-0.82999 2.1858,-1.26194zM243.23471,226.82728c-0.17003,0.02707 -0.34008,0.05373 -0.51014,0.07998c-0.41586,0.16858 -0.82798,0.34264 -1.23569,0.52302c-2.96596,1.31219 -5.80339,3.22997 -8.64026,4.806c-2.18325,1.21291 -4.34795,2.47564 -6.55618,3.64232c-0.59649,0.31515 -1.38126,0.38061 -1.81345,0.89862c-0.38529,0.4618 -0.2511,1.17678 -0.40349,1.75857c-0.11616,0.44346 -0.22612,0.88947 -0.34898,1.3314c0.63048,0.26761 1.25603,0.53485 1.88,0.80005c-0.06142,-0.1477 -0.09533,-0.30971 -0.09533,-0.47964c0,-0.40736 0.19486,-0.76921 0.49645,-0.99742l-0.30959,0.04423c-0.06451,0.01027 -0.13066,0.0156 -0.19806,0.0156c-0.69036,0 -1.25,-0.55964 -1.25,-1.25c0,-0.62742 0.46225,-1.14687 1.06477,-1.23637c0.64014,-0.10669 3.39607,-0.56601 4.03622,-0.6727c0.95563,-0.30873 2.0391,-0.46298 3.1647,-0.52763c2.76015,-0.46667 5.47202,-1.10416 8.16248,-1.82266c-1.33659,-0.88849 -2.44973,-1.86662 -2.42556,-2.65997c0.03794,-1.24539 1.36606,-2.14242 2.35003,-2.90678c0.69012,-0.5361 1.61089,-0.97207 2.63207,-1.34661zM242.41038,238.75206l0.05394,-0.00154l0.00006,0.00209c0.59779,0.00598 1.1949,0.00922 1.79098,0.00738c2.23328,-0.00687 4.46659,-0.01098 6.6999,-0.01327c-0.43263,-0.16013 -0.86471,-0.32712 -1.29675,-0.50074c-3.21719,-0.00336 -6.43621,0.00403 -9.65851,0.00403c-3.51425,0 -7.06904,0.38207 -10.5717,0.36253c-0.42827,0.07138 -0.85655,0.14276 -1.28482,0.21414l0.00817,0.05722l-0.12617,0.01802l1.19997,-0.0334l0.00664,0.23844c4.33458,-0.5909 8.77458,-0.40018 13.17829,-0.35489zM271.25838,238.63368c0.00474,0.0388 0.00963,0.07758 0.01466,0.11635c0.16205,0.00001 0.32409,0.00001 0.48614,0.00001h0.00001v-0.00003h1.90496c-0.80203,-0.04216 -1.60395,-0.08085 -2.40578,-0.11634zM231.50696,241.58343c1.36438,0.65 2.73323,1.27466 4.10783,1.88034c2.99676,-0.29659 6.00038,-0.84216 8.96852,-1.60165c-0.73408,-0.07018 -1.46737,-0.15039 -2.19974,-0.24194l-2.31898,-0.28987c-2.60419,0.15698 -5.83932,0.53469 -8.55763,0.25311zM282.95777,241.58647c0.26328,0.0563 0.5047,0.11417 0.71561,0.17562c4.09848,-0.02128 7.78741,-0.14778 11.59421,-0.6742c-0.25782,-0.73091 -0.54976,-1.45688 -0.73792,-2.20154c-0.1663,-0.65817 -0.04051,-1.44516 -0.45072,-1.98605c-0.51647,-0.68102 -1.29221,-1.06445 -2.10324,-1.40966c-1.66258,-0.01636 -3.33453,0.04 -5.06907,0.20677c-0.03565,0.00343 -0.07163,0.00674 -0.10793,0.00995c-0.09583,0.13678 -1.00659,1.03111 -1.91635,1.91346c0.12464,0.04506 0.24936,0.09196 0.37417,0.14078l2.29568,0.91381c0.47578,0.17673 0.81477,0.63485 0.81477,1.17215c0,0.63337 -0.47107,1.15672 -1.08196,1.2388l-2.45291,0.37113l-0.04222,-0.27904c-0.60886,0.15629 -1.21958,0.29139 -1.83213,0.40803zM288.734,221.79624c0.00886,0.0544 0.0141,0.11025 0.01547,0.16759c0.00029,0.01215 0.0004,0.02423 0.00033,0.03623c0.07735,-0.05812 0.16165,-0.10748 0.25145,-0.14659c-0.08908,-0.01911 -0.17816,-0.03818 -0.26725,-0.05723zM278.17281,219.60262c-1.82038,-0.37868 -3.6395,-0.76345 -5.45545,-1.16333c-0.1607,0.02982 -0.31157,0.05482 -0.4507,0.07368c-0.74936,0.10157 -1.48635,0.21362 -2.21357,0.33574c-1.14259,0.49378 -2.2848,0.9884 -3.42671,1.48369c2.96269,-0.34834 5.94491,-0.56793 8.96069,-0.5777c0.72819,-0.00236 1.62062,-0.0711 2.58573,-0.15209zM291.62558,251.44738c0.12525,-0.06447 0.25268,-0.12995 0.3828,-0.19629c-0.00279,-0.00036 -0.00559,-0.00072 -0.00838,-0.00109c-0.52028,-0.06776 -0.96973,-0.61291 -1.48595,-0.51911c-0.29413,0.05344 0.38697,0.45576 0.58045,0.68365c0.17828,0.00912 0.35529,0.02007 0.53108,0.03284zM296.58399,225.25174c2.96168,0.91348 5.83401,2.50851 7.97967,4.69322c0.64393,-0.12357 1.12214,-0.21415 1.16266,-0.21847c2.71603,-0.28965 4.39646,-0.06295 6.98824,-0.95859c0.64558,-0.22309 2.28215,-0.68869 1.73251,-1.09419c-1.07028,-0.78961 -2.49684,-0.92632 -3.701,-1.4911c-0.6736,-0.31593 -1.28754,-0.80209 -2.01423,-0.9617c-3.66202,-0.80431 -8.36267,0.09018 -12.14786,0.03083zM258.37403,223.92362c-2.47262,1.07882 -4.94461,2.15922 -7.41667,3.23971c-2.30523,0.80806 -4.60614,1.63074 -6.91698,2.4226c-0.70072,0.24012 -1.42092,0.42665 -2.10749,0.70466c-0.41461,0.16788 -1.20223,0.18176 -1.1855,0.62876c0.01608,0.42968 0.8555,0.18524 1.22424,0.40639c0.78728,0.47219 1.53699,0.94911 2.28593,1.41603c3.92687,-1.13377 7.83333,-2.35598 11.80418,-3.38315c6.31612,-1.63383 12.72009,-3.0453 19.12405,-4.38647c0.56344,-0.49784 1.12708,-0.98779 1.69331,-1.46227c0.48113,-0.39966 0.927,-0.82108 1.34695,-1.25965c-2.52711,0.00134 -5.05196,0.01603 -7.57887,0.12379c-4.1173,0.17558 -8.20199,0.79188 -12.27316,1.54959zM284.99653,222.25732c-0.00071,-0.01007 -0.00144,-0.02013 -0.00219,-0.03018c-0.77219,0.02418 -2.38658,0.02569 -3.45785,0.02459c-0.47602,0.5908 -0.97283,1.16453 -1.5018,1.71563c0.9072,-0.1865 1.81396,-0.37236 2.72002,-0.55802c0.70392,-0.4295 1.45401,-0.88844 2.24181,-1.15203zM225.21687,243.21674c-0.85531,-0.36175 -1.71106,-0.7279 -2.57469,-1.09392c-0.03697,0.11744 -0.04386,0.23728 -0.00356,0.36139c0.14288,0.44006 0.9209,0.14503 1.35267,0.31132c0.43873,0.16897 0.84289,0.30758 1.22559,0.42122zM276.95824,239.57795c0.93714,-0.10248 1.93103,-0.23646 2.9227,-0.34014c0.04141,-0.05023 0.08267,-0.10069 0.12382,-0.15129c-1.01193,-0.10124 -2.03523,-0.14183 -3.0719,-0.18039c-0.00338,0.00753 -0.00675,0.01508 -0.0101,0.02264c-0.08587,0.19405 -0.05774,0.43131 0.03547,0.64917zM287.90099,233.00218c-0.01541,0.05738 -0.03122,0.11465 -0.04744,0.1718c0.09037,-0.00472 0.18067,-0.00928 0.27088,-0.01369c-0.07404,-0.05379 -0.14848,-0.1066 -0.22345,-0.15811zM287.70228,223.37522c0.10094,0.44291 0.19449,0.89488 0.27807,1.35353c0.7602,-0.02944 1.56724,-0.08359 2.38057,-0.12415l-1.22886,-0.40962c-0.51078,-0.15709 -0.88206,-0.63267 -0.88206,-1.19497c0,-0.00728 0.00006,-0.01454 0.00019,-0.02179c-0.15891,0.14308 -0.3463,0.27357 -0.54791,0.39701zM285.40815,224.75474c-0.01717,0.01053 -0.03437,0.02102 -0.0516,0.03146c0.01907,-0.00079 0.03812,-0.00157 0.05716,-0.00233c-0.00185,-0.00971 -0.0037,-0.01942 -0.00555,-0.02913zM260.74048,238.32756c-0.16544,0.0853 -0.33128,0.17005 -0.4975,0.25424c0.57045,0.06849 1.1502,0.1234 1.74111,0.16427c2.26452,0.00119 4.52903,0.00266 6.79354,0.00344c-0.00834,-0.07218 -0.01625,-0.1444 -0.02373,-0.21664c-2.67156,-0.09716 -5.34243,-0.16212 -8.01341,-0.2053zM242.7958,235.74863c0.47299,-0.00039 0.94593,-0.00083 1.4188,-0.00126c-0.15329,-0.07732 -0.32168,-0.16304 -0.50166,-0.25609c-0.30553,0.0865 -0.61123,0.17233 -0.91714,0.25734zM283.39619,235.88561c-1.29646,0.08768 -2.62996,0.25749 -3.77447,0.68508c0.84473,0.06982 1.68136,0.16779 2.51536,0.31978c0.42213,-0.33337 0.85658,-0.6566 1.25911,-1.00486z" fill="#159e00" stroke-width="0.5"/></g></g></svg>