<svg version="1.1" xmlns="http://www.w3.org/2000/svg" xmlns:xlink="http://www.w3.org/1999/xlink" width="42.54958" height="43.32448" viewBox="0,0,42.54958,43.32448"><g transform="translate(-219.27602,-158.47545)"><g data-paper-data="{&quot;isPaintingLayer&quot;:true}" fill-rule="nonzero" stroke-linecap="butt" stroke-linejoin="miter" stroke-miterlimit="10" stroke-dasharray="" stroke-dashoffset="0" style="mix-blend-mode: normal"><path d="M260.81791,200.48192l-40.21785,0.31033l-0.31636,-40.99878l40.21785,-0.31033z" data-paper-data="{&quot;index&quot;:null}" fill="#ffffff" stroke="#000000" stroke-width="2"/><path d="M245.05819,177.88359c-1.10403,-2.20246 -2.58621,-3.55302 -4.54161,-4.61349c-0.02953,1.3126 -0.20868,2.67785 -0.34109,3.02691c-0.21551,0.56813 -0.87295,0.8891 -1.10252,1.4517c-0.07913,0.19392 0.38864,-0.24694 0.59387,-0.20517c0.46116,0.09385 0.85592,0.39155 1.28388,0.58732c1.01273,0.09043 2.74347,-0.11233 4.16657,-0.04813zM239.51442,170.04063c3.62635,1.52077 6.10156,3.38227 7.8677,6.92134l0.51442,1.69862c0,0 0.20929,0.69763 -0.22417,1.1876c0.29327,0.70673 0.57137,1.47789 0.67982,1.77621c0.79266,2.18043 4.08597,6.7005 0.99177,8.40998c-0.36141,0.19967 -4.72401,0.10224 -5.13483,0.09008c-5.6203,-0.16628 -11.22861,-0.93759 -16.81193,-1.55792c0,0 -0.84066,-0.09341 -1.0621,-0.81808c-0.53349,-0.125 -0.98109,-0.32229 -1.23556,-0.63034c-1.41944,-1.71831 1.05054,-6.32987 1.81904,-7.74165c1.08946,-2.00141 2.0564,-4.06478 3.18413,-6.05027c0.44985,-0.79201 0.61614,-1.84699 1.36304,-2.36831c0.78896,-0.55068 2.93085,-0.31437 3.98536,-0.3727c0.71687,-0.03966 1.74175,-0.23486 2.68451,-0.28775c0.54535,-0.60408 1.37879,-0.25681 1.37879,-0.25681zM234.35945,186.01134c0.05224,0.33083 0.00183,0.58701 -0.09996,0.7848c4.63909,0.47751 9.28261,0.87337 13.94727,1.01187c0.28597,0.00849 -0.27533,-0.50169 -0.40568,-0.75637c-0.75093,-1.46721 -1.23579,-3.02618 -1.79656,-4.56786c-0.2301,-0.63259 0.13271,-1.71792 -0.49636,-1.95747c-1.06609,-0.40596 -3.88341,0.1628 -5.19759,0.02122c-0.49237,-0.21366 -3.45503,-1.42012 -3.55205,-1.85365c-0.35269,-1.57604 1.0882,-3.08542 1.18694,-4.69741c0.02456,-0.4009 -0.1005,-0.81555 -0.00211,-1.20497c0.04398,-0.17408 0.57587,-0.38863 0.39819,-0.36277c-0.933,0.13577 -1.8108,0.60015 -2.75216,0.65266c-0.90611,0.05055 -2.00456,-0.60901 -2.72204,-0.0533c-0.84363,0.65341 -0.85454,1.95769 -1.35186,2.90179c-1.12262,2.13116 -2.314,4.29072 -3.31903,6.4766c-0.03423,0.07446 -1.1517,3.14867 -1.10011,3.2074c0.63832,0.72665 1.92913,-0.17405 2.89633,-0.17464c0.79074,-0.12615 1.58149,-0.25229 2.37223,-0.37844l0.5649,-0.08919c0,0 1.2347,-0.19495 1.42966,1.03975z" fill="#000000" stroke="none" stroke-width="0.5"/><path d="M245.15666,178.11356c-1.4231,-0.06421 -3.21452,0.15295 -4.22725,0.06252c-0.42796,-0.19577 -0.8413,-0.50856 -1.30246,-0.60241c-0.20523,-0.04177 -0.67455,0.39692 -0.59542,0.203c0.22957,-0.5626 0.88064,-0.89694 1.09615,-1.46507c0.13241,-0.34906 0.33228,-1.77093 0.36182,-3.08353c1.9554,1.06046 3.50501,2.48258 4.60905,4.68504z" data-paper-data="{&quot;noHover&quot;:false,&quot;origItem&quot;:[&quot;Path&quot;,{&quot;applyMatrix&quot;:true,&quot;segments&quot;:[[[245.05819,177.88359],[0,0],[-1.10403,-2.20246]],[[240.51658,173.2701],[1.9554,1.06046],[-0.02953,1.3126]],[[240.1755,176.29701],[0.13241,-0.34906],[-0.21551,0.56813]],[[239.07297,177.74871],[0.22957,-0.5626],[-0.07913,0.19392]],[[239.66685,177.54354],[-0.20523,-0.04177],[0.46116,0.09385]],[[240.95073,178.13086],[-0.42796,-0.19577],[1.01273,0.09043]],[[245.11729,178.08273],[-1.4231,-0.06421],[0,0]]],&quot;closed&quot;:true}]}" fill="#b1b1b1" stroke="none" stroke-width="0.5"/><path d="M232.89478,185.00729l-0.56653,0.08751c-0.79074,0.12615 -1.58597,0.24671 -2.37671,0.37286c-0.9672,0.00058 -2.26127,0.89588 -2.89959,0.16923c-0.05159,-0.05873 1.06165,-3.14425 1.09588,-3.21871c1.00503,-2.18588 2.20363,-4.38522 3.32625,-6.51639c0.49732,-0.9441 0.52149,-2.26166 1.36512,-2.91507c0.71748,-0.55571 1.82975,0.09728 2.73586,0.04673c0.94137,-0.05251 1.83769,-0.5188 2.77069,-0.65457c0.17768,-0.02586 -0.36014,0.28848 -0.40413,0.46256c-0.09838,0.38942 0.02631,0.80405 0.00176,1.20495c-0.09874,1.612 -1.51016,3.11325 -1.15747,4.68929c0.09702,0.43353 3.08162,1.60626 3.574,1.81993c1.31418,0.14158 4.13209,-0.43267 5.19818,-0.02671c0.62908,0.23955 0.26442,1.33595 0.49452,1.96855c0.56077,1.54168 1.03877,3.11524 1.7897,4.58246c0.13035,0.25468 0.69078,0.7661 0.4048,0.75761c-4.66466,-0.13849 -9.37139,-0.5194 -14.01048,-0.99691c0.10179,-0.19779 0.15044,-0.45491 0.0982,-0.78574c-0.19495,-1.2347 -1.44007,-1.04758 -1.44007,-1.04758z" data-paper-data="{&quot;noHover&quot;:false,&quot;origItem&quot;:[&quot;Path&quot;,{&quot;applyMatrix&quot;:true,&quot;segments&quot;:[[[234.35945,186.01134],[-0.19495,-1.2347],[0.05224,0.33083]],[[234.25949,186.79614],[0.10179,-0.19779],[4.63909,0.47751]],[[248.20676,187.808],[-4.66466,-0.13849],[0.28597,0.00849]],[[247.80109,187.05163],[0.13035,0.25468],[-0.75093,-1.46721]],[[246.00453,182.48376],[0.56077,1.54168],[-0.2301,-0.63259]],[[245.50816,180.52629],[0.62908,0.23955],[-1.06609,-0.40596]],[[240.31057,180.54751],[1.31418,0.14158],[-0.49237,-0.21366]],[[236.75852,178.69386],[0.09702,0.43353],[-0.35269,-1.57604]],[[237.94546,173.99645],[-0.09874,1.612],[0.02456,-0.4009]],[[237.94335,172.79148],[-0.09838,0.38942],[0.04398,-0.17408]],[[238.34153,172.42871],[0.17768,-0.02586],[-0.933,0.13577]],[[235.58937,173.08136],[0.94137,-0.05251],[-0.90611,0.05055]],[[232.86733,173.02806],[0.71748,-0.55571],[-0.84363,0.65341]],[[231.51547,175.92985],[0.49732,-0.9441],[-1.12262,2.13116]],[[228.19644,182.40646],[1.00503,-2.18588],[-0.03423,0.07446]],[[227.09633,185.61386],[-0.05159,-0.05873],[0.63832,0.72665]],[[229.99266,185.43922],[-0.9672,0.00058],[0.79074,-0.12615]],[[232.36489,185.06078],[-0.79074,0.12615],[0,0]],[232.92979,184.97159]],&quot;closed&quot;:true}]}" fill="#b1b1b1" stroke="none" stroke-width="0.5"/><path d="M237.79583,180.21707c-1.19728,0.35918 -1.55647,-0.8381 -1.55647,-0.8381l-0.05541,-0.19888c-2.19755,0.99099 -4.52178,1.85851 -6.54892,3.1355c0,0 -1.06,0.6625 -1.7225,-0.3975c-0.6625,-1.06 0.3975,-1.7225 0.3975,-1.7225c2.04774,-1.27113 4.33945,-2.16916 6.5507,-3.16036c-0.84441,-0.71983 -1.7042,-1.13168 -2.99737,-1.43407c0,0 -1.21268,-0.30317 -0.90951,-1.51585c0.30317,-1.21268 1.51585,-0.90951 1.51585,-0.90951c2.22021,0.58292 3.57831,1.44281 5.02099,3.0064c0.35014,0.04068 0.75715,0.22946 0.96634,0.82841c0.14512,0.41549 0.09285,0.73579 -0.03579,0.97642l0.21268,0.67356c0,0 0.35918,1.19728 -0.8381,1.55647z" fill="#090909" stroke="none" stroke-width="0.5"/><path d="M255.77293,188.02699c-0.08141,0.99195 -1.50446,1.30344 -2.25669,1.95515l-0.96536,-0.07941c-0.07189,0.02042 -0.14482,0.03853 -0.21864,0.05432c-0.64983,0.29957 -1.34027,0.51954 -2.03413,0.66897c0,0 -1.22573,0.24515 -1.47087,-0.98058c-0.09624,-0.48118 0.0342,-0.81124 0.22817,-1.03468c-0.71724,-1.09526 -1.10384,-2.61488 -1.29064,-3.71101c-0.2697,-0.22068 -0.50434,-0.59294 -0.36935,-1.20043c0.21431,-0.96438 1.02141,-0.99722 1.35045,-0.96859c0.05964,-0.00671 0.12264,-0.01025 0.18918,-0.01025c0.4018,0 0.67444,0.12915 0.85945,0.30443c1.70258,0.59904 4.3216,1.91266 4.77942,3.44379c0.67529,0.6033 1.22786,1.20654 1.19899,1.55829z" fill="#090909" stroke="none" stroke-width="0.5"/><path d="M261.66069,170.95689c0.23759,1.22721 -0.98963,1.4648 -0.98963,1.4648l-0.95555,0.18215c-1.33458,0.16636 -2.66894,0.35041 -3.98759,0.61487c0,0 -0.8616,0.17232 -1.28453,-0.49436c-0.3379,0.09962 -0.67332,0.20262 -0.98308,0.34059l-0.21334,-0.08647l0,0.10481h-1.2776c-0.69036,0 -1.25,-0.55964 -1.25,-1.25c0,-0.61444 0.44333,-1.12533 1.02756,-1.23027l2.29494,-0.45899c0.68386,-0.8082 -0.49922,-2.41535 -0.77541,-3.75727c-0.74241,0.54028 -1.5576,0.99014 -2.43121,1.22939c0,0 -1.21268,0.30317 -1.51585,-0.90951c-0.30317,-1.21268 0.90951,-1.51585 0.90951,-1.51585c0.84101,-0.17889 1.57681,-0.75034 2.2069,-1.33538l0.02344,-0.01173l-0.00381,-0.00466l1.74974,-1.4316c0.21656,-0.18001 0.4949,-0.28825 0.79851,-0.28825c0.69036,0 1.25,0.55964 1.25,1.25c0,0.05286 -0.00328,0.10495 -0.00965,0.15609l-0.15769,1.41925l-0.05646,-0.00627c0.2112,1.53879 0.371,3.08624 0.5275,4.62139c0.01268,0.12439 0.03516,0.25453 0.06103,0.38743l0.46138,-0.00258c0,0 0.5491,0 0.91943,0.36393c0.4683,-0.06551 0.93723,-0.12649 1.40622,-0.18527l0.79046,-0.15588c0,0 1.22721,-0.23759 1.4648,0.98963z" fill="#090909" stroke="none" stroke-width="0.5"/></g></g></svg>