<svg version="1.1" xmlns="http://www.w3.org/2000/svg" xmlns:xlink="http://www.w3.org/1999/xlink" width="94.14741" height="172.43572" viewBox="0,0,94.14741,172.43572"><g transform="translate(-272.1763,-94.59973)"><g data-paper-data="{&quot;isPaintingLayer&quot;:true}" fill-rule="nonzero" stroke-linejoin="miter" stroke-miterlimit="10" stroke-dasharray="" stroke-dashoffset="0" style="mix-blend-mode: normal"><path d="M331.90129,208.60025c0.60342,0 1.15691,0.21379 1.58886,0.56975c0.9415,0.22732 1.67513,0.98753 1.86378,1.94351c1.36655,1.26331 2.39754,2.62758 3.46369,4.11754l1.35144,1.35144l-0.12083,0.12083l0.38117,0.18516c0.22583,0.44164 0.48185,0.88464 0.75834,1.32935c0.26274,0.26484 0.51124,0.53532 0.69558,0.83268c0.2058,0.088 0.3974,0.20281 0.57041,0.34005l2.23241,1.73632l-0.00008,0.0001c2.86331,2.23668 4.77069,5.27145 5.50396,8.58061c0.72583,0.4375 1.21126,1.2334 1.21126,2.14267v2.5h-0.1522l0.13008,0.33183c-0.90329,3.40534 -1.52066,6.70181 -3.26067,9.82315c-0.75037,1.34606 -1.1536,3.15654 -2.5145,3.87963c-0.02622,0.01394 -0.05262,0.02779 -0.07921,0.04155c0.22651,0.34911 0.37651,0.81148 0.37651,1.42384c0,2.5 -2.5,2.5 -2.5,2.5c-1.03969,-0.0061 -2.07939,-0.01219 -3.11908,-0.01829l-2.72019,0.68005c-0.15623,0.0427 -0.31856,0.07063 -0.4854,0.08219l-0.07369,0.11054c-0.44513,0.68925 -1.2201,1.14551 -2.10163,1.14551c-1.38071,0 -2.5,-1.11929 -2.5,-2.5c0,-0.45693 0.12258,-0.88523 0.33666,-1.25381l1.22794,-2.2103l0.03133,0.0174l0.00584,-0.08201c1.5608,-2.4441 2.6655,-6.21375 4.29995,-9.01644c0.24551,-0.87405 0.47161,-1.74987 0.68767,-2.61738l0.04108,-0.04833l-0.02503,-0.00751l0.73386,-2.4462c0.22415,-0.81492 0.85045,-1.46327 1.65212,-1.71826c0.03093,-0.53512 0.14236,-1.07429 0.24024,-1.61183c-0.02603,-0.58895 -0.06739,-1.08868 -0.13315,-1.31046c-0.47634,-1.60653 -2.4857,-2.60341 -2.68024,-4.25876c-0.1517,-0.12408 -0.28854,-0.26564 -0.40747,-0.4216l-1.73418,-2.22966l0.059,-0.04589l-0.17118,-0.1104c-0.49795,-0.89459 -0.83011,-1.86492 -1.05398,-2.87274l-0.43165,0.17266l-0.97894,-2.44736c-0.0387,-0.09059 -0.07219,-0.18394 -0.10012,-0.27966c-0.30997,-0.4243 -0.63038,-0.83607 -0.97905,-1.2332c-0.31594,0.06474 -0.68367,0.06866 -1.11099,-0.0168c-2.45145,-0.49029 -1.96116,-2.94174 -1.96116,-2.94174l0.10803,-0.07096c-0.40775,-0.44485 -0.65658,-1.03774 -0.65658,-1.68875c0,-1.38071 1.11929,-2.5 2.5,-2.5z" data-paper-data="{&quot;index&quot;:null}" fill="#ff0000" stroke="none" stroke-width="0.5" stroke-linecap="butt"/><path d="M299.83009,243.67178c0.92848,-2.3212 0.49967,-2.39272 0.49967,-2.39272l0.69458,0.29434c0.10118,-0.30976 0.26121,-0.5929 0.4669,-0.83621l2.45059,-2.9407c0.51864,-1.07834 1.1066,-2.09109 1.71673,-3.08345c0.71245,-3.1937 1.30439,-6.49423 3.39127,-8.71698c0.0882,-0.09394 0.17937,-0.18412 0.27323,-0.2709l-0.04029,-0.03581l1.99169,-2.24065c0.27585,-0.31323 0.62887,-0.55685 1.02933,-0.70113c1.14951,-2.73593 2.56492,-5.59897 4.43179,-7.39684l1.20607,-2.17093c0.26094,-0.49158 0.68111,-0.88571 1.19175,-1.11362c0.26594,-0.60637 0.86297,-1.46671 2.11228,-1.4798c0.19844,-0.31869 1.38254,-2.02551 3.36972,-0.92152c2.1854,1.21411 0.97129,3.3995 0.97129,3.3995c-0.15856,0.28492 -0.31277,0.57089 -0.46318,0.85778c-0.01982,0.17631 -0.04685,0.28445 -0.04685,0.28445l-0.65546,2.44131c-0.82719,1.78762 -1.69449,3.54999 -2.56459,5.31016c-1.33823,4.38035 -3.13542,8.49503 -5.67076,12.67071c-0.79588,2.02462 -1.78538,4.26875 -2.70733,5.11259c-0.04437,0.04062 -0.08923,0.08057 -0.13454,0.11988l0.0307,0.02388l-1.07647,1.38403c0.77548,0.88088 1.13483,2.09506 0.70712,3.67287c-0.84723,3.12536 -9.29538,2.14776 -11.5768,2.11314l-2.95571,-1.1337c0,0 0.64482,-0.09208 0.18024,-0.88004c-0.30081,-0.5102 0.81214,-0.45735 1.17705,-1.36963z" data-paper-data="{&quot;index&quot;:null}" fill="#ff0000" stroke="none" stroke-width="0.5" stroke-linecap="butt"/><path d="M298.31762,245.64563c1.21904,-0.36823 3.07482,0.17096 4.7021,0.8642c0.31468,-0.15956 0.63157,-0.15956 0.63157,-0.15956h0.5c1.5417,0.01716 2.4127,0.2433 3.23279,0.78442l0.07622,-0.15245l1.47578,0.73789c0.4228,0.20043 0.7152,0.63114 0.7152,1.13014c0,0.69036 -0.55964,1.25 -1.25,1.25h-0.07574c0.0609,0.05767 0.12122,0.11819 0.18126,0.1804c0.79914,0.44168 1.58176,0.91998 2.32189,1.43197c0.32334,0.18575 0.64556,0.37374 0.96572,0.56576c0,0 0.32768,0.19661 0.51198,0.5536c0.34344,0.28656 0.67088,0.58149 0.97878,0.88438c0,0 0.88388,0.88389 0,1.76777c-0.67628,0.67629 -1.35257,0.31768 -1.63294,0.11192c-0.12479,0.0008 -0.20644,-0.01281 -0.20644,-0.01281c-1.56754,-0.26227 -3.05982,-0.73074 -4.53268,-1.26841c-0.09554,-0.02292 -0.1903,-0.04917 -0.28414,-0.07894l-0.11616,-0.06896c-0.60463,-0.22588 -1.20683,-0.46137 -1.8105,-0.69694c-1.52531,-0.34321 -4.97026,-1.02243 -6.7397,-2.23805c-0.47358,-0.03229 -0.87437,-0.10999 -1.12033,-0.26365c-2.80561,-1.75282 -0.81425,-4.63107 1.47535,-5.32268z" data-paper-data="{&quot;index&quot;:null}" fill="#ffffff" stroke="none" stroke-width="0.5" stroke-linecap="butt"/><path d="M339.52194,253.0887c1.58063,-0.52182 3.21303,-0.73336 5.12936,-0.73845h1.25c0.69036,0 1.25,0.55964 1.25,1.25c0,0.22768 -0.06087,0.44114 -0.16723,0.625c0.10636,0.18386 0.16723,0.39732 0.16723,0.625c0,0.22924 -0.06171,0.44407 -0.16942,0.62878c0.02625,0.04395 0.05072,0.08851 0.07344,0.13364c0.56652,0.10162 1.05621,0.19255 1.40475,0.23758h1.19124c0.69036,0 1.25,0.55964 1.25,1.25c0,0.34777 -0.14202,0.66236 -0.37122,0.88896c1.42994,0.86929 2.52915,2.17753 3.05581,4.0101l-0.16475,0.03481l0.13023,0.32558c0.06432,0.15062 0.09993,0.31643 0.09993,0.49056c0,0.69036 -0.55964,1.25 -1.25,1.25c-0.17413,0 -0.33995,-0.0356 -0.49056,-0.09993l-0.81532,-0.32613c-0.51937,0.34226 -1.15836,0.08666 -1.15836,0.08666c-0.35784,-0.1449 -0.71723,-0.2834 -1.07771,-0.41777c-0.35,0.06539 -0.8859,-0.00887 -1.51293,-0.17472c-0.2292,0.26455 -0.56762,0.43189 -0.94512,0.43189h-1.75v-0.4662c-3.08975,0.11339 -5.74543,-1.24276 -8.84538,-2.9347c-0.98458,-0.53738 -3.56943,-2.25042 -3.37909,-3.60043c0.03853,-0.2733 0.18592,-0.49152 0.3962,-0.67096c0.16528,-1.06718 0.51235,-2.31819 0.78578,-2.54438c1.04204,-0.86202 3.95117,-0.42777 5.91312,-0.29487zM340.25254,257.85665c0.01274,-0.0296 0.02658,-0.0586 0.04148,-0.08696c-0.03069,-0.01565 -0.06105,-0.03181 -0.0911,-0.04848l-0.01586,0.03965l-0.45146,-0.18058c-0.02077,0.00164 -0.04157,0.00323 -0.06239,0.00477c0.19392,0.08829 0.38699,0.17896 0.57933,0.2716z" data-paper-data="{&quot;index&quot;:null}" fill="#ffffff" stroke="none" stroke-width="0.5" stroke-linecap="butt"/><path d="M324.56872,169.1492c-2.0852,0.87519 -3.7874,2.36472 -5.6426,3.67352c-0.00592,0.33627 -0.14463,0.64015 -0.36592,0.86144l-1,1l-0.07351,-0.07351l-0.10959,0.22471c-0.51087,0.22664 -1.01236,0.44797 -1.50807,0.66089c-0.35576,0.27449 -0.78638,0.54581 -1.22194,0.88811c-2.58008,2.02762 -4.9928,3.99966 -7.92726,5.4878c0.00429,0.04212 0.00649,0.08487 0.00649,0.12812c0,0.47328 -0.26303,0.88513 -0.65089,1.09734l-1.37893,0.78796l-0.14772,-0.25851l-0.00839,0.0028c-1.98169,1.7009 -4.37603,3.01685 -6.83953,4.21151c-3.03747,2.32573 -6.05758,4.62317 -9.62548,6.14349l-0.08794,-0.01138c-0.00395,0.00766 -0.00799,0.01527 -0.0121,0.02283l0.00416,0.01663l-0.01556,0.00389c-0.03834,0.06749 -0.08279,0.13106 -0.13258,0.18996l-0.99475,1.1937l-0.1714,-0.14283c-0.45571,0.91529 -0.95362,1.80429 -1.44877,2.69978c-0.33656,0.9397 -0.77139,1.78415 -1.36064,2.58839c-0.09723,0.20265 -0.19234,0.40706 -0.28488,0.61355l0.16541,0.10338l-0.98853,1.58165c-0.19268,0.31981 -0.5245,0.54632 -0.91165,0.59573l0.08024,0.0535l-0.78925,1.18387c-0.22257,0.34463 -0.61005,0.57276 -1.05082,0.57276c-0.69036,0 -1.25,-0.55964 -1.25,-1.25c0,-0.20995 0.05176,-0.40781 0.14321,-0.58151l0.58875,-1.17751l0.1413,0.07065l0.0458,-0.0687c0.45088,-1.89089 1.0367,-3.61927 1.79755,-5.24841c-0.70614,0.30993 -1.42841,0.53552 -2.18065,0.66117c-0.18771,0.12727 -0.36981,0.24277 -0.54346,0.34185l0.03427,0.2399l-1.22522,0.17503l0.00348,0.02788l-1.58044,0.19755c-0.05705,0.00798 -0.11535,0.0121 -0.1746,0.0121c-0.69036,0 -1.25,-0.55964 -1.25,-1.25c0,-0.29902 0.10499,-0.57352 0.28013,-0.78864l0.79378,-0.99222l0.05509,0.04407l0.07626,-0.18458c1.77227,-1.20437 5.23184,-3.8303 7.69007,-3.93527l0.33588,-0.28789c0.21933,-0.1903 0.50561,-0.30547 0.81878,-0.30547c0.22049,0 0.42764,0.05709 0.60749,0.15729c0.56632,-0.28876 1.13047,-0.58218 1.68723,-0.88616c0.10578,-0.18941 0.22139,-0.30502 0.22139,-0.30502l0.39051,-0.35618c1.85962,-1.2274 2.96165,-2.27969 4.50822,-2.94122c0.05082,-0.04966 0.10132,-0.0997 0.1515,-0.15013l0.06097,0.06287c0.01971,-0.00776 0.0395,-0.01546 0.05937,-0.0231l-0.06756,-0.08445l0.13773,-0.11019l-0.11588,-0.23176l1.17751,-0.58875c0.17371,-0.09145 0.37156,-0.14321 0.58151,-0.14321c0.04963,0 0.09858,0.0029 0.1467,0.00852c1.16144,-1.04383 2.43615,-1.97208 3.76629,-2.83675c4.0998,-4.02808 9.3419,-6.71136 14.25203,-9.59847c1.74503,-1.02607 2.82131,-1.82084 4.17986,-2.38479c0.08116,-0.0547 0.16207,-0.10914 0.24272,-0.16333l-0.14661,-0.29322l1.57751,-0.78875c0.17371,-0.09145 0.37156,-0.14321 0.58151,-0.14321c0.20359,0 0.39582,0.04868 0.56567,0.13502c0.55831,-0.40897 1.11087,-0.82703 1.65346,-1.2611l0.62185,-0.34195c0,0 0.32308,-0.16154 0.70872,-0.13727c0.4355,-0.2539 0.88589,-0.48793 1.3579,-0.69363c0,0 1.14893,-0.4924 1.64133,0.65653c0.4924,1.14893 -0.65653,1.64133 -0.65653,1.64133z" data-paper-data="{&quot;index&quot;:null}" fill="#ffffd6" stroke="none" stroke-width="0.5" stroke-linecap="butt"/><path d="M338.97804,180.52865c-2.00939,-2.3186 -4.20917,-4.60357 -5.29489,-7.35567c-0.57335,-1.45332 -0.33642,-3.41604 0.12066,-5.17271h-0.17752v-1.4c0,-0.69036 0.55964,-1.25 1.25,-1.25c0.5623,0 1.03788,0.37128 1.19497,0.88206l0.39312,1.17936c0.38489,0.12559 0.68764,0.43292 0.80688,0.82064l0.36138,1.08413c1.29174,2.24236 2.49796,4.46147 3.63805,6.7092c0.20687,0.13773 0.37036,0.33547 0.46561,0.56836l0.98693,2.26568l-0.0478,0.02082c0.19585,0.41062 0.38982,0.82289 0.58202,1.23709c0.37005,0.57421 0.73055,1.16332 1.08116,1.76405c0.19702,-0.43152 0.63233,-0.7314 1.13768,-0.7314c0.44077,0 0.82825,0.22813 1.05082,0.57276l0.78925,1.18387l-0.02333,0.01555l0.0675,0.05578c1.72727,3.52517 3.22044,7.09522 4.31626,10.87374c0.19833,0.68387 1.0795,3.53897 0.84833,4.40249c-0.01662,0.06211 -0.03461,0.1237 -0.05385,0.1848l0.03076,0.00615l-0.0242,0.12101c0.23387,0.03791 0.44598,0.1407 0.61726,0.28931l0.10969,0.09402c0.48861,0.04356 0.8445,0.50549 1.17184,1.00444l0.11318,0.09701l-0.01829,0.02134l0.08068,0.03593c0.30172,0.33862 0.75289,0.7718 1.25869,1.25846c0.43436,-0.28861 1.07359,-0.3806 1.98514,-0.17508c1.65155,0.37237 1.67604,2.67813 1.45728,4.56018c0.00325,0.01774 0.0062,0.03539 0.00886,0.05296c0.01996,0.13205 0.02811,0.26379 0.02669,0.39528h0.03745v1.6c0,0.69036 -0.55964,1.25 -1.25,1.25c-0.0516,0 -0.10246,-0.00313 -0.15241,-0.0092c-0.12227,0.01761 -0.25929,0.0187 -0.4128,-0.00177c-0.72378,-0.0965 -0.96839,-0.55942 -1.04667,-0.92775l-0.16899,-0.13519l0.06072,-0.0759l-0.25193,-0.11434c-0.05103,-0.10255 -0.11173,-0.23648 -0.17799,-0.3957c-0.01607,-0.01227 -0.03202,-0.02474 -0.04786,-0.0374c-0.10466,-0.08363 -0.30691,-0.37011 -0.55933,-0.76889c-0.83563,-0.88624 -1.54523,-1.737 -2.11685,-2.63871c-0.21475,0.96972 -0.54239,1.91769 -0.93136,2.83063l-0.37551,1.50203c-0.11758,0.51816 -0.55706,0.91405 -1.09708,0.96633c-0.22853,0.24945 -0.55697,0.40587 -0.92194,0.40587c-0.20995,0 -0.40781,-0.05176 -0.58151,-0.14321l-1.17751,-0.58875l0.16976,-0.33952l-0.08327,-0.08327c-0.97584,-0.43761 -1.45471,-1.13637 -1.6571,-2.45958c-0.19917,-0.22143 -0.32038,-0.51439 -0.32038,-0.83567c0,-0.10251 0.01233,-0.20214 0.03561,-0.29748l0.16439,-0.73973v-0.76278c0,0 0,-0.67582 0.49692,-1.03361c0.07144,-0.19956 0.1396,-0.39091 0.20585,-0.57538c-0.11358,-1.31745 0.1233,-2.73388 0.32764,-4.11455c-0.13224,-0.39064 -0.26494,-0.78293 -0.39864,-1.17633c-0.85061,-1.27174 -1.53141,-2.74193 -2.01704,-4.29975c-2.33489,-3.70045 -4.30111,-7.74136 -6.06297,-11.67201z" data-paper-data="{&quot;index&quot;:null}" fill="#ffffd6" stroke="none" stroke-width="0.5" stroke-linecap="butt"/><path d="M320.54029,194.36c-0.04898,1.02872 -0.3318,2.01389 -0.75302,2.8028c-0.12678,-1.93001 -0.35031,-3.84044 -0.61638,-5.74993c-0.01234,-0.29386 -0.01959,-0.56663 -0.01959,-0.8126c0,-2.33026 0.01034,-4.65709 0.01235,-6.98114c0.3301,0.2084 0.59251,0.52947 0.73769,0.98115c0.93627,2.91285 0.5625,6.45306 0.5625,9.37745z" data-paper-data="{&quot;index&quot;:null}" fill="#ffffd6" stroke="none" stroke-width="0.5" stroke-linecap="butt"/><path d="M333.00476,183.73561c0.25898,3.74661 0.55622,7.49201 0.73503,11.21486c0.00346,0.11815 0.00796,0.23564 0.01359,0.35239c-2.18917,-1.13396 -2.30398,-7.54924 -1.87732,-9.8848c0.00378,-0.02166 0.00783,-0.04323 0.01216,-0.06469c0.13707,-0.67966 0.54981,-1.25948 1.11654,-1.61776z" data-paper-data="{&quot;index&quot;:null}" fill="#ffffd6" stroke="none" stroke-width="0.5" stroke-linecap="butt"/><path d="M320.2252,181.08397c-0.21887,0.56824 -0.60012,1.06563 -1.0613,1.4272c-0.00316,-6.59354 -0.09739,-13.16545 -0.70976,-19.73026c0.43308,-0.10566 1.22264,-0.39346 1.65303,-1.13602c0.03896,0.10169 0.07574,0.20178 0.11039,0.29927c0.01854,-0.0316 0.03812,-0.06291 0.05878,-0.09389c2.33865,-3.50797 4.3278,0.85642 5.84819,2.25016c0.85258,0.78156 1.2335,-2.22366 2.33931,-2.56266c1.43312,-0.43933 3.14731,-1.59656 4.82379,-2.5039c-0.08835,0.25585 -0.13633,0.53052 -0.13633,0.81639c0,0.27591 0.04469,0.54138 0.12724,0.78957c-1.10211,7.06485 -0.85318,14.28973 -0.37993,21.52124c-0.11539,-0.07461 -0.22321,-0.15199 -0.32152,-0.23068c-0.32118,-0.25709 -2.02193,-1.40089 -2.07399,-1.23716c-0.88989,2.79903 0.85131,3.5792 0.85131,5.92179c0,2.77973 0.91928,5.86558 1.21574,8.75509c0.39367,3.83696 0.1471,7.48039 -0.34074,11.0904c-0.30382,2.24822 -2.56473,3.54962 -5.09357,3.97193c-1.39697,-0.07602 -2.79448,-0.10025 -4.19637,-0.10391c-1.06962,-0.25069 -1.99309,-0.68321 -2.60064,-1.29076c-2.48707,-2.48706 0.39929,-3.20219 -0.65669,-5.53021l0.2128,-2.97918l-0.03401,-0.00243l0.03878,-0.08657c-0.00075,-1.72769 -0.10059,-3.432 -0.26225,-5.12572c0.24557,-3.94609 0.55355,-7.9662 0.57638,-11.88301c0.00456,-0.78222 0.00832,-1.56444 0.01137,-2.34667z" data-paper-data="{&quot;index&quot;:null}" fill="#ffffff" stroke="none" stroke-width="0.5" stroke-linecap="butt"/><path d="M325.87647,153.12158c0.72138,0.05266 1.1627,0.86078 1.73769,1.29959c0.16734,0.12771 1.30021,-0.75666 2.54778,0.52134c1.94393,1.99134 -1.61228,8.68948 -4.49999,8.52905c-2.75794,-0.15322 -3.66756,-4.35369 -3.64704,-6.47488c0.00236,-0.24371 -0.0529,-2.23394 0.44792,-2.46271l1.52991,-0.78448c0.06043,0 0.1202,0.00285 0.17917,0.00841c0.58014,-0.03841 1.10547,-0.68005 1.70455,-0.63632z" data-paper-data="{&quot;index&quot;:null}" fill="#ffffd6" stroke="none" stroke-width="0.5" stroke-linecap="butt"/><path d="" data-paper-data="{&quot;index&quot;:null}" fill="#ffffff" stroke="none" stroke-width="0.5" stroke-linecap="butt"/><path d="M306.16425,152.98581c0,0 -4.22307,-17.29411 -4.22307,-24.93623c0,-2.75768 -0.95763,-11.04158 3.54451,-14.9676c5.80536,-5.06248 17.7568,-5.54445 21.79391,-5.54445c3.39251,0 15.74324,-2.37128 21.09113,2.11689c6.84841,5.74747 6.45938,19.01195 6.45938,23.02043c0,7.07165 -3.82087,20.31096 -3.82087,20.31096c0,0 -15.47704,2.21209 -23.12634,2.21209c-7.28084,0 -21.71865,-2.21209 -21.71865,-2.21209z" data-paper-data="{&quot;index&quot;:null}" fill="#ffffd6" stroke="#000000" stroke-width="3" stroke-linecap="butt"/><path d="M305.8305,131.74132l21.09771,0.37674" data-paper-data="{&quot;index&quot;:null}" fill="none" stroke="#000000" stroke-width="3" stroke-linecap="round"/><path d="M325.89215,132.96574l0.28256,8.1942l-12.62095,-0.56512v-8.28839l8.75932,0.18837" data-paper-data="{&quot;index&quot;:null}" fill="none" stroke="#000000" stroke-width="3" stroke-linecap="round"/><path d="M318.16889,133.15411l0.47093,6.31047" data-paper-data="{&quot;index&quot;:null}" fill="none" stroke="#000000" stroke-width="3" stroke-linecap="round"/><path d="M322.50146,139.9355l-3.48489,-6.68722" data-paper-data="{&quot;index&quot;:null}" fill="none" stroke="#000000" stroke-width="3" stroke-linecap="round"/><path d="M319.39333,138.33434l3.29651,-0.28256" data-paper-data="{&quot;index&quot;:null}" fill="none" stroke="#000000" stroke-width="3" stroke-linecap="round"/><path d="M318.223,132.58899l3.33659,4.52093l-3.48489,-2.34741" data-paper-data="{&quot;index&quot;:null}" fill="none" stroke="#000000" stroke-width="3" stroke-linecap="round"/><path d="M318.54563,138.52273l5.74536,1.13023" data-paper-data="{&quot;index&quot;:null}" fill="none" stroke="#000000" stroke-width="3" stroke-linecap="round"/><path d="M322.87821,134.19016l0.47093,3.95582" data-paper-data="{&quot;index&quot;:null}" fill="none" stroke="#000000" stroke-width="3" stroke-linecap="round"/><path d="M324.68473,132.13967c1.72467,0.91977 1.03707,5.89512 1.01907,6.85398c-0.03575,1.90416 -2.04149,1.97469 -3.31526,1.24682c-0.79595,-0.45482 -0.52965,-2.88253 -2.17374,-4.1156c-0.84674,-0.18452 -1.48078,-0.93848 -1.48078,-1.84053c0,-0.65172 0.33096,-1.22613 0.83398,-1.56435c1.27816,-1.15704 3.68896,-1.34175 5.11673,-0.58032z" data-paper-data="{&quot;index&quot;:null}" fill="#000000" stroke="none" stroke-width="0.5" stroke-linecap="butt"/><path d="M315.4375,133.15411l-0.28256,5.83954" data-paper-data="{&quot;index&quot;:null}" fill="none" stroke="#ffffff" stroke-width="3" stroke-linecap="round"/><path d="M316.28516,132.68318l0.6593,6.78141" data-paper-data="{&quot;index&quot;:null}" fill="none" stroke="#ffffff" stroke-width="3" stroke-linecap="round"/><path d="M321.74797,140.40646l-8.10001,-0.65931l0.18837,-7.62909h7.81745" data-paper-data="{&quot;index&quot;:null}" fill="none" stroke="#000000" stroke-width="3" stroke-linecap="round"/><path d="M350.75732,132.4948l-21.09771,-0.37674" data-paper-data="{&quot;index&quot;:null}" fill="none" stroke="#000000" stroke-width="3" stroke-linecap="round"/><path d="M349.72127,133.34248l0.28256,8.1942l-12.62095,-0.56512v-8.28839l8.75932,0.18837" data-paper-data="{&quot;index&quot;:null}" fill="none" stroke="#000000" stroke-width="3" stroke-linecap="round"/><path d="M342.46892,139.84133l-0.47093,-6.31047" data-paper-data="{&quot;index&quot;:null}" fill="none" stroke="#000000" stroke-width="3" stroke-linecap="round"/><path d="M346.33056,140.31226l-3.48488,-6.68722" data-paper-data="{&quot;index&quot;:null}" fill="none" stroke="#000000" stroke-width="3" stroke-linecap="round"/><path d="M343.22244,138.7111l3.29651,-0.28256" data-paper-data="{&quot;index&quot;:null}" fill="none" stroke="#000000" stroke-width="3" stroke-linecap="round"/><path d="M342.42886,133.24828l3.33659,4.52094l-3.48489,-2.34741" data-paper-data="{&quot;index&quot;:null}" fill="none" stroke="#000000" stroke-width="3" stroke-linecap="round"/><path d="M348.12011,140.0297l-5.74536,-1.13023" data-paper-data="{&quot;index&quot;:null}" fill="none" stroke="#000000" stroke-width="3" stroke-linecap="round"/><path d="M346.70732,134.56691l0.47093,3.95582" data-paper-data="{&quot;index&quot;:null}" fill="none" stroke="#000000" stroke-width="3" stroke-linecap="round"/><path d="M348.51384,132.51642c1.72467,0.91977 1.03707,5.89512 1.01906,6.85398c-0.03575,1.90416 -2.04149,1.97469 -3.31526,1.24682c-0.79595,-0.45482 -0.52965,-2.88253 -2.17374,-4.1156c-0.84674,-0.18452 -1.48078,-0.93848 -1.48078,-1.84053c0,-0.65172 0.33096,-1.22613 0.83398,-1.56435c1.27816,-1.15704 3.68896,-1.34175 5.11673,-0.58032z" data-paper-data="{&quot;index&quot;:null}" fill="#000000" stroke="none" stroke-width="0.5" stroke-linecap="butt"/><path d="M339.2666,133.53086l-0.28256,5.83954" data-paper-data="{&quot;index&quot;:null}" fill="none" stroke="#ffffff" stroke-width="3" stroke-linecap="round"/><path d="M340.11428,133.05993l0.6593,6.78141" data-paper-data="{&quot;index&quot;:null}" fill="none" stroke="#ffffff" stroke-width="3" stroke-linecap="round"/><path d="M345.57709,140.7832l-8.10002,-0.65931l0.18837,-7.62909h7.81745" data-paper-data="{&quot;index&quot;:null}" fill="none" stroke="#000000" stroke-width="3" stroke-linecap="round"/><path d="M319.86424,149.16577l9.23025,-0.09418" data-paper-data="{&quot;index&quot;:null}" fill="none" stroke="#000000" stroke-width="3" stroke-linecap="round"/><path d="M365.52342,127.30727l-0.14343,0.08367l0.33475,0.37387c-0.00225,1.08935 0.25677,2.21105 -0.00676,3.26804c-0.71879,2.88303 -2.2179,2.17152 -3.38575,4.87996c-0.35102,0.81408 0.47941,2.11992 -0.23157,2.64948c-3.88254,2.89185 -7.27805,-0.98608 -8.27893,-4.08709c-0.70971,-2.19889 -0.2384,-4.21848 0.48796,-6.24106c-0.25105,-0.06961 -0.50104,-0.12914 -0.74983,-0.17417c-3.58292,0.01273 -7.14706,0.81201 -10.69644,0.56847c-2.81241,-0.19297 -5.53,-1.08522 -8.33581,-1.32258c-3.05575,-0.25851 -4.09995,-0.08766 -7.25629,-0.51532c-2.96979,-0.40239 -4.99482,-1.68098 -8.136,-1.37636c-1.5576,0.15105 -4.04694,1.65645 -5.14212,2.00023c-1.29235,0.40566 -2.64449,0.59712 -3.98279,0.80613c-2.21245,0.34553 -3.6248,-0.5318 -5.53875,-0.60573c1.33415,2.72128 1.63634,5.98327 1.54783,8.90538l0.74466,1.34037c0.16131,0.27772 0.25367,0.60044 0.25367,0.94473c0,0.69725 -0.37882,1.30601 -0.94186,1.63172v1.00549c0,1.04035 -0.84338,1.88372 -1.88373,1.88372c-0.74135,0 -1.38266,-0.42825 -1.69007,-1.05086l-0.91271,-1.75747c-1.192,0.19968 -1.85833,-0.9664 -1.85833,-0.9664l-0.08542,-0.17781c-0.82137,-0.74195 -1.56986,-2.11574 -2.13529,-3.24841c-0.52376,-0.01525 -1.03774,-0.0702 -1.51691,-0.26643c-3.08562,-1.26363 -3.40458,-3.8018 -2.65153,-6.47753c-0.20715,-0.82715 -0.26448,-1.88197 -0.13702,-3.21786c0.0281,-0.29451 0.18298,-0.52439 0.39897,-0.7251c-3.80262,0.2981 -6.30821,-0.23036 -6.36438,-4.58475c-0.0328,-2.54237 1.23406,-4.29673 2.95379,-5.7228c0.46659,-0.84575 1.22511,-1.71413 2.13053,-2.44444c0.55139,-1.30416 1.17433,-2.57207 1.88773,-3.83643l0.23282,-0.13668l-0.06095,-0.06095l1.69535,-1.69535v0c0.21044,-0.21044 0.47044,-0.37132 0.761,-0.46363c1.16084,-2.14751 2.69086,-4.01431 5.22521,-4.88075c1.03573,-0.3541 2.31551,-0.64049 3.28138,-0.12548c0.79683,0.42488 0.21672,2.37041 1.11433,2.46931c0.78591,0.0866 0.29874,-1.5809 0.68442,-2.27112c1.56335,-2.79781 3.75449,-5.06529 7.01117,-5.59837c1.27957,-0.20945 2.62268,-0.62494 3.87814,-0.30093c0.71808,0.18533 0.76128,1.43049 1.46014,1.67865c0.80797,0.28691 2.99304,-1.38887 3.47817,-1.6135c2.25119,-1.04236 5.0758,-1.69421 7.53113,-0.89462c0.81736,0.26618 0.80707,1.57717 1.48032,2.11165c1.98197,1.57344 2.74417,0.96118 4.89146,0.54316c2.42854,-0.85656 4.70167,-1.88804 7.38503,-1.75021c3.30064,0.16953 4.71681,2.59696 7.04773,4.28628c0.2246,-0.09456 0.47138,-0.14683 0.73037,-0.14683c0.66422,0 1.24815,0.34378 1.58356,0.86313l0.26758,0.40138c1.04552,0.20455 2.13932,0.29867 3.0702,0.787c2.51583,1.31979 5.91825,5.6709 6.69752,8.58995c0.37646,1.4102 -0.20546,3.10201 0.03866,4.5209c0.4596,2.67125 3.49963,6.09339 2.39881,8.8986c-0.29573,0.7536 -0.73392,1.44133 -1.2381,2.08629zM359.29908,136.07488c0.00849,0.01026 0.01142,0.00865 0.00743,-0.00872c-0.00247,0.00292 -0.00495,0.00582 -0.00743,0.00872z" data-paper-data="{&quot;index&quot;:null}" fill="#29241d" stroke="none" stroke-width="0.5" stroke-linecap="butt"/><path d="M320.40596,160.39025l1.48329,0.26623" data-paper-data="{&quot;index&quot;:null}" fill="none" stroke="#000000" stroke-width="3" stroke-linecap="round"/><path d="M319.26082,210.34516l0.43151,-0.83744l13.31624,0.12559" data-paper-data="{&quot;index&quot;:null}" fill="none" stroke="#000000" stroke-width="3" stroke-linecap="round"/><path d="M329.39274,161.03321l-3.76745,3.13954l-3.17093,-4.83489l-0.56511,-3.57907" data-paper-data="{&quot;index&quot;:null}" fill="none" stroke="#000000" stroke-width="3" stroke-linecap="round"/><path d="M333.16376,159.59902l-2.60938,0.68071l0.56512,-4.52093" data-paper-data="{&quot;index&quot;:null}" fill="none" stroke="#000000" stroke-width="3" stroke-linecap="round"/><path d="M336.50083,211.80321l-1.42063,-1.7315l-0.59093,-1.01514c0,0 -1.8277,-3.95507 -1.65618,-11.24791c0.20481,-8.70842 0.40851,-21.12434 0.31638,-25.78612c-0.08847,-4.47659 0.39794,-10.62419 0.39794,-10.62419l15.92888,28.40192l4,8.8l6.8,3.8l-0.4,7.4l-3.4,1l-4.8,-7.4v9.2l-5,-4.6l-1.6,-3.4l1.6,-6.2l-13.4,-25.8" data-paper-data="{&quot;index&quot;:null}" fill="none" stroke="#000000" stroke-width="3" stroke-linecap="round"/><path d="M332.21834,202.224l1.65284,-3.65364" data-paper-data="{&quot;index&quot;:null}" fill="none" stroke="#000000" stroke-width="3" stroke-linecap="round"/><path d="M332.92445,182.55261l-1.0856,-0.45233" data-paper-data="{&quot;index&quot;:null}" fill="none" stroke="#000000" stroke-width="3" stroke-linecap="round"/><path d="M321.60966,185.26695v-10.11111h4v10.11111z" data-paper-data="{&quot;index&quot;:null}" fill="#000000" stroke="none" stroke-width="0" stroke-linecap="butt"/><path d="M331.05412,180.3225c0,2.48528 -1.34314,4.5 -3,4.5c-1.65686,0 -3,-2.01472 -3,-4.5c0,-2.48528 1.34314,-4.5 3,-4.5c1.65686,0 3,2.01472 3,4.5z" data-paper-data="{&quot;index&quot;:null}" fill="#000000" stroke="none" stroke-width="0" stroke-linecap="butt"/><path d="M326.44935,189.76802l-5.01269,-4.89104" data-paper-data="{&quot;index&quot;:null}" fill="none" stroke="#000000" stroke-width="0.5" stroke-linecap="round"/><path d="M325.43434,190.80771c-3.78264,-4.41308 2.82119,-7.86517 4.94308,-4.53075c2.66095,4.18149 -3.19159,7.20659 -4.89262,4.53356z" data-paper-data="{&quot;index&quot;:null}" fill="#000000" stroke="none" stroke-width="0.5" stroke-linecap="butt"/><path d="M330.27383,180.31277c0.6625,1.06 -0.3975,1.7225 -0.3975,1.7225l-1.92441,0.78726c-0.72317,-0.18311 -1.53185,-0.16215 -2.1695,-0.54932c-0.60853,-0.36948 -2.03173,-2.72403 -2.08875,-0.32433c0,0 -0.22361,1.22984 -1.45344,1.00623c-1.22984,-0.22361 -1.00623,-1.45344 -1.00623,-1.45344c0.5626,-2.22934 2.16507,-4.05662 4.84286,-2.74075c0.8655,0.4253 1.44533,1.47328 2.39889,1.61711l0.07559,-0.46274c0,0 1.06,-0.6625 1.7225,0.3975z" data-paper-data="{&quot;index&quot;:null}" fill="#313131" stroke="none" stroke-width="0.5" stroke-linecap="butt"/><path d="M324.46384,189.60027c-0.75,-1 0.25,-1.75 0.25,-1.75l1,-0.75c0,0 0.07409,-0.05557 0.19707,-0.11629c1.15173,-1.29906 2.24145,-1.23074 4.05293,-0.00871l0.56085,0.97972c0,0 0.39528,1.18585 -0.79057,1.58114c-0.97619,0.3254 -1.41665,-0.42067 -1.54189,-0.69466c-0.29893,-0.07279 -0.68352,-0.00138 -0.7607,0.24086c0,0 -0.38207,0.68773 -1.08559,0.66887l-0.1321,0.09908c0,0 -1,0.75 -1.75,-0.25zM328.38559,188.91745l0.07825,0.05782c-0.02288,-0.02133 -0.04921,-0.04062 -0.07825,-0.05782z" data-paper-data="{&quot;index&quot;:null}" fill="#313131" stroke="none" stroke-width="0.5" stroke-linecap="butt"/><path d="M321.82071,188.4034c0.85916,-0.5155 1.44286,0.07087 1.64068,0.3239c0.16371,-0.09177 0.3026,-0.22398 0.37744,-0.37703c0,0 0.75,-1 1.75,-0.25c1,0.75 0.25,1.75 0.25,1.75c-0.73412,0.84325 -1.88493,1.41866 -3,1.5l-1.44687,-1.23188c0,0 -0.64312,-1.07187 0.42875,-1.71499zM323.16123,188.84189l-0.32239,0.00838c0.10232,0.01954 0.21277,0.01525 0.32239,-0.00838z" data-paper-data="{&quot;index&quot;:null}" fill="#9b9b9b" stroke="none" stroke-width="0.5" stroke-linecap="butt"/><path d="M273.6763,198.20027l4.4,-6l9.6,-3.6l35,-23.2" data-paper-data="{&quot;index&quot;:null}" fill="none" stroke="#000000" stroke-width="3" stroke-linecap="round"/><path d="M326.0763,169.40027l-35.6,24.8l-3,2.6l-6.2,9l-2.4,-1.4l2.2,-7.2l-5.2,3.8l-1.4,-1.6" data-paper-data="{&quot;index&quot;:null}" fill="none" stroke="#000000" stroke-width="3" stroke-linecap="round"/><path d="M318.28843,173.24878l0.09104,0.36416l-1.57281,0.3932c-0.10523,0.02876 -0.216,0.04412 -0.33036,0.04412c-0.69036,0 -1.25,-0.55964 -1.25,-1.25c0,-0.38261 0.1719,-0.72507 0.44268,-0.95436l1.39383,-1.19471c0.75876,-0.64422 1.616,-1.09176 2.45639,-1.52802c0.12807,-0.35305 0.43265,-0.77291 1.1571,-0.77291c0.07973,0 0.15438,0.00509 0.22427,0.01461c0.60946,-0.37439 1.16968,-0.80483 1.62666,-1.3781c0,0 0.81349,-0.94907 1.76256,-0.13558c0.94907,0.81349 0.13558,1.76256 0.13558,1.76256c-0.91097,1.01259 -1.90702,1.5803 -2.92976,2.13508c-1.52447,1.52933 -2.05247,2.22741 -3.20718,2.49995z" data-paper-data="{&quot;index&quot;:null}" fill="#ffffd6" stroke="none" stroke-width="0.5" stroke-linecap="butt"/><path d="M327.02232,210.42637l-0.01562,-0.5419" data-paper-data="{&quot;index&quot;:null}" fill="none" stroke="#000000" stroke-width="3" stroke-linecap="round"/><path d="M318.3907,210.34927l1.42646,-2.22295c0,0 -0.89395,-8.42812 -0.81562,-13.32405c0.00688,-0.43014 0.63063,-0.49924 0.66875,-1.00246c0.44626,-5.89099 -0.73732,-17.05835 -0.33834,-24.554c0.24845,-4.66771 1.2387,-8.2126 1.2387,-8.2126" data-paper-data="{&quot;index&quot;:null}" fill="none" stroke="#000000" stroke-width="3" stroke-linecap="round"/><path d="M329.15811,211.57197l13.0679,17.57812l0.47698,3.02085" data-paper-data="{&quot;index&quot;:null}" fill="none" stroke="#000000" stroke-width="3" stroke-linecap="round"/><path d="M335.53465,209.18233l16.24899,19.80474l-0.65609,10.98957" data-paper-data="{&quot;index&quot;:null}" fill="none" stroke="#000000" stroke-width="3" stroke-linecap="round"/><path d="M343.91052,252.44241l7.21703,-13.61394" data-paper-data="{&quot;index&quot;:null}" fill="none" stroke="#000000" stroke-width="3" stroke-linecap="round"/><path d="M344.07455,253.42656l0.98414,-1.47621l10.33347,9.8414" data-paper-data="{&quot;index&quot;:null}" fill="none" stroke="#000000" stroke-width="3" stroke-linecap="round"/><path d="M356.3763,261.79176l-5.5768,3.60851l-20.3389,-6.06887" data-paper-data="{&quot;index&quot;:null}" fill="none" stroke="#000000" stroke-width="3" stroke-linecap="round"/><path d="M331.44475,260.15152l0.98414,-9.34933l8.36519,-19.19074" data-paper-data="{&quot;index&quot;:null}" fill="none" stroke="#000000" stroke-width="3" stroke-linecap="round"/><path d="M331.5541,253.5359l14.21536,-1.9136" data-paper-data="{&quot;index&quot;:null}" fill="none" stroke="#000000" stroke-width="3" stroke-linecap="round"/><path d="M310.3365,257.10027l4.93405,-1.49517l-5.23308,-7.32631l18.24751,-38.56567" data-paper-data="{&quot;index&quot;:null}" fill="none" stroke="#000000" stroke-width="3" stroke-linecap="round"/><path d="M310.18699,255.90413l-15.40021,-4.33598l4.4855,-8.97099l21.03643,-32.78243" data-paper-data="{&quot;index&quot;:null}" fill="none" stroke="#000000" stroke-width="3" stroke-linecap="round"/><path d="M311.33328,246.38491l-15.69924,-0.74758" data-paper-data="{&quot;index&quot;:null}" fill="none" stroke="#000000" stroke-width="3" stroke-linecap="round"/><path d="M348.4013,261.60027l4.75,-2.5" data-paper-data="{&quot;index&quot;:null}" fill="none" stroke="#000000" stroke-width="3" stroke-linecap="round"/><path d="M344.9013,257.85027l2.75,-1.5" data-paper-data="{&quot;index&quot;:null}" fill="none" stroke="#000000" stroke-width="3" stroke-linecap="round"/><path d="M310.4013,250.60027l-2,1.25" data-paper-data="{&quot;index&quot;:null}" fill="none" stroke="#000000" stroke-width="3" stroke-linecap="round"/><path d="M309.1513,249.35027l-2.5,0.75" data-paper-data="{&quot;index&quot;:null}" fill="none" stroke="#000000" stroke-width="3" stroke-linecap="round"/></g></g></svg>