<svg version="1.1" xmlns="http://www.w3.org/2000/svg" xmlns:xlink="http://www.w3.org/1999/xlink" width="611" height="328" viewBox="0,0,611,328"><g transform="translate(-14.5,-16)"><g data-paper-data="{&quot;isPaintingLayer&quot;:true}" fill-rule="nonzero" stroke-linejoin="miter" stroke-miterlimit="10" stroke-dasharray="" stroke-dashoffset="0" style="mix-blend-mode: normal"><path d="M15.5,343v-326h609v326z" fill="#ffffff" stroke="#000000" stroke-width="2" stroke-linecap="butt"/><path d="" fill="#ffffff" stroke="#000000" stroke-width="2" stroke-linecap="butt"/><path d="M23.25,284.75v-248h590v248z" fill="#ffffff" stroke="#000000" stroke-width="2" stroke-linecap="butt"/><text transform="translate(23.25,306.75) scale(0.5,0.5)" font-size="40" xml:space="preserve" fill="#000000" fill-rule="nonzero" stroke="none" stroke-width="1" stroke-linecap="butt" stroke-linejoin="miter" stroke-miterlimit="10" stroke-dasharray="" stroke-dashoffset="0" font-family="Sans Serif" font-weight="normal" text-anchor="start" style="mix-blend-mode: normal"><tspan x="0" dy="0">Skibidi player</tspan></text><text transform="translate(26.25,322.44108) scale(0.28884,0.28884)" font-size="40" xml:space="preserve" fill="#000000" fill-rule="nonzero" stroke="none" stroke-width="1" stroke-linecap="butt" stroke-linejoin="miter" stroke-miterlimit="10" stroke-dasharray="" stroke-dashoffset="0" font-family="Sans Serif" font-weight="normal" text-anchor="start" style="mix-blend-mode: normal"><tspan x="0" dy="0">Jan 18 2025</tspan></text><text transform="translate(97.25,323.90654) scale(0.28972,0.31308)" font-size="40" xml:space="preserve" fill="#000000" fill-rule="nonzero" stroke="none" stroke-width="1" stroke-linecap="butt" stroke-linejoin="miter" stroke-miterlimit="10" stroke-dasharray="" stroke-dashoffset="0" font-family="Sans Serif" font-weight="normal" text-anchor="start" style="mix-blend-mode: normal"><tspan x="0" dy="0">999D views</tspan></text><text transform="translate(25.25,337.33921) scale(0.27558,0.27558)" font-size="40" xml:space="preserve" fill="#000000" fill-rule="nonzero" stroke="none" stroke-width="1" stroke-linecap="butt" stroke-linejoin="miter" stroke-miterlimit="10" stroke-dasharray="" stroke-dashoffset="0" font-family="Sans Serif" font-weight="normal" text-anchor="start" style="mix-blend-mode: normal"><tspan x="0" dy="0">RandomLifeGameBrainrot TV Entertainment</tspan></text><path d="M315.85417,142.8777l-0.74691,-0.57998l-0.75581,-0.48635l-0.13967,-0.14549l-0.17134,-0.08666l-0.55024,-0.47223l-0.91204,-0.58687l-0.03004,-0.0313l-0.09541,-0.02314l-0.41695,0.00232l-0.30815,-0.0841l-0.38746,0.00215l-0.13312,-0.14422l-0.46136,-0.12591l-0.58407,-1.00671l-0.74168,-0.80353l0.06267,-0.36683l-0.19116,-0.32947l0.41376,-0.97356l0.19148,-1.12083l0.39172,-0.25144l0.07426,-0.17473l0.36775,-0.10898l0.26165,-0.16794l2.26422,-0.67097l1.25629,-0.55563l0.01406,-0.00187l0.01119,-0.00909l1.53034,-0.6537l2.7381,-1.21099l1.20781,-0.55721l0.01747,-0.00261l0.01381,-0.01153l1.25933,-0.55697l1.03614,-0.62199l1.10075,-0.97116l0.95983,-1.11725l0.63857,-0.95319l0.64166,-1.42596v0c0.18051,-0.40115 0.45055,-0.74469 0.79292,-0.99233l0.04768,-0.05966l0.03798,0.00071c0.17497,-0.11447 0.36723,-0.20475 0.57474,-0.26624c0.07549,-0.02237 0.15137,-0.04045 0.22742,-0.05436c0.09545,-0.11731 0.20104,-0.22487 0.316,-0.32096l-0.098,-0.53595l0.04952,-1.46998l1.91009,-1.73967l2.43125,1.11041l0.57068,1.38009l0.28011,1.53187l-0.01172,0.3481l0.06426,0.34773l-0.06193,1.94992l0.06686,0.08545l0.28516,0.24175l0.666,0.89143l0.00501,0.00154l0.01051,0.01923l0.1828,0.24468l0.2407,0.53025l0.27803,0.50877l0.08857,0.29889l0.0091,0.02005l-0.00158,0.00533l1.27864,4.31484l0.02694,0.35363l0.10154,0.34267l0.06015,0.7896l-0.01569,0.1094l0.02504,0.11096l0.00364,0.42566l0.09406,0.79657l-0.01774,0.17817l0.04035,0.17881l0.00517,0.60405l-0.06508,0.30061l0.01005,0.31603l-0.20445,1.06989l-0.13685,0.30413l-0.06474,0.33881l-0.94328,2.09626l-0.0754,0.09437l-0.0346,0.12328l-0.15473,0.27423c1.67961,-0.50494 3.35336,-1.03176 5.03315,-1.53125c5.29811,-1.57538 10.68087,-2.98084 15.83489,-4.99479v0.00001c2.84108,-1.11016 5.68812,-2.43117 8.59976,-3.48075c-0.75639,-3.69505 -1.53471,-7.37938 -2.79284,-10.95678c-2.11721,-6.02012 -4.9968,-11.80831 -7.66242,-17.57027c-3.38861,-7.3248 -6.76273,-14.41052 -10.70044,-21.41117c-0.68074,-0.88352 -1.36204,-1.77117 -2.04635,-2.6589c-0.10893,0.03228 -0.21787,0.06456 -0.3268,0.09684l-1.79632,-0.6362c0,0 -1.26884,-0.81647 -0.64969,-2.19241c0.08659,-0.19245 0.1859,-0.342 0.29266,-0.4569c-4.46567,-5.6684 -9.17513,-11.14115 -14.77173,-15.35016c-2.76202,-2.0772 -6.03815,-3.68539 -9.002,-5.32579c-5.73469,-3.17398 -11.06187,-5.14341 -17.17701,-3.73985c-2.0541,0.57674 -2.18219,1.35934 -3.67683,2.94246c-0.41683,0.44152 -0.99714,0.65849 -1.41825,1.09484c-2.05643,2.13091 -2.82982,5.75351 -3.07835,8.85749c-0.26965,3.36762 0.45216,5.70133 1.07748,9.00646c0.38688,2.04489 0.26826,4.13755 0.63692,6.18512c1.24626,6.92174 2.91285,13.71299 4.93314,20.53246c3.89606,13.14874 7.79262,26.29736 11.6891,39.446l0.79841,-0.24621c0,0 1.33502,-0.39561 1.79442,1.15467c0.45941,1.55028 -0.87561,1.94589 -0.87561,1.94589l-0.80444,0.22582c0.25155,0.84887 0.50311,1.69772 0.75466,2.5466c3.08758,-0.04777 6.2457,0.17662 9.29213,-0.08135c0.24179,-0.02048 0.48376,-0.04442 0.7258,-0.07138l-1.08726,-0.69962l-0.13967,-0.14548l-0.17134,-0.08666l-0.69935,-0.60019l-0.15365,-0.20813l-0.19872,-0.15007l-0.53955,-0.64755l-0.09538,-0.18447l-0.14272,-0.14157zM329.1416,133.90633l-1.29946,1.28574l-0.12396,0.0685l-0.08894,0.11789l-2.54643,1.96575l-0.04262,0.01688l-0.03022,0.03704l-2.44162,1.73283l-0.07159,0.02499l-0.05337,0.05754l-1.26025,0.77253l2.43127,1.56446l0.41153,0.21471l0.49275,-0.06126l3.01506,-0.89347l0.84063,-0.40865l0.39015,-0.22147l0.18099,-0.19171l0.49097,-0.68206l0.34038,-0.7564l-0.10346,-0.61871l0.0055,-0.11158l-0.0348,-0.10837l-0.16588,-1.66997zM325.19977,148.2766c-2.06288,0.41233 -4.151,0.83139 -6.22815,1.00728c-2.88083,0.24396 -5.8578,0.06911 -8.78225,0.08619c0.07705,0.26002 0.52163,1.76027 0.59868,2.02029c0,0 0.45941,1.55028 -0.87561,1.94589c-1.33502,0.39561 -1.79442,-1.15467 -1.79442,-1.15467l-0.36752,-1.24022c-0.14517,-0.48986 -0.29034,-0.97974 -0.4355,-1.46961c-0.16928,0.0124 -0.33823,0.02616 -0.50677,0.04141c-1.49421,0.13522 -3.15693,0.95654 -4.59018,1.38126l-0.80044,0.2372c-5.51417,9.6757 -11.85811,18.67427 -16.50168,28.99373c-1.1755,2.61232 -2.7149,5.27906 -3.62812,8.03944c-0.45673,1.38057 -0.67038,2.86464 -0.92277,4.33204c0.68655,1.03223 1.08085,2.39122 1.0729,3.20166c-0.00994,1.01193 -0.42504,1.89591 -0.83921,2.78584c0.00131,0.00441 0.0026,0.00882 0.00391,0.01323c0.13023,-0.01119 0.26382,-0.00166 0.40074,0.03152c1.1034,0.26744 1.45561,2.14149 1.73124,3.38499c0.15283,0.68947 -0.06568,1.36392 -0.21217,2.04798c0.86624,0.7032 0.5899,1.70318 0.49009,1.98165c0.84219,2.27884 1.72007,4.54183 2.42594,6.92384c0.14417,0.48653 1.55669,5.24479 1.6899,5.73333c0.16137,0.11941 0.32374,0.23993 0.48666,0.36324c4.26729,3.2296 9.22474,5.97016 14.30946,6.26456c1.39726,0.0809 2.63104,-0.82544 3.95304,-1.21654c3.28603,-0.97217 6.67399,-2.22599 9.8197,-3.57446c2.3608,-1.012 4.61423,-2.77126 6.86282,-4.04776c8.24616,-4.67005 14.77513,-12.11676 21.03659,-19.53213c5.75501,-6.81559 11.65614,-13.27961 16.92308,-20.61944c2.21021,-3.12794 4.53862,-6.22754 6.37179,-9.68334c3.19676,-6.02637 5.34456,-12.82824 8.10912,-19.13423c0.79869,-1.82181 1.68514,-3.59134 2.39791,-5.4643c0.03578,-0.09404 0.12775,-0.37129 0.25334,-0.7578c-0.42758,-2.54423 -0.83385,-5.08877 -1.39597,-7.60166c-1.62456,0.59751 -3.39059,1.77129 -4.94467,1.41625c-0.23251,-0.05312 -0.46553,-0.13157 -0.69411,-0.23241c-2.89022,1.33447 -5.85136,2.29915 -8.90573,3.20555l-1.06843,0.31661c0,0 -0.70385,0.20857 -1.26528,-0.27064c-0.94763,0.40599 -1.88839,0.80262 -2.82284,1.16741c-5.21741,2.03676 -10.66142,3.46515 -16.02399,5.05971c-3.10618,0.92362 -6.19129,1.93176 -9.32852,2.73697l-0.19772,0.13773l-0.33031,0.11196l-0.29644,0.19029l-2.87636,0.85237l-0.25154,0.0014l-0.23456,0.08385l-0.85397,0.05121l-0.43115,-0.09406l-0.43352,-0.02241zM272.76248,216.28815c0.70486,-1.76435 1.04953,-3.66482 1.64855,-5.47648c-0.12801,-1.07674 -0.27531,-2.16248 -0.46479,-3.25807c-0.274,-1.58423 -1.07806,-3.06328 -1.31736,-4.65157c-0.38457,-2.55244 -0.51811,-4.59056 -0.24376,-7.15748l-0.30301,-0.50515c0,0 -0.4594,-1.55027 0.87562,-1.94588c1.33502,-0.39561 1.79441,1.15466 1.79441,1.15466l0.43203,1.97529c-0.42129,3.12285 0.39316,5.68897 1.07793,8.59241c0.1297,-0.65836 0.2452,-1.32321 0.36081,-1.98673c-0.21963,-1.84017 -0.46658,-3.94888 -0.46127,-4.08781c0.00346,-0.09038 0.32487,-1.71478 0.63752,-3.27646c-0.45405,-1.78131 -0.63799,-3.64486 0.48643,-4.2833c0.13137,-0.0746 0.26062,-0.1337 0.38758,-0.17848c0.25609,-1.47593 0.49469,-2.95978 0.9532,-4.34939c0.03782,-0.11463 2.40764,-5.37391 2.51363,-5.60943c1.23374,-2.74177 2.37878,-5.58611 3.71701,-8.25719c3.01673,-6.02133 7.00641,-11.28215 10.42451,-16.97471c1.43518,-2.39017 2.70373,-4.95006 4.07983,-7.38892c1.57754,-2.77945 3.49305,-4.77609 5.74116,-6.61805c-3.96237,-13.37101 -7.92483,-26.74198 -11.88679,-40.11312c-0.91532,-3.08967 -2.13783,-6.3106 -2.78539,-9.46179c-0.78056,-3.7984 -1.56196,-7.64889 -2.23814,-11.44548c-0.36416,-2.04459 -0.24433,-4.13383 -0.63492,-6.17451c-0.42005,-2.19461 -1.16956,-4.36786 -1.27352,-6.58176c-0.19636,-4.18175 0.57806,-8.79553 2.59749,-12.16096c0.74086,-1.23465 1.89512,-2.06364 2.85519,-3.08054c1.71632,-1.81793 2.42344,-2.88514 4.83272,-3.6266c6.78356,-1.51078 12.71001,0.48165 19.08633,4.00721c3.08681,1.70674 6.48308,3.39463 9.35942,5.55782c6.34556,4.77227 11.61591,11.08741 16.63351,17.54967c1.61756,-0.47926 3.23513,-0.95846 4.8527,-1.43771c-0.20203,-0.18112 -0.38372,-0.45442 -0.50469,-0.86264c-0.45941,-1.55028 0.87561,-1.94589 0.87561,-1.94589l1.92811,-0.54959c0.30338,-0.20662 0.7316,-0.27329 0.91014,-0.61984c0.27818,-0.53991 0.06846,-1.3384 0.36849,-1.86185c0.02447,-0.0427 0.04954,-0.08485 0.07517,-0.12647l-0.02034,-0.01309l0.7005,-1.5567c0.15846,-0.35213 0.44079,-0.62456 0.80944,-0.73381c0.73731,-0.21849 1.54069,0.29848 1.79441,1.15467l0.55128,1.86033c0.27567,0.93026 0.55133,1.86051 0.827,2.79077c2.237,-0.65767 4.42297,-1.23649 6.533,-2.11974c-0.23941,-0.2742 -0.90252,-1.18366 -0.18841,-2.1757c0.85597,-1.18912 1.97875,-0.11865 1.97875,-0.11865c0.34866,0.34814 0.75343,0.64373 1.12203,0.97321c0.41584,-0.04191 0.98763,0.08596 1.39428,0.90953c0.39318,0.79632 0.19789,1.36391 -0.056,1.71265c0.56397,1.83905 1.36167,4.55854 1.47561,4.94305c1.18108,3.98563 2.04478,7.94464 3.06168,11.96513c2.7897,11.02963 6.402,21.93089 9.63506,32.84104c0.61253,2.06704 1.31515,4.11019 1.8376,6.2011c0.02812,0.11253 0.0614,0.22631 0.09822,0.34101c0.02103,-0.00087 0.04242,-0.00137 0.06417,-0.00149c1.40657,-0.00781 1.52847,1.59212 1.52847,1.59212c0.05766,0.76072 0.4157,4.42402 0.16958,5.22727c-0.32618,1.06454 -1.15372,1.81069 -1.59985,2.80875c-0.57509,1.28652 -0.91518,2.70416 -1.3192,4.08761c0.43241,2.48064 0.91437,4.95578 1.60701,7.39895c1.93712,6.83278 4.03806,13.62588 6.05596,20.43539c1.2494,4.21617 2.62344,8.29993 3.26206,12.64247c0.55771,2.07765 0.78853,4.22209 1.21031,6.32868c0.38708,1.9333 1.2852,3.75005 1.66509,5.68454c1.23599,6.29406 0.70399,12.90108 1.60855,19.18944c0.24688,1.71631 1.10953,3.65427 1.59748,5.32755c0.39129,1.3418 0.43011,2.75358 0.6249,4.13234c0.45704,3.23501 1.9574,6.0546 2.21218,9.39884c0.53333,1.76102 1.23006,3.59119 1.60771,5.38861c0.21358,1.01655 0.94971,2.23414 0.48511,3.07242c-0.56,1.0104 -1.94007,0.97112 -2.94547,1.36678c-1.55632,0.61248 -3.20382,0.95019 -4.80605,1.4242c-5.49154,1.6246 -10.72869,4.18143 -16.11354,6.12155c-1.72849,0.62277 -3.59234,0.83698 -5.28387,1.56018c-1.4194,0.60685 -2.68864,1.68658 -4.21342,1.93134c-0.93143,0.14951 -2.1325,0.98609 -2.83515,0.19158c-2.07803,-2.34973 -0.88372,-4.17842 -0.10815,-5.93978c-0.16,-5.26717 0.25316,-10.64234 -0.33549,-15.93728c-0.53047,-4.77155 -2.06674,-9.42732 -2.96518,-14.1086c-0.68843,-3.587 0.25681,-7.22479 -0.28035,-10.77405c-0.09647,-0.63738 -0.45933,-1.22249 -0.55128,-1.86032c-0.22023,-1.52761 0.07543,-3.07628 -0.20809,-4.5962c-0.03099,-0.16608 -0.06329,-0.33208 -0.09652,-0.49802c-0.00385,0.00783 -0.00654,0.01306 -0.00799,0.01551c-1.78631,3.02631 -3.96527,5.93278 -6.47086,8.15375c-3.56087,3.15636 -6.62139,7.01855 -10.25661,10.04136c-5.89541,4.90223 -13.44654,6.88331 -19.96225,10.52878c-6.88969,3.5938 -13.588,6.79435 -21.01839,8.99623c-2.17597,0.64481 -4.89981,2.06501 -7.20283,2.10401c-2.42737,0.04111 -6.29861,-0.74847 -8.6512,-1.77163c-1.47832,-0.64293 -2.59642,-2.147 -3.98383,-3.04246c-0.66401,-0.42856 -1.51527,-0.36929 -2.13247,-0.88603c-1.59591,-1.33615 -3.11786,-5.00537 -4.01519,-6.81945c-1.58607,-2.93344 -2.32694,-5.90511 -2.78939,-8.93641c-0.06185,0.15437 -0.12649,0.30775 -0.19429,0.46002l-1.34345,0.89206c0,0 -1.33501,0.39561 -1.79441,-1.15467c-0.41469,-1.39941 0.63278,-1.85795 0.84057,-1.93394zM278.53961,219.97113c-0.04588,0.01359 -0.09201,0.02434 -0.13824,0.03234c0.42939,1.87142 1.05764,3.71062 2.04628,5.50705c0.7487,1.51913 1.55486,3.00881 2.429,4.447c0.26074,0.42899 0.36553,1.02043 0.74615,1.31224c0.53105,0.40716 1.25035,0.28812 1.8066,0.64494c1.25528,0.80525 2.22054,2.25454 3.56135,2.81643c2.05312,0.86039 5.31301,1.57246 7.43807,1.55533c2.08788,-0.01684 4.70315,-1.42415 6.68133,-2.01035c7.27161,-2.15484 13.81608,-5.28928 20.55871,-8.80639c6.3633,-3.5358 13.8154,-5.46011 19.55094,-10.25012c2.14388,-1.79045 3.89362,-4.15184 5.85678,-6.15616c1.95905,-2.0001 4.52574,-3.43855 6.35054,-5.58943c2.09383,-2.46799 3.68147,-5.41116 5.13508,-8.43132l0.3036,-2.55018c0.05868,-0.58782 0.41122,-1.08676 0.94416,-1.24469c0.7373,-0.21849 1.54069,0.29846 1.79441,1.15465c0.05456,0.18411 0.07926,0.36893 0.07708,0.5478l0.01657,1.93614c0.1201,1.62891 0.61551,3.22912 0.90582,4.84616c0.28037,1.56169 -0.00539,3.15104 0.22853,4.71832c0.09516,0.63751 0.46044,1.22237 0.55128,1.86032c0.49987,3.51025 -0.43869,7.13656 0.25993,10.65194c0.9466,4.76316 2.46397,9.51368 3.00413,14.37231c0.62651,5.63542 0.32963,11.44397 0.28856,17.03704c-0.3745,0.81343 -0.88482,1.55772 -1.10707,2.45101c-0.06996,0.28116 0.14746,-0.61577 0.36889,-0.75788c0.44995,-0.28878 1.03979,-0.23157 1.52114,-0.45514c0.84553,-0.39274 1.58471,-1.02198 2.44201,-1.38565c2.4039,-1.01975 4.99052,-1.42796 7.39481,-2.49133c2.46955,-1.09223 4.93891,-1.68492 7.4622,-2.59532c2.30343,-0.83109 4.44594,-1.98969 6.79901,-2.68813c1.60181,-0.47545 3.15064,-1.16978 4.80605,-1.4242c0.43211,-0.06642 0.97537,0.37194 1.32658,0.10082c0.21429,-0.16543 -0.48743,-0.36919 -0.61745,-0.64825c-0.27211,-0.58406 -0.36752,-1.24022 -0.55128,-1.86033c-0.38623,-1.30337 -0.76883,-2.60781 -1.14869,-3.91304c-0.25854,-3.39342 -1.73267,-6.2149 -2.23263,-9.52095c-0.1016,-0.67187 0.07774,-1.34605 -0.01727,-2.01857c-0.35438,-2.50832 -1.83064,-4.92359 -2.20513,-7.44132c-0.22711,-1.52695 0.05153,-3.07298 -0.20809,-4.59621c-0.53155,-3.11867 -0.84607,-6.20769 -0.99956,-9.41009c-0.07962,-1.66141 -0.0381,-3.34119 -0.36581,-4.98607c-0.38626,-1.93871 -1.27593,-3.76224 -1.66823,-5.69993c-0.42495,-2.099 -0.6478,-4.23794 -1.20614,-6.30824c-0.61943,-4.24022 -1.96528,-8.22016 -3.18546,-12.33773c-2.02346,-6.82828 -4.13035,-13.64011 -6.07223,-20.49189c-0.31554,-1.11339 -0.58666,-2.23408 -0.82896,-3.35929c-0.55579,1.2679 -1.07421,2.44996 -1.09265,2.492c-2.79475,6.37344 -4.97202,13.23501 -8.20212,19.32745c-1.8941,3.57255 -4.28991,6.78014 -6.57452,10.01333c-5.31595,7.40824 -11.26955,13.93395 -17.07602,20.81501c-6.46084,7.65651 -13.21409,15.25746 -21.71297,20.09247c-2.32414,1.3192 -4.64639,3.1039 -7.08334,4.15856c-3.22918,1.39753 -6.72996,2.67731 -10.10498,3.67906c-1.52611,0.45297 -2.97879,1.37638 -4.59106,1.31538c-1.04822,-0.03965 -2.08444,-0.47011 -3.12557,-0.71507c-4.4624,-1.04995 -8.02534,-2.626 -11.87024,-5.3757c-0.16132,0.33368 -0.43643,0.59054 -0.79172,0.69582c-0.60054,0.17796 -1.24493,-0.13199 -1.60042,-0.71575l-1.06551,-1.67106l0.06774,-0.05229l-0.19071,-0.17442c-0.12477,-0.40875 -0.25399,-0.81975 -0.38628,-1.23265c-0.42314,-0.42739 -0.83723,-0.91203 -1.25485,-1.50023c-0.70999,-0.99999 -1.34964,-2.14091 -1.92821,-3.35337c-0.22843,0.60087 -0.47465,1.19403 -0.74829,1.77556l0.17299,2.27073c0.06966,0.73036 -0.3093,1.40328 -0.94463,1.59155zM378.05552,129.43298c0.08384,0.2844 0.16466,0.56932 0.24274,0.85473c0.11742,-0.00508 0.23463,-0.01083 0.35148,-0.01773c0.36082,-0.02134 0.95993,0.06754 1.0251,-0.331c0.08484,-0.51884 -0.54952,-0.93287 -0.73507,-1.4426c-0.737,-2.0245 -1.22506,-4.13406 -1.8376,-6.2011c-3.54923,-11.97708 -7.70203,-24.00727 -10.38255,-36.19975c-0.64552,-2.93626 -1.45944,-5.72204 -2.31419,-8.60644c-0.46072,-1.55473 -0.70148,-3.01981 -1.21054,-4.32903c-2.40519,1.07796 -4.89195,1.75672 -7.45994,2.5139c2.05197,6.92452 4.10394,13.84902 6.15592,20.77353c2.10223,7.09409 4.28599,14.12525 5.92041,21.33771c0.71275,3.1452 1.46164,6.28075 2.21025,9.41833c0.29693,1.24452 0.35705,2.57199 0.76897,3.77306c1.16213,-0.13853 2.34015,-0.18421 3.5373,-0.11024c0.29435,-0.08388 0.5888,-0.16734 0.88258,-0.25298c0.08901,-0.02594 0.17857,-0.04949 0.26862,-0.07089c-0.03075,-0.10618 -0.06191,-0.21228 -0.0935,-0.31829c0,0 -0.45941,-1.55028 0.87561,-1.94589c1.33502,-0.39561 1.79441,1.15467 1.79441,1.15467zM379.46541,133.39861c-0.1279,0.05448 -0.26169,0.07718 -0.39935,0.07991c0.15734,0.74102 0.30287,1.48422 0.44099,2.22888c0.39792,-0.67125 0.97912,-1.21154 1.2475,-1.96774c0.11371,-0.32038 0.15686,-0.65943 0.15671,-1.00983c-0.46779,0.26468 -0.97897,0.46989 -1.44586,0.66878zM306.32118,146.32673c0.02003,-0.00198 0.04007,-0.00392 0.06012,-0.00585c-0.10047,-0.33903 -0.20094,-0.67808 -0.30141,-1.01712c-0.50001,0.44172 -0.98089,0.89496 -1.44164,1.37143c0.56858,-0.16543 1.13402,-0.29447 1.68293,-0.34847zM363.86386,120.75721c1.271,3.61396 2.08058,7.32908 2.84886,11.06037c0.48488,-0.13789 0.97199,-0.26454 1.46158,-0.37783c-0.03455,-0.1516 -0.0708,-0.30143 -0.1121,-0.44716c-0.8812,-3.10976 -1.53412,-6.34425 -2.26621,-9.49097c-1.90777,-8.20005 -4.18101,-16.18376 -6.57514,-24.2629c-2.05196,-6.92446 -4.10392,-13.84891 -6.15588,-20.77337c-3.10028,0.91902 -6.20071,1.83746 -9.30111,2.75602c0.44607,0.58211 0.89103,1.1638 1.3355,1.74408c4.0486,7.15125 7.50171,14.39866 10.96849,21.8924c2.71565,5.87012 5.63907,11.76626 7.79602,17.89936zM352.02589,72.95895c-0.19265,0.22107 -0.40831,0.43114 -0.62855,0.6278c0.2496,-0.07399 0.49922,-0.14797 0.74882,-0.22196c-0.04008,-0.13528 -0.08017,-0.27056 -0.12026,-0.40584z" data-paper-data="{&quot;index&quot;:null}" fill="#000000" stroke="none" stroke-width="0.5" stroke-linecap="butt"/><path d="M364.0673,132.70515c-2.91164,1.04958 -5.76202,2.37453 -8.60309,3.48468c-5.15402,2.01395 -10.54561,3.42495 -15.8437,5.00034c-4.28789,1.275 -8.54513,2.7296 -12.95225,3.54205c-2.67211,0.49436 -5.4173,1.16156 -8.13706,1.39187c-3.04642,0.25796 -6.20978,0.03183 -9.29736,0.0796c-0.25156,-0.84886 -0.50391,-1.6981 -0.75546,-2.54698l0.82261,-0.28454c0,0 1.3174,-0.33664 0.858,-1.88692c-0.4594,-1.55027 -1.79561,-1.15524 -1.79561,-1.15524l-0.79881,0.246c-3.89647,-13.14864 -7.81001,-26.32029 -11.70607,-39.46904c-2.02029,-6.81949 -3.68655,-13.62848 -4.9328,-20.55022c-0.36866,-2.04757 -0.24865,-4.14411 -0.63553,-6.18899c-0.62533,-3.30513 -1.3449,-5.64305 -1.07525,-9.01067c0.24855,-3.10397 1.02534,-6.73089 3.08178,-8.8618c0.4211,-0.43636 1.00223,-0.65413 1.41906,-1.09565c1.49464,-1.58312 1.62502,-2.36765 3.67912,-2.94439c6.11514,-1.40356 11.45167,0.56162 17.18637,3.7356c2.96385,1.6404 6.24721,3.24814 9.00922,5.32534c5.59661,4.20899 10.32435,9.69083 14.79002,15.35923c-0.10677,0.1149 -0.20603,0.26451 -0.29262,0.45696c-0.61915,1.37595 0.65137,2.1943 0.65137,2.1943l1.7977,0.63796c0.10893,-0.03228 0.21798,-0.06441 0.32691,-0.09669c0.6843,0.88773 1.36784,1.77889 2.04859,2.66242c3.9377,7.00065 7.31606,14.11011 10.70468,21.43491c2.66561,5.76198 5.54223,11.55939 7.65944,17.57952c1.25813,3.57739 2.03433,7.26529 2.79071,10.96034z" data-paper-data="{&quot;noHover&quot;:false,&quot;origItem&quot;:[&quot;Path&quot;,{&quot;applyMatrix&quot;:true,&quot;segments&quot;:[[[247.35772,172.04668],[-5.45713,-0.39766],[9.89987,0.72141]],[[277.16498,172.49492],[-9.92417,-0.00796],[8.0319,0.00645]],[[301.25313,172.05759],[-8.00118,0.73163],[4.85215,-0.441]],[[315.96239,170.5495],[-4.79948,0.85336],[5.37592,-0.95586]],[[332.00001,166.58808],[-5.33955,1.28556],[0,-1.36891]],[[332.00003,162.48138],[0,1.36891],[0,0]],[330.5,162.5],[[328,160],[0,2.5],[0,-2.5]],[330.5,157.5],[[332.00005,157.51424],[0,0],[0.00013,-21.20374]],[[331.99982,93.90303],[0.00065,21.20374],[-0.00097,-10.99696]],[[330.01781,61.29782],[1.3856,10.80852],[-0.40988,-3.19734]],[[327.95902,51.84898],[0.37715,3.20137],[-0.60958,-5.17435]],[[325.2194,38.02414],[2.18211,4.87381],[-2.01128,-4.49227]],[[315.40162,26.24579],[4.62714,2.25555],[-0.94752,-0.46187]],[[312.40162,25.24579],[0.94281,0.47141],[-3.38057,-1.69028]],[[304.57104,22.49899],[3.83027,-0.04737],[-11.24303,0.60568]],[[276.90915,35.58892],[8.25297,-7.22446],[-4.26536,3.7338]],[[264.12935,47.43864],[3.69507,-4.29268],[-7.48723,8.69815]],[[246.53087,76.68347],[4.79588,-10.3648],[0.24241,0.12344]],[[247.26777,77.23224],[-0.24724,-0.24725],[1.76776,1.76776]],[247.26777,80.76777],[[244.5,82.5],[0,0],[-0.20399,0]],[[243.88802,82.5],[0.20399,0],[-0.72514,1.61662]],[[241.72168,87.34061],[0.72116,-1.60882],[-3.2074,12.10786]],[[234.22371,123.78201],[2.0968,-12.34717],[-1.64942,9.71274]],[[229.99625,153.19492],[0.57366,-9.85455],[-0.34089,5.85595]],[[230.77787,170.66455],[-0.58288,-5.80996],[5.54772,0.27687]]],&quot;closed&quot;:true}],&quot;index&quot;:null}" fill="#ffffff" stroke="none" stroke-width="0.5" stroke-linecap="butt"/><path d="M278.37395,220.00847c0.04624,-0.00801 0.09237,-0.01875 0.13824,-0.03234c0.63533,-0.18827 1.01415,-0.86185 0.94449,-1.59221l-0.1732,-2.27182c0.27364,-0.58153 0.57554,-1.18016 0.80398,-1.78103c0.57856,1.21247 1.21794,2.35161 1.92793,3.3516c0.41762,0.5882 0.83155,1.072 1.25469,1.49939c0.13228,0.4129 0.26137,0.82324 0.38614,1.232l0.19069,0.17432l-0.06775,0.05228l1.06527,1.67011c0.35549,0.58376 0.99972,0.89315 1.60026,0.71519c0.35529,-0.10528 0.63047,-0.36187 0.79179,-0.69556c3.8449,2.74968 7.40602,4.3205 11.86842,5.37045c1.04113,0.24496 2.07675,0.67411 3.12497,0.71377c1.61227,0.061 3.06457,-0.8632 4.59067,-1.31616c3.37501,-1.00175 6.87467,-2.28359 10.10385,-3.68112c2.43695,-1.05467 4.75851,-2.84046 7.08265,-4.15966c8.49888,-4.83502 15.21051,-12.397 21.67134,-20.05351c5.80648,-6.88105 11.76064,-13.40616 17.0766,-20.81438c2.28461,-3.2332 4.68096,-6.4402 6.57506,-10.01275c3.2301,-6.09243 5.40899,-12.95241 8.20375,-19.32586c0.01843,-0.04205 0.5698,-1.27288 1.12559,-2.54076c0.2423,1.12521 0.51417,2.2466 0.82972,3.35998c1.94188,6.85177 4.05379,13.66967 6.07725,20.49795c1.22018,4.11757 2.56873,8.10241 3.18816,12.34262c0.55835,2.07029 0.78232,4.21202 1.20728,6.31102c0.39229,1.93769 1.28284,3.76396 1.66909,5.70267c0.32771,1.64488 0.28676,3.32702 0.36639,4.98842c0.15348,3.20241 0.46867,6.29607 1.00023,9.41475c0.25962,1.52323 -0.01891,3.07152 0.2082,4.59848c0.37447,2.51773 1.85063,4.93646 2.20501,7.44478c0.09501,0.67251 -0.08441,1.34763 0.01719,2.01951c0.49996,3.30605 1.97344,6.13141 2.23197,9.52483c0.37987,1.30522 0.76211,2.61104 1.14835,3.91441c0.18376,0.62011 0.279,1.27689 0.55111,1.86095c0.13,0.27905 0.83168,0.48296 0.6174,0.64838c-0.35121,0.27113 -0.89453,-0.16702 -1.32664,-0.10062c-1.65541,0.2544 -3.20473,0.9502 -4.80654,1.42565c-2.35306,0.69845 -4.49662,1.85963 -6.80006,2.69071c-2.52329,0.91039 -4.99427,1.50612 -7.46383,2.59835c-2.40429,1.06336 -4.99322,1.4748 -7.39712,2.49455c-0.8573,0.36367 -1.59756,0.99416 -2.4431,1.3869c-0.48134,0.22358 -1.07181,0.16701 -1.52177,0.45579c-0.22143,0.14212 -0.47764,0.98914 -0.40769,0.70796c0.22225,-0.89327 0.7315,-1.63651 1.10601,-2.44995c0.04106,-5.59306 0.33309,-11.39441 -0.29342,-17.02984c-0.54015,-4.85865 -2.06037,-9.59928 -3.00696,-14.36244c-0.69862,-3.51538 0.24014,-7.13154 -0.25973,-10.64177c-0.09085,-0.63794 -0.45578,-1.22099 -0.55094,-1.85852c-0.23392,-1.56729 0.05298,-3.15243 -0.22739,-4.71411c-0.29031,-1.61703 -0.78408,-3.21318 -0.90418,-4.84208l-0.01589,-1.93479c0.00217,-0.17887 -0.02233,-0.36328 -0.07689,-0.5474c-0.25372,-0.85619 -1.05624,-1.37164 -1.79355,-1.15315c-0.53294,0.15793 -0.83944,0.62419 -0.89812,1.212l-0.30267,2.55185c-1.4536,3.02016 -3.0388,5.96925 -5.13263,8.43724c-1.8248,2.15088 -4.38999,3.5966 -6.34902,5.5967c-1.96317,2.00432 -3.71706,4.38625 -5.86094,6.1767c-5.73555,4.79001 -13.22967,6.71779 -19.59297,10.2536c-6.74264,3.51711 -13.29165,6.64565 -20.56327,8.80049c-1.97818,0.5862 -4.59417,1.99231 -6.68204,2.00913c-2.12505,0.01713 -5.38626,-0.69748 -7.43938,-1.55787c-1.34081,-0.5619 -2.3069,-2.01311 -3.56218,-2.81835c-0.55625,-0.35684 -1.27579,-0.23839 -1.80684,-0.64555c-0.38061,-0.29182 -0.48566,-0.88395 -0.7464,-1.31292c-0.87414,-1.43819 -1.68104,-2.93016 -2.42973,-4.44929c-0.98864,-1.79643 -1.61755,-3.63833 -2.04694,-5.50975z" data-paper-data="{&quot;noHover&quot;:false,&quot;origItem&quot;:[&quot;Path&quot;,{&quot;applyMatrix&quot;:true,&quot;segments&quot;:[[[422.5,262.5],[0.0859,0],[-1.18975,0]],[[420.06196,260.5556],[0.25265,1.1133],[0,0]],[[419.20141,257.11339],[0,0],[-0.76771,-0.74187]],[[417.00747,254.80995],[0.69977,0.7904],[-0.37747,2.05158]],[[415.39877,260.62818],[0.71209,-1.79431],[-0.41886,1.05542]],[[414.00388,263.40343],[0.51039,-0.81947],[-0.0171,0.6702]],[[413.96772,265.40046],[0.00627,-0.66077],[0,0]],[413.7284,265.7428],[413.87171,265.79057],[[412.88994,268.73588],[0,0],[-0.31417,1.02156]],[[410.5,270.5],[1.1246,0],[-0.66532,0]],[[408.78212,269.81629],[0.44793,0.42381],[-5.21617,5.76531]],[[391.09017,283],[7.14627,-3.51681],[-1.6673,0.82051]],[[386.07438,285.43312],[1.78424,-0.51927],[-2.74435,0.79869]],[[377.5,285.5],[2.85821,0.00108],[-6.32101,-0.00239]],[[358.22777,284.48514],[6.27186,0.65317],[-4.73315,-0.49293]],[[343.91262,281.43203],[4.6739,0.93464],[-17.09706,-3.43407]],[[296.28461,261.18468],[15.02794,8.51207],[-13.5059,-7.64996]],[[256.27036,237.8292],[12.93043,8.64695],[-5.58225,-3.78938]],[[239.84441,225.87324],[5.08311,4.464],[-8.66846,-7.61267]],[[215.86516,200.82469],[8.06239,8.22051],[-0.05318,-0.05422]],[[212.71296,197.61046],[1.60357,1.63541],[0.15688,1.77448]],[[212.99959,202.95454],[-0.02477,-1.78914],[0.15243,11.01039]],[[213,236],[0,-11.01141],[0,6.64005]],[[213.81019,255.68926],[-1.09673,-6.55796],[0.09495,3.31436]],[[214.95188,265.57069],[-0.33922,-3.29833],[0.31315,3.04484]],[[214.9878,274.75331],[-0.32408,-3.04369],[0.27496,2.58239]],[[216.90161,282.30555],[-0.71046,-2.49791],[1.36943,4.81478]],[[219.98127,296.69454],[-0.67587,-4.85676],[0.33011,2.37216]],[[221.96772,303.59954],[-0.38797,-2.36339],[0.63971,3.8969]],[[221.96772,315.59954],[-0.66953,-3.87411],[0.17951,1.0387]],[[222.96772,318.59954],[-0.16784,-1.04064],[0.82587,5.12065]],[[223.98127,333.69454],[-1.28603,-5.14412],[0.01191,2.10179]],[[224,340],[0,-2.10183],[0,1]],[[224,343],[0.17048,-0.98536],[-0.08145,0.4708]],[[223.26777,344.23223],[-0.45327,-0.15109],[0.7429,0.24763]],[[225.5,343.5],[-0.77774,0.09138],[2.97951,-0.35007]],[[234.5,343.5],[-3,-0.00115],[4.40703,0.00168]],[[247.57559,344.49818],[-4.38926,-0.22012],[4.80819,0.24113]],[[261.7455,345.06745],[-4.80846,-0.53429],[4.68136,0.52017]],[[275.74634,345.51217],[-4.65845,-0.45568],[1.66134,0.16251]],[[280.65705,346.49353],[-1.65591,-0.21076],[0.94266,0.11998]],[[283.50784,346.50001],[-0.9219,-0.23043],[0.45368,0.1134]],[[284.52949,347.46147],[0.26386,0.38609],[-0.83828,-1.22661]],[[281.37337,344.31433],[1.05966,1.04135],[-2.92389,-8.27334]],[[273.17899,318.93122],[1.79629,8.62939],[-1.54869,-7.43991]],[[271.01873,296.30546],[0.8003,7.47693],[-0.59065,-5.51823]],[[266.03228,280.40046],[0.93018,5.42329],[-0.16905,-0.98561]],[[266.03228,277.40046],[0.16142,0.98689],[-0.39684,-2.42615]],[[264.01873,270.30546],[0.31401,2.43826],[-0.32514,-2.52468]],[[263.1059,262.72341],[0.62421,2.46751],[0,0]],[[262.14675,259.84593],[0,0],[-0.09499,-0.2642]],[[262,259],[0,0.29691],[0,-1.38071]],[[264.5,256.5],[-1.38071,0],[0.99801,0]],[[266.76029,257.93041],[-0.40086,-0.84561],[0,0]],[[268.58385,261.57752],[0,0],[4.04302,3.83863]],[[281.72481,271.82059],[-4.86346,-2.73881],[4.23857,2.38691]],[[295.50842,277.31678],[-4.39274,-2.10443],[4.40199,2.10886]],[[308.73113,283.87003],[-4.60398,-1.71242],[12.3171,4.58127]],[[347.61638,290.4765],[-12.75795,-2.44622],[13.40142,2.25186]],[[387.5,294.5],[-13.61711,0],[3.70442,0]],[[400.02723,294.54511],[-3.60279,0.89226],[3.66696,-0.90815]],[[412.03822,288.97189],[-3.09547,2.17741],[2.02153,-1.42198]],[[416.73223,283.23223],[-1.75014,1.74516],[0.77554,-0.77333]],[[419.51323,281.48252],[-0.70649,0.83688],[0.50635,-0.59979]],[[420.12829,279.20943],[-0.23002,0.75048],[0.77114,-2.51604]],[[422.04118,271.54999],[-0.5139,2.5809],[0.7855,-3.09742]],[[422.75446,262.48721],[0.21549,2.96289],[-0.08367,0.00846]]],&quot;closed&quot;:true}],&quot;index&quot;:null}" fill="#ffffff" stroke="none" stroke-width="0.5" stroke-linecap="butt"/><path d="M366.70118,131.78738c-0.76827,-3.73129 -1.58005,-7.44538 -2.85104,-11.05933c-2.15694,-6.13308 -5.06054,-11.96839 -7.7762,-17.83851c-3.46678,-7.49374 -6.91225,-14.74374 -10.96085,-21.89499c-0.44446,-0.58028 -0.91735,-1.21999 -1.36342,-1.80209c3.10041,-0.91857 6.2112,-1.84006 9.31147,-2.75907c2.05196,6.92446 4.11765,13.8519 6.16961,20.77636c2.39413,8.07913 4.67331,16.11967 6.58109,24.31972c0.7321,3.14672 1.38233,6.38277 2.26354,9.49254c0.04129,0.14574 0.07748,0.29561 0.11202,0.4472c-0.48958,0.11329 -1.00131,0.1803 -1.48622,0.31819z" data-paper-data="{&quot;noHover&quot;:false,&quot;origItem&quot;:[&quot;Path&quot;,{&quot;applyMatrix&quot;:true,&quot;segments&quot;:[[[450.00939,305.80869],[-0.68875,11.8316],[1.16885,-20.07893]],[[458.58857,245.88979],[-3.36077,19.79014],[4.29032,-25.26388]],[[474.0164,171.34468],[-6.64294,24.75962],[0.93822,-2.11095]],[[476.83502,165.00034],[-0.94189,2.11778],[-11.61167,0.00056]],[[442,165.00105],[11.61167,0.00083],[0,22.33298]],[[442,232],[0,-22.33298],[0,26.05709]],[[444.11673,309.71335],[-1.79785,-25.98829],[0.68992,9.97284]],[[445.99757,339.84398],[-0.13884,-9.99428],[0.00651,0.46836]],[[446.06783,341.26824],[-0.03573,-0.47978],[1.80119,-0.09427]],[[451.48548,341.1043],[-1.81015,0.01721],[-1.16176,-11.73782]]],&quot;closed&quot;:true}],&quot;index&quot;:null}" fill="#ffffff" stroke="none" stroke-width="0.5" stroke-linecap="butt"/><path d="M378.31033,130.31765c-0.07809,-0.28541 -0.15881,-0.57038 -0.24265,-0.85477c0,0 -0.46076,-1.54972 -1.79578,-1.15411c-1.33501,0.39561 -0.8772,1.94641 -0.8772,1.94641c0.03161,0.10601 0.06276,0.21212 0.0935,0.31829c-0.09005,0.0214 -0.17991,0.04504 -0.26892,0.07098c-0.29378,0.08564 -0.58923,0.16938 -0.88358,0.25325c-1.19716,-0.07397 -2.37908,-0.02769 -3.5412,0.11084c-0.41191,-1.20105 -0.47242,-2.52851 -0.76935,-3.77303c-0.74861,-3.13758 -1.49995,-6.27312 -2.21268,-9.41831c-1.63442,-7.21246 -3.83952,-14.2998 -5.94175,-21.39391c-2.05198,-6.92451 -4.09637,-13.85453 -6.14835,-20.77904c2.56799,-0.75719 5.06298,-1.43812 7.46816,-2.5161c0.50906,1.30924 0.75059,2.77426 1.21131,4.32899c0.85475,2.88441 1.67124,5.67018 2.31677,8.60643c2.68051,12.19248 6.84888,24.2833 10.39811,36.26038c0.61253,2.06703 1.09943,4.17724 1.83643,6.20175c0.18556,0.50972 0.81999,0.92371 0.73514,1.44255c-0.06518,0.39854 -0.66533,0.31018 -1.02616,0.33152c-0.11686,0.00691 -0.23439,0.0128 -0.3518,0.01787z" data-paper-data="{&quot;noHover&quot;:false,&quot;origItem&quot;:[&quot;Path&quot;,{&quot;applyMatrix&quot;:true,&quot;segments&quot;:[[[410,344],[0.0015,0.91685],[0,0]],[[415,339],[-5,0],[5,0]],[[420,344],[0,0],[-0.00061,0.34206]],[[420.00284,345.0258],[-0.00248,-0.34181],[0.33188,-0.01565]],[[421,345],[-0.33291,0.00128],[1.09883,-0.00422]],[[424.29676,344.97463],[-1.09897,0.00992],[4.04627,-1.27115]],[[436.58794,342.19363],[-4.14246,0.61035],[0.1928,-3.92291]],[[435.38595,330.33137],[0.24741,3.95073],[-0.62374,-9.96027]],[[433.3865,300.46531],[0.75501,9.9513],[-1.73137,-22.82001]],[[432,232],[0,22.88015],[0,-22.33316]],[[432,165.00053],[0,22.33316],[-9.61395,0.01126]],[[403.75106,164.10138],[9.38071,1.08287],[-0.41688,4.32894]],[[404,178],[0,-5.01439],[0,9.30288]],[[404.81318,205.55023],[-0.77321,-9.27279],[3.21069,38.50429]],[[406,322],[0,-38.62886],[0,6.66667]],[[406,342],[0.4719,-6.64994],[-0.11881,1.67431]],[[404.94103,346.92294],[-0.82148,-1.46376],[0.631,1.12435]],[[408.80812,347.00368],[-1.2641,0.25374],[0.40939,-0.08218]],[[410.0363,346.74743],[-0.40943,0.08812],[-0.02239,-0.91481]]],&quot;closed&quot;:true}],&quot;index&quot;:null}" fill="#ffffff" stroke="none" stroke-width="0.5" stroke-linecap="butt"/><path d="M277.27052,217.64894c-1.33502,0.39561 -1.79442,-1.15467 -1.79442,-1.15467l-0.26052,-1.13066c-0.04677,-6.07809 1.75502,-11.79742 3.11199,-17.5139c0,0 0.23077,-0.97218 1.02784,-1.0817c0.24249,-1.00829 0.54308,-2.0025 0.7516,-3.01854c0.38174,-1.86008 0.56668,-3.80674 1.15332,-5.57991c0.91323,-2.76037 2.45198,-5.43153 3.62748,-8.04385c4.64358,-10.31945 10.99325,-19.33991 16.50742,-29.01561l0.80078,-0.23765c1.43325,-0.42472 3.09824,-1.24867 4.59245,-1.38388c0.16856,-0.01525 0.37682,0.0204 0.5461,0.008c0.14516,0.48987 0.29068,0.9794 0.43584,1.46927l0.36782,1.2399c0,0 0.41943,1.50153 1.75445,1.10592c1.33503,-0.39561 0.87689,-1.94709 0.87689,-1.94709c-0.07706,-0.26003 -0.52117,-1.76068 -0.59822,-2.0207c2.92445,-0.01708 5.90755,0.15395 8.78838,-0.09001c2.79896,-0.23702 5.62609,-0.91749 8.37629,-1.42616c4.49129,-0.8335 8.83213,-2.29835 13.20296,-3.59801c5.36257,-1.59456 10.81432,-3.01809 16.03173,-5.05486c0.93445,-0.3648 1.87598,-0.76072 2.82361,-1.16671c0.56143,0.47922 1.26579,0.27112 1.26579,0.27112l1.0687,-0.31634c3.05438,-0.90641 6.01728,-1.8692 8.9075,-3.20368c0.22858,0.10085 0.46182,0.17954 0.69434,0.23266c1.55408,0.35504 3.32088,-0.8178 4.94544,-1.41532c0.56211,2.51289 0.97017,5.05987 1.39776,7.6041c-0.12559,0.38652 -0.21744,0.66392 -0.25323,0.75796c-0.71278,1.87296 -1.59845,3.64369 -2.39715,5.46551c-2.76456,6.306 -4.90901,13.11505 -8.10577,19.14142c-1.83315,3.4558 -4.15999,6.56178 -6.37019,9.68971c-5.26694,7.33983 -11.17718,13.83258 -16.93218,20.64816c-6.26147,7.41537 -12.81601,14.86672 -21.06218,19.53677c-2.24859,1.27649 -4.50578,3.03401 -6.86658,4.04602c-3.14571,1.34848 -6.53763,2.59969 -9.82367,3.57185c-1.322,0.3911 -2.55699,1.29645 -3.95425,1.21554c-5.08471,-0.29441 -10.04744,-3.04069 -14.31474,-6.2703c-1.26389,-0.95654 -2.49592,-1.74751 -3.48059,-3.15111c-2.02059,-2.88026 -3.4291,-7.13658 -4.43772,-10.52949c-0.02203,-0.19017 -0.04711,-0.38045 -0.07443,-0.57083c-0.86792,3.54297 -1.59728,7.1435 -1.56198,10.86162l0.10699,0.10958c0,0 0.4594,1.55027 -0.87562,1.94588z" data-paper-data="{&quot;index&quot;:null}" fill="#ffffff" stroke="none" stroke-width="0.5" stroke-linecap="butt"/><path d="M342.1021,122.88547c-1.34438,0.3629 -1.77559,-1.19536 -1.77559,-1.19536l-0.70383,-2.54375c-1.77979,-6.91751 -3.25396,-13.55307 -6.01863,-20.17838c0,0 -0.62144,-1.48924 0.64628,-2.07408c1.26772,-0.58484 1.88916,0.90439 1.88916,0.90439c2.83038,6.78277 4.35162,13.57587 6.18065,20.65421l0.69515,2.5118c0,0 0.4312,1.55826 -0.91319,1.92116z" data-paper-data="{&quot;index&quot;:null}" fill="#000000" stroke="none" stroke-width="0.5" stroke-linecap="butt"/><path d="M312.6002,130.05121c-0.54498,-1.52137 0.75745,-2.01664 0.75745,-2.01664l0.92115,-0.00945c-1.35734,-6.24665 -0.87708,-12.9695 -3.26138,-19.01626c-0.7066,-1.79198 -1.76807,-3.40152 -2.64851,-5.10443c0,0 -0.73807,-1.42754 0.4655,-2.15003c1.20356,-0.72249 1.94163,0.70505 1.94163,0.70505c0.93413,1.80674 2.04999,3.52142 2.7952,5.42458c2.59425,6.62532 2.96219,15.06666 3.13562,21.99329l-2.25928,1.19997c0,0 -1.30242,0.49526 -1.8474,-1.02611z" data-paper-data="{&quot;index&quot;:null}" fill="#000000" stroke="none" stroke-width="0.5" stroke-linecap="butt"/><path d="M315.21951,205.05541c-1.97835,0.58598 -3.95687,1.17138 -5.9357,1.75569c-0.67438,0.19913 -5.03266,1.51903 -5.64316,1.54301c-3.60339,0.14152 -6.79145,-2.10549 -8.91857,-5.38771c-0.82366,-2.70075 -1.22365,-5.15289 -1.74764,-7.91087c-0.21027,-1.10679 -0.6788,-2.17281 -0.79869,-3.28862c-0.11898,-1.10738 0.13314,-2.1964 0.09037,-3.30389c-0.12561,-3.25262 -0.66645,-6.54325 0.18893,-9.69079c0.51517,-1.8957 1.84092,-3.70535 2.81859,-5.24571c2.06145,-3.24789 4.07426,-6.81357 7.05868,-9.09803c2.40834,-1.84349 5.381,-2.34576 8.18327,-3.17617c3.27697,-0.97108 6.54869,-1.88621 9.86554,-2.71287c2.79652,-0.35203 5.30309,-1.1156 7.99542,-1.90303c3.48802,-1.02017 7.03546,-1.16042 10.59239,-1.78392c3.27446,-0.57398 6.5345,-1.29431 9.98731,-0.83935c4.32923,0.57042 7.5184,3.88474 6.96171,9.02893c-0.04729,0.4369 -0.82127,3.44661 -0.99314,4.12079c-0.72089,2.82781 -1.59766,5.14828 -2.97382,7.5923c-5.17624,9.15854 -12.24703,16.59109 -19.76438,23.22329c-2.53547,2.23692 -5.17367,4.8176 -7.99178,6.59538c-2.42984,1.53284 -5.18301,2.01214 -7.6717,3.43414c0,0 -1.219,0.69195 -1.93129,-0.75063c-0.7123,-1.44258 0.5067,-2.13454 0.5067,-2.13454c0.04024,-0.0227 0.08056,-0.04516 0.12096,-0.06739zM327.32592,198.09891c1.02375,-0.90735 2.02715,-1.83301 3.01595,-2.70543c7.2865,-6.42887 14.18661,-13.62402 19.19394,-22.51372c0.76316,-1.34944 1.40078,-2.37767 1.94854,-3.96025c0.90241,-2.60729 2.97025,-8.01243 0.48451,-10.63265c-1.78124,-1.87761 -5.52385,-1.06269 -7.56264,-1.05685c-1.63021,0.00467 -3.19422,0.50656 -4.78609,0.78587c-2.56991,0.45091 -5.21852,0.52994 -7.79036,0.97226c-3.67522,0.63209 -7.03294,2.23433 -10.76962,2.70962c-3.23521,0.81162 -6.4281,1.70748 -9.62579,2.65507c-2.45617,0.72785 -5.27208,1.11825 -7.37283,2.75657c-2.73061,2.12955 -4.54911,5.43511 -6.45085,8.42281c-0.66719,1.04817 -2.07926,3.013 -2.45237,4.41105c-0.74506,2.79177 -0.17826,5.76804 -0.07113,8.64316c0.03817,1.02421 -0.21804,2.02812 -0.10862,3.05232c0.10852,1.01578 0.56049,1.98028 0.75387,2.98751c0.47012,2.44877 0.79324,4.65723 1.47801,7.06248c2.12613,3.43949 5.41532,3.68214 8.50316,2.80328c6.66383,-1.89666 13.29028,-3.93208 19.93315,-5.90059l1.60201,-0.47473c0,0 0.02796,-0.00827 0.07719,-0.01775z" data-paper-data="{&quot;index&quot;:null}" fill="#000000" stroke="none" stroke-width="0.5" stroke-linecap="butt"/><path d="M330.35277,195.42392c-0.9888,0.87241 -1.99856,1.79954 -3.0223,2.70689c-0.04922,0.00948 -0.07732,0.01778 -0.07732,0.01778l-1.60481,0.47481c-6.64287,1.96852 -13.28863,3.99515 -19.95247,5.89181c-3.08783,0.87886 -6.38143,0.63078 -8.50757,-2.80871c-0.68476,-2.40525 -1.01059,-4.6186 -1.48072,-7.06738c-0.19337,-1.00722 -0.64635,-1.97415 -0.75487,-2.98992c-0.10941,-1.02421 0.14599,-2.03049 0.10782,-3.05471c-0.10714,-2.87511 -0.6754,-5.85914 0.06966,-8.65091c0.37311,-1.39804 1.7851,-3.36745 2.45229,-4.41561c1.90173,-2.98769 3.72274,-6.30459 6.45335,-8.43413c2.10076,-1.63832 4.92176,-2.03685 7.37793,-2.7647c3.19769,-0.94759 6.40475,-1.8514 9.63997,-2.663c3.73668,-0.4753 7.11083,-2.0748 10.78605,-2.70689c2.57184,-0.44232 5.22716,-0.5166 7.79708,-0.96752c1.59186,-0.27931 3.15828,-0.77873 4.7885,-0.7834c2.03881,-0.00584 5.78461,-0.81652 7.56586,1.0611c2.48574,2.62023 0.42145,8.03248 -0.48096,10.63977c-0.54775,1.58258 -1.1844,2.61384 -1.94755,3.96329c-5.00732,8.88969 -11.92343,16.12258 -19.20992,22.55145z" data-paper-data="{&quot;noHover&quot;:false,&quot;origItem&quot;:[&quot;Path&quot;,{&quot;applyMatrix&quot;:true,&quot;segments&quot;:[[[327.35807,251.50758],[-2.22522,-0.89537],[0.08957,-0.00758]],[327.5,251.5],[[330.5,251.5],[0,0],[12.43969,0]],[[367.8244,251.49065],[-12.43914,0.11573],[5.76396,-0.05362]],[[381.03228,243.59954],[-1.90548,6.03283],[-0.04818,-3.86644]],[[379.97385,232.48057],[0.43989,3.83668],[-0.18094,-1.57811]],[[379.74758,227.72062],[0.33137,1.55349],[-0.33412,-1.56638]],[[378.0035,223.24346],[0.45679,1.5351],[-1.28227,-4.30923]],[[373.47189,210.46178],[2.70678,3.81131],[-1.35548,-1.90861]],[[367,205],[1.68325,1.26075],[-4.79791,-3.59363]],[[351.59831,195.34757],[5.78701,1.95735],[-4.45214,-1.50586]],[[337.5,194.5],[4.59951,0],[-5.98812,0]],[[319.57506,194.79264],[5.98335,-0.21808],[-6.67504,0.93692]],[[299.65321,195.50686],[6.64924,-0.67747],[-4.65299,0.47408]],[[285.74634,197.48783],[4.65407,-0.46051],[-2.88283,0.28525]],[[277.10634,198.42536],[2.80875,-0.70923],[-3.5127,0.88698]],[[264.62663,203.31433],[2.10853,-3.56594],[-2.94247,4.9763]],[[270.88476,218.8637],[-2.88353,-3.4687],[1.75027,2.10546]],[[276.25935,223.87852],[-2.00214,-1.66522],[13.15487,10.9787]],[[320.78609,248.82185],[-15.82306,-6.32945],[2.14722,0.85892]]],&quot;closed&quot;:true}],&quot;index&quot;:null}" fill-opacity="0.60392" fill="#b7ffe7" stroke="none" stroke-width="0.5" stroke-linecap="butt"/><path d="M283.31775,159.86828l-19.07994,-64.38638l59.91758,-17.75568l19.07994,64.38638z" data-paper-data="{&quot;index&quot;:null}" fill="#000000" stroke="#000000" stroke-width="2" stroke-linecap="butt"/><path d="M337.11262,190.39111c-0.94227,0.92482 -2.10855,1.55377 -3.06685,2.4563l-17.9746,5.3265l-17.2335,-58.15546l21.46301,-6.36024z" data-paper-data="{&quot;index&quot;:null}" fill="#000000" stroke="#000000" stroke-width="2" stroke-linecap="butt"/><path d="M330.52846,176.37959l-8.30901,-28.03923l11.17865,-3.31263l8.30901,28.03923z" data-paper-data="{&quot;index&quot;:null}" fill="#000000" stroke="#000000" stroke-width="2" stroke-linecap="butt"/><path d="M298.48782,186.4392l-10.15545,-34.27017l15.20296,-4.50517l10.15545,34.27017z" data-paper-data="{&quot;index&quot;:null}" fill="#000000" stroke="#000000" stroke-width="2" stroke-linecap="butt"/><path d="M336.33895,191.06315c-0.89071,0.70018 -1.8649,1.28986 -2.64292,2.13769c-0.26834,0.29241 -0.23116,0.88234 -0.54381,1.11379c-0.45457,0.33652 -1.15353,0.12851 -1.60201,0.47473c-0.53903,0.41611 -0.71326,1.27209 -1.2345,1.71495c-0.19814,0.16834 -0.5422,-0.12114 -0.7721,-0.0101c-0.53114,0.25652 -1.03311,0.58716 -1.52247,0.94844c-1.15044,0.3368 -2.27384,0.71765 -3.29278,1.18961c-1.28869,0.5969 -2.26364,1.85961 -3.59012,2.35874c-1.26751,0.47695 -2.54986,0.91685 -3.82387,1.37818l-1.55095,-5.23376l20.56872,-6.09523z" data-paper-data="{&quot;index&quot;:null}" fill="#000000" stroke="#000000" stroke-width="2" stroke-linecap="butt"/><path d="M284.92354,155.43856l-16.61802,-56.07847l53.65752,-15.90061l16.61802,56.07847z" data-paper-data="{&quot;index&quot;:null}" fill="#fff7bd" stroke="#000000" stroke-width="2" stroke-linecap="butt"/><path d="M314.95861,120.55535l-8.92449,-30.11622l16.5444,-4.90269l8.92449,30.11622z" data-paper-data="{&quot;index&quot;:null}" fill="#1d1b14" stroke="none" stroke-width="0" stroke-linecap="butt"/><path d="M277.01532,126.30717l-8.07985,-27.26592l17.43869,-5.1677l8.07985,27.26592z" data-paper-data="{&quot;index&quot;:null}" fill="#1d1b14" stroke="none" stroke-width="0" stroke-linecap="butt"/><path d="M273.36804,113.78968l-4.30837,-14.53886l53.65752,-15.90061l4.30837,14.53886z" data-paper-data="{&quot;index&quot;:null}" fill="#1d1b14" stroke="none" stroke-width="0" stroke-linecap="butt"/><path d="M311.03557,133.57956l-4.46224,-15.05811l11.6258,-3.44513l4.46224,15.05811z" data-paper-data="{&quot;index&quot;:null}" fill="#ffffff" stroke="#000000" stroke-width="2" stroke-linecap="butt"/><path d="M293.14971,138.87977l-4.46224,-15.05811l12.52008,-3.71014l4.46224,15.05811z" data-paper-data="{&quot;index&quot;:null}" fill="#ffffff" stroke="#000000" stroke-width="2" stroke-linecap="butt"/><path d="M310.26619,130.98335l-3.38515,-11.42339l4.9186,-1.45755l3.38515,11.42339z" data-paper-data="{&quot;index&quot;:null}" fill="#2d2d2d" stroke="#000000" stroke-width="2" stroke-linecap="butt"/><path d="M297.76059,136.38374l-3.84676,-12.98113l5.36574,-1.59006l3.84676,12.98113z" data-paper-data="{&quot;index&quot;:null}" fill="#2d2d2d" stroke="#000000" stroke-width="2" stroke-linecap="butt"/><path d="M337.11263,190.39111c-1.06037,1.04077 -2.40448,1.70682 -3.41658,2.80974c-0.26834,0.29241 -0.23116,0.88234 -0.54381,1.11379c-0.45457,0.33652 -1.15354,0.12851 -1.60202,0.47473c-0.21201,0.16366 -0.36758,0.39535 -0.51003,0.64321l-14.95455,4.43156l-13.84835,-46.73206l21.91015,-6.49274z" data-paper-data="{&quot;index&quot;:null}" fill="#ffffff" stroke="#000000" stroke-width="2" stroke-linecap="butt"/><path d="M328.57346,167.43699l-5.38547,-18.17357l10.73151,-3.18012l5.38547,18.17357z" data-paper-data="{&quot;index&quot;:null}" fill="#ffffff" stroke="#000000" stroke-width="2" stroke-linecap="butt"/><path d="M295.25656,175.53504l-5.38547,-18.17358l12.96723,-3.84265l5.38547,18.17358z" data-paper-data="{&quot;index&quot;:null}" fill="#ffffff" stroke="#000000" stroke-width="2" stroke-linecap="butt"/><path d="M332.02378,176.50131l-2.6158,-8.82715l9.39006,-2.7826l2.6158,8.82715z" data-paper-data="{&quot;index&quot;:null}" fill="#fff7bd" stroke="#000000" stroke-width="2" stroke-linecap="butt"/><path d="M299.82926,186.04168l-2.92354,-9.86565l10.73151,-3.18012l2.92354,9.86565z" data-paper-data="{&quot;index&quot;:null}" fill="#fff7bd" stroke="#000000" stroke-width="2" stroke-linecap="butt"/><path d="M323.61153,199.32848c-0.80324,0.60369 -1.5538,1.31655 -2.47328,1.66253c-0.53938,0.20297 -1.08145,0.39922 -1.62441,0.59327l-0.28372,-0.95743z" data-paper-data="{&quot;index&quot;:null}" fill="#ff0000" stroke="#000000" stroke-width="2" stroke-linecap="butt"/><path d="M329.26757,196.63536l-0.16667,-0.62809" data-paper-data="{&quot;index&quot;:null}" fill="none" stroke="#000000" stroke-width="2" stroke-linecap="round"/><path d="M309.32718,112.91124l-4.16099,-14.04151l6.82601,-2.02279l4.16099,14.04151z" data-paper-data="{&quot;index&quot;:null}" fill="#1d1b14" stroke="none" stroke-width="0" stroke-linecap="butt"/><path d="M305.37613,108.16934l-2.21472,-7.47371l5.65583,-1.67602l2.21472,7.47371z" data-paper-data="{&quot;index&quot;:null}" fill="#1d1b14" stroke="none" stroke-width="0" stroke-linecap="butt"/><path d="M290.09045,111.71356l-2.01338,-6.79427l9.36139,-2.77411l2.01338,6.79427z" data-paper-data="{&quot;index&quot;:null}" fill="#1d1b14" stroke="none" stroke-width="0" stroke-linecap="butt"/><path d="M292.01779,116.06971l-4.16099,-14.04151l5.07074,-1.50264l4.16099,14.04151z" data-paper-data="{&quot;index&quot;:null}" fill="#1d1b14" stroke="none" stroke-width="0" stroke-linecap="butt"/><path d="M339.04602,124.47997l-3.68427,-12.4328l5.11353,-1.51532l3.68427,12.4328z" data-paper-data="{&quot;index&quot;:null}" fill="#fff7bd" stroke="#000000" stroke-width="0.5" stroke-linecap="butt"/><path d="M271.51679,145.90426l-3.79425,-12.80393l6.39192,-1.89415l3.79425,12.80393z" data-paper-data="{&quot;index&quot;:null}" fill="#fff7bd" stroke="#000000" stroke-width="0.5" stroke-linecap="butt"/><path d="M314.78918,135.61264c0.29745,0.38895 0.3055,1.04661 0.3055,1.04661l0.0183,1.49589c0.02876,2.35093 0.39794,5.52606 0.07458,7.76351c-0.13346,0.92354 -0.88925,2.74826 -1.1806,3.49143c-0.80768,2.06025 -0.87831,2.90661 -2.45838,3.77031c-0.35044,0.19155 -0.75837,-0.031 -1.13792,-0.06113c-0.82264,-0.06531 -1.66477,0.10997 -2.46907,-0.2817c-0.33412,-0.16269 -0.59313,-0.67165 -0.92643,-0.84023c-0.29812,-0.15079 -0.61153,-0.06154 -0.91729,-0.0923c-1.44569,-1.28823 -2.32416,-2.95534 -3.46807,-4.89717c-0.14698,-0.24952 -2.13971,-3.59019 -2.20756,-3.87866c-0.35945,-1.52824 -0.14109,-4.2228 0.69814,-5.19889c0.29922,-0.34801 0.77327,0.08189 1.14144,-0.03764c0.6574,-0.21341 1.14716,-1.15541 1.81343,-1.31048c0.99173,-0.23081 2.04278,0.19597 3.03941,0.00339c0.39612,-0.07656 2.64973,-0.87843 2.98933,-0.91593c0.48445,-0.05348 0.97927,0.06713 1.46911,0.1385c0.34934,0.0509 0.7361,0.44727 1.04664,0.22806c0.32044,-0.22622 0.38604,-0.94093 0.59723,-1.3885c0.29829,-0.63218 0.62019,-1.23257 0.93029,-1.84887c0,0 0.46515,-0.92444 1.07097,-0.0865c0.60582,0.83796 0.14068,1.76239 0.14068,1.76239c-0.06396,0.12712 -0.28957,0.58201 -0.56972,1.13792zM313.58477,137.92101c-0.13517,0.23898 -0.23513,0.39809 -0.27592,0.42662c-0.41301,0.28876 -2.42631,-0.24999 -2.98797,-0.18719c-0.99349,0.11107 -1.92229,0.71754 -2.90782,0.90405c-0.96795,0.18317 -1.98523,-0.22119 -2.95154,-0.02461c-0.67062,0.13642 -1.1565,1.11895 -1.81912,1.31212c-0.22505,0.0656 -0.48156,-0.35128 -0.69314,-0.22223c-0.13901,0.08478 -0.09372,0.46514 -0.10806,0.7109c-0.02843,0.48748 -0.15002,1.01461 -0.01958,1.47736c0.14445,0.51248 0.51783,0.76514 0.76511,1.16752c0.37517,0.61047 0.73433,1.24655 1.1015,1.86982c0.87156,1.47948 1.64101,3.14065 2.73091,4.16094c0.30577,0.03078 0.61918,-0.05847 0.91729,0.0923c0.33329,0.16858 0.59417,0.66462 0.92643,0.84023c0.68614,0.36267 1.41126,0.09053 2.11735,0.17976c0.2323,0.02935 0.48084,0.2347 0.69665,0.12347c0.99588,-0.51333 1.10469,-1.44392 1.6198,-2.79483c0.03518,-0.09225 0.93463,-2.31569 0.99751,-2.76039c0.12193,-0.86229 -0.0425,-1.80576 -0.05353,-2.70771c-0.01831,-1.4959 -0.0376,-3.07225 -0.0559,-4.56814z" data-paper-data="{&quot;index&quot;:null}" fill="#0e0e0b" stroke="none" stroke-width="0.5" stroke-linecap="butt"/><path d="M268.59793,139.97493l-14.97639,-39.64646l25.54492,-9.64956l14.9764,39.64647z" fill="#1d1b14" stroke="none" stroke-width="0" stroke-linecap="butt"/><path d="M313.34601,117.57774l-12.68705,-33.58595l26.90564,-10.16357l12.68705,33.58595z" fill="#1d1b14" stroke="none" stroke-width="0" stroke-linecap="butt"/><path d="M269.46317,123.31394l-11.40965,-30.20434l59.33365,-22.41321l11.40965,30.20434z" fill="#1d1b14" stroke="none" stroke-width="0" stroke-linecap="butt"/><path d="M286.93704,123.73182l-5.05084,-13.37091l7.54809,-2.85128l5.05084,13.37091z" fill="#1d1b14" stroke="none" stroke-width="0" stroke-linecap="butt"/><path d="M287.69879,116.25507l-2.68835,-7.11678l6.25413,-2.36249l2.68835,7.11678z" fill="#1d1b14" stroke="none" stroke-width="0" stroke-linecap="butt"/><path d="M304.57841,110.16768l-2.44396,-6.4698l10.35168,-3.91033l2.44396,6.4698z" fill="#1d1b14" stroke="none" stroke-width="0" stroke-linecap="butt"/><path d="M309.24346,116.30824l-5.05084,-13.37091l5.60715,-2.11809l5.05084,13.37091z" fill="#1d1b14" stroke="none" stroke-width="0" stroke-linecap="butt"/><path d="M257.62943,104.59178l-2.80905,-7.43628l10.22489,-3.86244l2.80905,7.43628z" fill="#1d1b14" stroke="none" stroke-width="0" stroke-linecap="butt"/><path d="M319.04905,81.60304l-2.9495,-7.8081l7.06448,-2.6686l2.9495,7.8081z" fill="#1d1b14" stroke="none" stroke-width="0" stroke-linecap="butt"/><path d="M262.13689,92.90465l-0.91294,-2.41678l51.68219,-19.52288l0.91294,2.41678z" fill="#1d1b14" stroke="none" stroke-width="0" stroke-linecap="butt"/><path d="M271.50244,143.0044l-2.73882,-7.25038l15.05848,-5.68832l2.73882,7.25038z" fill="#1d1b14" stroke="none" stroke-width="0" stroke-linecap="butt"/><path d="M324.05239,116.78068l-1.54498,-4.08996l14.68666,-5.54787l1.54498,4.08996z" fill="#1d1b14" stroke="none" stroke-width="0" stroke-linecap="butt"/></g></g></svg>