<svg version="1.1" xmlns="http://www.w3.org/2000/svg" xmlns:xlink="http://www.w3.org/1999/xlink" width="703" height="399" viewBox="0,0,703,399"><g transform="translate(31.5,19.5)"><g data-paper-data="{&quot;isPaintingLayer&quot;:true}" fill-rule="nonzero" stroke-linecap="butt" stroke-linejoin="miter" stroke-miterlimit="10" stroke-dasharray="" stroke-dashoffset="0" style="mix-blend-mode: normal"><path d="M-30,378v-396h700v396z" fill="#000000" stroke="#ffffff" stroke-width="3"/><text transform="translate(178.5,49) scale(0.4253,0.5)" font-size="40" xml:space="preserve" fill="#ffffff" fill-rule="nonzero" stroke="none" stroke-width="1" stroke-linecap="butt" stroke-linejoin="miter" stroke-miterlimit="10" stroke-dasharray="" stroke-dashoffset="0" font-family="Pixel" font-weight="normal" text-anchor="start" style="mix-blend-mode: normal"><tspan x="0" dy="0">ITS HARD TO FIND A</tspan></text><text transform="translate(149.98195,241.11034) rotate(-10.94663) scale(1.71343,1.71343)" font-size="40" xml:space="preserve" fill="#ffffff" fill-rule="nonzero" stroke="none" stroke-width="1" stroke-linecap="butt" stroke-linejoin="miter" stroke-miterlimit="10" stroke-dasharray="" stroke-dashoffset="0" font-family="Pixel" font-weight="normal" text-anchor="start" style="mix-blend-mode: normal"><tspan x="0" dy="0">REASON</tspan></text><path d="M108.5,85.5c1.94943,0 2.37875,1.52011 2.4733,2.18966c0.67043,0.49661 1.31579,1.01564 1.938,1.5552c0.58746,-0.20752 1.18588,-0.41263 1.79813,-0.61656c1.94544,-0.648 4.26995,-1.4894 6.34705,-1.89892c-0.311,-0.99613 -0.61029,-1.9851 -0.92819,-2.9388c0,0 -0.43753,-1.31258 0.31486,-2.31029c-1.48149,-1.67743 -3.20834,-3.17847 -4.16643,-4.10466c-8.63239,-8.34492 -18.38316,-13.97583 -29.21231,-18.96634c-1.83856,-1.17016 -6.7302,-3.42006 -8.35121,-6.23904c-0.02839,0.04845 -0.05726,0.09648 -0.08659,0.14409c-0.98887,1.60552 -3.03508,2.37997 -4,4c-1.52355,2.55792 0.15056,3.80575 -2.35886,6.45344c-0.85097,0.89786 -2.39267,0.7224 -3.45344,1.35886c-0.92672,0.55603 -1.99652,1.48267 -3.0616,2.54914c1.48765,1.5581 2.90907,3.21501 4.84146,4.0764c1.51495,0.67531 3.38726,0.24782 4.88052,0.96982c0.29306,0.14169 5.44083,4.37442 6.62001,5.35268c5.29036,4.38898 10.83683,8.56887 16.04329,13.0367c1.34725,1.15612 2.38345,2.65664 3.65577,3.88827c0.20967,-0.06781 0.41375,-0.14688 0.60785,-0.24543c1.74464,-0.88577 3.4198,-1.67455 5.11103,-2.40271c-0.1346,-0.09329 -0.27029,-0.18547 -0.40708,-0.27652l-1.10557,-3.07498c0,0 0,-2.5 2.5,-2.5zM131.84471,121.13263c0.37885,1.52064 1.10974,2.99502 1.13656,4.56191c0.005,0.29241 -0.07816,0.56662 -0.20266,0.83238c1.10984,-0.73774 2.40885,-1.16459 3.60335,-1.76298c0.67718,-0.33924 8.11904,-4.06046 8.16133,-4.07363c0.53606,-0.16701 1.7246,0.90907 1.64701,0.35299c-0.118,-0.84573 -1.30889,-1.11246 -1.84564,-1.7766c-2.92645,-3.62103 -5.75958,-7.15076 -8.78586,-10.69133c-1.73187,-2.0262 -2.80613,-4.53883 -4.37761,-6.69181c-1.96617,-2.69371 -4.75058,-4.72263 -6.7093,-7.42177c-0.66127,-0.91123 -1.20791,-1.90685 -1.68057,-2.94917c-1.56946,0.42425 -3.05514,0.73439 -3.59236,0.8877c-0.80729,0.23037 -1.63923,0.4618 -2.48294,0.6997c6.81574,7.99594 10.49383,18.69694 15.12868,28.03263zM128.52811,91.53822c1.9861,2.66455 4.72405,4.71292 6.68866,7.39335c2.80182,3.82269 4.57641,6.40897 7.69387,9.95048c0.78955,0.89695 5.10332,6.49094 5.7447,7.85125c0.9362,1.98561 2.6995,4.09692 2.15436,6.2234c-0.4096,1.59775 -2.89031,1.59067 -4.35299,2.35299c-3.57423,1.86283 -8.12871,4.87171 -12,6c-1.74919,0.5098 -3.97998,1.83656 -5.41848,0.71841c-1.52979,-1.18911 -0.62939,-3.82474 -1.01949,-5.72265c-0.2379,-1.15742 -0.57563,-2.29206 -0.86344,-3.43809c-4.66749,-9.26175 -8.221,-20.63105 -15.6789,-28.17095c-1.34895,0.46309 -2.6596,0.97198 -3.87801,1.54937c-0.3124,0.14804 -0.60404,0.33256 -0.88669,0.53292c0.12794,0.18232 0.20694,0.39462 0.22143,0.6469c0.12384,2.15601 -2.33827,3.63846 -3.66536,5.34215c-1.36204,1.74856 -3.49008,2.73474 -5.18279,4.16559c-2.45377,2.07416 -4.53585,4.55178 -6.80899,6.82247c-4.37425,5.2675 -8.92172,10.31312 -13.43641,15.43318c-1.09584,1.24278 -1.81814,2.81563 -3.0461,3.92805c-1.46606,1.32812 -3.0145,3.78403 -4.93253,3.29988c-1.8656,-0.47091 -1.52145,-3.55058 -2.53645,-5.1852c-0.92077,-1.48287 -2.66605,-2.28491 -3.75786,-3.64677c-0.71514,-0.89203 -1.07568,-2.05717 -1.88278,-2.86693c-2.33702,-2.34472 -5.60654,-3.61363 -7.95163,-5.95027c-2.31851,-2.31015 -3.96759,-5.26212 -6.42124,-7.42819c-2.43414,-2.14886 -5.55368,-3.37774 -8.19115,-5.27151c-1.16954,-0.83976 -1.97792,-2.1008 -3.07396,-3.03445c-1.61391,-1.3748 -4.87658,-1.76456 -5.04106,-3.87826c-0.26437,-3.39735 4.93047,-4.56998 7.18084,-5.28197c7.22676,-7.49304 12.83457,-16.23434 18.86817,-24.63423c2.01847,-2.81009 6.12284,-7.56037 9.13183,-9.36577c0.7506,-0.45036 1.89764,-0.05367 2.54656,-0.64114c0.50935,-0.46111 0.20112,-1.36397 0.39606,-2.0228c0.35345,-1.19456 0.60184,-2.45692 1.24508,-3.52376c0.97364,-1.6148 3.05284,-2.36953 4,-4c0.52948,-0.91146 0.27375,-2.23602 1,-3c1.3105,-1.37858 2.96483,-3.61663 4.79396,-3.09496c1.84415,0.52596 1.43046,3.59132 2.50817,5.17754c1.58786,2.33708 4.50606,3.81507 6.7768,5.24807c11.2305,5.14479 21.38486,11.10503 30.30436,19.76902c3.66424,3.55927 9.9536,9.40206 7.71538,15.5081c-0.02866,0.07818 -0.07271,0.15555 -0.13068,0.23203c0.34269,0.72251 0.732,1.40266 1.18674,2.01275zM62.51831,70.31243c-0.55695,0.69311 -1.04904,1.34329 -1.43934,1.8929c-6.36108,8.95747 -12.33991,18.20063 -20.26465,25.9213c-0.66503,0.23143 -1.31056,0.54207 -1.97289,0.7845c0.03798,0.01737 0.07554,0.03578 0.11267,0.05527c1.293,0.6786 1.93863,2.21842 3.12425,3.07088c2.75667,1.98206 5.9919,3.30773 8.53958,5.55208c2.53394,2.23224 4.26677,5.25022 6.64983,7.64287c2.3684,2.37794 5.67181,3.67994 8.04837,6.04973c0.89255,0.89 1.33086,2.14798 2.11722,3.13307c1.23411,1.54598 3.58207,2.6884 4.18676,4.41912c0.72215,-1.05276 1.62376,-1.99331 2.46925,-2.95209c4.5336,-5.14108 9.09468,-10.2112 13.49252,-15.49575c3.37263,-3.37611 6.6352,-6.37617 10.33315,-9.31967c0.01695,-0.01349 0.03392,-0.02701 0.05089,-0.04055l-1.54604,-2.41285c0.43837,-0.61583 0.80061,-1.3031 1.20392,-1.95182c-2.81964,-2.75595 -5.85706,-5.01874 -8.88315,-7.53995c-3.27866,-2.73164 -6.55099,-5.47136 -9.83535,-8.19614c-1.86821,-1.54991 -3.37268,-3.66353 -5.57419,-4.68616c-1.51883,-0.70551 -3.41074,-0.2767 -4.92529,-0.99134c-0.26176,-0.12351 -3.74877,-3.10038 -5.8875,-4.9354z" fill="#ffffff" stroke="none" stroke-width="0.5"/><path d="M67.73223,122.76777c-1.76777,-1.76777 0,-3.53553 0,-3.53553l1.45807,-1.18894c-0.39411,-4.23165 -0.1287,-7.39716 -1.48087,-11.50931c-0.54161,-1.64713 -0.65843,-4.35522 -2.52376,-5.40736c-2.51014,-1.41585 -7.16368,-0.55849 -9.68567,-0.62663c-0.6838,-0.01848 -1.44035,-0.51338 -2.04329,-0.1903c-0.96706,0.51818 -1.45929,1.63871 -2.18894,2.45807c0,0 -1.76777,1.76777 -3.53553,0c-1.76777,-1.76777 0,-3.53553 0,-3.53553c1.27035,-1.18064 2.24786,-2.79085 3.81106,-3.54193c1.19017,-0.57185 2.63658,-0.16225 3.95671,-0.1903c5.01563,-0.10657 12.09697,-1.09145 15.12663,4.18567c3.61779,6.30155 3.51703,13.32744 3.18307,20.27104l-2.54193,2.81106c0,0 -1.76777,1.76777 -3.53553,0z" fill="#ffffff" stroke="none" stroke-width="0.5"/><path d="M56,86c0,-1.38071 1.11929,-2.5 2.5,-2.5c1.38071,0 2.5,1.11929 2.5,2.5c0,1.38071 -1.11929,2.5 -2.5,2.5c-1.38071,0 -2.5,-1.11929 -2.5,-2.5z" fill="#ffffff" stroke="none" stroke-width="0.5"/><path d="M82,100c0,-1.38071 1.11929,-2.5 2.5,-2.5c1.38071,0 2.5,1.11929 2.5,2.5c0,1.38071 -1.11929,2.5 -2.5,2.5c-1.38071,0 -2.5,-1.11929 -2.5,-2.5z" fill="#ffffff" stroke="none" stroke-width="0.5"/></g></g></svg>