<svg version="1.1" xmlns="http://www.w3.org/2000/svg" xmlns:xlink="http://www.w3.org/1999/xlink" width="154.46905" height="100.77551" viewBox="0,0,154.46905,100.77551"><g transform="translate(-258.06995,-93.48434)"><g data-paper-data="{&quot;isPaintingLayer&quot;:true}" fill-rule="nonzero" stroke="none" stroke-linecap="butt" stroke-linejoin="miter" stroke-miterlimit="10" stroke-dasharray="" stroke-dashoffset="0" style="mix-blend-mode: normal"><path d="M398.13321,178.07904c0.54593,-0.54593 1.09186,-0.75466 1.58572,-0.78241c0.15232,-6.12261 0.89792,-12.18747 0.89792,-18.27476c0.85163,-5.15557 1.5708,-10.14205 2.30662,-15.26096c0.46833,-3.25804 1.65999,-6.54593 2.3173,-9.77525c0.94977,-4.66614 1.01589,-10.09436 0.49659,-15.20283c-8.2335,4.54582 -17.30179,8.19634 -26.10019,11.19391c-5.54643,1.88964 -11.05311,3.91529 -16.67901,5.53331c-0.05829,0.19251 -0.11508,0.3854 -0.1704,0.57865c-2.25724,0.78481 -4.30438,2.54392 -6.03502,4.24471c0.19,-1.13817 0.41202,-2.26987 0.67139,-3.39236c-0.98877,0.22388 -1.98264,0.43031 -2.98244,0.61646c-6.19479,1.15339 -12.48494,1.2597 -18.76815,1.26086c-10.84393,0 -21.68785,0 -32.53178,0c-7.07376,0 -14.22611,0.13454 -21.06627,-0.99601c0.02491,0.461 0.04981,0.92243 0.07436,1.3842c-0.50946,-0.24352 -1.01414,-0.49528 -1.47069,-0.81847c-0.75292,-0.53299 -3.45846,-3.41998 -5.05415,-2.88808c-0.39517,0.13172 -0.78879,0.26913 -1.18058,0.41221c-2.96389,-1.03775 -5.8334,-2.44364 -8.57227,-4.34753c0.01383,3.68784 0.0378,7.37447 0.06767,11.0604c-0.67686,3.38435 -0.2307,7.96202 -0.31483,10.13381c-0.26788,6.91552 -3.21814,18.74843 0.6514,26.29814c0.02537,4.07997 0.04091,8.16127 0.04091,12.24462v0.45819c0,0 0,2.5 -2.5,2.5c-2.5,0 -2.5,-2.5 -2.5,-2.5v-0.45819c0,-21.41578 -0.42764,-42.77504 -0.45665,-64.1829c-0.57804,-0.75413 -1.21644,-1.676 -2.25071,-3.04622c0,0 -1.5,-2 0.5,-3.5c1.16361,-0.87271 2.15798,-0.56067 2.78616,-0.14706c0.93849,-3.94244 4.17324,-7.69449 6.19415,-11.0555c0.47539,-0.79063 3.16378,-6.75702 3.9305,-7.18372c4.00885,-2.23104 8.51287,-0.22746 12.59251,0.023c11.30115,0.69379 22.87023,1.37803 34.18734,1.36829c14.23032,0 28.71764,0.80994 42.91491,0.00483c3.59852,-0.20406 7.07282,-1.35305 10.54566,-2.22116c7.5052,-1.87608 15.11961,-3.64855 22.20469,-6.79748c1.46241,-0.34834 2.90051,-1.26778 4.38724,-1.04503c4.94844,0.74141 6.44423,8.13405 8.31391,11.8789c0.80935,1.62106 1.48498,3.35985 2.03574,5.17731c0.71211,-0.26346 1.79192,-0.35963 2.73067,0.8138c1.56174,1.95217 -0.39044,3.51391 -0.39044,3.51391l-1.12395,0.89581c1.08479,6.40368 0.88429,13.27517 -0.27925,19.18707c-0.61615,3.13066 -1.81727,6.3166 -2.26464,9.46891c-0.71398,5.03091 -1.42209,9.91829 -2.27532,14.97985c0,6.64445 -0.90787,13.25593 -0.90787,19.95434v2.74917c0,1.38071 -1.11929,2.5 -2.5,2.5c-0.69036,0 -1.31536,-0.27983 -1.76776,-0.73224l-2.29098,-2.29097c0,0 -1.76776,-1.76777 0,-3.53554zM390.22905,118.94557c2.0448,-5.35754 2.02263,-11.20823 3.60257,-16.76218l2.01063,-2.45555c0,0 1.55069,-1.55069 3.19971,-0.29498c-0.14107,-0.57143 -0.3537,-1.01638 -0.84227,-0.95703c-0.71976,0.08744 -1.35165,0.52517 -2.02749,0.78775c-7.23739,3.21662 -15.03222,5.03158 -22.69833,6.94835c-3.78751,0.947 -7.5248,2.12266 -11.44766,2.36079c-14.28692,0.86726 -28.90127,0.00483 -43.22559,0.00483c-11.43346,-0.00926 -23.12676,-0.65545 -34.54179,-1.38087c-0.88547,-0.05627 -2.17837,-0.37168 -3.5562,-0.67006c-0.43791,4.79663 0.48827,9.52658 1.16816,14.31778c0.40094,2.82541 0.48392,5.34985 1.02562,8.05244c0.4585,0.36364 0.83228,0.95652 0.83228,1.92319c0,1.00117 -0.40094,1.60141 -0.88169,1.96127c6.49903,1.13916 13.4696,1.03706 20.29475,1.03706c10.84393,0 21.68785,0 32.53178,0c5.97064,0.00113 11.96477,-0.07609 17.85138,-1.1761c1.8684,-0.34914 3.71544,-0.77192 5.54685,-1.24851c0.36666,-0.43559 0.95111,-0.78276 1.88272,-0.78276c0.25859,0 0.49043,0.02675 0.69829,0.07471c5.51882,-1.58751 10.9183,-3.58478 16.35816,-5.43711c4.02803,-1.37158 8.12437,-2.88214 12.16622,-4.55918c-0.27329,-0.87667 0.0519,-1.74385 0.0519,-1.74385zM278.34514,131.42637c-0.8383,-3.4198 -0.92817,-6.42748 -1.4241,-9.87486c-0.75112,-5.22132 -1.63735,-10.30714 -1.18182,-15.51993c-0.32587,0.05489 -0.62255,0.14293 -0.8812,0.2717c-0.56473,0.28115 -0.30307,1.23126 -0.55714,1.80868c-0.57644,1.31004 -1.19181,2.60908 -1.92708,3.83704c-1.74906,2.92103 -4.95047,6.41073 -5.66392,9.85819c-0.25509,1.23265 -0.04364,2.50958 0.03799,3.77419c3.69329,3.24534 7.92167,5.21442 12.45502,6.40827zM399.37778,103.26337l-0.73854,0.29362c-1.40293,4.88708 -1.62909,9.88932 -2.95491,14.72083c3.18879,-1.47561 6.30599,-3.067 9.28778,-4.78849c-0.0596,-0.31449 -0.12131,-0.62589 -0.18504,-0.93387c-0.76764,-3.7097 -3.09567,-6.90539 -4.79137,-10.27235c-0.23077,0.59312 -0.61792,0.98026 -0.61792,0.98026z" fill="#000000" stroke-width="0.5"/><path d="M354.20955,163.60671c0.25813,0.00867 0.5162,0.01758 0.77414,0.02463c-0.00161,0.01722 -0.00322,0.03444 -0.00484,0.05166c-0.26861,-0.02702 -0.5258,-0.05222 -0.7693,-0.07629z" fill="#000000" stroke-width="0.5"/><path d="M357.47099,136.9236c-0.25652,1.11019 -3.86072,7.36198 -3.97099,9.0764c-0.30884,4.80195 1.4534,14.96869 1.27221,14.96268c-0.31245,-0.03083 -65.69838,-0.12126 -68.10401,-0.96268c-0.33236,-0.11625 -4.61496,-21.73565 -4.63976,-22.19461c6.84016,1.13055 74.45378,-0.6579 75.44255,-0.88179z" data-paper-data="{&quot;noHover&quot;:false,&quot;origItem&quot;:[&quot;Path&quot;,{&quot;applyMatrix&quot;:true,&quot;segments&quot;:[[[564.70201,310.45771],[0.69456,-11.52599],[-0.19693,3.26794]],[[563.71777,320.22989],[0.65809,-3.20705],[-0.35359,1.72314]],[[561.69644,325.10454],[0.16852,-1.75095],[-0.17082,1.77494]],[[567.03932,325.36919],[-1.78274,0.03776],[6.2684,-0.13277]],[[585.77329,327.05208],[-6.22101,-0.78071],[20.29651,2.54713]],[[647.60122,330.86752],[-20.43542,0.00529],[15.82598,0]],[[694.53643,328.24116],[-15.74312,1.26645],[2.92745,-0.2355]],[[703.28669,327.21064],[-2.93118,0.18342],[2.27053,-0.14208]],[[710.11138,327.26653],[-2.27421,-0.05894],[0.7498,0.01943]],[[712.35441,327.44564],[-0.35758,0.65934],[0.43578,-0.80354]],[[711.41062,324.87086],[0.06841,0.91154],[-0.50239,-6.69364]],[[711.41251,304.73346],[-0.18445,6.70993],[0.28381,-10.32449]],[[714.84823,273.88208],[-2.32863,10.07788],[-1.97754,0.44777]],[[708.88334,275.115],[1.99961,-0.3723],[-12.38959,2.30679]],[[671.34705,277.63672],[12.56641,-0.00232],[-21.68786,0]],[[606.28348,277.63672],[21.68786,0],[-14.14751,0]],[[564.15094,275.6447],[13.68032,2.2611],[0.62557,11.5759]]],&quot;closed&quot;:true}]}" fill="#ffffff" stroke-width="0.5"/><path d="M282.02844,137.80537c0,0.00001 0,0.00001 0,0.00002c0,0 0,0 0,0z" data-paper-data="{&quot;noHover&quot;:false,&quot;origItem&quot;:[&quot;Path&quot;,{&quot;applyMatrix&quot;:true,&quot;segments&quot;:[[[564.70201,310.45771],[0.69456,-11.52599],[-0.19693,3.26794]],[[563.71777,320.22989],[0.65809,-3.20705],[-0.35359,1.72314]],[[561.69644,325.10454],[0.16852,-1.75095],[-0.17082,1.77494]],[[567.03932,325.36919],[-1.78274,0.03776],[6.2684,-0.13277]],[[585.77329,327.05208],[-6.22101,-0.78071],[20.29651,2.54713]],[[647.60122,330.86752],[-20.43542,0.00529],[15.82598,0]],[[694.53643,328.24116],[-15.74312,1.26645],[2.92745,-0.2355]],[[703.28669,327.21064],[-2.93118,0.18342],[2.27053,-0.14208]],[[710.11138,327.26653],[-2.27421,-0.05894],[0.7498,0.01943]],[[712.35441,327.44564],[-0.35758,0.65934],[0.43578,-0.80354]],[[711.41062,324.87086],[0.06841,0.91154],[-0.50239,-6.69364]],[[711.41251,304.73346],[-0.18445,6.70993],[0.28381,-10.32449]],[[714.84823,273.88208],[-2.32863,10.07788],[-1.97754,0.44777]],[[708.88334,275.115],[1.99961,-0.3723],[-12.38959,2.30679]],[[671.34705,277.63672],[12.56641,-0.00232],[-21.68786,0]],[[606.28348,277.63672],[21.68786,0],[-14.14751,0]],[[564.15094,275.6447],[13.68032,2.2611],[0.62557,11.5759]]],&quot;closed&quot;:true}]}" fill="#ffffff" stroke-width="0.5"/><text transform="translate(290.85077,154.02781) scale(0.19617,0.19617)" font-size="40" xml:space="preserve" fill="#ff0000" fill-rule="nonzero" stroke="none" stroke-width="1" stroke-linecap="butt" stroke-linejoin="miter" stroke-miterlimit="10" stroke-dasharray="" stroke-dashoffset="0" font-family="Sans Serif" font-weight="normal" text-anchor="start" style="mix-blend-mode: normal"><tspan x="0" dy="0">PLOT ON SALE</tspan></text></g></g></svg>