<svg version="1.1" xmlns="http://www.w3.org/2000/svg" xmlns:xlink="http://www.w3.org/1999/xlink" width="143" height="135.95427" viewBox="0,0,143,135.95427"><g transform="translate(-248.5,-111.04574)"><g data-paper-data="{&quot;isPaintingLayer&quot;:true}" fill-rule="nonzero" stroke-linecap="butt" stroke-linejoin="miter" stroke-miterlimit="10" stroke-dasharray="" stroke-dashoffset="0" style="mix-blend-mode: normal"><path d="M249.5,204.50001v-49h141v49z" fill="#ff0000" stroke="#ffc4a6" stroke-width="2"/><path d="M250.5,156v-19h34v19z" fill="#ffffff" stroke="#ffc4a6" stroke-width="2"/><path d="M263.5,243.00001v-39h19v39z" fill="#484638" stroke="#ffc4a6" stroke-width="2"/><path d="M295.07407,224.00001v-20h8.51852v20z" fill="#484638" stroke="#ffc4a6" stroke-width="2"/><path d="M349.5,246.00001v-43h23v43z" fill="#484638" stroke="#ffc4a6" stroke-width="2"/><path d="M378.97186,224.91668v-20.83333h7.57576v20.83333z" fill="#484638" stroke="#ffc4a6" stroke-width="2"/><path d="M301.16667,156.66668v-14.66667h86.33333v14.66667z" fill="#ffffff" stroke="#ffc4a6" stroke-width="2"/><path d="M263.16667,157v-36.66667h38v36.66667z" fill="#ffda9c" stroke="#000000" stroke-width="2"/><path d="M285.80557,157.16594l-30.58468,-1.44727l1.18187,-15.54836l30.5847,1.44727z" fill="#1d1b14" stroke="none" stroke-width="0"/><path d="M284.25113,128.64835l-25.90939,-1.22603l1.24482,-16.37659l25.9094,1.22603z" fill="#1d1b14" stroke="none" stroke-width="0"/><path d="M275.0682,152.83087l-23.3007,-1.10259l2.74515,-36.11446l23.3007,1.10259z" fill="#1d1b14" stroke="none" stroke-width="0"/><path d="M280.50759,143.83154l-10.3148,-0.4881l0.34922,-4.59428l10.3148,0.4881z" fill="#1d1b14" stroke="none" stroke-width="0"/><path d="M275.79947,141.69172l-5.49014,-0.25979l0.28936,-3.80669l5.49014,0.25979z" fill="#1d1b14" stroke="none" stroke-width="0"/><path d="M276.77103,131.48499l-4.99103,-0.23617l0.47893,-6.30073l4.99104,0.23618z" fill="#1d1b14" stroke="none" stroke-width="0"/><path d="M282.20117,130.48812l-10.3148,-0.4881l0.25942,-3.41289l10.3148,0.4881z" fill="#1d1b14" stroke="none" stroke-width="0"/><path d="M259.21821,154.62622l-5.73661,-0.27146l0.47307,-6.22356l5.73661,0.27146z" fill="#1d1b14" stroke="none" stroke-width="0"/><path d="M262.20004,117.29163l-6.02345,-0.28503l0.32684,-4.29992l6.02345,0.28503z" fill="#1d1b14" stroke="none" stroke-width="0"/><path d="M252.83894,149.55473l-1.86439,-0.08822l2.39114,-31.45727l1.86439,0.08822z" fill="#1d1b14" stroke="none" stroke-width="0"/><path d="M288.66274,156.36022l-5.59319,-0.26467l0.69669,-9.16561l5.5932,0.26467z" fill="#1d1b14" stroke="none" stroke-width="0"/><path d="M286.88905,122.88885l-3.15514,-0.1493l0.6795,-8.93929l3.15514,0.1493z" fill="#1d1b14" stroke="none" stroke-width="0"/><path d="M287.83333,147.33333v-11h6v11z" fill="#000000" stroke="none" stroke-width="0"/><path d="M289.16667,133.66667v-10h6.33333v10z" fill="#000000" stroke="none" stroke-width="0"/></g></g></svg>