<svg version="1.1" xmlns="http://www.w3.org/2000/svg" xmlns:xlink="http://www.w3.org/1999/xlink" width="100.18948" height="164.51506" viewBox="0,0,100.18948,164.51506"><defs><radialGradient cx="319.7" cy="148.4" r="26.48914" gradientUnits="userSpaceOnUse" id="color-1"><stop offset="0" stop-color="#ff0000"/><stop offset="1" stop-color="#ffb5b5"/></radialGradient><radialGradient cx="305.12627" cy="149.0663" r="6.5" gradientUnits="userSpaceOnUse" id="color-2"><stop offset="0" stop-color="#ff0000" stop-opacity="0.55686"/><stop offset="1" stop-color="#ff0000" stop-opacity="0"/></radialGradient><radialGradient cx="331.62627" cy="153.8163" r="6.5" gradientUnits="userSpaceOnUse" id="color-3"><stop offset="0" stop-color="#ff0000" stop-opacity="0.55686"/><stop offset="1" stop-color="#ff0000" stop-opacity="0"/></radialGradient><radialGradient cx="317.9" cy="144.6" r="6.2" gradientUnits="userSpaceOnUse" id="color-4"><stop offset="0" stop-color="#ff0000" stop-opacity="0.55686"/><stop offset="1" stop-color="#ff0000" stop-opacity="0"/></radialGradient></defs><g transform="translate(-273.43679,-98.23801)"><g data-paper-data="{&quot;isPaintingLayer&quot;:true}" fill-rule="nonzero" stroke-linejoin="miter" stroke-miterlimit="10" stroke-dasharray="" stroke-dashoffset="0" style="mix-blend-mode: normal"><path d="M313.76399,198.75972c-0.05716,1.2004 -0.43271,2.34152 -0.97504,3.18069c0.09928,-0.54093 0.16105,-1.08682 0.16105,-1.6404c0,-3.33294 -0.2,-6.72206 -0.2,-10c0,-0.65778 0,-1.31558 0,-1.97336c0.15979,0.18041 0.28833,0.40359 0.37504,0.67336c0.93627,2.91285 0.5625,6.45306 0.5625,9.37745z" fill="#ffffd6" stroke="none" stroke-width="0.5" stroke-linecap="butt"/><path d="M313.44126,166.3439c0.01854,-0.0316 0.03812,-0.06291 0.05878,-0.09389c2.33865,-3.50797 4.3278,0.85642 5.84819,2.25016c0.85258,0.78156 1.2335,-2.22366 2.33931,-2.56266c0.78686,-0.24122 1.65844,-0.69884 2.562,-1.21271c-0.00191,2.53661 -0.00859,5.07335 0.00287,7.60988c0.96765,3.42299 1.59759,6.56722 1.59759,10.16532c0,1.19279 -0.21803,2.35186 -0.50231,3.50475c-0.61631,-0.42246 -1.58187,-1.03453 -1.6209,-0.91179c-0.70504,2.21761 0.24147,3.16798 0.66511,4.63213c-0.20191,0.93859 -0.3419,1.89216 -0.3419,2.8749c0,1.99853 0.45018,3.75673 0.99188,5.4924c0.44098,4.32338 0.96171,8.69422 0.41122,12.76785c-0.61487,4.55003 -9.24587,5.22196 -11.89058,2.57726c-2.52904,-2.52903 0.49826,-3.22582 -0.71357,-5.64948c-0.18291,-0.34741 -0.28643,-0.74312 -0.28643,-1.16302c0,-0.02273 0.0003,-0.04538 0.0009,-0.06796c0.01907,-1.387 0.07369,-2.79775 0.14695,-4.22364c0.14422,-0.66941 0.23962,-1.34546 0.23962,-2.0334c0,-0.57761 -0.00601,-1.15691 -0.01594,-1.73702c0.22972,-3.57473 0.48286,-7.19579 0.50347,-10.73261c0.00456,-0.78222 0.00832,-1.56444 0.01137,-2.34667c-0.15837,0.41115 -0.40174,0.78521 -0.69889,1.09757c0,-2.26042 0,-4.52085 0,-6.78127c0,-3.37394 0.4,-6.55061 0.4,-9.9c0,-1.1652 0.10116,-2.62897 0.08889,-4.08797c0.07419,0.18173 0.14157,0.36079 0.20236,0.53187z" fill="#ef00ff" stroke="none" stroke-width="0.5" stroke-linecap="butt"/><path d="M324.55,192.6c0,-0.29156 0.01233,-0.58051 0.03494,-0.86722c0.01932,1.03357 0.07822,2.08042 0.15945,3.1354c-0.12174,-0.72737 -0.19439,-1.47883 -0.19439,-2.26818z" fill="#ef00ff" stroke="none" stroke-width="0.5" stroke-linecap="butt"/><path d="M312.72283,230.04355c-0.4475,-2.75966 -0.07757,-5.77553 -0.41028,-8.56811c-0.12709,-1.06671 -1.49887,-3.35549 -1.25,-4.47543c1.18869,-5.34912 14.53917,-5.14033 16.0625,-0.875c1.53564,4.2998 -0.03792,9.58826 -0.1875,13.99969c-0.12286,3.62358 0.43112,7.06407 0.21389,10.76975c-0.13398,2.28554 0.18175,6.0643 -0.90139,8.23057c-1.37105,2.7421 -3.77847,0.52344 -5.78078,1.19448c-4.46855,1.49757 -7.36251,-1.85782 -5.73858,-6.7296c-0.02832,-0.15063 -0.04314,-0.30603 -0.04314,-0.46488c0,-0.07879 0.00365,-0.15673 0.01078,-0.23367c0.15484,-4.05409 -1.31134,-8.75204 -1.97549,-12.8478z" fill="#f677ff" stroke="none" stroke-width="0.5" stroke-linecap="butt"/><path d="M319.10017,157.52131c0.72138,0.05266 1.1627,0.86078 1.73769,1.29959c0.16734,0.12771 1.30021,-0.75666 2.54778,0.52134c1.94393,1.99134 -1.61228,8.68948 -4.49999,8.52905c-2.75794,-0.15322 -3.66756,-4.35369 -3.64704,-6.47488c0.00236,-0.24371 -0.0529,-2.23394 0.44792,-2.46271l1.52991,-0.78448c0.06043,0 0.1202,0.00285 0.17917,0.00841c0.58014,-0.03841 1.10547,-0.68005 1.70455,-0.63632z" fill="#ffffd6" stroke="none" stroke-width="0.5" stroke-linecap="butt"/><path d="M312.69831,252.01092c1.23703,-0.53784 3.29385,0.16513 4.39282,-0.42898c0.59616,-0.32228 0.86567,-0.89081 1.77813,-0.89081c0.50556,0 1.27658,0.62944 1.65309,0.56665c2.252,-0.37559 3.81047,-1.1736 6.07605,-0.6072c0.87185,0.21796 0.95538,1.44429 1.3811,1.6516c0.69558,0.33873 2.09852,-0.18571 2.96059,-0.07043c2.37446,0.31754 6.29783,2.38183 5.74149,5.50369c-0.65294,3.66388 -9.83986,0.98782 -12.53916,0.46824c-1.1838,-0.22787 -2.59038,-1.33343 -3.56288,-0.62099c-0.76001,0.55677 -6.5524,2.70725 -8.18067,3.23604c-0.58066,0.18858 -1.83874,-0.10851 -2.88434,-0.57896c-0.67602,-0.05939 -1.24958,-0.47586 -1.53092,-1.05966c-0.08337,-0.12187 -0.12956,-0.24227 -0.12956,-0.35806c-0.03674,-0.14683 -0.05624,-0.30049 -0.05624,-0.45871c0,-0.3018 0.07097,-0.58702 0.19714,-0.83988c0.70009,-2.15378 2.88645,-4.72259 4.70337,-5.51255z" fill="#ffffff" stroke="none" stroke-width="0.5" stroke-linecap="butt"/><path d="M299.38795,157.38554c0,0 -4.22307,-17.29411 -4.22307,-24.93623c0,-2.75768 -0.95763,-11.04158 3.54451,-14.9676c5.80536,-5.06248 17.7568,-5.54445 21.79391,-5.54445c3.39251,0 15.74324,-2.37128 21.09113,2.11689c6.84841,5.74747 6.45938,19.01195 6.45938,23.02043c0,7.07165 -3.82087,20.31096 -3.82087,20.31096c0,0 -15.47704,2.21209 -23.12634,2.21209c-7.28084,0 -21.71865,-2.21209 -21.71865,-2.21209z" fill="url(#color-1)" stroke="#000000" stroke-width="3" stroke-linecap="butt"/><path d="M313.20451,164.71367l1.90841,0.34253" fill="none" stroke="#000000" stroke-width="3" stroke-linecap="round"/><path d="M315.96061,251.58193l-4.6466,-34.56538l1.60202,-3.1091l13.31624,0.12559" fill="none" stroke="#000000" stroke-width="3" stroke-linecap="round"/><path d="M322.61644,165.43293l-3.76745,3.13954l-3.17093,-4.83489l-0.56511,-3.57907" fill="none" stroke="#000000" stroke-width="3" stroke-linecap="round"/><path d="M332.4432,162.419l-7.69288,2.00683" fill="none" stroke="#000000" stroke-width="3" stroke-linecap="round"/><path d="M312.76612,178.58473l1.25209,4.73318l-0.97735,29.20813" fill="none" stroke="#000000" stroke-width="3" stroke-linecap="round"/><path d="M313.79433,165.43293l-0.64463,4.62682" fill="none" stroke="#000000" stroke-width="3" stroke-linecap="round"/><path d="M330.2025,142.3385c0.52728,2.27608 0.03401,5.70387 -2.87382,4.88839c-1.74087,-0.48821 -1.80588,-5.91728 -0.88122,-7.91294c-0.05502,-0.17061 -0.33024,-1.18344 0.73989,-1.58473c0.5042,-0.18908 0.87265,-0.07949 1.12874,0.10652c1.59544,-0.66263 1.63283,0.84265 1.8935,2.56389c0.06655,0.43943 0.00037,0.88889 0,1.33333c-0.00017,0.20178 -0.00248,0.40366 -0.00709,0.60554z" fill="#ffffff" stroke="none" stroke-width="0.5" stroke-linecap="butt"/><path d="M323.56818,165.61546l0.67773,3.13133" fill="none" stroke="#000000" stroke-width="3" stroke-linecap="round"/><path d="M324.75228,171.08643l1.4133,6.52997l-0.15421,0.27914" fill="none" stroke="#000000" stroke-width="3" stroke-linecap="round"/><path d="M311.59326,206.48335l0.31733,0.76827" fill="none" stroke="#000000" stroke-width="3" stroke-linecap="round"/><path d="M325.44203,206.62373l1.40809,-3.11263" fill="none" stroke="#000000" stroke-width="3" stroke-linecap="round"/><path d="M320.2304,214.2842l1.25581,43.57682l-11.67909,3.01395l-2.26047,-4.39535l7.66048,-5.02326" fill="none" stroke="#000000" stroke-width="3" stroke-linecap="round"/><path d="M315.96061,250.82845l10.17211,-0.37674" fill="none" stroke="#000000" stroke-width="3" stroke-linecap="round"/><path d="M312.19317,253.96799l2.13489,1.75814" fill="none" stroke="#000000" stroke-width="3" stroke-linecap="round"/><path d="M310.05828,255.2238l1.88372,1.38139" fill="none" stroke="#000000" stroke-width="3" stroke-linecap="round"/><path d="M328.51878,254.72148l3.01395,-1.50698" fill="none" stroke="#000000" stroke-width="3" stroke-linecap="round"/><path d="M334.42112,253.96799l-1.75815,1.50698" fill="none" stroke="#000000" stroke-width="3" stroke-linecap="round"/><path d="M325.06254,186.5l0.14368,0.05987" fill="none" stroke="#000000" stroke-width="3" stroke-linecap="round"/><path d="M359.05269,178.83124c0.00251,1.29834 -0.0194,2.61469 -0.11873,3.96257c-0.12225,1.65882 0.45393,3.7699 -0.73223,4.93594c-1.20866,1.18816 -3.33748,0.69046 -5.03188,0.73039c-3.41044,0.08037 -7.8271,-0.2295 -9.85266,-3.78265c-0.59133,-1.03728 -0.74113,-2.31431 -0.61224,-3.6977c-0.47895,-0.76589 -0.76839,-1.50565 -0.7383,-2.13958c0.05693,-1.19955 0.82541,-2.22376 1.74044,-3.12561c0.45177,-1.12953 0.99204,-2.4939 1.4264,-3.63319c-0.00003,-2.70267 -0.00016,-5.40533 -0.00005,-8.108c0.33582,-1.45986 0.75865,-2.90624 1.21085,-4.34753c-0.44222,-4.50208 -1.38011,-9.03125 -1.56097,-13.34609c-0.12827,-3.06019 0.66783,-7.11454 -0.52388,-10.07211c-1.04421,-2.5915 -5.05267,-7.27063 -7.6005,-8.55687c-0.91908,-0.46399 -5.76523,-0.76395 -6.17356,-0.80478c-3.87334,-0.38729 -7.5557,-1.12134 -11.45451,-1.39701c-0.53727,0.00031 -1.10961,-0.02201 -1.70684,-0.05632c-0.39391,0.25914 -0.86546,0.40992 -1.37222,0.40992c-0.11851,0 -0.23509,-0.00825 -0.34921,-0.0242l-2.77703,-0.34713l0.03337,-0.26698l-0.6597,0.10428c-0.09615,-0.06913 -0.19125,-0.14006 -0.28545,-0.21254c-2.86404,-0.07505 -5.65654,0.19314 -7.53359,1.68896l1.0469,-0.27424c0,0 0,2.5 -2.5,2.5c-0.22268,0 -0.42553,-0.01983 -0.61031,-0.05597c-0.15792,1.85156 -0.18089,3.70541 -0.43048,5.62064c-0.66657,5.11496 -2.50239,10.18633 -2.80048,15.32543c-0.25575,4.40918 -0.11992,8.83765 -0.2118,13.25623c0.13928,0.3114 0.21673,0.6565 0.21673,1.01969c0,0.11851 -0.00825,0.23509 -0.0242,0.34921l-0.00655,0.05239c0.65633,0.45057 1.0868,1.20628 1.0868,2.06253c0,0.97262 -0.55543,1.81552 -1.3664,2.22882c0.06304,1.07708 0.15213,2.30173 0.14118,3.5067c0.82967,1.30375 1.07104,3.24396 1.20446,5.25229l0.62861,-0.09246c-0.05837,0.20191 -0.11583,0.40415 -0.17196,0.60672l0.26815,0.11455c0,0 0,0.95631 -0.59147,1.68601c0.03657,0.59549 0.08011,1.17732 0.14375,1.72997c1.43826,1.17744 0.53581,2.98234 0.53581,2.98234l-1.19069,0.06507c0.00921,0.10126 0.01974,0.20266 0.03162,0.3042c0.27696,2.36564 1.89789,5.68027 0.8312,8.02953c-1.96417,4.32586 -7.68138,2.5791 -11.10724,2.82096c-1.35035,0.09533 -2.75202,1.02029 -4.0231,0.55457c-2.45464,-0.89937 -4.94455,-6.58574 -5.93563,-8.65723c-1.96181,-4.10045 -4.14662,-7.74909 -5.0932,-11.84834c-0.31111,-0.64109 -0.48039,-1.39129 -0.61044,-2.12568c-0.04069,-0.0518 -0.07941,-0.10624 -0.11603,-0.16343c-0.34559,-0.5397 -0.35426,-1.29527 -0.16603,-2.14188c-0.10672,-3.30421 0.90973,-7.95679 1.43706,-10.61318c0.27477,-1.38415 0.54607,-2.77883 0.81966,-4.17992c-0.91203,-1.89819 -2.44381,-4.14312 -1.39018,-5.84921c0.56975,-0.92255 1.62191,-1.34497 2.85613,-1.43856c1.61591,-7.63578 3.58939,-15.25128 6.83222,-22.19375c2.58024,-5.52396 3.70961,-10.62696 9.06796,-14.20438c2.78714,-3.22298 6.19926,-8.20801 10.00559,-10.19815c2.48406,-1.2988 5.18065,-0.98085 7.83571,-0.98287c0.8368,-0.00064 1.67061,0.03179 2.50251,0.08438c1.01778,-0.3001 2.05264,-0.55496 3.09428,-0.75798c0.46131,0.17713 0.91229,0.40678 1.34984,0.69496c0.24463,0.16112 0.47317,0.33937 0.68557,0.53246c2.63368,0.25736 5.27055,0.45003 7.94527,0.16414c5.2782,-0.56418 9.8256,-3.7766 15.14936,-4.22552c3.56498,-0.30062 6.05071,0.84757 8.79407,2.38651c0.23412,0.0595 0.45069,0.11907 0.64674,0.17751c0.51582,0.15378 1.08182,0.36503 1.66322,0.6242l1.81523,-0.09084c0.16784,0.42782 0.34696,0.84817 0.53456,1.26282c0.02034,-0.04861 0.04049,-0.09728 0.06044,-0.14602l0.13105,0.27673l0.00453,0.11521c0.8595,0.5903 1.63281,1.2628 2.1886,1.98136c0.52055,0.38559 0.99533,0.7822 1.38229,1.1803c1.17827,0.2018 2.07498,1.22819 2.07498,2.46402c0,0.4532 -0.12059,0.87823 -0.33143,1.24476c0.03788,0.11982 0.07571,0.24074 0.1134,0.36235l2.29166,1.05395c0,0 0.86298,0.40097 1.27671,1.24058c1.10603,0.25795 1.92994,1.25012 1.92994,2.43471c0,1.38071 -1.11929,2.5 -2.5,2.5c-0.39296,0 -0.76474,-0.09066 -1.09557,-0.25221c1.3598,6.09715 1.83309,12.20614 1.83548,18.52132c0.00048,1.26063 0.01052,7.91194 -0.05446,8.26339c-0.02866,0.15502 -2.27245,5.25206 -2.58971,6.04487c-1.40467,3.51015 -2.70095,7.31707 -3.42762,11.08721c1.06432,0.28695 1.84756,1.25901 1.84756,2.41401c0,0.11851 -0.00825,0.23509 -0.0242,0.34921l-0.34713,2.77703l-0.07069,-0.00884l0.04246,0.18391c-0.5684,2.05095 -0.79374,4.04282 -0.87556,6.02655c0.29763,0.3563 0.54587,0.79582 0.73279,1.33205c0.58542,1.6795 0.15628,3.2777 -0.74702,4.73855zM349.57736,181.19441l0.06574,-0.06516c-0.06511,-0.00394 -0.13022,-0.00879 -0.19528,-0.01453c0.04326,0.02648 0.08646,0.05304 0.12955,0.07969zM289.95842,152.06231c-0.02104,0.05535 -0.04205,0.11071 -0.06301,0.16608c0.01024,0.00527 0.02047,0.01058 0.03068,0.01592c0.01071,-0.06067 0.02149,-0.12134 0.03233,-0.182z" fill="#352f26" stroke="none" stroke-width="0.5" stroke-linecap="butt"/><path d="M287.43827,151.81616c0,0 3.14234,15.23995 2.96152,22.53281c-0.17061,6.88132 -4.01758,20.06147 -4.01758,20.06147" fill="none" stroke="#d6d6d6" stroke-width="0.5" stroke-linecap="round"/><path d="M287.79029,196.17053l-0.35202,-9.50451" fill="none" stroke="#d6d6d6" stroke-width="0.5" stroke-linecap="round"/><path d="M352.91377,188.0741c0,0 -1.56061,-10.39785 -1.09855,-17.15555c0.47623,-6.96478 3.9147,-24.03065 3.9147,-24.03065" fill="none" stroke="#d6d6d6" stroke-width="0.5" stroke-linecap="round"/><path d="M304.88667,132.86352l11.60602,-2.16816" fill="none" stroke="#000000" stroke-width="3" stroke-linecap="round"/><path d="M336.51626,134.01136l-10.07556,-0.51015" fill="none" stroke="#000000" stroke-width="3" stroke-linecap="round"/><path d="M318.66084,139.49552l-10.71325,-0.51015" fill="none" stroke="#000000" stroke-width="3" stroke-linecap="round"/><path d="M337.40903,149.06094l-11.60603,-0.6377l-0.38261,-10.84079l11.35095,-0.6377" fill="none" stroke="#000000" stroke-width="3" stroke-linecap="round"/><path d="M333.07272,138.60276l0.12754,8.41755" fill="none" stroke="#000000" stroke-width="3" stroke-linecap="round"/><path d="M331.54226,138.22014l0.12753,8.41756" fill="none" stroke="#000000" stroke-width="3" stroke-linecap="round"/><path d="M322.28136,183.62051c0.35918,1.19728 -0.8381,1.55647 -0.8381,1.55647l-1.08964,0.3103c-0.09443,0.03452 -0.18936,0.07836 -0.28461,0.12822c-0.01699,0.33313 -0.07091,0.68757 -0.1435,1.04386c0.17703,1.142 0.7623,4.90394 0.54179,5.28167c-0.22957,0.39325 -0.7036,0.47891 -1.20384,0.53159l-0.02722,0.0998c-0.13532,0.5441 -0.62713,0.9473 -1.2131,0.9473c-0.69036,0 -1.25,-0.55964 -1.25,-1.25v-1.40293c-0.09111,-0.45093 -0.0906,-0.96882 0.00937,-1.81073c0.01234,-0.10389 0.29257,-1.24752 0.55168,-2.14297h-0.17843v-0.08802c-0.19219,0.1205 -0.4195,0.19017 -0.66308,0.19017c-0.69036,0 -1.25,-0.55964 -1.25,-1.25c0,-0.22847 0.06129,-0.44262 0.16833,-0.6269l0.62667,-1.128l0.09584,0.05324c0.03223,-0.11147 0.06955,-0.22159 0.11297,-0.33007c0.12761,-0.31879 0.78174,-0.0909 0.95439,-0.38772c0.16324,-0.28063 -0.11407,-0.63921 -0.17111,-0.95882l0.03324,-0.05925l-0.02859,-0.00286l0.12616,-1.26164c0.05599,-0.63854 0.5921,-1.13937 1.24517,-1.13937c0.65653,0 1.19485,0.50615 1.24602,1.14952l0.12638,1.39023l-0.01519,0.00138c0.00646,0.01833 0.0128,0.03672 0.01904,0.05515c0.0607,0.17944 0.08905,0.35761 0.09362,0.52671l0.84926,-0.26442c0,0 1.19728,-0.35918 1.55647,0.8381z" fill="#af00bb" stroke="none" stroke-width="0.5" stroke-linecap="butt"/><path d="M321.81136,190.27832c-0.17678,1.23744 -1.41421,1.06066 -1.41421,1.06066l-1.46599,-0.36498c-0.92944,-0.71527 -1.25182,-1.2491 -2.31341,-0.62297c0,0 -1.14226,0.50767 -1.64994,-0.63459c-0.50767,-1.14226 0.63459,-1.64994 0.63459,-1.64994c2.09305,-0.80124 3.05219,-0.39933 4.82876,0.9075l0.31955,-0.1099c0,0 1.23744,0.17678 1.06066,1.41421z" fill="#870091" stroke="none" stroke-width="0.5" stroke-linecap="butt"/><path d="M322.71351,184.96152c-0.08906,1.24682 -1.33588,1.15776 -1.33588,1.15776l-2.2157,-0.2373c-0.28777,-0.32034 -0.48473,-0.75583 -0.86332,-0.96101c-0.48481,-0.26274 -0.97553,0.51489 -1.45395,0.7891c0,0 -1.0927,0.60705 -1.69975,-0.48564c-0.60705,-1.0927 0.48564,-1.69975 0.48564,-1.69975c1.91119,-1.03707 2.89121,-1.45615 4.56981,0.08317l1.35538,0.01778c0,0 1.24682,0.08906 1.15776,1.33588z" fill="#870091" stroke="none" stroke-width="0.5" stroke-linecap="butt"/><path d="M313.37831,225.82074c-0.27524,-1.106 -0.80214,-3.87965 0.87745,-4.5721c0.62689,-0.25844 3.78093,1.64742 4.70826,1.86605c0,0 1.21267,0.30317 0.9095,1.51585c-0.1492,0.59678 -0.51864,0.82645 -0.85544,0.90581v1.17159c0.22384,2.43278 0.58962,4.70129 0.6202,7.02148c0.05527,0.17078 0.10983,0.34267 0.16377,0.51575l0.07147,-0.01787l0.37582,1.50327c0.02877,0.10523 0.04412,0.216 0.04412,0.33037c0,0.69036 -0.55964,1.25 -1.25,1.25c-0.5753,0 -1.05983,-0.38865 -1.20535,-0.91772l-0.37359,-1.24533c-0.98692,-3.207 -3.29806,-6.16011 -4.08621,-9.32715z" fill="#7b3c80" stroke="none" stroke-width="0.5" stroke-linecap="butt"/><path d="M317.65894,220.80273c0.04076,0.06629 0.08074,0.13273 0.11999,0.19931c0.17427,0.0451 0.32235,0.14832 0.45812,0.2789c0.57679,0.10005 0.88348,0.66232 0.88348,0.66232c0.47788,0.8838 1.18297,1.62932 1.68074,2.50207c0.07201,0.12625 -0.09607,0.56978 -0.04495,0.43372c0.78355,-2.08517 2.37833,-6.81839 5.44409,-3.54817c0.17216,0.18365 0.29703,3.16951 0.18658,3.64373c-0.73994,3.17706 -3.00357,6.61478 -4.55875,9.46069l-0.48307,1.08691c-0.18858,0.45128 -0.63418,0.76841 -1.15385,0.76841c-0.47891,0 -0.89492,-0.26932 -1.10483,-0.66477l-0.62556,-1.12603l0.31191,-0.17328c-1.36019,-2.33109 -1.82863,-5.06107 -2.37622,-7.83538l0.03674,-0.12317h-0.04282v-1.40293c0,-0.27364 0.08793,-0.52674 0.23707,-0.7326c-0.14103,-0.42081 -0.2797,-0.82212 -0.42032,-1.18933l-1.09884,-0.49947c-0.44603,-0.19091 -0.75853,-0.6338 -0.75853,-1.14968c0,-0.69036 0.55964,-1.25 1.25,-1.25c0.13508,0 0.26515,0.02143 0.38701,0.06107l1.24756,0.37426l-0.04873,0.16243l0.16599,0.07545z" fill="#7b3c80" stroke="none" stroke-width="0.5" stroke-linecap="butt"/><path d="M319.29854,219.60844l0.6377,21.04389" fill="none" stroke="#000000" stroke-width="0.5" stroke-linecap="round"/><path d="M320.44639,216.29243l1.02031,30.48175" fill="none" stroke="#000000" stroke-width="3" stroke-linecap="round"/><path d="M327.46101,218.71567v10.07556" fill="none" stroke="#000000" stroke-width="3" stroke-linecap="round"/><path d="M312.92159,231.08692l-1.02031,-10.84079" fill="none" stroke="#000000" stroke-width="3" stroke-linecap="round"/><path d="M310.12627,153.56629l10.16667,0.83334" fill="none" stroke="#000000" stroke-width="3" stroke-linecap="round"/><path d="M312.12627,153.0663l4.16667,-3.16666l5,4.16666" fill="none" stroke="#000000" stroke-width="3" stroke-linecap="round"/><path d="M315.12627,152.5663h4.16667" fill="none" stroke="#000000" stroke-width="3" stroke-linecap="round"/><path d="M311.62627,149.06629c0,2.39324 -2.91015,4.33334 -6.5,4.33334c-3.58985,0 -6.5,-1.9401 -6.5,-4.33334c0,-2.39324 2.91015,-4.33333 6.5,-4.33333c3.58985,0 6.5,1.94009 6.5,4.33333z" fill="url(#color-2)" stroke="none" stroke-width="0" stroke-linecap="butt"/><path d="M373.62627,116.39963v0z" fill="#ff715f" stroke="none" stroke-width="0" stroke-linecap="butt"/><path d="M338.12627,153.8163c0,1.51878 -2.91015,2.75 -6.5,2.75c-3.58985,0 -6.5,-1.23122 -6.5,-2.75c0,-1.51878 2.91015,-2.75 6.5,-2.75c3.58985,0 6.5,1.23121 6.5,2.75z" fill="url(#color-3)" stroke="none" stroke-width="0" stroke-linecap="butt"/><path d="M324.09999,144.6c0,1.43594 -2.77583,2.6 -6.2,2.6c-3.42417,0 -6.2,-1.16406 -6.2,-2.6c0,-1.43594 2.77583,-2.6 6.2,-2.6c3.42417,0 6.2,1.16406 6.2,2.6z" fill="url(#color-4)" stroke="none" stroke-width="0" stroke-linecap="butt"/><path d="M305.3,151.6l-1.8,-4.4" fill="none" stroke="#ff4a4a" stroke-width="0.5" stroke-linecap="round"/><path d="M307.1,152.8l-1.6,-6" fill="none" stroke="#ff4a4a" stroke-width="0.5" stroke-linecap="round"/><path d="M330.3,154.6l-1.8,-3" fill="none" stroke="#ff4a4a" stroke-width="0.5" stroke-linecap="round"/><path d="M332.5,152.59999l1,2.8" fill="none" stroke="#ff4a4a" stroke-width="0.5" stroke-linecap="round"/><path d="M313.39105,145.62126c0.23588,0.1228 0.45603,0.28562 0.65026,0.48826c0.95542,0.99676 0.92192,2.57933 -0.07484,3.53475c-0.87393,0.83769 -2.19819,0.91515 -3.15525,0.24971c-0.01797,-0.0125 -0.03582,-0.02527 -0.05354,-0.03829c-2.11412,-1.52814 -7.16435,-7.06402 -5.09122,-9.05118c1.76452,-1.69134 6.00781,1.31343 7.72459,4.81674z" data-paper-data="{&quot;index&quot;:null}" fill="#ffffd6" stroke="none" stroke-width="0.5" stroke-linecap="butt"/><path d="M328.06841,168.42038c-1.80432,-1.88507 -3.60366,-3.77521 -5.41904,-5.64955c-1.66033,-3.16606 -3.42485,-5.88874 -5.92536,-8.49743c-0.89907,-0.93797 -1.95479,-1.66741 -3.05192,-2.3494c0.00194,-0.01293 0.00364,-0.02482 0.00507,-0.03559c0.17527,-1.32462 1.2256,-3.28335 2.69265,-3.01404c3.03213,0.5566 3.8126,5.18433 5.27373,7.39526c1.96769,2.97747 3.58321,3.91789 6.59556,5.12615c1.24478,0.49928 3.80374,0.30891 4.37153,2.25758c0.24318,0.83462 1.66613,0.57077 1.60942,1.12902c-0.23248,2.28847 -3.32371,2.94826 -6.15163,3.63801z" data-paper-data="{&quot;index&quot;:null}" fill="#ef00ff" stroke="none" stroke-width="0.5" stroke-linecap="butt"/><path d="M309.88529,142.35476c1.07368,0.88144 2.22376,1.82399 3.49467,2.96322c4.69626,4.20968 7.68041,10.03669 9.8624,12.26266c2.77822,2.83423 10.17802,6.93938 10.17802,6.93938l-5.72038,13.07997" data-paper-data="{&quot;index&quot;:null}" fill="none" stroke="#000000" stroke-width="3" stroke-linecap="round"/><path d="M310.12007,141.79956l-6.97186,-2.79872" data-paper-data="{&quot;index&quot;:null}" fill="none" stroke="#000000" stroke-width="3" stroke-linecap="round"/><path d="M334.44759,139.65117c-0.34926,0.75049 -0.74788,1.47137 -1.26538,2.11881c-2.08134,2.60397 -4.35241,5.12498 -6.39982,7.6865c-0.49106,0.61435 -0.9821,1.22871 -1.47316,1.84307c-1.58509,-0.32173 -2.80681,-2.77375 -1.7118,-4.16477c2.26891,-2.88225 3.91685,-6.59574 7.11206,-8.39739c2.30218,-1.2981 3.49475,-0.53386 3.7381,0.91378z" data-paper-data="{&quot;index&quot;:null}" fill="#ffffd6" stroke="none" stroke-width="0.5" stroke-linecap="butt"/><path d="M321.44173,150.53248c1.69936,-0.7852 2.90159,0.16691 3.28844,1.49153c-1.50119,1.87813 -3.00237,3.75627 -4.50356,5.6344c-2.10667,2.63565 -3.77833,5.36773 -5.8687,7.983c-0.89425,1.11881 -1.96989,2.73763 -3.16723,4.06975c-1.22853,0.46211 -2.49088,0.46292 -2.8945,-1.21958c-0.64695,-2.69687 1.71454,-3.54693 3.07092,-5.45481c2.68383,-3.77509 5.55863,-10.41763 10.07464,-12.50429z" data-paper-data="{&quot;index&quot;:null}" fill="#ef00ff" stroke="none" stroke-width="0.5" stroke-linecap="butt"/><path d="M311.11092,169.79928l-4.41532,-2.3933c0,0 7.15052,-7.56551 10.82284,-11.82291c1.85647,-2.15225 5.05331,-7.76716 7.6155,-11.62085c0.25695,-0.38648 1.23598,0.74976 1.52054,0.35268c0.68009,-0.94897 1.37011,-2.04974 2.06243,-3.18666" data-paper-data="{&quot;index&quot;:null}" fill="none" stroke="#000000" stroke-width="3" stroke-linecap="round"/><path d="M335.65293,136.80323l-6.75765,3.73382" data-paper-data="{&quot;index&quot;:null}" fill="none" stroke="#000000" stroke-width="3" stroke-linecap="round"/><path d="M323.75352,146.93949l-0.07412,6.39914l12.3267,-16.26634l0.12754,11.73356" data-paper-data="{&quot;index&quot;:null}" fill="none" stroke="#000000" stroke-width="3" stroke-linecap="round"/><path d="M312.4238,175.26992l-0.18442,1.32361l0.09051,0.34214l-6.42989,-8.93567" fill="none" stroke="#000000" stroke-width="3" stroke-linecap="round"/><path d="M327.9,166l-0.2,8l-1.6,-10" fill="none" stroke="#ef00ff" stroke-width="0.5" stroke-linecap="round"/><path d="M312.1,173.8l-2.6,-3.4l3.8,1.4" fill="none" stroke="#ef00ff" stroke-width="3" stroke-linecap="round"/><path d="M330.1,167l-6.2,8.2" fill="none" stroke="#ef00ff" stroke-width="3" stroke-linecap="round"/><path d="M326.7,167.8l-2,4.6" fill="none" stroke="#ef00ff" stroke-width="3" stroke-linecap="round"/><path d="M322.1,171.8l3.8,-5.4l1,7l2,-5.2" fill="none" stroke="#ef00ff" stroke-width="3" stroke-linecap="round"/><path d="M314.97781,147.80911l-1.69314,3.8767l-9.58467,-11.28581" fill="none" stroke="#000000" stroke-width="3" stroke-linecap="round"/><path d="M324.34319,160.15852l-0.56512,4.52093l0.47159,-0.12302l-4.74966,-7.15643" fill="none" stroke="#000000" stroke-width="3" stroke-linecap="round"/><path d="M322.1,156.8l-7.6,11.2" fill="none" stroke="#000000" stroke-width="3" stroke-linecap="round"/><path d="M316.16667,168.11111l-4.55556,7.22222" fill="none" stroke="#000000" stroke-width="3" stroke-linecap="round"/><path d="M319.16667,167.88889l6.55556,6.66667" fill="none" stroke="#000000" stroke-width="3" stroke-linecap="round"/><path d="M326.5,175.11111l-0.89662,3.52293l-2.46467,4.46136l2.2641,30.56089l1.83032,3.14424l-0.6059,35.28373l9.92095,3.64186l-0.25117,5.27443l-15.32095,-2.51163" fill="none" stroke="#000000" stroke-width="3" stroke-linecap="round"/></g></g></svg>