<svg version="1.1" xmlns="http://www.w3.org/2000/svg" xmlns:xlink="http://www.w3.org/1999/xlink" width="67.66807" height="99.12805" viewBox="0,0,67.66807,99.12805"><g transform="translate(-292.94432,-109.5658)"><g data-paper-data="{&quot;isPaintingLayer&quot;:true}" fill-rule="nonzero" stroke="none" stroke-width="0.5" stroke-linecap="butt" stroke-linejoin="miter" stroke-miterlimit="10" stroke-dasharray="" stroke-dashoffset="0" style="mix-blend-mode: normal"><path d="M319.47962,141.42591c-0.16528,-0.63913 -0.11814,-1.15313 0.04075,-1.56352c-0.43867,-1.10736 -0.97538,-2.17897 -1.57981,-3.20271c0,0 -0.41577,-0.71276 -0.3601,-1.55816c-0.53714,-0.3761 -1.0721,-0.75317 -1.60046,-1.13459c-5.35101,2.8922 -10.98282,5.28298 -16.21259,8.38366c0.03062,0.0119 0.06114,0.02333 0.09155,0.03427c4.64411,1.67091 9.24289,3.28103 13.61752,5.60925l0.79719,-0.48385c0,0 1.72918,-0.1572 2.43641,1.23148c1.16542,-0.1021 2.55765,0.27585 3.72099,0.1592c6.35193,-0.63693 12.11958,-2.17252 18.20997,-3.91254c2.92893,-0.76418 5.8692,-1.60979 8.83335,-2.32081c-0.89134,-0.38603 -1.76795,-0.80722 -2.6154,-1.29739c-4.20929,-2.4347 -7.89247,-5.06985 -12.15815,-7.13086c-0.37248,0.59866 -0.74681,1.18199 -1.1207,1.74739l0.17133,0.10354c0,0 -0.24297,1.21485 -1.24203,1.76309c-0.26013,1.53975 0.10907,3.50779 -1.1192,4.38867c-1.38308,0.9919 -3.23486,0.79333 -5.01511,0.77646c-1.01005,0.74445 -1.89097,0.59836 -2.51316,0.27458c-0.76424,0.00304 -1.96747,-0.26291 -2.38233,-1.86718zM326.00978,138.55795c0.53024,-0.21199 -0.26031,-1.11202 -0.39047,-1.66804c0,0 0.1715,-1.37197 1.27972,-1.94776l0.52085,-1.7289c0.43511,-0.64647 0.81714,-1.29275 1.16821,-1.94324c-0.06532,-0.39483 -0.02505,-0.85905 0.19072,-1.39848c0.28698,-0.71744 0.707,-1.12443 1.15041,-1.34435c0.361,-0.78679 0.72161,-1.5878 1.11752,-2.41015c1.7179,-3.56825 3.85204,-6.68121 4.75361,-10.55868c0.54365,-2.21466 -1.341,-0.47122 -3.24211,0.81983c-2.29696,1.55988 -4.124,3.71959 -6.14166,5.62703c-1.2236,1.15676 -2.14856,3.35126 -3.83135,3.29215c-1.64786,-0.05788 -2.2891,-2.37396 -3.44707,-3.54779c-1.97727,-2.00434 -2.69861,-2.7353 -4.89994,-4.52147c-0.75652,-0.61385 -2.18531,-1.98042 -2.68855,-1.14623c-0.73101,1.21174 -0.11303,2.83798 0.0354,4.24533c0.37439,3.54977 2.58304,6.06008 5.26019,8.17383c0.66096,0.05379 1.41945,0.37374 1.90194,1.40127c1.42087,0.99023 2.88105,1.91728 4.20589,2.86336c0,0 2.03433,1.4531 0.58124,3.48743c-0.03161,0.04426 -0.0635,0.08687 -0.09564,0.12788c0.3379,0.71067 0.64791,1.43462 0.92549,2.16976c0.56605,0.14484 1.12306,0.21614 1.64559,0.00722zM347.34102,137.02978c2.73153,1.59287 5.79761,2.45758 8.67193,3.74804c0.63164,-0.10302 1.24395,-0.08949 1.80925,0.1882c1.42217,0.69861 1.90854,2.61607 2.32925,4.14369c0.92186,3.34736 0.12067,8.26134 0.24696,11.80117c0.21261,5.95934 0.20612,11.9244 0.20159,17.88912c-0.00145,1.91117 0.16162,5.80246 -0.65421,7.49838c-1.5606,3.2441 -3.34642,2.74945 -6.10603,4.12669c-2.90432,1.44946 -5.65184,3.76782 -8.40976,5.49179c-3.73944,2.36157 -7.67455,4.49749 -11.25436,7.10118c-3.8179,2.77686 -6.94899,6.2204 -10.96539,8.7111l-2.85245,0.88276c0,0 -1.6947,0.46219 -2.63041,-0.80883l-1.18892,-0.49538l0.03426,-0.08222l-0.28164,-0.0372c-6.87444,-4.82221 -12.46658,-10.67255 -18.36153,-16.4224c-0.10631,0.03288 -0.21926,0.06158 -0.33926,0.08558c-2.45145,0.49029 -2.94174,-1.96116 -2.94174,-1.96116c-0.09993,-0.50708 -0.19288,-1.01693 -0.27928,-1.52929c-0.18772,-0.17498 -0.37603,-0.34966 -0.56497,-0.52399c0,0 -1.83701,-1.6957 -0.14131,-3.53271c0.04699,-0.0509 0.09408,-0.09909 0.14125,-0.14468c-0.97416,-9.43241 -0.20424,-19.47569 -0.20424,-28.75962c0,-2.67066 -0.93209,-11.9509 1.28049,-13.58239c0.02131,-0.01572 0.04275,-0.03073 0.06432,-0.04505c-0.01457,-1.32662 1.24495,-2.10171 1.24495,-2.10171c4.9898,-3.06538 10.36431,-5.43137 15.56305,-8.12428c-2.65542,-2.52588 -4.66048,-5.52632 -5.13788,-9.67378c-0.18261,-1.58645 -0.22197,-6.82443 1.2354,-8.15467c4.67517,-4.26732 8.99574,-0.06546 12.34829,3.04757c0.90528,0.8406 1.97753,1.57088 2.67266,2.58292c0.74228,-1.05679 1.77177,-1.90992 2.72956,-2.78242c1.33976,-1.22046 2.72462,-2.4121 4.24961,-3.39132c2.01581,-1.29439 6.77995,-4.03222 9.44614,-1.69864c1.34937,1.18103 1.00204,3.44361 1.50306,5.16542c-0.99463,4.60966 -3.11883,9.66585 -5.5897,14.26369c4.22286,2.09103 7.94125,4.68118 12.13107,7.12444zM311.12353,152.40588c-3.36157,-1.7969 -6.52173,-2.76074 -10.08531,-4.05911c-0.76507,-0.27875 -1.58602,-0.49019 -2.33201,-0.82237c0.38185,2.24323 -0.10621,4.58786 -0.10621,6.8756c0,5.58547 0.0448,11.15143 0.19904,16.73064c0.12912,4.67052 -0.21332,9.235 0.2936,13.81609c5.63899,5.38944 10.82277,11.04448 16.95969,15.87433c-0.44321,-3.28446 -0.24262,-7.46372 -0.44555,-10.23717c-0.75966,-10.38188 -1.20677,-20.76805 -1.20677,-31.1839c0,-0.99735 -0.08087,-4.34031 0.1085,-6.91534zM331.22437,194.98195c3.67674,-2.67382 7.70549,-4.87327 11.54564,-7.29882c2.88624,-1.80362 5.75205,-4.18633 8.79024,-5.70821c1.28784,-0.6451 3.42227,-0.51235 3.89397,-1.87331c0.22252,-0.64202 0.146,-5.03973 0.14579,-5.30162c-0.00281,-3.5099 0.07713,-7.0353 0.00064,-10.54323c-0.10672,-4.89473 -0.4287,-9.75909 -0.40064,-14.65677c0.0067,-1.17 -0.05712,-2.34448 0.04855,-3.50971c0.00292,-0.03221 0.01492,-0.06857 0.03301,-0.10725c-0.1099,-0.06025 -0.22026,-0.11945 -0.33104,-0.17768c-0.28217,0.23457 -0.54797,0.50532 -0.88536,0.62992c-4.35841,1.60951 -9.5997,2.20087 -14.10619,3.37631c-5.19779,1.48516 -10.13041,2.88748 -15.50659,3.66345c-1.28882,0.18602 -2.58528,0.52612 -3.88344,0.42401c-0.7116,-0.05597 -1.43129,-1.37231 -1.9509,-0.88291c-0.51744,0.48734 0.69554,1.27833 0.78196,1.98387c0.37285,3.04392 0.0002,6.13333 0,9.2c-0.00082,12.75505 1.67573,25.43919 2.06572,38.16914l0.04987,-0.0133l0.11778,0.44167c3.41441,-2.32137 6.22795,-5.36988 9.591,-7.81556z" fill="#000000"/><path d="M321.89642,143.25687c0.62219,0.32377 1.44703,0.461 2.45707,-0.28345c1.78025,0.01688 3.60412,0.25369 4.9872,-0.73821c1.22827,-0.88088 0.86426,-2.81897 1.12439,-4.35871c0.99906,-0.54824 1.24461,-1.7587 1.24461,-1.7587l-0.1708,-0.10276c0.37389,-0.5654 0.82862,-1.2081 1.2011,-1.80675c4.26568,2.06101 7.95969,4.72707 12.16899,7.16177c0.84744,0.49017 1.72399,0.91409 2.61533,1.30012c-2.96415,0.71101 -5.90569,1.56555 -8.83462,2.32973c-6.09039,1.74002 -11.92637,3.3101 -18.2783,3.94703c-1.16333,0.11665 -2.57028,-0.27097 -3.7357,-0.16887c-0.70723,-1.38868 -2.44397,-1.24057 -2.44397,-1.24057l-0.79725,0.48375c-4.37463,-2.32822 -8.98136,-3.96349 -13.62547,-5.6344c-0.03041,-0.01094 -0.06094,-0.02246 -0.09156,-0.03435c5.22978,-3.10069 10.87582,-5.52834 16.22682,-8.42053c0.52836,0.38142 1.13353,0.82967 1.67067,1.20577c-0.05567,0.8454 0.36386,1.55416 0.36386,1.55416c0.60444,1.02374 1.14955,2.08114 1.58822,3.1885c-0.15889,0.41039 -0.20267,0.90662 -0.03739,1.54575c0.41486,1.60427 1.60256,1.83378 2.36681,1.83073z" data-paper-data="{&quot;noHover&quot;:false,&quot;origItem&quot;:[&quot;Path&quot;,{&quot;applyMatrix&quot;:true,&quot;segments&quot;:[[[319.47962,141.42591],[0.41486,1.60427],[-0.16528,-0.63913]],[[319.52037,139.86239],[-0.15889,0.41039],[-0.43867,-1.10736]],[[317.94055,136.65968],[0.60444,1.02374],[0,0]],[[317.58045,135.10152],[-0.05567,0.8454],[-0.53714,-0.3761]],[[315.97999,133.96693],[0.52836,0.38142],[-5.35101,2.8922]],[[299.7674,142.35059],[5.22978,-3.10069],[0.03062,0.0119]],[[299.85895,142.38486],[-0.03041,-0.01094],[4.64411,1.67091]],[[313.47647,147.99412],[-4.37463,-2.32822],[0,0]],[314.27366,147.51027],[[316.71007,148.74175],[-0.70723,-1.38868],[1.16542,-0.1021]],[[320.43106,148.90095],[-1.16333,0.11665],[6.35193,-0.63693]],[[338.64103,144.98841],[-6.09039,1.74002],[2.92893,-0.76418]],[[347.47437,142.66761],[-2.96415,0.71101],[-0.89134,-0.38603]],[[344.85898,141.37022],[0.84744,0.49017],[-4.20929,-2.4347]],[[332.70083,134.23936],[4.26568,2.06101],[-0.37248,0.59866]],[[331.58013,135.98675],[0.37389,-0.5654],[0,0]],[331.75145,136.09029],[[330.50942,137.85338],[0.99906,-0.54824],[-0.26013,1.53975]],[[329.39022,142.24205],[1.22827,-0.88088],[-1.38308,0.9919]],[[324.37511,143.01851],[1.78025,0.01688],[-1.01005,0.74445]],[[321.86195,143.29309],[0.62219,0.32377],[-0.76424,0.00304]]],&quot;closed&quot;:true}]}" fill="#ffffff"/><path d="M321.60956,202.84149l-0.11821,-0.44191l-0.04992,0.01327c-0.38999,-12.72995 -2.08566,-25.48263 -2.08483,-38.23767c0.0002,-3.06667 0.3825,-6.16815 0.00965,-9.21206c-0.08642,-0.70553 -1.29839,-1.49742 -0.78095,-1.98477c0.51962,-0.48939 1.24061,0.82585 1.95221,0.88182c1.29816,0.10211 2.60016,-0.24187 3.88898,-0.4279c5.37618,-0.77597 10.34057,-2.18518 15.53836,-3.67034c4.50648,-1.17544 9.76795,-1.75983 14.12636,-3.36934c0.33739,-0.12459 0.60373,-0.39501 0.8859,-0.62958c0.11078,0.05822 0.2216,0.11772 0.33151,0.17797c-0.01809,0.03868 -0.03005,0.07506 -0.03297,0.10727c-0.10567,1.16523 -0.03935,2.34144 -0.04605,3.51143c-0.02805,4.89769 0.30829,9.77853 0.41501,14.67326c0.07649,3.50793 0.00257,7.05849 0.00538,10.56839c0.00021,0.26189 0.07443,4.6733 -0.14809,5.31532c-0.4717,1.36095 -2.60962,1.23655 -3.89746,1.88166c-3.03819,1.52188 -5.92857,3.92719 -8.81481,5.73081c-3.84015,2.42555 -7.9021,4.62713 -11.57884,7.30095c-3.36305,2.44569 -6.18681,5.49004 -9.60122,7.81141z" data-paper-data="{&quot;noHover&quot;:false,&quot;origItem&quot;:[&quot;Path&quot;,{&quot;applyMatrix&quot;:true,&quot;segments&quot;:[[[331.22437,194.98195],[-3.36305,2.44569],[3.67674,-2.67382]],[[342.77001,187.68314],[-3.84015,2.42555],[2.88624,-1.80362]],[[351.56024,181.97493],[-3.03819,1.52188],[1.28784,-0.6451]],[[355.45421,180.10162],[-0.4717,1.36095],[0.22252,-0.64202]],[[355.6,174.8],[0.00021,0.26189],[-0.00281,-3.5099]],[[355.60064,164.25677],[0.07649,3.50793],[-0.10672,-4.89473]],[[355.2,149.6],[-0.02805,4.89769],[0.0067,-1.17]],[[355.24855,146.09029],[-0.10567,1.16523],[0.00292,-0.03221]],[[355.28156,145.98304],[-0.01809,0.03868],[-0.1099,-0.06025]],[[354.95052,145.80536],[0.11078,0.05822],[-0.28217,0.23457]],[[354.06516,146.43528],[0.33739,-0.12459],[-4.35841,1.60951]],[[339.95897,149.81159],[4.50648,-1.17544],[-5.19779,1.48516]],[[324.45238,153.47504],[5.37618,-0.77597],[-1.28882,0.18602]],[[320.56894,153.89905],[1.29816,0.10211],[-0.7116,-0.05597]],[[318.61804,153.01613],[0.51962,-0.48939],[-0.51744,0.48734]],[[319.4,155],[-0.08642,-0.70553],[0.37285,3.04392]],[[319.4,164.2],[0.0002,-3.06667],[-0.00082,12.75505]],[[321.46572,202.36914],[-0.38999,-12.72995],[0,0]],[321.51559,202.35584],[[321.63337,202.79752],[0,0],[3.41441,-2.32137]]],&quot;closed&quot;:true}]}" fill="#ffffff"/><path d="M314.52422,152.4372c-0.18938,2.57502 -0.10263,5.92035 -0.10263,6.91771c0,10.41585 0.44804,20.89176 1.2077,31.27363c0.20294,2.77344 -0.00462,6.95558 0.43859,10.24004c-6.13692,-4.82985 -11.36662,-10.49269 -17.00561,-15.88212c-0.50692,-4.58109 -0.18121,-9.2021 -0.31033,-13.87262c-0.15424,-5.57921 -0.17213,-11.17411 -0.17213,-16.75958c0,-2.28774 0.49285,-4.6342 0.11101,-6.87742c0.74599,0.33218 1.5705,0.54261 2.33557,0.82136c3.56358,1.29837 6.74417,2.26153 10.10573,4.05844z" data-paper-data="{&quot;noHover&quot;:false,&quot;origItem&quot;:[&quot;Path&quot;,{&quot;applyMatrix&quot;:true,&quot;segments&quot;:[[[311.12353,152.40588],[0,0],[-3.36157,-1.7969]],[[301.03822,148.34677],[3.56358,1.29837],[-0.76507,-0.27875]],[[298.70621,147.5244],[0.74599,0.33218],[0.38185,2.24323]],[[298.6,154.4],[0,-2.28774],[0,5.58547]],[[298.79904,171.13064],[-0.15424,-5.57921],[0.12912,4.67052]],[[299.09263,184.94673],[-0.50692,-4.58109],[5.63899,5.38944]],[[316.05233,200.82106],[-6.13692,-4.82985],[-0.44321,-3.28446]],[[315.60677,190.5839],[0.20294,2.77344],[-0.75966,-10.38188]],[[314.4,159.4],[0,10.41585],[0,-0.99735]],[[314.5085,152.48466],[-0.18938,2.57502],[0,0]]],&quot;closed&quot;:true}]}" fill="#ffffff"/><path d="M309.30046,193.92055c-1.92055,1.60046 -3.52101,-0.32009 -3.52101,-0.32009l-1.57945,-2.80046c0,-0.06483 -0.00008,-0.12971 -0.00025,-0.19461c-2.76659,-1.10115 -2.73744,-5.12532 -2.58759,-7.25173c0.36183,-5.1345 1.54471,-10.24429 1.99736,-15.37172c0.54736,-6.20012 -0.84727,-11.76143 -1.78046,-17.80179c0,0 -0.38014,-2.47093 2.09079,-2.85107c2.47093,-0.38014 2.85107,2.09079 2.85107,2.09079c0.04966,0.32424 0.10374,0.6472 0.16117,0.96915c0.34858,-0.18451 0.74604,-0.289 1.16791,-0.289c1.20482,0 2.21057,0.85227 2.44728,1.98682l0.5887,2.55104l-0.12727,0.02937l0.17524,0.24989c0.0211,4.05205 0.09037,7.99802 -0.40724,12.02339c-0.1433,0.95563 -0.27756,1.90397 -0.40187,2.84826c-0.12829,1.36449 -0.29791,2.71381 -0.47235,4.06369c-0.26306,2.63575 -0.43741,5.27645 -0.50291,7.99383c-0.0373,1.54764 0.46006,3.18171 -0.04812,4.64402c-0.06895,0.19842 -0.13974,0.40896 -0.21387,0.62624c0.03068,1.23503 0.06242,2.46627 0.06242,3.68347l0.42055,-0.40046c0,0 1.60046,1.92055 -0.32009,3.52101z" fill="#ff0000"/><path d="M323.20027,137.20907c0.25131,0.12298 0.50289,0.24504 0.75469,0.36637c-0.16426,-0.38503 -0.33716,-0.76661 -0.51682,-1.14447c0.03214,-0.04101 0.06465,-0.18361 0.09627,-0.22787c1.4531,-2.03433 -0.5861,-3.38766 -0.5861,-3.38766c-1.32484,-0.94608 -2.82139,-1.89453 -4.24226,-2.88476c-0.48249,-1.02753 -1.2479,-1.36216 -1.90886,-1.41595c-2.67715,-2.11375 -4.882,-4.66094 -5.25639,-8.21072c-0.14843,-1.40735 -0.75973,-3.04334 -0.02872,-4.25508c0.50324,-0.83419 1.93439,0.52987 2.69091,1.14371c2.20133,1.78617 2.99158,2.58956 4.96884,4.59391c1.15798,1.17383 1.73575,3.41279 3.38361,3.47067c1.68279,0.0591 2.66407,-2.13764 3.88767,-3.2944c2.01766,-1.90744 3.85126,-4.06225 6.14822,-5.62213c1.9011,-1.29105 3.78984,-3.03045 3.24618,-0.81579c-0.90157,3.87747 -3.02295,7.02072 -4.74086,10.58897c-0.39591,0.82234 -0.75856,1.64103 -1.11957,2.42782c-0.44341,0.21991 -0.86892,0.63896 -1.15589,1.3564c-0.21577,0.53944 -0.26176,1.01111 -0.19643,1.40594c-0.35107,0.6505 -0.74451,1.30592 -1.17962,1.95239l-0.52747,1.73214c-1.10823,0.57579 -1.28849,1.95038 -1.28849,1.95038c0.07596,0.32449 0.37692,0.76614 0.50899,1.11982c0.14457,-0.01543 0.29534,-0.01702 0.45077,-0.00013c0.42775,-0.15193 0.82049,-0.33779 1.1657,-0.56575c0.61646,-0.40708 0.69759,-1.54595 1.41971,-1.70177c0.00289,-0.00062 0.00577,-0.00124 0.00866,-0.00186c0.08107,-0.08091 0.13391,-0.12414 0.13391,-0.12414l2.18607,-1.7886c0.43313,-0.36001 0.98979,-0.5765 1.59702,-0.5765c1.38071,0 2.5,1.11929 2.5,2.5c0,0.78746 -0.36408,1.48989 -0.93309,1.94813l-2.04153,1.67035c-0.02341,0.70339 -0.59239,1.24188 -1.23423,1.68784c0.9756,0.48164 1.94545,0.97788 2.90598,1.49894c0,0 2.19474,1.19713 0.99761,3.39187c-1.19713,2.19474 -3.39187,0.99761 -3.39187,0.99761c-0.23729,-0.13025 -0.47533,-0.25893 -0.71404,-0.38621c-0.4159,0.30879 -0.93103,0.49147 -1.48883,0.49147c-0.44574,0 -0.86424,-0.11665 -1.22662,-0.3211l-2.55863,-1.37772l0.01796,-0.03335l-0.09726,-0.01123c-0.92666,-0.58913 -1.8425,-1.19506 -2.7539,-1.8077c-1.68734,0.1128 -3.36536,0.15266 -4.88944,0.33398l-0.70153,0.28883c0,0 -0.11337,0.03779 -0.2988,0.07206l-1.324,1.324l-0.24658,1.16071c0,0 -0.92848,2.32119 -3.24967,1.39272c-0.63604,-0.25442 -1.02809,-0.61341 -1.26209,-1.00055c-0.04644,0.0336 -0.09277,0.06734 -0.139,0.1012c0,0 -2.02184,1.47043 -3.49227,-0.55141c-1.47043,-2.02184 0.55141,-3.49227 0.55141,-3.49227c1.57671,-1.13969 3.24981,-2.15649 4.98746,-3.03142l0.04174,-0.00274l-0.00641,-0.0139l2.6,-1.2l0.23376,0.50649c0.01517,-0.00559 0.02331,-0.0083 0.02331,-0.0083l0.50345,-0.15152l-1.53159,-0.89343c-0.76447,-0.42763 -1.28129,-1.24513 -1.28129,-2.18334c0,-1.38071 1.11929,-2.5 2.5,-2.5c0.46142,0 0.89365,0.12501 1.26466,0.343l3.16099,1.77806l-0.01131,0.0201c0.03096,0.00912 0.06189,0.01838 0.09279,0.02778c0.82765,0.2519 1.70602,0.74303 2.59313,1.34013z" fill="#ff0000"/><path d="M344.88675,188.08013c-2.08013,1.38675 -3.46688,-0.69338 -3.46688,-0.69338l-0.51461,-0.78962c-3.3045,-6.2465 -3.00173,-13.56435 -4.07582,-20.41461c-0.85913,-5.47928 -2.61007,-10.50353 -3.77394,-15.8587c0,0 -0.52382,-2.44451 1.92068,-2.96833c2.44451,-0.52382 2.96833,1.92068 2.96833,1.92068c1.14592,5.43728 2.95938,10.57623 3.82606,16.1413c0.94633,6.07656 0.41962,13.33037 3.52418,18.78539l0.28539,0.41038c0,0 1.38675,2.08013 -0.69338,3.46688z" fill="#ff0000"/></g></g></svg>