<svg version="1.1" xmlns="http://www.w3.org/2000/svg" xmlns:xlink="http://www.w3.org/1999/xlink" width="42.54958" height="43.46498" viewBox="0,0,42.54958,43.46498"><g transform="translate(-219.276,-158.33494)"><g data-paper-data="{&quot;isPaintingLayer&quot;:true}" fill-rule="nonzero" stroke-linecap="butt" stroke-linejoin="miter" stroke-miterlimit="10" stroke-dasharray="" stroke-dashoffset="0" style="mix-blend-mode: normal"><path d="M260.8179,200.48191l-40.21785,0.31033l-0.31636,-40.99878l40.21785,-0.31033z" data-paper-data="{&quot;index&quot;:null}" fill="#ffffff" stroke="#000000" stroke-width="2"/><path d="M253.40433,172.88477c-0.08232,-0.06418 -0.16053,-0.1334 -0.23414,-0.2072c-0.57558,-0.55245 -1.07619,-1.35671 -1.14314,-2.00387c-0.05443,-0.52611 0.68248,-1.61705 0.15492,-1.57918c-1.83981,0.13206 -6.57715,-0.59558 -4.71038,-3.70687c0.93288,-1.5548 8.50866,-8.79006 9.93243,-6.66524c1.43186,2.13688 -0.34428,3.27893 0.48993,5.19554c0.38572,0.8862 1.74935,1.34584 1.74935,2.31234c0,1.15078 -1.58084,1.67368 -2.40545,2.47636c-0.73344,0.71394 0.4604,1.29596 0.18709,1.92801c0.01005,0.09106 0.01521,0.18359 0.01521,0.27733c0,1.38071 -1.11929,2.5 -2.5,2.5c-0.00187,0 -0.00373,0 -0.0056,-0.00001c-0.26034,0.03693 -0.55939,-0.00679 -0.92039,-0.15584l0.4906,0.29436l0.04926,0.04926l0.06058,0.03855l0.00551,0.02754l0.16005,0.16005l0.25375,0.42292l0.16598,0.09485l0.07791,0.31164l0.16527,0.27545l-0.0503,0.18443l0.11962,0.47848v3.44243l-0.04364,0.17457l0.01852,0.17899l-0.27229,1.90605l-0.26745,2.1396l-0.12362,1.35978v11.17775l-0.09747,0.38988l-0.03082,0.40069l-0.1377,0.41309l-0.69175,1.08703l-0.2855,0.0571l-0.14446,0.2528l-0.70585,0.17646l-0.02282,0.0262l-0.10128,0.00482l-0.42005,0.10501h-0.27539l-0.24157,-0.06039l-0.24872,0.01184l-0.44574,-0.08915h-0.57863l-0.11213,-0.02803l-0.11421,0.01777l-1.50531,-0.13685l-1.62826,-0.13569l-1.90709,-0.13622l-2.05437,-0.13696l-2.19798,-0.13737l-0.13609,-0.0432l-0.14243,0.01003l-2.34085,-0.41309l-0.03847,-0.01716l-0.04209,0.00158l-2.59267,-0.54582l-2.86797,-0.54628l-0.02249,-0.0104l-0.02476,0.00093l-2.43397,-0.51241l-2.08156,-0.12244h-1.99199l-1.25,-0.3125l-0.04898,-0.08571l-0.09857,-0.00548l-0.83853,-0.97828l-0.06475,-0.1295l-0.02438,-0.01393l-0.01742,-0.06966l-0.03115,-0.06231l-0.12461,-0.56075l-0.13932,-0.55728v-0.06966l-0.01558,-0.07009l0.01558,-0.02336v-2.72852l0.02803,-0.11213l-0.01777,-0.11421l0.1377,-1.51467l0.02161,-0.06195l-0.00675,-0.06526l0.25959,-1.81716l0.13183,-2.50468l0.01592,-0.05192l-0.00812,-0.0537l0.26978,-2.83268l0.13205,-2.77306v-3.79603l0.05068,-0.20271l-0.01666,-0.20829l0.13094,-0.78564c0.06384,-0.4298 0.23708,-0.82391 0.49049,-1.15312l0.03002,-0.06904l0.03625,-0.0134c0.3525,-0.42009 0.8406,-0.72256 1.39693,-0.84003l0.3239,-0.48585l0.59752,-1.04567l0.1195,-0.02988l0.01246,-0.01869l0.05098,0.00283l1.06706,-0.26676h0.96388l0.17457,0.04364l0.179,-0.01852l0.96388,0.1377l0.1003,0.04086l0.10829,-0.00197l1.73957,0.40144l2.15222,0.40354l0.06933,0.03182h0.07629l2.01564,0.50391l1.32218,0.1202l0.08983,0.03133l0.09483,-0.00759l1.55119,0.25853l1.55015,0.12918l0.07116,0.02423l0.07478,-0.00774l1.92776,0.27539l0.06578,0.0268l0.07095,-0.00338l1.91742,0.38348l1.63954,0.12612l0.01695,0.00565l0.01765,-0.00275l1.51467,0.1377l0.04082,0.01424l0.04292,-0.0052l1.10158,0.1377l0.04878,0.01888l0.05214,-0.00417l0.62209,0.10368h1.17006l0.38988,0.09747l0.40069,0.03082l0.25834,0.08611l0.02709,-0.00739l0.03156,0.01893c-0.00904,-0.00718 -0.01808,-0.01443 -0.02711,-0.02175zM238.12144,177.14376c0.68838,1.72094 -2.0532,3.94313 -4.22579,4.96513c-0.42412,0.33135 -0.95792,0.5288 -1.53783,0.5288c-1.38071,0 -2.5,-1.11929 -2.5,-2.5c0,-0.86185 0.43611,-1.62184 1.0997,-2.07133c1.12991,-1.23876 2.93382,-2.31566 4.48766,-2.46305l-1.28051,-0.32013l-2.12987,-0.39935l-0.0483,-0.02217l-0.05313,0.00097l-1.68659,-0.38921l-0.68287,-0.09755h-0.02241l-0.05386,0.32315v3.64861l-0.01478,0.05914l0.01195,0.05977l-0.1377,2.89164l-0.0175,0.05811l0.00907,0.06l-0.27037,2.83891l-0.13491,2.56335l-0.03339,0.10888l0.01172,0.11328l-0.26633,1.86434l-0.12163,1.33793v0.56677l2.19081,0.12887l0.17986,0.05637l0.18836,-0.00706l2.59267,0.54582l2.86797,0.54628l0.02249,0.0104l0.02476,-0.00093l2.57609,0.54233l2.16211,0.38155l2.06296,0.12894l0.00509,0.00162l0.00526,-0.00095l2.06546,0.1377l0.00581,0.00187l0.00601,-0.00105l1.92776,0.1377l0.01447,0.00474l0.01503,-0.00245l1.65236,0.1377l0.00916,0.00312l0.00956,-0.00149l0.71609,0.0651v-9.00422l0.02803,-0.11213l-0.01777,-0.11421l0.1377,-1.51467l0.01424,-0.04082l-0.0052,-0.04292l0.27539,-2.20315l0.00814,-0.02103l-0.00232,-0.02243l0.25027,-1.75187v-1.21579l-0.75233,-0.12539l-1.00917,-0.12615l-1.45543,-0.13231l-1.77275,-0.13637l-0.14543,-0.04848l-0.15312,0.00729l-1.99741,-0.39948l-1.78634,-0.25519l-1.57915,-0.1316l-0.09907,-0.03372l-0.10432,0.00835l-1.56048,-0.26008l-0.96697,-0.08791c0.41728,0.24874 0.76038,0.64552 0.99103,1.22213z" fill="#000000" stroke="none" stroke-width="0.5"/></g></g></svg>