<svg version="1.1" xmlns="http://www.w3.org/2000/svg" xmlns:xlink="http://www.w3.org/1999/xlink" width="132.11583" height="136.73405" viewBox="0,0,132.11583,136.73405"><g transform="translate(-260.18886,-51.75)"><g data-paper-data="{&quot;isPaintingLayer&quot;:true}" fill="#000000" fill-rule="nonzero" stroke="none" stroke-linecap="butt" stroke-linejoin="miter" stroke-miterlimit="10" stroke-dasharray="" stroke-dashoffset="0" style="mix-blend-mode: normal"><path d="M356.28807,126.62144c2.20149,0.23999 5.27411,1.11528 6.36824,1.54863c4.50081,1.78263 8.66578,3.67505 12.85706,6.17264c1.32156,0.78752 2.88073,1.26781 3.96919,2.355c9.25472,9.24399 6.60239,24.92527 -1.37606,33.97664c-3.23925,3.67486 -8.17357,5.32536 -12.51901,7.18121c-4.22535,1.21327 -8.97509,3.32983 -13.38678,3.60348c-1.68573,0.10456 -3.74285,0.99741 -5.06664,-0.05149c-1.23704,-0.98017 -0.79838,-3.07732 -0.8719,-4.65389c-0.11641,-2.49666 1.04304,-5.77725 1.53638,-8.24395c1.41042,-7.05208 1.41938,-14.08673 1.95997,-21.21591c0.39793,-5.24778 1.50237,-10.50726 1.49148,-15.7938c0,-11.30025 1.10627,-22.96173 -3.3097,-33.54329c-0.93939,-2.25096 -1.68415,-5.34529 -3.45807,-7.18894c-2.89863,-3.01259 -9.96288,-2.08995 -13.59056,-1.35152c-4.30166,1.44157 -8.53459,2.8181 -12.73536,4.41369c-2.28351,0.86735 -4.82607,0.83847 -7.16089,1.55635c-5.22084,1.60522 -10.99435,5.10296 -14.01886,9.79826c-1.32325,2.05424 -2.59777,6.38491 -3.23089,8.64917c-1.21649,4.35054 -1.33125,4.74907 -1.49751,9.26222c-0.10216,2.77311 -0.12792,5.10455 0.17714,7.41011c0.94801,0.06566 1.75053,0.65986 2.11495,1.48999c1.89449,0.11941 2.18463,2.15041 2.18463,2.15041c1.17756,8.34386 2.47034,16.63334 3.24076,25.06595c0.1699,1.41749 0.27619,2.84482 0.28437,4.2876v2c0,0 0,0.24889 -0.07853,0.58961c0.05991,2.11237 0.2547,4.20533 0.96103,6.15296c1.03983,2.86722 3.545,6.46511 4.02503,9.58379c0.26006,1.68954 1.18005,3.78032 0.1268,5.12673c-1.13947,1.45664 -3.48402,1.54821 -5.3333,1.52896c-1.45117,-0.0151 -2.66816,-1.14876 -4.03852,-1.62651c-2.05423,-0.71616 -4.17525,-1.22792 -6.2369,-1.92243c-9.0348,-1.26265 -20.67812,-2.50844 -26.51272,-10.55689c-2.4694,-3.40638 -2.90692,-8.36931 -2.9129,-12.37623c-0.00446,-2.98501 -0.34112,-6.36897 0.61372,-9.24542c1.70425,-5.13407 6.5954,-10.81923 10.98471,-13.82475c2.09179,-1.43232 5.66239,-2.23406 8.05482,-2.90567c2.13807,-0.00919 4.26187,-0.35386 6.39605,-0.4832c0.65034,-0.03941 1.35649,-0.20673 2.04696,-0.31258c-1.13778,-4.03367 -1.27925,-7.68508 -1.09442,-12.32433c0.1989,-4.99264 0.3406,-5.61152 1.67775,-10.41399c0.8124,-2.9178 2.19044,-7.45518 3.84579,-10.01662c3.66962,-5.67828 10.37676,-9.90386 16.7292,-11.85973c2.22678,-0.68561 4.66837,-0.5972 6.83911,-1.44365c4.36675,-1.70276 8.78005,-3.0987 13.26464,-4.58631c3.47926,-0.68686 8.00341,-1.16869 11.54213,-0.55147c6.90736,1.20477 9.01868,6.26523 11.40924,12.01101c4.05208,9.73928 3.85557,20.16708 3.72837,30.57814z" stroke-width="0.5"/><text transform="translate(267.25,73.5) scale(0.5,0.5)" font-size="40" xml:space="preserve" fill="#000000" fill-rule="nonzero" stroke="none" stroke-width="1" stroke-linecap="butt" stroke-linejoin="miter" stroke-miterlimit="10" stroke-dasharray="" stroke-dashoffset="0" font-family="Sans Serif" font-weight="normal" text-anchor="start" style="mix-blend-mode: normal"><tspan x="0" dy="0">headphones!</tspan></text></g></g></svg>