<svg version="1.1" xmlns="http://www.w3.org/2000/svg" xmlns:xlink="http://www.w3.org/1999/xlink" width="722" height="458.5" viewBox="0,0,722,458.5"><g transform="translate(35,25)"><g data-paper-data="{&quot;isPaintingLayer&quot;:true}" fill-rule="nonzero" stroke-linejoin="miter" stroke-miterlimit="10" stroke-dasharray="" stroke-dashoffset="0" style="mix-blend-mode: normal"><path d="M-35,394v-419h722v419z" fill="#000000" stroke="none" stroke-width="0" stroke-linecap="butt"/><path d="M289.5,268.5v-160h180v160z" fill="none" stroke="#fdfdfd" stroke-width="2" stroke-linecap="butt"/><path d="M284.5,116.5v-1h1v1z" fill="none" stroke="#fdfdfd" stroke-width="2" stroke-linecap="butt"/><path d="M292.5,185.5v-76h182v76z" fill="none" stroke="#fdfdfd" stroke-width="2" stroke-linecap="butt"/><path d="M476.5,135.5v-2h6v2z" fill="none" stroke="#fdfdfd" stroke-width="2" stroke-linecap="butt"/><path d="M470.5,163.5v-36h94v36z" fill="none" stroke="#fdfdfd" stroke-width="2" stroke-linecap="butt"/><path d="M289.5,239.5v-35h21v35z" fill="none" stroke="#fdfdfd" stroke-width="2" stroke-linecap="butt"/><path d="M292.5,236.5v-32h9v32z" fill="none" stroke="#fdfdfd" stroke-width="2" stroke-linecap="butt"/><path d="M323.5,223.5l4,11c0,0 -0.3937,10.37957 -4.20782,12.06227c-6.25855,2.76113 -29.79218,2.93773 -29.79218,2.93773" fill="none" stroke="#fdfdfd" stroke-width="2" stroke-linecap="round"/><path d="M293.5,190.5l13,5h10l4,12" fill="none" stroke="#fdfdfd" stroke-width="2" stroke-linecap="round"/><path d="M380.5,267.5l-1,16l-29,-3v-14" fill="none" stroke="#fdfdfd" stroke-width="2" stroke-linecap="round"/><path d="M332.5,389.5l2,-112l18,2l-3,129" fill="none" stroke="#fdfdfd" stroke-width="2" stroke-linecap="round"/><path d="M378.5,283.5l22,7l2,142" fill="none" stroke="#fdfdfd" stroke-width="2" stroke-linecap="round"/><path d="M351.5,310.5l-5,51l-13,-3l10,-61" fill="none" stroke="#fdfdfd" stroke-width="2" stroke-linecap="round"/><path d="M403.5,295.5l14,53l-13,1" fill="none" stroke="#fdfdfd" stroke-width="2" stroke-linecap="round"/><path d="M408.5,344.5l-7,-25" fill="none" stroke="#fdfdfd" stroke-width="2" stroke-linecap="round"/><path d="M10.5,275.5v-82h228v82z" fill="none" stroke="#fdfdfd" stroke-width="2" stroke-linecap="butt"/><path d="M11.5,194.5v-31h60v31z" fill="none" stroke="#fdfdfd" stroke-width="2" stroke-linecap="butt"/><path d="M72.5,189.5v-9h158v9z" fill="none" stroke="#fdfdfd" stroke-width="2" stroke-linecap="butt"/><path d="M11.5,318.5v-47h32v47z" fill="none" stroke="#fdfdfd" stroke-width="2" stroke-linecap="butt"/><path d="M207.5,318.5v-45h29v45z" fill="none" stroke="#fdfdfd" stroke-width="2" stroke-linecap="butt"/><path d="M291.5,82.5c0,8.28427 -5.14873,15 -11.5,15c-6.35127,0 -11.5,-6.71573 -11.5,-15c0,-8.28427 5.14873,-15 11.5,-15c6.35127,0 11.5,6.71573 11.5,15z" fill="none" stroke="#fdfdfd" stroke-width="2" stroke-linecap="butt"/><path d="M263.5,43.5c0,12.70255 -11.19288,23 -25,23c-13.80712,0 -25,-10.29745 -25,-23c0,-12.70255 11.19288,-23 25,-23c13.80712,0 25,10.29745 25,23z" fill="none" stroke="#fdfdfd" stroke-width="2" stroke-linecap="butt"/><path d="M206.5,51.5c0,12.15026 -8.73045,22 -19.5,22c-10.76955,0 -19.5,-9.84974 -19.5,-22c0,-12.15026 8.73045,-22 19.5,-22c10.76955,0 19.5,9.84974 19.5,22z" fill="none" stroke="#fdfdfd" stroke-width="2" stroke-linecap="butt"/><path d="M165.5,55c0,26.78581 -35.81722,48.5 -80,48.5c-44.18278,0 -80,-21.71419 -80,-48.5c0,-26.78581 35.81722,-48.5 80,-48.5c44.18278,0 80,21.71419 80,48.5z" fill="none" stroke="#fdfdfd" stroke-width="2" stroke-linecap="butt"/><text transform="translate(47.5,55.5) scale(0.5,0.5)" font-size="40" xml:space="preserve" fill="#ffffff" fill-rule="nonzero" stroke="none" stroke-width="1" stroke-linecap="butt" stroke-linejoin="miter" stroke-miterlimit="10" stroke-dasharray="" stroke-dashoffset="0" font-family="Pixel" font-weight="normal" text-anchor="start" style="mix-blend-mode: normal"><tspan x="0" dy="0">its 3am...</tspan></text><text transform="translate(11.5,346.75) scale(2.05739,1.30173)" font-size="40" xml:space="preserve" fill="#ffffff" fill-rule="nonzero" stroke="none" stroke-width="1" stroke-linecap="butt" stroke-linejoin="miter" stroke-miterlimit="10" stroke-dasharray="" stroke-dashoffset="0" font-family="Sans Serif" font-weight="normal" text-anchor="start" style="mix-blend-mode: normal"><tspan x="0" dy="0">I SLEEP AT 3AM.</tspan></text></g></g></svg>