<svg version="1.1" xmlns="http://www.w3.org/2000/svg" xmlns:xlink="http://www.w3.org/1999/xlink" width="42.54958" height="43.32448" viewBox="0,0,42.54958,43.32448"><g transform="translate(-299.27602,-158.47544)"><g data-paper-data="{&quot;isPaintingLayer&quot;:true}" fill-rule="nonzero" stroke-linecap="butt" stroke-linejoin="miter" stroke-miterlimit="10" stroke-dasharray="" stroke-dashoffset="0" style="mix-blend-mode: normal"><path d="M340.81791,200.48191l-40.21785,0.31033l-0.31636,-40.99878l40.21785,-0.31033z" data-paper-data="{&quot;index&quot;:null}" fill="#ffffff" stroke="#000000" stroke-width="2"/><path d="M338.63552,188.61424c-0.16559,0.93833 -0.97712,1.46564 -2.03764,1.71871l-0.0542,0.06775l-0.23504,0.17908l-0.18228,0.23256l-1.18654,0.92286l-0.02063,0.00912l-0.01422,0.0175l-1.0547,0.79103l-0.02753,0.01159l-0.01937,0.02274l-0.89921,0.64229l-0.45384,0.34038l-0.10521,0.21043l-0.83853,0.97828l-0.19351,0.01075l-0.086,0.129l-1.11803,-0.06211l-1.11803,0.06211l-0.086,-0.129l-0.19351,-0.01075l-0.59264,-0.69142l-0.04153,-0.01384l-0.03664,-0.07735l-0.16771,-0.19567l-0.13184,-0.26368l-0.07244,-0.32597l-0.14295,-0.30178l-0.13184,-0.65919l0.01184,-0.24872l-0.06039,-0.24157v-3.29594l-0.13184,-0.52735v-0.06966l-0.01558,-0.07009l0.01558,-0.02336v-0.45198l-0.03391,-0.13563l-0.10148,-0.30443l-0.01212,-0.15751l-0.06763,-0.14277l-0.13184,-0.65919l0.01184,-0.24872l-0.06039,-0.24157l0,-6.69991l-0.11253,-0.90026l0.00212,-0.01749l-0.00613,-0.01652l-0.06971,-0.62737l-0.09456,-0.10402l0.03179,-0.46095l-0.02465,-0.22186l-0.25367,-0.44392l0.17108,-0.29939l-0.02395,-0.21556l0.00189,-0.01401l-0.00478,-0.01331l-0.11702,-1.17019l-0.49504,-2.2277l0.00258,-0.09799l-0.03698,-0.09078l-0.2318,-1.62257l-0.16916,-0.50747l-0.19777,-0.49443l-0.29941,-0.59883l-0.21729,-0.21729l-0.16449,-0.08224l-0.11994,-0.10281l-0.14877,-0.05313l-0.39551,-0.26368l-0.04778,-0.05256l-0.06547,-0.02757l-0.12347,-0.0926l-0.03757,-0.00939l-0.4371,-0.23312l-0.45656,-0.19224l-0.2028,-0.1521l-0.01064,-0.00355l-0.15181,-0.09661l-0.1745,-0.03878h-1.14049l-0.41645,0.08329l-0.24872,-0.01184l-0.24157,0.06039h-0.04589l-0.21217,0.08487l-0.46914,0.06397l-0.45934,0.11484h-0.17773l-0.21217,0.08487l-0.1704,0.02324l-0.15174,0.08093l-0.16645,0.04161l-0.34019,0.20411l-0.19366,0.05894l-0.1641,0.11852l-0.31522,0.12609l-0.3699,0.29592l-0.15496,0.07102l-0.12054,0.12054l-0.27392,0.16435l-0.24668,0.30835l-0.11198,0.08532l-0.07243,0.12071l-0.42944,0.42944l-0.33581,0.41976l-0.65511,1.09185l-0.24866,0.49733l-0.19984,0.69945l-0.02783,0.04824l-0.00427,0.05553l-0.18711,0.56134c0.21163,0.14235 0.40031,0.31622 0.5593,0.51487l0.03586,0.01421l0.02833,0.06955c0.24459,0.3334 0.40851,0.72968 0.463,1.16008l0.12664,0.88648l-0.01852,0.17899l0.04364,0.17457v0.65256l0.11655,1.04892l-0.00473,0.03502l0.01139,0.03345l0.39551,4.74615l-0.01709,0.1047l0.02573,0.10292v8.70128l-0.11962,0.47848l0.0503,0.18443l-0.16527,0.27545l-0.07791,0.31164l-0.16598,0.09485l-0.25375,0.42292l-0.26368,0.26368l-1.10485,0.66291l-0.09524,-0.02597l-0.07357,0.06582l-1.28468,-0.09882l-0.79103,-0.26368l-0.15181,-0.09661l-0.17566,-0.03903l-0.26368,-0.13184l-0.11994,-0.10281l-0.14877,-0.05313l-0.03521,-0.02347l-0.10725,-0.02681l-0.15174,-0.08093l-0.1704,-0.02324l-0.54046,-0.21619l-0.79991,-0.22855l-0.20274,-0.11697l-0.22849,-0.05078l-1.84573,-0.92286l-0.22068,-0.18915l-0.26175,-0.12636l-0.77182,-0.64318l-0.60704,-0.48563l-0.03769,-0.00526l-0.38121,-0.52783l-0.39459,-0.5179l0.0059,-0.0376l-0.51183,-1.27958l-0.01758,-0.12895l-0.06503,-0.11273l-0.26368,-0.92286l-0.0065,-0.19488l-0.07039,-0.18184l-0.13184,-1.0547l0.00382,-0.03148l-0.01071,-0.02985l-0.13184,-1.31838l0.00168,-0.01147l-0.00382,-0.01095l-0.13184,-1.45021l0.01777,-0.11421l-0.02803,-0.11213v-1.31838l0.03079,-0.12315l-0.01838,-0.12561l0.13184,-1.31838l0.10985,-0.30602l0.03692,-0.32303l0.39551,-1.0547l0.16371,-0.23738l0.09699,-0.27156l0.52735,-0.79103l0.28498,-0.25907l0.23341,-0.30635l1.31838,-1.0547l0.03645,-0.01671l0.02529,-0.03112l0.52735,-0.39551l0.30406,-0.12803l0.26746,-0.19316l0.56264,-0.22506l0.28844,-0.14422l0.01393,-0.02438l0.06966,-0.01742l0.06231,-0.03115l0.56075,-0.12461l0.2641,-0.06603l0.22579,-1.01605l0.05869,-0.11739l0.01007,-0.13086l0.37833,-1.135l0.24875,-0.87063l0.11697,-0.20274l0.05078,-0.22849l0.39551,-0.79103l0.06379,-0.07443l0.02854,-0.09378l0.79103,-1.31838l0.12054,-0.12054l0.07102,-0.15496l0.52735,-0.65919l0.11198,-0.08532l0.07243,-0.12071l0.42944,-0.42944l0.44085,-0.55107l0.35254,-0.2686l0.31339,-0.31339l0.515,-0.309l0.52788,-0.4223l0.33474,-0.15342l0.29852,-0.2156l0.4732,-0.18928l0.48742,-0.29245l0.35369,-0.10764l0.32621,-0.17398l0.36275,-0.09069l0.50165,-0.20066l0.46914,-0.06397l0.45934,-0.11484h0.17773l0.21217,-0.08487l0.46914,-0.06397l0.45934,-0.11484h0.2798l0.41645,-0.08329l0.24872,0.01184l0.24157,-0.06039h1.81444l0.02336,-0.01558l0.07009,0.01558h0.06966l0.55728,0.13932l0.56075,0.12461l0.06231,0.03115l0.06966,0.01742l0.01393,0.02438l0.22254,0.11127l0.22696,0.07565l0.33905,0.21576l0.37038,0.15595l0.12347,0.0926l0.03757,0.00939l0.4371,0.23312l0.45656,0.19224l0.2366,0.17745l0.00663,0.00353l0.00051,0.00182l0.2281,0.17108l0.20827,0.13885l0.38814,0.19407l0.30513,0.26154l0.34461,0.20676l0.79103,0.79103l0.20676,0.34461l0.26154,0.30513l0.52735,1.0547l0.02301,0.10356l0.06211,0.086l0.26368,0.65919l0.01016,0.07449l0.04036,0.06342l0.26368,0.79103l0.01743,0.22657l0.08574,0.21045l0.2501,1.75068l0.50652,2.27935l-0.00398,0.1512l0.0511,0.14236l0.00762,0.07624l0.49509,0.07073l0.12154,0.04952h0.13124l2.1094,0.52735l0.03773,0.02012l0.04274,0.00142l0.92286,0.26368l0.08896,0.05132l0.10204,0.01166l1.0547,0.39551l0.04865,0.03355l0.05834,0.00941l0.92286,0.39551l0.13692,0.10406l0.16452,0.05007l0.65919,0.39551l0.12054,0.12054l0.15496,0.07102l0.65919,0.52735l0.16884,0.2216l0.2216,0.16884l0.52735,0.65919l0.11008,0.24016l0.12525,0.07157l0.11094,0.44375l0.19058,0.41581l-0.05309,0.13413l0.06408,0.2563v1.84573l-0.03831,0.15326l0.01901,0.15683l-0.13184,1.0547l-0.04339,0.11209l0.00316,0.12015l-0.26368,1.18654l-0.0916,0.1832l-0.02767,0.20295l-0.52735,1.31838l-0.08844,0.12246l-0.03801,0.1462l-0.79103,1.45021l-0.09599,0.10421l-0.05067,0.13231l-0.01756,0.02509c0.07874,0.30219 0.09444,0.6217 0.03593,0.95328z" fill="#000000" stroke="none" stroke-width="0.5"/></g></g></svg>