<svg version="1.1" xmlns="http://www.w3.org/2000/svg" xmlns:xlink="http://www.w3.org/1999/xlink" width="752" height="430" viewBox="0,0,752,430"><defs><linearGradient x1="329" y1="276" x2="329" y2="408" gradientUnits="userSpaceOnUse" id="color-1"><stop offset="0" stop-color="#8a2f00"/><stop offset="1" stop-color="#000000"/></linearGradient></defs><g transform="translate(58.25,21.75)"><g data-paper-data="{&quot;isPaintingLayer&quot;:true}" fill-rule="nonzero" stroke-width="0.5" stroke-linecap="butt" stroke-linejoin="miter" stroke-miterlimit="10" stroke-dasharray="" stroke-dashoffset="0" style="mix-blend-mode: normal"><path d="M-35.5,408v-132h729v132z" fill="url(#color-1)" stroke="#000000"/><path d="M-58,277.5v-299h724v299z" fill="#ffc0a0" stroke="#000000"/><path d="M7.5,126.5v-110h61v110z" fill="#b5b5b5" stroke="#000000"/><path d="M21.07214,80.58707l11.98568,-32.88378l141.87005,51.70965l-11.98567,32.88379z" fill="#b5b5b5" stroke="#000000"/><path d="M81.5,202.5v-168h275v168z" fill="#000000" stroke="#000000"/><path d="M89.5,193.5v-148h252v148z" fill="#009fff" stroke="#000000"/><path d="M25.5,295.5v-46h11v46z" fill="#000000" stroke="#000000"/><path d="M97.5,291.5v-42h9v42z" fill="#ff0000" stroke="#000000"/><path d="M53.5,344.5v-45h14v45z" fill="#000000" stroke="#000000"/><path d="M102.5,343.5v-44h16v44z" fill="#000000" stroke="#000000"/><path d="M54.5,309.5l-35,-69h92l21,73z" fill="#ff0000" stroke="#000000"/><path d="M97.87017,256.8726c0,0 3.55785,10.73497 3.6855,14.36171c0.24852,7.06066 -3.34655,9.55515 -7.34963,10.20656c-3.39398,0.55229 -8.88557,-0.07282 -12.91492,-6.03376c-3.16425,-4.68112 -5.36351,-14.96386 -5.36351,-14.96386c0,0 -3.13308,-8.39955 -1.4031,-11.18905c1.27451,-2.05507 5.39027,-3.15271 7.96062,-3.57097c2.77374,-0.45136 6.77162,-0.79264 9.38631,0.90048c3.09713,2.00553 5.99873,10.2889 5.99873,10.2889z" fill="#000000" stroke="#000000"/><path d="M85.15496,265.0941l-3.46574,-10.18791l5.56438,-0.90547l3.46574,10.18791z" fill="#fb00ff" stroke="#000000"/><path d="M78.9531,262.49709l-1.24853,-3.67018l16.48317,-2.68225l1.24853,3.67018z" fill="#fb00ff" stroke="#000000"/><path d="M75.51416,253.03942l-0.55969,-1.64525l7.03422,-1.14466l0.55969,1.64525z" fill="#2b2b2b" stroke="#000000"/><path d="M86.43559,251.59612l-0.66732,-1.96165l7.24419,-1.17882l0.66732,1.96165z" fill="#2b2b2b" stroke="#000000"/><path d="M85.58737,271.90226l-1.11937,-3.2905l8.71403,-1.41801l1.11937,3.2905z" fill="#2b2b2b" stroke="#000000"/><path d="M81.49283,272.56855l-1.20548,-3.54362l2.93967,-0.47836l1.20548,3.54362z" fill="#2b2b2b" stroke="#000000"/><path d="M96.15078,270.38366l-1.18395,-3.48034l3.25464,-0.52962l1.18395,3.48034z" fill="#2b2b2b" stroke="#000000"/><path d="M80.36817,268.61109l-0.51663,-1.51869l4.09454,-0.66629l0.51663,1.51869z" fill="#2b2b2b" stroke="#000000"/><path d="M86.25016,267.98784l-0.58121,-1.70853l5.03944,-0.82005l0.58121,1.70853z" fill="#2b2b2b" stroke="#000000"/><path d="M93.2198,266.65335l-0.47358,-1.39214l3.98956,-0.64921l0.47358,1.39214z" fill="#2b2b2b" stroke="#000000"/><path d="M83.96987,275.61587l-0.68884,-2.02493l6.2993,-1.02506l0.68884,2.02493z" fill="#ffffff" stroke="#000000"/><path d="M92.307,274.39276l-0.71037,-2.0882l7.13921,-1.16174l0.71037,2.0882z" fill="#0084ff" stroke="#000000"/><path d="M85.02202,278.38306l-0.7319,-2.15148l6.19431,-1.00798l0.7319,2.15148z" fill="#2b2b2b" stroke="#000000"/><path d="M92.98225,277.35484l-0.66732,-1.96165l7.34918,-1.19591l0.66732,1.96165z" fill="#00ffe6" stroke="#000000"/><path d="M374.25,244.75v-32h173v32z" fill="#8a2f00" stroke="#000000"/><path d="M393.25,283.75v-47h30v47z" fill="#8a2f00" stroke="#000000"/><path d="M488.25,278.75v-52h29v52z" fill="#8a2f00" stroke="#000000"/><path d="M386.25,212.75v-19h70v19z" fill="#000000" stroke="#000000"/><path d="M418.25,197.75v-23h12v23z" fill="#000000" stroke="#000000"/><path d="M384.25,182.75v-47h75v47z" fill="#000000" stroke="#000000"/><path d="M483.25,213.75v-77h35v77z" fill="#000000" stroke="#000000"/><path d="M390.25,176.75v-37h61v37z" fill="#3e3e3e" stroke="#000000"/><path d="M137.25,329.75v-86h41v86z" fill="#ff0000" stroke="#000000"/><path d="M174.25,333.75v-104h179v104z" fill="#ff0000" stroke="#000000"/><path d="M349.25,333.75v-82h26v82z" fill="#ff0000" stroke="#000000"/><path d="M209.26777,55.73223c1.76777,1.76777 0,3.53553 0,3.53553l-1,1c-1.45803,1.44436 -2.51807,3.24263 -3.83441,4.81721c-2.51585,3.0094 -6.36215,5.30066 -8.68457,8.42578c-1.16643,1.56959 -1.87687,3.69089 -2.50626,5.63831c2.11683,-0.08332 4.21075,-0.14906 6.25748,-0.14906c4.78623,0 10.00965,0.59851 14.75366,0.01217c3.82718,-0.47303 7.12544,-2.44146 10.84589,-2.97989c7.22274,-1.04528 14.88182,1.01708 22.095,-0.01355c2.37094,-0.33876 4.53405,-1.64779 6.905,-1.98645c5.5569,-0.79373 11.77801,-0.03228 17.40046,-0.03228c2.78921,0.01213 5.54836,0.59656 8.30546,1.01873c1.20439,0.18442 2.53477,-0.31632 3.65125,0.17157c4.20651,1.83819 6.81892,8.74392 7.51101,12.90924c0.51628,3.1072 -0.34758,3.24764 0.02011,6.15411c0.5944,4.69853 1.81953,9.83286 0.97989,14.6468c-0.50099,2.87232 -2.57042,5.23586 -3.75471,7.90019c-0.67466,1.51779 -0.77743,3.24891 -1.45227,4.76662c-0.49293,1.1086 -1.47144,1.94642 -2.01495,3.03111c-2.2462,4.48277 -2.98393,9.51521 -5.85306,13.62608c-0.02768,1.74408 0.43782,3.56753 -0.08303,5.23225c-0.35268,1.12721 -1.6415,1.70361 -2.37634,2.62826c-0.86531,1.08882 -1.335,2.52657 -2.41587,3.40179c-0.7405,0.59961 -2.07877,0.10446 -2.74972,0.781c-0.74225,0.74845 -0.25068,2.25863 -1,3c-0.83837,0.82948 -2.39778,0.50798 -3.30599,1.26034c-1.13796,0.94268 -1.61233,2.4872 -2.57314,3.6099c-1.04622,1.22249 -2.45983,2.11382 -3.42626,3.40032c-1.63807,2.18058 -2.78157,4.75265 -4.678,6.71268l-1.01661,1.01676c0,0 -1.76777,1.76777 -3.53553,0c-1.76777,-1.76777 0,-3.53553 0,-3.53553l0.98339,-0.98324c4.21441,-4.21895 6.63116,-10.34531 11.3226,-14.2771c0.71373,-0.59816 2.03958,-0.07715 2.69401,-0.73966c0.74076,-0.74992 0.2519,-2.2574 1,-3c0.82122,-0.81518 2.34213,-0.50193 3.25028,-1.219c0.7961,-0.62859 0.94662,-1.80923 1.58413,-2.59821c0.44529,-0.55109 1.45121,-0.68453 1.62366,-1.37174c0.38687,-1.54169 -0.05535,-3.1785 -0.08303,-4.76775c2.86026,-4.46319 3.77929,-9.62881 6.14694,-14.37392c0.53151,-1.06522 1.50181,-1.88092 1.98505,-2.96889c0.65829,-1.48207 0.74421,-3.1765 1.40277,-4.65845c1.15525,-2.59964 2.96346,-3.93268 3.39025,-6.67474c0.68969,-4.43117 -0.49423,-9.0356 -1.02011,-13.3532c-0.49452,-4.06009 0.15167,-7.26737 -1.75795,-11.14797c-0.68565,-1.39332 -1.23507,-3.30563 -2.71092,-3.78868c-0.74606,-0.24419 -1.57035,0.27314 -2.34875,0.17157c-2.56388,-0.33455 -5.10896,-0.99438 -7.69454,-0.98127c-5.34972,0 -11.31812,-0.7869 -16.59954,-0.03228c-2.43368,0.34773 -4.6613,1.66593 -7.095,2.01355c-7.15969,1.02267 -14.75451,-1.01836 -21.905,-0.01355c-3.78664,0.53211 -7.22589,2.5311 -11.15411,3.02011c-4.90785,0.61097 -10.29591,0.01217 -15.24634,0.01217c-8.58717,0 -17.87135,1.01581 -26.40046,-0.03228c-1.04622,-0.12856 -1.95435,-0.86685 -3,-1c-3.95989,-0.50425 -5.08167,0.56669 -9,0c-6.78055,-0.98063 -13.14298,-5.9536 -20.19909,-5c-2.1335,0.28833 -4.29483,0.77455 -6.22087,1.7365c-0.9008,0.4499 -1.33618,1.5597 -2.21107,2.05812c-2.53621,1.44485 -5.97527,1.35315 -8.07988,3.37567c-1.19448,1.14789 -0.87871,3.19706 -1.42092,4.76245c0.08236,9.18318 0.13178,18.03701 1.9799,27.09047c0.81006,3.96828 1.79569,8.24154 3.06968,12.08379c0.5579,1.6826 1.56268,3.21993 1.93759,4.95251c0.2829,1.30735 -0.25468,2.70016 0.00243,4.01282c0.84463,4.31214 3.19961,8.81794 4.96968,12.80094c2.43158,5.4715 4.33365,11.22807 5.9768,16.9722c0,0 0.6868,2.40381 -1.71701,3.09061c-2.40381,0.6868 -3.09061,-1.71701 -3.09061,-1.71701c-1.57494,-5.51914 -3.40069,-11.05607 -5.7371,-16.31256c-1.93367,-4.35039 -4.37045,-9.20748 -5.31641,-13.91429c-0.26187,-1.30301 0.27959,-2.68734 0.00243,-3.98718c-0.32547,-1.52645 -1.28033,-2.8524 -1.77631,-4.33225c-1.34141,-4.00238 -2.37255,-8.49171 -3.21642,-12.63144c-1.96555,-9.64235 -2.09191,-19.12057 -2.0201,-28.90953c0.26594,-0.82258 2.11884,-6.76697 2.57908,-7.23755c2.50976,-2.56609 6.27667,-2.65964 9.20489,-4.33824c0.96931,-0.55565 1.50095,-1.73618 2.50416,-2.22798c3.60534,-1.7674 9.69678,-2.85507 13.58004,-2.2635c5.40561,0.82348 10.60273,4.2409 16,5c2.97076,0.41782 6.0224,-0.3659 9,0c1.04622,0.12856 1.95435,0.86685 3,1c2.49573,0.3178 5.06885,0.4399 7.6743,0.45576c-2.72959,-6.0856 -3.37709,-13.06425 -7.15488,-18.6013l-0.68764,-0.61898c0,0 -1.76777,-1.76777 0,-3.53553c1.76777,-1.76777 3.53553,0 3.53553,0l1.31236,1.38102c3.61938,5.53065 4.33297,12.31496 6.94891,18.24052c1.78234,-9.90582 3.39362,-19.78838 3.47104,-29.87305l-0.00007,-1.98072c0,0 0,-2.5 2.5,-2.5c2.5,0 2.5,2.5 2.5,2.5l-0.00007,2.01928c-0.0633,8.16932 -1.09367,16.20639 -2.42272,24.22885c0.04793,-0.06777 0.09664,-0.13549 0.14615,-0.20316c2.37776,-3.25004 6.25905,-5.51821 8.84329,-8.62994c1.41606,-1.7051 2.60454,-3.60935 4.16559,-5.18279l1,-1c0,0 1.76777,-1.76777 3.53553,0z" fill="#000000" stroke="none"/><path d="M190.73223,157.26777c-1.76777,-1.76777 0,-3.53553 0,-3.53553l1,-1c0.06554,-0.06301 0.13008,-0.12733 0.19387,-0.19263c-1.75152,-2.94306 -3.63742,-7.09248 -1.43183,-9.53193c0.82373,-0.91107 8.57181,-3.07841 10.47749,-3.63694l3.17559,-1.97355c0.38992,-0.25134 0.85426,-0.39718 1.35265,-0.39718c1.38071,0 2.5,1.11929 2.5,2.5c0,0.48518 -0.13821,0.93808 -0.37741,1.32147l-2.51852,4.19753c-0.42697,1.05872 -0.94062,2.06605 -1.59127,2.96378c-0.5143,0.70959 -1.42761,1.08472 -1.88617,1.83155c-0.06553,0.10672 -0.12275,0.21827 -0.17359,0.33347c1.54696,0.53683 1.54696,2.3522 1.54696,2.3522l-0.6313,-0.66193c1.80914,1.91225 3.26927,4.28262 4.45585,6.77512c3.90105,-1.16643 8.14538,-3.67142 11.71344,-5.1363c4.33611,-1.7802 6.9653,-2.43058 10.19424,-5.74465c2.29552,-2.27743 4.54683,-2.88429 5.39606,-6.0228l-0.12829,-1.20943c0,0 0,-0.89255 0.53331,-1.61103c-0.21367,0.02214 -0.42475,0.04824 -0.63286,0.07875c-1.04294,0.15293 -1.95936,0.83216 -3,1c-4.75552,0.76698 -10.20831,0.33508 -14.38445,-2.21515c-0.99176,-0.60563 -4.70987,-4.41866 -5.94936,-5.6676c-2.06323,-3.11085 -3.8889,-6.42125 -4.53436,-10.18452c-0.20524,-1.19661 -0.26408,-2.42876 -0.44314,-3.63059c-1.66754,-0.03868 -3.37037,-0.1457 -4.91472,-0.21277c0.10899,0.38048 0.21104,0.76014 0.30685,1.13744c0.01754,3.0955 0.10339,6.21067 0.01873,9.30546c-0.03611,1.31993 0.30401,2.7323 -0.1903,3.95671c-0.47293,1.17144 -1.6682,1.89863 -2.54193,2.81106c-3.73819,3.90372 -5.79394,6.61563 -11.25869,7.67985c-1.97728,0.38506 -4.01608,1.22423 -5.98825,0.81375c-1.80771,-0.37625 -3.00964,-2.15889 -4.63991,-3.02583c-1.06556,-0.56664 -2.46216,-0.48722 -3.3984,-1.24878c-2.47886,-2.01634 -4.82624,-6.87218 -6.56264,-9.60002c-0.50074,-0.78664 -0.71814,-1.80645 -1.43736,-2.39998c-1.72583,-1.42424 -4.43553,-0.82296 -6.4939,-1.70048c-1.13467,-0.48373 -1.98352,-1.48931 -3.08699,-2.0405c-3.37036,-1.68352 -5.89271,-2.72323 -8.66939,-5.47802c-1.33333,-1.33333 -2.66667,-2.66667 -4,-4l-2,-2c0,0 -1.76777,-1.76777 0,-3.53553c1.02369,-1.02369 2.04738,-0.86177 2.72778,-0.5441c1.49456,-0.7691 2.80775,0.5441 2.80775,0.5441c1,1 2.06682,1.93737 3,3c0.34301,0.39059 0.28969,1.27987 0.80662,1.33464c0.75382,0.07987 1.28136,-0.88834 2.02516,-1.0346c1.11224,-0.21871 2.26693,-0.02793 3.40046,-0.03228c4.05146,-0.01557 8.58237,0.56951 12.59954,0.03228c2.07007,-0.27684 3.31738,-2.54835 5.08613,-3.65891c0.55,-0.34533 1.14965,-0.60478 1.77163,-0.80999c-0.56819,-0.03594 -1.13658,-0.07212 -1.70521,-0.10847c-4.87547,-0.31169 -11.03336,0.13322 -15.66258,-1.6266c-1.57957,-0.60048 -2.73167,-2.02543 -4.25671,-2.75335c-1.50695,-0.71928 -3.26208,-0.82006 -4.76301,-1.55182c-1.60016,-0.78013 -2.97103,-1.96201 -4.45654,-2.94302c0,0 -2.08013,-1.38675 -0.69338,-3.46688c1.38675,-2.08013 3.46688,-0.69338 3.46688,-0.69338c2.64169,1.78027 5.73681,2.77142 8.60982,4.14753c1.4133,0.67694 2.45787,2.02496 3.91391,2.60429c1.61839,0.64392 7.65871,0.87822 9.1708,0.9744c3.32661,0.21159 6.65308,0.42534 9.97963,0.63801c10.5315,0.67329 20.95045,1.17068 31.48946,1.21298c0.00748,-0.0341 0.01556,-0.06857 0.02427,-0.10342c0.60634,-2.42536 3.0317,-1.81902 3.0317,-1.81902c2.33076,0.58377 4.57141,1.52484 6.92997,1.98356c9.24013,1.79714 19.13148,1.47137 28.5017,1.94134l2.96303,0.00046c0,0 2.5,0.00103 2.49897,2.50103c-0.00103,2.5 -2.50103,2.49897 -2.50103,2.49897l-3.08688,-0.00204c-3.67526,-0.1832 -7.42204,-0.25508 -11.17873,-0.37527c0.76003,0.52153 1.43262,1.2283 2.27803,1.59102c3.89432,1.67087 7.85739,1.78629 11.98862,1.78629c3.32235,0 6.5059,0.37771 9.68567,-0.62663c1.10478,-0.79112 1.96615,-2.54318 3.31433,-2.37337c5.01178,0.63125 6.94998,9.59796 5.35334,13.34369c-1.77785,4.17084 -7.31525,8.83669 -10.58557,11.92408c-0.91862,0.86723 -1.61932,2.12275 -2.81106,2.54193c-3.52668,1.24047 -9.18865,0.1903 -12.95671,0.1903c-1.59952,0 -3.35516,-0.13075 -5.09465,-0.18993c0.59465,0.73018 0.59465,1.68993 0.59465,1.68993l-0.12829,2.79057c-0.46165,1.2423 -0.57033,2.68152 -1.38494,3.72691c-1.37904,1.76972 -3.64004,2.65637 -5.219,4.25028c-3.81975,3.7418 -6.90503,4.81218 -11.83082,6.83448c-3.57803,1.46897 -7.77687,3.84626 -11.7244,5.1459c0.0539,0.1541 0.10695,0.30789 0.15917,0.46129c0,0 0.79057,2.37171 -1.58114,3.16228c-2.37171,0.79057 -3.16228,-1.58114 -3.16228,-1.58114c-0.1272,-0.39179 -0.26399,-0.79673 -0.41045,-1.2102c-2.76354,-0.03582 -6.49153,-0.50086 -8.33236,-0.6869c-4.94883,-0.50016 -10.34179,-0.62908 -15.19825,-1.70973c-0.16527,-0.03677 -9.42409,-3.12744 -9.73439,-3.23088c-5.58317,-1.86121 -15.59647,-3.62027 -19.15703,-8.7732c-0.79398,-1.14907 -0.19721,-2.78643 -0.29581,-4.17964c0,0 0,-2.5 2.5,-2.5c2.5,0 2.5,2.5 2.5,2.5c-0.0986,0.60679 -0.67613,1.33737 -0.29581,1.82036c0.72888,0.92564 2.00841,1.24684 3.08603,1.72308c4.22495,1.86719 8.86653,3.20703 13.24377,4.66599c3.08118,1.02697 6.069,2.38823 9.23928,3.09367c4.66601,1.03827 9.86282,1.13328 14.61608,1.61581c0.78668,0.07986 3.31818,0.38016 5.58331,0.55332c-0.78989,-1.42506 -1.70222,-2.7261 -2.74042,-3.70447l-0.31361,-1.18542c-0.15254,0.03591 -0.30562,0.07144 -0.45724,0.10989c-0.12642,0.47458 -0.43832,0.96368 -1.07463,1.38788c-0.52509,0.35006 -1.006,0.47921 -1.43158,0.47666c-0.06097,0.0722 -0.12318,0.14283 -0.18741,0.21098l-1,1c0,0 -1.76777,1.76777 -3.53553,0zM196.28737,149.99824c0.16623,-0.05547 0.31738,-0.13853 0.44486,-0.26601c0.61896,-0.61896 0.19954,-1.79077 0.64114,-2.54656c0.39486,-0.67578 0.81194,-1.30523 1.25903,-1.88816c-0.20761,0.05598 -0.41586,0.10959 -0.6249,0.16032c-1.14748,0.27844 -2.46283,-0.02661 -3.50177,0.5345c-0.35187,0.19004 0.32529,0.73139 0.46199,1.10722c0.3624,0.99634 0.80968,1.96446 1.31965,2.8987zM212.5,109h-1c-5.35167,0 -10.67845,-0.12716 -15.99932,-0.33485c1.32154,1.22596 2.37068,2.71863 3.21255,4.33583c1.83826,0.01659 4.25265,0.23804 6.57264,0.30383c0.3031,-0.64273 0.92757,-1.30482 2.21412,-1.30482c1.16285,0 1.78481,0.54088 2.11747,1.11948c0.14896,-0.02394 0.29456,-0.05033 0.43647,-0.07936c1.1362,-0.23243 6.63898,-2.76693 8,-3c2.05781,-0.35239 4.49878,-0.29722 6.87815,-0.19618c-2.00967,-0.22654 -4.00242,-0.51875 -5.96839,-0.90214c-1.44185,-0.28117 -2.84115,-0.73663 -4.24297,-1.18418c-0.65223,1.24238 -2.22072,1.24238 -2.22072,1.24238zM210.74714,117.99793c0.84404,3.78244 1.26845,7.31616 3.68621,10.91709c0.78169,0.77445 4.4059,4.38642 4.76587,4.6185c4.58229,2.95429 9.19877,1.15457 13.90032,0.49876c0.28402,-0.03962 6.42161,-0.03228 7.40046,-0.03228c3.6611,0 7.34143,-0.08656 11,0c1.01613,0.02404 2.06963,0.48196 3.04329,0.1903c1.50206,-0.44994 2.07979,-2.34973 3.18894,-3.45807c2.03103,-2.02953 6.0897,-5.50063 7.41443,-8.07592c0.92049,-1.78944 -0.63878,-3.97556 -0.85085,-5.97667c-0.02493,-0.23523 0.3114,-0.89051 0.20419,-0.67964c-0.26668,0.52451 -0.45711,1.08442 -0.68567,1.62663c-7.6304,2.61456 -18.77838,2.39062 -26.32571,-0.84034c-1.01385,-0.43402 -1.67479,-1.52177 -2.71308,-1.89356c-1.65592,-0.59294 -3.51666,0.10727 -5.27554,0.10727c-3.19421,0 -7.39808,-0.57186 -10.55394,-0.04012c-2.80841,0.47321 -5.20747,2.44065 -8,3c-0.06568,0.01316 -0.13199,0.02583 -0.19892,0.03805zM153.02791,116.95013c1.36307,0.84058 2.76485,1.40036 4.57047,2.30408c1.04649,0.52377 1.83837,1.49623 2.91301,1.9595c2.2405,0.96587 5.47251,0.70177 7.5061,2.29952c2.4607,1.93333 4.85911,6.92382 6.56264,9.60002c0.50074,0.78664 0.70216,1.82638 1.43736,2.39998c0.71166,0.55524 1.81156,0.31468 2.6016,0.75122c1.27434,0.70415 2.08123,2.27499 3.49615,2.61816c2.97037,0.72042 7.20146,-1.69071 9.08146,-3.61485c1.16476,-1.19211 2.32485,-2.3901 3.53553,-3.53553c0.45555,-0.431 1.22908,-0.60512 1.45807,-1.18894c0.24977,-0.63681 -0.16451,-1.35973 -0.1903,-2.04329c-0.10893,-2.88681 -0.00135,-5.80567 0.01873,-8.69454c-0.79107,-3.23702 -2.57028,-7.7203 -6.24319,-8.91273c-2.58809,-0.84023 -6.57664,0.74661 -8.97008,1.08854c-1.76701,0.25243 -3.38779,-0.50807 -4.99113,0.64536c-1.14801,0.82587 -1.8023,2.24799 -3,3c-1.16795,0.73333 -2.55847,1.0866 -3.91387,1.34109c-5.12645,0.96257 -10.71254,-0.70966 -15.87255,-0.01759z" fill="#000000" stroke="none"/><path d="M243,125.5c0,2.5 -2.5,2.5 -2.5,2.5c-3.33333,0 -7.66667,0 -11,0c0,0 -2.5,0 -2.5,-2.5c0,-2.5 2.5,-2.5 2.5,-2.5c3.33333,0 6.66667,0 10,0h1c0,0 2.5,0 2.5,2.5z" fill="#000000" stroke="none"/><path d="M183,125.5c0,-1.38071 1.11929,-2.5 2.5,-2.5c1.38071,0 2.5,1.11929 2.5,2.5c0,1.38071 -1.11929,2.5 -2.5,2.5c-1.38071,0 -2.5,-1.11929 -2.5,-2.5z" fill="#000000" stroke="none"/></g></g></svg>