<svg version="1.1" xmlns="http://www.w3.org/2000/svg" xmlns:xlink="http://www.w3.org/1999/xlink" width="87.38469" height="180.72127" viewBox="0,0,87.38469,180.72127"><defs><linearGradient x1="307.68252" y1="188.60362" x2="331.80146" y2="188.60362" gradientUnits="userSpaceOnUse" id="color-1"><stop offset="0" stop-color="#ff4040"/><stop offset="1" stop-color="#d940ff"/></linearGradient></defs><g transform="translate(-278.38338,-82.03181)"><g data-paper-data="{&quot;isPaintingLayer&quot;:true}" fill-rule="nonzero" stroke-linejoin="miter" stroke-miterlimit="10" stroke-dasharray="" stroke-dashoffset="0" style="mix-blend-mode: normal"><path d="M314.51392,234.71531c2.27684,-2.84705 4.77141,-0.19282 7.2675,-0.88197c0.45706,-0.12619 1.05777,-1.76736 1.97827,-1.95146c4.54431,-0.90886 3.3425,9.0367 3.32362,10.45146c-0.01697,1.27188 -0.70695,6.68868 -2.25,7.1875c-0.83335,0.2694 -1.72106,0.45781 -2.57958,0.24318c-0.57234,-0.14309 -1.10978,-1.49759 -1.44966,-1.01537c-0.20641,0.29286 -0.70891,0.74876 -1.3363,1.18103c-0.45185,0.64705 -1.20206,1.07032 -2.05113,1.07032c-0.04606,0 -0.09182,-0.00124 -0.13726,-0.0037c-1.16124,0.29382 -2.17265,-0.01427 -2.25638,-1.77257c-0.06917,-0.2291 -0.10636,-0.47207 -0.10636,-0.72373c0,-0.12712 0.00949,-0.25201 0.02779,-0.37402c0.15178,-3.32593 -1.602,-11.94582 -0.43053,-13.41067z" fill="#ffffd6" stroke="none" stroke-width="0.5" stroke-linecap="butt"/><path d="M313.76396,198.75973c-0.17539,3.68333 -3.34851,6.80841 -5.13895,2.36529c-1.37102,-3.4023 -0.33974,-7.33195 -0.3125,-11c0.01675,-2.25545 4.04647,-3.50823 4.8125,-1.125c0.93627,2.91285 0.5625,6.45306 0.5625,9.37745z" fill="#ffffd6" stroke="none" stroke-width="0.5" stroke-linecap="butt"/><path d="M327.68751,199.87502c-2.87169,0 -3.05656,-7.4911 -2.58778,-10.05722c0.00378,-0.02166 0.00783,-0.04323 0.01216,-0.06469c0.23044,-1.14266 1.24005,-2.00309 2.45062,-2.00309c1.38071,0 2.5,1.11929 2.5,2.5c0,0.2807 -0.04626,0.55058 -0.13157,0.80246c1.18484,3.71708 0.20078,8.82254 -2.24343,8.82254z" fill="#ffffd6" stroke="none" stroke-width="0.5" stroke-linecap="butt"/><path d="M308.75001,186.12502c-2.22479,-4.44958 -0.32308,-11.43322 -0.0625,-16.05776c0.13169,-2.33718 -1.18221,-4.47562 1.00696,-6.17831c1.98412,-1.54321 3.16582,0.82024 3.74676,2.45496c0.01854,-0.0316 0.03812,-0.06291 0.05878,-0.09389c2.33865,-3.50797 4.3278,0.85642 5.84819,2.25016c0.85258,0.78156 1.2335,-2.22366 2.33931,-2.56266c3.10095,-0.95061 7.51792,-5.26239 10.02118,-3.131c0.42723,0.36377 -0.78259,1.15793 -0.38061,1.92874c0.93854,1.79967 -1.04056,3.43299 -1.59369,4.65479c-1.33858,2.95675 -1.8541,4.75356 -1.21427,8.26465c0.4751,2.60718 3.11395,6.48809 1.31016,8.98808c-0.87273,1.20958 -2.98638,0.52235 -4.02952,-0.31264c-0.32118,-0.25709 -2.02193,-1.40089 -2.07399,-1.23716c-0.88989,2.79903 0.85131,3.5792 0.85131,5.92179c0,6.47091 1.73022,13.51687 0.875,19.84549c-0.61487,4.55003 -9.24587,5.22196 -11.89058,2.57726c-2.52904,-2.52903 0.49826,-3.22582 -0.71357,-5.64948c-0.18291,-0.34741 -0.28643,-0.74312 -0.28643,-1.16302c0,-0.02273 0.0003,-0.04538 0.0009,-0.06796c0.08288,-6.02958 0.83786,-12.5083 0.8741,-18.72667c0.00456,-0.78222 0.00832,-1.56444 0.01137,-2.34667c-0.75948,1.97179 -3.47424,3.09056 -4.69887,0.6413z" fill="url(#color-1)" stroke="none" stroke-width="0.5" stroke-linecap="butt"/><path d="M312.7228,222.86002c-0.4475,-1.59973 -0.07757,-3.34798 -0.41028,-4.96679c-0.12709,-0.61836 -1.49887,-1.94512 -1.25,-2.59433c1.18869,-3.1008 14.53917,-2.97977 16.0625,-0.50723c1.53564,2.49253 -0.03792,5.55816 -0.1875,8.1154c-0.12286,2.10053 0.43112,4.09492 0.21389,6.24304c-0.13398,1.32489 0.18175,3.51538 -0.90139,4.77113c-1.37105,1.58955 -3.77847,0.30343 -5.78078,0.69242c-4.46855,0.86811 -8.36251,-0.79124 -6.73858,-3.61533c-0.02832,-0.08732 -0.90028,-1.60597 -0.90028,-1.69805c0,-0.04567 0.71794,-1.51943 0.72507,-1.56403c0.15484,-2.35009 -0.16849,-2.50199 -0.83264,-4.87624z" fill="#7300ff" stroke="none" stroke-width="0.5" stroke-linecap="butt"/><path d="M319.10014,157.52131c0.72138,0.05266 1.1627,0.86078 1.73769,1.29959c0.16734,0.12771 1.30021,-0.75666 2.54778,0.52134c1.94393,1.99134 -1.61228,8.68948 -4.49999,8.52905c-2.75794,-0.15322 -3.66756,-4.35369 -3.64704,-6.47488c0.00236,-0.24371 -0.0529,-2.23394 0.44792,-2.46271l1.52991,-0.78448c0.06043,0 0.1202,0.00285 0.17917,0.00841c0.58014,-0.03841 1.10547,-0.68005 1.70455,-0.63632z" fill="#ffffd6" stroke="none" stroke-width="0.5" stroke-linecap="butt"/><path d="M313.03162,252.28681c1.23703,-0.46043 3.29385,0.14136 4.39282,-0.36724c0.59616,-0.2759 0.86567,-0.7626 1.77813,-0.7626c0.50556,0 1.27658,0.53885 1.65309,0.4851c2.252,-0.32154 3.81047,-1.0047 6.07605,-0.51981c0.87185,0.18659 0.95538,1.23643 1.3811,1.4139c0.69558,0.28998 2.09852,-0.15899 2.96059,-0.06029c2.37446,0.27184 6.63117,3.7057 6.07483,6.37827c-0.65294,3.13657 -9.83986,0.01232 -12.53916,-0.43248c-1.1838,-0.19507 -2.92371,-1.97486 -3.89621,-1.36496c-0.76001,0.47664 -6.5524,2.31763 -8.18067,2.77031c-0.58066,0.16144 -1.83874,-0.09289 -2.88434,-0.49564c-0.67602,-0.05084 -1.24958,-0.40738 -1.53092,-0.90716c-0.08337,-0.10433 -0.12956,-0.2074 -0.12956,-0.30652c-0.03674,-0.1257 -0.05624,-0.25725 -0.05624,-0.3927c0,-0.25837 0.07097,-0.50253 0.19714,-0.719c0.70009,-1.84381 2.88645,-4.04292 4.70337,-4.71919z" fill="#ffffff" stroke="none" stroke-width="0.5" stroke-linecap="butt"/><path d="M297.81649,156.52839c0,0 -4.22307,-17.29411 -4.22307,-24.93623c0,-2.75768 -0.95763,-11.04158 3.54451,-14.9676c5.80536,-5.06248 17.7568,-5.54445 21.79391,-5.54445c3.39251,0 15.74324,-2.37128 21.09113,2.11689c6.84841,5.74747 6.45938,19.01195 6.45938,23.02043c0,7.07165 -3.82087,20.31096 -3.82087,20.31096c0,0 -15.47704,2.21209 -23.12634,2.21209c-7.28084,0 -21.71865,-2.21209 -21.71865,-2.21209z" fill="#ffffd6" stroke="#000000" stroke-width="3" stroke-linecap="butt"/><path d="M358.74709,131.70701l-0.14343,0.08367l0.33475,0.37387c-0.00225,1.08935 5.86173,6.79693 5.5982,7.85392c-0.71879,2.88303 2.11321,23.31751 0.94536,26.02595c-0.0595,0.13798 -1.62374,12.86342 -4.15893,14.79329c-1.26506,0.963 -3.91988,-9.94608 -4.46103,-8.13567c-1.54484,5.16826 2.24609,14.77823 -0.02395,14.89426c-4.74309,0.24244 -10.3368,-20.18864 -10.69548,-19.92149c-3.88254,2.89185 1.8937,-25.69886 0.89282,-28.79987c-0.70971,-2.19889 -0.2384,-4.21848 0.48796,-6.24106c-0.25105,-0.06961 -0.50104,-0.12914 -0.74983,-0.17417c-3.58292,0.01273 -7.14706,0.81201 -10.69644,0.56847c-2.81241,-0.19297 -5.53,-1.08522 -8.33581,-1.32258c-3.05575,-0.25851 -4.09995,-0.08766 -7.25629,-0.51532c-2.96979,-0.40239 -4.99482,-1.68098 -8.136,-1.37636c-1.5576,0.15105 -4.04694,1.65645 -5.14212,2.00023c-1.29235,0.40566 -2.64449,0.59712 -3.98279,0.80613c-2.21245,0.34553 -3.6248,-0.5318 -5.53875,-0.60573c1.33415,2.72128 1.63634,5.98327 1.54783,8.90538l0.74466,1.34037c0.16131,0.27772 0.25367,0.60044 0.25367,0.94473c0,0.69725 -0.37882,1.30601 -0.94186,1.63172v1.00549c0,1.04035 0.1757,52.07359 -0.86465,52.07359c-0.74135,0 -4.69468,-10.10954 -5.00209,-10.73215l-6.51767,7.66905c-1.192,0.19968 -2.36787,-29.50074 -2.36787,-29.50074l0.42412,-12.91636c-0.82137,-0.74195 -0.55078,-2.88005 -1.11621,-4.01272c-0.52376,-0.01525 -0.5282,-3.12745 -1.00737,-3.32368c-2.58017,-1.05664 -3.86777,-2.058 -2.11073,-5.3411c0.3442,-0.64315 0.86447,-2.22675 0.98783,-2.66505c-0.20715,-0.82715 -2.30265,-2.13674 -2.17519,-3.47263c0.0281,-0.29451 0.18298,-2.56256 0.39897,-2.76327c-3.80262,0.2981 0.5706,-1.24944 0.51443,-5.60383c-0.0328,-2.54237 1.23406,-4.29673 2.95379,-5.7228c0.46659,-0.84575 1.22511,-1.71413 2.13053,-2.44444c0.55139,-1.30416 1.17433,-2.57207 1.88773,-3.83643l0.23282,-0.13668l-0.06095,-0.06095l1.69535,-1.69535v0c0.21044,-0.21044 0.47044,-0.37132 0.761,-0.46363c1.16084,-2.14751 2.69086,-4.01431 5.22521,-4.88075c1.03573,-0.3541 2.31551,-0.64049 3.28138,-0.12548c0.79683,0.42488 0.21672,2.37041 1.11433,2.46931c0.78591,0.0866 0.29874,-1.5809 0.68442,-2.27112c1.56335,-2.79781 3.75449,-5.06529 7.01117,-5.59837c1.27957,-0.20945 2.62268,-0.62494 3.87814,-0.30093c0.71808,0.18533 0.76128,1.43049 1.46014,1.67865c0.80797,0.28691 -12.0345,-4.51534 -10.53423,-10.02094c1.50027,-5.5056 8.43032,-9.81834 15.93857,-9.8116c7.50825,0.00674 10.64597,4.76798 12.33148,9.83696c1.46797,4.41476 -5.55961,9.3503 -5.2462,9.59911c1.98197,1.57344 2.74417,0.96118 4.89146,0.54316c2.42854,-0.85656 4.70167,-1.88804 7.38503,-1.75021c3.30064,0.16953 4.71681,2.59696 7.04773,4.28628c0.2246,-0.09456 0.47138,-0.14683 0.73037,-0.14683c0.66422,0 1.24815,0.34378 1.58356,0.86313l0.26758,0.40138c1.04552,0.20455 2.13932,0.29867 3.0702,0.787c2.51583,1.31979 5.91825,5.6709 6.69752,8.58995c0.37646,1.4102 -0.20546,3.10201 0.03866,4.5209c0.4596,2.67125 3.49963,6.09339 2.39881,8.8986c-0.29573,0.7536 -0.73392,1.44133 -1.2381,2.08629zM352.52275,140.47462c0.00849,0.01026 0.01142,0.00865 0.00743,-0.00872c-0.00247,0.00292 -0.00495,0.00582 -0.00743,0.00872z" fill="#4a4e2c" stroke="none" stroke-width="0.5" stroke-linecap="butt"/><path d="M308.56129,198.01335c0.16905,-1.32035 0.31732,-2.61102 0.37858,-3.77692c0.02564,-0.48784 -1.44854,-0.21155 -1.40795,-0.67387c0.40467,-4.60998 1.41322,-10.99197 1.30684,-13.83228c-0.21043,-5.61847 -1.07237,-15.99266 -1.07237,-15.99266l7.34652,1.3186" fill="none" stroke="#000000" stroke-width="3" stroke-linecap="round"/><path d="M315.96058,251.58194l-4.6466,-34.56538l1.60202,-3.1091l13.31624,0.12559" fill="none" stroke="#000000" stroke-width="3" stroke-linecap="round"/><path d="M322.61641,165.43294l-3.76745,3.13954l-3.17093,-4.83489l-0.56511,-3.57907" fill="none" stroke="#000000" stroke-width="3" stroke-linecap="round"/><path d="M332.44318,162.41901l-8.66513,2.26046l0.56512,-4.52093" fill="none" stroke="#000000" stroke-width="3" stroke-linecap="round"/><path d="M313.04082,212.52606l0.75349,-47.09311" fill="none" stroke="#000000" stroke-width="3" stroke-linecap="round"/><path d="M324.97108,165.99809l0.94186,47.65822l1.83032,3.14424l-0.6059,35.28373l9.92095,3.64186l-0.25117,5.27443l-15.32095,-2.51163" fill="none" stroke="#000000" stroke-width="3" stroke-linecap="round"/><path d="M329.66042,195.83653c0.16517,-1.37929 0.34321,-2.85557 0.47238,-4.55744c0.47731,-6.28876 -1.40055,-12.56035 -1.36566,-15.67721c0.04442,-3.96855 2.5458,-12.05263 2.5458,-12.05263" fill="none" stroke="#000000" stroke-width="3" stroke-linecap="round"/><path d="M311.91058,207.25164l-3.57907,-8.66513" fill="none" stroke="#000000" stroke-width="3" stroke-linecap="round"/><path d="M325.44201,206.62374l4.7721,-10.54886" fill="none" stroke="#000000" stroke-width="3" stroke-linecap="round"/><path d="M320.23037,214.28421l1.25581,43.57682l-11.67909,3.01395l-2.26047,-4.39535l7.66048,-5.02326" fill="none" stroke="#000000" stroke-width="3" stroke-linecap="round"/><path d="M315.96058,250.82846l10.17211,-0.37674" fill="none" stroke="#000000" stroke-width="3" stroke-linecap="round"/><path d="M312.31251,185.25002l-4,5.125" fill="none" stroke="#000000" stroke-width="3" stroke-linecap="round"/><path d="M325.06251,186.50002l4.5,1.875" fill="none" stroke="#000000" stroke-width="3" stroke-linecap="round"/><path d="M305.57142,140.57144c0,-1.38071 1.11929,-2.5 2.5,-2.5c1.38071,0 2.5,1.11929 2.5,2.5c0,1.38071 -1.11929,2.5 -2.5,2.5c-1.38071,0 -2.5,-1.11929 -2.5,-2.5z" fill="#ffffff" stroke="none" stroke-width="0.5" stroke-linecap="butt"/><path d="M328.85715,142c0,-0.35728 0.07495,-0.69706 0.20997,-1.00447c-0.22406,-0.37469 -0.35283,-0.81294 -0.35283,-1.28125c0,-1.14664 0.77195,-2.11298 1.8245,-2.40767c0.4579,-0.5784 1.16622,-0.94947 1.96121,-0.94947c1.38071,0 2.5,1.11929 2.5,2.5c0,0.04022 -0.00095,0.08021 -0.00283,0.11997c0.35866,0.43274 0.57426,0.98835 0.57426,1.59432c0,1.18263 -0.82118,2.17347 -1.92444,2.43342c-0.38688,0.88036 -1.26657,1.49515 -2.28985,1.49515c-1.38071,0 -2.5,-1.11929 -2.5,-2.5z" fill="#ffffff" stroke="none" stroke-width="0.5" stroke-linecap="butt"/><path d="M302.64286,143.28573l12.85715,-0.14286" fill="none" stroke="#000000" stroke-width="3" stroke-linecap="round"/><path d="M305.07142,142.42858c0,0 3.18853,-6.58041 4.72398,-6.65352c1.46083,-0.06957 5.41888,6.79638 5.41888,6.79638" fill="none" stroke="#000000" stroke-width="3" stroke-linecap="round"/><path d="M338.21429,143.14287l-14.85714,0.14286" fill="none" stroke="#000000" stroke-width="3" stroke-linecap="round"/><path d="M328.21429,142.71428c0,0 3.24907,-7.5098 4.85112,-7.48396c1.27501,0.02057 4.86316,7.34111 4.86316,7.34111" fill="none" stroke="#000000" stroke-width="3" stroke-linecap="round"/><path d="M310.35715,139l0.71429,2.85715" fill="none" stroke="#000000" stroke-width="3" stroke-linecap="round"/><path d="M310.07142,138.14287l2.28571,3" fill="none" stroke="#000000" stroke-width="3" stroke-linecap="round"/><path d="M335.21429,141.28573l-1.42857,-4.28572" fill="none" stroke="#000000" stroke-width="3" stroke-linecap="round"/><path d="M310.13637,258.45456l-0.72728,-1.63637l7.38871,-4.57366l3.06583,-0.0627v3.09091z" fill="#00b5ff" stroke="none" stroke-width="0" stroke-linecap="butt"/><path d="M322.68181,255.72728l0.18182,-3.81817l3.06583,0.06269l9.66145,4.84639l-0.09091,1.45454z" data-paper-data="{&quot;index&quot;:null}" fill="#00b5ff" stroke="none" stroke-width="0" stroke-linecap="butt"/><path d="M316.47029,244.7543l-1.13495,-3.46154h4.33348l0.20636,3.46154z" fill="#7dff88" stroke="none" stroke-width="0" stroke-linecap="butt"/><path d="M322.65385,244.54242v-3.61539l3.23077,0.07692l0.07692,3z" data-paper-data="{&quot;index&quot;:null}" fill="#7dff88" stroke="none" stroke-width="0" stroke-linecap="butt"/><path d="M306.93159,151.437l23.24878,2.31044" fill="none" stroke="#000000" stroke-width="3" stroke-linecap="round"/></g></g></svg>