<svg version="1.1" xmlns="http://www.w3.org/2000/svg" xmlns:xlink="http://www.w3.org/1999/xlink" width="79.23239" height="163.19278" viewBox="0,0,79.23239,163.19278"><g transform="translate(-274.12413,-99.5603)"><g data-paper-data="{&quot;isPaintingLayer&quot;:true}" fill-rule="nonzero" stroke-linejoin="miter" stroke-miterlimit="10" stroke-dasharray="" stroke-dashoffset="0" style="mix-blend-mode: normal"><path d="M313.76396,198.75972c-0.17539,3.68333 -3.34851,6.80841 -5.13895,2.36529c-1.37102,-3.4023 -0.33974,-7.33195 -0.3125,-11c0.01675,-2.25545 4.04647,-3.50823 4.8125,-1.125c0.93627,2.91285 0.5625,6.45306 0.5625,9.37745z" fill="#ffffd6" stroke="none" stroke-width="0.5" stroke-linecap="butt"/><path d="M327.68751,199.87501c-2.87169,0 -3.05656,-7.4911 -2.58778,-10.05722c0.00378,-0.02166 0.00783,-0.04323 0.01216,-0.06469c0.23044,-1.14266 1.24005,-2.00309 2.45062,-2.00309c1.38071,0 2.5,1.11929 2.5,2.5c0,0.2807 -0.04626,0.55058 -0.13157,0.80246c1.18484,3.71708 0.20078,8.82254 -2.24343,8.82254z" fill="#ffffd6" stroke="none" stroke-width="0.5" stroke-linecap="butt"/><path d="M308.75001,186.12501c-2.22479,-4.44958 -0.32308,-11.43322 -0.0625,-16.05776c0.13169,-2.33718 -1.18221,-4.47562 1.00696,-6.17831c1.98412,-1.54321 3.16582,0.82024 3.74676,2.45496c0.01854,-0.0316 0.03812,-0.06291 0.05878,-0.09389c2.33865,-3.50797 4.3278,0.85642 5.84819,2.25016c0.85258,0.78156 1.2335,-2.22366 2.33931,-2.56266c3.10095,-0.95061 7.51792,-5.26239 10.02118,-3.131c0.42723,0.36377 -0.78259,1.15793 -0.38061,1.92874c0.93854,1.79967 -1.04056,3.43299 -1.59369,4.65479c-1.33858,2.95675 -1.8541,4.75356 -1.21427,8.26465c0.4751,2.60718 3.11395,6.48809 1.31016,8.98808c-0.87273,1.20958 -2.98638,0.52235 -4.02952,-0.31264c-0.32118,-0.25709 -2.02193,-1.40089 -2.07399,-1.23716c-0.88989,2.79903 0.85131,3.5792 0.85131,5.92179c0,6.47091 1.73022,13.51687 0.875,19.84549c-0.61487,4.55003 -9.24587,5.22196 -11.89058,2.57726c-2.52904,-2.52903 0.49826,-3.22582 -0.71357,-5.64948c-0.18291,-0.34741 -0.28643,-0.74312 -0.28643,-1.16302c0,-0.02273 0.0003,-0.04538 0.0009,-0.06796c0.08288,-6.02958 0.83786,-12.5083 0.8741,-18.72667c0.00456,-0.78222 0.00832,-1.56444 0.01137,-2.34667c-0.75948,1.97179 -3.47424,3.09056 -4.69887,0.6413z" fill="#ffffff" stroke="none" stroke-width="0.5" stroke-linecap="butt"/><path d="M312.7228,230.04355c-0.4475,-2.75966 -0.07757,-5.77553 -0.41028,-8.56811c-0.12709,-1.06671 -1.49887,-3.35549 -1.25,-4.47543c1.18869,-5.34912 14.53917,-5.14033 16.0625,-0.875c1.53564,4.2998 -0.03792,9.58826 -0.1875,13.99969c-0.12286,3.62358 0.43112,7.06407 0.21389,10.76975c-0.13398,2.28554 0.18175,6.0643 -0.90139,8.23057c-1.37105,2.7421 -3.77847,0.52344 -5.78078,1.19448c-4.46855,1.49757 -7.36251,-1.85782 -5.73858,-6.7296c-0.02832,-0.15063 -0.04314,-0.30603 -0.04314,-0.46488c0,-0.07879 0.00365,-0.15673 0.01078,-0.23367c0.15484,-4.05409 -1.31134,-8.75204 -1.97549,-12.8478z" fill="#ff0000" stroke="none" stroke-width="0.5" stroke-linecap="butt"/><path d="M319.10014,157.52131c0.72138,0.05266 1.1627,0.86078 1.73769,1.29959c0.16734,0.12771 1.30021,-0.75666 2.54778,0.52134c1.94393,1.99134 -1.61228,8.68948 -4.49999,8.52905c-2.75794,-0.15322 -3.66756,-4.35369 -3.64704,-6.47488c0.00236,-0.24371 -0.0529,-2.23394 0.44792,-2.46271l1.52991,-0.78448c0.06043,0 0.1202,0.00285 0.17917,0.00841c0.58014,-0.03841 1.10547,-0.68005 1.70455,-0.63632z" fill="#ffffd6" stroke="none" stroke-width="0.5" stroke-linecap="butt"/><path d="M312.69829,252.01092c1.23703,-0.53784 3.29385,0.16513 4.39282,-0.42898c0.59616,-0.32228 0.86567,-0.89081 1.77813,-0.89081c0.50556,0 1.27658,0.62944 1.65309,0.56665c2.252,-0.37559 3.81047,-1.1736 6.07605,-0.6072c0.87185,0.21796 0.95538,1.44429 1.3811,1.6516c0.69558,0.33873 2.09852,-0.18571 2.96059,-0.07043c2.37446,0.31754 6.29783,2.38183 5.74149,5.50369c-0.65294,3.66388 -9.83986,0.98782 -12.53916,0.46824c-1.1838,-0.22787 -2.59038,-1.33343 -3.56288,-0.62099c-0.76001,0.55677 -6.5524,2.70725 -8.18067,3.23604c-0.58066,0.18858 -1.83874,-0.10851 -2.88434,-0.57896c-0.67602,-0.05939 -1.24958,-0.47586 -1.53092,-1.05966c-0.08337,-0.12187 -0.12956,-0.24227 -0.12956,-0.35806c-0.03674,-0.14683 -0.05624,-0.30049 -0.05624,-0.45871c0,-0.3018 0.07097,-0.58702 0.19714,-0.83988c0.70009,-2.15378 2.88645,-4.72259 4.70337,-5.51255z" fill="#ffffff" stroke="none" stroke-width="0.5" stroke-linecap="butt"/><path d="M296.81613,161.1772c0,0 -6.43796,-16.59738 -7.43258,-24.1745c-0.35891,-2.73423 -2.38653,-10.82304 1.56635,-15.30161c5.0971,-5.77499 16.88416,-7.80833 20.88693,-8.33375c3.36365,-0.44153 15.30071,-4.40008 21.18724,-0.64611c7.53819,4.80727 8.87883,18.00956 9.40053,21.98395c0.92037,7.0115 -1.14492,20.63549 -1.14492,20.63549c0,0 -15.0575,4.2076 -22.64174,5.20315c-7.21891,0.94759 -21.82182,0.63338 -21.82182,0.63338z" fill="#ffffd6" stroke="#000000" stroke-width="3" stroke-linecap="butt"/><path d="M294.05725,140.15685l20.96729,-2.37231" fill="none" stroke="#000000" stroke-width="3" stroke-linecap="round"/><path d="M296.18386,149.21825l-1.58647,-8.04412l12.54941,-1.45602l1.32256,8.18219l-8.67714,1.21176" fill="none" stroke="#000000" stroke-width="3" stroke-linecap="round"/><path d="M303.7781,147.79991l-1.47185,-6.15447" fill="none" stroke="#000000" stroke-width="3" stroke-linecap="round"/><path d="M298.41895,141.79675l4.50731,6.04546" fill="none" stroke="#000000" stroke-width="3" stroke-linecap="round"/><path d="M298.53358,143.68639l3.20919,-0.80496" fill="none" stroke="#000000" stroke-width="3" stroke-linecap="round"/><path d="M303.81486,148.36642l-4.01524,-3.93059l3.81481,1.76125" fill="none" stroke="#000000" stroke-width="3" stroke-linecap="round"/><path d="M302.54953,142.56019l-5.85209,-0.19897" fill="none" stroke="#000000" stroke-width="3" stroke-linecap="round"/><path d="M297.86768,143.6986l1.09612,3.82999" fill="none" stroke="#000000" stroke-width="3" stroke-linecap="round"/><path d="M297.50762,149.84107c-1.84934,-0.63278 -1.96445,-5.65411 -2.09969,-6.60355c-0.26855,-1.88546 1.70023,-2.27514 3.07382,-1.75985c0.85833,0.32198 0.98283,2.76108 2.80261,3.716c0.86534,0.04704 1.61156,0.69017 1.7555,1.58066c0.10399,0.64337 -0.13107,1.26323 -0.57368,1.67738c-1.07715,1.34617 -3.42759,1.9132 -4.95857,1.38936z" fill="#000000" stroke="none" stroke-width="0.5" stroke-linecap="butt"/><path d="M306.4745,147.36407l-0.65287,-5.80981" fill="none" stroke="#ffffff" stroke-width="3" stroke-linecap="round"/><path d="M305.71284,147.96422l-1.73295,-6.58932" fill="none" stroke="#ffffff" stroke-width="3" stroke-linecap="round"/><path d="M299.08764,141.21159l8.10143,-0.64164l1.0314,7.56139l-7.71729,1.24742" fill="none" stroke="#000000" stroke-width="3" stroke-linecap="round"/><path d="M317.73271,137.42905l20.96729,-2.37232" fill="none" stroke="#000000" stroke-width="3" stroke-linecap="round"/><path d="M321.93745,138.05746l8.63415,-1.4875l1.23126,8.19643l-12.39696,2.43372l-0.93784,-8.14525" data-paper-data="{&quot;index&quot;:null}" fill="none" stroke="#000000" stroke-width="3" stroke-linecap="round"/><path d="M326.60535,144.40425l-0.47173,-6.31041" data-paper-data="{&quot;index&quot;:null}" fill="none" stroke="#000000" stroke-width="3" stroke-linecap="round"/><path d="M322.85652,145.44361l2.45281,-7.13071" data-paper-data="{&quot;index&quot;:null}" fill="none" stroke="#000000" stroke-width="3" stroke-linecap="round"/><path d="M325.6923,143.39849l-3.30191,0.21028" data-paper-data="{&quot;index&quot;:null}" fill="none" stroke="#000000" stroke-width="3" stroke-linecap="round"/><path d="M326.13509,140.00578l-3.09751,2.83906l2.62797,-4.96644" data-paper-data="{&quot;index&quot;:null}" fill="none" stroke="#000000" stroke-width="3" stroke-linecap="round"/><path d="M321.04485,145.43003l5.51371,-1.97118" data-paper-data="{&quot;index&quot;:null}" fill="none" stroke="#000000" stroke-width="3" stroke-linecap="round"/><path d="M319.53937,138.0586c1.29882,-0.96508 3.71031,-1.14055 5.14617,-0.18622c0.54768,0.25974 0.9603,0.77861 1.05712,1.4231c0.134,0.89204 -0.381,1.73182 -1.19094,2.04008c-1.44267,1.46362 -0.81868,3.82484 -1.53823,4.39285c-1.15151,0.90902 -3.14547,1.13723 -3.46369,-0.74049c-0.16025,-0.94555 -1.57933,-5.76354 -0.01043,-6.92932z" data-paper-data="{&quot;index&quot;:null}" fill="#000000" stroke="none" stroke-width="0.5" stroke-linecap="butt"/><path d="M329.98161,143.42085l-1.1469,-5.73278" data-paper-data="{&quot;index&quot;:null}" fill="none" stroke="#ffffff" stroke-width="3" stroke-linecap="round"/><path d="M328.28188,144.15241l-0.35541,-6.80411" data-paper-data="{&quot;index&quot;:null}" fill="none" stroke="#ffffff" stroke-width="3" stroke-linecap="round"/><path d="M322.53347,137.58696l7.73071,-1.1613l1.3196,7.51646l-7.9122,1.85527" data-paper-data="{&quot;index&quot;:null}" fill="none" stroke="#000000" stroke-width="3" stroke-linecap="round"/><path d="M319.37888,154.31193l-9.13948,1.29469" fill="none" stroke="#000000" stroke-width="3" stroke-linecap="round"/><path d="M352.66536,127.99153l-0.13132,0.10162l0.38056,0.32712c0.13954,1.08038 0.54235,2.15882 0.41863,3.24112c-0.33745,2.95206 -1.91642,2.44171 -2.72183,5.27911c-0.24208,0.85284 0.75124,2.03949 0.11523,2.65708c-3.47314,3.37256 -7.34449,-0.03046 -8.74045,-2.97483c-0.98985,-2.08782 -0.78541,-4.15158 -0.32846,-6.25149c-0.25797,-0.03635 -0.51358,-0.06283 -0.76612,-0.0751c-3.55079,0.47894 -6.98059,1.73529 -10.53147,1.95577c-2.8136,0.1747 -5.6242,-0.35627 -8.43704,-0.22644c-3.0634,0.14139 -4.07648,0.4467 -7.26164,0.43347c-2.9969,-0.01245 -5.17111,-1.01661 -8.24593,-0.30576c-1.5247,0.35249 -3.79694,2.16906 -4.83806,2.65246c-1.22856,0.57041 -2.54429,0.93622 -3.844,1.31763c-2.14866,0.63054 -3.66318,-0.05551 -5.57047,0.12029c1.67698,2.5245 2.40114,5.71941 2.69369,8.62819l0.91278,1.23205c0.19608,0.25437 0.32966,0.56232 0.37446,0.90368c0.09075,0.69132 -0.20562,1.3442 -0.72148,1.74042l0.13087,0.99694c0.1354,1.0315 -0.59105,1.97746 -1.62255,2.11286c-0.73505,0.09649 -1.42664,-0.24465 -1.81247,-0.82196l-1.13368,-1.62374c-1.15587,0.35312 -1.9683,-0.71632 -1.9683,-0.71632l-0.10784,-0.16518c-0.91095,-0.62874 -1.83187,-1.89343 -2.5399,-2.94287c-0.52129,0.05304 -1.03805,0.06546 -1.53869,-0.06673c-3.22384,-0.85129 -3.87042,-3.32637 -3.47202,-6.07735c-0.31304,-0.79316 -0.50716,-1.83154 -0.55465,-3.17265c-0.01047,-0.29566 0.11317,-0.54375 0.3012,-0.77086c-3.73148,0.79047 -6.28454,0.59261 -6.90695,-3.71743c-0.36341,-2.51647 0.66435,-4.4208 2.18385,-6.05856c0.35255,-0.89929 0.9916,-1.859 1.79426,-2.70094c0.37696,-1.36483 0.82959,-2.70303 1.37237,-4.04949l0.21305,-0.16582l-0.06837,-0.0525l1.46028,-1.90158v0c0.18126,-0.23604 0.41812,-0.42939 0.69419,-0.55873c0.87147,-2.28033 2.14551,-4.33038 4.54554,-5.51929c0.98084,-0.48589 2.21246,-0.9364 3.23714,-0.55148c0.84535,0.31756 0.52338,2.32205 1.42623,2.30328c0.7905,-0.01642 0.09044,-1.60634 0.38302,-2.34088c1.18592,-2.97748 3.06331,-5.51085 6.22291,-6.46325c1.24142,-0.37421 2.51904,-0.96096 3.80599,-0.80311c0.73609,0.09029 0.94098,1.31924 1.6662,1.47434c0.83844,0.17932 2.78682,-1.7666 3.23859,-2.05246c2.09638,-1.32649 4.81213,-2.34041 7.35064,-1.86718c0.84505,0.15753 1.00547,1.45872 1.74256,1.90103c2.16989,1.3021 2.84593,0.59585 4.92055,-0.09808c2.2964,-1.16535 4.41595,-2.4839 7.09443,-2.69648c3.29463,-0.26148 5.01468,1.96098 7.54564,3.33257c0.21038,-0.12298 0.44826,-0.20694 0.70504,-0.24064c0.65857,-0.08645 1.28228,0.17841 1.68243,0.64969l0.31754,0.36314c1.06325,0.06673 2.15999,0.0177 3.14651,0.38072c2.6662,0.98113 6.60598,4.85241 7.75853,7.64521c0.5568,1.34921 0.20001,3.10237 0.62672,4.47742c0.80335,2.58871 4.26291,5.58609 3.53655,8.51071c-0.19513,0.78568 -0.54009,1.52458 -0.95604,2.22968zM347.63506,137.49466c0.00975,0.00907 0.01244,0.00709 0.00623,-0.00961c-0.00207,0.00322 -0.00415,0.00642 -0.00623,0.00961z" fill="#29241d" stroke="none" stroke-width="0.5" stroke-linecap="butt"/><path d="M308.56129,198.01334c0.16905,-1.32035 0.31732,-2.61102 0.37858,-3.77692c0.02564,-0.48784 -1.44854,-0.21155 -1.40795,-0.67387c0.40467,-4.60998 1.41322,-10.99197 1.30684,-13.83228c-0.21043,-5.61847 -1.07237,-15.99266 -1.07237,-15.99266l7.34652,1.3186" fill="none" stroke="#000000" stroke-width="3" stroke-linecap="round"/><path d="M315.96058,251.58193l-4.6466,-34.56538l1.60202,-3.1091l13.31624,0.12559" fill="none" stroke="#000000" stroke-width="3" stroke-linecap="round"/><path d="M322.61641,165.43294l-3.76745,3.13954l-3.17093,-4.83489l-0.56511,-3.57907" fill="none" stroke="#000000" stroke-width="3" stroke-linecap="round"/><path d="M332.44318,162.419l-8.66513,2.26046l0.56512,-4.52093" fill="none" stroke="#000000" stroke-width="3" stroke-linecap="round"/><path d="M313.04082,212.52605l0.75349,-47.09311" fill="none" stroke="#000000" stroke-width="3" stroke-linecap="round"/><path d="M324.97108,165.99808l0.94186,47.65822l1.83032,3.14424l-0.6059,35.28373l9.92095,3.64186l-0.25117,5.27443l-15.32095,-2.51163" fill="none" stroke="#000000" stroke-width="3" stroke-linecap="round"/><path d="M329.66042,195.83652c0.16517,-1.37929 0.34321,-2.85557 0.47238,-4.55744c0.47731,-6.28876 -1.40055,-12.56035 -1.36566,-15.67721c0.04442,-3.96855 2.5458,-12.05263 2.5458,-12.05263" fill="none" stroke="#000000" stroke-width="3" stroke-linecap="round"/><path d="M308.33151,198.5865l3.57907,8.66513" fill="none" stroke="#000000" stroke-width="3" stroke-linecap="round"/><path d="M325.44201,206.62373l4.7721,-10.54886" fill="none" stroke="#000000" stroke-width="3" stroke-linecap="round"/><path d="M320.23037,214.2842l1.25581,43.57682l-11.67909,3.01395l-2.26047,-4.39535l7.66048,-5.02326" fill="none" stroke="#000000" stroke-width="3" stroke-linecap="round"/><path d="M315.96058,250.82845l10.17211,-0.37674" fill="none" stroke="#000000" stroke-width="3" stroke-linecap="round"/><path d="M312.19315,253.96799l2.13489,1.75814" fill="none" stroke="#000000" stroke-width="3" stroke-linecap="round"/><path d="M311.94197,256.6052l-1.88372,-1.38139" fill="none" stroke="#000000" stroke-width="3" stroke-linecap="round"/><path d="M328.51876,254.72148l3.01395,-1.50698" fill="none" stroke="#000000" stroke-width="3" stroke-linecap="round"/><path d="M334.42109,253.96799l-1.75815,1.50698" fill="none" stroke="#000000" stroke-width="3" stroke-linecap="round"/><path d="M308.31251,190.37501l4,-5.125" fill="none" stroke="#000000" stroke-width="3" stroke-linecap="round"/><path d="M325.06251,186.50001l4.5,1.875" fill="none" stroke="#000000" stroke-width="3" stroke-linecap="round"/><path d="M314.83333,189.66668v-10.11111h4v10.11111z" fill="#000000" stroke="none" stroke-width="0" stroke-linecap="butt"/><path d="M324.27779,184.72223c0,2.48528 -1.34314,4.5 -3,4.5c-1.65686,0 -3,-2.01472 -3,-4.5c0,-2.48528 1.34314,-4.5 3,-4.5c1.65686,0 3,2.01472 3,4.5z" fill="#000000" stroke="none" stroke-width="0" stroke-linecap="butt"/><path d="M314.66033,189.27671l5.01269,4.89104" fill="none" stroke="#000000" stroke-width="0.5" stroke-linecap="round"/><path d="M318.65801,195.20744c-3.78264,-4.41308 2.82119,-7.86517 4.94308,-4.53075c2.66095,4.18149 -3.19159,7.20659 -4.89262,4.53356z" fill="#000000" stroke="none" stroke-width="0.5" stroke-linecap="butt"/><path d="M323.4975,184.7125c0.6625,1.06 -0.3975,1.7225 -0.3975,1.7225l-1.92441,0.78726c-0.72317,-0.18311 -1.53185,-0.16215 -2.1695,-0.54932c-0.60853,-0.36948 -2.03173,-2.72403 -2.08875,-0.32433c0,0 -0.22361,1.22984 -1.45344,1.00623c-1.22984,-0.22361 -1.00623,-1.45344 -1.00623,-1.45344c0.5626,-2.22934 2.16507,-4.05662 4.84286,-2.74075c0.8655,0.4253 1.44533,1.47328 2.39889,1.61711l0.07559,-0.46274c0,0 1.06,-0.6625 1.7225,0.3975z" fill="#313131" stroke="none" stroke-width="0.5" stroke-linecap="butt"/><path d="M317.6875,194c-0.75,-1 0.25,-1.75 0.25,-1.75l1,-0.75c0,0 0.07409,-0.05557 0.19707,-0.11629c1.15173,-1.29906 2.24145,-1.23074 4.05293,-0.00871l0.56085,0.97972c0,0 0.39528,1.18585 -0.79057,1.58114c-0.97619,0.3254 -1.41665,-0.42067 -1.54189,-0.69466c-0.29893,-0.07279 -0.68352,-0.00138 -0.7607,0.24086c0,0 -0.38207,0.68773 -1.08559,0.66887l-0.1321,0.09908c0,0 -1,0.75 -1.75,-0.25zM321.60925,193.31718l0.07825,0.05782c-0.02288,-0.02133 -0.04921,-0.04062 -0.07825,-0.05782z" fill="#313131" stroke="none" stroke-width="0.5" stroke-linecap="butt"/><path d="M315.04438,192.80313c0.85916,-0.5155 1.44286,0.07087 1.64068,0.3239c0.16371,-0.09177 0.3026,-0.22398 0.37744,-0.37703c0,0 0.75,-1 1.75,-0.25c1,0.75 0.25,1.75 0.25,1.75c-0.73412,0.84325 -1.88493,1.41866 -3,1.5l-1.44687,-1.23188c0,0 -0.64312,-1.07187 0.42875,-1.71499zM316.38489,193.24162l-0.32239,0.00838c0.10232,0.01954 0.21277,0.01525 0.32239,-0.00838z" fill="#9b9b9b" stroke="none" stroke-width="0.5" stroke-linecap="butt"/></g></g></svg>