<svg version="1.1" xmlns="http://www.w3.org/2000/svg" xmlns:xlink="http://www.w3.org/1999/xlink" width="83.94313" height="133.52405" viewBox="0,0,83.94313,133.52405"><g transform="translate(-286.08328,-78.50764)"><g data-paper-data="{&quot;isPaintingLayer&quot;:true}" fill-rule="nonzero" stroke-linejoin="miter" stroke-miterlimit="10" stroke-dasharray="" stroke-dashoffset="0" style="mix-blend-mode: normal"><path d="M320.04245,139.6185c-0.37992,0.00439 -0.80929,-0.09342 -1.28639,-0.35032c-2.20118,-1.18525 -1.01593,-3.38643 -1.01593,-3.38643c0.47851,-0.88666 0.97287,-1.76438 1.47912,-2.63545c-0.00013,-0.01035 -0.00019,-0.02072 -0.00019,-0.0311c0,-0.32934 0.06368,-0.64381 0.17941,-0.93176l0.86865,-2.31639l0.1546,0.05798l0.00425,-0.40041c1.35889,-1.77366 2.7925,-3.44526 4.22128,-5.13345c1.02598,-1.61498 2.04625,-3.23386 3.03386,-4.87211l0.16968,-0.10868l-0.05237,-0.04364l2.9507,-3.54085c0.4585,-0.55817 1.15406,-0.91421 1.93278,-0.91421c0.04677,0 0.09325,0.00128 0.13939,0.00382c1.17534,-1.1583 2.42786,-2.29565 3.7751,-3.47085c0.90311,-0.78779 1.56189,-2.07127 2.72989,-2.33956c5.85339,-1.34455 12.92743,4.54014 15.90176,9.02718c1.43835,2.16988 1.434,4.81346 3.11373,6.90811c1.90875,2.38023 3.8688,4.31627 5.58938,6.91095c0.70515,1.75728 1.51371,3.48721 2.52143,5.09027l1.43154,2.00415c0.3034,0.41378 0.48258,0.92435 0.48258,1.47677c0,1.38071 -1.11929,2.5 -2.5,2.5c-0.09542,0 -0.18959,-0.00535 -0.28222,-0.01575l-2.92946,-0.29295l0.04117,-0.41169c-4.89013,0.14853 -9.58394,-0.51927 -14.71094,-0.76323c-5.33509,-0.25386 -10.68821,-0.03066 -16.02044,-0.29724c-2.26802,-0.11339 -10.73524,0.13177 -11.83973,-1.58127c-0.03017,-0.04679 -0.05766,-0.09409 -0.0826,-0.14189zM339.1912,129.58357c0.02921,-0.00778 0.05849,-0.01552 0.08783,-0.02322c-0.05486,-0.05945 -0.10963,-0.11881 -0.16431,-0.17805c0.02386,0.06694 0.04938,0.13405 0.07649,0.20127zM327.83349,135.75135c0.02504,-0.00144 0.05012,-0.0028 0.07524,-0.00411c-0.00978,-0.01526 -0.0194,-0.03064 -0.02885,-0.04613c-0.01547,0.0168 -0.03094,0.03354 -0.04639,0.05024z" fill="#ff0000" stroke="none" stroke-width="0.5" stroke-linecap="butt"/><path d="M316.84872,138.54847c0,-1.85279 1.37313,-2.33245 2.08409,-2.45662c0.0092,-0.27475 0.04949,-0.45604 0.04949,-0.45604c0.17998,-0.78984 0.3693,-1.54439 0.57314,-2.26949l-0.00607,-0.03641l0.01713,-0.00285c0.01413,-0.05004 0.02832,-0.09995 0.04259,-0.14971c-0.03433,-0.16814 -0.06162,-0.33824 -0.08099,-0.51053c-0.18091,-1.60971 1.05575,-3.06442 1.66306,-4.56611c2.97085,-7.34603 9.06499,-13.86003 15.77936,-17.89727l0.2845,-0.00914l-0.03043,-0.09128l2.61127,-0.87042c0.2642,-0.09499 0.54902,-0.14675 0.84593,-0.14675c1.38071,0 2.5,1.11929 2.5,2.5c0,0.48518 -0.13821,0.93808 -0.37741,1.32147l-1.75662,2.92769l-0.37022,-0.22213c-1.78971,4.23115 -4.19966,8.30601 -6.86981,11.97146c-0.92354,1.26779 -2.34748,2.39572 -2.96039,3.91155c-0.84888,2.09943 -0.40472,8.54623 -1.83144,9.80429c-1.47436,1.30007 -5.45318,0.14618 -7.27336,-0.26663l-2.39384,0.01493c0,0 -2.5,0 -2.5,-2.5zM325.40723,137.00972c-0.0681,-0.1606 -0.12838,-0.32192 -0.1812,-0.48387l-0.06414,0.19241c0.08181,0.06363 0.16693,0.17159 0.24534,0.29146zM332.43678,120.05116c-0.09748,0.09955 -0.19441,0.19966 -0.29077,0.30031c0.02403,0.03905 0.04701,0.07881 0.06892,0.11925c0.07368,-0.13999 0.14756,-0.27988 0.22185,-0.41955z" fill="#da0000" stroke="none" stroke-width="0.5" stroke-linecap="butt"/><path d="M318.31959,210.53169l0.84209,-70.73561" fill="none" stroke="#000000" stroke-width="3" stroke-linecap="round"/><path d="M327.58259,142.32235c0,0 11.50464,-32.33041 16.86687,-32.27397c7.3398,0.07726 23.13244,32.69501 23.13244,32.69501l-48.84125,-2.10523" fill="none" stroke="#000000" stroke-width="3" stroke-linecap="round"/><path d="M316.21436,142.32235c0,0 4.14586,-14.80956 8.80138,-20.75431c4.45862,-5.69331 18.56657,-14.19245 18.56657,-14.19245" fill="none" stroke="#000000" stroke-width="3" stroke-linecap="round"/><path d="M324.21422,120.42799l-14.31554,-18.52599" fill="none" stroke="#000000" stroke-width="3" stroke-linecap="round"/><path d="M287.58328,104.42827v-24.42062h35.78885v24.42063z" fill="#ffffff" stroke="#000000" stroke-width="3" stroke-linecap="butt"/><path d="M288.42537,80.84973l15.15763,13.8945l18.10495,-13.47345" fill="none" stroke="#000000" stroke-width="3" stroke-linecap="round"/><path d="M303.16195,94.32318v9.263" fill="none" stroke="#000000" stroke-width="3" stroke-linecap="round"/><path d="M341.05604,125.48054v7.57881" fill="none" stroke="#000000" stroke-width="3" stroke-linecap="round"/></g></g></svg>