<svg version="1.1" xmlns="http://www.w3.org/2000/svg" xmlns:xlink="http://www.w3.org/1999/xlink" width="818.68769" height="459" viewBox="0,0,818.68769,459"><g transform="translate(89.34384,49.5)"><g data-paper-data="{&quot;isPaintingLayer&quot;:true}" fill-rule="nonzero" stroke-linecap="butt" stroke-linejoin="miter" stroke-miterlimit="10" stroke-dasharray="" stroke-dashoffset="0" style="mix-blend-mode: normal"><path d="M728.34384,-48.5v457h-816.68769v-457z" data-paper-data="{&quot;index&quot;:null}" fill="#518836" stroke="#000000" stroke-width="2"/><path d="M235.5,400c0,0 20,-203.70397 20,-286c0,-55.95495 -20,-160 -20,-160h208c0,0 -42,281.93265 -42,364c0,49.79116 42,82 42,82z" fill="#cfa353" stroke="none" stroke-width="0"/><path d="M278.32188,60.49365c-2.49365,-0.17812 -2.31553,-2.67176 -2.31553,-2.67176l0.28753,-4.02541c0.71079,-9.95111 0.70612,-19.82197 0.70612,-29.79647c0,0 0,-2.5 2.5,-2.5c2.5,0 2.5,2.5 2.5,2.5c0,10.09318 0.00046,20.08273 -0.71882,30.1527l-0.28753,4.02541c0,0 -0.17812,2.49365 -2.67176,2.31553z" fill="#ff9c00" stroke="none" stroke-width="0.5"/><path d="M354,135c0,-1.3735 0.7546,-1.9924 1.43465,-2.27128c0.73651,-4.03803 0.49033,-7.85456 0.87328,-12.05585c0.61458,-6.74247 0.38036,-12.66536 -0.29552,-19.42411c0,0 -0.24876,-2.48759 2.23883,-2.73635c2.48759,-0.24876 2.73635,2.23883 2.73635,2.23883c0.70577,7.05772 0.94825,13.32923 0.29949,20.37768c-0.46252,5.02502 -0.15572,9.52938 -1.36033,14.47182l-3.42675,1.89926c0,0 -2.5,0 -2.5,-2.5z" fill="#ff9c00" stroke="none" stroke-width="0.5"/><path d="M281.5,258.5c-2.5,0 -2.5,-2.5 -2.5,-2.5l0.12829,-1.79057c3.22805,-9.46692 0.71195,-19.9339 1.92426,-29.66509c0.0238,-0.19105 1.93044,-9.70685 1.996,-10.03463c0,0 0.49029,-2.45145 2.94174,-1.96116c2.45145,0.49029 1.96116,2.94174 1.96116,2.94174c-0.63861,3.19303 -1.51485,6.34682 -1.92632,9.57698c-1.2962,10.17561 1.10413,20.76398 -2.15342,30.7233l0.12829,0.20943c0,0 0,2.5 -2.5,2.5z" fill="#ff9c00" stroke="none" stroke-width="0.5"/><path d="M353.56058,341.72677c0.68128,0.27794 1.43942,0.89651 1.43942,2.27323c0,2.5 -2.5,2.5 -2.5,2.5l-3.42536,-1.89366c-1.36439,-5.55734 -0.83763,-10.82368 -1.41765,-16.48772c-0.17883,-1.74635 -1.51576,-8.28008 -1.64848,-9.91242c-0.39294,-4.83282 0.47528,-9.69881 1.00677,-14.48228c0,0 0.27608,-2.48471 2.76079,-2.20863c2.48471,0.27608 2.20863,2.76079 2.20863,2.76079c-0.49233,4.43099 -1.37116,9.03933 -0.99323,13.51772c0.27894,3.3054 1.30158,6.51557 1.6395,9.81546c0.49375,4.8216 0.06571,9.4336 0.9296,14.11751z" fill="#ff9c00" stroke="none" stroke-width="0.5"/><path d="M26.10581,307.51376c2.48624,0.26196 2.22427,2.7482 2.22427,2.7482l-0.30809,2.02413c-2.46864,5.99761 -1.67815,12.27859 -1.67815,18.71391c0,0 0,2.5 -2.5,2.5c-2.5,0 -2.5,-2.5 -2.5,-2.5c0,-4.7528 -0.84518,-10.84986 0.04511,-15.47277c0.34499,-1.7914 1.3271,-3.39873 1.99065,-5.09809l-0.022,-0.6911c0,0 0.26196,-2.48624 2.7482,-2.22427z" fill="#00b904" stroke="none" stroke-width="0.5"/><path d="M63.84322,300.5c2.5,-0.00062 2.50062,2.49938 2.50062,2.49938l0.00001,0.03738c0.00119,6.63639 0.44052,13.14566 0.99136,19.75564c0,0 0.20761,2.49136 -2.28375,2.69898c-2.49136,0.20761 -2.69898,-2.28375 -2.69898,-2.28375c-0.56226,-6.74714 -1.00646,-13.39537 -1.00863,-20.16961l-0.00001,-0.03738c0,0 -0.00062,-2.5 2.49938,-2.50062z" fill="#00b904" stroke="none" stroke-width="0.5"/><path d="M107.63441,306.62829c2.37171,0.79057 1.58114,3.16228 1.58114,3.16228l-0.90399,2.60989c0.04813,5.36696 0.80024,9.78092 1.97275,15.05722c0,0 0.54233,2.44047 -1.89814,2.98279c-2.44047,0.54233 -2.98279,-1.89814 -2.98279,-1.89814c-1.31729,-5.9278 -2.07165,-10.89052 -2.02725,-16.94278l1.09601,-3.39011c0,0 0.79057,-2.37171 3.16228,-1.58114z" fill="#00b904" stroke="none" stroke-width="0.5"/><path d="M143.63441,301.62829c2.37171,0.79057 1.58114,3.16228 1.58114,3.16228l-0.90399,2.60989c0.04663,5.19977 0.03425,10.39958 0.03228,15.59954c-0.00106,2.79743 -1.05771,5.90155 0.2215,8.38938c0.63512,1.23519 2.03085,1.89524 3.04627,2.84285c0,0 1.76777,1.76777 0,3.53553c-1.76777,1.76777 -3.53553,0 -3.53553,0c-1.3416,-1.40941 -3.1677,-2.48131 -4.0248,-4.22822c-0.9207,-1.87654 -0.70669,-8.50793 -0.70743,-10.53955c-0.00201,-5.46699 -0.00782,-10.93361 0.03228,-16.40046l1.09601,-3.39011c0,0 0.79057,-2.37171 3.16228,-1.58114z" fill="#00b904" stroke="none" stroke-width="0.5"/><path d="M182.92829,300.74745c2.25255,1.08445 1.1681,3.337 1.1681,3.337l-0.78122,1.30675c-1.156,9.91831 -1.97133,19.62118 -1.97133,29.6088c0,0 0,2.5 -2.5,2.5c-2.5,0 -2.5,-2.5 -2.5,-2.5c0,-10.18099 0.82665,-20.07798 2.00495,-30.18764l1.2425,-2.89681c0,0 1.08445,-2.25255 3.337,-1.1681z" fill="#00b904" stroke="none" stroke-width="0.5"/><path d="M226.84385,111.5c2.5,0 2.5,2.5 2.5,2.5c0,10.33333 0,21.66667 0,32c0,0 0,2.5 -2.5,2.5c-2.5,0 -2.5,-2.5 -2.5,-2.5c0,-10.33333 0,-20.66667 0,-31v-1c0,0 0,-2.5 2.5,-2.5z" fill="#00b904" stroke="none" stroke-width="0.5"/><path d="M226.84385,48.5c2.5,0 2.5,2.5 2.5,2.5v4c0,5.95927 -0.89765,12.67436 -0.04012,18.55394c0.38958,2.67109 1.93314,5.04078 2.88094,7.56825c0,0 0.87781,2.34082 -1.46301,3.21863c-2.34082,0.87781 -3.21863,-1.46301 -3.21863,-1.46301c-1.05222,-2.80591 -2.66692,-5.46933 -3.11906,-8.43175c-0.94059,-6.16277 -0.04012,-13.19931 -0.04012,-19.44606v-4c0,0 0,-2.5 2.5,-2.5z" fill="#00b904" stroke="none" stroke-width="0.5"/><path d="M221.05146,-14.49136c2.49136,0.20761 2.28375,2.69898 2.28375,2.69898l-0.16955,2.03454c-0.63677,7.64129 -0.82182,15.09058 -0.82182,22.75784c0,0 0,2.5 -2.5,2.5c-2.5,0 -2.5,-2.5 -2.5,-2.5c0,-7.80377 0.19091,-15.39489 0.83909,-23.17307l0.16955,-2.03454c0,0 0.20761,-2.49136 2.69898,-2.28375z" fill="#00b904" stroke="none" stroke-width="0.5"/><path d="M433.84385,296.5c2.5,0 2.5,2.5 2.5,2.5v2c0,8.39566 -1.15985,17.2624 2.73607,24.88197c0,0 1.11803,2.23607 -1.11803,3.3541c-2.23607,1.11803 -3.3541,-1.11803 -3.3541,-1.11803c-0.80033,-1.63118 -1.89468,-3.14856 -2.40098,-4.89354c-1.98177,-6.83028 -0.86295,-15.23114 -0.86295,-22.2245v-2c0,0 0,-2.5 2.5,-2.5z" fill="#00b904" stroke="none" stroke-width="0.5"/><path d="M441.63441,227.62829c2.37171,0.79057 1.58114,3.16228 1.58114,3.16228l-0.90399,2.60989c0.06872,5.53353 -0.80366,11.69702 -0.00783,17.15348c0.38958,2.67109 1.93314,5.04078 2.88094,7.56825c0,0 0.87781,2.34082 -1.46301,3.21863c-2.34082,0.87781 -3.21863,-1.46301 -3.21863,-1.46301c-1.05222,-2.80591 -2.66692,-5.46933 -3.11906,-8.43175c-0.91014,-5.96327 -0.06521,-12.80317 -0.00783,-18.84652l1.09601,-3.39011c0,0 0.79057,-2.37171 3.16228,-1.58114z" fill="#00b904" stroke="none" stroke-width="0.5"/><path d="M501.63441,248.62829c2.37171,0.79057 1.58114,3.16228 1.58114,3.16228l-0.90461,2.61369c0.06797,7.70148 0.09362,15.3149 -0.99222,22.94929c0,0 -0.35355,2.47487 -2.82843,2.12132c-2.47487,-0.35355 -2.12132,-2.82843 -2.12132,-2.82843c1.10082,-7.67039 0.91296,-15.31745 1.00778,-23.05071l1.09539,-3.38631c0,0 0.79057,-2.37171 3.16228,-1.58114z" fill="#00b904" stroke="none" stroke-width="0.5"/><path d="M550.84385,272.5c2.5,0 2.5,2.5 2.5,2.5v3c0,10.14427 -0.71603,20.57061 0.96598,30.589c0,0 0.411,2.46598 -2.05499,2.87698c-2.46598,0.411 -2.87698,-2.05499 -2.87698,-2.05499c-1.70669,-10.31103 -1.03402,-20.97542 -1.03402,-31.411v-3c0,0 0,-2.5 2.5,-2.5z" fill="#00b904" stroke="none" stroke-width="0.5"/><path d="M585.39662,264.54033c2.45967,-0.44722 2.9069,2.01245 2.9069,2.01245l0.43125,2.37183c1.20739,6.64049 1.85946,13.22242 2.79591,19.88893c0.09531,0.67847 1.75743,9.45596 1.80306,9.96195c0.52427,5.81423 -1.05025,11.85593 0.88181,17.43394c0,0 0.79057,2.37171 -1.58114,3.16228c-2.37171,0.79057 -3.16228,-1.58114 -3.16228,-1.58114c-1.98549,-6.14138 -0.54784,-12.24078 -1.11819,-18.56606c-0.29565,-3.27876 -1.31671,-6.45539 -1.77465,-9.71545c-0.92743,-6.60224 -1.5682,-13.11397 -2.76387,-19.69001l-0.43125,-2.37183c0,0 -0.44722,-2.45967 2.01245,-2.9069z" fill="#00b904" stroke="none" stroke-width="0.5"/><path d="M594.84385,209.5c2.5,0 2.5,2.5 2.5,2.5c0,5 0,14 0,19c0,3.19987 -0.5145,6.43622 -0.03228,9.59954c0.45644,2.99422 1.9462,5.7365 2.90399,8.60989c0,0 0.79057,2.37171 -1.58114,3.16228c-2.37171,0.79057 -3.16228,-1.58114 -3.16228,-1.58114c-0.05813,-0.17439 -3.05683,-9.13568 -3.09601,-9.39011c-0.04224,-0.27433 -0.03228,-9.88922 -0.03228,-10.40046c0,-5 0,-10 0,-15v-4c0,0 0,-2.5 2.5,-2.5z" fill="#00b904" stroke="none" stroke-width="0.5"/><path d="M486.83602,300.50001c2.49999,-0.00782 2.5078,2.49217 2.5078,2.49217l0.00469,2.07111c0.19778,4.98709 1.06309,9.58402 1.95499,14.48949c0,0 0.44721,2.45967 -2.01246,2.90689c-2.45967,0.44721 -2.90689,-2.01246 -2.90689,-2.01246c-0.9332,-5.13261 -1.81185,-9.96011 -2.03147,-15.17955l-0.00885,-2.25985c0,0 -0.00782,-2.49999 2.49217,-2.5078z" fill="#00b904" stroke="none" stroke-width="0.5"/><path d="M456.92009,107.50116c2.49884,0.07625 2.42259,2.57509 2.42259,2.57509l-0.13649,2.79622c-1.38897,5.84686 -2.4413,11.70576 -3.39401,17.63747c-0.48353,3.01049 -1.77175,5.98324 -1.51267,9.02129c0.06387,0.74894 0.84922,1.24166 1.23426,1.88721c0.85375,1.43139 1.6538,2.89414 2.48069,4.34122c0,0 1.24035,2.17061 -0.93026,3.41096c-2.17061,1.24035 -3.41096,-0.93026 -3.41096,-0.93026c-1.46768,-2.56845 -3.93057,-4.83468 -4.28505,-7.77158c-0.13213,-1.09474 1.26181,-9.34791 1.48725,-10.75168c0.97211,-6.0533 2.04985,-12.03272 3.46601,-17.99972l0.00356,-1.79362c0,0 0.07625,-2.49884 2.57509,-2.42259z" fill="#00b904" stroke="none" stroke-width="0.5"/><path d="M487.84385,47.5c2.5,0 2.5,2.5 2.5,2.5c0,9.33333 0,22.66667 0,32c0,7.30261 -0.13378,14.25341 1.90381,21.3132c0,0 0.6868,2.40381 -1.71701,3.09061c-2.40381,0.6868 -3.09061,-1.71701 -3.09061,-1.71701c-2.1368,-7.54805 -2.09619,-14.89176 -2.09619,-22.6868c0,-9.33333 0,-18.66667 0,-28v-4c0,0 0,-2.5 2.5,-2.5z" fill="#00b904" stroke="none" stroke-width="0.5"/><path d="M461.84385,-8.5c2.5,0 2.5,2.5 2.5,2.5l-0.00001,2.00742c-0.00462,1.54341 0.00721,8.57403 -0.14121,9.88396c-0.75442,6.65862 -3.97667,12.89043 -4.88295,19.45538c-0.22455,1.62659 0.17597,3.29251 0.00924,4.92604c-0.32128,3.14776 -1.35821,6.18077 -2.0446,9.26953c0,0 -0.54233,2.44047 -2.98279,1.89814c-2.44047,-0.54233 -1.89814,-2.98279 -1.89814,-2.98279c0.64694,-2.91124 1.66272,-5.76261 1.9554,-8.73047c0.16598,-1.68316 -0.2284,-3.39942 0.00924,-5.07396c0.9263,-6.52729 4.12293,-12.71448 4.86619,-19.32284c0.11157,-0.99196 0.10652,-8.2719 0.10966,-9.33782l-0.00001,-1.99258c0,0 0,-2.5 2.5,-2.5z" fill="#00b904" stroke="none" stroke-width="0.5"/><path d="M535.84385,87.5c2.5,0 2.5,2.5 2.5,2.5c0,8.33333 0,18.66667 0,27c0,0 0,2.5 -2.5,2.5c-2.5,0 -2.5,-2.5 -2.5,-2.5c0,-8.33333 0,-16.66667 0,-25v-2c0,0 0,-2.5 2.5,-2.5z" fill="#00b904" stroke="none" stroke-width="0.5"/><path d="M547.1833,-17.11089c2.11089,1.33945 0.77144,3.45034 0.77144,3.45034l-2.25335,3.54402c-3.59231,7.35819 -6.5917,14.69459 -8.41845,22.665c-0.26637,1.1622 -0.89409,2.26005 -0.93909,3.45153c-0.09612,2.54493 1.30768,4.92295 1.92536,7.39366c0,0 0.60634,2.42536 -1.81902,3.0317c-2.42536,0.60634 -3.0317,-1.81902 -3.0317,-1.81902c-0.71571,-2.86285 -2.14532,-5.65623 -2.07464,-8.60634c0.03729,-1.55641 0.73115,-3.02694 1.06091,-4.54847c1.83165,-8.45134 5.1306,-16.24827 8.93332,-24.00967l2.39488,-3.78131c0,0 1.33945,-2.11089 3.45034,-0.77144z" fill="#00b904" stroke="none" stroke-width="0.5"/><path d="M575.84385,31.5c2.5,0 2.5,2.5 2.5,2.5l-0.12269,2.77356c-3.19077,9.79822 -5.88395,19.46503 -4.89604,29.92098c0.24898,2.63519 1.30211,5.13122 1.94409,7.69912c0,0 0.60634,2.42536 -1.81902,3.0317c-2.42536,0.60634 -3.0317,-1.81902 -3.0317,-1.81902c-0.69136,-2.76545 -1.77663,-5.46403 -2.05591,-8.30088c-1.1016,-11.18976 1.69203,-21.58562 5.10396,-32.07902l-0.12269,-1.22644c0,0 0,-2.5 2.5,-2.5z" fill="#00b904" stroke="none" stroke-width="0.5"/><path d="M614.84385,-31.5c2.5,0 2.5,2.5 2.5,2.5l-0.00227,1.10641c-0.4546,8.7355 -5.35674,16.9737 -7.14557,25.51228c-1.29287,6.17124 -0.91831,12.82559 0.11382,18.97031c0,0 0.411,2.46598 -2.05499,2.87698c-2.46598,0.411 -2.87698,-2.05499 -2.87698,-2.05499c-1.11842,-6.75981 -1.4969,-14.0333 -0.07561,-20.81754c0.13536,-0.64612 2.84991,-8.29641 3.14335,-9.29945c0.77798,-2.65928 1.12642,-5.44032 2.01951,-8.06318c0.81383,-2.39008 1.80408,-4.81357 1.881,-7.33724l-0.00227,-0.89359c0,0 0,-2.5 2.5,-2.5z" fill="#00b904" stroke="none" stroke-width="0.5"/><path d="M602.82001,73.69846c2.30154,0.97616 1.32538,3.27771 1.32538,3.27771l-0.67407,1.58929c-1.88497,4.43229 -3.15372,8.91804 -4.67463,13.4817c-2.33131,6.99536 -4.97615,13.63956 -5.45527,21.0628c-0.26767,4.14726 0.39084,8.45217 0.97729,12.5365c0,0 0.35355,2.47487 -2.12132,2.82843c-2.47487,0.35355 -2.82843,-2.12132 -2.82843,-2.12132c-0.62475,-4.39456 -1.30188,-9.00295 -1.02271,-13.4635c0.49504,-7.90964 3.22396,-14.97645 5.70701,-22.42404c1.56373,-4.69021 2.8855,-9.29211 4.81495,-13.85289l0.67407,-1.58929c0,0 0.97616,-2.30154 3.27771,-1.32538z" fill="#00b904" stroke="none" stroke-width="0.5"/><path d="M49.5,168v-109h44v109z" fill="#4a3b1e" stroke="#000000" stroke-width="2"/><path d="M6.5,86v-80h131v80z" fill="#69ff82" stroke="#000000" stroke-width="2"/><path d="M-3.5,96v-57h77v57z" fill="#69ff82" stroke="#000000" stroke-width="2"/><path d="M69.5,96v-58h74v58z" fill="#69ff82" stroke="#000000" stroke-width="2"/><path d="M17.5,10v-26h110v26z" fill="#69ff82" stroke="#000000" stroke-width="2"/><path d="M43.5,65v-49h51v49z" fill="#69ff82" stroke="#000000" stroke-width="2"/></g></g></svg>