<svg version="1.1" xmlns="http://www.w3.org/2000/svg" xmlns:xlink="http://www.w3.org/1999/xlink" width="733" height="431.57903" viewBox="0,0,733,431.57903"><g transform="translate(46.5,25.5)"><g data-paper-data="{&quot;isPaintingLayer&quot;:true}" fill-rule="nonzero" stroke="none" stroke-linecap="butt" stroke-linejoin="miter" stroke-miterlimit="10" stroke-dasharray="" stroke-dashoffset="0" style="mix-blend-mode: normal"><path d="M-46.5,385.5v-411h733v411z" fill="#000000" stroke-width="0"/><path d="M318.73223,117.23223c1.63775,-1.63775 3.2755,-0.24091 3.50755,-0.02658c2.31295,-0.55144 4.71069,-0.76952 7.07161,-1.076c8.67053,-1.12555 17.29456,-2.94923 26.03327,-3.62483c2.65018,-0.20489 5.32024,0.14861 7.97427,0.00174c3.81021,-0.21085 7.41668,-1.15877 11.27352,-1.1225c-0.64348,-1.50327 0.18406,-4.57202 -0.86022,-5.6163c-0.48163,-0.48163 -4.21683,-0.26786 -4.23223,-0.26777c-3.89595,0.02248 -6.85034,0.50324 -10.75366,0.98783c-5.71376,0.70936 -11.76502,1.38593 -17.45035,2.49813c-1.65673,0.3241 -3.16645,1.2389 -4.83114,1.51927c-1.61475,0.27195 -3.30664,-0.20641 -4.91096,0.12149c-1.56423,0.3197 -2.90988,1.34311 -4.44256,1.79023c-1.75063,0.51071 -3.54994,0.89443 -5.36499,1.07089c-1.15007,0.11181 -2.35148,-0.29775 -3.49357,-0.26976c0.12287,1.37731 0.13857,2.81491 0.30411,4.20259c0.05414,-0.06276 0.11251,-0.1256 0.17535,-0.18844zM310.5,115.5c-1.5,-2 0.5,-3.5 0.5,-3.5c0.33523,-0.24001 0.65869,-0.50291 0.97793,-0.77405c-3.53711,-0.45157 -7.91445,0.27405 -11.47793,0.27405c-26.5498,0 -52.68046,3.7856 -78.7039,8.99029c-0.31036,0.06207 -9.88599,1.98114 -10.04975,1.99754c-2.93523,0.29401 -5.93693,0.24585 -8.79633,0.97099c-1.75812,0.30687 -4.82576,-0.25888 -5.14031,1.49789c-0.46933,2.62123 0.1903,6.33553 0.1903,9.04329c0,3.56349 0.00013,7.12698 0.00015,10.69047c2.68125,0.00398 5.37265,0.18522 8.19439,-0.17174c0.09685,-0.01225 0.19402,-0.02472 0.29148,-0.03741c-0.0068,-0.00933 -0.01359,-0.01874 -0.02036,-0.02822c-1.4531,-2.03433 0.58124,-3.48743 0.58124,-3.48743c0.15467,-0.11048 7.13941,-5.15552 7.69015,-5.34641c2.76016,-0.95668 5.84169,-0.11926 8.76294,-0.11926c5.21704,0 10.00823,0.34546 15.16564,0.83294c2.18401,0.20643 4.37719,0.30148 6.57593,0.32728c6.96628,-1.54347 13.62732,-3.80646 20.72373,-4.81994c5.62284,-1.42889 11.28966,-2.7352 16.88804,-4.2552c4.36787,-1.1859 8.65525,-3.00895 13.05801,-4.01479c3.35458,-0.76637 6.84719,-0.69158 10.27184,-1.0267c2.70626,-0.26482 5.31785,-1.15099 7.98582,-1.67838c-0.42842,-1.29359 -0.7658,-2.5341 -1.02047,-4.44857c-0.71931,0.22548 -1.76973,0.25509 -2.64854,-0.91664zM325.69448,107.62189c1.66382,-0.49822 3.15326,-1.54276 4.85437,-1.89312c1.66099,-0.3421 3.41298,0.12786 5.08524,-0.15404c1.62232,-0.27347 3.08864,-1.18113 4.70342,-1.49604c5.83757,-1.13842 12.05071,-1.83916 17.91614,-2.56652c4.51845,-0.56033 10.01228,-2.01339 14.6468,-0.97989c1.52471,0.34002 3.26269,0.59533 4.36731,1.69995c2.9888,2.9888 1.58526,8.91284 1.13978,12.3837c-4.79745,1.24598 -9.73782,2.59409 -14.72648,2.8775c-2.67094,0.15174 -5.3587,-0.20771 -8.02573,0.00174c-5.98623,0.47011 -11.91741,1.48592 -17.84813,2.43284c0.12029,0.29307 0.19279,0.64629 0.19279,1.072c0,2.5 -2.5,2.5 -2.5,2.5l-1.39366,-0.07464c-2.51633,0.62853 -4.93242,1.73154 -7.50678,2.04723c-1.96387,0.24082 -3.95352,0.08215 -5.93864,-0.00582c3.33668,11.24911 7.31709,22.91501 8.17328,34.51357c5.66463,-2.92223 11.9652,-4.28689 18.31711,-5.0812c3.53128,-0.44159 8.46945,-1.35928 11.92308,-0.33225c6.89458,2.05027 14.80033,8.98645 18.51788,15.06475c4.60415,7.52791 5.99353,15.27701 7.34859,23.84485c0.02621,4.72863 -0.00366,11.23352 -2.1922,15.61604c-1.43685,2.87725 -4.55202,5.83171 -7.29189,8.22803c1.21373,2.25031 2.98386,4.21782 4.22817,6.4645c3.27037,5.90487 5.8782,12.15644 8.55888,18.33946c2.93429,6.76798 6.79986,14.02973 8.656,21.17482c2.10012,8.08426 3.11393,16.63115 4.57127,24.85403c4.2417,23.93333 5.42331,48.53189 5.52128,72.81025c0.02308,5.72047 0.11534,10.06876 -1.69752,15.54328c-0.73906,2.23183 -1.91139,7.0534 -4.27735,8.47988c-1.66881,1.00616 -3.81367,0.80317 -5.72051,1.20475c-1.94503,-4.83526 -4.17659,-9.36057 -6.50518,-14.01775l-0.52786,-1.05573c0,0 -1.11803,-2.23607 1.11803,-3.3541c2.23607,-1.11803 3.3541,1.11803 3.3541,1.11803l0.52786,1.05573c1.96101,3.92202 4.67543,7.40739 4.43909,11.87079c1.3031,-3.70775 3.68077,-7.22626 4.32765,-11.23322c0.50955,-3.15632 -0.02538,-6.39432 -0.03828,-9.59147c-0.03353,-8.30798 -0.20663,-16.55223 -0.69446,-24.84561c-0.93013,-15.81256 -1.98313,-31.49978 -4.75013,-47.11226c-1.42673,-8.05014 -2.425,-16.4032 -4.4476,-24.32524c-1.76888,-6.9283 -5.59946,-14.02753 -8.44376,-20.58718c-2.61549,-6.03195 -5.15124,-12.1375 -8.34136,-17.89854c-0.33019,-0.5963 -2.15437,-3.49137 -3.54782,-5.74683c-6.51195,5.37583 -13.66332,9.98575 -21.19561,13.79004c8.29175,12.76118 16.97849,25.48286 22.26103,39.84261c4.16047,11.30959 6.27281,22.73802 7.77367,34.62441c1.12639,8.95971 1.17833,18.1179 1.65299,27.13651c0.9465,17.98349 2.05772,36.17741 -2.33398,53.74465l-5.19312,0.16143c0,0 -1.76777,-1.76777 0,-3.53553c0.33695,-0.33695 0.67389,-0.54544 0.9986,-0.66222c3.13384,-14.56308 2.58136,-29.5726 1.79821,-44.45244c-0.55475,-10.54032 -0.55525,-21.29666 -1.88331,-31.76603c-1.45158,-11.4961 -3.47026,-22.50607 -7.47841,-33.45231c-5.20561,-14.21647 -13.90075,-26.78981 -22.10952,-39.41605c-1.14182,0.53318 -2.3017,1.03573 -3.48215,1.46925c0.67896,2.66336 0.42069,6.03491 0.42435,8.04757c0.01092,6.00687 0.34695,12.15471 -0.00428,18.1463c-0.38983,6.64992 -1.63562,13.26329 -2.11386,19.91758c-0.95793,13.30462 -1.79391,26.62452 -2.87431,39.91968c-0.53694,6.6074 -1.60525,13.22674 -1.97695,19.83865c-0.56965,10.13328 1.95006,21.40683 -1.76283,30.94555l-3.9772,1.60394c0,0 -2.37171,0.79057 -3.16228,-1.58114c-0.79057,-2.37171 1.58114,-3.16228 1.58114,-3.16228l2.0228,-0.39606c1.63729,-8.90919 -0.20274,-18.63654 0.30625,-27.69066c0.37406,-6.65396 1.44517,-13.31391 1.98549,-19.963c1.07916,-13.27985 1.91397,-26.58446 2.87079,-39.87377c0.79391,-11.00719 2.10523,-21.64503 2.10523,-32.70482c0,-3.23152 0.03638,-6.46307 0.01873,-9.69454c-0.0038,-0.6951 0.36065,-1.54175 0.07538,-2.13354c-0.40268,0.06646 -0.80788,0.12053 -1.21569,0.16089c-0.14469,0.08797 -0.28943,0.15634 -0.42762,0.16761c-0.16079,0.01311 -9.63683,-0.01057 -9.87501,0.0014c-13.07477,0.65677 -25.87742,1.99962 -39.01006,1.99732c-2.48467,0.13132 -4.96796,0.2454 -7.45029,0.34453c0.13038,1.10903 0.36054,2.22325 0.75628,3.36577l0.12829,1.79057c0,0 0,2.5 -2.5,2.5c-2.5,0 -2.5,-2.5 -2.5,-2.5l0.12829,-0.20943c-0.50257,-1.55451 -0.82574,-3.14775 -1.03713,-4.76599c-5.39064,0.1737 -10.77811,0.28395 -16.16671,0.35393c0.42628,1.26334 1.89139,5.66333 1.94725,5.83092l0.39606,0.0228c0,0 1.76777,1.76777 0,3.53553c-1.76777,1.76777 -3.53553,0 -3.53553,0l-1.60394,-1.9772c-0.64799,-1.94396 -1.13771,-3.94749 -1.93799,-5.83386c-0.22198,-0.52324 -0.5061,-1.02299 -0.79659,-1.5196c-7.28959,0.06103 -14.58395,0.06289 -21.89371,0.06289c-7.04481,0 -14.77761,-0.80295 -21.97349,-0.0265c0.47349,0.70201 0.47349,1.5265 0.47349,1.5265c-0.00632,9.56938 1.70935,18.97139 3.16517,28.40172c3.0464,19.73358 7.52001,39.25533 11.03609,58.91125c1.11001,6.24821 3.26763,12.20595 5.15906,18.25854c4.50679,14.42173 9.86905,28.5963 14.28635,43.04197c0.25555,-0.07644 0.55075,-0.11843 0.89175,-0.11319c2.4997,0.03842 2.46128,2.53813 2.46128,2.53813l-0.13179,8.57422c-0.01799,1.36522 -1.13029,2.46639 -2.49978,2.46639c-1.14027,0 -2.10224,-0.7634 -2.4027,-1.80699l-1.47754,-4.71715l0.00863,-0.0027l-0.01788,-0.02747c-4.66544,-16.33391 -10.82188,-32.24151 -15.89073,-48.46182c-1.95602,-6.25927 -4.14567,-12.40997 -5.30854,-18.86948c-3.52313,-19.69529 -8.00166,-39.2557 -11.05565,-59.02865c-1.49643,-9.6886 -3.2176,-19.33392 -3.22374,-29.16475c0,0 0,-0.08164 0.01475,-0.2154c-5.07916,1.66135 -10.1617,1.7154 -15.51475,1.7154c-0.88274,0 -1.75411,-0.00202 -2.61598,-0.00831c-1.66241,3.09218 -0.6389,5.64887 -0.88885,9.66366c-0.02553,0.41006 -0.85507,6.78572 -1.01241,8.13775c-2.28712,19.65316 -1.67023,39.48759 3.52764,58.58689c3.45536,9.22201 6.07185,19.02934 9.92909,28.06185c1.77485,4.15617 4.52997,7.89229 6.34146,12.03479c1.09143,2.49588 1.2508,5.44391 2.82099,7.66992c2.60855,3.69806 6.23605,6.25154 10.32335,7.83617l4.20903,1.09911c0,0 2.41819,0.63432 1.78387,3.05251c-0.63432,2.41819 -3.05251,1.78387 -3.05251,1.78387l-4.5062,-1.18699c-5.18113,-2.12175 -9.6693,-5.11521 -12.96142,-9.87774c-1.68997,-2.44478 -1.99019,-5.60618 -3.17901,-8.33008c-1.82029,-4.17079 -4.59018,-7.93172 -6.37784,-12.1179c-3.91667,-9.17169 -6.59123,-19.12432 -10.08926,-28.49018c-5.41002,-19.79666 -6.10631,-40.33173 -3.73471,-60.70838c0.12064,-1.03655 0.97965,-7.73472 0.98759,-7.86225c0.03502,-0.56256 -0.07591,-8.42934 0.08646,-9.49021c-5.83716,-0.26499 -11.41387,-0.99726 -17.38186,-2.98274l-3,-1c0,0 -2.37171,-0.79057 -1.58114,-3.16228c0.07671,-0.23013 0.16831,-0.43049 0.27118,-0.60469c-0.32247,0.16684 -0.61538,0.35572 -0.751,0.67357c-0.57485,1.34726 -0.32584,2.92554 -0.73152,4.33301c-0.48532,1.68379 -1.26261,3.2696 -1.92715,4.89104c-2.0184,4.92479 -4.1891,9.60446 -5.02682,14.92631c-2.43315,15.45722 -0.96297,31.96879 -0.96297,47.57132c0,9.45728 -0.87883,19.38256 -0.00852,28.7938c0.601,6.49904 2.49734,12.78585 4.22737,19.04209c1.49054,5.39019 2.86538,10.72914 6.12386,15.39435c2.24343,3.21195 6.61901,4.96054 9.90299,6.77306l1.46331,0.80849c0,0 2.18822,1.20901 0.97921,3.39723c-1.20901,2.18822 -3.39723,0.97921 -3.39723,0.97921l-1.46331,-0.80849c-4.01558,-2.22086 -8.71506,-4.29112 -11.48406,-8.14829c-3.69099,-5.14147 -5.28769,-11.07373 -6.94391,-17.06291c-1.81402,-6.55982 -3.76683,-13.1477 -4.39119,-19.96233c-0.87546,-9.55523 -0.00852,-19.60655 -0.00852,-29.2062c0,-15.8949 -1.46332,-32.68491 1.03703,-48.42868c0.90139,-5.67575 3.16064,-10.72014 5.32866,-15.97095c1.31285,-3.17965 1.45381,-6.79865 2.98584,-9.87868c0.92332,-1.85627 2.76225,-3.00751 4.54568,-4.19444c-0.48247,-0.24796 -0.85333,-0.47002 -1.04025,-0.64298c-3.61995,-3.34965 -5.61372,-8.31157 -7.28033,-12.75362c-1.09313,-2.91355 -2.98683,-5.57871 -3.52862,-8.64305c-0.06259,-0.354 -0.04801,-9.85406 -0.04801,-10.48758c0,-6.88105 0.0655,-13.67088 4.50547,-19.50727c2.49106,-3.27453 7.60401,-6.16945 11.0954,-8.14403c1.03085,-0.58301 1.97007,-1.39424 3.10856,-1.72041c1.75939,-0.50404 3.62791,-0.48611 5.44187,-0.72916c8.20038,-1.02489 16.13105,-1.70868 24.32713,-1.09099c-0.37862,-0.45794 -0.77839,-1.00959 -1.20135,-1.66418c-1.02285,-1.58301 -1.23192,-7.91999 -1.27648,-10.0893c-0.04029,-1.96156 -0.05911,-3.92456 -0.06504,-5.88827c-0.2151,0.0626 -0.43009,0.13089 -0.64499,0.20532c0,0 -2.37171,0.79057 -3.16228,-1.58114c-0.79057,-2.37171 1.58114,-3.16228 1.58114,-3.16228c0.75114,-0.24284 1.49503,-0.42494 2.2341,-0.56071c0.01864,-3.69052 0.05647,-7.38132 0.05647,-11.06759c0,-2.8408 -0.80981,-8.48555 0.1903,-10.95671c1.61344,-3.98661 5.21457,-3.70532 8.66549,-4.46327c3.06252,-0.74899 6.26006,-0.76088 9.39786,-1.06785c3.23577,-0.31656 6.37378,-1.28716 9.56186,-1.92478c26.34175,-5.26835 52.80924,-9.08739 79.68448,-9.08739c3.32859,0 6.67301,-0.07957 10,0c1.32005,0.03157 2.76852,-0.38566 3.95671,0.1903c0.94911,0.46007 1.65726,1.02918 2.18898,1.67964c2.92999,-0.63725 6.15595,0.1182 9.04879,-0.74805zM306.67646,127.5192c-3.19427,0.32057 -6.4601,0.1869 -9.5878,0.91051c-4.3613,1.00902 -8.61181,2.80892 -12.94199,3.98521c-4.99877,1.35791 -10.05185,2.54931 -15.08225,3.79757c1.56488,0.0527 3.12596,0.14748 4.68194,0.29968c4.36697,0.42716 7.73087,0.98762 12.15411,1.02011c1.92354,0.64118 4.00022,0.66533 6,1c1.19194,0.19948 2.37003,0.45875 3.54849,0.72455c0.29402,-0.15556 0.58804,-0.31113 0.88206,-0.46669l0.40123,-0.55791c0,0 1.76777,-1.76777 3.53553,0c0.7492,0.7492 0.86336,1.49841 0.74619,2.11304c0.54221,0.07002 1.08892,0.12479 1.64139,0.15956c4.24318,0.26704 8.58973,-0.00483 12.84466,-0.00483h3c0,0 0.51612,0 1.07935,0.23451c-1.29535,-5.0202 -2.37937,-10.10369 -3.83658,-15.07913c-3.04475,0.4833 -5.99704,1.55579 -9.06632,1.86382zM228.0709,144.43394c-2.44605,0.49344 -4.68521,1.75117 -7.1078,2.34921c-4.40292,1.08689 -9.65801,2.14162 -14.15764,2.69812c-1.90111,0.23512 -3.78303,0.17684 -5.65044,0.11014c0.70693,3.96241 0.86297,7.28 0.84498,11.40859c-0.00494,1.13353 0.33924,2.32953 -0.03228,3.40046c-0.50591,1.4583 -1.0405,2.80147 -1.66259,3.7646c0.9825,0.05563 1.95659,0.15227 2.88984,0.44344c0.31339,0.09778 8.68329,4.74319 9.21819,5.03967c7.11232,3.94212 15.64048,8.96828 19.96168,16.42983c3.10565,-3.29825 7.21592,-5.90203 10.43931,-8.92405c4.07245,-3.81804 8.14123,-7.66729 12.26321,-11.46159c-4.67259,-2.62587 -9.31772,-5.28015 -14.03481,-7.59033c-2.75743,-1.35044 -5.53925,-2.6681 -8.40991,-3.75732c-2.45068,-0.92986 -5.42332,-0.27905 -7.70548,-1.56831c-1.68396,-0.95132 -2.79661,-2.67242 -4.19492,-4.00864c0,0 -1.76777,-1.76777 0,-3.53553c1.76777,-1.76777 3.53553,0 3.53553,0c0.95872,1.02081 1.6652,2.35901 2.87615,3.06243c0.81775,0.47502 1.89672,0.07486 2.82609,0.24991c1.4857,0.27985 2.98001,0.58467 4.39737,1.11071c3.03656,1.127 5.96633,2.53134 8.87485,3.95659c5.27814,2.58642 10.46709,5.61816 15.70784,8.55013c9.3203,-8.40407 18.9965,-16.39758 29.66788,-23.01195c-1.19464,-0.13947 -2.38312,-0.30392 -3.5184,-0.68234c-4.24904,0.03801 -7.64183,-0.55828 -11.84589,-0.97989c-9.02527,-0.9051 -18.23673,0.15263 -27.3607,0.14833c-5.87355,1.27092 -11.94062,1.61132 -17.82205,2.79778zM219.76478,141.92887c1.41178,-0.34851 2.76287,-0.91467 4.12767,-1.42819c-0.13051,-0.00045 -0.26133,-0.00068 -0.39246,-0.00068c-2.41268,0 -4.96959,-0.94364 -7.23706,-0.11926c-1.78572,0.64923 -3.18606,2.01133 -4.63476,3.29032c2.77657,-0.50446 5.58627,-1.11262 8.1366,-1.74219zM318.5,145.5h-3c-4.35924,0 -8.80751,0.26851 -13.15534,-0.00483c-2.09831,-0.13192 -4.13369,-0.53556 -6.15135,-0.97594c-0.31139,0.16469 -0.62278,0.32938 -0.93417,0.49408c-11.33468,6.44054 -22.06314,14.65719 -32.01854,23.50794c4.29875,2.31034 8.65726,4.45624 13.15167,6.1434c6.77955,2.54499 14.32616,4.26478 21.33949,6.15985c0.84534,0.80258 1.69068,1.60516 2.53602,2.40773l1,1c0,0 1.76777,1.76777 0,3.53553c-1.76777,1.76777 -3.53553,0 -3.53553,0l-1,-1c-0.48799,-0.53076 -0.97599,-1.06151 -1.46398,-1.59227c-6.78275,-1.51648 -14.17219,-3.40002 -20.66051,-5.84015c-5.23516,-1.96884 -10.2866,-4.54213 -15.27319,-7.27455c-3.26857,3.01717 -6.44775,6.08866 -9.53125,9.17143c-4.95734,4.95615 -11.07601,8.91297 -15.08725,14.57195c0.51984,1.87636 0.88583,3.80228 1.23732,5.71524c0.82669,4.49912 0.84187,5.8084 0.91416,10.34685c0.02634,1.65415 0.59147,3.42156 -0.00909,4.96306c-0.71485,1.83487 -2.47617,3.06262 -3.71425,4.59394c-1.24419,1.45155 -2.49511,2.89473 -3.76645,4.31278c0.32875,0.48228 0.68855,0.82715 1.07897,0.95426c2.23323,0.72711 4.69467,-0.1903 7.04329,-0.1903c3.87703,0 7.93953,0.32751 11.7938,0.00852c3.30386,-0.27344 6.51242,-1.29328 9.80952,-1.63889c4.99623,-0.52371 9.96735,-0.96639 14.93929,-1.32312c0.11128,-0.75308 0.54709,-1.76261 2.0464,-2.0125c1.86546,-0.31091 2.55494,1.02456 2.78012,1.69343c6.06854,-0.36668 12.1508,-0.60312 18.29388,-0.7004c3.91888,-0.56131 7.90831,-0.81648 11.85523,-1.21015c-0.93906,-1.0937 -1.80702,-2.26255 -2.61345,-3.48984c-1.52706,-2.32399 -3.7668,-4.4158 -4.30941,-7.14315c-0.72831,-3.66075 0.15266,-7.43343 0.71504,-11.01263c0.70521,-4.48823 0.76508,-10.23254 2.33094,-14.49998c1.65573,-4.51239 4.83779,-8.15856 8.12642,-11.4746c3.42064,-3.42064 6.85225,-7.78354 10.71779,-10.68585c-0.16807,-6.2339 -1.76752,-12.49126 -3.40182,-18.52798c-0.71107,1.01713 -2.08373,1.01713 -2.08373,1.01713zM229.38197,200.23607c-2.23607,-1.11803 -1.11803,-3.3541 -1.11803,-3.3541c0.25804,-0.5075 0.49101,-1.03046 0.72258,-1.55429c-0.93837,-2.14488 -2.16409,-4.17832 -3.76433,-6.07013c-4.33948,-5.13014 -9.4637,-8.03852 -15.23292,-11.2362c-2.76805,-1.53423 -5.26232,-3.69716 -8.28348,-4.63976c-1.43092,-0.44645 -2.98709,-0.25497 -4.47935,-0.39647c-8.65023,-0.8202 -16.85268,-0.20004 -25.45495,0.87541c-5.66243,0.64598 -12.64003,3.87448 -16.27695,8.64675c-3.74882,4.91911 -3.49453,10.72621 -3.49453,16.49273c0,3.17085 -0.58342,6.3871 -0.04801,9.51242c0.48053,2.80497 2.31907,5.20204 3.3091,7.87011c1.39626,3.76286 2.93621,7.8112 5.88195,10.73321c1.60639,1.59345 4.18436,1.72342 6.28544,2.56307c0,0 2.32119,0.92848 1.39272,3.24967c-0.92848,2.32119 -3.24967,1.39272 -3.24967,1.39272c-0.12366,-0.04951 -0.63659,-0.24301 -1.34563,-0.51853c-0.07617,0.07684 -0.12543,0.11789 -0.12543,0.11789c-1.04082,0.86735 -2.06742,1.75213 -3.11449,2.61184c0.70025,-0.10555 1.3046,0.0959 1.3046,0.0959l3,1c6.80713,2.27372 13.0107,2.7505 19.81173,2.84762c0.24051,-0.04338 0.50295,-0.04701 0.78478,0.00958c1.18304,0.01211 2.38528,0.01451 3.61292,0.01451c4.0754,0 7.97662,0.02915 11.85318,-0.87584c0.55801,-0.80389 1.54048,-1.04951 1.54048,-1.04951c1.13822,-0.27945 2.29351,-0.50575 3.4621,-0.68784c6.81627,-3.06928 12.22927,-7.85105 17.1994,-13.17211c-0.61245,-1.7662 -1.03852,-3.56858 -1.45897,-5.02789c0,0 -0.6868,-2.40381 1.71701,-3.09061c2.40381,-0.6868 3.09061,1.71701 3.09061,1.71701c0.08932,0.31554 0.25737,1.11733 0.50256,2.10777c0.64986,-0.7473 1.29625,-1.49883 1.94154,-2.25166c0.93122,-0.99954 2.27467,-1.73495 2.79366,-2.99863c0.39946,-0.97262 -0.21567,-2.0927 -0.27142,-3.14268c-0.08596,-1.61877 -0.01425,-3.24566 -0.15356,-4.86071c-0.19553,-2.26683 -0.51046,-4.48196 -1.0149,-6.62113c-0.3852,0.02041 -0.82511,-0.06278 -1.31972,-0.31009zM279.99711,233.88439c0.01889,1.01597 0.0001,1.99764 -0.01747,2.95869c2.48375,-0.09856 4.96848,-0.21189 7.45464,-0.34221c13.09329,-0.00223 25.85422,-1.33799 38.89068,-1.99275c0.00785,-0.00039 0.86072,-0.00171 2.06843,-0.00324l-0.31874,-0.89853c0,0 -0.60634,-2.42536 1.81902,-3.0317c2.42536,-0.60634 3.0317,1.81902 3.0317,1.81902l0.07326,2.10639c0.81203,-0.00065 1.56236,-0.0011 2.15461,-0.00121c2.74114,-0.70467 5.41795,-1.56976 8.03166,-2.5782c-0.27203,-0.6843 -0.55409,-2.05805 0.97292,-3.02979c2.10915,-1.34219 3.45134,0.76696 3.45134,0.76696c0.06469,0.10166 0.12944,0.20331 0.19424,0.30494c7.88688,-3.6462 15.17199,-8.57751 21.89244,-14.28226c-0.59065,-2.87582 -1.57098,-7.80865 -1.64729,-8.1902c0,0 -0.49029,-2.45145 1.96116,-2.94174c2.45145,-0.49029 2.94174,1.96116 2.94174,1.96116c0.3697,1.84849 0.53691,3.75521 0.85305,5.61839c1.81274,-1.66 3.58703,-3.51275 4.44685,-5.22062c1.78216,-3.53994 1.73937,-9.18827 1.70653,-13.01859c-1.2469,-7.74021 -2.42416,-14.70021 -6.55015,-21.52053c-3.00047,-4.95981 -9.84593,-11.23343 -15.48212,-12.93525c-2.89285,-0.87348 -7.15641,0.05285 -10.15414,0.4274c-6.56762,0.82059 -13.11785,2.23353 -18.77148,5.76875l0.00001,0.37072c0,0 0,2.5 -2.5,2.5c-0.43528,0 -0.79477,-0.07579 -1.09167,-0.20097c-3.04461,2.67614 -5.82622,6.1544 -8.60503,8.9332c-2.75827,2.73226 -5.55295,5.83905 -6.94465,9.59647c-1.46978,3.96825 -1.44646,9.44473 -2.10943,13.62239c-0.34693,2.18614 -1.26014,6.50179 -0.84459,8.865c0.3961,2.25258 2.4533,3.86077 3.69107,5.78404c1.3016,2.02246 2.82327,3.87318 4.62407,5.40862c0.98878,-0.21046 1.87686,-0.83311 2.87977,-0.97646c2.20143,-0.31466 4.50856,-0.17615 6.60989,-0.90399l1.79057,-0.12829c0,0 2.5,0 2.5,2.5c0,2.5 -2.5,2.5 -2.5,2.5l-0.20943,-0.12829c-1.42206,0.45975 -2.911,0.63564 -4.40725,0.77888c6.06755,1.89923 12.10508,1.14391 18.30659,0.36872c0,0 2.48069,-0.31009 2.79078,2.17061c0.31009,2.48069 -2.17061,2.79078 -2.17061,2.79078c-7.43709,0.92964 -14.74565,1.67234 -22.00447,-1.1051c-1.78639,-0.68352 -3.4163,-1.56221 -4.90906,-2.60224c-5.39392,0.74853 -10.92385,0.96759 -16.33735,1.73796c-5.93245,0.10554 -12.05538,-0.19322 -18.00469,0.18346c0.24375,2.05635 0.40416,4.12227 0.44259,6.18961zM267.76062,229.48638c-3.63426,0.43008 -7.18817,0.44463 -10.8004,0.86202c-0.12766,2.35841 -0.50188,4.74116 -0.2061,7.0528c5.98945,-0.06737 11.97678,-0.18058 17.96809,-0.37075c-0.09483,-2.90478 -0.05677,-5.84359 -0.25144,-8.74211c-2.23554,0.4036 -4.45504,0.93118 -6.71015,1.19805zM237.5,231.5c-0.01572,0 -8.3302,0.08007 -8.95671,-0.1903c-1.01106,-0.43632 -1.84482,-1.11107 -2.54303,-1.93669c-2.73959,2.83156 -5.61904,5.49119 -8.76144,7.82796c4.80279,0.0153 9.63443,0.29903 14.26117,0.29903c6.84946,0 13.68503,-0.00279 20.51576,-0.05451c-0.01649,-1.86723 -0.0184,-4.55887 -0.01759,-6.40788c-4.82891,0.54074 -9.5785,0.46239 -14.49817,0.46239z" fill="#ffffff" stroke-width="0.5"/><path d="M294.87171,216.79057c-0.79057,2.37171 -3.16228,1.58114 -3.16228,1.58114l-3.72691,-1.38494c-2.19289,-3.08782 -5.6391,-7.99621 -9.27309,-9.61506c-1.58669,-0.70683 -3.47243,0.12829 -5.20943,0.12829c-4.17174,0 -8.23568,-0.45287 -12.20943,0.87171c-1.12668,0.37556 -2.2114,0.95082 -3.39011,1.09601c-0.65766,0.08101 -1.4103,-0.83949 -1.93868,-0.43961c-0.55326,0.41871 0.07882,1.44218 -0.21599,2.07027c-0.62711,1.33607 -1.44072,2.61946 -2.47802,3.66939c-1.68982,1.71039 -5.6178,3.44968 -7.64973,4.4683c0,0 -2.23607,1.11803 -3.3541,-1.11803c-1.11803,-2.23607 1.11803,-3.3541 1.11803,-3.3541c0.99555,-0.49638 5.22636,-2.42824 6.35027,-3.5317c1.68393,-1.6533 1.41581,-4.84744 3.30599,-6.26034c1.09066,-0.81526 2.72644,-0.17076 4.06132,-0.43961c0.90255,-0.18178 1.73646,-0.61285 2.60989,-0.90399c4.55484,-1.51828 9.03971,-1.12829 13.79057,-1.12829c0.78215,0 6.4028,-0.03383 6.79057,0.12829c4.22477,1.76629 8.38337,6.54117 10.72691,10.38494l2.27309,0.61506c0,0 2.37171,0.79057 1.58114,3.16228z" fill="#ffffff" stroke-width="0.5"/><text transform="translate(163.5,55) scale(0.5,0.5)" font-size="40" xml:space="preserve" fill="#ffffff" fill-rule="nonzero" stroke="none" stroke-width="1" stroke-linecap="butt" stroke-linejoin="miter" stroke-miterlimit="10" stroke-dasharray="" stroke-dashoffset="0" font-family="Pixel" font-weight="normal" text-anchor="start" style="mix-blend-mode: normal"><tspan x="0" dy="0">is this all there is?</tspan></text></g></g></svg>