<svg version="1.1" xmlns="http://www.w3.org/2000/svg" xmlns:xlink="http://www.w3.org/1999/xlink" width="825.82583" height="480.48048" viewBox="0,0,825.82583,480.48048"><g transform="translate(6.24625,23.90691)"><g data-paper-data="{&quot;isPaintingLayer&quot;:true}" fill-rule="nonzero" stroke-linejoin="miter" stroke-miterlimit="10" stroke-dasharray="" stroke-dashoffset="0" style="mix-blend-mode: normal"><path d="M-6.24625,456.57357v-480.48048h825.82583v480.48048z" fill="#000000" stroke="none" stroke-width="0" stroke-linecap="butt"/><path d="M213.5,321v-255h185v255z" fill="none" stroke="#ffffff" stroke-width="2" stroke-linecap="butt"/><path d="M230.5,289v-198h143v198z" fill="none" stroke="#ffffff" stroke-width="2" stroke-linecap="butt"/><path d="M280.5,316v-29h30v29z" fill="none" stroke="#ffffff" stroke-width="2" stroke-linecap="butt"/><path d="M282.5,78h47" fill="none" stroke="#ffffff" stroke-width="2" stroke-linecap="round"/><path d="M266.5,72l4,13" fill="none" stroke="#ffffff" stroke-width="2" stroke-linecap="round"/><text transform="translate(235.25,181.618) scale(0.44644,0.44644)" font-size="40" xml:space="preserve" fill="#ffffff" fill-rule="nonzero" stroke="none" stroke-width="1" stroke-linecap="butt" stroke-linejoin="miter" stroke-miterlimit="10" stroke-dasharray="" stroke-dashoffset="0" font-family="Sans Serif" font-weight="normal" text-anchor="start" style="mix-blend-mode: normal"><tspan x="0" dy="0">wake up you lil-</tspan></text><path d="M355.5,253.66667c0,5.41597 2.71017,11.34398 -15.2649,14.48322c-12.57456,2.19608 -44.29301,2.51678 -55.7351,2.51678c-27.79833,0 -29.66667,-7.79525 -29.66667,-17c0,-9.20475 2.20167,-13.33333 30,-13.33333c10.41666,0 38.61607,0.24639 50.21633,1.4557c19.35668,2.0179 20.45034,6.12212 20.45034,11.87764z" fill="#ffb900" stroke="none" stroke-width="0" stroke-linecap="butt"/><text transform="translate(257.5,257.73758) scale(0.29161,0.29161)" font-size="40" xml:space="preserve" fill="#000000" fill-rule="nonzero" stroke="none" stroke-width="1" stroke-linecap="butt" stroke-linejoin="miter" stroke-miterlimit="10" stroke-dasharray="" stroke-dashoffset="0" font-family="Sans Serif" font-weight="normal" text-anchor="start" style="mix-blend-mode: normal"><tspan x="0" dy="0">YOU BETTER NO-</tspan></text><text transform="translate(378.83333,247.66667) scale(0.5,0.5)" font-size="40" xml:space="preserve" fill="#000000" fill-rule="nonzero" stroke="none" stroke-width="1" stroke-linecap="butt" stroke-linejoin="miter" stroke-miterlimit="10" stroke-dasharray="" stroke-dashoffset="0" font-family="Sans Serif" font-weight="normal" text-anchor="start" style="mix-blend-mode: normal"><tspan x="0" dy="0">i'm</tspan></text><text transform="translate(246.16667,131.16667) scale(0.74558,0.74558)" font-size="40" xml:space="preserve" fill="#ffffff" fill-rule="nonzero" stroke="none" stroke-width="1" stroke-linecap="butt" stroke-linejoin="miter" stroke-miterlimit="10" stroke-dasharray="" stroke-dashoffset="0" font-family="Sans Serif" font-weight="normal" text-anchor="start" style="mix-blend-mode: normal"><tspan x="0" dy="0">6:40 AM</tspan></text><path d="M426.25375,156.59309l107,-52" fill="none" stroke="#ffffff" stroke-width="2" stroke-linecap="round"/><path d="M447.25375,203.59309l105,-11" fill="none" stroke="#ffffff" stroke-width="2" stroke-linecap="round"/><path d="M452.25375,250.59309l100,66" fill="none" stroke="#ffffff" stroke-width="2" stroke-linecap="round"/><text transform="translate(52.25375,35.59309) scale(0.97511,0.5)" font-size="40" xml:space="preserve" fill="#ffffff" fill-rule="nonzero" stroke="none" stroke-width="1" stroke-linecap="butt" stroke-linejoin="miter" stroke-miterlimit="10" stroke-dasharray="" stroke-dashoffset="0" font-family="Sans Serif" font-weight="normal" text-anchor="start" style="mix-blend-mode: normal"><tspan x="0" dy="0">but my phone keeps on ringin</tspan></text></g></g></svg>