<svg version="1.1" xmlns="http://www.w3.org/2000/svg" xmlns:xlink="http://www.w3.org/1999/xlink" width="42.54958" height="43.32448" viewBox="0,0,42.54958,43.32448"><g transform="translate(-298.72521,-158.33779)"><g data-paper-data="{&quot;isPaintingLayer&quot;:true}" fill-rule="nonzero" stroke-linejoin="miter" stroke-miterlimit="10" stroke-dasharray="" stroke-dashoffset="0" style="mix-blend-mode: normal"><path d="M340.26711,200.34425l-40.21785,0.31033l-0.31636,-40.99878l40.21785,-0.31033z" data-paper-data="{&quot;index&quot;:null}" fill="#2d2d2d" stroke="#000000" stroke-width="2" stroke-linecap="butt"/><path d="M305.58758,185.68655v-17.05962h29.21705v17.05962z" fill="none" stroke="#ffffff" stroke-width="0.5" stroke-linecap="butt"/><path d="M316.59722,185.27878l-10.66137,8.67786l6.06041,-8.76322l-4.31392,6.66698l8.03959,-6.47089" fill="none" stroke="#ffffff" stroke-width="1" stroke-linecap="round"/><path d="M307.94063,173.9213" fill="none" stroke="#ffffff" stroke-width="0.5" stroke-linecap="round"/><path d="M308.52889,175.68609l5.09828,-3.33349" fill="none" stroke="#ffffff" stroke-width="0.5" stroke-linecap="round"/><path d="M323.23546,172.15651l-3.92175,4.31393l-4.51002,-4.7061l-1.96087,1.96087" fill="none" stroke="#ffffff" stroke-width="0.5" stroke-linecap="round"/><path d="M319.31371,174.50955l7.25524,-4.7061l4.11783,6.86306" fill="none" stroke="#ffffff" stroke-width="0.5" stroke-linecap="round"/><path d="M312.25455,184.11785l-2.94131,-4.90219" fill="none" stroke="#ffffff" stroke-width="0.5" stroke-linecap="round"/><path d="M311.77671,184.58409l5.5373,-5.86789l1.73557,4.38025" fill="none" stroke="#ffffff" stroke-width="0.5" stroke-linecap="round"/><path d="M328.47125,178.30297l0.49588,0.66117l-0.49588,-0.49588l-4.62819,5.37201l-3.3885,-5.20671l-0.90911,4.71084" fill="none" stroke="#ffffff" stroke-width="0.5" stroke-linecap="round"/><path d="M331.7771,177.88973" fill="none" stroke="#ffffff" stroke-width="0.5" stroke-linecap="round"/><path d="M331.61181,181.77412l-0.33059,-5.95053" fill="none" stroke="#ffffff" stroke-width="0.5" stroke-linecap="round"/><path d="M332.60356,183.84027c0,0.50208 -0.40701,0.90911 -0.9091,0.90911c-0.50209,0 -0.90911,-0.40703 -0.90911,-0.90911c0,-0.50208 0.40702,-0.90911 0.90911,-0.90911c0.50209,0 0.9091,0.40702 0.9091,0.90911z" fill="none" stroke="#ffffff" stroke-width="0.5" stroke-linecap="butt"/><path d="M305.39571,184.28377l0.39605,-16.53504l-0.29704,17.52516l0.19802,-17.92121" fill="none" stroke="#ffffff" stroke-width="1" stroke-linecap="round"/><path d="M308.16805,169.1349l26.53528,0.19802l-0.28155,16.16026l-29.91794,-0.08265" fill="none" stroke="#ffffff" stroke-width="1" stroke-linecap="round"/><path d="M305.69274,169.43193l3.36642,-0.29704" fill="none" stroke="#ffffff" stroke-width="1" stroke-linecap="round"/></g></g></svg>