<svg version="1.1" xmlns="http://www.w3.org/2000/svg" xmlns:xlink="http://www.w3.org/1999/xlink" width="611" height="328" viewBox="0,0,611,328"><g transform="translate(-14.5,-16)"><g data-paper-data="{&quot;isPaintingLayer&quot;:true}" fill-rule="nonzero" stroke-linejoin="miter" stroke-miterlimit="10" stroke-dasharray="" stroke-dashoffset="0" style="mix-blend-mode: normal"><path d="M15.5,343v-326h609v326z" fill="#ffffff" stroke="#000000" stroke-width="2" stroke-linecap="butt"/><path d="" fill="#ffffff" stroke="#000000" stroke-width="2" stroke-linecap="butt"/><path d="M23.25,284.75v-248h590v248z" fill="#ffffff" stroke="#000000" stroke-width="2" stroke-linecap="butt"/><text transform="translate(23.25,306.75) scale(0.5,0.5)" font-size="40" xml:space="preserve" fill="#000000" fill-rule="nonzero" stroke="none" stroke-width="1" stroke-linecap="butt" stroke-linejoin="miter" stroke-miterlimit="10" stroke-dasharray="" stroke-dashoffset="0" font-family="Sans Serif" font-weight="normal" text-anchor="start" style="mix-blend-mode: normal"><tspan x="0" dy="0">Skibidi player</tspan></text><text transform="translate(26.25,322.44108) scale(0.28884,0.28884)" font-size="40" xml:space="preserve" fill="#000000" fill-rule="nonzero" stroke="none" stroke-width="1" stroke-linecap="butt" stroke-linejoin="miter" stroke-miterlimit="10" stroke-dasharray="" stroke-dashoffset="0" font-family="Sans Serif" font-weight="normal" text-anchor="start" style="mix-blend-mode: normal"><tspan x="0" dy="0">Jan 18 2025</tspan></text><text transform="translate(97.25,323.90654) scale(0.28972,0.31308)" font-size="40" xml:space="preserve" fill="#000000" fill-rule="nonzero" stroke="none" stroke-width="1" stroke-linecap="butt" stroke-linejoin="miter" stroke-miterlimit="10" stroke-dasharray="" stroke-dashoffset="0" font-family="Sans Serif" font-weight="normal" text-anchor="start" style="mix-blend-mode: normal"><tspan x="0" dy="0">999D views</tspan></text><text transform="translate(25.25,337.33921) scale(0.27558,0.27558)" font-size="40" xml:space="preserve" fill="#000000" fill-rule="nonzero" stroke="none" stroke-width="1" stroke-linecap="butt" stroke-linejoin="miter" stroke-miterlimit="10" stroke-dasharray="" stroke-dashoffset="0" font-family="Sans Serif" font-weight="normal" text-anchor="start" style="mix-blend-mode: normal"><tspan x="0" dy="0">RandomLifeGameBrainrot TV Entertainment</tspan></text><path d="M350.84379,143.15756l-0.14272,0.14157l-0.09538,0.18447l-0.53955,0.64755l-0.19872,0.15007l-0.15365,0.20813l-0.69935,0.60019l-0.17134,0.08666l-0.13967,0.14548l-1.08726,0.69962c0.24204,0.02696 0.48401,0.0509 0.7258,0.07138c3.04643,0.25797 6.20455,0.03358 9.29213,0.08135c0.25155,-0.84888 0.50311,-1.69773 0.75466,-2.5466l-0.80444,-0.22582c0,0 -1.33502,-0.39561 -0.87561,-1.94589c0.4594,-1.55028 1.79442,-1.15467 1.79442,-1.15467l0.79841,0.24621c3.89648,-13.14864 7.79304,-26.29726 11.6891,-39.446c2.02029,-6.81947 3.68688,-13.61072 4.93314,-20.53246c0.36866,-2.04757 0.25004,-4.14023 0.63692,-6.18512c0.62532,-3.30513 1.34713,-5.63884 1.07748,-9.00646c-0.24853,-3.10398 -1.02192,-6.72658 -3.07835,-8.85749c-0.42111,-0.43635 -1.00142,-0.65332 -1.41825,-1.09484c-1.49464,-1.58312 -1.62273,-2.36572 -3.67683,-2.94246c-6.11514,-1.40356 -11.44232,0.56587 -17.17701,3.73985c-2.96385,1.6404 -6.23998,3.24859 -9.002,5.32579c-5.5966,4.20901 -10.30606,9.68176 -14.77173,15.35016c0.10676,0.1149 0.20607,0.26445 0.29266,0.4569c0.61915,1.37594 -0.64969,2.19241 -0.64969,2.19241l-1.79632,0.6362c-0.10893,-0.03228 -0.21787,-0.06456 -0.3268,-0.09684c-0.68431,0.88773 -1.36561,1.77538 -2.04635,2.6589c-3.93771,7.00065 -7.31183,14.08637 -10.70044,21.41117c-2.66562,5.76196 -5.54521,11.55015 -7.66242,17.57027c-1.25813,3.5774 -2.03645,7.26173 -2.79284,10.95678c2.91164,1.04958 5.75868,2.37059 8.59976,3.48075v-0.00001c5.15402,2.01395 10.53678,3.41941 15.83489,4.99479c1.67979,0.49949 3.35354,1.02631 5.03315,1.53125l-0.15473,-0.27423l-0.0346,-0.12328l-0.0754,-0.09437l-0.94328,-2.09626l-0.06474,-0.33881l-0.13685,-0.30413l-0.20445,-1.06989l0.01005,-0.31603l-0.06508,-0.30061l0.00517,-0.60405l0.04035,-0.17881l-0.01774,-0.17817l0.09406,-0.79657l0.00364,-0.42566l0.02504,-0.11096l-0.01569,-0.1094l0.06015,-0.7896l0.10154,-0.34267l0.02694,-0.35363l1.27864,-4.31484l-0.00158,-0.00533l0.0091,-0.02005l0.08857,-0.29889l0.27803,-0.50877l0.2407,-0.53025l0.1828,-0.24468l0.01051,-0.01923l0.00501,-0.00154l0.666,-0.89143l0.28516,-0.24175l0.06686,-0.08545l-0.06193,-1.94992l0.06426,-0.34773l-0.01172,-0.3481l0.28011,-1.53187l0.57068,-1.38009l2.43125,-1.11041l1.91009,1.73967l0.04952,1.46998l-0.098,0.53595c0.11496,0.09609 0.22055,0.20365 0.316,0.32096c0.07605,0.01391 0.15193,0.03199 0.22742,0.05436c0.20751,0.06149 0.39977,0.15177 0.57474,0.26624l0.03798,-0.00071l0.04768,0.05966c0.34237,0.24764 0.61241,0.59118 0.79292,0.99233v0l0.64166,1.42596l0.63857,0.95319l0.95983,1.11725l1.10075,0.97116l1.03614,0.62199l1.25933,0.55697l0.01381,0.01153l0.01747,0.00261l1.20781,0.55721l2.7381,1.21099l1.53034,0.6537l0.01119,0.00909l0.01406,0.00187l1.25629,0.55563l2.26422,0.67097l0.26165,0.16794l0.36775,0.10898l0.07426,0.17473l0.39172,0.25144l0.19148,1.12083l0.41376,0.97356l-0.19116,0.32947l0.06267,0.36683l-0.74168,0.80353l-0.58407,1.00671l-0.46136,0.12591l-0.13312,0.14422l-0.38746,-0.00215l-0.30815,0.0841l-0.41695,-0.00232l-0.09541,0.02314l-0.03004,0.0313l-0.91204,0.58687l-0.55024,0.47223l-0.17134,0.08666l-0.13967,0.14549l-0.75581,0.48635l-0.74691,0.57998zM337.39816,136.04154l-0.16588,1.66997l-0.0348,0.10837l0.0055,0.11158l-0.10346,0.61871l0.34038,0.7564l0.49097,0.68206l0.18099,0.19171l0.39015,0.22147l0.84063,0.40865l3.01506,0.89347l0.49275,0.06126l0.41153,-0.21471l2.43127,-1.56446l-1.26025,-0.77253l-0.05337,-0.05754l-0.07159,-0.02499l-2.44162,-1.73283l-0.03022,-0.03704l-0.04262,-0.01688l-2.54643,-1.96575l-0.08894,-0.11789l-0.12396,-0.0685l-1.29946,-1.28574zM341.57961,148.3088l-0.43352,0.02241l-0.43115,0.09406l-0.85397,-0.05121l-0.23456,-0.08385l-0.25154,-0.0014l-2.87636,-0.85237l-0.29644,-0.19029l-0.33031,-0.11196l-0.19772,-0.13773c-3.13723,-0.80521 -6.22234,-1.81335 -9.32852,-2.73697c-5.36257,-1.59456 -10.80658,-3.02295 -16.02399,-5.05971c-0.93445,-0.36479 -1.87521,-0.76142 -2.82284,-1.16741c-0.56143,0.47921 -1.26528,0.27064 -1.26528,0.27064l-1.06843,-0.31661c-3.05437,-0.9064 -6.01551,-1.87108 -8.90573,-3.20555c-0.22858,0.10084 -0.4616,0.17929 -0.69411,0.23241c-1.55408,0.35504 -3.32011,-0.81874 -4.94467,-1.41625c-0.56212,2.51289 -0.96839,5.05743 -1.39597,7.60166c0.12559,0.38651 0.21756,0.66376 0.25334,0.7578c0.71277,1.87296 1.59922,3.64249 2.39791,5.4643c2.76456,6.30599 4.91236,13.10786 8.10912,19.13423c1.83317,3.4558 4.16158,6.5554 6.37179,9.68334c5.26694,7.33983 11.16807,13.80385 16.92308,20.61944c6.26146,7.41537 12.79043,14.86208 21.03659,19.53213c2.24859,1.2765 4.50202,3.03576 6.86282,4.04776c3.14571,1.34847 6.53367,2.60229 9.8197,3.57446c1.322,0.3911 2.55578,1.29744 3.95304,1.21654c5.08472,-0.2944 10.04217,-3.03496 14.30946,-6.26456c0.16292,-0.12331 0.32529,-0.24383 0.48666,-0.36324c0.13321,-0.48854 1.54573,-5.2468 1.6899,-5.73333c0.70587,-2.38201 1.58375,-4.645 2.42594,-6.92384c-0.09981,-0.27847 -0.37615,-1.27845 0.49009,-1.98165c-0.14649,-0.68406 -0.365,-1.35851 -0.21217,-2.04798c0.27563,-1.2435 0.62784,-3.11755 1.73124,-3.38499c0.13692,-0.03318 0.27051,-0.04271 0.40074,-0.03152c0.00131,-0.00441 0.0026,-0.00882 0.00391,-0.01323c-0.41417,-0.88993 -0.82927,-1.77391 -0.83921,-2.78584c-0.00795,-0.81044 0.38635,-2.16943 1.0729,-3.20166c-0.25239,-1.4674 -0.46604,-2.95147 -0.92277,-4.33204c-0.91322,-2.76038 -2.45262,-5.42712 -3.62812,-8.03944c-4.64357,-10.31946 -10.98751,-19.31803 -16.50168,-28.99373l-0.80044,-0.2372c-1.43325,-0.42472 -3.09597,-1.24604 -4.59018,-1.38126c-0.16854,-0.01525 -0.33749,-0.02901 -0.50677,-0.04141c-0.14516,0.48987 -0.29033,0.97975 -0.4355,1.46961l-0.36752,1.24022c0,0 -0.4594,1.55028 -1.79442,1.15467c-1.33502,-0.39561 -0.87561,-1.94589 -0.87561,-1.94589c0.07705,-0.26002 0.52163,-1.76027 0.59868,-2.02029c-2.92445,-0.01708 -5.90142,0.15777 -8.78225,-0.08619c-2.07715,-0.17589 -4.16527,-0.59495 -6.22815,-1.00728zM394.11396,216.28816c0.20779,0.07599 1.25526,0.53453 0.84057,1.93394c-0.4594,1.55028 -1.79441,1.15467 -1.79441,1.15467l-1.34345,-0.89206c-0.0678,-0.15227 -0.13244,-0.30565 -0.19429,-0.46002c-0.46245,3.0313 -1.20332,6.00297 -2.78939,8.93641c-0.89733,1.81408 -2.41928,5.4833 -4.01519,6.81945c-0.6172,0.51674 -1.46846,0.45747 -2.13247,0.88603c-1.38741,0.89546 -2.50551,2.39953 -3.98383,3.04246c-2.35259,1.02316 -6.22383,1.81274 -8.6512,1.77163c-2.30302,-0.039 -5.02686,-1.4592 -7.20283,-2.10401c-7.43039,-2.20188 -14.1287,-5.40243 -21.01839,-8.99623c-6.51571,-3.64547 -14.06684,-5.62655 -19.96225,-10.52878c-3.63522,-3.02281 -6.69574,-6.885 -10.25661,-10.04136c-2.50559,-2.22097 -4.68455,-5.12744 -6.47086,-8.15375c-0.00145,-0.00245 -0.00414,-0.00768 -0.00799,-0.01551c-0.03323,0.16594 -0.06553,0.33194 -0.09652,0.49802c-0.28352,1.51992 0.01214,3.06859 -0.20809,4.5962c-0.09195,0.63783 -0.45481,1.22294 -0.55128,1.86032c-0.53716,3.54926 0.40808,7.18705 -0.28035,10.77405c-0.89844,4.68128 -2.43471,9.33705 -2.96518,14.1086c-0.58865,5.29494 -0.17549,10.67011 -0.33549,15.93728c0.77557,1.76136 1.96988,3.59005 -0.10815,5.93978c-0.70265,0.79451 -1.90372,-0.04207 -2.83515,-0.19158c-1.52478,-0.24476 -2.79402,-1.32449 -4.21342,-1.93134c-1.69153,-0.7232 -3.55538,-0.93741 -5.28387,-1.56018c-5.38485,-1.94012 -10.622,-4.49695 -16.11354,-6.12155c-1.60223,-0.47401 -3.24973,-0.81172 -4.80605,-1.4242c-1.0054,-0.39566 -2.38547,-0.35638 -2.94547,-1.36678c-0.4646,-0.83828 0.27153,-2.05587 0.48511,-3.07242c0.37765,-1.79742 1.07438,-3.62759 1.60771,-5.38861c0.25478,-3.34424 1.75514,-6.16383 2.21218,-9.39884c0.19479,-1.37876 0.23361,-2.79054 0.6249,-4.13234c0.48795,-1.67328 1.3506,-3.61124 1.59748,-5.32755c0.90456,-6.28836 0.37256,-12.89538 1.60855,-19.18944c0.37989,-1.93449 1.27801,-3.75124 1.66509,-5.68454c0.42178,-2.10659 0.6526,-4.25103 1.21031,-6.32868c0.63862,-4.34254 2.01266,-8.4263 3.26206,-12.64247c2.0179,-6.80951 4.11884,-13.60261 6.05596,-20.43539c0.69264,-2.44317 1.1746,-4.91831 1.60701,-7.39895c-0.40402,-1.38345 -0.74411,-2.80109 -1.3192,-4.08761c-0.44613,-0.99806 -1.27367,-1.74421 -1.59985,-2.80875c-0.24612,-0.80325 0.11192,-4.46655 0.16958,-5.22727c0,0 0.1219,-1.59993 1.52847,-1.59212c0.02175,0.00012 0.04314,0.00062 0.06417,0.00149c0.03682,-0.1147 0.0701,-0.22848 0.09822,-0.34101c0.52245,-2.09091 1.22507,-4.13406 1.8376,-6.2011c3.23306,-10.91015 6.84536,-21.81141 9.63506,-32.84104c1.0169,-4.02049 1.8806,-7.9795 3.06168,-11.96513c0.11394,-0.38451 0.91164,-3.104 1.47561,-4.94305c-0.25389,-0.34874 -0.44918,-0.91633 -0.056,-1.71265c0.40665,-0.82357 0.97844,-0.95144 1.39428,-0.90953c0.3686,-0.32948 0.77337,-0.62507 1.12203,-0.97321c0,0 1.12278,-1.07047 1.97875,0.11865c0.71411,0.99204 0.051,1.9015 -0.18841,2.1757c2.11003,0.88325 4.296,1.46207 6.533,2.11974c0.27567,-0.93026 0.55133,-1.86051 0.827,-2.79077l0.55128,-1.86033c0.25372,-0.85619 1.0571,-1.37316 1.79441,-1.15467c0.36865,0.10925 0.65098,0.38168 0.80944,0.73381l0.7005,1.5567l-0.02034,0.01309c0.02563,0.04162 0.0507,0.08377 0.07517,0.12647c0.30003,0.52345 0.09031,1.32194 0.36849,1.86185c0.17854,0.34655 0.60676,0.41322 0.91014,0.61984l1.92811,0.54959c0,0 1.33502,0.39561 0.87561,1.94589c-0.12097,0.40822 -0.30266,0.68152 -0.50469,0.86264c1.61757,0.47925 3.23514,0.95845 4.8527,1.43771c5.0176,-6.46226 10.28795,-12.7774 16.63351,-17.54967c2.87634,-2.16319 6.27261,-3.85108 9.35942,-5.55782c6.37632,-3.52556 12.30277,-5.51799 19.08633,-4.00721c2.40928,0.74146 3.1164,1.80867 4.83272,3.6266c0.96007,1.0169 2.11433,1.84589 2.85519,3.08054c2.01943,3.36543 2.79385,7.97921 2.59749,12.16096c-0.10396,2.2139 -0.85347,4.38715 -1.27352,6.58176c-0.39059,2.04068 -0.27076,4.12992 -0.63492,6.17451c-0.67618,3.79659 -1.45758,7.64708 -2.23814,11.44548c-0.64756,3.15119 -1.87007,6.37212 -2.78539,9.46179c-3.96196,13.37114 -7.92442,26.74211 -11.88679,40.11312c2.24811,1.84196 4.16362,3.8386 5.74116,6.61805c1.3761,2.43886 2.64465,4.99875 4.07983,7.38892c3.4181,5.69256 7.40778,10.95338 10.42451,16.97471c1.33823,2.67108 2.48327,5.51542 3.71701,8.25719c0.10599,0.23552 2.47581,5.4948 2.51363,5.60943c0.45851,1.38961 0.69711,2.87346 0.9532,4.34939c0.12696,0.04478 0.25621,0.10388 0.38758,0.17848c1.12442,0.63844 0.94048,2.50199 0.48643,4.2833c0.31265,1.56168 0.63406,3.18608 0.63752,3.27646c0.00531,0.13893 -0.24164,2.24764 -0.46127,4.08781c0.11561,0.66352 0.23111,1.32837 0.36081,1.98673c0.68477,-2.90344 1.49922,-5.46956 1.07793,-8.59241l0.43203,-1.97529c0,0 0.45939,-1.55027 1.79441,-1.15466c1.33502,0.39561 0.87562,1.94588 0.87562,1.94588l-0.30301,0.50515c0.27435,2.56692 0.14081,4.60504 -0.24376,7.15748c-0.2393,1.58829 -1.04336,3.06734 -1.31736,4.65157c-0.18948,1.09559 -0.33678,2.18133 -0.46479,3.25807c0.59902,1.81166 0.94369,3.71213 1.64855,5.47648zM388.33679,219.97115c-0.63533,-0.18827 -1.01429,-0.86119 -0.94463,-1.59155l0.17299,-2.27073c-0.27364,-0.58153 -0.51986,-1.17469 -0.74829,-1.77556c-0.57857,1.21246 -1.21822,2.35338 -1.92821,3.35337c-0.41762,0.5882 -0.83171,1.07284 -1.25485,1.50023c-0.13229,0.4129 -0.26151,0.8239 -0.38628,1.23265l-0.19071,0.17442l0.06774,0.05229l-1.06551,1.67106c-0.35549,0.58376 -0.99988,0.89371 -1.60042,0.71575c-0.35529,-0.10528 -0.6304,-0.36214 -0.79172,-0.69582c-3.8449,2.7497 -7.40784,4.32575 -11.87024,5.3757c-1.04113,0.24496 -2.07735,0.67542 -3.12557,0.71507c-1.61227,0.061 -3.06495,-0.86241 -4.59106,-1.31538c-3.37502,-1.00175 -6.8758,-2.28153 -10.10498,-3.67906c-2.43695,-1.05466 -4.7592,-2.83936 -7.08334,-4.15856c-8.49888,-4.83501 -15.25213,-12.43596 -21.71297,-20.09247c-5.80647,-6.88106 -11.76007,-13.40677 -17.07602,-20.81501c-2.28461,-3.23319 -4.68042,-6.44078 -6.57452,-10.01333c-3.2301,-6.09244 -5.40737,-12.95401 -8.20212,-19.32745c-0.01844,-0.04204 -0.53686,-1.2241 -1.09265,-2.492c-0.2423,1.12521 -0.51342,2.2459 -0.82896,3.35929c-1.94188,6.85178 -4.04877,13.66361 -6.07223,20.49189c-1.22018,4.11757 -2.56603,8.09751 -3.18546,12.33773c-0.55834,2.0703 -0.78119,4.20924 -1.20614,6.30824c-0.3923,1.93769 -1.28197,3.76122 -1.66823,5.69993c-0.32771,1.64488 -0.28619,3.32466 -0.36581,4.98607c-0.15349,3.2024 -0.46801,6.29142 -0.99956,9.41009c-0.25962,1.52323 0.01902,3.06926 -0.20809,4.59621c-0.37449,2.51773 -1.85075,4.933 -2.20513,7.44132c-0.09501,0.67252 0.08433,1.3467 -0.01727,2.01857c-0.49996,3.30605 -1.97409,6.12753 -2.23263,9.52095c-0.37986,1.30523 -0.76246,2.60967 -1.14869,3.91304c-0.18376,0.62011 -0.27917,1.27627 -0.55128,1.86033c-0.13002,0.27906 -0.83174,0.48282 -0.61745,0.64825c0.35121,0.27112 0.89447,-0.16724 1.32658,-0.10082c1.65541,0.25442 3.20424,0.94875 4.80605,1.4242c2.35307,0.69844 4.49558,1.85704 6.79901,2.68813c2.52329,0.9104 4.99265,1.50309 7.4622,2.59532c2.40429,1.06337 4.99091,1.47158 7.39481,2.49133c0.8573,0.36367 1.59648,0.99291 2.44201,1.38565c0.48135,0.22357 1.07119,0.16636 1.52114,0.45514c0.22143,0.14211 0.43885,1.03904 0.36889,0.75788c-0.22225,-0.89329 -0.73257,-1.63758 -1.10707,-2.45101c-0.04107,-5.59307 -0.33795,-11.40162 0.28856,-17.03704c0.54016,-4.85863 2.05753,-9.60915 3.00413,-14.37231c0.69862,-3.51538 -0.23994,-7.14169 0.25993,-10.65194c0.09084,-0.63795 0.45612,-1.22281 0.55128,-1.86032c0.23392,-1.56728 -0.05184,-3.15663 0.22853,-4.71832c0.29031,-1.61704 0.78572,-3.21725 0.90582,-4.84616l0.01657,-1.93614c-0.00218,-0.17887 0.02252,-0.36369 0.07708,-0.5478c0.25372,-0.85619 1.05711,-1.37314 1.79441,-1.15465c0.53294,0.15793 0.88548,0.65687 0.94416,1.24469l0.3036,2.55018c1.45361,3.02016 3.04125,5.96333 5.13508,8.43132c1.8248,2.15088 4.39149,3.58933 6.35054,5.58943c1.96316,2.00432 3.7129,4.36571 5.85678,6.15616c5.73554,4.79001 13.18764,6.71432 19.55094,10.25012c6.74263,3.51711 13.2871,6.65155 20.55871,8.80639c1.97818,0.5862 4.59345,1.99351 6.68133,2.01035c2.12506,0.01713 5.38495,-0.69494 7.43807,-1.55533c1.34081,-0.56189 2.30607,-2.01118 3.56135,-2.81643c0.55625,-0.35682 1.27555,-0.23778 1.8066,-0.64494c0.38062,-0.29181 0.48541,-0.88325 0.74615,-1.31224c0.87414,-1.43819 1.6803,-2.92787 2.429,-4.447c0.98864,-1.79643 1.61689,-3.63563 2.04628,-5.50705c-0.04623,-0.008 -0.09236,-0.01875 -0.13824,-0.03234zM288.82087,129.43297c0,0 0.45939,-1.55028 1.79441,-1.15467c1.33502,0.39561 0.87561,1.94589 0.87561,1.94589c-0.03159,0.10601 -0.06275,0.21211 -0.0935,0.31829c0.09005,0.0214 0.17961,0.04495 0.26862,0.07089c0.29378,0.08564 0.58823,0.1691 0.88258,0.25298c1.19715,-0.07397 2.37517,-0.02829 3.5373,0.11024c0.41192,-1.20107 0.47204,-2.52854 0.76897,-3.77306c0.74861,-3.13758 1.4975,-6.27313 2.21025,-9.41833c1.63442,-7.21246 3.81818,-14.24362 5.92041,-21.33771c2.05198,-6.92451 4.10395,-13.84901 6.15592,-20.77353c-2.56799,-0.75718 -5.05475,-1.43594 -7.45994,-2.5139c-0.50906,1.30922 -0.74982,2.7743 -1.21054,4.32903c-0.85475,2.8844 -1.66867,5.67018 -2.31419,8.60644c-2.68052,12.19248 -6.83332,24.22267 -10.38255,36.19975c-0.61254,2.06704 -1.1006,4.1766 -1.8376,6.2011c-0.18555,0.50973 -0.81991,0.92376 -0.73507,1.4426c0.06517,0.39854 0.66428,0.30966 1.0251,0.331c0.11685,0.0069 0.23406,0.01265 0.35148,0.01773c0.07808,-0.28541 0.1589,-0.57033 0.24274,-0.85473zM287.41099,133.39861c-0.46689,-0.19889 -0.97807,-0.4041 -1.44586,-0.66878c-0.00015,0.3504 0.043,0.68945 0.15671,1.00983c0.26838,0.7562 0.84958,1.29649 1.2475,1.96774c0.13812,-0.74466 0.28365,-1.48786 0.44099,-2.22888c-0.13766,-0.00273 -0.27145,-0.02543 -0.39935,-0.07991zM360.55521,146.32672c0.54891,0.054 1.11435,0.18304 1.68293,0.34847c-0.46075,-0.47647 -0.94163,-0.92971 -1.44164,-1.37143c-0.10047,0.33904 -0.20094,0.67809 -0.30141,1.01712c0.02005,0.00193 0.04009,0.00387 0.06012,0.00585zM303.01252,120.75721c2.15695,-6.1331 5.08037,-12.02924 7.79602,-17.89936c3.46678,-7.49374 6.91989,-14.74115 10.96849,-21.8924c0.44447,-0.58028 0.88943,-1.16197 1.3355,-1.74408c-3.1004,-0.91856 -6.20083,-1.837 -9.30111,-2.75602c-2.05196,6.92446 -4.10392,13.84891 -6.15588,20.77337c-2.39413,8.07914 -4.66737,16.06285 -6.57514,24.2629c-0.73209,3.14672 -1.38501,6.38121 -2.26621,9.49097c-0.0413,0.14573 -0.07755,0.29556 -0.1121,0.44716c0.48959,0.11329 0.9767,0.23994 1.46158,0.37783c0.76828,-3.73129 1.57786,-7.44641 2.84886,-11.06037zM314.85049,72.95895c-0.04009,0.13528 -0.08018,0.27056 -0.12026,0.40584c0.2496,0.07399 0.49922,0.14797 0.74882,0.22196c-0.22024,-0.19666 -0.4359,-0.40673 -0.62855,-0.6278z" fill="#000000" stroke="none" stroke-width="0.5" stroke-linecap="butt"/><path d="M302.80912,132.70514c0.75638,-3.69505 1.53258,-7.38295 2.79071,-10.96034c2.11721,-6.02013 4.99383,-11.81754 7.65944,-17.57952c3.38862,-7.3248 6.76698,-14.43426 10.70468,-21.43491c0.68075,-0.88353 1.36429,-1.77469 2.04859,-2.66242c0.10893,0.03228 0.21798,0.06441 0.32691,0.09669l1.7977,-0.63796c0,0 1.27052,-0.81835 0.65137,-2.1943c-0.08659,-0.19245 -0.18585,-0.34206 -0.29262,-0.45696c4.46567,-5.6684 9.19341,-11.15024 14.79002,-15.35923c2.76201,-2.0772 6.04537,-3.68494 9.00922,-5.32534c5.7347,-3.17398 11.07123,-5.13916 17.18637,-3.7356c2.0541,0.57674 2.18448,1.36127 3.67912,2.94439c0.41683,0.44152 0.99796,0.65929 1.41906,1.09565c2.05644,2.13091 2.83323,5.75783 3.08178,8.8618c0.26965,3.36762 -0.44992,5.70554 -1.07525,9.01067c-0.38688,2.04488 -0.26687,4.14142 -0.63553,6.18899c-1.24625,6.92174 -2.91251,13.73073 -4.9328,20.55022c-3.89606,13.14875 -7.8096,26.3204 -11.70607,39.46904l-0.79881,-0.246c0,0 -1.33621,-0.39503 -1.79561,1.15524c-0.4594,1.55028 0.858,1.88692 0.858,1.88692l0.82261,0.28454c-0.25155,0.84888 -0.5039,1.69812 -0.75546,2.54698c-3.08758,-0.04777 -6.25094,0.17836 -9.29736,-0.0796c-2.71976,-0.23031 -5.46495,-0.89751 -8.13706,-1.39187c-4.40712,-0.81245 -8.66436,-2.26705 -12.95225,-3.54205c-5.29809,-1.57539 -10.68968,-2.98639 -15.8437,-5.00034c-2.84107,-1.11015 -5.69145,-2.4351 -8.60309,-3.48468z" data-paper-data="{&quot;noHover&quot;:false,&quot;origItem&quot;:[&quot;Path&quot;,{&quot;applyMatrix&quot;:true,&quot;segments&quot;:[[[247.35772,172.04668],[-5.45713,-0.39766],[9.89987,0.72141]],[[277.16498,172.49492],[-9.92417,-0.00796],[8.0319,0.00645]],[[301.25313,172.05759],[-8.00118,0.73163],[4.85215,-0.441]],[[315.96239,170.5495],[-4.79948,0.85336],[5.37592,-0.95586]],[[332.00001,166.58808],[-5.33955,1.28556],[0,-1.36891]],[[332.00003,162.48138],[0,1.36891],[0,0]],[330.5,162.5],[[328,160],[0,2.5],[0,-2.5]],[330.5,157.5],[[332.00005,157.51424],[0,0],[0.00013,-21.20374]],[[331.99982,93.90303],[0.00065,21.20374],[-0.00097,-10.99696]],[[330.01781,61.29782],[1.3856,10.80852],[-0.40988,-3.19734]],[[327.95902,51.84898],[0.37715,3.20137],[-0.60958,-5.17435]],[[325.2194,38.02414],[2.18211,4.87381],[-2.01128,-4.49227]],[[315.40162,26.24579],[4.62714,2.25555],[-0.94752,-0.46187]],[[312.40162,25.24579],[0.94281,0.47141],[-3.38057,-1.69028]],[[304.57104,22.49899],[3.83027,-0.04737],[-11.24303,0.60568]],[[276.90915,35.58892],[8.25297,-7.22446],[-4.26536,3.7338]],[[264.12935,47.43864],[3.69507,-4.29268],[-7.48723,8.69815]],[[246.53087,76.68347],[4.79588,-10.3648],[0.24241,0.12344]],[[247.26777,77.23224],[-0.24724,-0.24725],[1.76776,1.76776]],[247.26777,80.76777],[[244.5,82.5],[0,0],[-0.20399,0]],[[243.88802,82.5],[0.20399,0],[-0.72514,1.61662]],[[241.72168,87.34061],[0.72116,-1.60882],[-3.2074,12.10786]],[[234.22371,123.78201],[2.0968,-12.34717],[-1.64942,9.71274]],[[229.99625,153.19492],[0.57366,-9.85455],[-0.34089,5.85595]],[[230.77787,170.66455],[-0.58288,-5.80996],[5.54772,0.27687]]],&quot;closed&quot;:true}]}" fill="#ffffff" stroke="none" stroke-width="0.5" stroke-linecap="butt"/><path d="M388.50248,220.00839c-0.42939,1.87142 -1.0583,3.71332 -2.04694,5.50975c-0.74869,1.51913 -1.55559,3.0111 -2.42973,4.44929c-0.26074,0.42897 -0.36579,1.0211 -0.7464,1.31292c-0.53105,0.40716 -1.25059,0.28871 -1.80684,0.64555c-1.25528,0.80524 -2.22137,2.25645 -3.56218,2.81835c-2.05312,0.86039 -5.31433,1.575 -7.43938,1.55787c-2.08787,-0.01682 -4.70386,-1.42293 -6.68204,-2.00913c-7.27162,-2.15484 -13.82063,-5.28338 -20.56327,-8.80049c-6.3633,-3.53581 -13.85742,-5.46359 -19.59297,-10.2536c-2.14388,-1.79045 -3.89777,-4.17238 -5.86094,-6.1767c-1.95903,-2.0001 -4.52422,-3.44582 -6.34902,-5.5967c-2.09383,-2.46799 -3.67903,-5.41708 -5.13263,-8.43724l-0.30267,-2.55185c-0.05868,-0.58781 -0.36518,-1.05407 -0.89812,-1.212c-0.73731,-0.21849 -1.53983,0.29696 -1.79355,1.15315c-0.05456,0.18412 -0.07906,0.36853 -0.07689,0.5474l-0.01589,1.93479c-0.1201,1.6289 -0.61387,3.22505 -0.90418,4.84208c-0.28037,1.56168 0.00653,3.14682 -0.22739,4.71411c-0.09516,0.63753 -0.46009,1.22058 -0.55094,1.85852c-0.49987,3.51023 0.43889,7.12639 -0.25973,10.64177c-0.94659,4.76316 -2.46681,9.50379 -3.00696,14.36244c-0.62651,5.63543 -0.33448,11.43678 -0.29342,17.02984c0.37451,0.81344 0.88376,1.55668 1.10601,2.44995c0.06995,0.28118 -0.18626,-0.56584 -0.40769,-0.70796c-0.44996,-0.28878 -1.04043,-0.23221 -1.52177,-0.45579c-0.84554,-0.39274 -1.5858,-1.02323 -2.4431,-1.3869c-2.4039,-1.01975 -4.99283,-1.43119 -7.39712,-2.49455c-2.46956,-1.09223 -4.94054,-1.68796 -7.46383,-2.59835c-2.30344,-0.83108 -4.447,-1.99226 -6.80006,-2.69071c-1.60181,-0.47545 -3.15113,-1.17125 -4.80654,-1.42565c-0.43211,-0.0664 -0.97543,0.37175 -1.32664,0.10062c-0.21428,-0.16542 0.4874,-0.36933 0.6174,-0.64838c0.27211,-0.58406 0.36735,-1.24084 0.55111,-1.86095c0.38624,-1.30337 0.76848,-2.60919 1.14835,-3.91441c0.25853,-3.39342 1.73201,-6.21878 2.23197,-9.52483c0.1016,-0.67188 -0.07782,-1.347 0.01719,-2.01951c0.35438,-2.50832 1.83054,-4.92705 2.20501,-7.44478c0.22711,-1.52696 -0.05142,-3.07525 0.2082,-4.59848c0.53156,-3.11868 0.84675,-6.21234 1.00023,-9.41475c0.07963,-1.6614 0.03868,-3.34354 0.36639,-4.98842c0.38625,-1.93871 1.2768,-3.76498 1.66909,-5.70267c0.42496,-2.099 0.64893,-4.24073 1.20728,-6.31102c0.61943,-4.24021 1.96798,-8.22505 3.18816,-12.34262c2.02346,-6.82828 4.13537,-13.64618 6.07725,-20.49795c0.31555,-1.11338 0.58742,-2.23477 0.82972,-3.35998c0.55579,1.26788 1.10716,2.49871 1.12559,2.54076c2.79476,6.37345 4.97365,13.23343 8.20375,19.32586c1.8941,3.57255 4.29045,6.77955 6.57506,10.01275c5.31596,7.40822 11.27012,13.93333 17.0766,20.81438c6.46083,7.65651 13.17246,15.21849 21.67134,20.05351c2.32414,1.3192 4.6457,3.10499 7.08265,4.15966c3.22918,1.39753 6.72884,2.67937 10.10385,3.68112c1.5261,0.45296 2.9784,1.37716 4.59067,1.31616c1.04822,-0.03966 2.08384,-0.46881 3.12497,-0.71377c4.4624,-1.04995 8.02352,-2.62077 11.86842,-5.37045c0.16132,0.33369 0.4365,0.59028 0.79179,0.69556c0.60054,0.17796 1.24477,-0.13143 1.60026,-0.71519l1.06527,-1.67011l-0.06775,-0.05228l0.19069,-0.17432c0.12477,-0.40876 0.25386,-0.8191 0.38614,-1.232c0.42314,-0.42739 0.83707,-0.91119 1.25469,-1.49939c0.70999,-0.99999 1.34937,-2.13913 1.92793,-3.3516c0.22844,0.60087 0.53034,1.1995 0.80398,1.78103l-0.1732,2.27182c-0.06966,0.73036 0.30916,1.40394 0.94449,1.59221c0.04587,0.01359 0.092,0.02433 0.13824,0.03234z" data-paper-data="{&quot;noHover&quot;:false,&quot;origItem&quot;:[&quot;Path&quot;,{&quot;applyMatrix&quot;:true,&quot;segments&quot;:[[[422.5,262.5],[0.0859,0],[-1.18975,0]],[[420.06196,260.5556],[0.25265,1.1133],[0,0]],[[419.20141,257.11339],[0,0],[-0.76771,-0.74187]],[[417.00747,254.80995],[0.69977,0.7904],[-0.37747,2.05158]],[[415.39877,260.62818],[0.71209,-1.79431],[-0.41886,1.05542]],[[414.00388,263.40343],[0.51039,-0.81947],[-0.0171,0.6702]],[[413.96772,265.40046],[0.00627,-0.66077],[0,0]],[413.7284,265.7428],[413.87171,265.79057],[[412.88994,268.73588],[0,0],[-0.31417,1.02156]],[[410.5,270.5],[1.1246,0],[-0.66532,0]],[[408.78212,269.81629],[0.44793,0.42381],[-5.21617,5.76531]],[[391.09017,283],[7.14627,-3.51681],[-1.6673,0.82051]],[[386.07438,285.43312],[1.78424,-0.51927],[-2.74435,0.79869]],[[377.5,285.5],[2.85821,0.00108],[-6.32101,-0.00239]],[[358.22777,284.48514],[6.27186,0.65317],[-4.73315,-0.49293]],[[343.91262,281.43203],[4.6739,0.93464],[-17.09706,-3.43407]],[[296.28461,261.18468],[15.02794,8.51207],[-13.5059,-7.64996]],[[256.27036,237.8292],[12.93043,8.64695],[-5.58225,-3.78938]],[[239.84441,225.87324],[5.08311,4.464],[-8.66846,-7.61267]],[[215.86516,200.82469],[8.06239,8.22051],[-0.05318,-0.05422]],[[212.71296,197.61046],[1.60357,1.63541],[0.15688,1.77448]],[[212.99959,202.95454],[-0.02477,-1.78914],[0.15243,11.01039]],[[213,236],[0,-11.01141],[0,6.64005]],[[213.81019,255.68926],[-1.09673,-6.55796],[0.09495,3.31436]],[[214.95188,265.57069],[-0.33922,-3.29833],[0.31315,3.04484]],[[214.9878,274.75331],[-0.32408,-3.04369],[0.27496,2.58239]],[[216.90161,282.30555],[-0.71046,-2.49791],[1.36943,4.81478]],[[219.98127,296.69454],[-0.67587,-4.85676],[0.33011,2.37216]],[[221.96772,303.59954],[-0.38797,-2.36339],[0.63971,3.8969]],[[221.96772,315.59954],[-0.66953,-3.87411],[0.17951,1.0387]],[[222.96772,318.59954],[-0.16784,-1.04064],[0.82587,5.12065]],[[223.98127,333.69454],[-1.28603,-5.14412],[0.01191,2.10179]],[[224,340],[0,-2.10183],[0,1]],[[224,343],[0.17048,-0.98536],[-0.08145,0.4708]],[[223.26777,344.23223],[-0.45327,-0.15109],[0.7429,0.24763]],[[225.5,343.5],[-0.77774,0.09138],[2.97951,-0.35007]],[[234.5,343.5],[-3,-0.00115],[4.40703,0.00168]],[[247.57559,344.49818],[-4.38926,-0.22012],[4.80819,0.24113]],[[261.7455,345.06745],[-4.80846,-0.53429],[4.68136,0.52017]],[[275.74634,345.51217],[-4.65845,-0.45568],[1.66134,0.16251]],[[280.65705,346.49353],[-1.65591,-0.21076],[0.94266,0.11998]],[[283.50784,346.50001],[-0.9219,-0.23043],[0.45368,0.1134]],[[284.52949,347.46147],[0.26386,0.38609],[-0.83828,-1.22661]],[[281.37337,344.31433],[1.05966,1.04135],[-2.92389,-8.27334]],[[273.17899,318.93122],[1.79629,8.62939],[-1.54869,-7.43991]],[[271.01873,296.30546],[0.8003,7.47693],[-0.59065,-5.51823]],[[266.03228,280.40046],[0.93018,5.42329],[-0.16905,-0.98561]],[[266.03228,277.40046],[0.16142,0.98689],[-0.39684,-2.42615]],[[264.01873,270.30546],[0.31401,2.43826],[-0.32514,-2.52468]],[[263.1059,262.72341],[0.62421,2.46751],[0,0]],[[262.14675,259.84593],[0,0],[-0.09499,-0.2642]],[[262,259],[0,0.29691],[0,-1.38071]],[[264.5,256.5],[-1.38071,0],[0.99801,0]],[[266.76029,257.93041],[-0.40086,-0.84561],[0,0]],[[268.58385,261.57752],[0,0],[4.04302,3.83863]],[[281.72481,271.82059],[-4.86346,-2.73881],[4.23857,2.38691]],[[295.50842,277.31678],[-4.39274,-2.10443],[4.40199,2.10886]],[[308.73113,283.87003],[-4.60398,-1.71242],[12.3171,4.58127]],[[347.61638,290.4765],[-12.75795,-2.44622],[13.40142,2.25186]],[[387.5,294.5],[-13.61711,0],[3.70442,0]],[[400.02723,294.54511],[-3.60279,0.89226],[3.66696,-0.90815]],[[412.03822,288.97189],[-3.09547,2.17741],[2.02153,-1.42198]],[[416.73223,283.23223],[-1.75014,1.74516],[0.77554,-0.77333]],[[419.51323,281.48252],[-0.70649,0.83688],[0.50635,-0.59979]],[[420.12829,279.20943],[-0.23002,0.75048],[0.77114,-2.51604]],[[422.04118,271.54999],[-0.5139,2.5809],[0.7855,-3.09742]],[[422.75446,262.48721],[0.21549,2.96289],[-0.08367,0.00846]]],&quot;closed&quot;:true}]}" fill="#ffffff" stroke="none" stroke-width="0.5" stroke-linecap="butt"/><path d="M300.17521,131.7874c-0.48491,-0.13789 -0.99664,-0.2049 -1.48622,-0.31819c0.03454,-0.15159 0.07073,-0.30146 0.11202,-0.4472c0.88121,-3.10977 1.53144,-6.34582 2.26354,-9.49254c1.90778,-8.20005 4.18696,-16.24059 6.58109,-24.31972c2.05196,-6.92446 4.11765,-13.8519 6.16961,-20.77636c3.10027,0.91901 6.21106,1.8405 9.31147,2.75907c-0.44607,0.5821 -0.91896,1.22181 -1.36342,1.80209c-4.0486,7.15125 -7.49407,14.40125 -10.96085,21.89499c-2.71566,5.87012 -5.61926,11.70543 -7.7762,17.83851c-1.27099,3.61395 -2.08277,7.32804 -2.85104,11.05933z" data-paper-data="{&quot;noHover&quot;:false,&quot;origItem&quot;:[&quot;Path&quot;,{&quot;applyMatrix&quot;:true,&quot;segments&quot;:[[[450.00939,305.80869],[-0.68875,11.8316],[1.16885,-20.07893]],[[458.58857,245.88979],[-3.36077,19.79014],[4.29032,-25.26388]],[[474.0164,171.34468],[-6.64294,24.75962],[0.93822,-2.11095]],[[476.83502,165.00034],[-0.94189,2.11778],[-11.61167,0.00056]],[[442,165.00105],[11.61167,0.00083],[0,22.33298]],[[442,232],[0,-22.33298],[0,26.05709]],[[444.11673,309.71335],[-1.79785,-25.98829],[0.68992,9.97284]],[[445.99757,339.84398],[-0.13884,-9.99428],[0.00651,0.46836]],[[446.06783,341.26824],[-0.03573,-0.47978],[1.80119,-0.09427]],[[451.48548,341.1043],[-1.81015,0.01721],[-1.16176,-11.73782]]],&quot;closed&quot;:true}]}" fill="#ffffff" stroke="none" stroke-width="0.5" stroke-linecap="butt"/><path d="M288.56606,130.31764c-0.11741,-0.00507 -0.23494,-0.01096 -0.3518,-0.01787c-0.36083,-0.02134 -0.96098,0.06702 -1.02616,-0.33152c-0.08485,-0.51884 0.54958,-0.93283 0.73514,-1.44255c0.737,-2.02451 1.2239,-4.13472 1.83643,-6.20175c3.54923,-11.97708 7.7176,-24.0679 10.39811,-36.26038c0.64553,-2.93625 1.46202,-5.72202 2.31677,-8.60643c0.46072,-1.55473 0.70225,-3.01975 1.21131,-4.32899c2.40518,1.07798 4.90017,1.75891 7.46816,2.5161c-2.05198,6.92451 -4.09637,13.85453 -6.14835,20.77904c-2.10223,7.09411 -4.30733,14.18145 -5.94175,21.39391c-0.71273,3.14519 -1.46407,6.28073 -2.21268,9.41831c-0.29693,1.24452 -0.35744,2.57198 -0.76935,3.77303c-1.16212,-0.13853 -2.34404,-0.18481 -3.5412,-0.11084c-0.29435,-0.08387 -0.5898,-0.16761 -0.88358,-0.25325c-0.08901,-0.02594 -0.17887,-0.04958 -0.26892,-0.07098c0.03074,-0.10617 0.06189,-0.21228 0.0935,-0.31829c0,0 0.45781,-1.5508 -0.8772,-1.94641c-1.33502,-0.39561 -1.79578,1.15411 -1.79578,1.15411c-0.08384,0.28439 -0.16456,0.56936 -0.24265,0.85477z" data-paper-data="{&quot;noHover&quot;:false,&quot;origItem&quot;:[&quot;Path&quot;,{&quot;applyMatrix&quot;:true,&quot;segments&quot;:[[[410,344],[0.0015,0.91685],[0,0]],[[415,339],[-5,0],[5,0]],[[420,344],[0,0],[-0.00061,0.34206]],[[420.00284,345.0258],[-0.00248,-0.34181],[0.33188,-0.01565]],[[421,345],[-0.33291,0.00128],[1.09883,-0.00422]],[[424.29676,344.97463],[-1.09897,0.00992],[4.04627,-1.27115]],[[436.58794,342.19363],[-4.14246,0.61035],[0.1928,-3.92291]],[[435.38595,330.33137],[0.24741,3.95073],[-0.62374,-9.96027]],[[433.3865,300.46531],[0.75501,9.9513],[-1.73137,-22.82001]],[[432,232],[0,22.88015],[0,-22.33316]],[[432,165.00053],[0,22.33316],[-9.61395,0.01126]],[[403.75106,164.10138],[9.38071,1.08287],[-0.41688,4.32894]],[[404,178],[0,-5.01439],[0,9.30288]],[[404.81318,205.55023],[-0.77321,-9.27279],[3.21069,38.50429]],[[406,322],[0,-38.62886],[0,6.66667]],[[406,342],[0.4719,-6.64994],[-0.11881,1.67431]],[[404.94103,346.92294],[-0.82148,-1.46376],[0.631,1.12435]],[[408.80812,347.00368],[-1.2641,0.25374],[0.40939,-0.08218]],[[410.0363,346.74743],[-0.40943,0.08812],[-0.02239,-0.91481]]],&quot;closed&quot;:true}]}" fill="#ffffff" stroke="none" stroke-width="0.5" stroke-linecap="butt"/><path d="M389.60584,217.64895c-1.33502,-0.39561 -0.87562,-1.94588 -0.87562,-1.94588l0.10699,-0.10958c0.0353,-3.71812 -0.69406,-7.31865 -1.56198,-10.86162c-0.02732,0.19038 -0.0524,0.38066 -0.07443,0.57083c-1.00862,3.39291 -2.41713,7.64923 -4.43772,10.52949c-0.98467,1.4036 -2.2167,2.19457 -3.48059,3.15111c-4.2673,3.22961 -9.23003,5.97589 -14.31474,6.2703c-1.39726,0.08091 -2.63225,-0.82444 -3.95425,-1.21554c-3.28604,-0.97216 -6.67796,-2.22337 -9.82367,-3.57185c-2.3608,-1.01201 -4.61799,-2.76953 -6.86658,-4.04602c-8.24617,-4.67005 -14.80071,-12.1214 -21.06218,-19.53677c-5.755,-6.81558 -11.66524,-13.30833 -16.93218,-20.64816c-2.2102,-3.12793 -4.53704,-6.23391 -6.37019,-9.68971c-3.19676,-6.02637 -5.34121,-12.83542 -8.10577,-19.14142c-0.7987,-1.82182 -1.68437,-3.59255 -2.39715,-5.46551c-0.03579,-0.09404 -0.12764,-0.37144 -0.25323,-0.75796c0.42759,-2.54423 0.83565,-5.09121 1.39776,-7.6041c1.62456,0.59752 3.39136,1.77036 4.94544,1.41532c0.23252,-0.05312 0.46576,-0.13181 0.69434,-0.23266c2.89022,1.33448 5.85312,2.29727 8.9075,3.20368l1.0687,0.31634c0,0 0.70436,0.2081 1.26579,-0.27112c0.94763,0.40599 1.88916,0.80191 2.82361,1.16671c5.21741,2.03677 10.66916,3.4603 16.03173,5.05486c4.37083,1.29966 8.71167,2.76451 13.20296,3.59801c2.7502,0.50867 5.57733,1.18914 8.37629,1.42616c2.88083,0.24396 5.86393,0.07293 8.78838,0.09001c-0.07705,0.26002 -0.52116,1.76067 -0.59822,2.0207c0,0 -0.45814,1.55148 0.87689,1.94709c1.33502,0.39561 1.75445,-1.10592 1.75445,-1.10592l0.36782,-1.2399c0.14516,-0.48987 0.29068,-0.9794 0.43584,-1.46927c0.16928,0.0124 0.37754,-0.02325 0.5461,-0.008c1.49421,0.13521 3.1592,0.95916 4.59245,1.38388l0.80078,0.23765c5.51417,9.6757 11.86384,18.69616 16.50742,29.01561c1.1755,2.61232 2.71425,5.28348 3.62748,8.04385c0.58664,1.77317 0.77158,3.71983 1.15332,5.57991c0.20852,1.01604 0.50911,2.01025 0.7516,3.01854c0.79707,0.10952 1.02784,1.0817 1.02784,1.0817c1.35697,5.71648 3.15876,11.43581 3.11199,17.5139l-0.26052,1.13066c0,0 -0.4594,1.55028 -1.79442,1.15467z" fill="#ffffff" stroke="none" stroke-width="0.5" stroke-linecap="butt"/><path d="M324.77429,122.88546c-1.34439,-0.3629 -0.91319,-1.92116 -0.91319,-1.92116l0.69515,-2.5118c1.82903,-7.07834 3.35027,-13.87144 6.18065,-20.65421c0,0 0.62144,-1.48923 1.88916,-0.90439c1.26772,0.58484 0.64628,2.07408 0.64628,2.07408c-2.76467,6.62531 -4.23884,13.26087 -6.01863,20.17838l-0.70383,2.54375c0,0 -0.43121,1.55826 -1.77559,1.19536z" fill="#000000" stroke="none" stroke-width="0.5" stroke-linecap="butt"/><path d="M354.27621,130.05118c-0.54498,1.52137 -1.8474,1.02611 -1.8474,1.02611l-2.25928,-1.19997c0.17343,-6.92663 0.54137,-15.36797 3.13562,-21.99329c0.74521,-1.90316 1.86107,-3.61784 2.7952,-5.42458c0,0 0.73807,-1.42754 1.94163,-0.70505c1.20357,0.72249 0.4655,2.15003 0.4655,2.15003c-0.88044,1.70291 -1.94191,3.31245 -2.64851,5.10443c-2.3843,6.04676 -1.90404,12.76961 -3.26138,19.01626l0.92115,0.00945c0,0 1.30243,0.49527 0.75745,2.01664z" fill="#000000" stroke="none" stroke-width="0.5" stroke-linecap="butt"/><path d="M351.65688,205.05542c0.0404,0.02223 0.08072,0.04469 0.12096,0.06739c0,0 1.219,0.69196 0.5067,2.13454c-0.71229,1.44258 -1.93129,0.75063 -1.93129,0.75063c-2.48869,-1.422 -5.24186,-1.9013 -7.6717,-3.43414c-2.81811,-1.77778 -5.45631,-4.35846 -7.99178,-6.59538c-7.51735,-6.6322 -14.58814,-14.06475 -19.76438,-23.22329c-1.37616,-2.44402 -2.25293,-4.76449 -2.97382,-7.5923c-0.17187,-0.67418 -0.94585,-3.68389 -0.99314,-4.12079c-0.55669,-5.14419 2.63248,-8.45851 6.96171,-9.02893c3.45281,-0.45496 6.71285,0.26537 9.98731,0.83935c3.55693,0.6235 7.10437,0.76375 10.59239,1.78392c2.69233,0.78743 5.1989,1.551 7.99542,1.90303c3.31685,0.82666 6.58857,1.74179 9.86554,2.71287c2.80227,0.83041 5.77493,1.33268 8.18327,3.17617c2.98442,2.28446 4.99723,5.85014 7.05868,9.09803c0.97767,1.54036 2.30342,3.35001 2.81859,5.24571c0.85538,3.14754 0.31454,6.43817 0.18893,9.69079c-0.04277,1.10749 0.20935,2.19651 0.09037,3.30389c-0.11989,1.11581 -0.58842,2.18183 -0.79869,3.28862c-0.52399,2.75798 -0.92398,5.21012 -1.74764,7.91087c-2.12712,3.28222 -5.31518,5.52923 -8.91857,5.38771c-0.6105,-0.02398 -4.96878,-1.34388 -5.64316,-1.54301c-1.97883,-0.58431 -3.95735,-1.16971 -5.9357,-1.75569zM339.55044,198.09894c0.04923,0.00948 0.07719,0.01775 0.07719,0.01775l1.60201,0.47473c6.64287,1.96851 13.26932,4.00393 19.93315,5.90059c3.08784,0.87886 6.37703,0.63621 8.50316,-2.80328c0.68477,-2.40525 1.00789,-4.61371 1.47801,-7.06248c0.19338,-1.00723 0.64535,-1.97173 0.75387,-2.98751c0.10942,-1.0242 -0.14679,-2.02811 -0.10862,-3.05232c0.10713,-2.87512 0.67393,-5.85139 -0.07113,-8.64316c-0.37311,-1.39805 -1.78518,-3.36288 -2.45237,-4.41105c-1.90174,-2.9877 -3.72024,-6.29326 -6.45085,-8.42281c-2.10075,-1.63832 -4.91666,-2.02872 -7.37283,-2.75657c-3.19769,-0.94759 -6.39058,-1.84345 -9.62579,-2.65507c-3.73668,-0.47529 -7.0944,-2.07753 -10.76962,-2.70962c-2.57184,-0.44232 -5.22045,-0.52135 -7.79036,-0.97226c-1.59187,-0.27931 -3.15588,-0.7812 -4.78609,-0.78587c-2.03879,-0.00584 -5.7814,-0.82076 -7.56264,1.05685c-2.48574,2.62022 -0.4179,8.02536 0.48451,10.63265c0.54776,1.58258 1.18538,2.61081 1.94854,3.96025c5.00733,8.8897 11.90744,16.08485 19.19394,22.51372c0.9888,0.87242 1.9922,1.79808 3.01595,2.70543z" fill="#000000" stroke="none" stroke-width="0.5" stroke-linecap="butt"/><path d="M336.5236,195.42394c-7.28649,-6.42887 -14.2026,-13.66176 -19.20992,-22.55145c-0.76315,-1.34945 -1.3998,-2.38071 -1.94755,-3.96329c-0.90241,-2.60729 -2.9667,-8.01954 -0.48096,-10.63977c1.78125,-1.87762 5.52705,-1.06694 7.56586,-1.0611c1.63022,0.00467 3.19664,0.50409 4.7885,0.7834c2.56992,0.45092 5.22524,0.5252 7.79708,0.96752c3.67522,0.63209 7.04937,2.23159 10.78605,2.70689c3.23522,0.8116 6.44228,1.71541 9.63997,2.663c2.45617,0.72785 5.27717,1.12638 7.37793,2.7647c2.73061,2.12954 4.55162,5.44644 6.45335,8.43413c0.66719,1.04816 2.07918,3.01757 2.45229,4.41561c0.74506,2.79177 0.1768,5.7758 0.06966,8.65091c-0.03817,1.02422 0.21723,2.0305 0.10782,3.05471c-0.10852,1.01577 -0.5615,1.9827 -0.75487,2.98992c-0.47013,2.44878 -0.79596,4.66213 -1.48072,7.06738c-2.12614,3.43949 -5.41974,3.68757 -8.50757,2.80871c-6.66384,-1.89666 -13.3096,-3.92329 -19.95247,-5.89181l-1.60481,-0.47481c0,0 -0.0281,-0.0083 -0.07732,-0.01778c-1.02374,-0.90735 -2.0335,-1.83448 -3.0223,-2.70689z" data-paper-data="{&quot;noHover&quot;:false,&quot;origItem&quot;:[&quot;Path&quot;,{&quot;applyMatrix&quot;:true,&quot;segments&quot;:[[[327.35807,251.50758],[-2.22522,-0.89537],[0.08957,-0.00758]],[327.5,251.5],[[330.5,251.5],[0,0],[12.43969,0]],[[367.8244,251.49065],[-12.43914,0.11573],[5.76396,-0.05362]],[[381.03228,243.59954],[-1.90548,6.03283],[-0.04818,-3.86644]],[[379.97385,232.48057],[0.43989,3.83668],[-0.18094,-1.57811]],[[379.74758,227.72062],[0.33137,1.55349],[-0.33412,-1.56638]],[[378.0035,223.24346],[0.45679,1.5351],[-1.28227,-4.30923]],[[373.47189,210.46178],[2.70678,3.81131],[-1.35548,-1.90861]],[[367,205],[1.68325,1.26075],[-4.79791,-3.59363]],[[351.59831,195.34757],[5.78701,1.95735],[-4.45214,-1.50586]],[[337.5,194.5],[4.59951,0],[-5.98812,0]],[[319.57506,194.79264],[5.98335,-0.21808],[-6.67504,0.93692]],[[299.65321,195.50686],[6.64924,-0.67747],[-4.65299,0.47408]],[[285.74634,197.48783],[4.65407,-0.46051],[-2.88283,0.28525]],[[277.10634,198.42536],[2.80875,-0.70923],[-3.5127,0.88698]],[[264.62663,203.31433],[2.10853,-3.56594],[-2.94247,4.9763]],[[270.88476,218.8637],[-2.88353,-3.4687],[1.75027,2.10546]],[[276.25935,223.87852],[-2.00214,-1.66522],[13.15487,10.9787]],[[320.78609,248.82185],[-15.82306,-6.32945],[2.14722,0.85892]]],&quot;closed&quot;:true}]}" fill-opacity="0.60392" fill="#b7ffe7" stroke="none" stroke-width="0.5" stroke-linecap="butt"/><path d="M323.64106,142.1126l19.07994,-64.38638l59.91758,17.75568l-19.07994,64.38638z" fill="#000000" stroke="#000000" stroke-width="2" stroke-linecap="butt"/><path d="M346.57571,133.65821l21.46301,6.36024l-17.2335,58.15546l-17.9746,-5.3265c-0.9583,-0.90253 -2.12458,-1.53148 -3.06685,-2.4563z" fill="#000000" stroke="#000000" stroke-width="2" stroke-linecap="butt"/><path d="M325.16928,173.06696l8.30901,-28.03923l11.17865,3.31263l-8.30901,28.03923z" fill="#000000" stroke="#000000" stroke-width="2" stroke-linecap="butt"/><path d="M353.18561,181.93403l10.15545,-34.27017l15.20296,4.50517l-10.15545,34.27017z" fill="#000000" stroke="#000000" stroke-width="2" stroke-linecap="butt"/><path d="M330.54425,191.04019l20.56872,6.09523l-1.55095,5.23376c-1.27401,-0.46133 -2.55636,-0.90123 -3.82387,-1.37818c-1.32648,-0.49913 -2.30143,-1.76184 -3.59012,-2.35874c-1.01894,-0.47196 -2.14234,-0.85281 -3.29278,-1.18961c-0.48936,-0.36128 -0.99133,-0.69192 -1.52247,-0.94844c-0.2299,-0.11104 -0.57396,0.17844 -0.7721,0.0101c-0.52124,-0.44286 -0.69547,-1.29884 -1.2345,-1.71495c-0.44848,-0.34622 -1.14744,-0.13821 -1.60201,-0.47473c-0.31265,-0.23145 -0.27547,-0.82138 -0.54381,-1.11379c-0.77802,-0.84783 -1.75221,-1.43751 -2.64292,-2.13769z" fill="#000000" stroke="#000000" stroke-width="2" stroke-linecap="butt"/><path d="M328.29533,139.53795l16.61802,-56.07847l53.65752,15.90061l-16.61802,56.07847z" fill="#fff7bd" stroke="#000000" stroke-width="2" stroke-linecap="butt"/><path d="M335.37338,115.65266l8.92449,-30.11622l16.5444,4.90269l-8.92449,30.11622z" fill="#1d1b14" stroke="none" stroke-width="0" stroke-linecap="butt"/><path d="M372.42238,121.13947l8.07985,-27.26592l17.43869,5.1677l-8.07985,27.26592z" fill="#1d1b14" stroke="none" stroke-width="0" stroke-linecap="butt"/><path d="M339.85083,97.88907l4.30837,-14.53886l53.65752,15.90061l-4.30837,14.53886z" fill="#1d1b14" stroke="none" stroke-width="0" stroke-linecap="butt"/><path d="M344.21502,130.13443l4.46224,-15.05811l11.6258,3.44513l-4.46224,15.05811z" fill="#ffffff" stroke="#000000" stroke-width="2" stroke-linecap="butt"/><path d="M361.2066,135.16963l4.46224,-15.05811l12.52008,3.71014l-4.46224,15.05811z" fill="#ffffff" stroke="#000000" stroke-width="2" stroke-linecap="butt"/><path d="M351.6916,129.5258l3.38515,-11.42339l4.9186,1.45755l-3.38515,11.42339z" fill="#2d2d2d" stroke="#000000" stroke-width="2" stroke-linecap="butt"/><path d="M363.75006,134.79368l3.84676,-12.98113l5.36574,1.59006l-3.84676,12.98113z" fill="#2d2d2d" stroke="#000000" stroke-width="2" stroke-linecap="butt"/><path d="M342.72895,146.63934l21.91015,6.49274l-13.84835,46.73206l-14.95455,-4.43156c-0.14245,-0.24786 -0.29802,-0.47955 -0.51003,-0.64321c-0.44848,-0.34622 -1.14745,-0.13821 -1.60202,-0.47473c-0.31265,-0.23145 -0.27547,-0.82138 -0.54381,-1.11379c-1.0121,-1.10292 -2.35621,-1.76897 -3.41658,-2.80974z" fill="#ffffff" stroke="#000000" stroke-width="2" stroke-linecap="butt"/><path d="M327.57142,164.25687l5.38547,-18.17357l10.73151,3.18012l-5.38547,18.17357z" fill="#ffffff" stroke="#000000" stroke-width="2" stroke-linecap="butt"/><path d="M358.6526,171.69239l5.38547,-18.17358l12.96723,3.84265l-5.38547,18.17358z" fill="#ffffff" stroke="#000000" stroke-width="2" stroke-linecap="butt"/><path d="M325.46255,173.71871l2.6158,-8.82715l9.39006,2.7826l-2.6158,8.82715z" fill="#fff7bd" stroke="#000000" stroke-width="2" stroke-linecap="butt"/><path d="M356.31562,182.86156l2.92354,-9.86565l10.73151,3.18012l-2.92354,9.86565z" fill="#fff7bd" stroke="#000000" stroke-width="2" stroke-linecap="butt"/><path d="M347.64627,200.62685l-0.28372,0.95743c-0.54296,-0.19405 -1.08503,-0.3903 -1.62441,-0.59327c-0.91948,-0.34598 -1.67004,-1.05884 -2.47328,-1.66253z" fill="#ff0000" stroke="#000000" stroke-width="2" stroke-linecap="butt"/><path d="M337.60882,196.63536l0.16667,-0.62809" fill="none" stroke="#000000" stroke-width="2" stroke-linecap="round"/><path d="M350.7232,110.88845l4.16099,-14.04151l6.82601,2.02279l-4.16099,14.04151z" fill="#1d1b14" stroke="none" stroke-width="0" stroke-linecap="butt"/><path d="M355.84443,106.49332l2.21472,-7.47371l5.65583,1.67602l-2.21472,7.47371z" fill="#1d1b14" stroke="none" stroke-width="0" stroke-linecap="butt"/><path d="M367.42455,108.93945l2.01338,-6.79427l9.36139,2.77411l-2.01338,6.79427z" fill="#1d1b14" stroke="none" stroke-width="0" stroke-linecap="butt"/><path d="M369.78786,114.56707l4.16099,-14.04151l5.07074,1.50264l-4.16099,14.04151z" fill="#1d1b14" stroke="none" stroke-width="0" stroke-linecap="butt"/><path d="M322.71684,122.96465l3.68427,-12.4328l5.11353,1.51532l-3.68427,12.4328z" fill="#fff7bd" stroke="#000000" stroke-width="0.5" stroke-linecap="butt"/><path d="M388.96768,144.01011l3.79425,-12.80393l6.39192,1.89415l-3.79425,12.80393z" fill="#fff7bd" stroke="#000000" stroke-width="0.5" stroke-linecap="butt"/><path d="M352.0872,135.61265c-0.28015,-0.55591 -0.50576,-1.0108 -0.56972,-1.13792c0,0 -0.46514,-0.92443 0.14068,-1.76239c0.60582,-0.83794 1.07097,0.0865 1.07097,0.0865c0.3101,0.6163 0.632,1.21669 0.93029,1.84887c0.21119,0.44757 0.27679,1.16228 0.59723,1.3885c0.31054,0.21921 0.6973,-0.17716 1.04664,-0.22806c0.48984,-0.07137 0.98466,-0.19198 1.46911,-0.1385c0.3396,0.0375 2.59321,0.83937 2.98933,0.91593c0.99663,0.19258 2.04768,-0.2342 3.03941,-0.00339c0.66627,0.15507 1.15603,1.09707 1.81343,1.31048c0.36817,0.11953 0.84222,-0.31037 1.14144,0.03764c0.83923,0.97609 1.05759,3.67065 0.69814,5.19889c-0.06785,0.28847 -2.06058,3.62914 -2.20756,3.87866c-1.14391,1.94183 -2.02238,3.60894 -3.46807,4.89717c-0.30576,0.03076 -0.61917,-0.05849 -0.91729,0.0923c-0.3333,0.16858 -0.59231,0.67754 -0.92643,0.84023c-0.8043,0.39167 -1.64643,0.21639 -2.46907,0.2817c-0.37955,0.03013 -0.78748,0.25268 -1.13792,0.06113c-1.58007,-0.8637 -1.6507,-1.71006 -2.45838,-3.77031c-0.29135,-0.74317 -1.04714,-2.56789 -1.1806,-3.49143c-0.32336,-2.23745 0.04582,-5.41258 0.07458,-7.76351l0.0183,-1.49589c0,0 0.00805,-0.65766 0.3055,-1.04661zM353.29165,137.921c-0.0183,1.49589 -0.03759,3.07224 -0.0559,4.56814c-0.01103,0.90195 -0.17546,1.84542 -0.05353,2.70771c0.06288,0.4447 0.96233,2.66814 0.99751,2.76039c0.51511,1.35091 0.62392,2.2815 1.6198,2.79483c0.21581,0.11123 0.46435,-0.09412 0.69665,-0.12347c0.70609,-0.08923 1.43121,0.18291 2.11735,-0.17976c0.33226,-0.17561 0.59314,-0.67165 0.92643,-0.84023c0.29811,-0.15077 0.61152,-0.06152 0.91729,-0.0923c1.0899,-1.02029 1.85935,-2.68146 2.73091,-4.16094c0.36717,-0.62327 0.72633,-1.25935 1.1015,-1.86982c0.24728,-0.40238 0.62066,-0.65504 0.76511,-1.16752c0.13044,-0.46275 0.00885,-0.98988 -0.01958,-1.47736c-0.01434,-0.24576 0.03095,-0.62612 -0.10806,-0.7109c-0.21158,-0.12905 -0.46809,0.28783 -0.69314,0.22223c-0.66262,-0.19317 -1.1485,-1.1757 -1.81912,-1.31212c-0.96631,-0.19658 -1.98359,0.20778 -2.95154,0.02461c-0.98553,-0.18651 -1.91433,-0.79298 -2.90782,-0.90405c-0.56166,-0.0628 -2.57496,0.47595 -2.98797,0.18719c-0.04079,-0.02853 -0.14075,-0.18764 -0.27592,-0.42662z" fill="#0e0e0b" stroke="none" stroke-width="0.5" stroke-linecap="butt"/><path d="M332.37432,102.51248l11.94799,-34.56902l22.27344,7.69831l-11.948,34.56903z" fill="#1d1b14" stroke="none" stroke-width="0" stroke-linecap="butt"/><path d="M374.42396,112.35328l10.12158,-29.28467l23.45989,8.10838l-10.12158,29.28467z" fill="#1d1b14" stroke="none" stroke-width="0" stroke-linecap="butt"/><path d="M342.14474,91.93674l9.10249,-26.33614l51.73492,17.881l-9.10249,26.33614z" fill="#1d1b14" stroke="none" stroke-width="0" stroke-linecap="butt"/><path d="M353.50669,101.85905l4.0295,-11.65853l6.58143,2.27472l-4.0295,11.65853z" fill="#1d1b14" stroke="none" stroke-width="0" stroke-linecap="butt"/><path d="M358.13901,97.31924l2.14474,-6.20535l5.45318,1.88477l-2.14474,6.20535z" fill="#1d1b14" stroke="none" stroke-width="0" stroke-linecap="butt"/><path d="M372.69745,102.59779l1.94976,-5.64123l9.02596,3.11962l-1.94976,5.64123z" fill="#1d1b14" stroke="none" stroke-width="0" stroke-linecap="butt"/><path d="M372.40295,109.24657l4.0295,-11.65853l4.88906,1.68979l-4.0295,11.65853z" fill="#1d1b14" stroke="none" stroke-width="0" stroke-linecap="butt"/><path d="M344.62803,72.98408l2.24102,-6.48393l8.91541,3.08141l-2.24102,6.48393z" fill="#1d1b14" stroke="none" stroke-width="0" stroke-linecap="butt"/><path d="M398.06451,91.63466l2.35308,-6.80813l6.15974,2.12898l-2.35308,6.80813z" fill="#1d1b14" stroke="none" stroke-width="0" stroke-linecap="butt"/><path d="M354.06936,67.71853l0.72833,-2.10727l45.06337,15.57513l-0.72833,2.10727z" fill="#1d1b14" stroke="none" stroke-width="0" stroke-linecap="butt"/><path d="M332.62906,106.12551l2.185,-6.32184l13.12997,4.53808l-2.185,6.32184z" fill="#1d1b14" stroke="none" stroke-width="0" stroke-linecap="butt"/><path d="M381.9668,117.7341l1.23256,-3.56617l12.80577,4.42602l-1.23256,3.56617z" fill="#1d1b14" stroke="none" stroke-width="0" stroke-linecap="butt"/></g></g></svg>