<svg version="1.1" xmlns="http://www.w3.org/2000/svg" xmlns:xlink="http://www.w3.org/1999/xlink" width="63.61587" height="115.06936" viewBox="0,0,63.61587,115.06936"><g transform="translate(-289.15567,-130.44749)"><g data-paper-data="{&quot;isPaintingLayer&quot;:true}" fill-rule="nonzero" stroke-linejoin="miter" stroke-miterlimit="10" stroke-dasharray="" stroke-dashoffset="0" style="mix-blend-mode: normal"><path d="M296.41017,186.05257v-47.38281h51.20401v47.38281z" fill="#000000" stroke="#000000" stroke-width="2" stroke-linecap="butt"/><path d="M312.45921,218.53273v-42.79738h18.34173v42.79738z" fill="#000000" stroke="#000000" stroke-width="2" stroke-linecap="butt"/><path d="M304.81684,206.68702v-20.63445h9.55299v20.63445z" fill="#000000" stroke="#000000" stroke-width="2" stroke-linecap="butt"/><path d="M328.89036,207.06914v-25.21988h12.99206v25.21988z" fill="#000000" stroke="#000000" stroke-width="2" stroke-linecap="butt"/><path d="M313.22346,244.13473v-26.36624h17.57749v26.36624z" fill="#000000" stroke="#000000" stroke-width="2" stroke-linecap="butt"/><path d="M300.47288,183.66509v-41.2689h45.85433v41.2689z" fill="#fff7bd" stroke="#000000" stroke-width="2" stroke-linecap="butt"/><path d="M293.86392,165.80024v-30.63964h19.74167v30.63965z" fill="#2e2b20" stroke="none" stroke-width="0" stroke-linecap="butt"/><path d="M329.8497,162.08479v-25.95595h20.79326v25.95595z" fill="#2e2b20" stroke="none" stroke-width="0" stroke-linecap="butt"/><path d="M298.7056,154.7532v-23.34257h45.85433v23.34257z" fill="#2e2b20" stroke="none" stroke-width="0" stroke-linecap="butt"/><path d="M309.78434,173.82475v-11.08146h9.93511v11.08146z" fill="#ffffff" stroke="#000000" stroke-width="2" stroke-linecap="butt"/><path d="M324.30493,173.82475v-11.08146h10.69934v11.08146z" fill="#ffffff" stroke="#000000" stroke-width="2" stroke-linecap="butt"/><path d="M315.51617,171.91415v-8.40663h4.20331v8.40663z" fill="#2d2d2d" stroke="#000000" stroke-width="2" stroke-linecap="butt"/><path d="M326.21549,173.06051v-9.55299h4.58543v9.55299z" fill="#2d2d2d" stroke="#000000" stroke-width="2" stroke-linecap="butt"/><path d="M312.45921,219.67908v-34.39075h18.72385v34.39075z" fill="#ffbfbf" stroke="#000000" stroke-width="2" stroke-linecap="butt"/><path d="M304.81684,200.57311v-13.37418h9.17087v13.37418z" fill="#ffbfbf" stroke="#000000" stroke-width="2" stroke-linecap="butt"/><path d="M330.80091,199.04463v-13.37418h11.08146v13.37418z" fill="#ffbfbf" stroke="#000000" stroke-width="2" stroke-linecap="butt"/><path d="M305.19892,207.06914v-6.49603h8.02451v6.49603z" fill="#fff7bd" stroke="#000000" stroke-width="2" stroke-linecap="butt"/><path d="M331.56516,207.06914v-7.26027h9.17087v7.26027z" fill="#fff7bd" stroke="#000000" stroke-width="2" stroke-linecap="butt"/><path d="M314.75194,242.22413v-21.39869h14.13842v21.39869z" fill="#d600ff" stroke="#000000" stroke-width="2" stroke-linecap="butt"/><path d="M313.22346,244.51685v-7.64239h16.81326v7.64239z" fill="#ffffff" stroke="#000000" stroke-width="2" stroke-linecap="butt"/><path d="M320.06057,219.67908l0.7515,22.54505" fill="none" stroke="#000000" stroke-width="2" stroke-linecap="round"/><path d="M310.41668,159.5v-10.33333h5.83333v10.33333z" fill="#2e2b20" stroke="none" stroke-width="0" stroke-linecap="butt"/><path d="M312.842,154.63796v-5.5h4.83333v5.5z" fill="#2e2b20" stroke="none" stroke-width="0" stroke-linecap="butt"/><path d="M325.81315,154.83333v-5h8v5z" fill="#2e2b20" stroke="none" stroke-width="0" stroke-linecap="butt"/><path d="M327.39941,160.1781v-10.33333h4.33333v10.33333z" fill="#2e2b20" stroke="none" stroke-width="0" stroke-linecap="butt"/><path d="M295.48534,139.06786v-5.74692h7.90202v5.74692z" fill="#2e2b20" stroke="none" stroke-width="0" stroke-linecap="butt"/><path d="M342.89748,139.21154v-6.03427h5.45958v6.03427z" fill="#2e2b20" stroke="none" stroke-width="0" stroke-linecap="butt"/><path d="M301.51959,132.31523v-1.86774h39.94112v1.86774z" fill="#2e2b20" stroke="none" stroke-width="0" stroke-linecap="butt"/><path d="M289.15567,201.87626l6.55127,-33.56782l-0.86331,-6.1632h11.63752v7.17167l-5.26663,31.50603z" fill="#2e2b20" stroke="none" stroke-width="0" stroke-linecap="butt"/><path d="M337.29423,164.28096v-3.16081h11.35017v3.16081z" fill="#2e2b20" stroke="none" stroke-width="0" stroke-linecap="butt"/><path d="M339.87004,198.87098l-2.31732,-34.87667v-7.17167h11.63752l-0.86331,6.1632l4.44462,40.30911z" data-paper-data="{&quot;index&quot;:null}" fill="#2e2b20" stroke="none" stroke-width="0" stroke-linecap="butt"/><path d="M306.32011,163.289l2.66791,1.92682" fill="none" stroke="#000000" stroke-width="0.5" stroke-linecap="round"/><path d="M305.28259,165.80869l3.40899,0.74108" fill="none" stroke="#000000" stroke-width="0.5" stroke-linecap="round"/><path d="M337.29745,162.84435l-2.37147,1.48217" fill="none" stroke="#000000" stroke-width="0.5" stroke-linecap="round"/><path d="M335.81529,165.80869l2.07504,-0.14822" fill="none" stroke="#000000" stroke-width="0.5" stroke-linecap="round"/></g></g></svg>