<svg version="1.1" xmlns="http://www.w3.org/2000/svg" xmlns:xlink="http://www.w3.org/1999/xlink" width="84" height="115.57187" viewBox="0,0,84,115.57187"><g transform="translate(-281.38415,-129.94498)"><g data-paper-data="{&quot;isPaintingLayer&quot;:true}" fill-rule="nonzero" stroke-linejoin="miter" stroke-miterlimit="10" stroke-dasharray="" stroke-dashoffset="0" style="mix-blend-mode: normal"><path d="M296.41017,186.05257v-47.38281h51.20401v47.38281z" fill="#000000" stroke="#000000" stroke-width="2" stroke-linecap="butt"/><path d="M312.45921,218.53273v-42.79738h18.34173v42.79738z" fill="#000000" stroke="#000000" stroke-width="2" stroke-linecap="butt"/><path d="M304.81681,206.68702v-20.63445h9.55299v20.63445z" fill="#000000" stroke="#000000" stroke-width="2" stroke-linecap="butt"/><path d="M328.89034,207.06914v-25.21988h12.99206v25.21988z" fill="#000000" stroke="#000000" stroke-width="2" stroke-linecap="butt"/><path d="M313.22344,244.13473v-26.36624h17.57749v26.36624z" fill="#000000" stroke="#000000" stroke-width="2" stroke-linecap="butt"/><path d="M299.46714,183.37774v-41.2689h45.85433v41.2689z" fill="#fff7bd" stroke="#000000" stroke-width="2" stroke-linecap="butt"/><path d="M295.07929,165.80024v-22.16293h18.52628l-0.87357,16.99626z" fill="#1d1b14" stroke="none" stroke-width="0" stroke-linecap="butt"/><path d="M330.24848,159.91812l-0.39876,-17.89869h17.8279v20.06536z" fill="#1d1b14" stroke="none" stroke-width="0" stroke-linecap="butt"/><path d="M293.73011,153.98241v-18.01244h54.9957v18.01244z" fill="#1d1b14" stroke="none" stroke-width="0" stroke-linecap="butt"/><path d="M312.45921,219.67908v-34.39075h18.72385v34.39075z" fill="#ff8080" stroke="#000000" stroke-width="2" stroke-linecap="butt"/><path d="M304.81681,200.57311v-13.37418h9.17087v13.37418z" fill="#004030" stroke="#000000" stroke-width="2" stroke-linecap="butt"/><path d="M330.80091,199.04463v-13.37418h11.08146v13.37418z" fill="#0f2a2b" stroke="#000000" stroke-width="2" stroke-linecap="butt"/><path d="M305.19892,207.06914v-6.49603h8.02451v6.49603z" fill="#fff7bd" stroke="#000000" stroke-width="2" stroke-linecap="butt"/><path d="M331.56516,207.06914v-7.26027h9.17087v7.26027z" fill="#fff7bd" stroke="#000000" stroke-width="2" stroke-linecap="butt"/><path d="M314.75192,242.22413v-21.39869h14.13842v21.39869z" fill="#ffbbbb" stroke="#000000" stroke-width="2" stroke-linecap="butt"/><path d="M313.22344,244.51685v-7.64239h16.81326v7.64239z" fill="#ffffff" stroke="#000000" stroke-width="2" stroke-linecap="butt"/><path d="M320.81206,242.22413l-0.7515,-22.54505" fill="none" stroke="#000000" stroke-width="2" stroke-linecap="round"/><path d="M310.41668,159.5v-10.33333h5.83333l-0.16667,8.83333z" fill="#1d1b14" stroke="none" stroke-width="0" stroke-linecap="butt"/><path d="M313.41668,155.5v-5.5h4.83333l-0.33333,4.83333z" fill="#1d1b14" stroke="none" stroke-width="0" stroke-linecap="butt"/><path d="M324.41668,154.66666l-1.33333,-4.83333h8v5z" fill="#1d1b14" stroke="none" stroke-width="0" stroke-linecap="butt"/><path d="M327.58337,157.66667l-1.33333,-9.83333h4.33333v10.33333z" fill="#1d1b14" stroke="none" stroke-width="0" stroke-linecap="butt"/><path d="M281.38415,173.19498v-21.25h14v21.25z" fill="#4c4c4c" stroke="none" stroke-width="NaN" stroke-linecap="butt"/><path d="M290.13415,157.19498v-8.5h5.5v8.5z" fill="#4c4c4c" stroke="none" stroke-width="0" stroke-linecap="butt"/><path d="M289.13415,177.44498v-6h6.75v6z" fill="#4c4c4c" stroke="none" stroke-width="0" stroke-linecap="butt"/><path d="M291.38415,155.44498v-25.5h2.75v25.5z" fill="#4c4c4c" stroke="none" stroke-width="0" stroke-linecap="butt"/><path d="M291.88415,133.44498v-2.75h57.5v2.75z" fill="#4c4c4c" stroke="none" stroke-width="0" stroke-linecap="butt"/><path d="M348.63416,152.44498v-21.75h2.75v21.75z" fill="#4c4c4c" stroke="none" stroke-width="0" stroke-linecap="butt"/><path d="M348.38416,179.19498v-33.75h6.5v33.75z" fill="#4c4c4c" stroke="none" stroke-width="0" stroke-linecap="butt"/><path d="M352.63416,174.19498v-23.75h12.75v23.75z" fill="#4c4c4c" stroke="none" stroke-width="0" stroke-linecap="butt"/><path d="M298.29487,163.69498v-0.71428h46.71429v0.71428z" fill="#000000" stroke="#000000" stroke-width="2" stroke-linecap="butt"/><path d="M302.29487,172.40927v-10.14286h18.14285v10.14286z" fill="#000000" stroke="#000000" stroke-width="2" stroke-linecap="butt"/><path d="M323.00915,172.40927v-10.28572h16.14285v10.28572z" fill="#000000" stroke="#000000" stroke-width="2" stroke-linecap="butt"/><path d="M301.92848,165.99798l2.5242,-2.07875" fill="none" stroke="#ffffff" stroke-width="0.5" stroke-linecap="round"/><path d="M307.86777,163.62226l-4.89991,3.56357" fill="none" stroke="#ffffff" stroke-width="0.5" stroke-linecap="round"/><path d="M323.4584,164.66164l1.93027,-1.48482" fill="none" stroke="#ffffff" stroke-width="0.5" stroke-linecap="round"/><path d="M323.75536,166.88887l4.45446,-3.11812" fill="none" stroke="#ffffff" stroke-width="0.5" stroke-linecap="round"/></g></g></svg>