<svg version="1.1" xmlns="http://www.w3.org/2000/svg" xmlns:xlink="http://www.w3.org/1999/xlink" width="96.72926" height="195.46892" viewBox="0,0,96.72926,195.46892"><g transform="translate(-280.13537,-81.6418)"><g data-paper-data="{&quot;isPaintingLayer&quot;:true}" fill-rule="nonzero" stroke-linejoin="miter" stroke-miterlimit="10" stroke-dasharray="" stroke-dashoffset="0" style="mix-blend-mode: normal"><path d="M313.90614,226.35616c2.50946,0.0017 5.02678,0.37319 7.54121,0.65788c-2.91282,1.32045 -7.25989,1.04081 -9.04173,-0.67853c0.50086,0.01206 1.00108,0.0197 1.50052,0.02066z" fill="#ffffff" stroke="none" stroke-width="0.5" stroke-linecap="butt"/><path d="M311.77483,244.40119c-0.4475,-2.75966 -0.07757,-5.77553 -0.41028,-8.56811c-0.12709,-1.06671 -1.49887,-3.35549 -1.25,-4.47543c0.38534,-1.73405 2.04876,-2.88402 4.17301,-3.50107c3.42777,0.01977 6.86986,0.71446 10.29886,0.92083c0.0324,0.00195 0.06481,0.00387 0.09722,0.00576c0.72638,0.4632 1.25488,1.03161 1.4934,1.69948c1.53564,4.2998 -0.03792,9.58826 -0.1875,13.99969c-0.12286,3.62358 0.43112,7.06407 0.21389,10.76975c-0.13398,2.28554 0.18175,6.0643 -0.90139,8.23057c-1.37105,2.7421 -3.77847,0.52344 -5.78078,1.19448c-4.46855,1.49757 -7.36251,-1.85782 -5.73858,-6.7296c-0.02832,-0.15063 -0.04314,-0.30603 -0.04314,-0.46488c0,-0.07879 0.00365,-0.15673 0.01078,-0.23367c0.15484,-4.05409 -1.31134,-8.75204 -1.97549,-12.8478z" fill="#ff0000" stroke="none" stroke-width="0.5" stroke-linecap="butt"/><path d="M316.07159,225.9412c2.49398,-0.3202 5.23271,-0.04677 7.21195,0.75744c-2.40301,-0.20607 -4.80879,-0.58775 -7.21195,-0.75744z" fill="#ff0000" stroke="none" stroke-width="0.5" stroke-linecap="butt"/><path d="M311.50032,264.86856c1.23703,-0.53784 3.29385,0.16513 4.39282,-0.42898c0.59616,-0.32228 0.86567,-0.89081 1.77813,-0.89081c0.50556,0 1.27658,0.62944 1.65309,0.56664c2.252,-0.37559 3.81047,-1.17359 6.07605,-0.60719c0.87185,0.21796 0.95538,1.44428 1.3811,1.65159c0.69558,0.33873 2.09852,-0.1857 2.96059,-0.07043c2.37446,0.31754 6.29783,2.38183 5.74149,5.50369c-0.65294,3.66388 -9.83986,0.98782 -12.53916,0.46823c-1.1838,-0.22787 -2.59038,-1.33343 -3.56288,-0.62099c-0.76001,0.55677 -6.5524,2.70725 -8.18067,3.23604c-0.58066,0.18858 -1.83874,-0.10851 -2.88434,-0.57896c-0.67602,-0.05939 -1.24958,-0.47586 -1.53092,-1.05966c-0.08337,-0.12187 -0.12956,-0.24227 -0.12956,-0.35806c-0.03674,-0.14683 -0.05624,-0.30049 -0.05624,-0.45871c0,-0.3018 0.07097,-0.58702 0.19714,-0.83988c0.70009,-2.15378 2.88645,-4.72259 4.70337,-5.51255z" fill="#ffffff" stroke="none" stroke-width="0.5" stroke-linecap="butt"/><path d="M298.02329,148.24318c0,0 -4.22307,-17.29411 -4.22307,-24.93623c0,-2.75768 -0.95763,-11.04159 3.54451,-14.96761c5.80536,-5.06248 17.7568,-5.54445 21.79391,-5.54445c3.39251,0 15.74324,-2.37128 21.09113,2.11689c6.84841,5.74747 6.45938,19.01196 6.45938,23.02044c0,7.07165 -3.82087,20.31096 -3.82087,20.31096c0,0 -15.47704,2.21209 -23.12634,2.21209c-7.28084,0 -21.71865,-2.21209 -21.71865,-2.21209z" fill="#ffffd6" stroke="#000000" stroke-width="3" stroke-linecap="butt"/><path d="M315.01262,265.93957l-4.6466,-34.56538l1.60202,-3.1091l8.27623,0.07805" fill="none" stroke="#000000" stroke-width="3" stroke-linecap="round"/><path d="M325.43523,228.82178l1.36006,2.3364l-0.6059,35.28374l9.92095,3.64186l-0.25117,5.27443l-15.32095,-2.51163" fill="none" stroke="#000000" stroke-width="3" stroke-linecap="round"/><path d="M319.28241,228.64184l1.25581,43.57682l-11.67909,3.01395l-2.26047,-4.39535l7.66048,-5.02326" fill="none" stroke="#000000" stroke-width="3" stroke-linecap="round"/><path d="M324.93472,263.30935l-10.17211,0.37674" fill="none" stroke="#000000" stroke-width="3" stroke-linecap="round"/><path d="M310.99519,266.82563l2.13489,1.75814" fill="none" stroke="#000000" stroke-width="3" stroke-linecap="round"/><path d="M310.74401,269.46284l-1.88372,-1.38139" fill="none" stroke="#000000" stroke-width="3" stroke-linecap="round"/><path d="M327.32079,267.57912l3.01395,-1.50698" fill="none" stroke="#000000" stroke-width="3" stroke-linecap="round"/><path d="M333.22313,266.82563l-1.75815,1.50698" fill="none" stroke="#000000" stroke-width="3" stroke-linecap="round"/><path d="M312.89933,204.85804c-0.17539,5.29339 -3.34851,9.78449 -5.13895,3.3992c-1.37102,-4.88951 -0.33974,-10.53688 -0.3125,-15.8083c0.01675,-3.24134 4.04647,-5.04174 4.8125,-1.61676c0.93627,4.18611 0.5625,9.27381 0.5625,13.47651z" fill="#ffffd6" stroke="none" stroke-width="0.5" stroke-linecap="butt"/><path d="M326.82288,206.46085c-2.87169,0 -3.05656,-10.7656 -2.58778,-14.45342c0.00378,-0.03113 0.00783,-0.06213 0.01216,-0.09297c0.23044,-1.64213 1.24005,-2.87867 2.45062,-2.87867c1.38071,0 2.5,1.60855 2.5,3.59279c0,0.4034 -0.04626,0.79125 -0.13157,1.15323c1.18484,5.34188 0.20078,12.67904 -2.24343,12.67904z" fill="#ffffd6" stroke="none" stroke-width="0.5" stroke-linecap="butt"/><path d="M308.55204,187.82012c-2.22479,-6.39457 -0.32308,-16.43088 -0.0625,-23.07689c0.13169,-3.3588 -1.18221,-6.43199 1.00696,-8.87896c1.98412,-2.21777 3.16582,1.17878 3.74676,3.52807c0.01854,-0.04541 0.03812,-0.09041 0.05878,-0.13493c2.33865,-5.04137 4.3278,1.23077 5.84819,3.23374c0.85258,1.1232 1.2335,-3.19566 2.33931,-3.68284c3.10095,-1.36614 7.51792,-7.56268 10.02118,-4.49962c0.42723,0.52278 -0.78259,1.66408 -0.38061,2.77183c0.93854,2.58633 -1.04056,4.93361 -1.59369,6.68948c-1.33858,4.2492 -1.8541,6.83143 -1.21427,11.87729c0.4751,3.74683 3.11395,9.32415 1.31016,12.91693c-0.87273,1.73831 -2.98638,0.75068 -4.02952,-0.4493c-0.32118,-0.36947 -2.02193,-2.01324 -2.07399,-1.77794c-0.88989,4.02254 0.85131,5.14373 0.85131,8.51031c0,9.29946 1.73022,19.42534 0.875,28.52032c-0.16865,1.79348 -0.94033,3.16769 -2.02613,4.13928c-2.77409,-0.41323 -5.55079,-1.05406 -8.32189,-1.06633c-0.65503,-0.00181 -1.31147,-0.02014 -1.96897,-0.04763c-1.72604,-3.09708 0.84568,-4.18439 -0.28717,-7.44046c-0.18291,-0.49927 -0.28643,-1.06796 -0.28643,-1.6714c0,-0.03267 0.0003,-0.06521 0.0009,-0.09767c0.08288,-8.66522 0.83786,-17.97591 0.8741,-26.91244c0.00456,-1.12414 0.00832,-2.24829 0.01137,-3.37244c-0.75948,2.8337 -3.47424,4.44151 -4.69887,0.92163z" fill="#ffffff" stroke="none" stroke-width="0.5" stroke-linecap="butt"/><path d="M318.90218,146.71322c0.72138,0.07568 1.1627,1.23704 1.73769,1.86766c0.16734,0.18354 1.30021,-1.0874 2.54778,0.74923c1.94393,2.86179 -1.61228,12.48781 -4.49999,12.25725c-2.75794,-0.22019 -3.66756,-6.25678 -3.64704,-9.30517c0.00236,-0.35024 -0.0529,-3.21043 0.44792,-3.5392l1.52991,-1.1274c0.06043,0 0.1202,0.0041 0.17917,0.01209c0.58014,-0.0552 1.10547,-0.97732 1.70455,-0.91447z" fill="#ffffd6" stroke="none" stroke-width="0.5" stroke-linecap="butt"/><path d="M308.36332,204.90506c0.16905,-1.89749 0.31732,-3.75235 0.37858,-5.42788c0.02564,-0.70109 -1.44854,-0.30402 -1.40795,-0.96843c0.40467,-6.62509 1.41322,-15.79676 1.30684,-19.87862c-0.21043,-8.07441 -1.07237,-22.98335 -1.07237,-22.98335l7.34652,1.895" fill="none" stroke="#000000" stroke-width="3" stroke-linecap="round"/><path d="M322.41844,158.08317l-3.76745,4.51189l-3.17093,-6.94831l-0.56511,-5.14355l12.63708,-1.14556" fill="none" stroke="#000000" stroke-width="3" stroke-linecap="round"/><path d="M332.24521,153.75178l-8.66513,3.24855l0.56512,-6.49711" fill="none" stroke="#000000" stroke-width="3" stroke-linecap="round"/><path d="M312.84286,225.76154l0.75349,-67.67837" fill="none" stroke="#000000" stroke-width="3" stroke-linecap="round"/><path d="M325.88557,227.80699l-0.17059,-0.42114l-0.94186,-68.49052" fill="none" stroke="#000000" stroke-width="3" stroke-linecap="round"/><path d="M329.46245,201.77671c0.16517,-1.9822 0.34321,-4.1038 0.47238,-6.54959c0.47731,-9.03769 -1.40055,-18.0507 -1.36566,-22.53c0.04442,-5.70328 2.5458,-17.32106 2.5458,-17.32106" fill="none" stroke="#000000" stroke-width="3" stroke-linecap="round"/><path d="M311.04595,217.06192l-3.57907,-12.45282" fill="none" stroke="#000000" stroke-width="3" stroke-linecap="round"/><path d="M329.34948,200.99959l-4.7721,15.15996" fill="none" stroke="#000000" stroke-width="3" stroke-linecap="round"/><path d="M311.44788,185.44299l-4,7.36523" fill="none" stroke="#000000" stroke-width="3" stroke-linecap="round"/><path d="M324.19788,187.23938l4.5,2.6946" fill="none" stroke="#000000" stroke-width="3" stroke-linecap="round"/><path d="M367.73647,130.95873c-0.0168,0.01681 -0.03361,0.0333 -0.05042,0.04946c-0.04398,0.10276 -0.09321,0.20314 -0.14794,0.3008c-3.83874,6.84927 -6.02776,0.44943 -9.54441,-0.36845c-0.91424,-0.21263 -1.94387,0.30355 -2.81557,-0.04454c-1.90909,-0.76235 -3.6281,-2.22867 -5.15132,-3.88917l-1.96617,-0.81923c-0.76143,-0.29697 -1.34149,-0.95642 -1.52812,-1.76628c-2.40462,-0.12826 -4.80771,-0.0637 -7.23048,-0.0637c-3.31682,0 -6.59106,-0.1921 -9.85168,-0.4498c-2.58312,0.50521 -5.09447,0.86246 -7.37967,-0.64186c-2.72696,-0.23832 -5.45972,-0.4556 -8.21527,-0.57757c-0.29073,-0.01287 -0.58188,-0.02492 -0.87341,-0.03632c-0.96181,0.88488 -1.86404,1.62257 -2.45819,1.8757c-1.61036,0.68606 -3.87617,0.26221 -5.72894,-0.34743c-0.52706,0.07122 -1.05615,0.13389 -1.58767,0.18637c-1.36415,0.13469 -2.75549,0.47239 -4.11839,0.45063c-0.21845,0.22824 -0.47097,0.39448 -0.78611,0.44957c-1.16777,0.20413 -2.47003,0.02538 -3.6107,-0.46106c-0.83846,1.6139 -1.29935,3.57576 -2.76126,4.61509c-2.07239,1.47336 -4.28284,1.84592 -5.76869,1.13508l-2.36368,1.18184c-0.34741,0.18291 -0.74312,0.28642 -1.16301,0.28642c-1.38071,0 -2.5,-1.11929 -2.5,-2.5c0,-0.32934 0.06368,-0.6438 0.1794,-0.93174l0.97977,-2.61273l0.03981,0.01494l0.00941,-0.13642c1.04575,-2.09535 2.05639,-4.20921 3.00707,-6.34938c0,0 1.01535,-2.28452 3.29987,-1.26918c0.71188,0.3164 1.10335,0.75602 1.30496,1.21136c0.07783,-0.02194 0.15721,-0.0402 0.23793,-0.05459c-0.03814,-0.17356 -0.05823,-0.35389 -0.05823,-0.53891c0,-1.38071 1.11929,-2.5 2.5,-2.5h2.66666v0.10867l0.22451,-0.09857c0.41934,0.07625 0.83996,0.14689 1.26171,0.21243c0.18116,0.00051 0.36823,0.03455 0.55837,0.08373c1.10334,0.15955 2.21402,0.28579 3.32955,0.38747c0.65305,-0.00893 1.30632,-0.0267 1.95918,-0.02707c3.39822,-0.00193 6.79644,-0.00075 10.19467,-0.00022c2.96135,-3.31425 6.33956,-7.66079 10.71234,-5.33705c1.3589,0.72213 1.62266,2.51183 1.93962,4.1509c7.68653,-0.36463 15.37818,0.49843 22.97994,2.02002c0.21744,-0.00804 0.43466,-0.01798 0.65144,-0.03166c0.07558,0.06672 0.15256,0.13724 0.23088,0.21127c0.78254,0.16195 1.5641,0.33066 2.34455,0.5055c0.29197,-0.11952 0.61157,-0.18542 0.94657,-0.18542c0.10572,0 0.20991,0.00656 0.31218,0.0193l2.9639,0.32932l-0.03287,0.2958c0.21674,-0.04866 0.43348,-0.09733 0.65022,-0.14599l0.40955,0.51073l0.15012,-0.21016l1.52874,1.09196c1.28352,0.34173 2.56316,0.69528 3.83844,1.05778l0.32653,0.44175l0.12032,-0.14438l1.93363,1.61135c1.42084,0.84126 2.61325,1.82776 3.274,3.01912c0.18198,0.32812 0.34497,0.68675 0.47951,1.06238l0.14684,0.1266c0,0 1.76776,1.76777 0,3.53554zM319.4523,116.25787c0.2408,-0.02908 0.48163,-0.05684 0.72247,-0.08328c-0.02611,-0.0528 -0.06306,-0.1018 -0.11307,-0.14633c-0.19742,-0.17581 -0.40307,-0.01889 -0.6094,0.22961z" fill="#21211c" stroke="none" stroke-width="0.5" stroke-linecap="butt"/><path d="M285.1975,118.50042v-35.85862h70.40632v35.85862z" fill="#777777" stroke="#000000" stroke-width="2" stroke-linecap="butt"/><path d="M355.60382,103.66238v-6.3886h20.26081v6.3886z" fill="#000000" stroke="#000000" stroke-width="2" stroke-linecap="butt"/><path d="M311.31883,130.2029c3.48598,-2.98799 7.39811,2.06176 6.89987,5.65474c-0.3243,2.33868 -3.03825,2.80133 -5.30746,2.40283c-0.21992,0.06327 -0.45227,0.09717 -0.69254,0.09717c-1.04026,0 -1.93211,-0.63535 -2.30869,-1.53917c-0.11409,-0.17505 -0.17029,-0.35676 -0.15615,-0.54065c-0.02312,-0.13661 -0.03516,-0.27697 -0.03516,-0.42018c0,-0.06537 0.00252,-0.13016 0.00744,-0.19427c0.06198,-1.87841 -0.12872,-3.98498 1.59269,-5.46046z" fill="#ffffff" stroke="none" stroke-width="0.5" stroke-linecap="butt"/><path d="M326.81596,132.90628c2.43284,-4.86568 9.53549,-1.42959 6.75691,3.20137c-2.71859,4.53098 -10.20453,0.67984 -6.78303,-3.08382z" fill="#ffffff" stroke="none" stroke-width="0.5" stroke-linecap="butt"/><path d="M309.7187,137.52431l-0.5,-7.5l9,1l1.16667,7.33333l-7.83334,-0.83333" fill="none" stroke="#000000" stroke-width="3" stroke-linecap="round"/><path d="M333.55203,143.85764l-18.5,1l-8.66666,-3.16666" fill="none" stroke="#000000" stroke-width="3" stroke-linecap="round"/><path d="M293.47106,125.25471l51.65681,-16.02371" fill="none" stroke="#000000" stroke-width="3" stroke-linecap="round"/><path d="M304.178,130.73982l-2.09394,-6.97602l13.41541,-4.02681l2.09394,6.97601z" fill="#000000" stroke="#000000" stroke-width="3" stroke-linecap="butt"/><path d="M324.35348,124.15854l-2.09394,-6.97601l13.41541,-4.02681l2.09394,6.97601z" fill="#000000" stroke="#000000" stroke-width="3" stroke-linecap="butt"/><path d="M309.04654,125.25471v-2.80135h4.14599v2.80135z" fill="#00ff90" stroke="#000000" stroke-width="3" stroke-linecap="butt"/><path d="M307.31427,126.35372l-1.21203,-3.4935l4.34041,-1.50585l1.21203,3.49349z" fill="#00ff90" stroke="none" stroke-width="0" stroke-linecap="butt"/><path d="M328.05794,120.37671l-1.20601,-3.37683l4.64313,-1.65826l1.20601,3.37683z" fill="#00ff90" stroke="none" stroke-width="0" stroke-linecap="butt"/><path d="M307.30679,126.65724l-0.4818,-1.26706l4.63363,-1.53799l0.4818,1.26706z" fill="#ffffff" stroke="none" stroke-width="0" stroke-linecap="butt"/><path d="M328.33049,120.67596l-0.4818,-1.26706l4.63362,-1.53799l0.48181,1.26707z" fill="#ffffff" stroke="none" stroke-width="0" stroke-linecap="butt"/><path d="M308.0358,129.80456l-0.65277,-3.01678l4.24302,-1.60074l0.65277,3.01679z" fill="#ffeb00" stroke="none" stroke-width="0" stroke-linecap="butt"/><path d="M329.57545,123.04498l-0.7885,-2.68808l3.65579,-1.07237l0.7885,2.68808z" fill="#ffeb00" stroke="none" stroke-width="0" stroke-linecap="butt"/><path d="M315.21106,159.23951c0.76363,-0.90897 1.13668,1.52363 1.63241,2.42136c0.62395,1.1299 2.31049,-0.67805 2.93432,1.38148c1.05483,3.4825 1.05483,5.65904 0,9.14152c-0.89054,2.9401 -4.27641,-0.90413 -4.9892,-0.92224c-0.00526,0.00017 -0.01052,0.00025 -0.01579,0.00025c-0.87384,0 -1.58224,-2.33874 -1.58224,-5.22373c0,-1.81721 0.28106,-3.41771 0.70749,-4.35351c0.33817,-1.04342 0.77993,-1.81062 1.31302,-2.44518z" fill="#000000" stroke="none" stroke-width="0.5" stroke-linecap="butt"/><path d="M314.57424,214.4379c0.18793,-7.49647 5.18331,-24.41197 7.483,-23.99019c2.72841,0.50043 2.94088,30.05112 2.36874,36.21278c-0.46508,5.00876 -6.0367,0.24944 -6.93473,0.24944c-0.27919,0.81667 -0.64647,1.31246 -1.04881,1.31246c-0.50922,0 -0.96226,-0.7942 -1.25167,-2.02785c-0.81103,-2.73253 -0.72303,-7.50841 -0.61653,-11.75665z" fill="#e2ff00" stroke="none" stroke-width="0.5" stroke-linecap="butt"/><path d="M324.30404,206.80121c-0.24286,2.40538 -3.2722,5.88626 -3.82423,2.13809c-0.06076,-0.13717 -0.11847,-0.28797 -0.17273,-0.45106c-0.73099,3.96104 -3.43879,5.90064 -4.03163,2.47541c-0.46635,-0.90868 -0.7792,-2.58465 -0.7792,-4.50189c0,-2.88499 0.70839,-5.22373 1.58224,-5.22373c0.14078,0 0.27728,0.06071 0.4072,0.17462c0.9447,-1.23802 1.96621,-1.45602 2.54129,0.45849c0.27915,-1.48311 0.77709,-2.47056 1.34489,-2.47056c0.1713,0 0.33624,0.08987 0.49073,0.25611c1.49743,-0.95186 2.93003,2.30532 2.44144,7.1445z" fill="#000000" stroke="none" stroke-width="0.5" stroke-linecap="butt"/><path d="M316.60935,212.23656c0.0875,-1.42855 0.20999,-2.51546 0.35795,-3.30931c0.2306,-1.23722 0.52309,-1.76271 0.84144,-1.76046c0.12259,-0.10059 0.25083,-0.15396 0.38285,-0.15396c0.87049,0 1.57678,2.32079 1.58221,5.19045c0.61047,3.09359 0.98493,6.94248 0.72546,9.51247c-1.5648,15.4984 -3.7488,-4.11776 -3.88162,-8.94116z" fill="#0090ff" stroke="none" stroke-width="0.5" stroke-linecap="butt"/><path d="M323.41486,189.36135c-1.5,2 -3.5,0.5 -3.5,0.5l-0.71114,-0.65918c-0.38315,-0.308 -0.66473,-1.00596 -1.14943,-0.92398c-0.40913,0.06921 -0.25702,0.78906 -0.38554,1.18362c0,0 -1.60046,1.92057 -3.52102,0.32011c-1.92055,-1.60046 -0.32009,-3.52103 -0.32009,-3.52103c0.9826,-0.93879 1.62755,-2.49419 2.94779,-2.81637c1.39897,-0.34139 2.78927,0.71733 4.1839,1.07601l1.95553,1.34082c0,0 2,1.5 0.5,3.5z" fill="#b5b5b5" stroke="none" stroke-width="0.5" stroke-linecap="butt"/><path d="M322.40547,204.91292c0.66382,1.25233 1.19122,3.82547 1.51414,6.74454c0.68496,6.19186 0.44984,13.94006 -1.35513,13.94006c-1.82955,0 -2.15328,-16.92228 -1.52261,-18.11208z" fill="#0090ff" stroke="none" stroke-width="0.5" stroke-linecap="butt"/><path d="M323.24819,195.52801c0,2.5 -2.5,2.5 -2.5,2.5c-1,0 -4.66666,0 -5.66666,0c0,0 -2.5,0 -2.5,-2.5c0,-1.35275 0.73197,-1.97352 1.40377,-2.2584c0.26578,-1.0951 1.25271,-1.90826 2.42956,-1.90826c1.08851,0 2.01455,0.69567 2.35775,1.66666h1.97558c0,0 2.5,0 2.5,2.5z" fill="#b5b5b5" stroke="none" stroke-width="0.5" stroke-linecap="butt"/><path d="M313.7392,227.46104l0.79506,-68.24761h1.74916l-0.79507,67.72262z" fill="#027b00" stroke="#000000" stroke-width="0.5" stroke-linecap="butt"/><path d="M322.62818,228.96966l-0.79507,-69.54595h1.74915l0.79507,70.08505z" data-paper-data="{&quot;index&quot;:null}" fill="#027b00" stroke="#000000" stroke-width="0.5" stroke-linecap="butt"/><path d="M315.85276,262.84533l-4.16667,-30.6719l1.22194,-3.1001l10.57061,-0.21519l2.17921,2.64863l-0.33334,30.50524z" fill="#00ffe6" stroke="none" stroke-width="0" stroke-linecap="butt"/><path d="M317.5862,227.77367l0.69834,34.59779" fill="none" stroke="none" stroke-width="0" stroke-linecap="round"/><path d="M315.21132,245.03059c0,-1.05944 0.52006,-1.91826 1.16159,-1.91826c0.64153,0 1.16159,0.85883 1.16159,1.91826c0,1.05944 -0.52006,1.91825 -1.16159,1.91825c-0.64153,0 -1.16159,-0.85882 -1.16159,-1.91825z" fill="#ffffff" stroke="none" stroke-width="0" stroke-linecap="butt"/><path d="M314.06153,233.13022c0,-1.05944 0.52006,-1.91825 1.16159,-1.91825c0.64153,0 1.16159,0.85882 1.16159,1.91825c0,1.05944 -0.52006,1.91826 -1.16159,1.91826c-0.64153,0 -1.16159,-0.85884 -1.16159,-1.91826z" fill="#ffffff" stroke="none" stroke-width="0" stroke-linecap="butt"/><path d="M319.08132,241.22714c0,-1.05944 0.52006,-1.91825 1.16159,-1.91825c0.64153,0 1.16159,0.85882 1.16159,1.91825c0,1.05944 -0.52006,1.91826 -1.16159,1.91826c-0.64153,0 -1.16159,-0.85883 -1.16159,-1.91826z" fill="#ffffff" stroke="none" stroke-width="0" stroke-linecap="butt"/><path d="M318.84784,234.6725c0,-1.05944 0.52006,-1.91825 1.16159,-1.91825c0.64153,0 1.16158,0.85883 1.16158,1.91825c0,1.05944 -0.52005,1.91827 -1.16158,1.91827c-0.64153,0 -1.16159,-0.85883 -1.16159,-1.91827z" fill="#ffffff" stroke="none" stroke-width="0" stroke-linecap="butt"/><path d="M318.4113,248.75574c0,-1.38071 1.11929,-2.5 2.5,-2.5c1.38071,0 2.5,1.11929 2.5,2.5c0,1.38071 -1.11929,2.5 -2.5,2.5c-1.38071,0 -2.5,-1.11929 -2.5,-2.5z" fill="#00ffe6" stroke="none" stroke-width="0.5" stroke-linecap="butt"/><path d="M318.57796,250.08907c0,-1.38071 1.11929,-2.5 2.5,-2.5c1.38071,0 2.5,1.11929 2.5,2.5c0,1.38071 -1.11929,2.5 -2.5,2.5c-1.38071,0 -2.5,-1.11929 -2.5,-2.5z" fill="#ffffff" stroke="none" stroke-width="0.5" stroke-linecap="butt"/><path d="M315.9113,257.75574c0,-1.38071 1.11929,-2.5 2.5,-2.5c1.38071,0 2.5,1.11929 2.5,2.5c0,1.38071 -1.11929,2.5 -2.5,2.5c-1.38071,0 -2.5,-1.11929 -2.5,-2.5z" fill="#ffffff" stroke="none" stroke-width="0.5" stroke-linecap="butt"/><path d="M318.75204,227.65574l1.2,35.40001" fill="none" stroke="#000000" stroke-width="3" stroke-linecap="round"/><path d="M327.05204,126.85764l-1,-7.5" fill="none" stroke="#000000" stroke-width="NaN" stroke-linecap="round"/><path d="M314.1,132.2l1,4.8" fill="none" stroke="#000000" stroke-width="3" stroke-linecap="round"/><path d="M316.1,132.2l0.8,4" fill="none" stroke="#000000" stroke-width="3" stroke-linecap="round"/><path d="M327.7,131.8l-0.64796,5.7243l-0.5,-6.33333l6.5,-1.33334l1.5,8l-9.83334,1.5l0.16667,-8.66666" fill="none" stroke="#000000" stroke-width="3" stroke-linecap="round"/><path d="M328.5,133.2l0.8,3.2" fill="none" stroke="#000000" stroke-width="3" stroke-linecap="round"/></g></g></svg>