<svg version="1.1" xmlns="http://www.w3.org/2000/svg" xmlns:xlink="http://www.w3.org/1999/xlink" width="53.20401" height="107.84709" viewBox="0,0,53.20401,107.84709"><g transform="translate(-295.41017,-137.66976)"><g data-paper-data="{&quot;isPaintingLayer&quot;:true}" fill-rule="nonzero" stroke-linejoin="miter" stroke-miterlimit="10" stroke-dasharray="" stroke-dashoffset="0" style="mix-blend-mode: normal"><path d="M296.41017,186.05257v-47.38281h51.20401v47.38281z" fill="#000000" stroke="#000000" stroke-width="2" stroke-linecap="butt"/><path d="M312.45921,218.53273v-42.79738h18.34173v42.79738z" fill="#000000" stroke="#000000" stroke-width="2" stroke-linecap="butt"/><path d="M304.81683,206.68702v-20.63445h9.55299v20.63445z" fill="#000000" stroke="#000000" stroke-width="2" stroke-linecap="butt"/><path d="M328.89036,207.06914v-25.21988h12.99206v25.21988z" fill="#000000" stroke="#000000" stroke-width="2" stroke-linecap="butt"/><path d="M313.22346,244.13473v-26.36624h17.57749v26.36624z" fill="#000000" stroke="#000000" stroke-width="2" stroke-linecap="butt"/><path d="M299.46716,183.37774v-41.2689h45.85433v41.2689z" fill="#fff7bd" stroke="#000000" stroke-width="2" stroke-linecap="butt"/><path d="M299.46716,165.80024v-22.16293h14.13842v22.16293z" fill="#560e00" stroke="#000000" stroke-width="2" stroke-linecap="butt"/><path d="M331.18307,165.41812v-21.39869h14.90266v21.39869z" fill="#560e00" stroke="#000000" stroke-width="2" stroke-linecap="butt"/><path d="M299.84927,154.71878v-10.69934h45.85433v10.69934z" fill="#560e00" stroke="#000000" stroke-width="2" stroke-linecap="butt"/><path d="M309.78436,173.82475v-5.48146h9.93511v5.48146z" fill="#ffffff" stroke="#000000" stroke-width="2" stroke-linecap="butt"/><path d="M324.30492,173.82475v-5.38146h10.69934v5.38146z" fill="#ffffff" stroke="#000000" stroke-width="2" stroke-linecap="butt"/><path d="M314.91616,172.61415v-1.50663h4.20331v1.50663z" fill="#2d2d2d" stroke="#000000" stroke-width="2" stroke-linecap="butt"/><path d="M330.21549,173.06051v-2.45299h4.58543v2.45299z" fill="#2d2d2d" stroke="#000000" stroke-width="2" stroke-linecap="butt"/><path d="M312.45921,219.67908v-34.39075h18.72385v34.39075z" fill="#ff9494" stroke="#000000" stroke-width="2" stroke-linecap="butt"/><path d="M304.81683,200.57311v-13.37418h9.17087v13.37418z" fill="#ff9a9a" stroke="#000000" stroke-width="2" stroke-linecap="butt"/><path d="M331.05093,200.04463v-13.37418h11.08146v13.37418z" fill="#ff8686" stroke="#000000" stroke-width="2" stroke-linecap="butt"/><path d="M305.19894,207.06914v-6.49603h8.02451v6.49603z" fill="#fff7bd" stroke="#000000" stroke-width="2" stroke-linecap="butt"/><path d="M331.56516,207.06914v-7.26027h9.17087v7.26027z" fill="#fff7bd" stroke="#000000" stroke-width="2" stroke-linecap="butt"/><path d="M314.75194,242.22413v-21.39869h14.13842v21.39869z" fill="#ff0000" stroke="#000000" stroke-width="2" stroke-linecap="butt"/><path d="M313.22346,244.51685v-7.64239h16.81326v7.64239z" fill="#ffffff" stroke="#000000" stroke-width="2" stroke-linecap="butt"/><path d="M320.06056,219.67908l0.7515,22.54505" fill="none" stroke="#000000" stroke-width="2" stroke-linecap="round"/><path d="M326.73544,203.07178c0.22703,0.10467 0.12236,0.3317 0.12236,0.3317l-0.0046,0.00997c-0.9096,1.93638 -3.46453,4.35291 -5.17789,5.62181c-4.02458,0.09322 -4.32972,-3.12412 -5.039,-6.43408c0,0 -0.05238,-0.24445 0.19207,-0.29683c0.24445,-0.05238 0.29683,0.19207 0.29683,0.19207c0.65332,3.04884 0.79744,5.94954 4.38793,6.06587c1.56531,-1.2998 4.04965,-3.50274 4.88599,-5.35819l0.0046,-0.00997c0,0 0.10467,-0.22703 0.3317,-0.12236z" fill="#000000" stroke="none" stroke-width="0.5" stroke-linecap="butt"/><path d="M320.13077,202.04881c0,-0.13807 0.11193,-0.25 0.25,-0.25c0.13807,0 0.25,0.11193 0.25,0.25c0,0.13807 -0.11193,0.25 -0.25,0.25c-0.13807,0 -0.25,-0.11193 -0.25,-0.25z" fill="#000000" stroke="none" stroke-width="0.5" stroke-linecap="butt"/><path d="M325.13077,200.29881c0,-0.13807 0.11193,-0.25 0.25,-0.25c0.13807,0 0.25,0.11193 0.25,0.25c0,0.13807 -0.11193,0.25 -0.25,0.25c-0.13807,0 -0.25,-0.11193 -0.25,-0.25z" fill="#000000" stroke="none" stroke-width="0.5" stroke-linecap="butt"/></g></g></svg>