<svg version="1.1" xmlns="http://www.w3.org/2000/svg" xmlns:xlink="http://www.w3.org/1999/xlink" width="61.05865" height="96.80802" viewBox="0,0,61.05865,96.80802"><defs><radialGradient cx="309.10924" cy="96.88387" r="40.65304" gradientUnits="userSpaceOnUse" id="color-1"><stop offset="0" stop-color="#eafffd"/><stop offset="1" stop-color="#00ffe6"/></radialGradient></defs><g transform="translate(-289.9217,-74.79862)"><g data-paper-data="{&quot;isPaintingLayer&quot;:true}" fill-rule="nonzero" stroke-linejoin="miter" stroke-miterlimit="10" stroke-dasharray="" stroke-dashoffset="0" style="mix-blend-mode: normal"><path d="M289.9217,171.60664v-96.80802h61.05865v96.80802z" fill="#000000" stroke="none" stroke-width="0" stroke-linecap="butt"/><path d="M297.51448,171.29028v-96.49165h53.1495v96.49166z" fill="#333333" stroke="none" stroke-width="0" stroke-linecap="butt"/><path d="M314.28189,80.49321l15.8183,0.63273" fill="none" stroke="none" stroke-width="0" stroke-linecap="round"/><path d="M313.83407,80.41534c0,1.72136 -1.3456,3.11679 -3.00548,3.11679c-1.65988,0 -3.00547,-1.39543 -3.00547,-3.11679c0,-1.72136 1.3456,-3.11679 3.00547,-3.11679c1.65988,0 3.00548,1.39544 3.00548,3.11679z" fill="#ffffff" stroke="none" stroke-width="0" stroke-linecap="butt"/><path d="M319.20116,80.39965h18.98196" fill="none" stroke="#ffffff" stroke-width="3" stroke-linecap="round"/><path d="M300.25099,167.43351v-81.30608h47.45491v81.30608z" fill="url(#color-1)" stroke="none" stroke-width="0" stroke-linecap="butt"/><path d="M302.78192,96.25114l7.59278,-6.32733" fill="none" stroke="#ffffff" stroke-width="0.5" stroke-linecap="round"/><path d="M322.08024,90.87292l-19.61469,17.40013" fill="none" stroke="#ffffff" stroke-width="0.5" stroke-linecap="round"/><path d="M292.78428,99.3783v-10.55042h2.59703v10.55042z" fill="none" stroke="#ffffff" stroke-width="0.5" stroke-linecap="butt"/><path d="M292.62196,113.44377v-11.5243h2.92165v11.5243z" fill="none" stroke="#ffffff" stroke-width="0.5" stroke-linecap="butt"/></g></g></svg>