<svg version="1.1" xmlns="http://www.w3.org/2000/svg" xmlns:xlink="http://www.w3.org/1999/xlink" width="80.94643" height="157.67029" viewBox="0,0,80.94643,157.67029"><g transform="translate(-278.35095,-105.08279)"><g data-paper-data="{&quot;isPaintingLayer&quot;:true}" fill-rule="nonzero" stroke-linejoin="miter" stroke-miterlimit="10" stroke-dasharray="" stroke-dashoffset="0" style="mix-blend-mode: normal"><path d="M313.76396,198.75972c-0.17539,3.68333 -3.34851,6.80841 -5.13895,2.36529c-1.37102,-3.4023 -0.33974,-7.33195 -0.3125,-11c0.01675,-2.25545 4.04647,-3.50823 4.8125,-1.125c0.93627,2.91285 0.5625,6.45306 0.5625,9.37745z" fill="#ffffd6" stroke="none" stroke-width="0.5" stroke-linecap="butt"/><path d="M327.68751,199.87501c-2.87169,0 -3.05656,-7.4911 -2.58778,-10.05722c0.00378,-0.02166 0.00783,-0.04323 0.01216,-0.06469c0.23044,-1.14266 1.24005,-2.00309 2.45062,-2.00309c1.38071,0 2.5,1.11929 2.5,2.5c0,0.2807 -0.04626,0.55058 -0.13157,0.80246c1.18484,3.71708 0.20078,8.82254 -2.24343,8.82254z" fill="#ffffd6" stroke="none" stroke-width="0.5" stroke-linecap="butt"/><path d="M308.75001,186.12501c-2.22479,-4.44958 -0.32308,-11.43322 -0.0625,-16.05776c0.13169,-2.33718 -1.18221,-4.47562 1.00696,-6.17831c1.98412,-1.54321 3.16582,0.82024 3.74676,2.45496c0.01854,-0.0316 0.03812,-0.06291 0.05878,-0.09389c2.33865,-3.50797 4.3278,0.85642 5.84819,2.25016c0.85258,0.78156 1.2335,-2.22366 2.33931,-2.56266c3.10095,-0.95061 7.51792,-5.26239 10.02118,-3.131c0.42723,0.36377 -0.78259,1.15793 -0.38061,1.92874c0.93854,1.79967 -1.04056,3.43299 -1.59369,4.65479c-1.33858,2.95675 -1.8541,4.75356 -1.21427,8.26465c0.4751,2.60718 3.11395,6.48809 1.31016,8.98808c-0.87273,1.20958 -2.98638,0.52235 -4.02952,-0.31264c-0.32118,-0.25709 -2.02193,-1.40089 -2.07399,-1.23716c-0.88989,2.79903 0.85131,3.5792 0.85131,5.92179c0,6.47091 1.73022,13.51687 0.875,19.84549c-0.61487,4.55003 -9.24587,5.22196 -11.89058,2.57726c-2.52904,-2.52903 0.49826,-3.22582 -0.71357,-5.64948c-0.18291,-0.34741 -0.28643,-0.74312 -0.28643,-1.16302c0,-0.02273 0.0003,-0.04538 0.0009,-0.06796c0.08288,-6.02958 0.83786,-12.5083 0.8741,-18.72667c0.00456,-0.78222 0.00832,-1.56444 0.01137,-2.34667c-0.75948,1.97179 -3.47424,3.09056 -4.69887,0.6413z" fill="#ffffff" stroke="none" stroke-width="0.5" stroke-linecap="butt"/><path d="M312.7228,230.04355c-0.4475,-2.75966 -0.07757,-5.77553 -0.41028,-8.56811c-0.12709,-1.06671 -1.49887,-3.35549 -1.25,-4.47543c1.18869,-5.34912 14.53917,-5.14033 16.0625,-0.875c1.53564,4.2998 -0.03792,9.58826 -0.1875,13.99969c-0.12286,3.62358 0.43112,7.06407 0.21389,10.76975c-0.13398,2.28554 0.18175,6.0643 -0.90139,8.23057c-1.37105,2.7421 -3.77847,0.52344 -5.78078,1.19448c-4.46855,1.49757 -7.36251,-1.85782 -5.73858,-6.7296c-0.02832,-0.15063 -0.04314,-0.30603 -0.04314,-0.46488c0,-0.07879 0.00365,-0.15673 0.01078,-0.23367c0.15484,-4.05409 -1.31134,-8.75204 -1.97549,-12.8478z" fill="#ff0000" stroke="none" stroke-width="0.5" stroke-linecap="butt"/><path d="M319.10014,157.52131c0.72138,0.05266 1.1627,0.86078 1.73769,1.29959c0.16734,0.12771 1.30021,-0.75666 2.54778,0.52134c1.94393,1.99134 -1.61228,8.68948 -4.49999,8.52905c-2.75794,-0.15322 -3.66756,-4.35369 -3.64704,-6.47488c0.00236,-0.24371 -0.0529,-2.23394 0.44792,-2.46271l1.52991,-0.78448c0.06043,0 0.1202,0.00285 0.17917,0.00841c0.58014,-0.03841 1.10547,-0.68005 1.70455,-0.63632z" fill="#ffffd6" stroke="none" stroke-width="0.5" stroke-linecap="butt"/><path d="M312.69829,252.01092c1.23703,-0.53784 3.29385,0.16513 4.39282,-0.42898c0.59616,-0.32228 0.86567,-0.89081 1.77813,-0.89081c0.50556,0 1.27658,0.62944 1.65309,0.56665c2.252,-0.37559 3.81047,-1.1736 6.07605,-0.6072c0.87185,0.21796 0.95538,1.44429 1.3811,1.6516c0.69558,0.33873 2.09852,-0.18571 2.96059,-0.07043c2.37446,0.31754 6.29783,2.38183 5.74149,5.50369c-0.65294,3.66388 -9.83986,0.98782 -12.53916,0.46824c-1.1838,-0.22787 -2.59038,-1.33343 -3.56288,-0.62099c-0.76001,0.55677 -6.5524,2.70725 -8.18067,3.23604c-0.58066,0.18858 -1.83874,-0.10851 -2.88434,-0.57896c-0.67602,-0.05939 -1.24958,-0.47586 -1.53092,-1.05966c-0.08337,-0.12187 -0.12956,-0.24227 -0.12956,-0.35806c-0.03674,-0.14683 -0.05624,-0.30049 -0.05624,-0.45871c0,-0.3018 0.07097,-0.58702 0.19714,-0.83988c0.70009,-2.15378 2.88645,-4.72259 4.70337,-5.51255z" fill="#ffffff" stroke="none" stroke-width="0.5" stroke-linecap="butt"/><path d="M299.38792,157.38554c0,0 -4.22307,-17.29411 -4.22307,-24.93623c0,-2.75768 -0.95763,-11.04158 3.54451,-14.9676c5.80536,-5.06248 17.7568,-5.54445 21.79391,-5.54445c3.39251,0 15.74324,-2.37128 21.09113,2.11689c6.84841,5.74747 6.45938,19.01195 6.45938,23.02043c0,7.07165 -3.82087,20.31096 -3.82087,20.31096c0,0 -15.47704,2.21209 -23.12634,2.21209c-7.28084,0 -21.71865,-2.21209 -21.71865,-2.21209z" fill="#ffffd6" stroke="#000000" stroke-width="3" stroke-linecap="butt"/><path d="M299.05417,136.14105l21.09771,0.37674" fill="none" stroke="#000000" stroke-width="3" stroke-linecap="round"/><path d="M319.11582,137.36547l0.28256,8.1942l-12.62095,-0.56512v-8.28839l8.75932,0.18837" fill="none" stroke="#000000" stroke-width="3" stroke-linecap="round"/><path d="M311.39256,137.55384l0.47093,6.31047" fill="none" stroke="#000000" stroke-width="3" stroke-linecap="round"/><path d="M312.24024,137.64801l3.48489,6.68722" fill="none" stroke="#000000" stroke-width="3" stroke-linecap="round"/><path d="M312.61699,142.73407l3.29651,-0.28256" fill="none" stroke="#000000" stroke-width="3" stroke-linecap="round"/><path d="M311.44667,136.98872l3.33659,4.52093l-3.48489,-2.34741" fill="none" stroke="#000000" stroke-width="3" stroke-linecap="round"/><path d="M311.7693,142.92246l5.74536,1.13023" fill="none" stroke="#000000" stroke-width="3" stroke-linecap="round"/><path d="M316.57281,142.54571l-0.47093,-3.95582" fill="none" stroke="#000000" stroke-width="3" stroke-linecap="round"/><path d="M317.9084,136.5394c1.72467,0.91977 1.03707,5.89512 1.01907,6.85398c-0.03575,1.90416 -2.04149,1.97469 -3.31526,1.24682c-0.79595,-0.45482 -0.52965,-2.88253 -2.17374,-4.1156c-0.84674,-0.18452 -1.48078,-0.93848 -1.48078,-1.84053c0,-0.65172 0.33096,-1.22613 0.83398,-1.56435c1.27816,-1.15704 3.68896,-1.34175 5.11673,-0.58032z" fill="#000000" stroke="none" stroke-width="0.5" stroke-linecap="butt"/><path d="M308.37861,143.39338l0.28256,-5.83954" fill="none" stroke="#ffffff" stroke-width="3" stroke-linecap="round"/><path d="M309.50883,137.08291l0.6593,6.78141" fill="none" stroke="#ffffff" stroke-width="3" stroke-linecap="round"/><path d="M314.97164,144.80619l-8.10001,-0.65931l0.18837,-7.62909h7.81745" fill="none" stroke="#000000" stroke-width="3" stroke-linecap="round"/><path d="M343.98099,136.89453l-21.09771,-0.37674" fill="none" stroke="#000000" stroke-width="3" stroke-linecap="round"/><path d="M342.94494,137.74221l0.28256,8.1942l-12.62095,-0.56512v-8.28839l8.75932,0.18837" fill="none" stroke="#000000" stroke-width="3" stroke-linecap="round"/><path d="M335.69259,144.24106l-0.47093,-6.31047" fill="none" stroke="#000000" stroke-width="3" stroke-linecap="round"/><path d="M336.06935,138.02477l3.48488,6.68722" fill="none" stroke="#000000" stroke-width="3" stroke-linecap="round"/><path d="M339.74261,142.82827l-3.29651,0.28256" fill="none" stroke="#000000" stroke-width="3" stroke-linecap="round"/><path d="M335.65253,137.64801l3.33659,4.52094l-3.48489,-2.34741" fill="none" stroke="#000000" stroke-width="3" stroke-linecap="round"/><path d="M341.34378,144.42943l-5.74536,-1.13023" fill="none" stroke="#000000" stroke-width="3" stroke-linecap="round"/><path d="M340.40192,142.92246l-0.47093,-3.95582" fill="none" stroke="#000000" stroke-width="3" stroke-linecap="round"/><path d="M341.73751,136.91615c1.72467,0.91977 1.03707,5.89512 1.01906,6.85398c-0.03575,1.90416 -2.04149,1.97469 -3.31526,1.24682c-0.79595,-0.45482 -0.52965,-2.88253 -2.17374,-4.1156c-0.84674,-0.18452 -1.48078,-0.93848 -1.48078,-1.84053c0,-0.65172 0.33096,-1.22613 0.83398,-1.56435c1.27816,-1.15704 3.68896,-1.34175 5.11673,-0.58032z" fill="#000000" stroke="none" stroke-width="0.5" stroke-linecap="butt"/><path d="M332.49027,137.93059l-0.28256,5.83954" fill="none" stroke="#ffffff" stroke-width="3" stroke-linecap="round"/><path d="M333.33795,137.45966l0.6593,6.78141" fill="none" stroke="#ffffff" stroke-width="3" stroke-linecap="round"/><path d="M338.80076,145.18293l-8.10002,-0.65931l0.18837,-7.62909h7.81745" fill="none" stroke="#000000" stroke-width="3" stroke-linecap="round"/><path d="M322.31816,153.47132l-9.23025,0.09418" fill="none" stroke="#000000" stroke-width="3" stroke-linecap="round"/><path d="M308.56129,198.01334c0.16905,-1.32035 0.31732,-2.61102 0.37858,-3.77692c0.02564,-0.48784 -1.44854,-0.21155 -1.40795,-0.67387c0.40467,-4.60998 1.41322,-10.99197 1.30684,-13.83228c-0.21043,-5.61847 -1.07237,-15.99266 -1.07237,-15.99266l7.34652,1.3186" fill="none" stroke="#000000" stroke-width="3" stroke-linecap="round"/><path d="M315.96058,251.58193l-4.6466,-34.56538l1.60202,-3.1091l13.31624,0.12559" fill="none" stroke="#000000" stroke-width="3" stroke-linecap="round"/><path d="M322.61641,165.43294l-3.76745,3.13954l-3.17093,-4.83489l-0.56511,-3.57907" fill="none" stroke="#000000" stroke-width="3" stroke-linecap="round"/><path d="M332.44318,162.419l-8.66513,2.26046l0.56512,-4.52093" fill="none" stroke="#000000" stroke-width="3" stroke-linecap="round"/><path d="M313.04082,212.52605l0.75349,-47.09311" fill="none" stroke="#000000" stroke-width="3" stroke-linecap="round"/><path d="M324.97108,165.99808l0.94186,47.65822l1.83032,3.14424l-0.6059,35.28373l9.92095,3.64186l-0.25117,5.27443l-15.32095,-2.51163" fill="none" stroke="#000000" stroke-width="3" stroke-linecap="round"/><path d="M329.66042,195.83652c0.16517,-1.37929 0.34321,-2.85557 0.47238,-4.55744c0.47731,-6.28876 -1.40055,-12.56035 -1.36566,-15.67721c0.04442,-3.96855 2.5458,-12.05263 2.5458,-12.05263" fill="none" stroke="#000000" stroke-width="3" stroke-linecap="round"/><path d="M311.91058,207.25163l-3.57907,-8.66513" fill="none" stroke="#000000" stroke-width="3" stroke-linecap="round"/><path d="M325.44201,206.62373l4.7721,-10.54886" fill="none" stroke="#000000" stroke-width="3" stroke-linecap="round"/><path d="M320.23037,214.2842l1.25581,43.57682l-11.67909,3.01395l-2.26047,-4.39535l7.66048,-5.02326" fill="none" stroke="#000000" stroke-width="3" stroke-linecap="round"/><path d="M315.96058,250.82845l10.17211,-0.37674" fill="none" stroke="#000000" stroke-width="3" stroke-linecap="round"/><path d="M312.19315,253.96799l2.13489,1.75814" fill="none" stroke="#000000" stroke-width="3" stroke-linecap="round"/><path d="M311.94197,256.6052l-1.88372,-1.38139" fill="none" stroke="#000000" stroke-width="3" stroke-linecap="round"/><path d="M328.51876,254.72148l3.01395,-1.50698" fill="none" stroke="#000000" stroke-width="3" stroke-linecap="round"/><path d="M334.42109,253.96799l-1.75815,1.50698" fill="none" stroke="#000000" stroke-width="3" stroke-linecap="round"/><path d="M312.31251,185.25001l-4,5.125" fill="none" stroke="#000000" stroke-width="3" stroke-linecap="round"/><path d="M325.06251,186.50001l4.5,1.875" fill="none" stroke="#000000" stroke-width="3" stroke-linecap="round"/><path d="M314.83333,189.66668v-10.11111h4v10.11111z" fill="#000000" stroke="none" stroke-width="0" stroke-linecap="butt"/><path d="M324.27779,184.72223c0,2.48528 -1.34314,4.5 -3,4.5c-1.65686,0 -3,-2.01472 -3,-4.5c0,-2.48528 1.34314,-4.5 3,-4.5c1.65686,0 3,2.01472 3,4.5z" fill="#000000" stroke="none" stroke-width="0" stroke-linecap="butt"/><path d="M314.66033,189.27671l5.01269,4.89104" fill="none" stroke="#000000" stroke-width="0.5" stroke-linecap="round"/><path d="M318.65801,195.20744c-3.78264,-4.41308 2.82119,-7.86517 4.94308,-4.53075c2.66095,4.18149 -3.19159,7.20659 -4.89262,4.53356z" fill="#000000" stroke="none" stroke-width="0.5" stroke-linecap="butt"/><path d="M307.9375,143.875v-6.375h10.75v6.375z" fill="#ffffd6" stroke="#000000" stroke-width="0.5" stroke-linecap="butt"/><path d="M331.6875,143.92187v-5.84375h11.375v5.84375z" fill="#ffffd6" stroke="#000000" stroke-width="0.5" stroke-linecap="butt"/><path d="M358.49709,137.79033l-0.14343,0.08367l0.33475,0.37387c-0.00225,1.08935 0.25677,2.21105 -0.00676,3.26804c-0.71879,2.88303 -2.2179,2.17152 -3.38575,4.87996c-0.35102,0.81408 0.47941,2.11992 -0.23157,2.64948c-3.88254,2.89185 -7.27805,-0.98608 -8.27893,-4.08709c-0.70971,-2.19889 -0.2384,-4.21848 0.48796,-6.24106c-0.25105,-0.06961 -0.50104,-0.12914 -0.74983,-0.17417c-3.58292,0.01273 -7.14706,0.81201 -10.69644,0.56847c-2.81241,-0.19297 -5.53,-1.08522 -8.33581,-1.32258c-3.05575,-0.25851 -4.09995,-0.08766 -7.25629,-0.51532c-2.96979,-0.40239 -4.99482,-1.68098 -8.136,-1.37636c-1.5576,0.15105 -4.04694,1.65645 -5.14212,2.00023c-1.29235,0.40566 -2.64449,0.59712 -3.98279,0.80613c-2.21245,0.34553 -3.6248,-0.5318 -5.53875,-0.60573c1.33415,2.72128 1.63634,5.98327 1.54783,8.90538l0.74466,1.34037c0.16131,0.27772 0.25367,0.60044 0.25367,0.94473c0,0.69725 -0.37882,1.30601 -0.94186,1.63172v1.00549c0,1.04035 -0.84338,13.88372 -1.88373,13.88372c-0.74135,0 -1.04933,-1.09492 -1.35674,-1.71753l-1.24604,-13.0908c-1.192,0.19968 -1.85833,-0.9664 -1.85833,-0.9664l-0.08542,-0.17781c-0.82137,-0.74195 -1.56986,-2.11574 -2.13529,-3.24841c-0.52376,-0.01525 -1.03774,-0.0702 -1.51691,-0.26643c-3.08562,-1.26363 -3.40458,-3.8018 -2.65153,-6.47753c-0.20715,-0.82715 -0.26448,-1.88197 -0.13702,-3.21786c0.0281,-0.29451 0.18298,-0.52439 0.39897,-0.7251c-3.80262,0.2981 -5.55821,8.89464 -5.61438,4.54025c-0.00299,-0.23194 -2.62016,-4.58232 -2.60217,-4.80149c0.17929,-2.18324 3.24311,-8.75034 4.80595,-10.04631c0.46659,-0.84575 1.22511,-1.71413 2.13053,-2.44444c0.55139,-1.30416 1.17433,-2.57207 1.88773,-3.83643l0.23282,-0.13668l-0.06095,-0.06095l1.69535,-1.69535v0c0.21044,-0.21044 0.47044,-0.37132 0.761,-0.46363c1.16084,-2.14751 -0.30914,-1.68098 2.22521,-2.54742c0.80393,-0.27485 3.36152,0.89688 4.91773,1.67597c0.4487,0.22463 0.81416,0.41662 1.03032,0.53189c0.79683,0.42488 3.21672,-2.96292 4.11433,-2.86402c0.78591,0.0866 -0.03459,-1.24757 0.35109,-1.93779c1.56335,-2.79781 1.42116,-4.73196 4.67784,-5.26504c1.27957,-0.20945 2.62268,-0.62494 3.87814,-0.30093c0.71808,0.18533 0.76128,1.43049 1.46014,1.67865c0.80797,0.28691 2.99304,-1.38887 3.47817,-1.6135c2.25119,-1.04236 5.0758,-1.69421 7.53113,-0.89462c0.81736,0.26618 0.80707,1.57717 1.48032,2.11165c1.98197,1.57344 2.74417,0.96118 4.89146,0.54316c2.42854,-0.85656 4.70167,-1.88804 7.38503,-1.75021c3.30064,0.16953 4.71681,2.59696 7.04773,4.28628c0.2246,-0.09456 0.47138,-0.14683 0.73037,-0.14683c0.66422,0 1.24815,0.34378 1.58356,0.86313l0.26758,0.40138c1.04552,0.20455 2.13932,0.29867 3.0702,0.787c2.51583,1.31979 5.91825,5.6709 6.69752,8.58995c0.37646,1.4102 -0.20546,3.10201 0.03866,4.5209c0.4596,2.67125 3.49963,6.09339 2.39881,8.8986c-0.29573,0.7536 -0.73392,1.44133 -1.2381,2.08629zM352.60608,150.89128c0.00849,0.01026 0.01142,0.00865 0.00743,-0.00872c-0.00247,0.00292 -0.00495,0.00582 -0.00743,0.00872z" fill="#29241d" stroke="none" stroke-width="0.5" stroke-linecap="butt"/><path d="M318.8125,194.125c0,1.25 -1.25,1.25 -1.25,1.25l-0.84861,-0.02016c-0.45833,-0.08333 -0.91667,-0.16667 -1.375,-0.25c0,0 -1.22984,-0.22361 -1.00623,-1.45344c0.22361,-1.22984 1.45344,-1.00623 1.45344,-1.00623c0.45833,0.08333 0.91667,0.16667 1.375,0.25l0.40139,-0.02016c0,0 1.25,0 1.25,1.25z" fill="#a5a5a5" stroke="none" stroke-width="0.5" stroke-linecap="butt"/><path d="M321.8125,181.5c1.25,0 1.25,1.25 1.25,1.25l-0.04405,1.2039c-0.597,1.8308 -0.38781,2.51815 -2.75473,3.12778c-1.2743,0.32822 -2.54179,0.0103 -3.09336,-0.71097c-0.13244,0.0176 -0.28179,0.01497 -0.4501,-0.01473c-1.23098,-0.21723 -1.01375,-1.44821 -1.01375,-1.44821l0.37129,-2.10396c0.09413,-0.59715 0.61108,-1.05381 1.23469,-1.05381c0.58089,0 1.06923,0.39623 1.2095,0.93317l0.4582,1.60369c0.66654,0.67999 1.32367,0.78479 1.62635,-0.99076l-0.04405,-0.5461c0,0 0,-1.25 1.25,-1.25z" fill="#222222" stroke="none" stroke-width="0.5" stroke-linecap="butt"/><path d="M323.03859,193.03087c-0.78087,0.97609 -1.75695,0.19522 -1.75695,0.19522l0.58305,-0.30134c-0.72001,0.24781 -1.41583,0.62852 -1.97905,1.14098c0,0 -0.94072,0.82313 -1.76385,-0.11759c-0.82313,-0.94072 0.11759,-1.76385 0.11759,-1.76385c0.81336,-0.69227 1.77186,-1.23139 2.77095,-1.60902l1.83305,0.69866c0,0 0.97609,0.78087 0.19522,1.75695z" fill="#222222" stroke="none" stroke-width="0.5" stroke-linecap="butt"/></g></g></svg>