<svg version="1.1" xmlns="http://www.w3.org/2000/svg" xmlns:xlink="http://www.w3.org/1999/xlink" width="776" height="465.5" viewBox="0,0,776,465.5"><g transform="translate(83,26.75)"><g data-paper-data="{&quot;isPaintingLayer&quot;:true}" fill-rule="nonzero" stroke-linecap="butt" stroke-linejoin="miter" stroke-miterlimit="10" stroke-dasharray="" stroke-dashoffset="0" style="mix-blend-mode: normal"><path d="M-82,435.25v-461h774v461z" fill="#ffffff" stroke="#000000" stroke-width="2"/><path d="M-65.5,437.75v-402h749v402z" fill="#ffffff" stroke="#000000" stroke-width="2"/><text transform="translate(131.5,25) scale(0.5,0.5)" font-size="40" xml:space="preserve" fill="#000000" fill-rule="nonzero" stroke="none" stroke-width="1" stroke-linecap="butt" stroke-linejoin="miter" stroke-miterlimit="10" stroke-dasharray="" stroke-dashoffset="0" font-family="Sans Serif" font-weight="normal" text-anchor="start" style="mix-blend-mode: normal"><tspan x="0" dy="0">average random life game brainrot</tspan></text><path d="M157,165c0,-0.82843 0.67157,-1.5 1.5,-1.5c0.82843,0 1.5,0.67157 1.5,1.5c0,0.82843 -0.67157,1.5 -1.5,1.5c-0.82843,0 -1.5,-0.67157 -1.5,-1.5z" fill="#000000" stroke="none" stroke-width="0.5"/><path d="M210,158c0,-0.82843 0.67157,-1.5 1.5,-1.5c0.82843,0 1.5,0.67157 1.5,1.5c0,0.82843 -0.67157,1.5 -1.5,1.5c-0.82843,0 -1.5,-0.67157 -1.5,-1.5z" fill="#000000" stroke="none" stroke-width="0.5"/><path d="M428,173c0,-0.82843 0.67157,-1.5 1.5,-1.5c0.82843,0 1.5,0.67157 1.5,1.5c0,0.82843 -0.67157,1.5 -1.5,1.5c-0.82843,0 -1.5,-0.67157 -1.5,-1.5z" fill="#000000" stroke="none" stroke-width="0.5"/><path d="M456,173c0,-0.82843 0.67157,-1.5 1.5,-1.5c0.82843,0 1.5,0.67157 1.5,1.5c0,0.82843 -0.67157,1.5 -1.5,1.5c-0.82843,0 -1.5,-0.67157 -1.5,-1.5z" fill="#000000" stroke="none" stroke-width="0.5"/><path d="M455,191c0,1.5 -1.5,1.5 -1.5,1.5h-1c-10.65949,0 -21.23127,-0.33442 -31.81395,0.98842c0,0 -1.48842,0.18605 -1.67447,-1.30236c-0.18605,-1.48842 1.30236,-1.67447 1.30236,-1.67447c10.70822,-1.33853 21.40111,-1.01158 32.18605,-1.01158h1c0,0 1.5,0 1.5,1.5z" fill="#000000" stroke="none" stroke-width="0.5"/><path d="M415,180c0,-0.82843 0.67157,-1.5 1.5,-1.5c0.82843,0 1.5,0.67157 1.5,1.5c0,0.82843 -0.67157,1.5 -1.5,1.5c-0.82843,0 -1.5,-0.67157 -1.5,-1.5z" fill="#000000" stroke="none" stroke-width="0.5"/><path d="M497.95386,195.36917c-0.36917,1.45386 -1.82303,1.08469 -1.82303,1.08469l-0.54065,-0.13728c-1.03915,-0.26947 -2.0783,-0.53894 -3.11745,-0.80841c-1.4802,-0.88687 -3.02015,-1.71645 -4.59452,-2.50379c0.08244,2.60683 0.12115,5.22812 0.12152,7.87584c0.00007,0.53278 0.01057,1.07374 0.02578,1.61978c2.82483,0 5.64965,0 8.47448,0h1c0,0 1.5,0 1.5,1.5c0,1.5 -1.5,1.5 -1.5,1.5c-3.07459,0 -6.21132,0 -9.37921,0c0.03639,1.48366 0.03257,2.96357 -0.12079,4.38043c-0.04112,0.37993 -0.67933,0.76153 -0.43934,1.05891c0.21709,0.269 0.59747,-0.38824 0.93934,-0.43934c0.65934,-0.09855 1.33333,0 2,0c4.31068,0 8.62135,-0.0019 12.93203,0.00154c7.20123,-0.65847 14.7105,-0.78035 21.8369,-1.98364c9.2914,-1.56884 18.33267,-4.28249 27.01895,-7.40151c0.59369,-0.21318 -1.15559,-0.52741 -1.66494,-0.89953c-0.86574,-0.6325 -1.52197,-1.51059 -2.28295,-2.26588c-4.46936,-6.67102 -9.51034,-13.08571 -13.17507,-20.2672c-5.9045,-11.57062 -9.80482,-24.36901 -13.90259,-36.65538c-2.58073,-7.75392 -6.41712,-16.848 -11.89588,-23.04603c-2.45551,-2.77787 -5.92533,-5.28452 -8.96024,-7.3818c-6.44832,-4.45613 -13.10601,-8.62615 -20.73583,-10.75186c-2.74953,-0.77093 -5.61981,-1.87908 -8.43164,-2.37165c-5.76163,-1.00931 -11.96415,-0.91306 -17.80076,-1.36203c-5.7386,-0.44143 -11.07277,-0.40273 -16.81826,-0.0197c-1.90504,0.127 -3.86638,-0.1145 -5.71673,0.35615c-3.5478,0.9024 -7.30689,3.39248 -10.64199,4.9284c-4.788,2.20319 -10.65713,4.64972 -14.8656,7.82354c-2.23508,1.68559 -4.217,4.23997 -6.1987,6.22118c-3.2332,3.23241 -6.75118,6.74682 -9.46044,10.43268c-3.9754,5.40839 -7.01109,11.82914 -10.26821,17.68653c-2.76813,6.06529 -5.49156,12.00073 -7.37481,18.41678c-0.53467,1.82156 -0.90548,3.70221 -1.35067,5.55721c1.35392,0.18496 1.25362,1.58905 1.25362,1.58905c-0.69086,9.67203 -0.99619,19.19617 -0.99619,28.89313c0,2.63156 0.23278,5.38293 0,8c-0.05872,0.66022 -0.5753,1.29061 -0.43934,1.93934c0.05941,0.28346 0.48003,-0.34043 0.75606,-0.4281c0.93733,-0.2977 1.88946,-0.56816 2.86103,-0.72069c1.96381,-0.30831 3.96308,-0.36882 5.9206,-0.71487c5.76056,-1.00378 11.50811,-0.09272 17.29522,-0.5719c2.6668,-0.22081 5.40053,-0.39109 8.10294,-0.61347c0.17802,-0.15464 0.33266,-0.23195 0.33266,-0.23195c2.29886,-1.12535 4.82744,-1.71081 7.44486,-2.00281c-0.30565,-0.16196 -0.59118,-0.35137 -0.83469,-0.59488c-1.69023,-1.69023 -2.78028,-4.32713 -3.44864,-7.00791c-1.11187,0.26376 -2.24853,0.43771 -3.4907,0.44725h-1c0,0 -1.5,0 -1.5,-1.5c0,-1.5 1.5,-1.5 1.5,-1.5h1c1.03266,0.00996 1.98528,-0.13718 2.91742,-0.36499c-0.15607,-1.05474 -0.25313,-2.06201 -0.30321,-2.96098c-0.19996,-3.75392 -0.42237,-7.70134 -0.51009,-11.67402h-0.10412v0c-0.82843,0 -1.5,-0.67157 -1.5,-1.5c0,-0.82771 0.67041,-1.49884 1.49785,-1.5c0.00009,0 0.00018,0 0.00027,0l0.06787,-0.0001c-0.01179,-4.68401 0.21836,-9.34435 0.94761,-13.70568c0.90422,-5.40772 2.62041,-10.14203 7.79503,-12.79148c5.24425,-2.6851 12.74445,-1.49292 18.48397,-1.50166c14.54475,-0.00203 35.80616,-3.78815 45.89287,9.57988c3.10017,4.10869 3.98949,9.77659 5.28402,14.61806c0.917,6.37903 1.48379,12.64075 1.77805,18.95761c2.01792,0.92345 3.9915,1.92939 5.88298,3.08397c0.89933,0.22276 1.79867,0.44551 2.698,0.66827l0.54065,0.13728c0,0 1.45386,0.36917 1.08469,1.82303zM476.21834,187.82401c-0.53125,-0.2238 -1.12532,-0.44796 -1.7524,-0.67637c-0.2182,0.18384 -0.48956,0.30659 -0.78773,0.34189c0.27841,1.65567 0.67049,3.31846 1.22237,5.01606l0.09854,2.4432c0,0 0.05122,1.49913 -1.44791,1.55035c-1.49913,0.05122 -1.55035,-1.44791 -1.55035,-1.44791l-0.05397,-2.02047c-0.83103,-2.49554 -1.30765,-4.94527 -1.58087,-7.40951c-0.99568,-0.41297 -1.91895,-0.8564 -2.65464,-1.34526c-4.23396,-2.81345 -3.18533,-8.44961 1.21457,-10.6618c0.65949,-0.33158 3.49174,0.01487 4.39075,-0.10294c0.56376,-0.07388 1.132,-0.17858 1.70218,-0.30371c-0.0505,-0.40435 -0.03896,-1.34775 1.08642,-1.65467c1.15359,-0.31462 1.63839,0.54115 1.78761,0.90128c1.09564,-0.31649 2.18274,-0.64422 3.24326,-0.90935c0,0 1.45521,-0.3638 1.81902,1.09141c0.3638,1.45521 -1.09141,1.81902 -1.09141,1.81902c-1.05713,0.26428 -2.13804,0.58442 -3.22767,0.89633c0.64933,2.74063 1.26344,5.56103 2.26508,8.1131c0.6018,1.53333 1.48686,2.93988 2.4364,4.30242c0.44722,0.18195 0.89364,0.36554 1.33886,0.55144c-0.30316,-5.66147 -0.83308,-11.28925 -1.64596,-17.01752c-1.17685,-4.36902 -1.92807,-9.66306 -4.71598,-13.38194c-6.08015,-8.11049 -16.35837,-8.41905 -25.52067,-8.41904c-5.99959,0.00001 -11.99917,0.00023 -17.99876,0.00106c-5.12675,0.0078 -12.44258,-1.26168 -17.11144,1.16799c-4.27588,2.22516 -5.46568,6.13113 -6.21087,10.61835c-0.69646,4.19376 -0.91965,8.67527 -0.91059,13.18329c3.62162,-0.17522 7.05254,-1.14391 10.6124,-1.93499c0,0 1.46428,-0.3254 1.78968,1.13888c0.3254,1.46428 -1.13888,1.78968 -1.13888,1.78968c-0.28135,0.06252 -0.56179,0.12579 -0.84146,0.18943c3.59095,0.17598 7.27593,0.19366 10.75634,0.86565c2.07647,0.40092 5.94024,1.51724 5.19389,4.92013c-0.30386,1.38543 -4.83049,2.60699 -5.80588,2.93221c-1.43764,0.47935 -2.82885,1.06984 -4.19067,1.73121l0.06164,1.85018c0,0 0.0469,1.49927 -1.45237,1.54616c-1.49927,0.0469 -1.54616,-1.45237 -1.54616,-1.45237l-0.01145,-0.39442c-1.73503,0.97143 -3.44119,2.01355 -5.15654,3.03652c-0.24957,0.48178 -0.75271,0.811 -1.33275,0.811c-0.01292,0 -0.02581,-0.00016 -0.03865,-0.00049c-1.34361,0.78486 -2.69895,1.54354 -4.08407,2.23345c-0.52401,0.16434 -1.03232,0.33008 -1.53193,0.49074c0.53017,2.21597 1.38569,4.38601 2.71532,5.71564c1.25798,1.25798 3.29871,0.20005 4.21532,2.27206c0.02562,0.05792 0.05036,0.11723 0.07414,0.17777c2.60259,-0.00196 5.19592,0.11083 7.64989,0.11083c4.03489,0 8.06979,0 12.10468,0c-0.15594,-0.27361 -0.30641,-0.54935 -0.44632,-0.82918c0,0 -0.67082,-1.34164 0.67082,-2.01246c1.34164,-0.67082 2.01246,0.67082 2.01246,0.67082c0.01762,0.03525 0.06242,0.12461 0.12849,0.25643c0.38817,-0.17021 0.92601,-0.22168 1.50606,0.27551c0.67644,0.57981 0.60673,1.21701 0.43859,1.63888c5.52841,0 11.05681,0 16.58522,0c8.49433,0 16.98866,0 25.483,0c0.00999,-0.54243 0.01681,-1.08266 0.01674,-1.61936c-0.00035,-2.49174 -0.03514,-4.95896 -0.10888,-7.4124c-0.98215,0.31859 -1.62658,-0.61796 -1.62658,-0.61796l-0.25722,-0.37382c-0.5843,-0.84916 -1.19355,-1.68747 -1.78917,-2.53517c-1.67651,-0.72317 -3.35237,-1.42338 -4.99955,-2.11729zM473.68327,176.48876c-0.22352,0.02901 -0.45207,0.02482 -0.68301,0.00236c0.00289,2.45729 0.03174,4.81043 0.21294,7.13532c1.81047,0.81012 3.65702,1.56093 5.51233,2.30024c-0.2279,-0.45328 -0.43834,-0.91626 -0.62676,-1.39134c-1.04914,-2.64542 -1.68562,-5.5772 -2.36167,-8.42034c-0.68768,0.15556 -1.37355,0.28546 -2.05384,0.37375zM470.10061,182.14554c-0.08721,-1.87459 -0.09926,-3.77337 -0.10049,-5.72206c-1.20325,0.63105 -2.03923,1.95194 -2.03845,3.17602c0.16709,-0.06427 0.3486,-0.09949 0.53833,-0.09949c0.82843,0 1.5,0.67157 1.5,1.5c0,0.35056 -0.12026,0.67303 -0.32177,0.92841c0.14045,0.07295 0.28124,0.14532 0.42237,0.21713zM412.25616,190.95032c0.93288,-0.4684 1.85255,-0.97719 2.76469,-1.50899l-0.04434,-0.02887c-1.26202,-1.89819 -2.60364,-3.37938 -4.10613,-4.91233c0.0769,1.52848 0.16011,3.03665 0.23954,4.51357c0.0342,0.66918 0.0983,1.43104 0.20086,2.23981c0.31009,-0.10177 0.62454,-0.20371 0.94538,-0.30319zM427.24052,182.50882c1.84792,-0.75871 3.74674,-1.41315 5.68546,-1.89463c0.36916,-0.09168 0.88316,0.22701 1.13986,-0.05368c0.18306,-0.20017 -0.42151,-0.35759 -0.67466,-0.45501c-0.69098,-0.26591 -1.39648,-0.53548 -2.13144,-0.62486c-1.69733,-0.20641 -3.43553,-0.08609 -5.11216,-0.42141c-0.60573,-0.12115 -1.21096,-0.22737 -1.81567,-0.32195c0.33983,0.25208 0.50974,0.59191 0.50974,0.59191c0.57122,1.15452 1.04859,2.3618 1.43101,3.59746c0.32074,-0.14506 0.64329,-0.28456 0.96787,-0.41783zM411.92726,177.37105c-0.43981,0.04172 -0.88209,0.07434 -1.32748,0.09642c0.02243,1.00963 0.05383,2.01769 0.0915,3.02123c0.50979,0.09106 0.86937,0.45064 0.86937,0.45064c1.24622,1.24622 2.39989,2.39926 3.48037,3.63852c0.08798,-0.38164 0.34409,-0.78738 0.98463,-1.00089c0.71212,-0.23737 1.18666,0.0004 1.48307,0.29722c0.26431,-0.23291 0.61129,-0.37419 0.99127,-0.37419c0.82843,0 1.5,0.67157 1.5,1.5c0,0.75654 -0.56008,1.38227 -1.28822,1.48517c0.07227,0.19504 0.13522,0.39161 0.18201,0.59083c1.54887,-0.96508 3.09933,-1.92498 4.68007,-2.79178c-0.35289,-1.24662 -0.83266,-2.46154 -1.4155,-3.61339c0,0 -0.67082,-1.34164 0.67082,-2.01246c0.08338,-0.04169 0.16417,-0.07561 0.24236,-0.10256c-3.73425,-0.49446 -7.44903,-0.63103 -11.14428,-1.18475zM454.99957,262.03573c-0.03573,1.49957 -1.5353,1.46385 -1.5353,1.46385l-0.578,-0.01781c1.48035,2.54051 2.99051,5.0723 4.68903,7.41187c2.30594,3.17624 5.17074,6.06652 7.68707,9.08271c3.13297,3.75532 6.03198,7.4443 11.27336,7.52409l0.96427,-0.00043c0,0 1.5,0 1.5,1.5c0,1.5 -1.5,1.5 -1.5,1.5l-1.03573,-0.00043c-6.24375,-0.19242 -9.74127,-4.08938 -13.5055,-8.60141c-2.55983,-3.06837 -5.46514,-6.01062 -7.81115,-9.24204c-2.28987,-3.1541 -4.24555,-6.6465 -6.23899,-10.05007c-1.90296,-0.82386 -3.34728,-1.78273 -4.82868,-3.05417c-0.00663,0.82037 -0.02951,1.63758 -0.07995,2.44812c-0.08455,1.35882 0.27974,2.9046 -0.43934,4.06066c-0.38542,0.61964 -1.63701,-0.32726 -2.18359,0.1562c-0.54531,0.48234 -0.20121,1.44856 -0.41683,2.14391c-0.83286,2.68597 -2.09327,5.28259 -2.9859,7.95962c-2.48414,7.45 -5.989,14.70123 -8.95738,21.93521l-0.12998,0.31561c0,0 -0.57121,1.38698 -1.95819,0.81578c-1.38698,-0.57121 -0.81578,-1.95819 -0.81578,-1.95819l0.12998,-0.31561c0.75386,-1.82337 1.18425,-3.76522 1.84659,-5.62379c1.9644,-5.5123 5.17251,-10.51727 7.03871,-16.11769c0.90867,-2.7269 1.92595,-5.37965 3.0141,-8.04038c0.48512,-1.1862 0.5873,-2.6292 1.48054,-3.54819c0.42356,-0.43577 1.44496,0.63718 1.81641,0.1562c0.40513,-0.5246 -0.38062,-1.27912 -0.43934,-1.93934c-0.2611,-2.93549 0,-6.05161 0,-9c0,-9.66667 0,-19.33333 0,-29c0,-5.29762 1.10317,-12.09786 -0.26634,-17.24795c-0.1147,-0.43133 -0.27084,-0.84678 -0.45363,-1.25205c-0.02081,0 -0.04162,0 -0.06242,0c-1.2803,1.29799 -2.56875,2.67384 -3.23276,4.00348c-1.45638,2.91631 -1.82035,7.5017 -2.77219,10.6745c-3.09587,10.31956 -5.46541,21.05442 -9.70773,30.9512c-0.42859,0.91293 -0.85719,1.82585 -1.28578,2.73878l-3.72492,-0.75511c0,0 -1.11284,-1.00578 -0.10707,-2.11862c0.78478,-0.86832 1.63475,-0.44677 1.97038,-0.21959c0.13684,-0.29136 0.27367,-0.58271 0.41051,-0.87407c4.1877,-9.77328 6.51374,-20.39333 9.57113,-30.58463c0.99845,-3.32818 1.43034,-8.08627 2.96174,-11.15279c0.44104,-0.88316 1.11217,-1.77959 1.87484,-2.66314c-3.22525,0 -6.4505,0 -9.67575,0c-2.33638,0 -4.90289,-0.14541 -7.49118,-0.16657c-0.10221,0.27309 -0.24906,0.52068 -0.44816,0.72723c-0.91033,0.9444 -2.61277,0.24692 -3.91137,0.43189c-2.81689,0.40124 -5.2976,1.0309 -8.17811,1.09423c-3.03202,0.06666 -5.85694,0.66316 -8.86476,0.90944c-5.676,0.46475 -11.34761,-0.46957 -16.98802,0.53404c-2.78265,0.48776 -6.15408,1.32114 -8.93512,1.4585c-1.08936,0.05381 -2.55207,0.41506 -3.24394,-0.4281c-1.26995,-1.54767 -0.43934,-8.02467 -0.43934,-10.06066c0,-8.77534 0.18411,-17.4291 0.68483,-26.15005c-0.53677,1.40471 -1.05577,2.80601 -1.43867,4.33979l-0.25874,2.00415c0,0 -0.1939,1.48742 -1.68131,1.29352c-1.48742,-0.1939 -1.29352,-1.68131 -1.29352,-1.68131l0.28604,-2.17499c0.71871,-2.87122 1.85706,-5.30728 2.77512,-8.09567c1.8588,-5.64563 2.88741,-11.50122 5.03057,-17.08506c1.33799,-3.48603 3.13305,-6.86348 4.68606,-10.25938c3.33327,-6.00524 6.45405,-12.56716 10.52863,-18.11048c2.79831,-3.80699 6.41834,-7.43839 9.75637,-10.77722c2.08412,-2.08462 4.17746,-4.73654 6.52923,-6.50674c4.38264,-3.29885 10.42427,-5.84759 15.40148,-8.14158c3.50643,-1.61482 7.42355,-4.16119 11.15738,-5.1109c0.17368,-0.04418 5.92176,-0.41975 6.25669,-0.44208c5.882,-0.39213 11.37263,-0.43006 17.24791,0.02189c5.93599,0.45661 12.23257,0.37144 18.0932,1.39905c2.90862,0.51 5.87437,1.63958 8.71904,2.43719c7.94846,2.24175 14.90616,6.51687 21.63245,11.17313c3.23405,2.23876 6.90555,4.91773 9.5208,7.88438c5.74392,6.5157 9.75382,15.91976 12.47467,24.06161c4.04939,12.1413 7.89322,24.80219 13.72686,36.23698c3.56841,6.9946 8.50377,13.2161 12.82493,19.7328c0.57235,0.57804 1.072,1.23851 1.71705,1.73412c0.73797,0.567 2.01152,0.58209 2.39891,1.42827c1.8635,4.07045 -0.51881,3.67557 -2.80831,4.8463c-2.83656,1.45046 -5.38238,2.63192 -8.50073,3.48445c-13.14102,3.59262 -26.39375,4.7354 -39.89896,5.95631c-4.35599,0.00325 -8.71198,0.00154 -13.06797,0.00154c-0.95816,0 -4.54424,0.09473 -5.06066,-0.43934c-0.74389,-0.76931 -0.36346,-2.11278 -0.43934,-3.18023c-0.10246,-1.44123 -0.10505,-2.91 -0.08082,-4.38043c-8.52231,0 -17.19317,0 -25.41918,0c-5.36302,0 -10.72603,0 -16.08905,0c0.13106,0.27171 0.2132,0.44816 0.22195,0.48108c0.00499,0.01876 0.00995,0.03755 0.01488,0.05635c0.03425,0.03861 0.05222,0.06257 0.05222,0.06257c5.38731,7.19713 12.69445,12.68759 18.50993,19.49322c1.94422,2.27525 3.37115,4.99111 5.31114,7.26875c2.52549,2.96504 5.56216,5.11857 7.55858,8.51483l1.66255,0.14288c0,0 1.48032,0.24221 1.23811,1.72252c-0.24221,1.48032 -1.72252,1.23811 -1.72252,1.23811l-2.81563,-0.58983c-2.41699,-3.43757 -5.50226,-5.91019 -8.20492,-9.08324c-1.93949,-2.27705 -3.36557,-4.99192 -5.30804,-7.26511c-4.81723,-5.63741 -10.62647,-10.3856 -15.56509,-15.92162c0.13094,4.15825 -0.36411,8.5957 -0.36411,12.37948c0,9.66667 0,19.33333 0,29c0,0.79741 0.01327,1.60078 0.02914,2.40679c1.14726,1.14095 2.1046,2.05549 3.14694,2.826c0.11326,-0.18019 0.28518,-0.35484 0.53777,-0.51028c1.27749,-0.78615 2.06363,0.49134 2.06363,0.49134c0.41501,0.67439 0.82397,1.35773 1.23012,2.04624c0.1926,0.07119 0.39119,0.14145 0.59633,0.21092l1.93179,0.02941c0,0 1.49957,0.03573 1.46385,1.5353z" fill="#000000" stroke="none" stroke-width="0.5"/><path d="M328.67605,169.48963c-1.48963,0.17605 -1.66568,-1.31358 -1.66568,-1.31358l-0.02904,-0.24575c-1.03355,-8.91479 -6.09178,-16.82305 -10.72036,-24.42754c-0.11984,0.56575 -0.21476,1.12735 -0.2722,1.68052c-0.4662,4.48986 0.01124,9.29269 0.01124,13.81673c0,2.92374 0.80349,7.28208 -0.43934,9.93934l0.93934,-0.43934c0,0 1.5,0 1.5,1.5c0,1.5 -1.5,1.5 -1.5,1.5l-3.06066,-0.43934c-1.59218,-11.09195 -1.09375,-23.62769 1.60545,-34.42446c0,0 0.0282,-0.11279 0.10029,-0.26772c-0.59281,-3.62778 0.16251,-7.48077 -0.13778,-11.22067c-0.45852,-5.71064 -1.85758,-11.6806 -3.54987,-17.31731c-0.45687,-0.12859 -0.91341,-0.25789 -1.36952,-0.38821c0,0 -0.23404,-0.06687 -0.48663,-0.24101c-2.25414,3.96907 -5.55508,7.23722 -9.22422,10.01559c-3.20401,2.42616 -6.23422,5.77011 -10.22154,7.09249c-5.22185,1.73181 -11.08678,1.19065 -16.65552,1.19065c-7.77007,-0.20541 -11.23186,-7.99144 -14.74093,-13.82969c-0.21403,-0.35609 -3.16479,-5.24229 -3.23382,-5.45781c-0.2201,-0.68727 -0.34585,-5.00828 -0.50566,-5.9708c-0.17314,-1.0428 -0.65517,-2.65962 -1.08301,-4.03103c-1.97514,0.69915 -5.52377,0.56739 -6.78122,0.24921c-1.47622,-0.37353 -3.81826,-2.09982 -4.98357,-2.8759c-4.72944,-3.14971 -11.06126,-6.26547 -11.1718,-12.58397v-2c0,-0.82843 0.67157,-1.5 1.5,-1.5c0.52892,0 0.9939,0.27376 1.26098,0.68731l1.6512,2.47679l-0.19677,0.13118c0.37952,0.36096 0.77467,0.70359 1.19722,1.01429c0.65178,0.47924 1.57677,0.55693 2.14804,1.12977c1.09812,1.10115 1.38594,2.99891 2.72794,3.78468c1.65353,0.96819 3.68446,1.07462 5.46507,1.78243c1.64238,0.65286 3.21498,1.37639 4.82764,1.94966c-0.25936,-0.33917 -0.51226,-0.685 -0.75944,-1.03594c-0.01711,-0.0166 -0.03421,-0.0331 -0.0513,-0.04949c-4.29167,-4.11757 -8.62404,-8.14981 -8.77057,-14.37068v-2c0,-0.82843 0.67157,-1.5 1.5,-1.5c0.67476,0 1.24546,0.44554 1.43396,1.05847l0.93775,2.81324l-0.18644,0.06215c2.30713,4.01726 4.43757,8.3272 7.32,11.79811c1.35798,1.20299 2.74664,2.34711 4.11449,3.52851l0.05106,-0.10211l1.97093,0.98547c0.50737,0.24052 0.85825,0.75737 0.85825,1.35617c0,0.08529 -0.00712,0.16892 -0.02079,0.25033c0.32313,0.07507 0.64077,0.16385 0.93423,0.3098c0.44874,0.22318 0.60602,0.97692 1.10542,1.01913c0.30695,0.02595 0.02353,-0.61585 0.02128,-0.92389c-0.00522,-0.71405 -0.12583,-3.5432 0,-4c0.28015,-1.017 1.03373,-1.85026 1.38902,-2.8435c1.55664,-4.35165 1.85203,-9.3869 2.57541,-13.92881c-0.00289,-1.82507 0.57692,-5.68709 0.0598,-7.44838c-0.79757,-2.71646 -4.33921,-4.19103 -5.68253,-6.49992c-0.5659,-0.97267 -0.64105,-2.15741 -0.96157,-3.23611l-0.36402,-1.2918c0,0 -0.40685,-1.44377 1.03692,-1.85062c1.44377,-0.40685 1.85062,1.03692 1.85062,1.03692l0.36402,1.2918c1.09257,4.16627 5.36444,5.59552 6.62784,9.68038c0.6232,2.01492 0.06293,6.41042 0.0598,8.55162c-0.74811,4.80729 -1.09678,10.09973 -2.7413,14.70463c-0.3179,0.89016 -1.02253,1.61774 -1.29426,2.52306c-0.66091,2.20197 1.46601,5.75132 -1.97872,7.07611c-0.01184,0.00455 -5.45308,-1.84443 -6.18872,-2.1133c0.46445,1.47307 0.96813,3.13578 1.18797,4.45087c0.30524,1.82591 -0.16272,3.77614 0.40191,5.53918c1.06318,3.31974 4.22054,6.96729 6.03613,9.9652c1.97047,3.25366 4.84595,7.41146 9.08156,7.2373c3.39365,0 8.41925,0.89033 11.65537,0.04013c7.15665,-1.88021 13.71758,-6.59405 18.12687,-12.41594c0.30214,-0.39893 3.68819,-3.63101 4.0826,-4.24566c0.47165,-0.73501 0.83061,-1.84357 1.11776,-2.92833c-3.24454,0.44222 -6.49117,0.85568 -9.74082,1.2159c0.21688,0.33524 0.63084,1.20442 -0.2656,1.97279c-1.13888,0.97619 -2.11507,-0.1627 -2.11507,-0.1627c-0.37597,-0.43863 -0.81592,-0.90564 -1.28661,-1.39274c-2.45419,0.37534 -4.92912,0.69489 -7.36535,1.1589c-1.14002,0.21713 -2.25546,0.9323 -3.40082,0.74536c-1.17789,-0.19225 -2.46859,-0.78744 -3.09209,-1.8051c-0.16765,-0.27364 -0.35476,-5.80749 -0.47048,-6.53951c-0.88203,-5.57943 -2.72661,-11.06434 -3.5612,-16.66995c-0.43127,-0.06947 -0.94383,-0.32556 -1.13978,-1.10935c-0.26423,-1.05691 0.43107,-1.5381 0.83149,-1.72233c-0.18684,-3.1714 0.12373,-6.51154 0.12373,-9.64147c0,0 0,-1.5 1.5,-1.5c1.5,0 1.5,1.5 1.5,1.5c0,2.89652 -0.28901,5.99731 -0.15878,8.95143c2.02215,-0.40278 4.06938,-0.76383 6.0137,-1.34366c0.36063,-0.10755 4.99435,-2.01464 5.36646,-2.08167c0.96251,-0.17339 1.96962,0.17681 2.93398,0.01402c2.7579,-0.46552 2.72322,-3.67607 4.55603,-4.8161c0.44599,-0.27741 4.00588,-0.22402 4.7886,-0.22402c6.16482,0 13.89888,-1.35429 19.27598,1.7114c0.07467,0.92953 0.27779,1.85762 0.22402,2.7886c-0.01993,0.34509 -0.76727,0.83003 -0.43934,0.93934c1.32837,0.44279 2.80407,-0.68167 4.17961,-0.41997c1.15921,0.22054 2.26732,0.39497 3.35728,0.53167c-0.28115,-1.15632 -0.59465,-2.30075 -0.96926,-3.42275c-0.58268,-1.74518 -0.68587,-3.70643 -1.67016,-5.26089c-1.14188,-1.80335 -6.34325,-0.8674 -7.95813,-0.8674c-7.66667,0 -15.33333,0 -23,0c-6.52195,0 -13.0439,0 -19.56586,0c0.04188,0.14471 0.06586,0.31037 0.06586,0.5c0,1.5 -1.5,1.5 -1.5,1.5l-2.57403,-0.11418c-0.11236,-0.15824 -0.22472,-0.31647 -0.33708,-0.47471l-0.14955,0.14955l-2,-2l0.48863,-0.48863c-0.27126,-0.38202 -0.54253,-0.76404 -0.81379,-1.14606l1.38582,-0.379v-0.54697c7.66667,0 17.33333,0 25,0c7.66667,0 15.33333,0 23,0c3.32858,0 7.97039,-1.01175 10.34977,2.0563c0.18788,0.24226 1.95115,5.60221 2.12458,6.12331c0.50396,1.51428 0.89026,3.08154 1.23626,4.66792c1.68914,0.11218 3.41086,0.15247 5.2894,0.15247h2c0,0 1.5,0 1.5,1.5c0,1.5 -1.5,1.5 -1.5,1.5h-2c-1.57713,0 -3.05846,-0.0217 -4.50556,-0.08926c-0.05188,0.01809 -0.0991,0.03215 -0.13944,0.04292c0.69781,3.41534 1.44111,6.81756 2.98664,9.87552c0.61057,1.27012 0.54756,2.77794 1.04418,4.0968c0.46684,1.23977 3.02754,0.35752 3.67484,1.51336c0.67089,1.19796 0.77201,2.98212 0.00225,4.11907c-0.58443,0.86322 -2.05962,0.32735 -3.09496,0.44892c-2.67163,0.31371 -5.20322,0.9006 -7.86435,1.2671c-4.93302,0.6794 -9.86607,1.42139 -14.80236,2.13947l-0.42938,0.3067c0,0 -0.9409,0.67207 -1.76058,0.00999c-0.25024,0.03594 -0.5005,0.07179 -0.75076,0.10753c0.00373,0.01119 0.00746,0.02239 0.01119,0.03359c0.32986,0.98955 0.65529,1.9945 0.97277,3.01162c3.7077,1.03258 7.42787,2.04118 11.09884,3.18368c1.84739,0.57496 3.59386,1.52629 5.50109,1.85173c1.93857,0.33079 3.94273,-0.11564 5.89916,0.08399c3.85636,0.39349 7.22835,0.99727 11.15643,0.99727c3.70659,0 8.93528,0.94515 12.24711,-0.79737c6.239,-4.06085 5.53596,-11.03547 8.15083,-17.03103c-0.15313,-0.04818 -0.30778,-0.10529 -0.46336,-0.17003c-3.52834,0.0826 -6.61552,-0.29242 -9.71705,-2.22185c-8.44901,-5.25602 -13.43525,-14.81587 -18.65142,-22.83937l0.13406,-0.44036h-0.20015v-2c0,-0.82843 0.67157,-1.5 1.5,-1.5c0.67476,0 1.24546,0.44554 1.43396,1.05847l0.93775,2.81324l-0.20762,0.06921c0.44174,0.66877 0.92353,1.30449 1.49122,1.86975c0.68757,0.68463 1.72926,0.94127 2.40967,1.63301c3.94527,4.01091 7.10373,9.50341 11.81211,12.83947c1.77967,1.26096 4.00424,1.9026 6.01074,2.85394c-2.0761,-3.20063 -2.82012,-6.88742 -3.14676,-10.69729c-0.3027,-3.63239 -0.29141,-7.28456 -0.26362,-10.93398c-0.1099,-0.66632 -0.12044,-1.30682 0.01464,-1.93573c0.0046,-0.69032 0.00791,-1.3804 0.00791,-2.07009v-2c0,-0.82843 0.67157,-1.5 1.5,-1.5c0.82843,0 1.5,0.67157 1.5,1.5v3h-0.00227c-0.00391,0.9131 -0.01227,1.82692 -0.02007,2.74101c0.00099,0.00624 0.00198,0.01248 0.00297,0.01871c0.38495,2.42707 2.01062,4.44355 2.90519,6.66625c1.09823,2.72873 1.56526,5.81635 2.81789,8.4744c0.43988,0.93342 1.24435,1.67614 1.62312,2.63598c0.13973,0.35409 0.40296,5.1829 2.17317,4.96365c3.66141,-0.4535 7.29464,-5.21946 9.82695,-7.45081c2.37871,-2.096 4.313,-3.27261 6.03793,-5.97213c3.12611,-4.79737 5.27712,-10.02933 5.59447,-15.6406c-0.4036,0.15307 -0.9618,0.18241 -1.52001,-0.3758c-1.06066,-1.06066 0,-2.12132 0,-2.12132l2,-2l0.43945,0.43945l1.19524,-0.76461l0.379,1.38582h0.54697v2c0,6.75885 -2.43163,13.00167 -6.1182,18.70958c-1.91562,2.91611 -3.99639,4.32139 -6.57151,6.59046c-2.39385,2.10934 -4.27498,4.34095 -7.0574,5.99732c-0.49234,0.29309 -4.44076,2.21794 -4.75289,2.20263c-0.36948,-0.01811 -0.7041,-0.06251 -1.0078,-0.1303l-0.65056,1.30112l-0.03015,-0.01507l-0.01421,0.09728c-2.25847,3.34939 -2.23498,6.50511 -3.09998,10.2723c-0.97672,4.25368 -3.9726,7.91502 -7.44441,10.27204c-4.12832,1.99281 -9.20898,1.20263 -13.75289,1.20263c-4.01252,0 -7.52416,-0.61107 -11.46096,-1.01277c-0.90925,-0.09278 -5.32996,0.02003 -6.09925,-0.11123c-0.2008,-0.03426 -5.54694,-1.83836 -5.88311,-1.943c-3.04387,-0.94747 -6.12194,-1.80202 -9.19847,-2.65501c1.50082,5.27674 2.69813,10.7754 3.13449,16.07421c0.35321,4.28908 -1.18478,9.61648 0.84894,13.47699l0.15836,1.67082c0,0 0,0.81592 -0.60176,1.24423c4.9724,8.22714 10.39986,16.66531 11.56235,26.33397l0.02904,0.24575c0,0 0.17605,1.48963 -1.31358,1.66568zM358.69493,88.27289c1.07038,0.75246 2.2233,1.36225 3.5013,1.75227c-0.00016,-0.00008 -0.00032,-0.00016 -0.00048,-0.00024c-0.15618,-0.07743 -1.98081,-0.988 -3.50082,-1.75203zM368.53498,84.63434c-0.35497,-0.90073 -1.136,-1.58165 -1.54659,-2.45842c-1.06748,-2.27945 -1.98647,-4.75182 -2.88025,-7.22176c0.03337,0.57889 0.07376,1.15731 0.12246,1.73514c0.22968,2.81251 0.6264,5.56721 1.93847,8.12703c0.84837,1.65516 2.66041,2.67202 3.5478,4.3066c0.06041,0.11127 0.12618,0.22616 0.19498,0.34391l0.05726,-0.05726c-0.70766,-1.39698 -0.83257,-3.2488 -1.43412,-4.77523zM252.12447,93.74031c-2.19035,-0.63451 -4.27224,-1.56662 -6.49394,-2.45202c-0.37242,-0.14842 -2.5549,-0.84289 -4.1666,-1.38041c2.5719,1.93613 5.43959,3.59213 8.03607,3.59213c0.80209,0 1.81141,0.29743 2.62447,0.24031zM237.67153,86.76585c-0.36539,-0.61158 -0.74145,-1.21611 -1.23219,-1.70519c-0.73414,-0.73165 -1.39757,-1.08972 -1.94485,-1.42602c0.43074,0.75336 1.15606,1.35042 2.23465,2.29997c0.29775,0.26213 0.61262,0.54101 0.94239,0.83124zM305.43934,94.06066c0,0 -1.06066,-1.06066 0,-2.12132c1.06066,-1.06066 2.12132,0 2.12132,0c1.47316,1.50247 2.45827,3.07924 3.2375,4.76922c0.28557,-0.07301 0.57069,-0.14409 0.85512,-0.21328c2.35055,-0.57174 7.12438,-1.36813 8.4609,-4.06931c0.64618,-1.30597 -0.11365,-2.91272 -0.11313,-4.36981c0.36027,-2.63911 -5.46421,-1.71514 -7.35325,-1.56347c-4.21872,0.33873 -8.79639,1.70189 -12.86319,2.81992c-1.93682,0.53247 -5.66348,1.679 -6.96211,3.39517c-0.65322,0.86326 0.16711,2.16033 0.17668,3.24284c0.0175,1.9808 1.54118,3.81296 3.146,5.47583c0.68305,-0.07165 1.36535,-0.14706 2.04701,-0.22574c0.40473,-0.70071 1.3078,-0.70071 1.3078,-0.70071l0.32918,0.15836c2.53658,-1.26829 5.29488,-2.30451 8.0779,-3.14531c-0.60958,-1.23419 -1.37961,-2.39033 -2.46774,-3.45239zM322.7206,95.12814c0.87186,1.2206 -0.34874,2.09246 -0.34874,2.09246c-0.35763,0.25545 -0.71526,0.5109 -1.07289,0.76635c0.99199,-0.12955 1.98512,-0.25408 2.97969,-0.37204c3.68586,-0.43716 7.24601,-1.21696 10.88323,-1.82178c0.44808,-0.07451 0.89924,-0.14381 1.35191,-0.19579c-1.36341,-1.315 -1.48626,-4.27659 -2.35545,-5.92652c-1.67394,-3.37935 -2.44097,-7.09025 -3.21685,-10.79738c-8.107,1.08179 -16.13543,1.59997 -24.25546,2.61497c0,0 -1.48842,0.18605 -1.67447,-1.30236c-0.18605,-1.48842 1.30236,-1.67447 1.30236,-1.67447c4.72027,-0.59003 9.40759,-1.0113 14.0974,-1.47345c-0.9569,-0.7964 -0.39834,-3.10846 -0.18732,-4.24954c-3.97926,-1.22404 -9.53718,-0.2886 -13.72402,-0.2886c-1.66667,0 -3.33737,0.11598 -5,0c-0.40965,-0.02858 -0.88639,-0.47502 -1.2114,-0.22402c-0.44852,0.34638 -0.23499,1.14529 -0.57173,1.60109c-0.44708,0.60514 -1.02966,1.24566 -1.69185,1.81989c1.82564,-0.5893 3.66824,-1.14684 5.43277,-1.88691l0.4633,-0.19383c0,0 1.38378,-0.57892 1.9627,0.80486c0.57892,1.38378 -0.80486,1.9627 -0.80486,1.9627l-0.4633,0.19383c-4.3417,1.81211 -9.41721,2.41281 -13.12083,5.54506c-2.61067,2.20791 -4.70522,6.09112 -6.81077,8.79825c0,0 -0.92091,1.18403 -2.10494,0.26312c-0.11355,-0.08832 -0.20775,-0.17906 -0.28525,-0.27094c0.54493,2.24849 1.062,4.49845 1.41561,6.76467c0.27987,1.79363 -0.42996,3.70035 0.06972,5.44556c0.30718,1.07287 2.24215,-0.0832 3.33252,-0.32087c1.77346,-0.38657 3.59596,-0.63937 5.41179,-0.88938c-0.9505,-1.05899 -1.79447,-2.14075 -2.26954,-3.17992c-0.44243,-0.96777 -0.66933,-6.5205 -0.07646,-7.44092c0.20214,-0.31382 5.1377,-3.73099 5.68991,-3.98405c5.49351,-2.51749 13.62748,-3.81951 19.6326,-3.80817c2.22699,0.00421 5.22231,-0.35058 7.02922,1.52667c0.68302,0.70961 0.31315,1.94478 0.46973,2.91716c0.00001,0.03322 0.04732,5.31106 -0.11313,5.63019c-0.21594,0.42948 -0.4318,0.78573 -0.65117,1.08686c0.1671,0.10137 0.33196,0.25168 0.48595,0.46726zM282.31597,89.07909c2.23127,-2.86878 4.42675,-6.84482 7.18923,-9.20175c1.16956,-0.99786 2.44441,-1.76226 3.78012,-2.39336c-0.50589,-0.04518 -1.01275,-0.09398 -1.50671,-0.01008c-1.79103,0.30423 -3.32543,1.48959 -5.06636,2.00876c-2.12546,0.63385 -4.36942,1.01304 -6.57341,1.46363c0.43303,2.95876 1.15627,5.88325 1.87186,8.80594c0.08765,-0.39335 0.30527,-0.67314 0.30527,-0.67314z" fill="#000000" stroke="none" stroke-width="0.5"/><path d="M97,86c0,-0.82843 0.67157,-1.5 1.5,-1.5c0.82843,0 1.5,0.67157 1.5,1.5c0,0.82843 -0.67157,1.5 -1.5,1.5c-0.82843,0 -1.5,-0.67157 -1.5,-1.5z" fill="#000000" stroke="none" stroke-width="0.5"/><path d="M108,90c0,-0.82843 0.67157,-1.5 1.5,-1.5c0.82843,0 1.5,0.67157 1.5,1.5c0,0.82843 -0.67157,1.5 -1.5,1.5c-0.82843,0 -1.5,-0.67157 -1.5,-1.5z" fill="#000000" stroke="none" stroke-width="0.5"/><path d="M59.22271,107.78647c-0.78647,-1.27729 0.49081,-2.06376 0.49081,-2.06376l0.08763,-0.05395c2.40579,-1.47441 5.73651,-3.50262 8.51176,-4.13105c0.21598,-0.04891 5.93076,-0.0379 6.33613,-0.03734c1.04009,0.00144 5.86358,-0.06758 6.6565,0.32064c0.72299,0.35398 1.50293,1.08486 2.27935,1.96787c0.12151,-0.0819 0.26699,-0.15398 0.44077,-0.2119c1.42302,-0.47434 1.89737,0.94868 1.89737,0.94868c0.43425,1.30275 0.90908,2.59666 1.41739,3.88284c0.85932,-1.33344 1.65279,-2.71753 2.36851,-4.16053c1.08292,-1.55514 2.62378,-2.85818 3.30258,-4.62748c0.23736,-0.61868 -0.1832,-1.36166 0.03412,-1.98766c0.0285,-0.08209 0.05928,-0.16314 0.09208,-0.24327c-0.27018,-0.48078 -0.54445,-0.96163 -0.80366,-1.45017c-0.02689,-0.03158 -0.05392,-0.06541 -0.08045,-0.10142c-1.17655,-0.59364 -2.22376,-1.70709 -3.54179,-2.8304c-3.76653,-3.21009 -7.42655,-7.12373 -10.38712,-11.08832c-1.21758,-1.6305 -3.45565,-5.61813 -2.10067,-7.70785c2.2344,-3.44602 7.86659,-0.94779 10.93135,-1.67128c4.23804,-1.00047 8.86379,-4.72974 12.63981,-6.86422c0.10258,-0.05131 0.20518,-0.10333 0.30778,-0.15599c-3.12275,-1.75128 -6.26809,-3.45808 -9.34716,-5.21755c0,0 -1.30236,-0.74421 -0.55816,-2.04657c0.74421,-1.30236 2.04657,-0.55816 2.04657,-0.55816c3.59801,2.056 7.28319,4.0422 10.91923,6.10881c2.38646,-1.40884 4.78875,-2.90767 7.23175,-3.88961c1.27014,-0.51052 2.64808,-1.48847 3.95858,-1.09293c1.14353,0.34514 1.2303,2.07919 2.08243,2.91624c0.53245,0.52303 1.38147,0.60531 1.9699,1.06444c1.59863,1.24736 2.92866,2.80842 4.47036,4.12548c6.11821,5.22672 12.11084,10.43604 17.80552,16.13058c1.55658,1.55654 5.4895,4.3235 6.20384,6.36531c0.38034,1.08713 -0.11264,2.30073 -0.16896,3.45109c-1.87208,0.76225 -3.89147,1.09823 -5.85487,1.5786c-1.49336,0.36537 -2.73678,1.39108 -4.10793,2.09611c0.05482,0.29168 0.10964,0.58336 0.16447,0.87504l0.08009,1.50884c0,0 0.06435,1.49862 -1.43427,1.56297c-1.49862,0.06435 -1.56297,-1.43427 -1.56297,-1.43427l-0.03122,-1.08336c-0.0082,-0.04361 -0.01631,-0.08749 -0.02435,-0.13163c-1.91822,0.85993 -3.85742,1.68896 -5.7865,2.49909c-3.14006,1.31869 -6.33208,2.52798 -9.51827,3.7508c0.07801,0.06574 0.13409,0.12036 0.16425,0.1617c0.42566,0.58339 -0.23051,1.51326 0.08052,2.16502c0.77924,1.63292 2.96405,2.23109 3.89016,3.78543c1.10729,1.85842 2.05313,7.26635 1.06731,9.43962c0.19834,-0.09674 0.42119,-0.15102 0.65671,-0.15102h2c15.41581,0 30.71841,-1.0083 46.12187,-1.29018c12.14558,-2.83848 24.35409,-4.50752 36.69615,-6.27048c4.65919,-0.66553 9.51002,-0.83228 14.11625,-1.7614c2.69076,-0.54275 5.27963,-1.54713 7.98041,-2.09939c3.09698,-0.62871 8.70651,-3.1158 11.87392,-1.35453c0.94116,0.52334 1.21705,1.7947 1.63021,2.78917c1.27513,3.06922 1.23451,7.10531 1.53182,10.37564c0.18339,2.0173 0.38038,4.03343 0.5875,6.04865c1.07463,-0.28358 2.20156,-0.64498 3.14361,-0.17236c5.5383,2.77854 1.4218,8.74653 -1.79461,12.36274c0.65575,5.64355 1.3361,11.2846 1.96459,16.92946c1.10125,9.89102 2.18143,19.86859 3.63053,29.71254c0.32195,2.18702 0.83236,3.94293 1.63942,5.84296c2.07408,0.15123 4.12994,0.32629 6.15357,0.56103l2.89761,0.33613c0,0 1.49001,0.17284 1.31716,1.66285c-0.17284,1.49001 -1.66285,1.31716 -1.66285,1.31716l-2.89761,-0.33613c-1.32833,-0.15409 -2.66823,-0.28423 -4.01637,-0.39979c0.38972,0.64341 0.64105,1.29342 0.40864,1.95499c-0.36036,1.02584 -5.68437,0.78185 -6.38114,0.77535c-1.51009,-0.01409 -3.00946,-0.06264 -4.50377,-0.13729c1.95209,4.55958 3.89786,9.13005 5.52239,13.83517l0.45857,1.32814c0,0 0.48954,1.41787 -0.92832,1.90741c-1.41787,0.48954 -1.90741,-0.92832 -1.90741,-0.92832l-0.45857,-1.32814c-1.76571,-5.11403 -3.90387,-10.06815 -6.01964,-15.02107c-2.38733,-0.1745 -4.77246,-0.40003 -7.17865,-0.64219c-13.98,0.0089 -28.02945,-0.33381 -42.04557,-0.2732c3.97254,4.57626 7.6854,9.34851 11.62441,14.00586c3.11762,3.68618 6.61294,7.07175 9.65645,10.81889c2.51525,3.09675 4.62021,6.39089 7.40232,9.26663c2.97677,3.08308 5.63022,6.90253 9.75751,8.20935l0.74625,-0.02418c0,0 1.49852,0.06664 1.43188,1.56516c-0.06664,1.49852 -1.56516,1.43188 -1.56516,1.43188l-1.56165,-0.12681c-4.71072,-1.63329 -7.55307,-5.43573 -10.96703,-8.97161c-2.83615,-2.94296 -4.99775,-6.28748 -7.56524,-9.44978c-3.03246,-3.73499 -6.51874,-7.10838 -9.62593,-10.78221c-4.48981,-5.30861 -8.67983,-10.77206 -13.30804,-15.91452c-2.90429,0.02977 -5.80673,0.07995 -8.7064,0.15726c0.37926,0.32989 0.6364,0.56352 0.67336,0.62122c0.11467,0.17902 0.22364,0.36145 0.32723,0.54705c0.27207,-0.2328 0.54037,-0.46607 0.80379,-0.70023c0,0 1.12111,-0.99655 2.11766,0.12457c0.99655,1.12111 -0.12457,2.11766 -0.12457,2.11766c-0.52452,0.46624 -1.07011,0.92872 -1.62685,1.39093c1.16729,4.26322 0.72817,9.35264 1.12301,13.34015c0.2894,2.92266 1.28785,5.83375 1.7534,8.7354c1.13008,7.04338 1.22348,14.05466 1.25289,21.16738c0.00151,4.8968 0.98634,9.35112 1.001,14.24095c0.00133,0.4434 0.00652,1.33864 -0.00229,2.29728c8.05332,6.64215 16.80478,12.35391 24.83356,19.05128c4.9219,4.1057 9.61661,9.41965 15.35222,12.32028l0.31651,-0.16477c0,0 1.5,0 1.5,1.5c0,1.5 -1.5,1.5 -1.5,1.5l-1.68349,-0.16477c-5.95191,-3.07861 -10.77669,-8.40754 -15.90693,-12.68703c-7.49337,-6.25075 -15.61587,-11.64249 -23.21347,-17.73422c-0.89275,1.27481 -3.17944,0.76862 -4.62208,1.47184c-1.64577,0.80224 -4.23561,4.10901 -5.41401,5.56516c-5.52424,6.82629 -8.95012,15.29394 -12.24805,23.32107c-0.03266,0.14978 -0.06531,0.29956 -0.09797,0.44934c0.3525,0.19754 0.686,0.57132 0.686,1.27861c0,1.5 -1.5,1.5 -1.5,1.5l-2.46474,-1.82334c0.171,-0.7662 0.342,-1.5324 0.513,-2.2986c3.4124,-8.39265 7.02152,-17.20803 12.79172,-24.32905c1.47845,-1.82456 4.53085,-5.38931 6.58599,-6.43484c0.98712,-0.50218 2.9486,0.64816 3.29805,-0.40278c0.03406,-0.10243 0.06158,-0.20567 0.08337,-0.30962c-0.26675,-0.34565 -0.59901,-1.01312 -0.02885,-1.77465c-0.11089,-0.70725 -0.27651,-1.42332 -0.27854,-2.12305c-0.01415,-4.87581 -0.99949,-9.33849 -1.001,-14.24243c-0.02878,-6.95615 -0.1098,-13.81038 -1.21502,-20.69879c-0.47564,-2.96452 -1.48093,-5.92817 -1.77669,-8.91505c-0.39148,-3.95358 -0.4117,-7.38013 -1.14868,-11.16054c-1.50722,1.25938 -2.96873,2.56078 -4.19643,3.97029c-3.77675,4.33607 -6.57635,10.05951 -9.60423,14.93549c-4.02173,6.47645 -8.56664,12.79788 -12.02981,19.58486c-1.11988,2.19161 -2.21605,4.38896 -3.36981,6.55635c0.82063,0.89516 0.01208,1.90389 0.01208,1.90389l-0.22476,0.2804c-0.62795,0.78342 -1.33273,1.50234 -2.0855,2.17315l0.2092,0.16768l-1.86771,2.33011c-0.27466,0.34869 -0.70069,0.57257 -1.17901,0.57257c-0.82843,0 -1.5,-0.67157 -1.5,-1.5c0,-0.28989 0.08223,-0.56057 0.22464,-0.78999l1.52457,-2.55484c2.03687,-3.41123 3.77744,-6.96724 5.58486,-10.50439c3.51014,-6.86017 8.08543,-13.2527 12.15266,-19.80241c3.11563,-5.01729 6.00331,-10.86026 9.89062,-15.32326c1.67158,-1.91914 3.74859,-3.64616 5.80455,-5.33465c-0.06552,-0.35704 -0.16448,-0.69974 -0.35831,-1.00236c-0.5681,-0.88693 -1.42517,-1.51415 -2.32024,-2.10852c-0.44969,0.01628 -0.89929,0.0333 -1.34882,0.05107c-6.99457,0.27566 -13.98914,0.55133 -20.98371,0.82699c-3.82859,0.15089 -8.03183,-0.1586 -11.80952,0.45436c-1.86707,0.30295 -8.20518,3.4124 -9.78476,2.22603c-1.13057,-0.84913 -0.4821,-2.79017 -0.59951,-4.19922c-0.49227,-5.90793 0.01356,-12.05702 -0.02908,-17.98931c-0.00091,-0.12643 -0.00186,-0.25286 -0.00287,-0.37929c-0.18561,-0.15062 -0.36344,-0.30668 -0.52838,-0.47162c0,0 -1.06066,-1.06066 0,-2.12132c0.16646,-0.16646 0.33292,-0.28067 0.49529,-0.35494c-0.02374,-1.60432 -0.05759,-3.20856 -0.10522,-4.81224c-0.76042,-0.42681 -1.42546,-1.04759 -2.16145,-1.52409c0,0 -1.24808,-0.83205 -0.41603,-2.08013c0.83205,-1.24808 2.08013,-0.41603 2.08013,-0.41603c0.12211,0.08447 0.24125,0.17474 0.35891,0.26785c-0.26502,-5.94797 -0.75963,-11.88357 -1.67227,-17.7837c-1.18738,-7.67634 -3.29799,-15.32824 -4.98297,-22.91068c0,0 -0.17191,-0.77361 0.29648,-1.32118l-2.16556,-0.54139c-0.66798,-0.15159 -1.16664,-0.74897 -1.16664,-1.46282c0,-0.18852 0.03478,-0.36892 0.09827,-0.53513c-0.58077,0.35085 -1.34369,0.52876 -1.92745,0.87677l-1.67082,0.15836c0,0 -1.5,0 -1.5,-1.5c0,-1.5 1.5,-1.5 1.5,-1.5l0.32918,0.15836c0.46495,-0.14899 1.19692,-0.00064 1.39484,-0.44696c0.29795,-0.67188 -0.17873,-1.45995 -0.22392,-2.19354c-0.10548,-1.71248 0.24826,-2.59332 -0.77608,-4.22927c-1.04135,-1.66312 -3.20538,-2.47321 -4.10984,-4.21457c-0.2822,-0.54333 0.41806,-1.32418 0.08052,-1.83498c-0.12932,-0.1957 -0.28032,-0.36745 -0.44839,-0.52045c-2.37235,0.92756 -4.73168,1.88343 -7.05394,2.91876c-2.68339,1.19633 -5.31112,3.07249 -8.09776,3.99249c-1.34921,0.44544 -2.93256,1.63891 -4.16095,0.92488c-2.05547,-1.19477 -1.41124,-8.03141 -1.43364,-10.04642c0.00862,-0.35764 -0.01072,-0.7048 -0.05356,-1.04323c-0.9755,1.42691 -2.41147,3.46206 -2.65575,3.81075c-1.03362,2.09886 -2.23027,4.08079 -3.55446,5.9678c3.64611,8.27568 8.44509,16.26496 12.44702,24.26883l0.65836,1.31672c0,0 0.67082,1.34164 -0.67082,2.01246c-1.34164,0.67082 -2.01246,-0.67082 -2.01246,-0.67082l-0.65836,-1.31672c-3.77888,-7.55777 -8.24398,-15.10005 -11.81701,-22.87862c-5.08951,6.34949 -11.55017,11.65174 -17.82133,16.87569c-4.54695,3.78766 -9.49355,5.63027 -13.16166,10.54882c0,0 -0.9,1.2 -2.1,0.3c-1.2,-0.9 -0.3,-2.1 -0.3,-2.1c1.88401,-2.49923 4.04633,-4.87078 6.62671,-6.69931c2.30725,-1.63498 4.8145,-2.51079 7.01163,-4.35187c6.53583,-5.47669 13.26342,-10.9597 18.3587,-17.71708c-0.11662,-0.27685 -0.23187,-0.55404 -0.34568,-0.83158c-1.17076,-1.35501 -2.36038,-2.69422 -3.495,-4.07952c-0.50956,-0.62215 -0.75597,-1.55042 -1.47616,-1.90827c-1.59259,-0.79133 -3.5567,-0.00986 -5.33506,-0.01201c-1.888,-0.00228 -3.82436,-0.4632 -5.66387,-0.03806c-2.47074,0.57103 -5.46728,2.43661 -7.60718,3.76103l-0.08763,0.05395c0,0 -1.27729,0.78647 -2.06376,-0.49081zM111.72826,103.28624c0,0 -1.28624,-0.77174 -0.5145,-2.05798c0.77174,-1.28624 2.05798,-0.5145 2.05798,-0.5145c0.30477,0.18286 1.25114,0.73965 2.27869,1.36435c3.82403,-1.48252 7.67286,-2.91055 11.44729,-4.49564c2.09694,-0.88062 4.26904,-2.09432 6.46241,-3.23289c-0.50734,-4.27716 -1.05687,-9.32147 -3.53416,-11.96375c-2.22638,0.17827 -7.74064,0.83797 -9.48664,-0.32516c-0.69399,-0.46231 0.00334,-1.71323 -0.3227,-2.48073c-0.95637,-2.25129 -5.87223,-5.19359 -7.84763,-6.58304c-2.89876,-2.03893 -5.9381,-3.90444 -9.02968,-5.69313c-0.67543,0.34116 -1.3537,0.68007 -2.0345,1.02033c-4.02715,2.27831 -8.83118,6.06663 -13.36019,7.13578c-0.20444,0.04826 -5.94292,0.04359 -6.34463,0.04013c-0.237,-0.00204 -2.3371,-0.23422 -2.72402,0.2886c-0.95237,1.28686 3.48692,5.82939 3.9923,6.39965c2.73429,3.08532 5.10366,6.315 8.22143,8.97104c-0.24714,-1.49049 -0.49367,-3.01011 -0.52457,-3.19868l-0.4454,-2.71804c0,0 -0.24256,-1.48026 1.23769,-1.72282c1.48026,-0.24256 1.72282,1.23769 1.72282,1.23769l0.4454,2.71804c0.3068,1.87224 0.19463,3.85614 0.88874,5.62182c0.07945,0.20211 0.16196,0.40104 0.2469,0.59725c0.12259,0.07227 0.24563,0.14384 0.36903,0.21484l0.02305,-0.09221l2.87999,0.72c0.43187,0.098 0.79296,0.38235 0.99427,0.76404c1.98896,0.18468 4.07246,-0.03385 6.29177,0.15601c0.05284,0.00452 5.91868,0.82414 6.02192,0.83855l1.56608,0.21864c0,0 1.48559,0.2074 1.27819,1.69299c-0.2074,1.48559 -1.69299,1.27819 -1.69299,1.27819l-1.56608,-0.21864c-1.59818,-0.22312 -3.2923,-0.31163 -5.01218,-0.38622c-0.27265,0.37527 -0.715,0.61927 -1.21434,0.61927c-0.54743,0 -1.02637,-0.29326 -1.28829,-0.73124c-2.24683,-0.11612 -4.47989,-0.30725 -6.54499,-0.83857c0.73127,1.53722 1.30013,3.1313 1.33327,5.06151c0.02078,1.88351 0.17613,3.76597 0.13764,5.6492c-0.01245,0.60911 -0.73347,1.51716 -0.2028,1.81642c0.53619,0.30237 0.95816,-0.78121 1.49053,-1.09024c2.52677,-1.4667 5.37758,-2.78035 8.04543,-3.96975c1.51177,-0.67399 3.03912,-1.31449 4.57549,-1.93548c-0.10869,-0.05543 -0.2149,-0.11374 -0.31802,-0.17561zM113.99496,70.54309c2.48797,1.74999 4.92264,3.77136 7.06894,5.92482c0.62794,0.63004 1.46727,1.13532 1.81946,1.95216c0.20498,0.47541 -0.7532,1.23169 -0.3227,1.51927c0.55116,0.36818 1.2806,-0.36587 1.93934,-0.43934c2.10798,-0.23509 4.46888,0.0208 6.57403,0.11418c0.91042,0.88226 2.07454,1.56236 2.73127,2.64677c0.49038,0.80974 1.25735,5.29282 1.45068,6.32075c0.27994,1.48844 0.55971,2.97691 0.83945,4.46538c1.35178,-0.62219 2.70347,-1.1546 4.04258,-1.50275c1.34415,-0.34946 2.77934,-0.16947 4.14513,-0.4214c-0.25447,-0.82674 -1.09724,-1.34319 -1.72248,-1.94095c-2.08116,-1.98971 -4.05645,-4.09441 -6.11128,-6.11137c-5.70352,-5.59841 -11.99631,-10.42742 -17.84643,-15.84796c-1.32273,-1.2256 -3.04322,-2.00337 -4.2604,-3.33385c-0.55047,-0.60172 -0.25339,-1.88827 -0.99056,-2.23708c-0.58374,-0.27621 -1.1166,0.64915 -1.67319,0.97665c-0.82315,0.48435 -1.64339,0.97363 -2.46599,1.45891c-0.9349,0.55153 -1.87738,1.07657 -2.82658,1.58556c2.60035,1.53904 5.15379,3.14351 7.60874,4.87027zM225.54592,189.13397c-2.70974,-1.00677 -6.36914,-1.37716 -8.83451,-2.85799c-0.74297,-0.44627 -1.01603,-1.49118 -1.78543,-1.89016c-0.74209,-0.38482 -2.0385,0.38051 -2.48664,-0.32516c-2.26986,-3.57428 0.60711,-7.69592 2.87868,-10c4.11835,-4.17729 9.2798,-6.9508 13.72668,-10.71952c2.98051,-2.52598 5.63065,-5.63781 8.39464,-8.4018c0,0 1.06066,-1.06066 2.12132,0c1.06066,1.06066 0,2.12132 0,2.12132c-2.82277,2.82277 -5.53267,5.9878 -8.57593,8.56877c-3.62052,3.07054 -7.93947,5.3554 -11.50209,8.50389c-2.15453,1.90408 -3.79591,3.28817 -4.49609,6.06712c-0.1458,0.57868 -0.78974,1.26589 -0.42589,1.7389c0.31459,0.40897 1.04798,-0.54795 1.51336,-0.32516c0.91962,0.44025 1.34679,1.5746 2.21457,2.10984c1.87665,1.15751 4.76089,1.5638 7.09558,2.21404c-0.8592,-3.52452 -1.63822,-7.05974 -2.35505,-10.64389c0,0 -0.29417,-1.47087 1.1767,-1.76505c1.47087,-0.29417 1.76505,1.1767 1.76505,1.1767c0.8333,4.16648 1.75115,8.26458 2.78321,12.35794c3.88805,1.22308 7.94212,1.93221 12.05424,2.40382c-1.86118,-4.60009 -3.55253,-9.25975 -4.76353,-14.10378c0,0 -0.3638,-1.45521 1.09141,-1.81902c1.45521,-0.3638 1.81902,1.09141 1.81902,1.09141c1.30418,5.21671 3.17453,10.2208 5.21333,15.16853c2.58842,0.22719 5.1881,0.39072 7.77254,0.55837c-0.53864,-1.79185 -0.72568,-3.79398 -0.92333,-5.13297c-1.45919,-9.88558 -2.54167,-19.90755 -3.64763,-29.84083c-0.53688,-4.82209 -1.11144,-9.64139 -1.67627,-14.46184l-1.13321,1.13321c0,0 -1.06066,1.06066 -2.12132,0c-1.06066,-1.06066 0,-2.12132 0,-2.12132l2,-2c0.26572,-0.26457 0.53756,-0.53798 0.81133,-0.81932c-0.28183,-2.44205 -0.55795,-4.88466 -0.82221,-7.32834c-0.02645,0.0114 -0.05282,0.02299 -0.07912,0.03479c-2.16175,0.96989 -5.17386,2.50637 -7.78024,4.23692c0.66717,0.64745 1.16009,1.4883 1.39077,2.59198c0.77065,3.68711 -2.30231,4.21838 -4.07183,6.90989c-0.7184,0.47198 -5.03875,3.69849 -6.17664,2.71071c-2.63571,-2.288 0.74796,-8.73999 2.32538,-10.60977c0.22474,-0.26639 0.48256,-0.49793 0.75817,-0.71067c-2.14752,-0.3786 -4.3816,-0.56725 -6.4973,-0.80213c-6.39832,-0.71033 -12.71636,-0.65859 -19.14298,-0.65411c0.28484,0.32429 0.55399,0.66948 0.86853,0.95584c2.23423,0.05764 4.45373,0.25444 6.64487,0.79336l2.00543,0.26142c0.7467,0.08601 1.32649,0.72033 1.32649,1.49007c0,0.82843 -0.67157,1.5 -1.5,1.5h-3c-0.95466,0.17728 -1.96221,0.20523 -3.24027,-0.01937c-0.8867,-0.15582 -1.68738,-0.55297 -2.45372,-1.04323c-2.42602,-0.05742 -4.87234,0.0626 -7.30601,0.0626c-4.50242,0 -9.00485,0 -13.50727,0c1.29259,0.37615 2.5649,0.85513 3.81153,1.47508c2.44852,1.21765 4.88295,2.65529 7.41708,3.68769c0.81192,0.33077 1.81693,0.28679 2.49549,0.83723h1.78317c0.82843,0 1.5,0.67157 1.5,1.5c0,0.82843 -0.67157,1.5 -1.5,1.5h-1.89026c-5.67335,1.12931 -11.37391,1.81068 -17.12005,2.46989c-3.95615,0.45384 -7.90565,0.91643 -11.84175,1.52604c-1.74737,0.27063 -3.78783,-0.27358 -5.25679,0.71065c-0.64932,0.43506 -0.42921,1.67253 -1.10256,2.06939c-1.37283,0.80913 -6.29131,0.22402 -7.7886,0.22402c-6.88169,0 -13.76337,0 -20.64506,0c0.45637,4.30352 0.73226,8.62149 0.8971,12.94464c1.62067,0.07665 3.87821,-0.18783 4.75952,0.14459c1.69304,0.63859 5.67767,3.93413 7.03929,5.3404c1.51682,1.56656 2.69406,3.46458 3.556,5.51122c12.29367,-1.04511 24.20474,-0.26716 36.49774,0.96214l1.04467,0.10447c0,0 1.49256,0.14926 1.3433,1.64181c-0.14926,1.49256 -1.64181,1.3433 -1.64181,1.3433l-1.04467,-0.10447c-11.86149,-1.18615 -23.35492,-1.95559 -35.20024,-1.01914c0.48605,1.81517 0.75442,3.67596 0.81982,5.47162c0.08816,2.42073 0.45748,4.23022 -1.35117,6.20609c-0.56428,0.61645 -1.21194,1.08321 -1.91606,1.43576c1.83225,-0.01154 3.66092,0.00881 5.41689,-0.06039c6.64697,-0.26196 13.29393,-0.52393 19.9409,-0.78589c0.0552,-0.1897 0.15943,-0.38997 0.33146,-0.59641c0.96028,-1.15233 2.11261,-0.19206 2.11261,-0.19206c0.09337,0.07781 0.39342,0.32646 0.80245,0.66661c3.12413,-0.1064 6.25197,-0.17913 9.38233,-0.22624c-0.39782,-0.41202 -0.79959,-0.82123 -1.20572,-1.22737c0,0 -1.06066,-1.06066 0,-2.12132c1.06066,-1.06066 2.12132,0 2.12132,0c1.08065,1.08065 2.13083,2.18267 3.15812,3.3012c11.81455,-0.09956 23.6579,0.11585 35.46719,0.215l-0.13287,-0.05997c-0.27433,-1.0034 -0.54126,-2.00577 -0.80123,-3.00799c-0.23591,-0.08256 -0.47124,-0.16708 -0.70595,-0.25362zM140.5,191.5c2.84184,0 6.6264,0.62959 8.92552,-1.54665c0.96649,-0.91484 0.54724,-3.08157 0.5028,-3.98632c-0.20286,-4.13022 -1.47085,-8.82844 -4.47917,-11.89665c-0.23391,-0.23857 -0.48498,-0.45678 -0.74745,-0.66156c0.89864,2.06646 1.93294,4.28405 2.27423,6.32354c0.48069,2.87253 0.02407,6.34914 0.02407,9.26764v1c0,0 0,1.5 -1.5,1.5c-1.5,0 -1.5,-1.5 -1.5,-1.5v-1c0,-2.7406 0.46776,-6.03196 0.02407,-8.73236c-0.41247,-2.5104 -2.03569,-5.35995 -2.92856,-7.74095c0,0 -0.31117,-0.82977 0.18264,-1.45291c-0.63041,-0.53797 -1.05218,-1.38591 -1.8254,-1.67761c-1.12302,-0.42366 -2.37746,-0.21108 -3.60794,-0.12124c0.05586,2.01819 0.09083,4.03706 0.11199,6.05567c1.23531,1.23818 2.84253,2.87377 2.92902,3.09538c0.43336,1.11038 0.09348,2.38226 0.11418,3.57403c0.05496,3.16441 0.0055,6.33436 0.00041,9.5zM229.6509,190.51137c0.38052,0.04651 1.3491,0.28328 1.3491,1.48863c0,0.18209 -0.0221,0.34208 -0.06095,0.48264c1.87967,0.0111 3.75831,0.01809 5.63567,0.01922c1.91334,0.19016 3.81951,0.40138 5.72772,0.57574c-0.07012,-0.16639 -0.14012,-0.33282 -0.20999,-0.49929c-4.2271,-0.42618 -8.4143,-1.04883 -12.46291,-2.14663c0.00711,0.02656 0.01423,0.05313 0.02136,0.07969zM245.64915,193.3338c0.94054,0.05483 1.88288,0.09258 2.8281,0.10639c1.01722,0.01486 2.04634,-0.08117 3.06919,-0.12255c-2.02585,-0.13792 -4.05938,-0.27337 -6.08974,-0.43694c0.06407,0.15106 0.12823,0.30209 0.19245,0.4531zM138.5,194.5c0,0 -0.20602,0 -0.46535,-0.07635c-0.15277,0.04835 -0.32971,0.07635 -0.53465,0.07635c-1.03742,0 -1.35735,-0.71749 -1.45601,-1.16002c0.01743,0.52219 0.02013,1.04346 -0.04433,1.56057c-0.07825,0.62772 -1.10466,1.42088 -0.59886,1.80078c0.50581,0.37989 0.98149,-0.82689 1.56254,-1.07699c1.04468,-0.44967 2.12614,-0.82382 3.22754,-1.12433zM136,192c0,-0.21473 -0.00029,-0.42949 -0.00082,-0.64428c0.00004,0.18148 0.00009,0.36297 0.00015,0.54445c0.00001,0.04177 0.00024,0.08355 0.00066,0.12534zM136,182c0.01703,-0.80937 0.39975,-1.66846 0.11418,-2.42597c-0.03818,-0.10127 -0.08158,-0.19904 -0.12969,-0.29367c0.00461,0.99961 0.00778,1.99922 0.00996,2.99885c0.00174,-0.09307 0.00359,-0.18614 0.00555,-0.2792zM249.22528,131.95271c1.27819,-2.56071 0.33168,-3.51265 -1.8719,-3.0171c0.18305,1.7046 0.37211,3.40867 0.5651,5.11236c0.50187,-0.67989 0.95034,-1.38112 1.3068,-2.09526zM155.5,150.5c1.66667,0 3.33737,-0.11598 5,0c0.40965,0.02858 0.89219,0.48235 1.2114,0.22402c0.55166,-0.44643 0.28868,-1.56587 0.89744,-1.93061c0.46089,-0.27614 5.77181,-1.13697 6.57994,-1.26214c3.97508,-0.61565 7.96367,-1.08351 11.959,-1.54184c3.94901,-0.453 7.87083,-0.93107 11.78095,-1.54056c-2.63508,-1.35682 -5.14993,-3.08532 -7.91554,-4.03007c-4.22985,-1.44493 -9.20785,-1.30479 -13.60668,-1.6714c-8.14001,-0.6784 -16.2426,-1.15056 -24.3976,-1.23377c-1.51625,0.07933 -3.08168,0.46169 -4.50797,-0.01332c-0.30879,-0.00003 -0.61759,-0.00006 -0.92638,-0.0001l-2.0747,-0.00022c-0.00001,0 -0.00001,0 -0.00002,0c-0.82835,-0.00008 -1.49984,-0.67163 -1.49984,-1.5c0,-0.82843 0.67157,-1.5 1.5,-1.5h3v0.00031c0.69172,0.00007 1.38345,0.00014 2.07517,0.00022c0.49435,0.00024 0.98847,0.00196 1.4824,0.00512c4.43367,-0.31135 8.96043,-0.00565 13.44243,-0.00565c13,0 26,0 39,0c0.86602,0 1.73212,-0.01297 2.59751,-0.02734c-0.97498,-0.40139 -2.04802,-0.72082 -3.14872,-0.97895c-0.87178,-0.00396 -1.74356,-0.01023 -2.61535,-0.02007c-1.07798,-0.01216 -2.22376,0.33142 -3.23383,-0.04535c-0.07339,-0.02737 -0.14601,-0.05626 -0.21792,-0.08654l-0.00998,0.02995l-2.81324,-0.93775c-0.61294,-0.1885 -1.05847,-0.7592 -1.05847,-1.43396c0,-0.82843 0.67157,-1.5 1.5,-1.5c0.01064,0 0.02126,0.00011 0.03185,0.00033l2.41364,0.04402l-0.00041,0.02229l0.06548,-0.01969c1.66943,0.17742 3.5619,0.419 5.44701,0.80042c1.32504,0.05145 2.64524,0.15159 3.88848,0.15176c8.82602,0.00122 17.54143,-0.20507 26.30474,1.00894c1.93539,0.26812 4.3993,0.39082 6.44899,1.11205c2.9899,-2.21376 6.4812,-4.68291 10.00181,-5.91423c-0.22584,-2.18067 -0.44018,-4.36237 -0.63864,-6.54545c-0.24434,-2.68779 -0.49906,-5.16071 -1.02217,-7.80801c-0.2043,-1.03392 0.25505,-2.7001 -0.72938,-3.07646c-0.69206,-0.26458 -1.47148,0.18589 -2.2114,0.22402c-2.59924,0.13395 -4.90075,0.98836 -7.48572,1.51802c-2.70418,0.55018 -5.29162,1.55704 -7.98683,2.10069c-4.66407,0.94079 -9.5682,1.11655 -14.28516,1.79048c-12.36522,1.76665 -24.56932,3.49903 -36.74954,6.27762c-14.04889,0.33157 -28.01879,1.13836 -42.06224,1.28882c-0.33314,1.18012 -1.6244,1.01179 -1.6244,1.01179l-0.4234,-0.05568c0.05926,0.14243 0.08158,0.24287 0.08158,0.24287c1.69831,7.64238 3.81824,15.35236 5.01703,23.08932c0.19272,1.24381 0.36718,2.48924 0.52508,3.73608c6.99787,0 13.99574,0 20.99362,0zM233.97335,135.9881c-0.63254,0.53548 -1.19103,1.07615 -1.64356,1.61256c-1.10404,1.30867 -1.72176,3.31989 -2.4868,5.01998c0.57397,-0.49346 1.29772,-0.79067 1.94078,-1.1936c0.57451,-0.85052 0.97371,-1.85069 1.72354,-2.55156c0.44824,-0.41898 1.28259,-0.2305 1.71673,-0.66408c0.65917,-0.65832 -0.35146,-1.61359 -1.25068,-2.2233z" fill="#000000" stroke="none" stroke-width="0.5"/><path d="M605,101c0,1.5 -1.5,1.5 -1.5,1.5h-2c-8.71244,0 -17.28331,-1 -26,-1c-1.20673,0 -2.55085,0.15185 -3.86942,0.14893c-0.40089,0.21069 -0.88555,0.42855 -1.45976,0.69271c-0.68101,0.31329 -1.45072,0.96835 -2.16744,1.17649c0.01073,1.35378 0.0195,4.08031 -0.44272,4.54253c-0.38429,0.38429 -4.96959,0.63257 -5.63469,0.32516c-0.85581,-0.39557 -1.16038,-1.57114 -2,-2c-0.28189,-0.14399 -0.60537,-0.07195 -0.93318,0.00427c0.2414,0.65349 0.21421,1.44456 -0.21682,2.39851c-0.54488,1.20593 -7.28462,0.7114 -8.27598,0.7114c-10.66667,0 -21.33333,0 -32,0c-2.65522,0 -5.34724,0.1241 -8,0c-0.93151,-0.04358 -2.02733,0.31457 -2.7886,-0.22402c-2.64304,-1.86996 -1.49887,-5.5721 -1.7041,-8.12817c-0.18732,-2.33292 -0.95449,-4.73794 -1.42465,-7.03323c-0.73788,-3.63996 -2.05546,-7.60474 -3.75171,-10.93092c-0.89671,-1.75835 -2.87333,-2.82511 -3.71676,-4.60964c-0.89593,-1.89562 -0.12415,-6.62727 1.59722,-7.85c0.71291,-0.5064 3.6992,-0.05071 4.68466,-0.25301c2.00149,-0.41086 4.01045,-0.89825 6.05241,-0.97013c7.42761,-0.26147 15.77795,-1.10766 22.91894,-3.19508c1.62297,-1.09048 2.74158,-2.96929 4.55856,-3.69163c2.95754,-1.17577 3.8298,0.50167 5.49879,2.38985c4.8674,5.50665 3.74559,12.39142 3.42804,19.2958c-0.05738,1.24767 -1.54178,6.44043 -0.47574,7.48331c0.27594,0.26995 0.73785,-0.25615 1.12293,-0.28314c0.77975,-0.05465 1.58445,-0.14186 2.34463,0.04013c0.72515,0.1736 1.27778,0.81816 2.00085,1.0002c1.63591,0.41186 3.48089,-0.55907 5.06078,0.03236c0.07151,0.02677 0.14229,0.05495 0.21242,0.08445l0.00962,-0.02885l2.81324,0.93775c0.61294,0.1885 1.05847,0.7592 1.05847,1.43396c0,0.82843 -0.67157,1.5 -1.5,1.5h-2c-2.99968,0 -6.00043,0.02128 -9,0c-1.24503,-0.00883 -3.12533,-0.80308 -3.72402,0.2886c-0.57074,1.0407 0.46024,2.40172 0.1839,3.55603c-0.17354,0.72487 -0.64622,1.34395 -1,2c-0.11332,0.21015 -0.62867,0.52871 -0.39921,0.59471c0.95206,0.27387 1.94868,-0.43934 2.93934,-0.43934c1.89974,0 3.79954,-0.0062 5.69928,-0.00418c0.18934,-0.04096 0.36937,-0.03345 0.53284,0.0008c1.70426,0.00331 3.40846,0.01434 5.11251,0.04351c1.30099,0.65049 2.92343,0.43362 4.2294,1.07405c0.8465,0.41512 1.17405,1.54536 2,2c0.41774,0.22994 0.95357,-0.17912 1.42597,-0.11418c0.34245,0.04708 0.69492,0.68376 0.93934,0.43934c0.24442,-0.24442 -0.38824,-0.59747 -0.43934,-0.93934c-0.09855,-0.65934 0,-1.33333 0,-2c0,-0.49388 -0.00065,-0.98781 -0.00159,-1.48178c-1.8257,-0.33142 -3.19503,-1.44409 -2.99551,-3.61143c0.17919,-1.94662 1.00702,-2.98951 2.14672,-3.56884c0.24911,-0.55827 0.66517,-0.76052 1.03713,-0.81778c0.14829,-0.93834 0.22892,-1.85797 -0.47535,-2.2442c-0.94087,-0.51599 -2.13833,0.22402 -3.2114,0.22402c-3.66667,0 -7.33333,0 -11,0c0,0 -1.5,0 -1.5,-1.5c0,-1.5 1.5,-1.5 1.5,-1.5c3.66667,0 7.33333,0 11,0c0.74419,0 4.3965,-0.05339 4.7886,0.22402c0.9182,0.64963 1.37537,1.8462 1.67128,2.93135c0.15805,0.57959 0.25991,1.21297 0.3208,1.88154c1.06187,-0.11189 2.28385,-0.41648 3.082,0.23598c1.06412,0.86988 1.28996,2.46837 1.56367,3.81527c0.06329,0.31145 0.11418,0.59535 0.15216,0.85521c0.80746,0.02501 1.61525,0.05663 2.42149,0.05663c8.71749,0 17.28868,1 26,1h2c0,0 1.5,0 1.5,1.5zM569.93437,97.58371c0.00013,-0.05949 0.00092,-0.11932 0.00165,-0.1791c-0.39665,0.0022 -1.16316,0.07303 -1.63959,0.04454c-0.01196,0.23055 -0.02521,0.46122 -0.03929,0.69144c0.73166,-0.21471 1.3787,-0.44166 1.67722,-0.55688zM552.31924,106.37374l-1.23339,-0.8615c-1.86212,0.00039 -3.72441,-0.01224 -5.58585,-0.01224c-0.935,0 -4.58004,0.09473 -5.06066,-0.43934c-2.07057,-2.30083 0.1231,-3.58618 0.60079,-5.40529c0.38605,-1.47013 -0.84253,-2.9932 0.1839,-4.44397c0.55185,-0.78 1.23807,-1.21937 1.98955,-1.46256c-0.72315,-0.97948 -1.01045,-2.31019 -1.16048,-3.522c-0.13395,-1.08193 0.53666,-2.11839 0.67978,-3.19915c0.86815,-6.55584 2.16378,-17.11555 -3.84238,-21.65711c-0.48157,-0.36414 -5.02007,3.49932 -5.25021,3.65181c-6.69724,2.00912 -14.26674,2.7978 -21.22324,3.2804c-3.10186,0.21519 -5.50993,0.53897 -8.5052,1.12356c-1.1864,0.23155 -2.5606,-0.72653 -3.62324,-0.15037c-0.49213,0.26683 -0.6019,3.78426 -0.40278,4.15c0.90516,1.66254 2.73731,2.7036 3.61145,4.38266c1.84394,3.54187 3.22112,7.8194 4.02436,11.70393c0.72709,3.54962 1.50321,6.85372 1.47837,10.48743c-0.00061,0.08939 -0.23519,2.43677 0.2886,2.72402c0.94087,0.51599 2.13833,-0.22402 3.2114,-0.22402c2.66667,0 5.33333,0 8,0c10,0 20,0 30,0c0.0283,0 0.82692,-0.08504 1.81924,-0.12626zM564.99176,98.10909c-0.04004,0.12335 -0.03768,0.22224 0.00028,0.29986c-0.00011,-0.09996 -0.00021,-0.19991 -0.00028,-0.29986z" fill="#000000" stroke="none" stroke-width="0.5"/><text transform="translate(241.5,311) scale(0.5,0.5)" font-size="40" xml:space="preserve" fill="#000000" fill-rule="nonzero" stroke="none" stroke-width="1" stroke-linecap="butt" stroke-linejoin="miter" stroke-miterlimit="10" stroke-dasharray="" stroke-dashoffset="0" font-family="Sans Serif" font-weight="normal" text-anchor="start" style="mix-blend-mode: normal"><tspan x="0" dy="0">PLAYER SARAH LOVE STORY</tspan></text></g></g></svg>