<svg version="1.1" xmlns="http://www.w3.org/2000/svg" xmlns:xlink="http://www.w3.org/1999/xlink" width="327" height="252" viewBox="0,0,327,252"><g transform="translate(-156.5,-54)"><g data-paper-data="{&quot;isPaintingLayer&quot;:true}" fill-rule="nonzero" stroke="none" stroke-linecap="butt" stroke-linejoin="miter" stroke-miterlimit="10" stroke-dasharray="" stroke-dashoffset="0" style="mix-blend-mode: normal"><path d="M156.5,306c0,0 8.9385,-88.26978 8.9385,-131.49533c0,-40.61126 -8.9385,-120.50467 -8.9385,-120.50467c0,0 107.20003,7.06542 161.63781,7.06542c54.56193,0 165.36219,-7.06542 165.36219,-7.06542c0,0 -11.17312,85.96992 -11.17312,127.57009c0,42.38515 11.17312,124.42991 11.17312,124.42991c0,0 -114.20367,-10.99065 -169.83144,-10.99065c-53.2701,0 -157.16856,10.99065 -157.16856,10.99065z" fill="#ffffff" stroke-width="NaN"/><text transform="translate(409.7574,287.5514) scale(0.37244,0.39252)" font-size="40" xml:space="preserve" fill="#000000" fill-rule="nonzero" stroke="none" stroke-width="1" stroke-linecap="butt" stroke-linejoin="miter" stroke-miterlimit="10" stroke-dasharray="" stroke-dashoffset="0" font-family="Sans Serif" font-weight="normal" text-anchor="start" style="mix-blend-mode: normal"><tspan x="0" dy="0">- To You</tspan></text><text transform="translate(170.81064,85.09787) scale(0.5,0.5)" font-size="40" xml:space="preserve" fill="#000000" fill-rule="nonzero" stroke="none" stroke-width="1" stroke-linecap="butt" stroke-linejoin="miter" stroke-miterlimit="10" stroke-dasharray="" stroke-dashoffset="0" font-family="Sans Serif" font-weight="normal" text-anchor="start" style="mix-blend-mode: normal"><tspan x="0" dy="0">From Jay : </tspan></text><text transform="translate(177.24468,129.33191) scale(0.5,0.5)" font-size="40" xml:space="preserve" fill="#000000" fill-rule="nonzero" stroke="none" stroke-width="1" stroke-linecap="butt" stroke-linejoin="miter" stroke-miterlimit="10" stroke-dasharray="" stroke-dashoffset="0" font-family="Sans Serif" font-weight="normal" text-anchor="start" style="mix-blend-mode: normal"><tspan x="0" dy="0">did you like my dope beats</tspan></text><path d="M280.34862,201.55564c1.76777,1.76777 0,3.53553 0,3.53553l-1.49346,1.29186c-2.43605,1.1483 -4.65459,2.75812 -6.7164,4.49071c0,0 -1.92055,1.60046 -3.52101,-0.32009c-1.60046,-1.92055 0.32009,-3.52101 0.32009,-3.52101c2.39365,-1.98001 4.9641,-3.80689 7.76019,-5.16035l0.11505,-0.31665c0,0 1.76777,-1.76777 3.53553,0z" fill="#000000" stroke-width="0.5"/><path d="M300.9233,203.81388c1.11803,2.23607 -1.11803,3.3541 -1.11803,3.3541l-1.79807,0.88938c-4.20332,1.66525 -8.7604,4.08791 -11.95381,7.41082c-1.92074,1.99862 -3.05055,4.62918 -4.58815,6.93559c0,0 -1.38675,2.08013 -3.46688,0.69338c-2.08013,-1.38675 -0.69338,-3.46688 -0.69338,-3.46688c1.67944,-2.51916 2.96615,-5.35692 5.06291,-7.54101c3.73544,-3.89103 8.86734,-6.69156 13.78236,-8.67428l1.41895,-0.71913c0,0 2.23607,-1.11803 3.3541,1.11803z" fill="#000000" stroke-width="0.5"/><path d="M362.8684,203.9684l1.22455,-1.15968c0.09158,-0.17017 0.20725,-0.33863 0.35334,-0.49272c0.87679,-1.33018 1.72046,-2.68217 2.54947,-4.04302c-2.62136,-0.03008 -5.2427,-0.06088 -7.86409,-0.09166c0.1375,1.15318 -0.74771,2.06145 -0.74771,2.06145l-0.73598,0.73803c-2.70695,3.37974 -3.93618,5.00321 -5.21479,8.36233c0.62461,0.4545 1.03063,1.19125 1.03063,2.02283c0,1.38071 -1.11929,2.5 -2.5,2.5c-0.72239,0 -1.37321,-0.30639 -1.82961,-0.79631c-0.17878,-0.02494 -0.36845,-0.06923 -0.56947,-0.13624c-2.37171,-0.79057 -1.58114,-3.16228 -1.58114,-3.16228c1.73434,-5.13579 3.26009,-7.51564 6.55382,-11.65522c-5.50547,-0.06384 -11.01127,-0.12535 -16.51786,-0.17787c-0.54792,1.11838 -1.05534,2.26937 -1.54673,3.41759c3.66071,4.4906 7.50956,8.77377 11.15382,13.30786c0.80969,1.0074 4.65563,6.91075 5.67329,7.9994c10.78477,11.5371 29.34928,15.14516 44.36173,15.9647c1.31698,-0.19707 2.73689,-0.04411 3.95095,-0.59122c2.29024,-1.0321 4.7048,-4.52644 6.12422,-6.2937c5.87219,-7.31125 9.50621,-15.07927 11.77461,-24.21111c0.72752,-2.92875 1.55866,-5.9578 1.53552,-8.94646c-3.13127,0 -6.26253,0 -9.3938,0c-12.66406,0 -25.3214,-0.10984 -37.97764,-0.24833c-0.11255,0.38755 -0.26586,0.64308 -0.26586,0.64308c-1.25469,2.09045 -2.52436,4.17359 -3.86816,6.20787l-0.21673,1.13093c-2.34065,3.48173 -5.61776,6.20167 -7.99605,9.57864c-1.10458,1.56841 -0.90977,3.72847 -1.28369,5.61001c0,0 -0.49029,2.45145 -2.94174,1.96116c-2.45145,-0.49029 -1.96116,-2.94174 -1.96116,-2.94174c0.30086,-1.49546 0.94516,-5.71733 1.93334,-7.25808c1.65084,-2.57396 3.99697,-4.72394 6.04418,-7.07791c-0.23766,-1.23595 0.74872,-2.22233 0.74872,-2.22233zM418.36202,190.29606c1.76777,-1.76777 3.53553,0 3.53553,0l2.21245,2.58571c0.02497,0.07774 0.04935,0.15553 0.07315,0.23335c3.60313,-0.08706 7.17059,-0.01975 10.52235,0.49903c5.07042,0.78479 10.18429,3.48071 14.66456,5.81468l1.67429,0.87423c0,0 2.21609,1.15713 1.05896,3.37322c-1.15713,2.21609 -3.37322,1.05896 -3.37322,1.05896l-1.67429,-0.87423c-3.96581,-2.07583 -8.60593,-4.61763 -13.11026,-5.30495c-2.95113,-0.45032 -5.96583,-0.03701 -8.95535,0.02221c0.0387,4.52731 -1.28916,9.08819 -2.64231,13.44128c-2.70513,8.7024 -5.96933,15.74096 -11.71694,22.85936c-2.23739,2.771 -4.56004,6.18615 -7.97977,7.72302c-1.76045,0.79117 -3.80008,0.67819 -5.70012,1.01729c-16.5071,-0.74287 -36.47635,-4.91998 -48.29347,-17.53093c-2.18077,-2.32727 -3.92749,-5.80763 -5.92682,-8.29076c-3.10161,-3.85214 -6.34378,-7.5284 -9.49566,-11.30255c-0.02271,0.048 -0.04547,0.09588 -0.06827,0.14364c-4.07779,8.54113 -6.53306,17.62649 -11.87679,25.53514c-1.75599,2.59884 -4.14523,6.47715 -6.57902,8.50059c-2.53891,2.11084 -5.87168,3.02218 -8.83018,4.48814c-6.32953,0.06873 -13.8308,-0.14211 -19.83952,-2.44379c-1.61881,-0.6201 -2.96986,-1.79761 -4.52624,-2.561c-1.39613,-0.68479 -3.02933,-0.89916 -4.31415,-1.77514c-7.33631,-5.00186 -11.4464,-15.21778 -16.01489,-22.46493c-3.8461,-6.1012 -8.20638,-11.81099 -11.4419,-18.13677c-9.95798,0 -19.91597,0 -29.87395,0c0,0 -2.5,0 -2.5,-2.5c0,-2.5 2.5,-2.5 2.5,-2.5c9.21209,0 18.42418,0 27.63627,0c-0.40297,-1.05929 -0.76742,-2.14038 -1.08689,-3.24724c0,0 -0.6868,-2.40381 1.71701,-3.09061c2.40381,-0.6868 3.09061,1.71701 3.09061,1.71701c0.44909,1.5898 1.00495,3.12602 1.64353,4.62085c18.33741,0 36.67482,0 55.01223,0c8.77306,0 17.54206,0.05267 26.30886,0.13105c1.06582,-1.80906 2.27832,-3.51224 3.74465,-5.02861l4.49431,0.33595c0,0 2.23607,1.11803 1.11803,3.3541c-1.00476,2.00952 -2.91248,1.31015 -3.28873,1.14781c-0.06778,0.08151 -0.1349,0.16376 -0.20138,0.24674c23.53236,0.23762 47.05184,0.6172 70.59447,0.6172c2.3758,0 4.8456,-0.10862 7.34816,-0.22481c-0.40237,-0.64281 -0.85005,-1.85352 0.36067,-3.06424zM328.05319,199.99787c0,0 -0.76064,-1.01419 -0.4764,-2.1398c-6.56284,-0.04771 -13.12718,-0.07722 -19.69381,-0.07722c-17.50798,0 -35.01596,0 -52.52393,0c2.99785,5.3274 6.77636,10.26682 10.05489,15.46749c4.06003,6.44034 7.94173,16.57514 14.54681,20.96486c1.10977,0.73755 2.53056,0.85816 3.7284,1.44188c1.43818,0.70084 2.6663,1.81752 4.15619,2.40039c4.99142,1.95273 11.55437,2.16724 16.86528,2.24588c2.28655,-1.21435 4.9141,-1.90053 6.90599,-3.55442c1.72937,-1.43591 4.3585,-5.64219 5.53206,-7.37477c5.1906,-7.66316 7.54772,-16.59241 11.50583,-24.88731c0.36455,-0.76398 0.71796,-1.53716 1.06713,-2.31434c-0.56266,-0.7168 -1.11929,-1.44045 -1.66843,-2.17264zM341.03006,191.85915l0.44196,-0.44032c-0.15026,0.14334 -0.29754,0.29019 -0.44196,0.44032z" fill="#000000" stroke-width="0.5"/><path d="M259.73132,257.44927c-0.60863,-1.28734 -1.15184,-2.62477 -1.83374,-3.85218c0,0 -1.0429,-1.87722 0.54428,-3.11856c-0.08203,-0.45952 -0.29437,-2.40032 1.83903,-2.93367c2.42536,-0.60634 3.0317,1.81902 3.0317,1.81902c0.64882,2.60464 1.54159,5.65272 2.75521,8.66315c1.05935,0.86799 2.49232,1.21499 3.59626,2.0365c3.46078,2.57541 6.44287,6.16892 10.2975,8.29548c1.01163,-0.03776 2.02232,-0.05199 3.0288,0.031c8.54568,0.70464 17.46048,1.59569 26.05987,0.48801c1.28712,-0.54442 2.50033,-0.82075 3.44788,-0.5601c0.13764,-0.02727 0.27518,-0.05513 0.4126,-0.08361l2.9694,-0.60705c0,0 2.44934,-0.50073 2.95007,1.94861c0.37285,1.82381 -0.88996,2.56721 -1.55929,2.82798c0.00095,0.02839 0.00144,0.0569 0.00144,0.08552c0,1.38071 -1.11929,2.5 -2.5,2.5h-2.90814c-2.1856,0.77551 -4.76185,2.0441 -7.04295,2.36645c-2.08697,1.24832 -4.45972,2.66576 -4.79714,2.87586c-10.29203,6.40865 -24.96408,8.84132 -36.97045,7.6136c-4.30854,-0.44057 -11.22947,-2.1617 -13.9002,-5.9305c-0.85951,-1.2129 -0.80188,-2.86295 -1.20281,-4.29443c-0.01606,-3.70963 -0.70467,-8.35395 1.02818,-11.83521c2.1918,-4.40328 6.22758,-7.37806 10.7525,-8.33588zM262.49574,262.92553c-0.84707,0 -1.40713,-0.28701 -1.77743,-0.66654c-2.9902,0.58111 -5.80448,2.85441 -7.2248,5.67502c-1.24471,2.47186 -0.5672,6.47105 -0.58033,9.07543c1.28155,6.75879 13.26076,5.91037 18.3902,5.84832c8.64012,-0.10453 16.53406,-2.3348 24.00402,-5.96872c-0.82158,-0.1113 -1.6512,-0.21833 -2.49631,-0.30333c-2.56706,-0.25818 -5.18737,-0.5617 -7.75522,-1.12572c-0.34108,1.94214 -2.45376,1.94214 -2.45376,1.94214h-0.80426c-5.00543,-0.04467 -9.05948,-2.04316 -12.33348,-5.12432c-1.1086,-0.3977 -2.26473,-0.88666 -3.82518,-1.4689c0,0 -2.34082,-0.87781 -1.46301,-3.21863c0.17655,-0.47081 0.41229,-0.81141 0.67626,-1.05514c-0.72571,-1.16381 -1.39287,-2.38006 -2.00573,-3.62714c-0.11115,0.0115 -0.22804,0.01754 -0.35099,0.01754z" fill="#000000" stroke-width="0.5"/></g></g></svg>