<svg version="1.1" xmlns="http://www.w3.org/2000/svg" xmlns:xlink="http://www.w3.org/1999/xlink" width="704" height="425" viewBox="0,0,704,425"><defs><linearGradient x1="-32" y1="180" x2="672" y2="180" gradientUnits="userSpaceOnUse" id="color-1"><stop offset="0" stop-color="#ffffff"/><stop offset="1" stop-color="#1a1a1a"/></linearGradient></defs><g transform="translate(32,32.5)"><g data-paper-data="{&quot;isPaintingLayer&quot;:true}" fill-rule="nonzero" stroke="none" stroke-linecap="butt" stroke-linejoin="miter" stroke-miterlimit="10" stroke-dasharray="" stroke-dashoffset="0" style="mix-blend-mode: normal"><path d="M-32,392.5v-425h704v425z" fill="url(#color-1)" stroke-width="0"/><path d="M314.31865,308.25443c-0.27926,-0.16242 -0.55658,-0.40501 -0.81865,-0.75443c-0.97777,-1.3037 -0.46837,-2.39494 0.00484,-2.99676c-0.86416,-1.14885 -1.58615,-2.3632 -2.08497,-3.11649c-5.28782,-7.98541 -5.80201,-18.40538 -9.99985,-26.95508c-1.55271,0.063 -3.16023,0.06832 -4.92002,0.06832h-1c0,0 -2.5,0 -2.5,-2.5c0,-2.5 2.5,-2.5 2.5,-2.5h1c1.50884,0 4.20079,-0.39172 6.40222,-0.37475c-1.04746,-1.576 -1.90071,-3.02493 -2.74693,-5.25789c-0.46887,-1.23723 -0.41989,-2.64008 -0.94157,-3.85598c-0.47388,-1.10448 -1.52911,-1.89424 -2,-3c-0.92469,-2.17138 -0.70149,-4.79063 -1.91029,-6.81763c-1.06655,-1.78846 -2.10081,-2.8579 -3.32458,-3.87236c-0.00406,0.02627 -0.00777,0.05262 -0.01112,0.07906c-0.76819,6.06269 -0.48476,12.65288 -0.97401,18.77677c-0.51127,6.39965 0.01803,12.79606 -0.08425,19.18289c0.09054,0.36623 0.09054,0.63989 0.09054,0.63989c0,1 0,3 0,4c0,6.39614 -0.50674,12.88277 1.15947,19.12008c0.40316,1.5092 0.84236,3.01467 1.42027,4.46595c0.69995,1.75777 2.32915,3.2507 2.40533,5.14117c0.08778,2.17814 -0.43892,4.6688 -1.94654,6.24331c-1.05338,1.10011 -3.01917,0.42277 -4.53853,0.52949c-1.89388,0.13302 -5.23114,0.48523 -8.00057,0.02286c-0.13959,0.14854 -0.28464,0.29118 -0.43511,0.42724c-1.25525,1.13499 -3.24964,0.94688 -4.86535,1.4502c-3.6759,1.14508 -8.2934,4.11946 -11.72707,0.06148c-0.61219,-0.72349 -0.47184,-7.48091 -0.47189,-8.46162c-0.00041,-7.29358 0.51269,-14.62562 -0.81347,-21.79741c-0.73439,-0.11562 -1.27994,-0.26062 -1.4543,-0.43498c-1.13695,-1.13695 -0.59842,-3.16546 -0.73223,-4.76777c-0.22193,-2.65742 0,-5.33333 0,-8c0,-1.65399 0,-3.30797 0,-4.96196c-0.6973,0.16547 -1.39521,0.33006 -2.09954,0.42968c-1.26284,0.1786 -2.56886,-0.24928 -3.82607,-0.0346c-2.01332,0.3438 -4.20476,2.84934 -5.88871,1.6935c-3.16228,-2.17054 -0.86947,-7.37326 -0.06417,-9.89651c1.88242,-5.89822 3.19774,-11.98299 4.9782,-17.92908c0.35586,-1.18845 0.74577,-2.37807 0.91903,-3.60649c0.08533,-0.60501 0.03875,-1.23983 -0.01258,-1.873c-4.51101,0.03806 -9.15203,-0.32154 -13.50615,-0.32154c-3.58344,0 -7.42994,0.29815 -11,0c-1.60231,-0.13382 -3.81692,0.56438 -4.76777,-0.73223c-1.34186,-1.8298 -0.59131,-4.50306 -0.73223,-6.76777c-0.26719,-4.29408 0,-8.69415 0,-13c0,-7.33172 0,-14.66344 0,-21.99516c-0.61912,-0.42201 -1.27431,-1.21535 -0.92536,-2.61118c0.18238,-0.72952 0.52933,-1.18475 0.92536,-1.4647c0,-10.30966 0,-20.61931 0,-30.92897c0,-4.63409 0,-9.26817 0,-13.90226c-1.40701,0.10318 -2.81489,0.23041 -4.22392,0.38697c0,0 -2.48471,0.27608 -2.76079,-2.20863c-0.27608,-2.48471 2.20863,-2.76079 2.20863,-2.76079c1.59352,-0.17706 3.1854,-0.31718 4.77608,-0.42781c0,-1.02916 0,-2.05832 0,-3.08748v-1c0,0 0,-2.5 2.5,-2.5c2.5,0 2.5,2.5 2.5,2.5c0,0.94272 0,2.88544 0,3.82816c9.78689,-0.35103 19.54679,0.12076 29.38671,-0.32559c6.65029,-0.30166 13.23786,-1.62314 19.87616,-1.9879c9.34822,-0.51366 18.87411,-0.01466 28.23713,-0.01466c2.33333,0 4.67476,-0.19419 7,0c1.60231,0.13382 3.72916,-0.49521 4.76777,0.73223c1.25185,1.47946 0.57094,3.83647 0.73223,5.76777c0.31954,3.82614 -0.55713,7.86077 -0.02416,11.65325c0.66849,4.7569 2.80806,9.59008 3.83574,14.3057c1.65904,7.61263 2.75852,15.17532 3.18459,22.9028c0.1006,1.82456 0.25164,3.63036 0.42495,5.42557l0.96084,-0.52339c0,0 2.23607,-1.11803 3.3541,1.11803c1.11803,2.23607 -1.11803,3.3541 -1.11803,3.3541l-2.51169,1.18929c-0.04895,0.01202 -0.09783,0.0239 -0.14665,0.03566c0.54636,5.12261 1.05244,10.22306 0.85001,15.49569c-1.11766,1.11766 -1.87575,2.79075 -3.35299,3.35299c-3.27414,1.24614 -5.58896,-0.26031 -8.65125,0.17157c-2.89512,0.4083 -5.32318,1.61662 -8.01936,2.69688c-4.99045,1.99948 -9.94904,4.49409 -15.10181,6.14835c2.49522,1.94126 3.99954,3.09725 6.0123,6.47976c1.82786,3.07177 0.6979,3.95719 2.08971,7.18237c0.4762,1.10348 1.527,1.89514 2,3c0.56109,1.31063 0.56278,2.80726 1.05843,4.14402c0.64195,1.73134 1.42926,3.04274 2.32767,4.40141c1.04246,0.30547 1.56369,1.34793 1.56369,1.34793l0.77874,1.59731l0.75296,0.75296c0.37684,0.37684 0.63394,0.87343 0.70931,1.42779c1.18625,1.70002 2.41335,3.37202 3.65387,5.03266c2.74807,5.56338 4.90043,10.82349 8.80241,15.72234c1.49773,1.88036 3.29324,2.67324 3.60326,4.95906c0.18904,-0.09218 0.37629,-0.18813 0.5615,-0.28841c1.45556,-0.78809 2.62472,-2.03864 4.07181,-2.84219c3.59603,-1.99683 5.71365,-2.14095 9.33684,-3.92326c1.8674,-0.9186 8.53633,-5.63369 10.59027,-4.56667c1.27957,0.66474 2.60992,8.4416 3.28213,10.4786c2.00912,6.08828 4.92665,11.87488 6.98626,17.95866c0.73479,2.17047 2.43655,6.11775 0.60509,8.34772c-1.12496,1.36973 -3.40752,1.0218 -5.01381,1.77117c-1.4237,0.66419 -2.68533,1.63135 -4.028,2.44702c-5.09589,2.6266 -10.75272,4.57237 -15.68712,7.41317c-2.82813,1.6282 -4.57516,4.00843 -8.42124,2.03429c-0.53329,-0.27373 -4.4676,-6.04947 -4.98263,-6.94937c-2.22887,-3.89445 -5.31834,-8.19389 -7.12849,-12.25363c-1.24626,-2.79506 -1.74743,-5.87501 -2.88738,-8.71509zM321.79077,314.99881c1.24281,2.80728 3.41672,5.11059 4.90075,7.79817c1.26445,2.28991 2.54704,4.57067 3.88861,6.81627c0.4178,0.69933 0.4965,1.63486 1.09952,2.18256c1.00749,0.91507 2.41108,-1.26648 3.57876,-1.96571c4.88091,-2.92277 10.64457,-4.81984 15.73796,-7.44187c1.51564,-0.89931 2.90419,-2.0597 4.54693,-2.69793c0.93055,-0.36154 2.09983,0.2305 2.98619,-0.22883c0.34678,-0.17971 -0.35785,-0.69614 -0.49721,-1.06101c-0.32615,-0.85396 -0.59644,-1.72822 -0.8977,-2.59127c-1.00922,-2.89124 -2.10438,-5.75272 -3.24186,-8.59594c-1.72722,-4.31731 -4.40243,-9.05786 -4.85153,-13.76323c-0.1021,-1.06978 1.18043,-2.50738 0.36178,-3.20357c-0.67942,-0.57779 -1.06623,1.46483 -1.78427,1.99386c-1.36847,1.00825 -2.88048,1.81754 -4.4061,2.56705c-1.61895,0.79536 -7.4181,2.8581 -9.10878,3.80375c-1.46459,0.81919 -2.65413,2.08118 -4.1324,2.87541c-3.62856,1.94951 -6.93488,2.86738 -10.24822,4.7327c-0.20034,0.20886 -0.40215,0.41211 -0.61051,0.59297c1.01213,2.6859 1.51588,5.56142 2.67809,8.18663zM306.98568,274.67262c2.79309,6.9022 3.89475,14.46881 6.8006,21.316c0.84351,1.98761 2.64806,3.44521 3.62003,5.37224c0.19693,-0.13356 0.39702,-0.26226 0.60116,-0.38472c0.83674,-0.79792 1.92991,-1.28761 2.90755,-1.9095c0.37075,-0.23584 1.04066,-0.21593 1.15185,-0.64103c0.11049,-0.42243 -0.40502,-0.78352 -0.6935,-1.11129c-1.37609,-1.56345 -2.70534,-3.17435 -3.91422,-4.8704c-3.05507,-4.28623 -4.78551,-8.42684 -7.0901,-13.13661c-1.15063,-1.52765 -2.28437,-3.06919 -3.38337,-4.6347zM305,206c0,-1.38071 1.11929,-2.5 2.5,-2.5c1.00942,0 1.87912,0.59825 2.27387,1.45953c0.06852,-2.58169 0.22762,-5.17354 0.24487,-7.65408c-0.01909,-0.77831 0.3739,-1.68669 -0.05726,-2.33494c-0.2333,-0.35077 -0.75253,0.38962 -1.15601,0.51076c-2.10926,0.63324 -4.27772,1.07955 -6.34875,1.82843c-1.87504,0.67801 -3.65329,2.54486 -5.59838,2.10655c-1.77252,-0.39942 -2.50492,-2.65486 -3.52061,-4.16143c-0.24401,-0.36194 -4.22023,-8.5054 -4.27085,-8.68043c-0.29391,-1.0164 -0.02793,-2.11591 -0.0346,-3.17393c-0.00288,-0.45745 0.43696,-1.21909 0.00594,-1.37235c-0.81084,-0.28833 -1.68076,0.39883 -2.53822,0.47189c-3.44453,0.2935 -8.02158,0.49101 -11.40046,-0.03228c-0.09293,-0.01439 -1.7851,-0.25226 -3.08791,-0.87661c-0.04831,0.33945 -0.08795,0.67919 -0.04391,1.00844c0.07268,0.54346 0.29596,1.21557 0.58992,1.92256l1.71012,1.71012c0.45241,0.45241 0.73223,1.07741 0.73223,1.76777c0,1.38071 -1.11929,2.5 -2.5,2.5c-6.66667,0 -16.33333,0 -23,0c-1.33333,0 -2.68168,0.19951 -4,0c-0.46744,-0.07074 -0.82303,-1.09211 -1.18176,-0.78419c-0.34551,0.29658 0.72058,0.63569 0.84422,1.07392c0.75651,2.68137 0.78131,5.54328 1.62382,8.19889c0.55783,1.7583 2.74904,3.54422 1.9179,5.19103c-0.80637,1.59773 -3.43723,1.03599 -5.20419,1.32036c-4.15793,0.66916 -9.05875,0.4577 -13.5,-0.24986c0,5.24995 0,10.49991 0,15.74986c0,5.90923 0.52258,12.12485 0,18c-0.09787,1.10037 -0.94888,2.14897 -0.73223,3.23223c0.0937,0.46851 0.75905,-0.66601 1.23223,-0.73223c1.32047,-0.18479 2.66667,0 4,0c2.33333,0 4.66667,0 7,0c5.23623,0 10.96807,0.58857 16.2986,0.24491c0.45761,-0.25858 0.91249,-0.51947 1.31465,-0.82503c0,0 1.80859,-1.20572 3.17721,0.31779c4.44411,-0.62175 8.88535,-1.38537 13.39159,-1.88279c4.20776,-0.46447 8.34277,-0.82477 12.4718,-1.72129c-0.06632,-1.25583 -0.15384,-2.49845 -0.15384,-3.63359l5.26777,-0.76777c0,0 1.29479,1.29479 0.56001,2.77625c0.89764,-0.3193 1.78998,-0.6621 2.67822,-1.02013c-3.77826,-1.91038 -7.20629,-4.49651 -11.33423,-6.11497c-6.90532,-2.7074 -16.10309,-1.66952 -23.25199,-0.15506c-1.81182,0.38382 -6.58173,1.34389 -8.14884,2.82867c-1.04096,0.98627 -1.41814,2.49283 -2.1272,3.73925c0,0 -1.28624,2.14373 -3.42997,0.85749c-2.14373,-1.28624 -0.85749,-3.42997 -0.85749,-3.42997c1.00592,-1.61189 1.61312,-3.5562 3.01775,-4.83568c2.58704,-2.35652 7.23405,-3.34742 10.50204,-4.04961c8.16555,-1.75451 18.20275,-2.62131 26.09516,0.37995c1.25148,0.4759 8.49467,3.86423 9.55284,4.53761c1.56645,0.99683 2.99319,2.332 4.76651,2.88227l0.20943,-0.12829c0,0 0.97162,0 1.70342,0.60573c1.24283,-0.5427 2.48359,-1.0739 3.72572,-1.56997c3.43188,-1.37057 5.61351,-2.48998 9.2654,-3.01703c2.35023,-0.33919 6.27507,1.24525 7.99576,-0.47544c-0.26434,-4.22733 -0.53242,-8.46602 -0.85048,-12.70386c-1.73913,0.28772 -3.44406,0.57812 -5.18724,1.09043c-2.31616,0.6807 -4.82894,2.57648 -7.05416,1.64031c-1.59395,-0.67059 -0.89053,-3.35345 -1.09843,-5.07017c-0.19268,-1.59106 -0.25746,-3.2334 -0.25729,-4.8941c-0.40808,0.826 -1.25906,1.3941 -2.24271,1.3941c-1.38071,0 -2.5,-1.11929 -2.5,-2.5zM237.5,200.5c1.45372,0 2.96609,-0.34715 4.40922,-0.28446c-0.6854,-2.27976 -1.68774,-8.09846 -1.71568,-8.86921c-0.06141,-1.6941 -0.65112,-3.80689 0.48821,-5.06214c0.90619,-0.99838 7.47489,-0.78419 8.81824,-0.78419c5.9892,0 11.97839,0 17.96759,0c-0.5513,-1.78981 -0.67103,-4.14094 -0.46759,-5.5c0.26496,-1.76997 -0.28556,-4.41423 1.32036,-5.20419c0.84578,-0.41604 5.74123,2.50409 7.5801,2.73647c3.45072,0.43607 7.11749,-0.22647 10.59954,-0.03228c1.82454,0.10175 3.95269,-0.55862 5.46178,0.47189c3.95802,2.70285 1.14262,4.50949 1.97135,7.45372c0.35208,1.25084 1.21306,2.29851 1.80295,3.45635c0.65321,1.28212 1.36686,2.53745 1.92621,3.86322c0.2462,0.58354 -0.15384,1.85063 0.47939,1.83857c1.01923,-0.01942 1.49988,-1.41798 2.40162,-1.89345c2.42102,-1.27655 10.08799,-3.85137 12.49524,-1.66081c1.47649,1.34358 1.29516,3.7767 1.94274,5.66506c0.02136,3.76854 0.01873,7.53686 0.01873,11.30546c0,1.30945 0.27968,2.64969 0.01503,3.93001c2.50167,-1.97732 5.04125,-2.25411 7.91906,-2.6414c-0.81857,-9.49618 -1.98078,-18.96371 -4.00783,-28.26499c-1.05566,-4.84395 -3.21935,-9.78758 -3.90208,-14.67687c-0.47294,-3.38687 -0.51477,-8.84112 -0.02416,-12.34675c0.10853,-0.77553 0.97987,-1.48933 0.73223,-2.23223c-0.15109,-0.45327 -0.75905,0.66601 -1.23223,0.73223c-2.31081,0.32339 -4.66667,0 -7,0c-9.27104,0 -18.70664,-0.50147 -27.9628,0.00713c-6.65372,0.36561 -13.25717,1.68789 -19.92391,1.9903c-9.91369,0.4497 -19.75084,-0.05015 -29.61329,0.32597c0,4.72553 0,9.45107 0,14.1766c0,10.38659 0,20.77318 0,31.15977c2.45078,0.3605 4.66461,0.34023 7.5,0.34023zM268.99961,314.90256c0.00007,0.53981 0.00104,7.08992 0.00039,7.09744c-0.04553,0.53439 -0.6415,1.02942 -0.47189,1.53822c0.10253,0.30758 0.66018,0.05093 0.97189,-0.03822c0.7612,-0.21772 1.46415,-0.60454 2.20943,-0.87171c1.45637,-0.52208 3.68015,-0.58028 5.29493,-1.26657c-0.30851,-1.34953 0.06622,-2.94656 -0.00436,-4.36172c-0.14331,-2.87354 -0.14753,-5.77296 -0.11363,-8.67309c-0.35122,-1.26937 -0.64881,-2.51808 -0.7974,-3.72482c-0.09374,-0.7613 -0.0895,-7.0754 -0.08894,-9.13623c-0.73409,-0.0391 -1.46756,-0.06561 -2.19457,0.01541c-1.36591,0.15222 -2.6388,0.81018 -4,1c-0.30261,0.0422 -0.83952,0.0631 -1.49841,0.06271c0.93243,6.10284 0.69177,12.13342 0.69256,18.35858zM278.5,288.5c0.95158,0 1.77899,0.53165 2.20139,1.31413c1.74378,-0.66847 3.35673,-1.44651 5.29861,-0.86208c0,-0.91611 0,-1.83222 0,-2.74833c-0.02771,-0.73833 0,-1.48726 0,-2.20372c0,-3.33333 0,-6.66667 0,-10c0,-4.88504 0.29189,-9.32429 0.71659,-14.16728c0.41002,-4.67554 -0.25684,-9.59496 0.31569,-14.23317c0.12197,-0.98813 0.74554,-1.8594 0.9656,-2.82828c-3.8937,0.7566 -7.80506,1.11763 -11.76821,1.55354c-3.44244,0.37863 -6.84882,0.92701 -10.24705,1.43675c0.01738,0.14738 0.01738,0.23846 0.01738,0.23846c0,8.85306 0,17.70612 0,26.55919c0.72958,0.14694 2,0.65867 2,2.44081c0,1.78215 -1.27042,2.29388 -2,2.44081c0,1.85306 0,3.70612 0,5.55919c0,2.66667 0.36959,5.35907 0,8c-0.06622,0.47318 -1.07008,0.89438 -0.73223,1.23223c0.33785,0.33785 0.76214,-0.64682 1.23223,-0.73223c0.88373,-0.16058 1.80584,0.149 2.69454,0.01873c1.35984,-0.19932 2.63399,-0.84868 4,-1c0.94192,-0.10434 1.89447,-0.01729 2.84497,0.03616c0.20996,-1.16835 1.2317,-2.05489 2.46049,-2.05489zM281.96772,296.59954c0.57773,3.58212 0.03228,7.77775 0.03228,11.40046c0,0.04496 0.00005,0.08992 0.00014,0.13488c1.09438,3.76403 2.58434,7.89328 1.97206,11.23686c-0.00921,0.0503 -0.01878,0.10064 -0.0287,0.15099c0.85216,-0.00868 1.7043,-0.01856 2.55649,-0.02273c0.99999,-0.00489 2.00697,-0.11785 3,0c0.51453,0.06106 1.05885,0.85564 1.46147,0.52949c0.45521,-0.36876 0.25293,-1.20586 0.05346,-1.75669c-1.08955,-3.00877 -2.86254,-5.7718 -3.6865,-8.86388c-1.36923,-5.13838 -1.41887,-10.37908 -1.3682,-15.63893c-1.48666,0.41417 -2.97369,0.85884 -4.44586,1.20647c0.21644,0.60351 0.37859,1.15961 0.45335,1.62309zM259.98127,249.30546c-0.50188,4.69442 -2.84666,9.26044 -3.93303,13.84286c-0.68361,2.88354 -1.24872,5.80485 -2.16973,8.62157c-0.27675,0.84639 -0.47708,1.72746 -0.86132,2.52979c0.25033,-0.32085 0.53294,-0.59294 0.90844,-0.7328c1.30385,-0.48565 2.79682,0.16401 4.17393,-0.0346c0.97165,-0.14013 1.93538,-0.36173 2.90046,-0.5638c0,-8.83708 0,-17.67416 0,-26.51124c-0.06485,0.00806 -0.12969,0.01607 -0.19454,0.02402c-0.40304,0.04944 -0.8088,0.09253 -1.21693,0.12989c-0.09373,0.85311 0.48758,1.80719 0.39274,2.6943zM252.47995,275.07298c-0.45609,0.54447 -0.98871,1.08156 -0.66562,0.8004c0.25604,-0.22281 0.46564,-0.50652 0.66562,-0.8004z" fill="#000000" stroke-width="0.5"/><path d="M233,211c0,-1.38071 1.11929,-2.5 2.5,-2.5c1.38071,0 2.5,1.11929 2.5,2.5c0,1.38071 -1.11929,2.5 -2.5,2.5c-1.38071,0 -2.5,-1.11929 -2.5,-2.5z" fill="#000000" stroke-width="0.5"/><text transform="translate(32.7233,341.25727) rotate(-90.16546) scale(1.85709,0.59894) skewX(0.45969)" font-size="40" xml:space="preserve" fill="#000000" fill-rule="nonzero" stroke="none" stroke-width="1" stroke-linecap="butt" stroke-linejoin="miter" stroke-miterlimit="10" stroke-dasharray="" stroke-dashoffset="0" font-family="Pixel" font-weight="normal" text-anchor="start" style="mix-blend-mode: normal"><tspan x="0" dy="0">DREAM 1</tspan></text><path d="M246,73c0,2.5 -2.5,2.5 -2.5,2.5l-3.38675,-0.41987c-5.92648,-3.97808 -12.69757,-8.51662 -17.04158,-14.29374c-0.99172,-1.3189 -1.54308,-2.93454 -2.54218,-4.24785c-0.6445,-0.84719 -5.27129,-4.82622 -5.46261,-5.96415c-0.93034,-5.53341 4.72678,-7.39977 7.66536,-10.34215c3.38692,-3.39131 6.32584,-7.64823 10.45344,-10.35886c2.87568,-1.88849 8.26989,-3.02671 11.43652,-4.2142c0,0 2.34082,-0.87781 3.21863,1.46301c0.87781,2.34082 -1.46301,3.21863 -1.46301,3.21863c-2.76354,1.03633 -8.0476,2.07575 -10.56348,3.7858c-3.76348,2.55805 -6.41121,6.5097 -9.54656,9.64114c-1.22084,1.21932 -2.78633,2.03811 -4.12976,3.12087c-0.87235,0.70308 -2.5601,1.47438 -2.20488,2.53698c0.16481,0.493 0.94624,0.46114 1.33464,0.80662c1.13278,1.00757 2.2791,2.02704 3.20275,3.22924c1.02548,1.33473 1.59611,2.9781 2.60278,4.32708c3.14742,4.21769 7.03732,6.10763 11.01168,9.2781c1.60429,1.27979 3.09012,2.72105 4.80178,3.85323l0.61325,-0.41987c0,0 2.5,0 2.5,2.5z" fill="#000000" stroke-width="0.5"/><path d="M341.5,94.5c-2.5,0 -2.5,-2.5 -2.5,-2.5l0.47189,-4.46178c1,-0.33333 2.19086,-0.32442 3,-1c0.3121,-0.26058 -0.30601,-0.75376 -0.43961,-1.13777c-0.34637,-0.99556 -0.82709,-1.96019 -1,-3c-0.35221,-2.11801 0.04466,-4.42314 -0.81857,-6.38907c-1.34748,-3.06878 -3.54537,-5.11771 -6.15765,-6.97054c-2.18503,-1.54978 -3.90777,-3.74638 -6.23981,-5.06461c-3.43144,-1.93969 -7.51931,-3.73787 -11.32764,-4.68996c-2.06914,-1.37943 -4.52849,-2.06583 -6.85598,-2.94157c-2.79044,-1.04993 -5.20875,-2.95225 -8,-4c-3.59181,-1.34826 -8.58625,-2.48393 -12.37898,-2.85688c-17.041,-1.67569 -33.82118,3.01217 -50.75366,3.01217c0,0 -2.5,0 -2.5,-2.5c0,-2.5 2.5,-2.5 2.5,-2.5c17.10067,0 34.02388,-4.70378 51.24634,-2.98783c4.1696,0.41544 9.66636,1.66141 13.62102,3.14312c2.79189,1.04605 5.20722,2.95632 8,4c2.42649,0.90679 4.98869,1.62154 7.14402,3.05843c3.99822,0.99956 8.37652,2.95837 11.95713,5.02395c2.40179,1.38554 4.2242,3.60274 6.47542,5.22149c3.29108,2.36646 6.20498,5.13897 7.84235,9.02946c0.99591,2.36633 0.75841,5.07866 1.18143,7.61093c0.50529,3.02473 2.65316,4.29546 0.56039,7.86223c-0.53344,0.90915 -2,0.66667 -3,1l0.47189,1.53822c0,0 0,2.5 -2.5,2.5z" fill="#000000" stroke-width="0.5"/><path d="M335,113c0,2.5 -2.5,2.5 -2.5,2.5c-24,0 -51,0 -75,0c-4.31051,-0.02421 -7.99442,-1.48038 -12.24634,-2.01217c-2.80466,-0.35078 -3.17264,0.47527 -6.15411,-0.02011c-0.25224,-0.04191 -5.95022,-1.94764 -6.39767,-2.09854c-4.02535,-1.35757 -8.77854,-2.48183 -11.91991,-5.55304c-1.25013,-1.2222 -2.06594,-2.82302 -3.1706,-4.17813c-0.76087,-0.93337 -2.0315,-1.54185 -2.42106,-2.6813c-0.2167,-0.63383 -0.19754,-6.52206 -0.1903,-7.95671c0.01763,-3.49472 -0.29098,-3.65526 1.2265,-7.03981c1.46291,-3.26284 2.81713,-4.01965 5.50573,-6.72796c0,0 1.76777,-1.76777 3.53553,0c1.76777,1.76777 0,3.53553 0,3.53553c-2.18447,2.16648 -3.35713,2.77297 -4.49427,5.27204c-1.20614,2.65071 -0.68463,5.13798 -0.7735,7.96019c-0.03199,1.01591 -0.49863,2.07477 -0.1903,3.04329c0.20801,0.65342 1.13254,0.79817 1.57894,1.3187c1.64203,1.91477 3.01018,4.31543 5.27524,5.42545c3.71342,1.81982 9.09679,4.05211 13.23658,4.74484c1.92192,0.3216 3.91187,-0.25842 5.84589,-0.02011c4.08375,0.50319 7.64496,2.01612 11.75366,1.98783c24,0 48,0 72,0h3c0,0 2.5,0 2.5,2.5z" fill="#000000" stroke-width="0.5"/><path d="M340.24045,130.21129c0.56348,0.51839 1.20533,1.4873 0.49561,2.90674c-1.11803,2.23607 -3.3541,1.11803 -3.3541,1.11803l-2.96209,-4.62282c2.88296,-4.21532 7.12058,-7.18924 10.77682,-10.84548c1.6204,-1.6204 5.33894,-3.74611 4.83558,-6.36731c-0.67007,-3.48939 -4.31557,-3.58296 -6.99406,-5.37235c-3.33973,-2.23114 -5.96997,-5.98609 -9.6366,-7.78232c-4.57002,-2.23879 -8.90032,-4.26896 -13.28837,-7.16566c0,0 -2.08013,-1.38675 -0.69338,-3.46688c1.38675,-2.08013 3.46688,-0.69338 3.46688,-0.69338c4.1417,2.79243 8.42771,4.65279 12.71163,6.83434c3.96996,2.02167 6.73709,5.80578 10.3634,8.21768c4.10969,2.7334 8.10677,2.86792 9.00594,8.62765c0.83439,5.34476 -2.84321,7.31148 -6.23549,10.70376c-2.65976,2.65976 -5.99467,5.06513 -8.49178,7.90799z" fill="#000000" stroke-width="0.5"/><text transform="translate(592.10162,22.96339) rotate(91.04889) scale(1.77908,0.83748) skewX(0)" font-size="40" xml:space="preserve" fill="#ffffff" fill-rule="nonzero" stroke="none" stroke-width="1" stroke-linecap="butt" stroke-linejoin="miter" stroke-miterlimit="10" stroke-dasharray="" stroke-dashoffset="0" font-family="Pixel" font-weight="normal" text-anchor="start" style="mix-blend-mode: normal"><tspan x="0" dy="0">DREAM 2</tspan></text><text transform="translate(137.5,24) scale(0.5,0.5)" font-size="40" xml:space="preserve" fill="#000000" fill-rule="nonzero" stroke="none" stroke-width="1" stroke-linecap="butt" stroke-linejoin="miter" stroke-miterlimit="10" stroke-dasharray="" stroke-dashoffset="0" font-family="Pixel" font-weight="normal" text-anchor="start" style="mix-blend-mode: normal"><tspan x="0" dy="0">MY DREAMS FEEL REPEATED</tspan></text></g></g></svg>