<svg version="1.1" xmlns="http://www.w3.org/2000/svg" xmlns:xlink="http://www.w3.org/1999/xlink" width="237.01628" height="334.05493" viewBox="0,0,237.01628,334.05493"><g transform="translate(-195.98372,-17.50106)"><g data-paper-data="{&quot;isPaintingLayer&quot;:true}" fill-rule="nonzero" stroke-linejoin="miter" stroke-miterlimit="10" stroke-dasharray="" stroke-dashoffset="0" style="mix-blend-mode: normal"><path d="M430.56642,254.5023c0.39648,0.02137 2.43358,0.24098 2.43358,2.4977c0,2.5 -2.5,2.5 -2.5,2.5l-2.76777,-0.73223c-0.19439,-0.19593 -0.38389,-0.39493 -0.56913,-0.5966c0.75027,4.69686 0.99082,9.42764 -0.24312,14.47304c-0.61931,3.08346 -1.3675,9.19141 -3.43321,11.87328c-0.79889,1.03718 -2.29455,1.32326 -3.219,2.25028c-1.93158,1.93696 -3.08908,4.6578 -5.30599,6.26034c-3.52796,2.55025 -9.78939,5.42139 -13.98901,6.42679c-3.98448,0.9539 -9.39796,0.04511 -13.47277,0.04511c-13.91444,0 -27.07807,-1.80204 -40.77177,-4.10301c-13.07625,-2.54184 -27.08591,-2.16147 -39.73546,-6.83887c-7.79994,-2.88417 -15.03877,-7.26515 -22.77886,-10.37997c-5.44629,-2.19173 -10.67998,-5.54319 -15.29888,-9.24479c-0.00374,-0.003 -0.01103,-0.00957 -0.02167,-0.01949c0.02745,0.26059 0.05652,0.52087 0.08791,0.78068c0.28728,2.37773 1.58627,4.54365 1.98645,6.905c0.16709,0.98594 -0.15909,2.01274 0,3c0.88588,5.49753 4.36882,10.47507 5.01355,16.095c0.84142,7.33437 0.57185,14.91114 2.09279,22.21772c1.68776,8.108 5.14105,15.89488 7.55257,23.77341c2.23365,2.2704 5.22249,4.45667 2.84389,8.85286c-0.80428,1.48648 -3.29867,0.77393 -4.97835,0.96146c-2.74973,0.307 -5.4855,-0.73607 -8.23851,-1.01215c-3.28085,-0.32902 -6.59868,0.17222 -9.89191,0.00834c-10.25957,-0.51055 -20.57949,-2.00023 -30.86175,-1.99617c-3,0.00118 -6.00839,0.22426 -9,0c-1.9326,-0.14488 -4.28831,0.51962 -5.76777,-0.73223c-1.22744,-1.0386 -0.58133,-3.16697 -0.73223,-4.76777c-0.26681,-2.83046 -0.00105,-5.84964 0.01873,-8.69454c-1.26739,-5.06955 -0.12295,-9.90852 -0.98645,-14.905c-0.36802,-2.12949 -1.02138,-4.23943 -1.03228,-6.40046c-0.01359,-2.69488 0.48282,-5.94675 0.03228,-8.59954c-1.65071,-9.71948 -5.937,-19.28026 -7.02008,-29.15377c-0.33288,-3.03463 0.28643,-6.12241 -0.03346,-9.15844c-0.34856,-3.30818 -1.04515,-6.58858 -1.14494,-9.91357c-1.11591,-6.7181 -0.8338,-13.37562 -0.8338,-20.17468c0,-10.98114 0.15133,-21.97441 0.00041,-32.95454c-0.05396,-3.92613 -0.48695,-7.80709 -1.00802,-11.67444c-1.40126,-1.87338 -2.70989,-3.82556 -4.35616,-5.48011c-1.27716,-1.28359 -3.08237,-2.02616 -4.18693,-3.46098c-0.83346,-1.08266 -2.08587,-6.67054 -2.37466,-7.82358c0,0 -0.60634,-2.42535 1.81902,-3.03169c0.03751,-0.00938 0.07458,-0.01803 0.11122,-0.02598c0.00487,-0.18621 0.00412,-0.3695 -0.00488,-0.54867c-0.16726,-3.32914 0,-6.66666 0,-10c0,-17.5939 0.65738,-35.34119 -0.1668,-52.91744c-0.30042,-6.40685 -0.8332,-12.65527 -0.8332,-19.08256c0,-0.62007 -0.01408,-5.00197 0.01862,-7.97599c-0.61497,-0.40545 -1.24071,-1.16108 -0.97007,-2.5143c0.27991,-1.39952 1.19899,-1.84027 1.93623,-1.96082c0.46646,-0.65036 1.01246,-1.26635 1.43509,-1.93564c0,0 1.38675,-2.08012 3.46688,-0.69337c1.73539,1.15693 1.05781,2.79644 0.78555,3.3081c4.08292,0.38244 8.14128,0.28021 12.3277,0.27246c0,-1.50015 0,-3.00029 0,-4.50044v-3c0,-1.38071 1.11929,-2.5 2.5,-2.5c0.69036,0 1.31536,0.27983 1.76776,0.73224l2,2l-0.02833,0.02833c0.06535,0.05044 0.13001,0.10191 0.19393,0.15446c0.78352,0.64419 0.82983,1.92002 1.58413,2.5982c0.48415,0.4353 1.25531,0.34603 1.88297,0.51905l3.59955,-0.03228c0,0 2.5,0 2.5,2.5c0,0.65831 -0.17335,1.14327 -0.42875,1.50053c3.02907,-0.00014 6.05814,-0.00034 9.08721,-0.00046c5.34104,-11.78411 11.19224,-23.46117 19.68144,-33.32334c3.84803,-4.47037 8.83353,-8.46453 13.27673,-12.35069c9.17814,-8.02752 18.36394,-13.58465 30.81234,-14.32502c4.52573,0.04077 6.28744,1.31221 10.16942,3.2532c2.17149,1.08574 4.5814,1.80761 6.48659,3.31244c5.1932,4.10191 8.87998,10.60135 10.67518,16.88678c0.95042,3.32764 0.76879,6.87859 1.16523,10.31651c0.36863,3.19678 1.64069,6.2413 2.05682,9.43225c0.77272,5.92525 1.39185,11.97662 1.98583,17.95042c0.49277,4.95591 0.03135,10.2678 0.03179,15.25013c0.00065,21.56235 0.00036,43.12469 0.00023,64.68703c4.80969,1.743 9.12573,3.86142 13.25931,7.28876c3.61304,3.01094 7.10271,6.24854 10.79262,9.16135c8.78811,6.9373 18.33993,12.98345 26.60481,20.58447c3.66632,3.37183 7.08846,7.08537 10.61098,10.60789c0.30261,0.3026 7.0651,7.05808 7.18868,7.21139c1.49819,1.85859 2.6659,3.95348 3.85967,6.02895c0.2414,0.01061 0.49404,0.04143 0.75826,0.0943c2.26134,0.45249 2.89534,3.29591 3.02242,6.13604c1.33487,2.17775 2.71684,4.4446 2.76889,4.57708c0.08,0.20362 0.73062,3.43814 1.29126,6.26256c0.53751,0.93283 1.07549,1.86769 1.63462,2.78671c-0.30231,-4.60498 -0.20933,-8.7669 -2.52764,-13.21124l-0.26393,-3.11803c0,0 0,-2.5 2.5,-2.5c2.5,0 2.5,2.5 2.5,2.5l-0.26393,0.88197c1.78175,3.68477 2.59158,6.76481 3.23165,10.71758c0.39829,2.45966 -0.23137,5.00549 0.10511,7.47437c0.2327,1.70739 0.53301,3.38163 0.86193,5.03407c1.95538,2.42254 3.51822,5.08842 5.63166,7.39432zM422.5,262.5c-1.18975,0 -2.18539,-0.83109 -2.43804,-1.9444l-0.86055,-3.44221c-0.76771,-0.74187 -1.49417,-1.51304 -2.19394,-2.30344c-0.37747,2.05158 -0.89661,4.02391 -1.60871,5.81822c-0.41886,1.05542 -0.88449,1.95579 -1.39488,2.77526c-0.0171,0.6702 -0.02989,1.33626 -0.03616,1.99702l-0.23932,0.34234l0.14331,0.04777l-0.98177,2.94531c-0.31417,1.02156 -1.26534,1.76412 -2.38994,1.76412c-0.66532,0 -1.26995,-0.2599 -1.71788,-0.68371c-5.21617,5.76531 -10.54568,9.66689 -17.69195,13.18371c-1.6673,0.82051 -3.23155,1.91385 -5.01579,2.43312c-2.74435,0.79869 -5.71617,0.06796 -8.57438,0.06688c-6.32101,-0.00239 -13.00037,-0.36169 -19.27224,-1.01486c-4.73315,-0.49293 -9.64125,-2.11846 -14.31515,-3.05311c-17.09706,-3.43407 -32.60007,-11.73529 -47.62801,-20.24735c-13.5059,-7.64996 -27.08382,-14.70852 -40.01425,-23.35548c-5.58225,-3.78938 -11.34284,-7.49196 -16.42595,-11.95596c-8.66846,-7.61267 -15.91687,-16.82805 -23.97925,-25.04855c-0.05318,-0.05422 -1.54863,-1.57881 -3.1522,-3.21423c0.15688,1.77448 0.26186,3.55495 0.28663,5.34409c0.15243,11.01039 0.00041,22.03405 0.00041,33.04546c0,6.64005 -0.28655,13.1313 0.81019,19.68926c0.09495,3.31436 0.80247,6.58311 1.1417,9.88143c0.31315,3.04484 -0.28816,6.13893 0.03592,9.18262c0.27496,2.58239 1.20335,5.05432 1.91381,7.55224c1.36943,4.81478 2.40379,9.53223 3.07966,14.38899c0.33011,2.37216 1.59848,4.54162 1.98645,6.905c0.63971,3.8969 -0.66953,8.12589 0,12c0.17951,1.0387 0.83216,1.95936 1,3c0.82587,5.12065 -0.27248,9.95088 1.01355,15.095c0.01191,2.10179 0.01873,4.20363 0.01873,6.30546c0,1 0.17048,2.01464 0,3c-0.08145,0.4708 -1.18551,1.08114 -0.73223,1.23223c0.7429,0.24763 1.4545,-0.64086 2.23223,-0.73223c2.97951,-0.35007 6,-0.00115 9,0c4.40703,0.00168 8.68633,0.77805 13.07559,0.99818c4.80819,0.24113 9.36145,0.03498 14.16991,0.56927c4.68136,0.52017 9.34239,-0.01096 14.00085,0.44472c1.66134,0.16251 3.25479,0.77061 4.9107,0.98137c0.94266,0.11998 1.92889,-0.22395 2.85079,0.00648c0.45368,0.1134 1.28551,1.34754 1.02165,0.96146c-0.83828,-1.22661 -2.09646,-2.10579 -3.15611,-3.14714c-2.92389,-8.27334 -6.3981,-16.75372 -8.19439,-25.38311c-1.54869,-7.43991 -1.35996,-15.14883 -2.16025,-22.62576c-0.59065,-5.51823 -4.05627,-10.48171 -4.98645,-15.905c-0.16905,-0.98561 0.16142,-2.01311 0,-3c-0.39684,-2.42615 -1.69954,-4.65674 -2.01355,-7.095c-0.32514,-2.52468 -0.28862,-5.11454 -0.91283,-7.58205l-0.95916,-2.87748c-0.09499,-0.2642 -0.14675,-0.54902 -0.14675,-0.84593c0,-1.38071 1.11929,-2.5 2.5,-2.5c0.99801,0 1.85943,0.58479 2.26029,1.43041l1.82356,3.64711c4.04302,3.83863 8.27751,7.50425 13.14097,10.24307c4.23857,2.38691 9.39086,3.39177 13.7836,5.49619c4.40199,2.10886 8.61873,4.84083 13.22271,6.55325c12.3171,4.58127 26.1273,4.16025 38.88525,6.60647c13.40142,2.25186 26.26651,4.0235 39.88362,4.0235c3.70442,0 8.92444,0.93736 12.52723,0.04511c3.66696,-0.90815 8.91552,-3.3958 12.01099,-5.57321c2.02153,-1.42198 2.94386,-3.9945 4.69401,-5.73966c0.77554,-0.77333 2.07451,-0.91284 2.781,-1.74972c0.50635,-0.59979 0.38504,-1.5226 0.61506,-2.27309c0.77114,-2.51604 1.39898,-5.07854 1.91289,-7.65944c0.7855,-3.09742 0.92876,-6.09989 0.71327,-9.06278c-0.08367,0.00846 -0.16856,0.01279 -0.25446,0.01279zM407,255c0,-3.84127 0.35682,-7.58165 0.6441,-11.32985c-0.31389,-0.36898 -1.29971,-1.72999 -0.16723,-3.15297c-0.60115,-0.94973 -1.32136,-1.85356 -1.40999,-2.9428c-0.15985,-1.96449 -0.50956,-4.89738 1.25348,-5.77857c0.21877,-0.10934 0.4439,-0.18214 0.67379,-0.22275c-0.00001,-0.00711 -0.00002,-0.01422 -0.00002,-0.02133c-1.16697,-1.13732 -2.3325,-2.26541 -2.86583,-3.76117c-0.42713,-1.19794 -0.44162,-3.38576 0.21369,-5.21759c-1.18305,-2.06447 -2.3079,-4.17064 -3.79842,-6.01659c-2.98025,-3.69091 -6.99065,-6.96793 -10.34686,-10.32414c-13.25804,-13.25804 -28.7694,-23.81099 -43.19776,-35.73224h-1.49894c-2.68397,0 -5.96526,-0.48713 -8.60649,-0.03116c-0.29793,0.05143 -0.59577,0.10525 -0.89351,0.16124c0,0.78997 0,1.57995 0,2.36992v2c0,0 0,2.5 -2.5,2.5c-2.5,0 -2.5,-2.5 -2.5,-2.5c0,-0.41932 0,-2.83864 0,-3.25796c-5.04305,1.25939 -10.07862,2.82635 -15.16233,3.73025c-4.93923,0.87821 -10.13801,1.11067 -15.13187,1.56476c-8.15682,0.73739 -16.3576,0.46443 -24.54484,0.45786c-10.04494,-0.00806 -20.1453,0.26597 -30.16593,-0.46141c-1.79474,-0.13028 -3.61653,-0.30497 -5.45496,-0.49054c-0.72203,0.95703 -2.04008,0.95703 -2.04008,0.95703h-2.00077c-5.72039,-0.0019 -11.31001,-0.13115 -16.96619,-0.83976c-0.34205,0.24991 -0.70317,0.46857 -1.07634,0.64946c-2.49419,1.20903 -6.13311,0.24479 -9.23456,0.07268c0.31424,3.97214 0.91291,7.92274 1.47472,11.88224c0.41337,0.51781 0.71311,0.8884 0.82269,1.01209c2.18248,2.46342 4.61116,4.69722 6.91545,7.04709c7.97599,8.13378 15.14323,17.27358 23.72059,24.80297c4.91866,4.31769 10.50815,7.88979 15.90861,11.55582c12.81116,8.56708 26.26729,15.55723 39.65119,23.13274c14.56173,8.24217 29.59994,16.41329 46.1778,19.71381c4.52205,0.90454 9.29874,2.5226 13.87904,2.98573c6.10314,0.61712 12.57503,0.98752 18.72776,0.98514c2.4753,-0.00096 5.06156,0.80062 7.42562,0.06688c8.60299,-2.67013 15.73905,-8.91065 21.43756,-15.57295c0.21756,-0.25436 0.43559,-0.50435 0.65246,-0.75225c-0.01991,-0.78274 -0.01563,-8.45709 -0.01563,-9.24168zM205,172c0,0 0,-2.5 2.5,-2.5c2.5,0 2.5,2.5 2.5,2.5c-0.0003,0.17103 0.00018,0.342 0.00142,0.5129c0.16594,-0.00783 0.33212,-0.01226 0.49858,-0.0129c0.54942,-0.00211 1.09889,-0.00772 1.64838,-0.01269c2.02313,-0.63557 4.07436,-1.08533 6.14559,-1.3905c0.0964,-1.96146 -0.47729,-3.95576 -0.601,-5.93113c-0.31187,-4.98013 -0.62222,-9.95738 -0.99972,-14.93303c-0.86569,-11.41001 -0.69325,-22.79258 -0.69325,-34.23265c0,-11.16658 0,-22.33316 0,-33.49973c-4.80697,0.00563 -9.43411,0.09186 -14.12447,-0.44957c-0.20844,2.16447 0.12447,4.44212 0.12447,6.94931c0,4.65144 0.01998,9.13872 0.40659,13.77512c1.60534,19.25214 0.59341,38.91045 0.59341,58.22489c0,3.33334 0.23595,6.67503 0,10c-0.0594,0.83715 -0.94022,1.72959 -0.52948,2.46147c0.3155,0.56217 1.30149,0.16724 1.93354,0.04037c0.20469,-0.04109 0.40938,-0.08406 0.61409,-0.12812c-0.01119,-0.4574 -0.0174,-0.91529 -0.01815,-1.37372zM204.59594,178.49816c-0.9052,-0.08975 -1.88985,-0.16939 -2.83016,-0.35626c0.17849,0.51952 0.42573,1.00318 0.78491,1.42817c0.84777,1.00313 2.12392,1.54875 3.15136,2.36903c-0.1421,-1.16459 -0.27071,-2.33027 -0.37788,-3.49792c-0.23837,0.05644 -0.48028,0.08155 -0.72823,0.05697zM247.35772,172.04668c9.89987,0.72141 19.88309,0.44027 29.80726,0.44823c8.0319,0.00645 16.08697,0.2943 24.08815,-0.43732c4.85215,-0.441 9.90978,-0.65473 14.70927,-1.50809c5.37592,-0.95586 10.69807,-2.67586 16.03762,-3.96142c0,-1.36891 0.00002,-2.7378 0.00002,-4.1067l-1.50003,0.01862c0,0 -2.5,0 -2.5,-2.5c0,-2.5 2.5,-2.5 2.5,-2.5l1.50005,0.01424c0.00013,-21.20374 0.00041,-42.40748 -0.00024,-63.61121c-0.00097,-10.99696 -0.59641,-21.79669 -1.98201,-32.6052c-0.40988,-3.19734 -1.68164,-6.24747 -2.05879,-9.44884c-0.60958,-5.17435 -0.5575,-8.95103 -2.73962,-13.82484c-2.01128,-4.49227 -5.19065,-9.52281 -9.81778,-11.77835c-0.94752,-0.46187 -2.05719,-0.52859 -3,-1c-3.38057,-1.69028 -4.00031,-2.79417 -7.83058,-2.7468c-11.24303,0.60568 -19.40893,5.86547 -27.66189,13.08993c-4.26536,3.7338 -9.08473,7.55704 -12.7798,11.84971c-7.48723,8.69815 -12.8026,18.88004 -17.59848,29.24484c0.24241,0.12344 0.48965,0.30152 0.7369,0.54877c1.76776,1.76776 0,3.53553 0,3.53553l-2.76776,1.73224c-0.20399,0 -0.40798,0 -0.61198,0c-0.72514,1.61662 -1.44519,3.23179 -2.16634,4.84061c-3.2074,12.10786 -5.40117,24.09423 -7.49797,36.4414c-1.64942,9.71274 -3.65381,19.55836 -4.22747,29.41291c-0.34089,5.85595 0.19875,11.65967 0.78162,17.46963c5.54772,0.27687 11.12272,0.98447 16.57986,1.38214zM337.10649,165.53116c0.97249,-0.1611 2.01171,-0.21819 3.07489,-0.22274c-1.03624,-0.50393 -2.09527,-0.96458 -3.18136,-1.39974c0,0.54674 0,1.09349 0,1.64023c0.03549,-0.00595 0.07098,-0.01187 0.10647,-0.01775zM225.0047,152.90435c0.58443,-10.03947 2.60921,-20.06438 4.28959,-29.95945c2.14516,-12.63194 4.39244,-24.89274 7.71391,-37.27255c0.46911,-1.05548 0.93837,-2.11328 1.40931,-3.17217c-5.80584,0.00028 -11.61167,0.00077 -17.41751,0.00035c0,11.16649 0,22.33299 0,33.49948c0,13.02855 0.15944,25.86253 1.05837,38.85667c0.34496,4.98642 0.871,10.06817 0.94042,15.06531c0.00325,0.23418 0.01727,0.47224 0.03513,0.71213c0.9006,-0.04713 1.80375,-0.07336 2.70882,-0.08197c-0.58088,-5.86891 -1.08242,-11.73201 -0.73804,-17.64781zM221,76.84605c0,0.21816 0,0.43631 0,0.65447c0.46743,0.00003 0.93487,0.00006 1.4023,0.00008c-0.47946,-0.19478 -0.95789,-0.41147 -1.4023,-0.65455z" fill="#000000" stroke="none" stroke-width="0.5" stroke-linecap="butt"/><path d="M230.74958,170.70578c-0.58288,-5.80996 -1.12798,-11.61803 -0.78709,-17.47398c0.57366,-9.85455 2.56822,-19.71255 4.21763,-29.42529c2.0968,-12.34717 4.28576,-24.37061 7.49316,-36.47846c0.72116,-1.60882 1.44325,-3.23021 2.1684,-4.84683c0.20399,0 0.4081,-0.00027 0.61209,-0.00027l2.76923,-1.73545c0,0 1.7697,-1.7713 0.00194,-3.53906c-0.24724,-0.24725 -0.49443,-0.42543 -0.73684,-0.54886c4.79588,-10.3648 10.1381,-20.56818 17.62534,-29.26633c3.69507,-4.29268 8.5271,-8.1184 12.79246,-11.85221c8.25297,-7.22446 16.43713,-12.48205 27.68016,-13.08773c3.83027,-0.04737 4.45494,1.05836 7.83551,2.74864c0.94281,0.47141 2.05429,0.53896 3.00181,1.00083c4.62714,2.25555 7.81458,7.29099 9.82587,11.78325c2.18211,4.87381 2.13605,8.65576 2.74563,13.83011c0.37715,3.20137 1.65327,6.25664 2.06315,9.45398c1.3856,10.80851 1.99068,21.6344 1.99166,32.63136c0.00065,21.20374 -0.0171,42.44909 -0.01723,63.65283l-1.50061,-0.01377c0,0 -2.50177,0.00139 -2.50177,2.50139c0,2.5 2.4396,2.42031 2.4396,2.42031l1.56125,0.06044c0,1.36891 -0.00119,2.7387 -0.0012,4.1076c-5.33955,1.28556 -10.66981,3.01044 -16.04572,3.9663c-4.79948,0.85336 -9.86559,1.07024 -14.71774,1.51125c-8.00118,0.73163 -16.07192,0.44547 -24.10381,0.43902c-9.92417,-0.00796 -19.92542,0.26882 -29.82528,-0.45259c-5.45713,-0.39766 -11.03988,-1.10962 -16.58759,-1.38649z" data-paper-data="{&quot;noHover&quot;:false,&quot;origItem&quot;:[&quot;Path&quot;,{&quot;applyMatrix&quot;:true,&quot;segments&quot;:[[[247.35772,172.04668],[-5.45713,-0.39766],[9.89987,0.72141]],[[277.16498,172.49492],[-9.92417,-0.00796],[8.0319,0.00645]],[[301.25313,172.05759],[-8.00118,0.73163],[4.85215,-0.441]],[[315.96239,170.5495],[-4.79948,0.85336],[5.37592,-0.95586]],[[332.00001,166.58808],[-5.33955,1.28556],[0,-1.36891]],[[332.00003,162.48138],[0,1.36891],[0,0]],[330.5,162.5],[[328,160],[0,2.5],[0,-2.5]],[330.5,157.5],[[332.00005,157.51424],[0,0],[0.00013,-21.20374]],[[331.99982,93.90303],[0.00065,21.20374],[-0.00097,-10.99696]],[[330.01781,61.29782],[1.3856,10.80852],[-0.40988,-3.19734]],[[327.95902,51.84898],[0.37715,3.20137],[-0.60958,-5.17435]],[[325.2194,38.02414],[2.18211,4.87381],[-2.01128,-4.49227]],[[315.40162,26.24579],[4.62714,2.25555],[-0.94752,-0.46187]],[[312.40162,25.24579],[0.94281,0.47141],[-3.38057,-1.69028]],[[304.57104,22.49899],[3.83027,-0.04737],[-11.24303,0.60568]],[[276.90915,35.58892],[8.25297,-7.22446],[-4.26536,3.7338]],[[264.12935,47.43864],[3.69507,-4.29268],[-7.48723,8.69815]],[[246.53087,76.68347],[4.79588,-10.3648],[0.24241,0.12344]],[[247.26777,77.23224],[-0.24724,-0.24725],[1.76776,1.76776]],[247.26777,80.76777],[[244.5,82.5],[0,0],[-0.20399,0]],[[243.88802,82.5],[0.20399,0],[-0.72514,1.61662]],[[241.72168,87.34061],[0.72116,-1.60882],[-3.2074,12.10786]],[[234.22371,123.78201],[2.0968,-12.34717],[-1.64942,9.71274]],[[229.99625,153.19492],[0.57366,-9.85455],[-0.34089,5.85595]],[[230.77787,170.66455],[-0.58288,-5.80996],[5.54772,0.27687]]],&quot;closed&quot;:true}]}" fill="#ffffff" stroke="none" stroke-width="0.5" stroke-linecap="butt"/><path d="M422.80423,262.48243c0.21549,2.96289 0.07245,5.96965 -0.71305,9.06707c-0.5139,2.5809 -1.14185,5.14713 -1.91299,7.66317c-0.23002,0.75048 -0.1088,1.67442 -0.61514,2.27421c-0.70649,0.83688 -2.00556,0.97738 -2.7811,1.75071c-1.75014,1.74516 -2.67293,4.3209 -4.69446,5.74288c-3.09547,2.17741 -8.34499,4.6694 -12.01195,5.57755c-3.60279,0.89226 -8.82342,-0.04301 -12.52784,-0.04301c-13.61711,0 -26.48702,-1.76091 -39.88844,-4.01277c-12.75795,-2.44622 -26.64228,-2.0119 -38.95938,-6.59317c-4.60398,-1.71242 -8.83836,-4.473 -13.24036,-6.58186c-4.39274,-2.10443 -9.54612,-3.12074 -13.78469,-5.50765c-4.86346,-2.73881 -9.09675,-6.4143 -13.13977,-10.25293l-1.82282,-3.65c-0.40086,-0.84561 -1.16635,-1.40217 -2.16436,-1.40217c-1.38071,0 -2.49929,1.11667 -2.49929,2.49738c0,0.29691 0.05192,0.58106 0.1469,0.84526l0.95963,2.87519c0.62421,2.46751 0.58843,5.05061 0.91357,7.57529c0.31401,2.43826 1.61654,4.66209 2.01338,7.08825c0.16142,0.98689 -0.16939,2.01156 -0.00035,2.99717c0.93018,5.42329 4.39095,10.37162 4.9816,15.88985c0.8003,7.47693 0.60164,15.17245 2.15033,22.61235c1.79629,8.62939 5.25846,17.10122 8.18235,25.37456c1.05966,1.04135 2.31549,1.91943 3.15378,3.14603c0.26386,0.38609 -0.60929,-0.757 -1.06297,-0.8704c-0.9219,-0.23043 -1.90954,0.11282 -2.8522,-0.00716c-1.65591,-0.21076 -3.25189,-0.82022 -4.91323,-0.98273c-4.65845,-0.45568 -9.32509,0.07169 -14.00646,-0.44848c-4.80846,-0.53429 -9.36607,-0.33192 -14.17425,-0.57305c-4.38926,-0.22012 -8.6717,-0.99985 -13.07873,-1.00154c-3,-0.00115 -6.02207,-0.35202 -9.00158,-0.00195c-0.77774,0.09138 -1.48953,0.97961 -2.23243,0.73197c-0.45327,-0.15109 0.65064,-0.76162 0.73209,-1.23242c0.17048,-0.98536 -0.00061,-2.00084 -0.00061,-3.00084c0,-2.10183 -0.00812,-4.20555 -0.02003,-6.30735c-1.28603,-5.14412 -0.19077,-9.97981 -1.01664,-15.10046c-0.16784,-1.04064 -0.82112,-1.96266 -1.00063,-3.00135c-0.66953,-3.87411 0.63776,-8.10818 -0.00196,-12.00508c-0.38797,-2.36339 -1.65732,-4.53627 -1.98743,-6.90843c-0.67587,-4.85676 -1.71145,-9.58138 -3.08088,-14.39616c-0.71046,-2.49791 -1.63907,-4.97359 -1.91403,-7.55598c-0.32408,-3.04369 0.27734,-6.14224 -0.03581,-9.18708c-0.33922,-3.29833 -1.04622,-6.57169 -1.14116,-9.88605c-1.09673,-6.55796 -0.80804,-13.05767 -0.80804,-19.69772c0,-11.01141 0.15757,-22.04626 0.00515,-33.05665c-0.02477,-1.78914 -0.12881,-3.57097 -0.28569,-5.34546c1.60357,1.63541 3.18061,3.21783 3.23379,3.27205c8.06239,8.22051 15.31279,17.4328 23.98125,25.04547c5.08311,4.464 10.84435,8.16548 16.4266,11.95486c12.93043,8.64695 26.509,15.70434 40.0149,23.35429c15.02794,8.51207 30.43942,16.77382 47.53648,20.20789c4.6739,0.93464 9.58139,2.5621 14.31454,3.05503c6.27186,0.65317 12.95032,1.01603 19.27133,1.01841c2.85821,0.00108 5.82976,0.73314 8.57411,-0.06555c1.78424,-0.51927 3.34812,-1.6104 5.01542,-2.43091c7.14627,-3.51681 12.47531,-7.40985 17.69148,-13.17515c0.44793,0.42381 1.05254,0.68331 1.71787,0.68331c1.1246,0 2.07579,-0.74166 2.38997,-1.76322l0.98185,-2.94381l-0.14331,-0.04774l0.23933,-0.34218c0.00627,-0.66077 0.01915,-1.32579 0.03625,-1.996c0.51039,-0.81947 0.97617,-1.7185 1.39503,-2.77393c0.71209,-1.79431 1.23165,-3.7639 1.60912,-5.81548c0.69977,0.7904 1.52487,1.54522 2.29258,2.28709l0.86078,3.44391c0.25265,1.1133 1.2484,1.94544 2.43815,1.94544c0.0859,0 0.17079,-0.00433 0.25446,-0.01278z" data-paper-data="{&quot;noHover&quot;:false,&quot;origItem&quot;:[&quot;Path&quot;,{&quot;applyMatrix&quot;:true,&quot;segments&quot;:[[[422.5,262.5],[0.0859,0],[-1.18975,0]],[[420.06196,260.5556],[0.25265,1.1133],[0,0]],[[419.20141,257.11339],[0,0],[-0.76771,-0.74187]],[[417.00747,254.80995],[0.69977,0.7904],[-0.37747,2.05158]],[[415.39877,260.62818],[0.71209,-1.79431],[-0.41886,1.05542]],[[414.00388,263.40343],[0.51039,-0.81947],[-0.0171,0.6702]],[[413.96772,265.40046],[0.00627,-0.66077],[0,0]],[413.7284,265.7428],[413.87171,265.79057],[[412.88994,268.73588],[0,0],[-0.31417,1.02156]],[[410.5,270.5],[1.1246,0],[-0.66532,0]],[[408.78212,269.81629],[0.44793,0.42381],[-5.21617,5.76531]],[[391.09017,283],[7.14627,-3.51681],[-1.6673,0.82051]],[[386.07438,285.43312],[1.78424,-0.51927],[-2.74435,0.79869]],[[377.5,285.5],[2.85821,0.00108],[-6.32101,-0.00239]],[[358.22777,284.48514],[6.27186,0.65317],[-4.73315,-0.49293]],[[343.91262,281.43203],[4.6739,0.93464],[-17.09706,-3.43407]],[[296.28461,261.18468],[15.02794,8.51207],[-13.5059,-7.64996]],[[256.27036,237.8292],[12.93043,8.64695],[-5.58225,-3.78938]],[[239.84441,225.87324],[5.08311,4.464],[-8.66846,-7.61267]],[[215.86516,200.82469],[8.06239,8.22051],[-0.05318,-0.05422]],[[212.71296,197.61046],[1.60357,1.63541],[0.15688,1.77448]],[[212.99959,202.95454],[-0.02477,-1.78914],[0.15243,11.01039]],[[213,236],[0,-11.01141],[0,6.64005]],[[213.81019,255.68926],[-1.09673,-6.55796],[0.09495,3.31436]],[[214.95188,265.57069],[-0.33922,-3.29833],[0.31315,3.04484]],[[214.9878,274.75331],[-0.32408,-3.04369],[0.27496,2.58239]],[[216.90161,282.30555],[-0.71046,-2.49791],[1.36943,4.81478]],[[219.98127,296.69454],[-0.67587,-4.85676],[0.33011,2.37216]],[[221.96772,303.59954],[-0.38797,-2.36339],[0.63971,3.8969]],[[221.96772,315.59954],[-0.66953,-3.87411],[0.17951,1.0387]],[[222.96772,318.59954],[-0.16784,-1.04064],[0.82587,5.12065]],[[223.98127,333.69454],[-1.28603,-5.14412],[0.01191,2.10179]],[[224,340],[0,-2.10183],[0,1]],[[224,343],[0.17048,-0.98536],[-0.08145,0.4708]],[[223.26777,344.23223],[-0.45327,-0.15109],[0.7429,0.24763]],[[225.5,343.5],[-0.77774,0.09138],[2.97951,-0.35007]],[[234.5,343.5],[-3,-0.00115],[4.40703,0.00168]],[[247.57559,344.49818],[-4.38926,-0.22012],[4.80819,0.24113]],[[261.7455,345.06745],[-4.80846,-0.53429],[4.68136,0.52017]],[[275.74634,345.51217],[-4.65845,-0.45568],[1.66134,0.16251]],[[280.65705,346.49353],[-1.65591,-0.21076],[0.94266,0.11998]],[[283.50784,346.50001],[-0.9219,-0.23043],[0.45368,0.1134]],[[284.52949,347.46147],[0.26386,0.38609],[-0.83828,-1.22661]],[[281.37337,344.31433],[1.05966,1.04135],[-2.92389,-8.27334]],[[273.17899,318.93122],[1.79629,8.62939],[-1.54869,-7.43991]],[[271.01873,296.30546],[0.8003,7.47693],[-0.59065,-5.51823]],[[266.03228,280.40046],[0.93018,5.42329],[-0.16905,-0.98561]],[[266.03228,277.40046],[0.16142,0.98689],[-0.39684,-2.42615]],[[264.01873,270.30546],[0.31401,2.43826],[-0.32514,-2.52468]],[[263.1059,262.72341],[0.62421,2.46751],[0,0]],[[262.14675,259.84593],[0,0],[-0.09499,-0.2642]],[[262,259],[0,0.29691],[0,-1.38071]],[[264.5,256.5],[-1.38071,0],[0.99801,0]],[[266.76029,257.93041],[-0.40086,-0.84561],[0,0]],[[268.58385,261.57752],[0,0],[4.04302,3.83863]],[[281.72481,271.82059],[-4.86346,-2.73881],[4.23857,2.38691]],[[295.50842,277.31678],[-4.39274,-2.10443],[4.40199,2.10886]],[[308.73113,283.87003],[-4.60398,-1.71242],[12.3171,4.58127]],[[347.61638,290.4765],[-12.75795,-2.44622],[13.40142,2.25186]],[[387.5,294.5],[-13.61711,0],[3.70442,0]],[[400.02723,294.54511],[-3.60279,0.89226],[3.66696,-0.90815]],[[412.03822,288.97189],[-3.09547,2.17741],[2.02153,-1.42198]],[[416.73223,283.23223],[-1.75014,1.74516],[0.77554,-0.77333]],[[419.51323,281.48252],[-0.70649,0.83688],[0.50635,-0.59979]],[[420.12829,279.20943],[-0.23002,0.75048],[0.77114,-2.51604]],[[422.04118,271.54999],[-0.5139,2.5809],[0.7855,-3.09742]],[[422.75446,262.48721],[0.21549,2.96289],[-0.08367,0.00846]]],&quot;closed&quot;:true}]}" fill="#ffffff" stroke="none" stroke-width="0.5" stroke-linecap="butt"/><path d="M225.74723,170.50235c-0.90508,0.0086 -1.82021,0.13407 -2.7208,0.1812c-0.01787,-0.23989 -0.03203,-0.47797 -0.03529,-0.71215c-0.06942,-4.99714 -0.60087,-10.08004 -0.94583,-15.06646c-0.89892,-12.99415 -1.07711,-25.91498 -1.07711,-38.94353c0,-11.16649 0.02211,-22.34345 0.02211,-33.50994c5.80584,0.00042 11.63106,-0.00008 17.4369,-0.00036c-0.47095,1.05889 -0.95868,2.21497 -1.42779,3.27044c-3.32147,12.37981 -5.55429,24.64107 -7.69945,37.27301c-1.68039,9.89507 -3.70206,19.82109 -4.28648,29.86055c-0.34438,5.9158 0.15286,11.77832 0.73374,17.64723z" data-paper-data="{&quot;noHover&quot;:false,&quot;origItem&quot;:[&quot;Path&quot;,{&quot;applyMatrix&quot;:true,&quot;segments&quot;:[[[450.00939,305.80869],[-0.68875,11.8316],[1.16885,-20.07893]],[[458.58857,245.88979],[-3.36077,19.79014],[4.29032,-25.26388]],[[474.0164,171.34468],[-6.64294,24.75962],[0.93822,-2.11095]],[[476.83502,165.00034],[-0.94189,2.11778],[-11.61167,0.00056]],[[442,165.00105],[11.61167,0.00083],[0,22.33298]],[[442,232],[0,-22.33298],[0,26.05709]],[[444.11673,309.71335],[-1.79785,-25.98829],[0.68992,9.97284]],[[445.99757,339.84398],[-0.13884,-9.99428],[0.00651,0.46836]],[[446.06783,341.26824],[-0.03573,-0.47978],[1.80119,-0.09427]],[[451.48548,341.1043],[-1.81015,0.01721],[-1.16176,-11.73782]]],&quot;closed&quot;:true}]}" fill="#ffffff" stroke="none" stroke-width="0.5" stroke-linecap="butt"/><path d="M205.01264,173.42341c-0.20471,0.04406 -0.41004,0.08696 -0.61473,0.12805c-0.63205,0.12687 -1.62011,0.52151 -1.93561,-0.04067c-0.41074,-0.73188 0.47021,-1.62429 0.52962,-2.46145c0.23595,-3.32497 -0.00235,-6.66711 -0.00235,-10.00044c0,-19.31443 1.0078,-39.06947 -0.59755,-58.32162c-0.38661,-4.63639 -0.40217,-9.1248 -0.40217,-13.77624c0,-2.50719 -0.33155,-4.7851 -0.12311,-6.94957c4.69036,0.54144 9.33277,0.45485 14.13974,0.44922c0,11.16658 0.01585,22.338 0.01585,33.50458c0,11.44008 -0.18053,22.91531 0.68516,34.32531c0.37751,4.97565 0.68365,9.95395 0.99552,14.93408c0.12371,1.97537 0.69672,3.96981 0.60032,5.93126c-2.07123,0.30517 -4.12948,0.75576 -6.15261,1.39133c-0.54949,0.00496 -1.10081,0.01063 -1.65023,0.01274c-0.16646,0.00064 -0.3332,0.00508 -0.49914,0.0129c-0.00124,-0.1709 -0.00173,-0.34187 -0.00142,-0.5129c0,0 -0.003,-2.50009 -2.503,-2.50009c-2.5,0 -2.50263,2.49977 -2.50263,2.49977c0.00075,0.45842 0.00715,0.91633 0.01834,1.37374z" data-paper-data="{&quot;noHover&quot;:false,&quot;origItem&quot;:[&quot;Path&quot;,{&quot;applyMatrix&quot;:true,&quot;segments&quot;:[[[410,344],[0.0015,0.91685],[0,0]],[[415,339],[-5,0],[5,0]],[[420,344],[0,0],[-0.00061,0.34206]],[[420.00284,345.0258],[-0.00248,-0.34181],[0.33188,-0.01565]],[[421,345],[-0.33291,0.00128],[1.09883,-0.00422]],[[424.29676,344.97463],[-1.09897,0.00992],[4.04627,-1.27115]],[[436.58794,342.19363],[-4.14246,0.61035],[0.1928,-3.92291]],[[435.38595,330.33137],[0.24741,3.95073],[-0.62374,-9.96027]],[[433.3865,300.46531],[0.75501,9.9513],[-1.73137,-22.82001]],[[432,232],[0,22.88015],[0,-22.33316]],[[432,165.00053],[0,22.33316],[-9.61395,0.01126]],[[403.75106,164.10138],[9.38071,1.08287],[-0.41688,4.32894]],[[404,178],[0,-5.01439],[0,9.30288]],[[404.81318,205.55023],[-0.77321,-9.27279],[3.21069,38.50429]],[[406,322],[0,-38.62886],[0,6.66667]],[[406,342],[0.4719,-6.64994],[-0.11881,1.67431]],[[404.94103,346.92294],[-0.82148,-1.46376],[0.631,1.12435]],[[408.80812,347.00368],[-1.2641,0.25374],[0.40939,-0.08218]],[[410.0363,346.74743],[-0.40943,0.08812],[-0.02239,-0.91481]]],&quot;closed&quot;:true}]}" fill="#ffffff" stroke="none" stroke-width="0.5" stroke-linecap="butt"/><path d="M423.5,258.5c-2.5,0 -2.5,-2.5 -2.5,-2.5l0.12829,-0.20943c-1.83597,-5.52738 -4.92829,-10.54455 -8.22977,-15.41549c0.0501,0.29422 0.10397,0.58733 0.16306,0.8789c-0.00548,5.47286 -0.25891,12.40135 -2.26797,17.5588c-0.97906,2.51332 -2.69647,4.2271 -4.38426,6.20035c-5.69851,6.6623 -12.84073,12.91362 -21.44372,15.58375c-2.36406,0.73374 -4.95191,-0.06583 -7.42721,-0.06487c-6.15274,0.00239 -12.63012,-0.36239 -18.73326,-0.97951c-4.5803,-0.46314 -9.36256,-2.07698 -13.88461,-2.98151c-16.57786,-3.30052 -31.6625,-11.46728 -46.22423,-19.70945c-13.3839,-7.5755 -26.87036,-14.60425 -39.68152,-23.17133c-5.40046,-3.66602 -10.99048,-7.24826 -15.90913,-11.56596c-8.57736,-7.52938 -15.74247,-16.68132 -23.71846,-24.8151c-2.30429,-2.34987 -4.73227,-4.5858 -6.91475,-7.04922c-0.10958,-0.12369 -0.40921,-0.49457 -0.82258,-1.01239c-0.56181,-3.9595 -1.15865,-7.91449 -1.47289,-11.88663c3.10145,0.17211 6.74124,1.13462 9.23543,-0.07442c0.37317,-0.18089 0.73453,-0.40001 1.07658,-0.64992c5.65618,0.70862 11.2479,0.83431 16.96829,0.83621l2.00111,-0.00052c0,0 1.31869,-0.00093 2.04072,-0.95797c1.83843,0.18557 3.6612,0.35889 5.45594,0.48917c10.02063,0.72738 20.13184,0.44274 30.17678,0.4508c8.18725,0.00657 16.40714,0.27118 24.56396,-0.46621c4.99386,-0.45409 10.20782,-0.68729 15.14706,-1.5655c5.08371,-0.9039 10.13179,-2.46789 15.17485,-3.72728c0,0.41932 0.00099,2.83902 0.00099,3.25834c0,0 0.0028,2.50123 2.5028,2.50123c2.5,0 2.45608,-2.41017 2.45608,-2.41017l0.00069,-1.99966c0,-0.78997 0.00077,-1.57959 0.00077,-2.36956c0.29774,-0.05599 0.63806,-0.20033 0.936,-0.25176c2.64123,-0.45597 5.92776,0.03406 8.61172,0.03406l1.49975,0.00052c14.42836,11.92125 29.96075,22.50411 43.21879,35.76214c3.35621,3.35621 7.36778,6.64005 10.34802,10.33096c1.91442,2.37092 3.22585,5.17546 4.83189,7.76522c0.87728,1.41462 1.90189,2.75641 2.83372,4.14461c1.428,-0.18779 2.32121,1.15202 2.32121,1.15202c5.25215,7.87822 11.27147,15.56525 14.29158,24.59618l0.12829,1.79057c0,0 0,2.5 -2.5,2.5z" fill="#ffffff" stroke="none" stroke-width="0.5" stroke-linecap="butt"/><path d="M263.55262,146.49945c-2.49945,0.05262 -2.55206,-2.44683 -2.55206,-2.44683l-0.08468,-4.02898c-0.46226,-11.29667 -1.30887,-22.0353 0.10344,-33.33372c0,0 0.31009,-2.48069 2.79078,-2.17061c2.48069,0.31009 2.17061,2.79078 2.17061,2.79078c-1.37952,11.03612 -0.53225,21.52052 -0.06727,32.55715l0.08602,4.08014c0,0 0.05262,2.49945 -2.44683,2.55206z" fill="#000000" stroke="none" stroke-width="0.5" stroke-linecap="butt"/><path d="M317.99474,144.16205c-0.16205,2.49474 -2.6568,2.33269 -2.6568,2.33269l-4.50143,-0.78637c-3.23494,-10.34448 -6.90775,-23.01989 -5.82159,-33.98116c0.31201,-3.1487 1.35821,-6.18077 2.0446,-9.26953c0,0 0.54233,-2.44047 2.98279,-1.89814c2.44047,0.54233 1.89814,2.98279 1.89814,2.98279c-0.64694,2.91124 -1.65315,5.76357 -1.9554,8.73047c-1.01987,10.01136 3.23643,19.76658 4.08643,29.62312l1.59055,-0.39065c0,0 2.49474,0.16205 2.33269,2.6568z" fill="#000000" stroke="none" stroke-width="0.5" stroke-linecap="butt"/><path d="M351.74768,256.50178c0.08089,0.0152 0.16176,0.03079 0.24261,0.04677c0,0 2.45145,0.49029 1.96116,2.94174c-0.49029,2.45145 -2.94174,1.96116 -2.94174,1.96116c-5.00961,-1.01474 -9.99362,-0.51582 -14.95846,-1.72075c-5.7582,-1.39747 -11.61625,-4.0642 -17.12211,-6.26647c-16.32418,-6.52945 -32.28792,-14.44157 -45.87071,-25.74461c-3.61579,-3.01855 -6.30886,-6.07335 -8.99242,-9.94871c-0.63979,-0.92392 -3.50753,-5.04564 -3.8118,-5.67254c-3.58254,-7.38139 0.21678,-13.69564 7.37842,-16.44309c5.71182,-2.19125 11.69133,-2.55555 17.62102,-3.14312c6.4412,-0.63826 12.61957,-1.98871 19.14452,-2.00867c5.03646,-0.01541 9.74096,0.01538 14.73467,-0.69126c6.13156,-0.23161 12.23055,-0.31224 18.36715,-0.31224c5.24764,0 10.6212,-0.56129 15.7075,1.11359c6.30295,2.07552 11.58692,6.47719 16.7925,10.38641c2.46882,1.854 5.6742,3.9543 7.52811,6.53822c3.07816,4.29026 3.82581,9.40601 5.26884,14.28298c0.49135,1.66058 1.4809,3.16422 1.84099,4.85811c0.36283,1.70679 0.10008,3.49291 0.30271,5.22604c0.50491,4.31872 1.06724,8.12958 1.02707,12.4951c-1.98742,5.80012 -6.32928,10.53169 -12.60461,11.90486c-1.06319,0.23265 -9.23915,0.19055 -10.50166,0.19161c-3.70458,0.0031 -7.40917,0.00444 -11.11376,0.00485zM327.35807,251.50758c0.08957,-0.00758 0.14193,-0.00758 0.14193,-0.00758h3c12.43969,0 24.88526,0.10638 37.3244,-0.00935c5.76396,-0.05362 11.3024,-1.85828 13.20788,-7.8911c-0.04818,-3.86644 -0.61854,-7.28229 -1.05843,-11.11897c-0.18094,-1.57811 0.1051,-3.20646 -0.22627,-4.75996c-0.33412,-1.56638 -1.28729,-2.94206 -1.74408,-4.47716c-1.28227,-4.30923 -1.82483,-8.97037 -4.5316,-12.78168c-1.35548,-1.90861 -4.78865,-4.20102 -6.47189,-5.46178c-4.79791,-3.59363 -9.61468,-7.69508 -15.40169,-9.65243c-4.45214,-1.50586 -9.4988,-0.84757 -14.09831,-0.84757c-5.98812,0 -11.94159,0.07457 -17.92494,0.29264c-6.67504,0.93692 -13.27261,0.03674 -19.92185,0.71422c-4.65299,0.47408 -9.2528,1.52047 -13.90686,1.98098c-2.88283,0.28525 -5.83126,0.22829 -8.64,0.93752c-3.5127,0.88698 -10.37119,1.32303 -12.47971,4.88897c-2.94247,4.9763 3.3746,12.08067 6.25813,15.54937c1.75027,2.10546 3.37246,3.34961 5.37459,5.01483c13.15487,10.9787 28.70368,18.61388 44.52674,24.94333c2.14722,0.85892 4.34676,1.79036 6.57198,2.68572z" fill="#000000" stroke="none" stroke-width="0.5" stroke-linecap="butt"/><path d="M320.78289,248.87175c-15.82306,-6.32945 -31.41865,-14.01352 -44.57352,-24.99222c-2.00214,-1.66522 -3.62418,-2.91433 -5.37445,-5.01978c-2.88353,-3.4687 -9.1981,-10.58519 -6.25564,-15.5615c2.10853,-3.56594 8.97037,-4.0097 12.48308,-4.89668c2.80875,-0.70923 5.76007,-0.65699 8.6429,-0.94224c4.65407,-0.46051 9.26301,-1.51686 13.916,-1.99094c6.64924,-0.67747 13.27368,0.21142 19.94872,-0.72549c5.98335,-0.21808 11.96528,-0.2871 17.9534,-0.2871c4.59951,0 9.65909,-0.64847 14.11123,0.85739c5.78701,1.95735 10.61386,6.07449 15.41176,9.66812c1.68325,1.26075 5.1186,3.55997 6.47408,5.46857c2.70678,3.81131 3.25077,8.4846 4.53303,12.79383c0.45679,1.5351 1.40978,2.91466 1.74391,4.48104c0.33137,1.55349 0.04484,3.18588 0.22577,4.76398c0.43989,3.83668 1.00808,7.26098 1.05626,11.12742c-1.90548,6.03283 -7.44876,7.84748 -13.21271,7.9011c-12.43914,0.11573 -24.91347,0.03085 -37.35315,0.03085l-3.00486,0.00111c0,0 -0.0526,0.00004 -0.14217,0.00762c-2.22522,-0.89537 -4.43644,-1.82619 -6.58365,-2.6851z" data-paper-data="{&quot;noHover&quot;:false,&quot;origItem&quot;:[&quot;Path&quot;,{&quot;applyMatrix&quot;:true,&quot;segments&quot;:[[[327.35807,251.50758],[-2.22522,-0.89537],[0.08957,-0.00758]],[327.5,251.5],[[330.5,251.5],[0,0],[12.43969,0]],[[367.8244,251.49065],[-12.43914,0.11573],[5.76396,-0.05362]],[[381.03228,243.59954],[-1.90548,6.03283],[-0.04818,-3.86644]],[[379.97385,232.48057],[0.43989,3.83668],[-0.18094,-1.57811]],[[379.74758,227.72062],[0.33137,1.55349],[-0.33412,-1.56638]],[[378.0035,223.24346],[0.45679,1.5351],[-1.28227,-4.30923]],[[373.47189,210.46178],[2.70678,3.81131],[-1.35548,-1.90861]],[[367,205],[1.68325,1.26075],[-4.79791,-3.59363]],[[351.59831,195.34757],[5.78701,1.95735],[-4.45214,-1.50586]],[[337.5,194.5],[4.59951,0],[-5.98812,0]],[[319.57506,194.79264],[5.98335,-0.21808],[-6.67504,0.93692]],[[299.65321,195.50686],[6.64924,-0.67747],[-4.65299,0.47408]],[[285.74634,197.48783],[4.65407,-0.46051],[-2.88283,0.28525]],[[277.10634,198.42536],[2.80875,-0.70923],[-3.5127,0.88698]],[[264.62663,203.31433],[2.10853,-3.56594],[-2.94247,4.9763]],[[270.88476,218.8637],[-2.88353,-3.4687],[1.75027,2.10546]],[[276.25935,223.87852],[-2.00214,-1.66522],[13.15487,10.9787]],[[320.78609,248.82185],[-15.82306,-6.32945],[2.14722,0.85892]]],&quot;closed&quot;:true}]}" fill-opacity="0.60392" fill="#b7ffe7" stroke="none" stroke-width="0.5" stroke-linecap="butt"/><path d="M271.41017,175.50032v-103.83056h112.20401v103.83056z" fill="#000000" stroke="#000000" stroke-width="2" stroke-linecap="butt"/><path d="M306.57862,152.89207h40.19247v93.78245h-33.65994c-2.11008,-0.91695 -4.43866,-1.33699 -6.53253,-2.29405z" fill="#000000" stroke="#000000" stroke-width="2" stroke-linecap="butt"/><path d="M289.83175,220.71686v-45.21654h20.93359v45.21654z" fill="#000000" stroke="#000000" stroke-width="2" stroke-linecap="butt"/><path d="M342.58439,221.55421v-55.26465h28.46967v55.26465z" fill="#000000" stroke="#000000" stroke-width="2" stroke-linecap="butt"/><path d="M308.25331,244.99983h38.51778v8.44006c-2.42851,-0.12423 -4.86044,-0.21302 -7.28572,-0.36325c-2.53813,-0.15721 -4.86061,-1.60079 -7.38355,-1.91954c-1.99483,-0.25203 -4.12301,-0.32312 -6.27527,-0.31702c-1.02671,-0.3206 -2.05953,-0.59025 -3.10472,-0.73718c-0.4524,-0.0636 -0.89703,0.51667 -1.32399,0.35416c-1.12323,-0.42754 -1.85982,-1.61994 -3,-2c-0.94868,-0.31623 -2.0458,0.29917 -3,0c-0.65628,-0.20576 -0.89323,-1.09663 -1.50433,-1.41223c-1.77184,-0.91507 -3.7497,-1.36127 -5.6402,-2.00796z" fill="#000000" stroke="#000000" stroke-width="2" stroke-linecap="butt"/><path d="M278.10895,169.63894v-90.43307h100.48119v90.43307z" fill="#fff7bd" stroke="#000000" stroke-width="2" stroke-linecap="butt"/><path d="M278.10895,131.12113v-48.56592h30.9817v48.56592z" fill="#1d1b14" stroke="none" stroke-width="0" stroke-linecap="butt"/><path d="M344.68665,122.97942v-43.96948h32.65639v43.96948z" fill="#1d1b14" stroke="none" stroke-width="0" stroke-linecap="butt"/><path d="M276.75498,102.82079v-23.4456h100.48119v23.4456z" fill="#1d1b14" stroke="none" stroke-width="0" stroke-linecap="butt"/><path d="M300.71717,148.70534v-24.28295h21.77094v24.28295z" fill="#ffffff" stroke="#000000" stroke-width="2" stroke-linecap="butt"/><path d="M332.53626,148.70534v-24.28295h23.4456v24.28295z" fill="#ffffff" stroke="#000000" stroke-width="2" stroke-linecap="butt"/><path d="M313.27738,144.51862v-18.42156h9.21077v18.42156z" fill="#2d2d2d" stroke="#000000" stroke-width="2" stroke-linecap="butt"/><path d="M336.72296,147.03066v-20.93359h10.04811v20.93359z" fill="#2d2d2d" stroke="#000000" stroke-width="2" stroke-linecap="butt"/><path d="M306.57862,173.82564h41.02981v75.3609h-28.00449c-0.37166,-0.30485 -0.75767,-0.57999 -1.20611,-0.72947c-0.94868,-0.31623 -2.0458,0.29917 -3,0c-0.65628,-0.20576 -0.89323,-1.09663 -1.50433,-1.41223c-2.30494,-1.19039 -4.95854,-1.58732 -7.31489,-2.66436z" fill="#ffffff" stroke="#000000" stroke-width="2" stroke-linecap="butt"/><path d="M289.83175,207.31937v-29.30701h20.09625v29.30701z" fill="#ffffff" stroke="#000000" stroke-width="2" stroke-linecap="butt"/><path d="M346.77105,203.96999v-29.30701h24.28295v29.30701z" fill="#ffffff" stroke="#000000" stroke-width="2" stroke-linecap="butt"/><path d="M290.66908,221.55421v-14.23483h17.58421v14.23483z" fill="#fff7bd" stroke="#000000" stroke-width="2" stroke-linecap="butt"/><path d="M348.44576,221.55421v-15.90952h20.09625v15.90952z" fill="#fff7bd" stroke="#000000" stroke-width="2" stroke-linecap="butt"/><path d="M342.58439,251.69857v1.54396c-1.03369,-0.04914 -2.06696,-0.10194 -3.09902,-0.16587c-1.75935,-0.10897 -3.41508,-0.83602 -5.10578,-1.37809z" fill="#ff0000" stroke="#000000" stroke-width="2" stroke-linecap="butt"/><path d="" fill="#ffffff" stroke="#000000" stroke-width="2" stroke-linecap="butt"/><path d="M323.23556,249.18653l0.03348,1.00433" fill="none" stroke="#000000" stroke-width="2" stroke-linecap="round"/><path d="M302.10282,117.31533v-22.64356h12.78265v22.64356z" fill="#1d1b14" stroke="none" stroke-width="0" stroke-linecap="butt"/><path d="M308.67676,108.55008v-12.05222h10.59134v12.05222z" fill="#1d1b14" stroke="none" stroke-width="0" stroke-linecap="butt"/><path d="M329.85942,107.0892v-10.95656h17.5305v10.95656z" fill="#1d1b14" stroke="none" stroke-width="0" stroke-linecap="butt"/><path d="M336.79862,114.39359v-22.64356h9.49568v22.64356z" fill="#1d1b14" stroke="none" stroke-width="0" stroke-linecap="butt"/><path d="M260.86392,138.96624v-72.73073h46.86171v72.73075z" fill="#1d1b14" stroke="none" stroke-width="0" stroke-linecap="butt"/><path d="M346.28504,130.1467v-61.61284h49.35792v61.61284z" fill="#1d1b14" stroke="none" stroke-width="0" stroke-linecap="butt"/><path d="M272.35683,112.74337v-55.40934h108.84654v55.40934z" fill="#1d1b14" stroke="none" stroke-width="0" stroke-linecap="butt"/><path d="M300.15599,124.01107v-24.5287h13.84684v24.5287z" fill="#1d1b14" stroke="none" stroke-width="0" stroke-linecap="butt"/><path d="M305.91308,112.46982v-13.0556h11.4731v13.0556z" fill="#1d1b14" stroke="none" stroke-width="0" stroke-linecap="butt"/><path d="M336.70328,112.93358v-11.86873h18.98997v11.86873z" fill="#1d1b14" stroke="none" stroke-width="0" stroke-linecap="butt"/><path d="M340.46868,125.62071v-24.5287h10.28623v24.5287z" fill="#1d1b14" stroke="none" stroke-width="0" stroke-linecap="butt"/><path d="M264.71275,75.51035v-13.64173h18.75739v13.64173z" fill="#1d1b14" stroke="none" stroke-width="0" stroke-linecap="butt"/><path d="M377.25714,75.85141v-14.32383h12.95966v14.32383z" fill="#1d1b14" stroke="none" stroke-width="0" stroke-linecap="butt"/><path d="M279.03656,59.48133v-4.43354h94.81008v4.43354z" fill="#1d1b14" stroke="none" stroke-width="0" stroke-linecap="butt"/><path d="M263.68962,145.59115v-13.30069h27.62452v13.30069z" fill="#1d1b14" stroke="none" stroke-width="0" stroke-linecap="butt"/><path d="M363.95645,135.35985v-7.50296h26.94242v7.50296z" fill="#1d1b14" stroke="none" stroke-width="0" stroke-linecap="butt"/></g></g></svg>