<svg version="1.1" xmlns="http://www.w3.org/2000/svg" xmlns:xlink="http://www.w3.org/1999/xlink" width="668.31034" height="408" viewBox="0,0,668.31034,408"><defs><radialGradient cx="606.82978" cy="286.70803" r="55.82539" gradientUnits="userSpaceOnUse" id="color-1"><stop offset="0" stop-color="#0090ff"/><stop offset="1" stop-color="#a6d3ff"/></radialGradient><radialGradient cx="496.67602" cy="286.23601" r="55.82538" gradientUnits="userSpaceOnUse" id="color-2"><stop offset="0" stop-color="#8c00ff"/><stop offset="1" stop-color="#f2a6ff"/></radialGradient><radialGradient cx="385.17022" cy="285.23601" r="55.82539" gradientUnits="userSpaceOnUse" id="color-3"><stop offset="0" stop-color="#00ff15"/><stop offset="1" stop-color="#a7ffda"/></radialGradient><radialGradient cx="274.82978" cy="285.76399" r="55.82539" gradientUnits="userSpaceOnUse" id="color-4"><stop offset="0" stop-color="#0090ff"/><stop offset="1" stop-color="#a6d3ff"/></radialGradient><radialGradient cx="164.67602" cy="285.29197" r="55.82539" gradientUnits="userSpaceOnUse" id="color-5"><stop offset="0" stop-color="#8c00ff"/><stop offset="1" stop-color="#f2a6ff"/></radialGradient><radialGradient cx="52.67022" cy="285.29197" r="58.32539" gradientUnits="userSpaceOnUse" id="color-6"><stop offset="0" stop-color="#00ff15"/><stop offset="1" stop-color="#a7ffda"/></radialGradient><radialGradient cx="52.67022" cy="82.78832" r="58.32539" gradientUnits="userSpaceOnUse" id="color-7"><stop offset="0" stop-color="#0090ff"/><stop offset="1" stop-color="#a6d3ff"/></radialGradient><radialGradient cx="165.32398" cy="82.26278" r="55.82539" gradientUnits="userSpaceOnUse" id="color-8"><stop offset="0" stop-color="#8c00ff"/><stop offset="1" stop-color="#f2a6ff"/></radialGradient><radialGradient cx="274.82978" cy="82.26278" r="55.82539" gradientUnits="userSpaceOnUse" id="color-9"><stop offset="0" stop-color="#00ff15"/><stop offset="1" stop-color="#a7ffda"/></radialGradient><radialGradient cx="385.17022" cy="83.73722" r="56.82539" gradientUnits="userSpaceOnUse" id="color-10"><stop offset="0" stop-color="#0090ff"/><stop offset="1" stop-color="#a6d3ff"/></radialGradient><radialGradient cx="497.32398" cy="83.21168" r="55.82538" gradientUnits="userSpaceOnUse" id="color-11"><stop offset="0" stop-color="#8c00ff"/><stop offset="1" stop-color="#f2a6ff"/></radialGradient><radialGradient cx="605.82978" cy="84.21168" r="55.82539" gradientUnits="userSpaceOnUse" id="color-12"><stop offset="0" stop-color="#00ff15"/><stop offset="1" stop-color="#a7ffda"/></radialGradient><linearGradient x1="181.70541" y1="93.06482" x2="164.47513" y2="182.03351" gradientTransform="translate(-16.3018,-71.68006) rotate(-5.09984) scale(1.09153,0.55238) skewX(-3.34834)" gradientUnits="userSpaceOnUse" id="color-13"><stop offset="0" stop-color="#1aff00" stop-opacity="0.17647"/><stop offset="1" stop-color="#0015ff"/></linearGradient><linearGradient x1="179.47679" y1="93.67875" x2="161.76499" y2="185.12191" gradientTransform="translate(-8.60706,-71.29905) rotate(-5.09996) scale(1.06196,0.53741) skewX(-3.34841)" gradientUnits="userSpaceOnUse" id="color-14"><stop offset="0" stop-color="#d392ff"/><stop offset="1" stop-color="#57ff45"/></linearGradient><linearGradient x1="328.56859" y1="161.84018" x2="435.82256" y2="225.01438" gradientTransform="translate(-115.20543,-48.1096) rotate(-9.46978) scale(0.30851,0.29418) skewX(0.93793)" gradientUnits="userSpaceOnUse" id="color-15"><stop offset="0" stop-color="#0015ff"/><stop offset="1" stop-color="#00ffb7"/></linearGradient><linearGradient x1="333.12001" y1="164.23597" x2="440.37397" y2="227.41011" gradientTransform="translate(-116.7185,-48.57174) rotate(-9.46978) scale(0.30851,0.29418) skewX(0.93793)" gradientUnits="userSpaceOnUse" id="color-16"><stop offset="0" stop-color="#d500ff"/><stop offset="1" stop-color="#00ffb7"/></linearGradient><radialGradient cx="64" cy="50" r="27.88264" gradientUnits="userSpaceOnUse" id="color-17"><stop offset="0" stop-color="#ff0000"/><stop offset="1" stop-color="#fffbe4"/></radialGradient></defs><g transform="translate(5.65517,25)"><g data-paper-data="{&quot;isPaintingLayer&quot;:true}" fill-rule="nonzero" stroke-linejoin="miter" stroke-miterlimit="10" stroke-dasharray="" stroke-dashoffset="0" style="mix-blend-mode: normal"><path d="M551.00439,383v-192.58394h111.65078v192.58394z" fill="url(#color-1)" stroke="none" stroke-width="0" stroke-linecap="butt"/><path d="M440.85063,382.52798v-192.58394h111.65077v192.58394z" fill="url(#color-2)" stroke="none" stroke-width="0" stroke-linecap="butt"/><path d="M329.34483,381.52798v-192.58394h111.65078v192.58394z" fill="url(#color-3)" stroke="none" stroke-width="0" stroke-linecap="butt"/><path d="M219.00439,382.05596v-192.58394h111.65078v192.58394z" fill="url(#color-4)" stroke="none" stroke-width="0" stroke-linecap="butt"/><path d="M108.85063,381.58394v-192.58394h111.65078v192.58394z" fill="url(#color-5)" stroke="none" stroke-width="0" stroke-linecap="butt"/><path d="M-5.65517,381.58394v-192.58394h116.65078v192.58394z" fill="url(#color-6)" stroke="none" stroke-width="0" stroke-linecap="butt"/><path d="M-5.65517,190v-214.42336h116.65078v214.42336z" data-paper-data="{&quot;index&quot;:null}" fill="url(#color-7)" stroke="none" stroke-width="0" stroke-linecap="butt"/><path d="M109.4986,189.47446v-214.42336h111.65078v214.42336z" data-paper-data="{&quot;index&quot;:null}" fill="url(#color-8)" stroke="none" stroke-width="0" stroke-linecap="butt"/><path d="M219.00439,189.47446v-214.42336h111.65078v214.42336z" data-paper-data="{&quot;index&quot;:null}" fill="url(#color-9)" stroke="none" stroke-width="0" stroke-linecap="butt"/><path d="M328.34483,190.94891v-214.42336h113.65078v214.42336z" data-paper-data="{&quot;index&quot;:null}" fill="url(#color-10)" stroke="none" stroke-width="0" stroke-linecap="butt"/><path d="M441.4986,190.42336v-214.42336h111.65077v214.42336z" data-paper-data="{&quot;index&quot;:null}" fill="url(#color-11)" stroke="none" stroke-width="0" stroke-linecap="butt"/><path d="M550.00439,193.42336v-218.42336h111.65078v218.42336z" data-paper-data="{&quot;index&quot;:null}" fill="url(#color-12)" stroke="none" stroke-width="0" stroke-linecap="butt"/><text transform="translate(16.75377,131.87579) rotate(9.90135) scale(0.93587,1.77219) skewX(19.628)" font-size="40" xml:space="preserve" data-paper-data="{&quot;index&quot;:null}" fill="url(#color-13)" fill-rule="nonzero" stroke="none" stroke-width="1" stroke-linecap="butt" stroke-linejoin="miter" stroke-miterlimit="10" stroke-dasharray="" stroke-dashoffset="0" font-family="Sans Serif" font-weight="normal" text-anchor="start" style="mix-blend-mode: normal"><tspan x="0" dy="0">random life game</tspan></text><text transform="translate(9.91934,133.56935) rotate(9.9016) scale(0.96193,1.82154) skewX(19.62848)" font-size="40" xml:space="preserve" data-paper-data="{&quot;index&quot;:null}" fill="url(#color-14)" fill-rule="nonzero" stroke="none" stroke-width="1" stroke-linecap="butt" stroke-linejoin="miter" stroke-miterlimit="10" stroke-dasharray="" stroke-dashoffset="0" font-family="Sans Serif" font-weight="normal" text-anchor="start" style="mix-blend-mode: normal"><tspan x="0" dy="0">random life game</tspan></text><text transform="translate(136.64093,93.33628) rotate(5.72536) scale(0.5,0.5)" font-size="40" xml:space="preserve" fill="#000000" fill-rule="nonzero" stroke="none" stroke-width="1" stroke-linecap="butt" stroke-linejoin="miter" stroke-miterlimit="10" stroke-dasharray="" stroke-dashoffset="0" font-family="Sans Serif" font-weight="normal" text-anchor="start" style="mix-blend-mode: normal"><tspan x="0" dy="0">If play button doesnt show up restart</tspan></text><text transform="translate(1.50001,356.1483) scale(0.3138,0.3138)" font-size="40" xml:space="preserve" fill-opacity="0.3451" fill="#000000" fill-rule="nonzero" stroke="none" stroke-width="1" stroke-linecap="butt" stroke-linejoin="miter" stroke-miterlimit="10" stroke-dasharray="" stroke-dashoffset="0" font-family="Sans Serif" font-weight="normal" text-anchor="start" style="mix-blend-mode: normal"><tspan x="0" dy="0">Copyright December 23 2024 - 2025 Oliver </tspan></text><text transform="translate(4.85447,337.42086) scale(0.16811,0.16811)" font-size="40" xml:space="preserve" fill="#000000" fill-rule="nonzero" stroke="none" stroke-width="1" stroke-linecap="butt" stroke-linejoin="miter" stroke-miterlimit="10" stroke-dasharray="" stroke-dashoffset="0" font-family="Sans Serif" font-weight="normal" text-anchor="start" style="mix-blend-mode: normal"><tspan x="0" dy="0">This game was inspired by</tspan></text><text transform="translate(93.70173,337.33429) scale(0.17435,0.17435)" font-size="40" xml:space="preserve" fill="#000000" fill-rule="nonzero" stroke="none" stroke-width="1" stroke-linecap="butt" stroke-linejoin="miter" stroke-miterlimit="10" stroke-dasharray="" stroke-dashoffset="0" font-family="Sans Serif" font-weight="normal" text-anchor="start" style="mix-blend-mode: normal"><tspan x="0" dy="0">Animal Crossing (By Nintendo)</tspan></text><text transform="translate(258.7464,356.12809) scale(0.28376,0.28472)" font-size="40" xml:space="preserve" fill-opacity="0.3451" fill="#000000" fill-rule="nonzero" stroke="none" stroke-width="1" stroke-linecap="butt" stroke-linejoin="miter" stroke-miterlimit="10" stroke-dasharray="" stroke-dashoffset="0" font-family="Sans Serif" font-weight="normal" text-anchor="start" style="mix-blend-mode: normal"><tspan x="0" dy="0">https://sites.google.com/view/randomlifegameofficialsite/home</tspan></text><text transform="translate(338.98181,225.73707) rotate(9.94994) scale(3.23672,3.4041) skewX(0.00003)" font-size="40" xml:space="preserve" fill="url(#color-15)" fill-rule="nonzero" stroke="none" stroke-width="1" stroke-linecap="butt" stroke-linejoin="miter" stroke-miterlimit="10" stroke-dasharray="" stroke-dashoffset="0" font-family="Sans Serif" font-weight="normal" text-anchor="start" style="mix-blend-mode: normal"><tspan x="0" dy="0">3</tspan></text><text transform="translate(343.53371,228.13276) rotate(9.94994) scale(3.23672,3.4041) skewX(0.00003)" font-size="40" xml:space="preserve" fill="url(#color-16)" fill-rule="nonzero" stroke="none" stroke-width="1" stroke-linecap="butt" stroke-linejoin="miter" stroke-miterlimit="10" stroke-dasharray="" stroke-dashoffset="0" font-family="Sans Serif" font-weight="normal" text-anchor="start" style="mix-blend-mode: normal"><tspan x="0" dy="0">3</tspan></text><text transform="translate(527.89023,197.39768) rotate(-16.73228) scale(0.5,0.5)" font-size="40" xml:space="preserve" fill="#000000" fill-rule="nonzero" stroke="none" stroke-width="1" stroke-linecap="butt" stroke-linejoin="miter" stroke-miterlimit="10" stroke-dasharray="" stroke-dashoffset="0" font-family="Sans Serif" font-weight="normal" text-anchor="start" style="mix-blend-mode: normal"><tspan x="0" dy="0">2025</tspan></text><path d="M38.83666,315.477l-24.85664,-40.33953l43.59273,-26.86122l24.85664,40.33953z" fill="#000000" stroke="#000000" stroke-width="2" stroke-linecap="butt"/><path d="M41.04301,311.31314l-21.64934,-35.13443l39.03826,-24.05482l21.64934,35.13443z" fill="#fff7bd" stroke="#000000" stroke-width="2" stroke-linecap="butt"/><path d="M26.04469,299.57085l-16.07331,-26.08517l16.80714,-10.35632l16.07332,26.08518z" fill="#1d1b14" stroke="none" stroke-width="0" stroke-linecap="butt"/><path d="M54.73222,277.52983l-13.61628,-22.0977l17.70242,-10.90798l13.61628,22.0977z" fill="#1d1b14" stroke="none" stroke-width="0" stroke-linecap="butt"/><path d="M24.37148,287.626l-12.24533,-19.87278l39.03826,-24.05482l12.24533,19.87278z" fill="#1d1b14" stroke="none" stroke-width="0" stroke-linecap="butt"/><path d="M43.80819,298.05082l-5.81325,-9.43424l8.45829,-5.21188l5.81325,9.43424z" fill="#ffffff" stroke="#000000" stroke-width="2" stroke-linecap="butt"/><path d="M56.17035,290.43343l-5.81325,-9.43424l9.10892,-5.61279l5.81325,9.43424z" fill="#ffffff" stroke="#000000" stroke-width="2" stroke-linecap="butt"/><path d="M47.68572,293.41735l-4.41005,-7.15702l3.5785,-2.20502l4.41005,7.15702z" fill="#2d2d2d" stroke="#000000" stroke-width="2" stroke-linecap="butt"/><path d="M60.396,285.78053l-5.01142,-8.13297l3.90382,-2.40548l5.01142,8.13297z" fill="#2d2d2d" stroke="#000000" stroke-width="2" stroke-linecap="butt"/><path d="M36.83189,285.52367l-5.42078,-8.79732l4.96623,-3.06012l5.42078,8.79732z" fill="#1d1b14" stroke="none" stroke-width="0" stroke-linecap="butt"/><path d="M36.34611,280.11205l-2.88526,-4.68245l4.11487,-2.53553l2.88526,4.68245z" fill="#1d1b14" stroke="none" stroke-width="0" stroke-linecap="butt"/><path d="M47.49163,273.47381l-2.62296,-4.25677l6.81083,-4.19674l2.62296,4.25677z" fill="#1d1b14" stroke="none" stroke-width="0" stroke-linecap="butt"/><path d="M51.64593,277.19196l-5.42078,-8.79732l3.6892,-2.27323l5.42078,8.79732z" fill="#1d1b14" stroke="none" stroke-width="0" stroke-linecap="butt"/><path d="M13.4015,275.96155l-3.01479,-4.89266l6.72741,-4.14534l3.01479,4.89266z" fill="#1d1b14" stroke="none" stroke-width="0" stroke-linecap="butt"/><path d="M53.84138,251.21184l-3.16553,-5.1373l4.64803,-2.86405l3.16553,5.1373z" fill="#1d1b14" stroke="none" stroke-width="0" stroke-linecap="butt"/><path d="M14.9964,267.04715l-0.9798,-1.59011l34.00402,-20.95279l0.9798,1.59011z" fill="#1d1b14" stroke="none" stroke-width="0" stroke-linecap="butt"/><path d="M28.52222,301.32243l-2.93942,-4.77035l9.90765,-6.10495l2.93942,4.77035z" fill="#1d1b14" stroke="none" stroke-width="0" stroke-linecap="butt"/><path d="M62.22225,275.49421l-1.65814,-2.69097l9.66301,-5.95421l1.65814,2.69097z" fill="#1d1b14" stroke="none" stroke-width="0" stroke-linecap="butt"/><path d="M564.42884,77.13259l-21.34211,-42.3042l45.71583,-23.06325l21.34211,42.3042z" fill="#000000" stroke="#000000" stroke-width="2" stroke-linecap="butt"/><path d="M565.95336,73.36753l-18.58829,-36.84559l40.93954,-20.65365l18.58829,36.84559z" fill="#fff7bd" stroke="#000000" stroke-width="2" stroke-linecap="butt"/><path d="M570.86191,60.1914l-4.95863,-9.82896l8.87024,-4.47496l4.95863,9.82896z" fill="#ffffff" stroke="#000000" stroke-width="2" stroke-linecap="butt"/><path d="M571.36593,59.00094l-4.01513,-7.95877l3.75279,-1.89325l4.01513,7.95877z" fill="#2d2d2d" stroke="#000000" stroke-width="2" stroke-linecap="butt"/><path d="M583.16592,53.95616l-4.95863,-9.82896l8.87024,-4.47496l4.95863,9.82896z" fill="#ffffff" stroke="#000000" stroke-width="2" stroke-linecap="butt"/><path d="M583.83666,52.25947l-4.01514,-7.95878l3.75279,-1.89325l4.01514,7.95878z" fill="#2d2d2d" stroke="#000000" stroke-width="2" stroke-linecap="butt"/><path d="M551.83579,64.04882c0,0 -1.80086,-3.56966 -3.09153,-6.128c-0.38618,-0.76547 3.11084,-14.26593 3.8036,-16.24767c2.17767,-6.22952 4.78818,-4.68243 3.29854,-7.6352c-0.68998,-1.36768 -0.888,-0.83119 -0.888,-0.83119l11.76938,23.32918z" fill="#2f2e23" stroke="#000000" stroke-width="2" stroke-linecap="butt"/><path d="M590.85318,39.62l-9.44945,-18.73064l6.72958,-3.39501l13.73478,19.63286z" fill="#2f2e23" stroke="#000000" stroke-width="2" stroke-linecap="butt"/><path d="M554.43675,52.22285l-6.84661,-13.57131l13.0105,-6.56369l6.84661,13.57131z" fill="#2f2e23" stroke="#000000" stroke-width="2" stroke-linecap="butt"/><path d="M582.92024,36.44612l-6.67686,-13.23483l10.99164,-5.54519l6.67686,13.23483z" fill="#2f2e23" stroke="#000000" stroke-width="2" stroke-linecap="butt"/><path d="M552.1138,46.7816l-4.35693,-8.63629l39.14368,-19.74765l4.35693,8.63629z" fill="#2f2e23" stroke="#000000" stroke-width="2" stroke-linecap="butt"/><path d="M551.87082,52.99367l-9.84553,-19.51576l46.77053,-23.59533l9.84553,19.51576z" fill="#777777" stroke="#000000" stroke-width="2" stroke-linecap="butt"/><path d="M594.56733,21.32286l-1.75409,-3.47694l13.45914,-6.79002l1.75409,3.47694z" fill="#000000" stroke="#000000" stroke-width="2" stroke-linecap="butt"/><path d="M590.61485,16.71849l-38.90272,37.57344" fill="none" stroke="#000000" stroke-width="3" stroke-linecap="round"/><path d="M563.11469,54.011l-5.01163,-5.28515l10.16376,-9.63776l5.01163,5.28515z" fill="#000000" stroke="#000000" stroke-width="3" stroke-linecap="butt"/><path d="M578.79075,39.40323l-5.01163,-5.28515l10.16376,-9.63776l5.01163,5.28515z" fill="#000000" stroke="#000000" stroke-width="3" stroke-linecap="butt"/><path d="M565.61819,47.27644l-1.26178,-2.50109l3.70161,-1.86743l1.26178,2.50109z" fill="#00ff90" stroke="#000000" stroke-width="3" stroke-linecap="butt"/><path d="M564.5666,49.0379l-2.65566,-2.57314l3.19693,-3.29946l2.65566,2.57314z" fill="#00ff90" stroke="none" stroke-width="0" stroke-linecap="butt"/><path d="M580.39475,34.35819l-2.59773,-2.47168l3.39856,-3.57188l2.59773,2.47168z" fill="#00ff90" stroke="none" stroke-width="0" stroke-linecap="butt"/><path d="M564.69663,49.31226l-1.00087,-0.91424l3.44425,-3.46021l1.00087,0.91424z" fill="#ffffff" stroke="none" stroke-width="0" stroke-linecap="butt"/><path d="M580.77288,34.5026l-1.00087,-0.91424l3.44424,-3.4602l1.00088,0.91424z" fill="#ffffff" stroke="none" stroke-width="0" stroke-linecap="butt"/><path d="M566.76512,51.79388l-1.94162,-2.39942l3.06724,-3.3403l1.94162,2.39942z" fill="#ffeb00" stroke="none" stroke-width="0" stroke-linecap="butt"/><path d="M582.95145,36.05695l-1.91475,-2.04481l2.78094,-2.60407l1.91475,2.04481z" fill="#ffeb00" stroke="none" stroke-width="0" stroke-linecap="butt"/><path d="M34.48732,49.30726l13.59171,-45.39158l49.05221,14.68781l-13.59171,45.39159z" fill="#000000" stroke="#000000" stroke-width="2" stroke-linecap="butt"/><path d="M38.1831,47.62173l11.83794,-39.5346l43.92734,13.15326l-11.83794,39.53461z" fill="url(#color-17)" stroke="#000000" stroke-width="2" stroke-linecap="butt"/><path d="M54.53987,43.24565l3.17925,-10.61759l6.31373,1.89054l-3.17925,10.61759z" fill="#ffffff" stroke="#000000" stroke-width="2" stroke-linecap="butt"/><path d="M64.71734,45.59488l3.03064,-10.1213l5.92449,1.77399l-3.03064,10.1213z" fill="#ffffff" stroke="#000000" stroke-width="2" stroke-linecap="butt"/><path d="M58.42317,42.4465l2.20696,-7.37046l1.54147,0.46157l-2.20696,7.37046z" fill="#2d2d2d" stroke="#000000" stroke-width="2" stroke-linecap="butt"/><path d="M65.62462,44.80695l2.5024,-8.35715l1.90973,0.57184l-2.5024,8.35715z" fill="#2d2d2d" stroke="#000000" stroke-width="2" stroke-linecap="butt"/><path d="M17.51631,70.64025c0,0 23.66753,-68.97996 24.04489,-69.25228c2.7057,-1.95261 15.3659,3.04914 27.71577,5.99601c12.58679,3.00341 27.18876,2.66342 30.54332,13.72942c7.44657,24.56467 -19.09639,67.40102 -19.09639,67.40102l-10.87391,3.70456c0,0 5.90945,-13.67853 6.92997,-22.37231c1.33528,-11.37517 0.39438,-40.02312 0.39438,-40.02312l-15.67764,-4.51835l-37.61224,48.3803z" fill="#313020" stroke="#000000" stroke-width="2" stroke-linecap="butt"/><path d="M54.77867,33.92175l2.02641,0.51949" fill="none" stroke="#000000" stroke-width="2" stroke-linecap="round"/><path d="M60.87053,29.02543l-1.15166,2.97173" fill="none" stroke="#000000" stroke-width="2" stroke-linecap="round"/><path d="M72.3411,33.85653l-0.70367,2.05853" fill="none" stroke="#000000" stroke-width="2" stroke-linecap="round"/><path d="M75.4418,36.61785l-1.99428,-0.33532" fill="none" stroke="#000000" stroke-width="2" stroke-linecap="round"/><path d="M18.35028,71.50243c-0.16065,-0.19155 0.03089,-0.3522 0.03089,-0.3522l0.20219,-0.11587c0.58065,-1.86297 2.51122,-2.76407 3.07868,-4.65917c0.97992,-3.27259 1.93567,-6.66587 3.52772,-9.68903c1.61862,-3.06623 3.45762,-5.93001 5.16013,-8.89326c1.77483,-3.07236 3.14795,-6.14658 4.63002,-9.36218c1.45421,-3.15514 3.24827,-6.14545 4.94356,-9.17918c1.72604,-3.0886 3.37006,-6.08804 5.67485,-8.78998c1.86158,-2.34314 3.60747,-4.67675 5.40628,-7.04441c0,0 0.15124,-0.19906 0.3503,-0.04782c0.19906,0.15123 0.04782,0.3503 0.04782,0.3503c-1.80221,2.37213 -3.55298,4.71248 -5.41841,7.05975c-2.28483,2.67937 -3.91282,5.65339 -5.62438,8.7161c-1.68906,3.0223 -3.4772,6.0013 -4.92594,9.14456c-1.48795,3.22834 -2.86946,6.31811 -4.65115,9.40298c-1.71347,2.9521 -3.54031,5.81031 -5.1507,8.87616c-1.57688,2.99436 -2.52047,6.35782 -3.49113,9.59947c-0.57072,1.90601 -2.55471,2.81576 -3.07868,4.65918l-0.35986,0.35553c0,0 -0.19155,0.16066 -0.3522,-0.03089z" fill="#fff7ee" stroke="none" stroke-width="0.5" stroke-linecap="butt"/><path d="M70.94603,91.71364c-0.2395,-0.07171 -0.16778,-0.31121 -0.16778,-0.31121l0.03006,-0.1004c0.57528,-1.84058 2.81536,-2.37413 3.40711,-4.35037c0.96031,-3.2071 1.23474,-6.71403 1.73969,-10.0727c0.52801,-3.45641 1.44967,-6.85294 2.19388,-10.27435c0.74448,-3.42258 1.31395,-6.87679 2.09935,-10.287c0.77137,-3.34725 1.43679,-6.75741 2.04614,-10.1386c0.62036,-3.44229 0.87857,-6.92112 1.20027,-10.40181c0.27357,-2.95965 -0.02084,-5.94108 -0.11246,-8.91338c0,0 -0.00771,-0.24988 0.24218,-0.25758c0.24988,-0.00771 0.25758,0.24217 0.25758,0.24217c0.09226,2.993 0.38602,5.99427 0.11057,8.97481c-0.32301,3.49497 -0.58316,6.98802 -1.20607,10.44447c-0.61078,3.38913 -1.27866,6.80678 -2.05097,10.16215c-0.78494,3.40821 -1.35398,6.86046 -2.09802,10.28104c-0.74198,3.41107 -1.66169,6.7971 -2.1881,10.24301c-0.50848,3.38214 -0.78775,6.91072 -1.75505,10.1412c-0.58872,1.96612 -2.90758,2.58553 -3.40711,4.35037l-0.03006,0.10041c0,0 -0.07171,0.23949 -0.31121,0.16778z" fill="#fff7ee" stroke="none" stroke-width="0.5" stroke-linecap="butt"/><path d="M563.69719,323.72516l13.47973,-45.42497l49.08827,14.56681l-13.47973,45.42497z" data-paper-data="{&quot;index&quot;:null}" fill="#000000" stroke="#000000" stroke-width="2" stroke-linecap="butt"/><path d="M566.65612,321.8131l11.74041,-39.56368l43.95964,13.0449l-11.74041,39.56368z" data-paper-data="{&quot;index&quot;:null}" fill="#fff7bd" stroke="#000000" stroke-width="2" stroke-linecap="butt"/><path d="M602.06209,313.98462l6.30504,-21.24716l13.55422,4.02218l-6.30504,21.24716z" data-paper-data="{&quot;index&quot;:null}" fill="#560e00" stroke="#000000" stroke-width="2" stroke-linecap="butt"/><path d="M571.03272,304.37815l6.08762,-20.5145l14.28689,4.23959l-6.08762,20.5145z" data-paper-data="{&quot;index&quot;:null}" fill="#560e00" stroke="#000000" stroke-width="2" stroke-linecap="butt"/><path d="M574.44286,294.22962l3.04381,-10.25725l43.95964,13.0449l-3.04381,10.25725z" data-paper-data="{&quot;index&quot;:null}" fill="#560e00" stroke="#000000" stroke-width="2" stroke-linecap="butt"/><path d="M593.91794,319.93824l1.5594,-5.25497l9.52459,2.8264l-1.5594,5.25497z" data-paper-data="{&quot;index&quot;:null}" fill="#ffffff" stroke="#000000" stroke-width="2" stroke-linecap="butt"/><path d="M579.26474,315.58994l1.53095,-5.1591l10.25725,3.04381l-1.53095,5.1591z" data-paper-data="{&quot;index&quot;:null}" fill="#ffffff" stroke="#000000" stroke-width="2" stroke-linecap="butt"/><path d="M594.83755,318.94836l0.42861,-1.44438l4.02963,1.19578l-0.42861,1.44438z" data-paper-data="{&quot;index&quot;:null}" fill="#2d2d2d" stroke="#000000" stroke-width="2" stroke-linecap="butt"/><path d="M579.67707,314.91512l0.69784,-2.35163l4.39596,1.30449l-0.69784,2.35163z" data-paper-data="{&quot;index&quot;:null}" fill="#2d2d2d" stroke="#000000" stroke-width="2" stroke-linecap="butt"/><text transform="translate(462,198.5) scale(0.5,0.5)" font-size="40" xml:space="preserve" fill="#000000" fill-rule="nonzero" stroke="none" stroke-width="1" stroke-linecap="butt" stroke-linejoin="miter" stroke-miterlimit="10" stroke-dasharray="" stroke-dashoffset="0" font-family="Sans Serif" font-weight="normal" text-anchor="start" style="mix-blend-mode: normal"><tspan x="0" dy="0">jan 27</tspan></text><text transform="translate(429.41065,158.6054) rotate(0.7078) scale(0.31724,0.52686) skewX(20.48535)" font-size="40" xml:space="preserve" fill="#000000" fill-rule="nonzero" stroke="none" stroke-width="1" stroke-linecap="butt" stroke-linejoin="miter" stroke-miterlimit="10" stroke-dasharray="" stroke-dashoffset="0" font-family="Sans Serif" font-weight="normal" text-anchor="start" style="mix-blend-mode: normal"><tspan x="0" dy="0">by RandomGames Studios/oliver</tspan></text><text transform="translate(330.45243,155.125) scale(0.5,0.5)" font-size="40" xml:space="preserve" fill="#000000" fill-rule="nonzero" stroke="none" stroke-width="1" stroke-linecap="butt" stroke-linejoin="miter" stroke-miterlimit="10" stroke-dasharray="" stroke-dashoffset="0" font-family="Sans Serif" font-weight="normal" text-anchor="start" style="mix-blend-mode: normal"><tspan x="0" dy="0">™</tspan></text></g></g></svg>