<svg version="1.1" xmlns="http://www.w3.org/2000/svg" xmlns:xlink="http://www.w3.org/1999/xlink" width="140.94192" height="197.58697" viewBox="0,0,140.94192,197.58697"><g transform="translate(-260.75,-68.41303)"><g data-paper-data="{&quot;isPaintingLayer&quot;:true}" fill-rule="nonzero" stroke-linejoin="miter" stroke-miterlimit="10" stroke-dasharray="" stroke-dashoffset="0" style="mix-blend-mode: normal"><path d="M313.88491,199.05078c-0.17539,3.68333 -3.34851,6.80841 -5.13895,2.36529c-1.37102,-3.4023 -0.33974,-7.33195 -0.3125,-11c0.01675,-2.25545 4.04647,-3.50823 4.8125,-1.125c0.93627,2.91285 0.5625,6.45306 0.5625,9.37745z" fill="#ffffd6" stroke="none" stroke-width="0.5" stroke-linecap="butt"/><path d="M327.80846,200.16607c-2.87169,0 -3.05656,-7.4911 -2.58778,-10.05722c0.00378,-0.02166 0.00783,-0.04323 0.01216,-0.06469c0.23044,-1.14266 1.24005,-2.00309 2.45062,-2.00309c1.38071,0 2.5,1.11929 2.5,2.5c0,0.2807 -0.04626,0.55058 -0.13157,0.80246c1.18484,3.71708 0.20078,8.82254 -2.24343,8.82254z" fill="#ffffd6" stroke="none" stroke-width="0.5" stroke-linecap="butt"/><path d="M325.3402,194.52339l0.00487,1.90595c0,0 0,0.55782 -0.2635,1.14648c0.45316,4.5851 1.07725,9.24801 0.49246,13.5755c-0.61487,4.55003 -9.24587,5.22196 -11.89058,2.57726c-2.52904,-2.52903 0.49826,-3.22582 -0.71357,-5.64948c-0.18291,-0.34741 -0.28643,-0.74312 -0.28643,-1.16302c0,-0.02273 0.0003,-0.04538 0.0009,-0.06796c0.08288,-6.02958 0.83786,-12.5083 0.8741,-18.72667c0.00456,-0.78222 0.00832,-1.56444 0.01137,-2.34667c-0.75948,1.97179 -3.47424,3.09056 -4.69887,0.6413h0.00001c-2.22479,-4.44958 -0.32308,-11.43322 -0.0625,-16.05776c0.13169,-2.33718 -1.18221,-4.47562 1.00696,-6.17831c1.98412,-1.54321 3.16582,0.82024 3.74676,2.45496c0.01854,-0.0316 0.03812,-0.06291 0.05878,-0.09389c2.33865,-3.50797 4.3278,0.85642 5.84819,2.25016c0.85258,0.78156 1.2335,-2.22366 2.33931,-2.56266c3.10095,-0.95061 7.51792,-5.26239 10.02118,-3.131c0.42723,0.36377 -0.78259,1.15793 -0.38061,1.92874c0.93854,1.79967 -1.04056,3.43299 -1.59369,4.65479c-1.33858,2.95675 -1.8541,4.75356 -1.21427,8.26465c0.4751,2.60718 3.11395,6.48809 1.31016,8.98808c-0.87273,1.20958 -2.98638,0.52235 -4.02952,-0.31264c-0.18031,-0.14433 -0.79542,-0.56813 -1.30953,-0.88315c-0.60415,2.82811 0.52495,5.62822 0.72801,8.78535z" fill="#b36969" stroke="none" stroke-width="0.5" stroke-linecap="butt"/><path d="M312.84375,230.33461c-0.4475,-2.75966 -0.07757,-5.77553 -0.41028,-8.56811c-0.12709,-1.06671 -1.49887,-3.35549 -1.25,-4.47543c1.18869,-5.34912 14.53917,-5.14033 16.0625,-0.875c1.53564,4.2998 -0.03792,9.58826 -0.1875,13.99969c-0.12286,3.62358 0.43112,7.06407 0.21389,10.76975c-0.13398,2.28554 0.18175,6.0643 -0.90139,8.23057c-1.37105,2.7421 -3.77847,0.52344 -5.78078,1.19448c-4.46855,1.49757 -7.36251,-1.85782 -5.73858,-6.7296c-0.02832,-0.15063 -0.04314,-0.30603 -0.04314,-0.46488c0,-0.07879 0.00365,-0.15673 0.01078,-0.23367c0.15484,-4.05409 -1.31134,-8.75204 -1.97549,-12.8478z" fill="#ceff85" stroke="none" stroke-width="0.5" stroke-linecap="butt"/><path d="M319.22109,157.81237c0.72138,0.05266 1.1627,0.86078 1.73769,1.29959c0.16734,0.12771 1.30021,-0.75666 2.54778,0.52134c1.94393,1.99134 -1.61228,8.68948 -4.49999,8.52905c-2.75794,-0.15322 -3.66756,-4.35369 -3.64704,-6.47488c0.00236,-0.24371 -0.0529,-2.23394 0.44792,-2.46271l1.52991,-0.78448c0.06043,0 0.1202,0.00285 0.17917,0.00841c0.58014,-0.03841 1.10547,-0.68005 1.70455,-0.63632z" fill="#ffffd6" stroke="none" stroke-width="0.5" stroke-linecap="butt"/><path d="M312.81924,252.30197c1.23703,-0.53784 3.29385,0.16513 4.39282,-0.42898c0.59616,-0.32228 0.86567,-0.89081 1.77813,-0.89081c0.50556,0 1.27658,0.62944 1.65309,0.56665c2.252,-0.37559 3.81047,-1.1736 6.07605,-0.6072c0.87185,0.21796 0.95538,1.44429 1.3811,1.6516c0.69558,0.33873 2.09852,-0.18571 2.96059,-0.07043c2.37446,0.31754 6.29783,2.38183 5.74149,5.50369c-0.65294,3.66388 -9.83986,0.98782 -12.53916,0.46824c-1.1838,-0.22787 -2.59038,-1.33343 -3.56288,-0.62099c-0.76001,0.55677 -6.5524,2.70725 -8.18067,3.23604c-0.58066,0.18858 -1.83874,-0.10851 -2.88434,-0.57896c-0.67602,-0.05939 -1.24958,-0.47586 -1.53092,-1.05966c-0.08337,-0.12187 -0.12956,-0.24227 -0.12956,-0.35806c-0.03674,-0.14683 -0.05624,-0.30049 -0.05624,-0.45871c0,-0.3018 0.07097,-0.58702 0.19714,-0.83988c0.70009,-2.15378 2.88645,-4.72259 4.70337,-5.51255z" fill="#313131" stroke="none" stroke-width="0.5" stroke-linecap="butt"/><path d="M296.74944,156.94043c0,0 -4.22307,-17.29411 -4.22307,-24.93623c0,-2.75768 -0.95763,-11.04158 3.54451,-14.9676c5.80536,-5.06248 17.7568,-5.54445 21.79391,-5.54445c3.39251,0 15.74324,-2.37128 21.09113,2.11689c6.84841,5.74747 6.45938,19.01195 6.45938,23.02043c0,7.07165 -3.82087,20.31096 -3.82087,20.31096c0,0 -15.47704,2.21209 -23.12634,2.21209c-7.28084,0 -21.71865,-2.21209 -21.71865,-2.21209z" fill="#ffffd6" stroke="#000000" stroke-width="3" stroke-linecap="butt"/><path d="M308.68224,198.3044c0.16905,-1.32035 0.31732,-2.61102 0.37858,-3.77692c0.02564,-0.48784 -1.44854,-0.21155 -1.40795,-0.67387c0.40467,-4.60998 1.41322,-10.99197 1.30684,-13.83228c-0.21043,-5.61847 -1.07237,-15.99266 -1.07237,-15.99266l7.34652,1.3186" fill="none" stroke="#000000" stroke-width="3" stroke-linecap="round"/><path d="M316.08153,251.87298l-4.6466,-34.56538l1.60202,-3.1091l13.31624,0.12559" fill="none" stroke="#000000" stroke-width="3" stroke-linecap="round"/><path d="M322.73736,165.724l-3.76745,3.13954l-3.17093,-4.83489l-0.56511,-3.57907" fill="none" stroke="#000000" stroke-width="3" stroke-linecap="round"/><path d="M332.56413,162.71006l-8.66513,2.26046l0.56512,-4.52093" fill="none" stroke="#000000" stroke-width="3" stroke-linecap="round"/><path d="M313.91526,165.724l-0.75349,47.09311" fill="none" stroke="#000000" stroke-width="3" stroke-linecap="round"/><path d="M325.09203,166.28914l0.94186,47.65822l1.83032,3.14424l-0.6059,35.28373l9.92095,3.64186l-0.25117,5.27443l-15.32095,-2.51163" fill="none" stroke="#000000" stroke-width="3" stroke-linecap="round"/><path d="M329.78137,196.12758c0.16517,-1.37929 0.34321,-2.85557 0.47238,-4.55744c0.47731,-6.28876 -1.40055,-12.56035 -1.36566,-15.67721c0.04442,-3.96855 2.5458,-12.05263 2.5458,-12.05263" fill="none" stroke="#000000" stroke-width="3" stroke-linecap="round"/><path d="M308.45246,198.87756l3.57907,8.66513" fill="none" stroke="#000000" stroke-width="3" stroke-linecap="round"/><path d="M325.56296,206.91479l4.7721,-10.54886" fill="none" stroke="#000000" stroke-width="3" stroke-linecap="round"/><path d="M320.35132,214.57526l1.25581,43.57682l-11.67909,3.01395l-2.26047,-4.39535l7.66048,-5.02326" fill="none" stroke="#000000" stroke-width="3" stroke-linecap="round"/><path d="M316.08153,251.1195l10.17211,-0.37674" fill="none" stroke="#000000" stroke-width="3" stroke-linecap="round"/><path d="M312.3141,254.25905l2.13489,1.75814" fill="none" stroke="#000000" stroke-width="3" stroke-linecap="round"/><path d="M312.06292,256.89624l-1.88372,-1.38139" fill="none" stroke="#000000" stroke-width="3" stroke-linecap="round"/><path d="M331.65366,253.50556l-3.01395,1.50698" fill="none" stroke="#000000" stroke-width="3" stroke-linecap="round"/><path d="M332.78389,255.76603l1.75815,-1.50698" fill="none" stroke="#000000" stroke-width="3" stroke-linecap="round"/><path d="M308.43346,190.66607l4,-5.125" fill="none" stroke="#000000" stroke-width="3" stroke-linecap="round"/><path d="M325.18346,186.79107l4.5,1.875" fill="none" stroke="#000000" stroke-width="3" stroke-linecap="round"/><path d="M340.63654,138.69216c0,0 0.53887,8.79657 -5.29515,13.10378c-4.64987,3.43296 -15.7181,2.57871 -17.12955,2.56548c-2.02096,-0.01894 -12.19871,-0.41104 -16.14614,-3.11091c-5.24795,-3.58936 -4.25998,-9.85295 -4.92087,-11.07456" fill="none" stroke="#000000" stroke-width="3" stroke-linecap="round"/><path d="M308.14886,145.73878l-0.09152,-7.13814" fill="none" stroke="#000000" stroke-width="3" stroke-linecap="round"/><path d="M313.91428,137.50247l-0.73212,7.04663" fill="none" stroke="#000000" stroke-width="3" stroke-linecap="round"/><path d="M325.53664,138.14307l-0.73212,6.95511" fill="none" stroke="#000000" stroke-width="3" stroke-linecap="round"/><path d="M329.56327,139.05821l-0.27454,5.76542" fill="none" stroke="#000000" stroke-width="3" stroke-linecap="round"/><path d="M309.97915,137.68549l0.18303,5.5824" fill="none" stroke="#ffffff" stroke-width="3" stroke-linecap="round"/><path d="M312.1755,138.41761l-0.18303,4.85028" fill="none" stroke="#ffffff" stroke-width="3" stroke-linecap="round"/><path d="M327.09238,138.50913l-0.36606,5.21633" fill="none" stroke="#ffffff" stroke-width="3" stroke-linecap="round"/><path d="M327.36693,144.27454l0.82363,-5.30785" fill="none" stroke="#ffffff" stroke-width="3" stroke-linecap="round"/><path d="M321.96756,137.22792l9.79206,0.27454l-1.18969,8.32782l-5.21633,-0.18302" fill="none" stroke="#000000" stroke-width="3" stroke-linecap="round"/><path d="M315.9276,137.50247l-1.09817,7.87025l-6.77208,-0.36606" fill="none" stroke="#000000" stroke-width="3" stroke-linecap="round"/><path d="M302.65799,136.77035l14.00173,0.18303" fill="none" stroke="#000000" stroke-width="3" stroke-linecap="round"/><path d="M356.92556,121.3082c0.04061,0.03697 0.08089,0.07425 0.12084,0.11183l0.0134,-0.01787l3.03232,2.27425c0.62045,0.45492 1.02328,1.18914 1.02328,2.01745c0,1.38071 -1.11929,2.5 -2.5,2.5h-3.31023v-0.07744l-0.23203,0.06664c-1.70574,-0.31665 -3.40918,-0.62705 -5.10731,-0.95649c0.64531,0.27679 1.29078,0.55897 1.93685,0.84717l0.1301,0.14335l0.03118,-0.04899l2.76546,1.75984c0.71588,0.43974 1.19332,1.22999 1.19332,2.13175c0,1.25484 -0.92451,2.29374 -2.12954,2.47274l-4.54286,0.75715l-0.01076,-0.06459c-0.23372,0.03806 -0.46978,0.06514 -0.70853,0.07952c-1.74784,0.10526 -3.2675,-1.26763 -4.85247,-2.01186c-0.54738,-0.25702 -1.45507,-0.72453 -2.48902,-1.27953c-1.78285,0.11249 -3.35762,-1.3036 -5.02435,-1.97428c-0.92951,-0.37403 -1.68509,-0.68244 -2.33682,-0.95428c-1.36269,0.4255 -3.11399,0.53849 -4.82517,0.52993c-1.22595,0.24584 -2.55576,0.18977 -3.80043,0.34386c-1.63996,0.20302 -3.30252,0.34827 -4.97246,0.4429c-4.80329,1.48555 -11.16878,2.1005 -16.57054,1.42416c-0.17185,0.2151 -0.34582,0.42955 -0.52181,0.6429c-0.20331,0.61357 -0.58142,1.02606 -0.58142,1.02606c-1.38768,1.5134 -2.94851,3.35774 -4.67631,4.97582l-0.02907,0.23251c-0.13791,1.25027 -1.19778,2.22282 -2.4848,2.22282c-0.18212,0 -0.35969,-0.01947 -0.53074,-0.05645c-0.70783,0.44147 -1.43806,0.80937 -2.19038,1.07541c-1.90785,0.67466 -4.03952,2.045 -5.92679,1.31475c-1.62329,-0.6281 -2.26135,-2.85631 -2.50962,-4.57908c-0.24696,-1.71367 1.10556,-3.8138 2.64239,-5.66304c0.19597,-0.76364 0.48111,-1.53423 0.83208,-2.29754c-2.70747,-1.6448 -4.58213,-4.7727 -3.3299,-8.15523c0.48103,-1.29936 1.47225,-2.38189 2.62437,-3.25011c0.00473,-0.00602 0.00945,-0.01203 0.01418,-0.01805c0.12644,-0.74417 0.32558,-1.47277 0.55018,-2.13186c0.51889,-1.52263 2.30422,-2.2623 3.60663,-3.20643c1.73494,-1.25768 4.7852,-2.73848 7.15164,-3.64673l1.65013,0.21585c0.21299,-0.28182 0.45068,-0.55532 0.70978,-0.82079c0.97432,-0.18033 1.93607,-0.39799 2.86031,-0.67076c0.08934,-0.01699 0.17856,-0.03445 0.26762,-0.05253l0.41001,-0.082l-0.19809,-0.01317c2.69497,-0.86591 5.02322,-2.24192 6.33785,-4.5893c1.17399,-0.45889 2.27071,-0.86774 3.1913,-1.23605c3.12559,-1.25047 8.26593,-3.20193 10.90221,-1.0363c3.09902,-0.02933 5.00876,0.5511 4.63054,3.34743c3.12653,0.36178 6.20927,0.98044 9.06178,1.87241c3.36491,1.05219 7.54156,2.94097 9.84719,5.81984l3.39963,0.75548c1.14398,0.22941 2.00574,1.23964 2.00574,2.45114c0,1.02167 -0.61286,1.9002 -1.49099,2.28803c2.13628,1.08092 4.43741,2.29009 4.94015,2.74774zM309.38278,111.38432c-0.02235,0.12038 -0.05333,0.23774 -0.09226,0.3514l0.42919,0.05615c0.01035,-0.0121 0.0207,-0.0242 0.03105,-0.03629c0.06077,-0.07102 0.12183,-0.1418 0.18311,-0.21239c-0.0894,-0.13453 -0.16613,-0.27823 -0.22847,-0.42937c-0.10751,0.09014 -0.21515,0.18025 -0.32262,0.27051zM315.48514,117.32562c0.06869,-0.00069 0.13724,-0.0012 0.20565,-0.00154c-0.00653,-0.0329 -0.01291,-0.06582 -0.01915,-0.09877c-0.06217,0.03342 -0.12434,0.06687 -0.1865,0.10031z" fill="#2f1700" stroke="none" stroke-width="0.5" stroke-linecap="butt"/><path d="M400.62029,68.80057l-0.90004,-0.11774c0.6529,-0.0802 1.31265,-0.16833 1.97167,-0.2698c-0.33443,0.11248 -0.69434,0.24273 -1.07163,0.38753z" fill="#2f1700" stroke="none" stroke-width="0.5" stroke-linecap="butt"/><path d="M262.75,265v-79h119v79z" fill="#ff8800" stroke="#000000" stroke-width="2" stroke-linecap="butt"/><path d="M261.75,244v-150h28.5v150z" fill="#ff8800" stroke="#000000" stroke-width="2" stroke-linecap="butt"/><path d="M353.91667,248v-150h28.5v150z" fill="#ff8800" stroke="#000000" stroke-width="2" stroke-linecap="butt"/><path d="M262.75,108v-12.5h117.5v12.5z" fill="#ff8800" stroke="#000000" stroke-width="2" stroke-linecap="butt"/><path d="M311.65,178.25c0,4.33543 -3.69365,7.85 -8.25,7.85c-4.55635,0 -8.25,-3.51457 -8.25,-7.85c0,-4.33543 3.69365,-7.85 8.25,-7.85c4.55635,0 8.25,3.51457 8.25,7.85z" fill="#ff8800" stroke="#000000" stroke-width="2" stroke-linecap="butt"/><path d="M313.03263,173.01993c0.39875,-2.57654 3.01737,-6.01993 3.01737,-6.01993c0,0 3.17199,4.52235 3.80257,7.17082c0.21843,0.91744 0.64093,2.78577 1.39245,4.23177c1.64384,3.16291 4.10497,6.19742 4.10497,6.19742c0,0 -4.38905,-0.7673 -8.04113,-4.17725c-1.86973,-1.74576 -4.43177,-6.39786 -4.27624,-7.40282z" fill="#d4ff00" stroke="#000000" stroke-width="2" stroke-linecap="butt"/><path d="M313.8625,164.05c3.75428,-4.19595 5.10425,2.41831 4.8875,4.95c-0.04825,0.56357 -0.47633,1.14552 -1.06734,1.60219c-0.29568,0.28435 -0.66118,0.49662 -1.06824,0.60855c-1.32842,0.52662 -2.81919,0.33011 -3.01423,-1.55527c-0.09719,-0.26688 -0.1502,-0.55498 -0.1502,-0.85547c0,-0.07382 0.0032,-0.14689 0.00947,-0.21908c0.01713,-1.24238 -0.46558,-3.56012 0.40303,-4.53092z" fill="#000000" stroke="none" stroke-width="0.5" stroke-linecap="butt"/><path d="M301.75,174.01946c-0.09528,-0.00074 -0.1955,-0.01346 -0.2998,-0.03724c-0.7308,-0.08734 -1.36476,-0.48995 -1.76198,-1.06793c-1.79017,-1.60575 -3.54252,-4.5531 -2.67428,-6.03232c1.80468,-3.07466 6.90668,0.46675 6.90668,3.37683c0.20958,0.36572 0.32939,0.78947 0.32939,1.24121c0,1.27613 -0.95614,2.32893 -2.19111,2.48111c-0.09763,0.02576 -0.20033,0.03919 -0.30889,0.03835z" fill="#8cff00" stroke="none" stroke-width="0.5" stroke-linecap="butt"/><path d="M348.35,177.35c0,2.73536 -1.56322,6.22641 -3.89314,7.52201c-1.02107,0.56778 -6.51555,-1.67201 -6.70686,-1.67201c-2.07859,0 -4.06968,3.04297 -5.48016,1.80532c-1.55018,-1.36023 -4.01984,-4.90099 -4.01984,-7.05532c0,-2.15434 1.76965,-6.29509 3.31984,-7.65532c1.41048,-1.23764 3.20157,2.20532 5.28017,2.20532c2.11282,0 7.23192,-3.51782 8.64946,-2.24377c1.50973,1.3569 2.85054,4.97172 2.85054,7.09377z" fill="#ff0000" stroke="#000000" stroke-width="2" stroke-linecap="butt"/><path d="M337.35,172.51946c-0.09528,-0.00074 -0.1955,-0.01346 -0.29981,-0.03724c-0.7308,-0.08734 -1.36476,-0.48995 -1.76198,-1.06793c-1.79017,-1.60575 -3.54252,-4.5531 -2.67428,-6.03232c1.80468,-3.07466 6.90668,0.46675 6.90668,3.37683c0.20958,0.36572 0.32939,0.78947 0.32939,1.24121c0,1.27613 -0.95614,2.32893 -2.19111,2.48111c-0.09763,0.02576 -0.20032,0.03919 -0.30889,0.03835z" fill="#8cff00" stroke="none" stroke-width="0.5" stroke-linecap="butt"/><text transform="translate(290.5,210) scale(0.5,0.5)" font-size="40" xml:space="preserve" fill="#000000" fill-rule="nonzero" stroke="none" stroke-width="1" stroke-linecap="butt" stroke-linejoin="miter" stroke-miterlimit="10" stroke-dasharray="" stroke-dashoffset="0" font-family="Pixel" font-weight="normal" text-anchor="start" style="mix-blend-mode: normal"><tspan x="0" dy="0">DANS</tspan></text><path d="M294.90589,216.96106c1.64294,-2.0898 5.78081,-3.90595 5.78081,-3.90595c0,0 0.72172,5.48126 0.00178,8.11666c-0.24939,0.91291 -0.77807,2.76156 -0.79193,4.39114c-0.03033,3.56447 0.76378,7.39821 0.76378,7.39821c0,0 -3.7083,-2.73338 -5.4261,-7.45659c-0.87944,-2.4181 -0.96916,-7.72835 -0.32833,-8.54347z" fill="#d4ff00" stroke="#000000" stroke-width="2" stroke-linecap="butt"/><path d="M308.89553,214.1916c1.49717,1.27653 2.71855,4.39014 2.71855,4.39014c0,0 -4.07492,0.37246 -6.00275,-0.23753c-0.6678,-0.2113 -2.01942,-0.65669 -3.22417,-0.71489c-2.63522,-0.12732 -5.49384,0.34716 -5.49384,0.34716c0,0 2.1306,-2.66205 5.67421,-3.79346c1.81419,-0.57924 5.74404,-0.48933 6.328,0.00858z" fill="#d4ff00" stroke="#000000" stroke-width="2" stroke-linecap="butt"/><path d="M304.95198,221.44165c1.19236,1.01665 2.16507,3.49635 2.16507,3.49635c0,0 -3.24529,0.29663 -4.78064,-0.18917c-0.53184,-0.16828 -1.60828,-0.52299 -2.56775,-0.56934c-2.0987,-0.1014 -4.37534,0.27648 -4.37534,0.27648c0,0 1.69683,-2.12008 4.51899,-3.02115c1.44484,-0.46131 4.57459,-0.3897 5.03967,0.00683z" fill="#d4ff00" stroke="#000000" stroke-width="2" stroke-linecap="butt"/><path d="M318.65,230.53788c0,3.02167 -2.57436,5.47121 -5.75,5.47121c-3.17564,0 -5.75,-2.44954 -5.75,-5.47121c0,-3.02167 2.57436,-5.47122 5.75,-5.47122c3.17564,0 5.75,2.44955 5.75,5.47122z" fill="#ff8800" stroke="#000000" stroke-width="2" stroke-linecap="butt"/><path d="M332.98334,230.3793c0,2.93408 -2.49975,5.31262 -5.58334,5.31262c-3.08359,0 -5.58333,-2.37855 -5.58333,-5.31262c0,-2.93408 2.49974,-5.31263 5.58333,-5.31263c3.08359,0 5.58334,2.37855 5.58334,5.31263z" fill="#ff8800" stroke="#000000" stroke-width="2" stroke-linecap="butt"/><path d="M338.04379,226.21274c-0.21179,-2.40074 -2.03379,-9.70145 0.72998,-9.8692c3.25565,-0.19762 6.14537,2.39986 6.82456,3.12796c0.51216,0.54905 2.18748,3.83982 2.29504,6.67643c0.12945,3.41383 -1.41397,6.46877 -2.07556,7.25152c-1.33129,1.57511 -5.43857,3.42113 -7.59253,3.46102c-2.15397,0.03989 -0.13416,-10.11118 -0.18149,-10.64774z" data-paper-data="{&quot;index&quot;:null}" fill="#ff0000" stroke="#000000" stroke-width="2" stroke-linecap="butt"/><path d="M337.5751,227.10942c-0.03474,0.05206 -0.07784,0.10253 -0.12849,0.15125c-0.31132,0.36992 -0.7609,0.57305 -1.2215,0.58295c-1.52706,0.40463 -3.77738,0.30504 -4.27698,-0.70489c-1.03845,-2.0992 2.7452,-3.62535 4.34359,-2.5767c0.27639,0.01667 0.55232,0.10357 0.80044,0.26635c0.70092,0.45986 0.93463,1.3644 0.57319,2.09755c-0.02103,0.06291 -0.05066,0.12416 -0.09024,0.18348z" fill="#8cff00" stroke="none" stroke-width="0.5" stroke-linecap="butt"/><path d="M327.39787,227.03486c-0.06207,0.00806 -0.12844,0.00876 -0.19845,0.00262c-0.48341,0.00863 -0.93204,-0.19657 -1.24233,-0.53712c-1.30887,-0.8846 -2.71331,-2.64567 -2.28081,-3.6861c0.89898,-2.1626 4.53652,-0.31502 4.79724,1.57879c0.16915,0.21922 0.28509,0.48425 0.32556,0.77823c0.11433,0.83047 -0.41359,1.60127 -1.20364,1.81095c-0.06123,0.02551 -0.12685,0.04345 -0.19758,0.05263z" fill="#8cff00" stroke="none" stroke-width="0.5" stroke-linecap="butt"/><path d="M313.56453,226.36819c-0.06207,0.00806 -0.12843,0.00876 -0.19844,0.00262c-0.48341,0.00863 -0.93204,-0.19657 -1.24233,-0.53713c-1.30887,-0.8846 -2.71332,-2.64567 -2.28081,-3.6861c0.89898,-2.1626 4.53653,-0.31503 4.79725,1.57878c0.16915,0.21922 0.28509,0.48426 0.32556,0.77824c0.11433,0.83047 -0.41359,1.60127 -1.20364,1.81095c-0.06123,0.02551 -0.12686,0.04345 -0.19758,0.05263z" fill="#8cff00" stroke="none" stroke-width="0.5" stroke-linecap="butt"/><path d="M298.40238,215.5113c1.11952,1.11952 -0.82513,2.72699 -2.13848,3.27768c-0.19198,0.12011 -0.41891,0.18954 -0.66207,0.18954c-0.69036,0 -1.25,-0.55964 -1.25,-1.25c0,-0.505 0.29946,-0.94005 0.73049,-1.13727c0.96024,-0.95542 2.5985,-1.8015 3.32006,-1.07995z" fill="#000000" stroke="none" stroke-width="0.5" stroke-linecap="butt"/><path d="M310.1946,217.42198c0.2588,1.03522 -1.47404,2.35881 -2.29155,1.68803c-0.82719,-0.67873 -0.96918,-2.46091 -1.2452,-3.427c-0.03641,-0.11727 -0.05602,-0.24192 -0.05602,-0.37116c0,-0.12082 0.01714,-0.23765 0.04913,-0.34816c0.17521,-0.96144 0.58868,-1.13308 1.07434,-0.89551c0.04161,-0.00419 0.08382,-0.00633 0.12654,-0.00633c0.69036,0 1.25,0.55964 1.25,1.25c0,0.04107 -0.00198,0.08166 -0.00585,0.12171c0.55734,0.77285 1.00992,1.6336 1.09862,1.98842z" fill="#000000" stroke="none" stroke-width="0.5" stroke-linecap="butt"/><path d="M304.12614,225.34654c-1.20086,-0.60043 -0.05684,-3.88821 1.079,-3.57844c0.10014,-0.02585 0.20514,-0.0396 0.31335,-0.0396c0.69036,0 1.25,0.55964 1.25,1.25c0,0.45019 -0.23799,0.84479 -0.59502,1.06487c-0.17099,1.05765 -0.91308,1.87029 -2.04733,1.30317z" fill="#000000" stroke="none" stroke-width="0.5" stroke-linecap="butt"/><path d="M266.29539,102.57246c0,-0.69036 0.55964,-1.25 1.25,-1.25c0.69036,0 1.25,0.55964 1.25,1.25c0,0.69036 -0.55964,1.25 -1.25,1.25c-0.69036,0 -1.25,-0.55964 -1.25,-1.25z" fill="#000000" stroke="none" stroke-width="0.5" stroke-linecap="butt"/><path d="M372.29539,99.57246c0,-0.69036 0.55964,-1.25 1.25,-1.25c0.69036,0 1.25,0.55964 1.25,1.25c0,0.69036 -0.55964,1.25 -1.25,1.25c-0.69036,0 -1.25,-0.55964 -1.25,-1.25z" fill="#000000" stroke="none" stroke-width="0.5" stroke-linecap="butt"/><path d="M366.62873,239.57246c0,-0.69036 0.55964,-1.25 1.25,-1.25c0.69036,0 1.25,0.55964 1.25,1.25c0,0.69036 -0.55964,1.25 -1.25,1.25c-0.69036,0 -1.25,-0.55964 -1.25,-1.25z" fill="#000000" stroke="none" stroke-width="0.5" stroke-linecap="butt"/><path d="M268.29539,233.23913c0,-0.69036 0.55964,-1.25 1.25,-1.25c0.69036,0 1.25,0.55964 1.25,1.25c0,0.69036 -0.55964,1.25 -1.25,1.25c-0.69036,0 -1.25,-0.55964 -1.25,-1.25z" fill="#000000" stroke="none" stroke-width="0.5" stroke-linecap="butt"/></g></g></svg>