<svg version="1.1" xmlns="http://www.w3.org/2000/svg" xmlns:xlink="http://www.w3.org/1999/xlink" width="56.77907" height="115.06936" viewBox="0,0,56.77907,115.06936"><g transform="translate(-293.14553,-130.44749)"><g data-paper-data="{&quot;isPaintingLayer&quot;:true}" fill-rule="nonzero" stroke-linejoin="miter" stroke-miterlimit="10" stroke-dasharray="" stroke-dashoffset="0" style="mix-blend-mode: normal"><path d="M296.41017,186.05257v-47.38281h51.20401v47.38281z" fill="#000000" stroke="#000000" stroke-width="2" stroke-linecap="butt"/><path d="M312.45919,218.53273v-42.79738h18.34173v42.79738z" fill="#000000" stroke="#000000" stroke-width="2" stroke-linecap="butt"/><path d="M304.81681,206.68702v-20.63445h9.55299v20.63445z" fill="#000000" stroke="#000000" stroke-width="2" stroke-linecap="butt"/><path d="M328.89034,207.06914v-25.21988h12.99206v25.21988z" fill="#000000" stroke="#000000" stroke-width="2" stroke-linecap="butt"/><path d="M313.22344,244.13473v-26.36624h17.57749v26.36624z" fill="#000000" stroke="#000000" stroke-width="2" stroke-linecap="butt"/><path d="M299.46714,183.37774v-41.2689h45.85433v41.2689z" fill="#fff7bd" stroke="#000000" stroke-width="2" stroke-linecap="butt"/><path d="M299.46714,165.80024v-22.16293h14.13842v22.16293z" fill="#1d1b14" stroke="none" stroke-width="0" stroke-linecap="butt"/><path d="M329.8497,162.08479v-20.06536h14.90266v20.06536z" fill="#1d1b14" stroke="none" stroke-width="0" stroke-linecap="butt"/><path d="M298.84925,152.88545v-10.69934h45.85433v10.69934z" fill="#1d1b14" stroke="none" stroke-width="0" stroke-linecap="butt"/><path d="M309.78434,173.82475v-11.08146h9.93511v11.08146z" fill="#ffffff" stroke="#000000" stroke-width="2" stroke-linecap="butt"/><path d="M324.3049,173.82475v-11.08146h10.69934v11.08146z" fill="#ffffff" stroke="#000000" stroke-width="2" stroke-linecap="butt"/><path d="M315.51615,171.91415v-8.40663h4.20331v8.40663z" fill="#2d2d2d" stroke="#000000" stroke-width="2" stroke-linecap="butt"/><path d="M326.21549,173.06051v-9.55299h4.58543v9.55299z" fill="#2d2d2d" stroke="#000000" stroke-width="2" stroke-linecap="butt"/><path d="M312.45919,219.67908v-34.39075h18.72385v34.39075z" fill="#ffffff" stroke="#000000" stroke-width="2" stroke-linecap="butt"/><path d="M304.81681,200.57311v-13.37418h9.17087v13.37418z" fill="#ffffff" stroke="#000000" stroke-width="2" stroke-linecap="butt"/><path d="M330.80091,199.04463v-13.37418h11.08146v13.37418z" fill="#ffffff" stroke="#000000" stroke-width="2" stroke-linecap="butt"/><path d="M305.19892,207.06914v-6.49603h8.02451v6.49603z" fill="#fff7bd" stroke="#000000" stroke-width="2" stroke-linecap="butt"/><path d="M331.56516,207.06914v-7.26027h9.17087v7.26027z" fill="#fff7bd" stroke="#000000" stroke-width="2" stroke-linecap="butt"/><path d="M314.75192,242.22413v-21.39869h14.13842v21.39869z" fill="#ff0000" stroke="#000000" stroke-width="2" stroke-linecap="butt"/><path d="M313.22344,244.51685v-7.64239h16.81326v7.64239z" fill="#ffffff" stroke="#000000" stroke-width="2" stroke-linecap="butt"/><path d="M320.06055,219.67908l0.7515,22.54505" fill="none" stroke="#000000" stroke-width="2" stroke-linecap="round"/><path d="M310.41668,159.5v-10.33333h5.83333v10.33333z" fill="#1d1b14" stroke="none" stroke-width="0" stroke-linecap="butt"/><path d="M313.41668,155.5v-5.5h4.83333v5.5z" fill="#1d1b14" stroke="none" stroke-width="0" stroke-linecap="butt"/><path d="M323.08333,154.83333v-5h8v5z" fill="#1d1b14" stroke="none" stroke-width="0" stroke-linecap="butt"/><path d="M326.25001,158.16667v-10.33333h4.33333v10.33333z" fill="#1d1b14" stroke="none" stroke-width="0" stroke-linecap="butt"/><path d="M293.14553,165.80024v-30.63964h19.74167v30.63965z" fill="#1d1b14" stroke="none" stroke-width="0" stroke-linecap="butt"/><path d="M329.13134,162.08479v-25.95595h20.79326v25.95595z" fill="#1d1b14" stroke="none" stroke-width="0" stroke-linecap="butt"/><path d="M297.98722,154.7532v-23.34257h45.85433v23.34257z" fill="#1d1b14" stroke="none" stroke-width="0" stroke-linecap="butt"/><path d="M309.69832,159.5v-10.33333h5.83333v10.33333z" fill="#1d1b14" stroke="none" stroke-width="0" stroke-linecap="butt"/><path d="M312.12364,154.63796v-5.5h4.83333v5.5z" fill="#1d1b14" stroke="none" stroke-width="0" stroke-linecap="butt"/><path d="M325.09477,154.83333v-5h8v5z" fill="#1d1b14" stroke="none" stroke-width="0" stroke-linecap="butt"/><path d="M326.68104,160.1781v-10.33333h4.33333v10.33333z" fill="#1d1b14" stroke="none" stroke-width="0" stroke-linecap="butt"/><path d="M294.76696,139.06786v-5.74692h7.90202v5.74692z" fill="#1d1b14" stroke="none" stroke-width="0" stroke-linecap="butt"/><path d="M342.17909,139.21154v-6.03427h5.45958v6.03427z" fill="#1d1b14" stroke="none" stroke-width="0" stroke-linecap="butt"/><path d="M300.80123,132.31523v-1.86774h39.94112v1.86774z" fill="#1d1b14" stroke="none" stroke-width="0" stroke-linecap="butt"/><path d="M294.33595,168.59115v-5.60325h11.63752v5.60325z" fill="#1d1b14" stroke="none" stroke-width="0" stroke-linecap="butt"/><path d="M336.57584,164.28096v-3.16081h11.35017v3.16081z" fill="#1d1b14" stroke="none" stroke-width="0" stroke-linecap="butt"/></g></g></svg>