<svg version="1.1" xmlns="http://www.w3.org/2000/svg" xmlns:xlink="http://www.w3.org/1999/xlink" width="163.68333" height="156.26667" viewBox="0,0,163.68333,156.26667"><defs><linearGradient x1="234.58334" y1="78.81667" x2="274.08334" y2="78.81667" gradientUnits="userSpaceOnUse" id="color-1"><stop offset="0" stop-color="#804400"/><stop offset="1" stop-color="#613400"/></linearGradient><linearGradient x1="356.58333" y1="79.41667" x2="396.08333" y2="79.41667" gradientUnits="userSpaceOnUse" id="color-2"><stop offset="0" stop-color="#804400"/><stop offset="1" stop-color="#613400"/></linearGradient></defs><g transform="translate(-233.98334,-69.06666)"><g data-paper-data="{&quot;isPaintingLayer&quot;:true}" fill-rule="nonzero" stroke="none" stroke-width="0" stroke-linecap="butt" stroke-linejoin="miter" stroke-miterlimit="10" stroke-dasharray="" stroke-dashoffset="0" style="mix-blend-mode: normal"><path d="M302.76566,118.492l-30.27712,-27.82222l6.24581,-6.7969l30.27712,27.82222z" data-paper-data="{&quot;index&quot;:null}" fill="#613400"/><path d="M268.75,148.5v-64h15.5v64z" data-paper-data="{&quot;index&quot;:null}" fill="#613400"/><path d="M234.16666,225.33333v-76h163.5v76z" fill="#ff6f00"/><path d="M234.25,150v-80.5h15.5v80.5z" data-paper-data="{&quot;index&quot;:null}" fill="#804400"/><path d="M233.98334,81.16667l0.6,-12.1c0,0 13.40157,0.1186 19.83768,0.17556c4.84866,0.04291 25.51659,14.45059 28.76243,14.47932c0.83873,0.00742 -0.10011,15.64513 -0.10011,15.64513c0,0 -23.93013,-16.53504 -29.03902,-17.18173c-6.60721,-0.83635 -20.06098,-1.01827 -20.06098,-1.01827z" fill="url(#color-1)"/><path d="M271.56859,110.62712l-36.08005,-33.15464l7.44288,-8.0996l36.08005,33.15464z" data-paper-data="{&quot;index&quot;:null}" fill="#804400"/><path d="M355.25,110.6951l30.27713,-27.82222l6.2458,6.79691l-30.27713,27.82222z" data-paper-data="{&quot;index&quot;:null}" fill="#613400"/><path d="M380.01147,147.5v-64h15.5v64z" data-paper-data="{&quot;index&quot;:null}" fill="#613400"/><path d="M356.51147,150v-80.5h15.5v80.5z" data-paper-data="{&quot;index&quot;:null}" fill="#804400"/><path d="M327.25,102.52752l36.08005,-33.15464l7.44288,8.0996l-36.08005,33.15464z" data-paper-data="{&quot;index&quot;:null}" fill="#804400"/><path d="M356.58333,84.16667v-14.5c0,0 13.40156,0.1186 19.83768,0.17555c4.84866,0.04291 13.91659,3.45059 17.16242,3.47931c0.83874,0.00742 2.4999,15.84513 2.4999,15.84513c0,0 -12.87992,-4.15147 -19.43902,-4.98173c-6.60721,-0.83636 -20.06098,-0.01827 -20.06098,-0.01827z" fill="url(#color-2)"/></g></g></svg>