<svg version="1.1" xmlns="http://www.w3.org/2000/svg" xmlns:xlink="http://www.w3.org/1999/xlink" width="79.09479" height="163.34126" viewBox="0,0,79.09479,163.34126"><g transform="translate(-280.45259,-98.99946)"><g data-paper-data="{&quot;isPaintingLayer&quot;:true}" fill-rule="nonzero" stroke-linejoin="miter" stroke-miterlimit="10" stroke-dasharray="" stroke-dashoffset="0" style="mix-blend-mode: normal"><path d="M313.76396,198.75972c-0.17539,3.68333 -3.34851,6.80841 -5.13895,2.36529c-1.37102,-3.4023 -0.33974,-7.33195 -0.3125,-11c0.01675,-2.25545 4.04647,-3.50823 4.8125,-1.125c0.93627,2.91285 0.5625,6.45306 0.5625,9.37745z" fill="#ffffd6" stroke="none" stroke-width="0.5" stroke-linecap="butt"/><path d="M327.68751,199.87501c-2.87169,0 -3.05656,-7.4911 -2.58778,-10.05722c0.00378,-0.02166 0.00783,-0.04323 0.01216,-0.06469c0.23044,-1.14266 1.24005,-2.00309 2.45062,-2.00309c1.38071,0 2.5,1.11929 2.5,2.5c0,0.2807 -0.04626,0.55058 -0.13157,0.80246c1.18484,3.71708 0.20078,8.82254 -2.24343,8.82254z" fill="#ffffd6" stroke="none" stroke-width="0.5" stroke-linecap="butt"/><path d="M308.75001,186.12501c-2.22479,-4.44958 -0.32308,-11.43322 -0.0625,-16.05776c0.13169,-2.33718 -1.18221,-4.47562 1.00696,-6.17831c1.98412,-1.54321 3.16582,0.82024 3.74676,2.45496c0.01854,-0.0316 0.03812,-0.06291 0.05878,-0.09389c2.33865,-3.50797 4.3278,0.85642 5.84819,2.25016c0.85258,0.78156 1.2335,-2.22366 2.33931,-2.56266c3.10095,-0.95061 7.51792,-5.26239 10.02118,-3.131c0.42723,0.36377 -0.78259,1.15793 -0.38061,1.92874c0.93854,1.79967 -1.04056,3.43299 -1.59369,4.65479c-1.33858,2.95675 -1.8541,4.75356 -1.21427,8.26465c0.4751,2.60718 3.11395,6.48809 1.31016,8.98808c-0.87273,1.20958 -2.98638,0.52235 -4.02952,-0.31264c-0.32118,-0.25709 -2.02193,-1.40089 -2.07399,-1.23716c-0.88989,2.79903 0.85131,3.5792 0.85131,5.92179c0,6.47091 1.73022,13.51687 0.875,19.84549c-0.08808,0.65179 -0.34066,1.224 -0.71657,1.71828c-2.2203,-0.0769 -4.47078,-0.09096 -6.51821,0.36906c-1.3213,-0.00337 -3.30862,-0.16521 -5.16309,-0.08633c-1.56243,-2.07597 0.90813,-2.84441 -0.20628,-5.07324c-0.18291,-0.34741 -0.28643,-0.74312 -0.28643,-1.16302c0,-0.02273 0.0003,-0.04538 0.0009,-0.06796c0.08288,-6.02958 0.83786,-12.5083 0.8741,-18.72667c0.00456,-0.78222 0.00832,-1.56444 0.01137,-2.34667c-0.75948,1.97179 -3.47424,3.09056 -4.69887,0.6413z" fill="#ffffff" stroke="none" stroke-width="0.5" stroke-linecap="butt"/><path d="M313.5625,213.43751c-0.03699,-0.03699 -0.07281,-0.0736 -0.10746,-0.10983c1.76382,-0.03861 3.62341,0.12096 4.81777,0.11693c1.90359,-0.41589 3.9699,-0.43425 6.02535,-0.37557c-0.63614,0.61208 -1.48314,1.07442 -2.43014,1.39146c-2.47054,-0.01444 -4.9393,-0.19289 -7.40512,-0.36141c-0.34589,-0.19047 -0.64998,-0.41116 -0.9004,-0.66159z" fill="#ffffff" stroke="none" stroke-width="0.5" stroke-linecap="butt"/><path d="M319.77986,214.91317c-1.26346,0.14278 -2.56095,0.07264 -3.68937,-0.20227c1.22919,0.08172 2.45902,0.15618 3.68937,0.20227z" fill="#ffffff" stroke="none" stroke-width="0.5" stroke-linecap="butt"/><path d="M313.2228,228.04355c-0.4475,-2.75966 -0.07757,-5.77553 -0.41028,-8.56811c-0.12709,-1.06671 -1.49887,-3.35549 -1.25,-4.47543c0.23113,-1.04012 0.9221,-1.87009 1.89654,-2.50097c0.45999,0.03023 0.9208,0.06142 1.38286,0.09295c3.50146,0.23894 7.00861,0.50039 10.51862,0.29525c0.42576,-0.02489 0.84927,-0.05868 1.27098,-0.09992c0.4695,0.3878 0.81379,0.83452 0.99349,1.33768c1.53564,4.2998 -0.03792,9.58826 -0.1875,13.99969c-0.12286,3.62358 0.43112,7.06407 0.21389,10.76975c-0.13398,2.28554 0.18175,6.0643 -0.90139,8.23057c-0.27101,0.54202 -0.58252,0.89021 -0.92338,1.10521c-0.81924,0.06671 -1.64925,0.11282 -2.48188,0.14468c-0.79766,-0.1486 -1.61575,-0.31003 -2.37552,-0.05541c-0.12871,0.04314 -0.2561,0.08224 -0.38212,0.1174c-1.01178,0.00995 -2.01406,0.00913 -2.99199,0.00913c-0.0482,0 -0.09654,0.00012 -0.14499,0.00037c-2.27985,-0.78062 -3.35589,-3.44727 -2.21947,-6.85651c-0.02832,-0.15063 -0.04314,-0.30603 -0.04314,-0.46488c0,-0.07879 0.00365,-0.15673 0.01078,-0.23367c0.15484,-4.05409 -1.31134,-8.75204 -1.97549,-12.8478z" fill="#ff0000" stroke="none" stroke-width="0.5" stroke-linecap="butt"/><path d="M315.75678,213.36034c0.95911,0.03689 1.84314,0.08655 2.51603,0.08428c0.99162,-0.21665 2.0274,-0.32542 3.08281,-0.37162c1.59459,0.19465 3.06538,0.6233 4.14094,1.26898c-0.22116,0.01769 -0.44285,0.03313 -0.66517,0.04613c-3.48886,0.2039 -6.97508,-0.05745 -10.45542,-0.29495c-0.20417,-0.01394 -0.4081,-0.0278 -0.61183,-0.04154c0.60319,-0.28794 1.27688,-0.51777 1.99264,-0.69128z" fill="#ff0000" stroke="none" stroke-width="0.5" stroke-linecap="butt"/><path d="M319.10014,157.52131c0.72138,0.05266 1.1627,0.86078 1.73769,1.29959c0.16734,0.12771 1.30021,-0.75666 2.54778,0.52134c1.94393,1.99134 -1.61228,8.68948 -4.49999,8.52905c-2.75794,-0.15322 -3.66756,-4.35369 -3.64704,-6.47488c0.00236,-0.24371 -0.0529,-2.23394 0.44792,-2.46271l1.52991,-0.78448c0.06043,0 0.1202,0.00285 0.17917,0.00841c0.58014,-0.03841 1.10547,-0.68005 1.70455,-0.63632z" fill="#ffffd6" stroke="none" stroke-width="0.5" stroke-linecap="butt"/><path d="M318.75396,248.2139c1.10336,-0.92951 2.18199,-1.88774 3.18086,-2.87413c0.03341,-0.01579 0.06716,-0.03143 0.10127,-0.0469c0.81847,-0.37114 1.64611,0.53763 2.10847,0.43543c0.75544,-0.16698 1.52852,-1.44979 2.2755,-1.8953c2.05748,-1.22707 6.41402,-2.04846 7.91854,0.74294c1.76574,3.27605 -7.09442,6.88969 -9.53195,8.16038c-0.65251,0.34016 -1.57329,0.47572 -2.26429,0.79412c-1.28596,-1.6208 -2.57191,-3.24161 -3.85787,-4.86242l-0.14459,-0.18225c0.07228,-0.09133 0.1435,-0.18198 0.21404,-0.27187z" fill="#ffffff" stroke="none" stroke-width="0.5" stroke-linecap="butt"/><path d="M311.65487,251.19389c0.87113,-1.02988 3.02663,-1.31005 3.74905,-2.32926c0.2217,-0.31278 0.31478,-0.64997 0.50196,-0.95696c0.49244,-0.24329 0.9903,-0.49003 1.49032,-0.74085c0.38289,-0.00211 0.76651,0.01373 0.94092,-0.11178c0.24281,-0.17476 0.47174,-0.35075 0.69138,-0.52576l0.05271,0.10677c0.90535,1.83387 1.8107,3.66773 2.71607,5.5016c-0.25851,0.12077 -0.47062,0.29771 -0.60897,0.56349c-0.43502,0.83569 -4.67696,5.32814 -5.90292,6.5231c-0.43718,0.42614 -1.6968,0.71668 -2.84262,0.7577c-0.63247,0.246 -1.33112,0.12647 -1.84184,-0.27247c-0.12871,-0.07237 -0.22342,-0.15989 -0.27468,-0.26371c-0.09794,-0.1154 -0.18345,-0.24455 -0.25349,-0.38642c-0.1336,-0.27062 -0.19622,-0.55779 -0.19502,-0.84038c-0.32567,-2.24116 0.49763,-5.51242 1.77713,-7.02507z" fill="#ffffff" stroke="none" stroke-width="0.5" stroke-linecap="butt"/><path d="M297.10221,157.95697c0,0 -4.22307,-17.29411 -4.22307,-24.93623c0,-2.75768 -0.95763,-11.04158 3.54451,-14.9676c5.80536,-5.06248 17.7568,-5.54445 21.79391,-5.54445c3.39251,0 15.74324,-2.37128 21.09113,2.11689c6.84841,5.74747 6.45938,19.01195 6.45938,23.02043c0,7.07165 -3.82087,20.31096 -3.82087,20.31096c0,0 -15.47704,2.21209 -23.12634,2.21209c-7.28084,0 -21.71865,-2.21209 -21.71865,-2.21209z" fill="#ffffd6" stroke="#000000" stroke-width="3" stroke-linecap="butt"/><path d="M358.74709,131.707l-0.14343,0.08367l0.33475,0.37387c-0.00225,1.08935 0.25677,2.21105 -0.00676,3.26804c-0.71879,2.88303 -2.2179,2.17152 -3.38575,4.87996c-0.35102,0.81408 0.47941,2.11992 -0.23157,2.64948c-3.88254,2.89185 -7.27805,-0.98608 -8.27893,-4.08709c-0.70971,-2.19889 1.73392,3.68249 -1.81545,3.43895c-2.81241,-0.19297 -5.81571,2.48621 -8.62152,2.24885c-3.05575,-0.25851 -4.09995,-5.94481 -7.25629,-6.37247c-2.96979,-0.40239 -5.42339,4.17616 -8.56457,4.48078c-1.5576,0.15105 -3.33265,-3.05784 -4.42784,-2.71406c-1.29235,0.40566 -2.35877,3.59712 -3.69707,3.80613c-0.24984,0.03902 -3.81786,0.95526 -3.8714,1.28276c-0.42064,2.57255 -1.54095,1.03424 -3.23877,0.96866c1.33415,2.72128 -2.64938,0.84041 -2.73789,3.76252l-0.82677,1.34037c0.16131,0.27772 -2.03204,-1.68527 -2.03204,-1.34098c0,0.69725 -0.09311,-0.55113 -0.65615,-0.22543l-1.14285,-0.13737c0,1.04035 0.29947,-1.68771 -0.74088,-1.68771c-0.74135,0 -1.38266,-0.42825 -1.69007,-1.05086l-0.91271,-1.75747c-1.192,0.19968 -1.85833,-0.9664 -1.85833,-0.9664l-0.08542,-0.17781c-0.82137,-0.74195 -1.56986,-2.11574 -2.13529,-3.24841c-0.52376,-0.01525 -1.03774,-0.0702 -1.51691,-0.26643c-3.08562,-1.26363 -3.40458,-3.8018 -2.65153,-6.47753c-0.20715,-0.82715 -0.26448,-1.88197 -0.13702,-3.21786c0.0281,-0.29451 0.18298,-0.52439 0.39897,-0.7251c-3.80262,0.2981 -6.30821,-0.23036 -6.36438,-4.58475c-0.0328,-2.54237 1.23406,-4.29673 2.95379,-5.7228c0.46659,-0.84575 1.22511,-1.71413 2.13053,-2.44444c0.55139,-1.30416 1.17433,-2.57207 1.88773,-3.83643l0.23282,-0.13668l-0.06095,-0.06095l1.69535,-1.69535v0c0.21044,-0.21044 0.47044,-0.37132 0.761,-0.46363c1.16084,-2.14751 2.69086,-4.01431 5.22521,-4.88075c1.03573,-0.3541 2.31551,-0.64049 3.28138,-0.12548c0.79683,0.42488 0.21672,2.37041 1.11433,2.46931c0.78591,0.0866 0.29874,-1.5809 0.68442,-2.27112c1.56335,-2.79781 3.75449,-5.06529 7.01117,-5.59837c1.27957,-0.20945 2.62268,-0.62494 3.87814,-0.30093c0.71808,0.18533 0.76128,1.43049 1.46014,1.67865c0.80797,0.28691 2.99304,-1.38887 3.47817,-1.6135c2.25119,-1.04236 5.0758,-1.69421 7.53113,-0.89462c0.81736,0.26618 0.80707,1.57717 1.48032,2.11165c1.98197,1.57344 2.74417,0.96118 4.89146,0.54316c2.42854,-0.85656 4.70167,-1.88804 7.38503,-1.75021c3.30064,0.16953 4.71681,2.59696 7.04773,4.28628c0.2246,-0.09456 0.47138,-0.14683 0.73037,-0.14683c0.66422,0 1.24815,0.34378 1.58356,0.86313l0.26758,0.40138c1.04552,0.20455 2.13932,0.29867 3.0702,0.787c2.51583,1.31979 5.91825,5.6709 6.69752,8.58995c0.37646,1.4102 -0.20546,3.10201 0.03866,4.5209c0.4596,2.67125 3.49963,6.09339 2.39881,8.8986c-0.29573,0.7536 -0.73392,1.44133 -1.2381,2.08629zM352.52275,140.47461c0.00849,0.01026 0.01142,0.00865 0.00743,-0.00872c-0.00247,0.00292 -0.00495,0.00582 -0.00743,0.00872z" fill="#29241d" stroke="none" stroke-width="0.5" stroke-linecap="butt"/><path d="M308.56129,198.01334c0.16905,-1.32035 0.31732,-2.61102 0.37858,-3.77692c0.02564,-0.48784 -1.44854,-0.21155 -1.40795,-0.67387c0.40467,-4.60998 1.41322,-10.99197 1.30684,-13.83228c-0.21043,-5.61847 -1.07237,-15.99266 -1.07237,-15.99266l7.34652,1.3186" fill="none" stroke="#000000" stroke-width="3" stroke-linecap="round"/><path d="M314.3902,249.36508l-0.34625,-0.51467" fill="none" stroke="#000000" stroke-width="3" stroke-linecap="round"/><path d="M316.31112,248.47013l-4.49714,-33.45357l1.3085,-2.53945" fill="none" stroke="#000000" stroke-width="3" stroke-linecap="round"/><path d="M312.87228,213.9923l0.04372,-0.08485l13.31624,0.12559" fill="none" stroke="#000000" stroke-width="3" stroke-linecap="round"/><path d="M322.61641,165.43294l-3.76745,3.13954l-3.17093,-4.83489l-0.56511,-3.57907" fill="none" stroke="#000000" stroke-width="3" stroke-linecap="round"/><path d="M332.44318,162.419l-8.66513,2.26046l0.56512,-4.52093" fill="none" stroke="#000000" stroke-width="3" stroke-linecap="round"/><path d="M313.04082,212.52605l0.75349,-47.09311" fill="none" stroke="#000000" stroke-width="3" stroke-linecap="round"/><path d="M324.97108,165.99808l0.92143,46.62418" fill="none" stroke="#000000" stroke-width="3" stroke-linecap="round"/><path d="M325.90244,213.12504l0.0105,0.53126l0.35784,0.61472" fill="none" stroke="#000000" stroke-width="3" stroke-linecap="round"/><path d="M327.04632,212.74436l1.19695,2.05618l-0.57079,33.23906" fill="none" stroke="#000000" stroke-width="3" stroke-linecap="round"/><path d="M322.41332,244.85861l0.9361,1.22239l10.03546,-3.31328l3.0815,4.28802l-13.21903,7.36326" fill="none" stroke="#000000" stroke-width="3" stroke-linecap="round"/><path d="M329.66042,195.83652c0.16517,-1.37929 0.34321,-2.85557 0.47238,-4.55744c0.47731,-6.28876 -1.40055,-12.56035 -1.36566,-15.67721c0.04442,-3.96855 2.5458,-12.05263 2.5458,-12.05263" fill="none" stroke="#000000" stroke-width="3" stroke-linecap="round"/><path d="M308.33151,198.5865l3.57907,8.66513" fill="none" stroke="#000000" stroke-width="3" stroke-linecap="round"/><path d="M325.44201,206.62373l4.7721,-10.54886" fill="none" stroke="#000000" stroke-width="3" stroke-linecap="round"/><path d="M320.23037,214.2842l0.00417,0.14471" fill="none" stroke="#000000" stroke-width="3" stroke-linecap="round"/><path d="M320.74896,212.92932l1.02277,35.49039" fill="none" stroke="#000000" stroke-width="3" stroke-linecap="round"/><path d="M321.78619,248.92122l0.08882,3.08225" fill="none" stroke="#000000" stroke-width="3" stroke-linecap="round"/><path d="M322.03754,252.62427l-9.05122,7.79771l-3.97264,-2.94057l4.64531,-7.89539" fill="none" stroke="#000000" stroke-width="3" stroke-linecap="round"/><path d="M312.06828,253.17237l2.6926,0.63142" fill="none" stroke="#000000" stroke-width="3" stroke-linecap="round"/><path d="M313.01049,255.64829l-2.30061,-0.40478" fill="none" stroke="#000000" stroke-width="3" stroke-linecap="round"/><path d="M326.07072,247.28835l1.42443,-3.05383" fill="none" stroke="#000000" stroke-width="3" stroke-linecap="round"/><path d="M330.22618,243.02956l-0.44066,2.2733" fill="none" stroke="#000000" stroke-width="3" stroke-linecap="round"/><path d="M308.31251,190.37501l4,-5.125" fill="none" stroke="#000000" stroke-width="3" stroke-linecap="round"/><path d="M325.06251,186.50001l4.5,1.875" fill="none" stroke="#000000" stroke-width="3" stroke-linecap="round"/><path d="M323.32572,187.64515c-0.24514,1.22573 -1.47087,0.98058 -1.47087,0.98058l-1.94071,-1.03044c-0.25972,-0.80875 -0.02309,-4.32512 -0.50226,-4.75173c-0.70049,-0.62366 -1.93535,1.415 -1.86188,1.95645c0,0 0,1.25 -1.25,1.25c-1.25,0 -1.25,-1.25 -1.25,-1.25c0.13326,-2.1795 2.88145,-5.96762 5.73811,-4.04355c1.88292,1.26821 0.87175,4.26104 1.49774,6.04826l0.05929,-0.63044c0,0 1.22572,0.24515 0.98058,1.47087z" fill="#cacaca" stroke="none" stroke-width="0.5" stroke-linecap="butt"/><path d="M323.41803,192.44099c0.55901,1.11803 -0.55902,1.67705 -0.55902,1.67705l-0.95902,0.33196c-0.64716,-0.04112 -1.36707,0.17757 -1.94148,-0.12337c-2.00872,-1.0524 -0.71054,-4.02029 -2.44502,-1.97756c0,0 -0.94907,0.81349 -1.76256,-0.13558c-0.81349,-0.94907 0.13558,-1.76256 0.13558,-1.76256c0.6748,-0.49552 1.19052,-1.41208 2.02438,-1.48655c0.92839,-0.08291 1.8997,0.43944 2.58125,1.07525c0.57842,0.53959 0.62487,2.02287 1.40785,1.91036l-0.15901,-0.06803c0,0 1.11803,-0.55901 1.67705,0.55902z" fill="#cacaca" stroke="none" stroke-width="0.5" stroke-linecap="butt"/><path d="M315.36364,220.63637l2.36364,-0.18182l0.81818,-5.27273l-4,-0.09091l1.45454,5.63636" fill="none" stroke="#000000" stroke-width="0.5" stroke-linecap="round"/><path d="M322.72728,219.81818l2.72727,0.18182l0.90909,-4.81818l-3.90909,0.36364z" fill="none" stroke="#000000" stroke-width="0.5" stroke-linecap="round"/></g></g></svg>