<svg version="1.1" xmlns="http://www.w3.org/2000/svg" xmlns:xlink="http://www.w3.org/1999/xlink" width="611" height="328" viewBox="0,0,611,328"><g transform="translate(-14.5,-16)"><g data-paper-data="{&quot;isPaintingLayer&quot;:true}" fill-rule="nonzero" stroke-linejoin="miter" stroke-miterlimit="10" stroke-dasharray="" stroke-dashoffset="0" style="mix-blend-mode: normal"><path d="M15.5,343v-326h609v326z" fill="#ffffff" stroke="#000000" stroke-width="2" stroke-linecap="butt"/><path d="" fill="#ffffff" stroke="#000000" stroke-width="2" stroke-linecap="butt"/><path d="M23.25,284.75v-248h590v248z" fill="#ffffff" stroke="#000000" stroke-width="2" stroke-linecap="butt"/><text transform="translate(23.25,306.75) scale(0.5,0.5)" font-size="40" xml:space="preserve" fill="#000000" fill-rule="nonzero" stroke="none" stroke-width="1" stroke-linecap="butt" stroke-linejoin="miter" stroke-miterlimit="10" stroke-dasharray="" stroke-dashoffset="0" font-family="Sans Serif" font-weight="normal" text-anchor="start" style="mix-blend-mode: normal"><tspan x="0" dy="0">Skibidi player</tspan></text><text transform="translate(26.25,322.44108) scale(0.28884,0.28884)" font-size="40" xml:space="preserve" fill="#000000" fill-rule="nonzero" stroke="none" stroke-width="1" stroke-linecap="butt" stroke-linejoin="miter" stroke-miterlimit="10" stroke-dasharray="" stroke-dashoffset="0" font-family="Sans Serif" font-weight="normal" text-anchor="start" style="mix-blend-mode: normal"><tspan x="0" dy="0">Jan 18 2025</tspan></text><text transform="translate(97.25,323.90654) scale(0.28972,0.31308)" font-size="40" xml:space="preserve" fill="#000000" fill-rule="nonzero" stroke="none" stroke-width="1" stroke-linecap="butt" stroke-linejoin="miter" stroke-miterlimit="10" stroke-dasharray="" stroke-dashoffset="0" font-family="Sans Serif" font-weight="normal" text-anchor="start" style="mix-blend-mode: normal"><tspan x="0" dy="0">999D views</tspan></text><text transform="translate(25.25,337.33921) scale(0.27558,0.27558)" font-size="40" xml:space="preserve" fill="#000000" fill-rule="nonzero" stroke="none" stroke-width="1" stroke-linecap="butt" stroke-linejoin="miter" stroke-miterlimit="10" stroke-dasharray="" stroke-dashoffset="0" font-family="Sans Serif" font-weight="normal" text-anchor="start" style="mix-blend-mode: normal"><tspan x="0" dy="0">RandomLifeGameBrainrot TV Entertainment</tspan></text><path d="M312.37171,157.70724l-0.09661,0.15181l-0.03904,0.17565l-0.33333,0.66667l-0.14789,0.17253l-0.08818,0.20944l-0.5,0.66666l-0.13966,0.11347l-0.09258,0.15429l-0.84367,0.84367c0.23973,-0.03696 0.47852,-0.0764 0.71617,-0.11865c2.99417,-0.53238 5.95839,-1.49035 8.9323,-2.20635c0,-0.76243 0.00001,-1.52484 0.00001,-2.28726l-0.83545,0.01037c0,0 -1.3924,0 -1.3924,-1.3924c0,-1.3924 1.3924,-1.3924 1.3924,-1.3924l0.83546,0.00794c0.00007,-11.80962 0.00023,-23.61924 -0.00013,-35.42884c-0.00054,-6.12485 -0.33218,-12.13986 -1.1039,-18.15976c-0.22829,-1.78079 -0.9366,-3.47959 -1.14666,-5.26262c-0.33951,-2.8819 -0.31051,-4.98535 -1.52586,-7.69987c-1.1202,-2.50201 -2.89098,-5.30381 -5.4681,-6.56006c-0.52773,-0.25724 -1.14577,-0.2944 -1.67087,-0.55696c-1.88284,-0.94142 -2.22801,-1.55624 -4.36132,-1.52985c-6.26191,0.33734 -10.80998,3.26682 -15.40654,7.29055c-2.37563,2.07958 -5.05982,4.20896 -7.11783,6.5998c-4.17008,4.84452 -7.13052,10.51541 -9.80163,16.28818c0.13501,0.06875 0.27271,0.16793 0.41042,0.30564c0.98457,0.98457 0,1.96914 0,1.96914l-1.54153,0.96479c-0.11361,0 -0.22723,0 -0.34085,0c-0.40388,0.90039 -0.80491,1.79998 -1.20656,2.69602c-1.78639,6.74358 -3.00824,13.4195 -4.17606,20.29637c-0.91866,5.4096 -2.03502,10.89321 -2.35453,16.38179c-0.18986,3.26153 0.1107,6.49396 0.43533,9.72987c3.08986,0.1542 6.19489,0.54831 9.2343,0.76979v-0.00001c5.51382,0.40179 11.07407,0.24521 16.60143,0.24964c1.75248,0.00141 3.50693,0.02687 5.26079,0.03282l-0.22627,-0.18856l-0.0682,-0.09332l-0.09911,-0.05947l-1.5,-1.5l-0.15834,-0.2639l-0.21762,-0.21762l-0.5,-0.83334l-0.08016,-0.26339l-0.14781,-0.23228l-0.16667,-0.5l-0.01212,-0.15751l-0.06763,-0.14277l-0.13614,-0.68071l-0.11745,-0.35234l-0.00752,-0.09774l-0.04613,-0.08649l-0.16667,-0.66666v-0.30777l-0.07464,-0.29857v-3.87542l-0.00303,-0.00401l0.00303,-0.01878v-0.26845l0.12202,-0.4881l0.08012,-0.4967l0.10575,-0.24675l0.00461,-0.01845l0.00436,-0.0025l0.38528,-0.89897l0.20472,-0.26937l0.03983,-0.08691l-0.61339,-1.59481l-0.03719,-0.30283l-0.11014,-0.28454l-0.16667,-1.33333l0.15505,-1.27911l2.01556,-1.51167l2.32565,0.96903l0.46513,1.20158l0.05831,0.46649c0.13752,0.05121 0.26932,0.11418 0.39417,0.18769c0.07687,-0.00712 0.15476,-0.01076 0.23349,-0.01076c0.21643,0 0.42642,0.0275 0.6267,0.0792l0.03621,-0.00988l0.06266,0.03759c0.39862,0.1207 0.75514,0.33827 1.04219,0.62532v0l1.02036,1.02036l0.88308,0.63077l1.23771,0.68762l1.33131,0.53252l1.17016,0.26004l1.36568,0.15174l0.01652,0.00614l0.01749,-0.00212l1.31635,0.16455l2.96933,0.32993l1.653,0.1653l0.01331,0.00477l0.01401,-0.0019l1.36238,0.15138h2.36154l0.29858,0.07464h0.38356l0.12084,0.1261l0.44702,0.11176l0.50204,0.87857l0.67332,0.70259l-0.08967,0.3188l0.16431,0.28754l-0.48281,0.84491l-0.27397,0.9741l-0.40657,0.21684l-0.08666,0.15165l-0.3721,0.09302l-0.27156,0.14483l-0.40043,0.1001l-0.0849,0.04245l-0.01991,0.03319l-0.70771,0.7077l-0.39339,0.52453l-0.13966,0.11347l-0.09258,0.1543l-0.58648,0.58648l-0.55134,0.66161zM297.45838,155.1216l0.31543,1.41941l-0.00258,0.09799l0.03698,0.09078l0.07659,0.53616l0.54126,0.54125l0.66452,0.44302l0.228,0.114l0.437,0.0874l0.92209,0.13173h3.14466l0.48985,-0.06998l0.33357,-0.27797l1.88657,-1.88657l-1.42781,-0.3295l-0.06752,-0.03445l-0.07574,-0.00312l-2.83333,-0.83333l-0.0395,-0.02319l-0.04566,-0.00351l-3,-1l-0.11877,-0.07558l-0.13831,-0.02623l-1.61121,-0.74364zM304.95291,164.22707l-0.40929,0.12457l-0.38666,0.18315l-0.83333,0.16666l-0.24872,-0.01184l-0.24157,0.06039h-3l-0.33829,-0.08458l-0.34851,-0.01162l-0.2287,-0.06534c-3.23672,0.10276 -6.48112,0.02522 -9.72171,0.02262c-5.59462,-0.00449 -11.22011,0.14814 -16.80119,-0.25698c-0.99959,-0.07256 -2.01426,-0.16986 -3.03819,-0.27321c-0.40214,0.53303 -1.13624,0.53303 -1.13624,0.53303h-1.11435c-3.18602,-0.00106 -6.29922,-0.07305 -9.44948,-0.46771c-0.19051,0.13919 -0.39164,0.26097 -0.59947,0.36172c-1.38916,0.67338 -3.4159,0.13634 -5.14328,0.04048c0.17502,2.21232 0.50845,4.41264 0.82136,6.61792c0.23023,0.2884 0.39718,0.49481 0.45821,0.5637c1.21555,1.37203 2.56823,2.61616 3.85162,3.92494c4.4423,4.53018 8.43415,9.62068 13.21139,13.81424c2.73949,2.40478 5.85261,4.39429 8.86045,6.43612c7.13529,4.77151 14.6298,8.66474 22.08409,12.88399c8.11029,4.59055 16.48596,9.14153 25.71915,10.97979c2.5186,0.50379 5.17901,1.40498 7.73005,1.66293c3.3992,0.34371 7.00377,0.55 10.43059,0.54868c1.37864,-0.00054 2.81908,0.44592 4.13577,0.03725c4.79152,-1.48716 8.76601,-4.96286 11.93984,-8.67349c0.12117,-0.14167 0.24261,-0.28091 0.3634,-0.41898c-0.01109,-0.43596 -0.00871,-4.71025 -0.00871,-5.14723c0,-2.13943 0.19873,-4.22267 0.35874,-6.31027c-0.17482,-0.2055 -0.72389,-0.96353 -0.09314,-1.75607c-0.33481,-0.52896 -0.73594,-1.03236 -0.7853,-1.63902c-0.08903,-1.09414 -0.2838,-2.72764 0.69814,-3.21842c0.12185,-0.0609 0.24723,-0.10145 0.37527,-0.12407c0,-0.00396 -0.00001,-0.00792 -0.00001,-0.01188c-0.64995,-0.63344 -1.2991,-1.26174 -1.59615,-2.09482c-0.23789,-0.6672 -0.24596,-1.88573 0.11902,-2.90598c-0.65891,-1.14982 -1.28541,-2.32288 -2.11557,-3.351c-1.65987,-2.05569 -3.89351,-3.88085 -5.76278,-5.75012c-7.38419,-7.38419 -16.02338,-13.26174 -24.05938,-19.90139h-0.83485c-1.49486,0 -3.32241,-0.27131 -4.79346,-0.01736c-0.16593,0.02865 -0.33182,0.05862 -0.49765,0.0898c0,0.43998 0,0.87997 0,1.31995v1.11392c0,0 0,1.3924 -1.3924,1.3924c-1.3924,0 -1.3924,-1.3924 -1.3924,-1.3924c0,-0.23354 0,-1.58101 0,-1.81455c-2.80878,0.70143 -5.61338,1.57417 -8.4448,2.0776c-2.04152,0.36299 -4.16265,0.5279 -6.25767,0.69218zM374.63668,207.50106c0.22082,0.0119 1.3554,0.13421 1.3554,1.39111c0,1.3924 -1.39239,1.3924 -1.39239,1.3924l-1.54154,-0.40783c-0.10827,-0.10913 -0.21382,-0.21996 -0.31698,-0.33228c0.41787,2.61596 0.55185,5.25081 -0.1354,8.06089c-0.34493,1.71736 -0.76165,5.11925 -1.91216,6.61293c-0.44495,0.57766 -1.27797,0.737 -1.79285,1.25331c-1.07581,1.0788 -1.72049,2.59421 -2.95522,3.48676c-1.96493,1.42039 -5.45229,3.01949 -7.79131,3.57946c-2.21919,0.53128 -5.23428,0.02513 -7.50378,0.02513c-7.74977,0 -15.08138,-1.00367 -22.70821,-2.28521c-7.28294,-1.4157 -15.08575,-1.20385 -22.13103,-3.80897c-4.34425,-1.60637 -8.37598,-4.04639 -12.68689,-5.78122c-3.03336,-1.22071 -5.94831,-3.08733 -8.52085,-5.14897c-0.00209,-0.00167 -0.00615,-0.00533 -0.01207,-0.01085c0.01529,0.14514 0.03148,0.2901 0.04896,0.43481c0.16001,1.3243 0.88349,2.53063 1.10637,3.8458c0.09306,0.54913 -0.0886,1.12101 0,1.67087c0.4934,3.0619 2.43326,5.83419 2.79235,8.96426c0.46864,4.08495 0.31849,8.3049 1.16559,12.37436c0.94002,4.51583 2.86336,8.85279 4.20648,13.24081c1.24405,1.26452 2.90871,2.48218 1.58393,4.93068c-0.44795,0.82791 -1.83722,0.43105 -2.77274,0.5355c-1.53148,0.17098 -3.05519,-0.40996 -4.58851,-0.56372c-1.8273,-0.18325 -3.67519,0.09592 -5.50939,0.00464c-5.71416,-0.28436 -11.46193,-1.11404 -17.18874,-1.11178c-1.67088,0.00065 -3.34643,0.12491 -5.01263,0c-1.07638,-0.08069 -2.38841,0.28941 -3.21241,-0.40782c-0.68363,-0.57846 -0.32378,-1.76388 -0.40783,-2.65546c-0.1486,-1.57645 -0.00058,-3.25801 0.01043,-4.8425c-0.70589,-2.82353 -0.06848,-5.51864 -0.54941,-8.30147c-0.20497,-1.18604 -0.56887,-2.36119 -0.57494,-3.56479c-0.00757,-1.50094 0.2689,-3.3121 0.01797,-4.78959c-0.91938,-5.41335 -3.30666,-10.73831 -3.90989,-16.23746c-0.1854,-1.69017 0.15953,-3.40993 -0.01864,-5.10088c-0.19413,-1.84252 -0.58211,-3.66956 -0.63769,-5.52145c-0.62151,-3.7417 -0.46439,-7.44967 -0.46439,-11.23647c0,-6.11604 0.08429,-12.23885 0.00023,-18.35434c-0.03006,-2.18669 -0.27121,-4.34823 -0.56143,-6.50218c-0.78044,-1.0434 -1.5093,-2.13068 -2.42621,-3.05219c-0.71132,-0.7149 -1.71675,-1.12849 -2.33195,-1.92763c-0.4642,-0.60299 -1.16174,-3.71522 -1.32259,-4.35742c0,0 -0.3377,-1.35082 1.01312,-1.68852c0.02089,-0.00522 0.04154,-0.01004 0.06195,-0.01447c0.00271,-0.10371 0.00229,-0.2058 -0.00272,-0.30559c-0.09315,-1.8542 0,-3.71305 0,-5.56959c0,-9.79908 0.36614,-19.6836 -0.0929,-29.47285c-0.16732,-3.56835 -0.46406,-7.04846 -0.46406,-10.6282c0,-0.34535 -0.00785,-2.78589 0.01037,-4.4423c-0.34251,-0.22582 -0.69102,-0.64667 -0.54029,-1.40036c0.1559,-0.77948 0.66779,-1.02496 1.0784,-1.0921c0.2598,-0.36222 0.5639,-0.70531 0.79928,-1.07807c0,0 0.77236,-1.15855 1.93091,-0.38618c0.96654,0.64436 0.58916,1.55751 0.43752,1.84248c2.27402,0.213 4.53436,0.15606 6.86603,0.15174c0,-0.83552 0,-1.67104 0,-2.50656v-1.67088c0,-0.769 0.62339,-1.3924 1.39239,-1.3924c0.3845,0 0.7326,0.15586 0.98457,0.40783l1.11392,1.11391l-0.01578,0.01578c0.0364,0.02809 0.07241,0.05676 0.10801,0.08603c0.43639,0.35878 0.46218,1.06937 0.8823,1.44709c0.26965,0.24245 0.69916,0.19272 1.04874,0.28909l2.0048,-0.01798c0,0 1.3924,0 1.3924,1.3924c0,0.36665 -0.09655,0.63675 -0.23879,0.83573c1.68707,-0.00008 3.37413,-0.00019 5.0612,-0.00026c2.97474,-6.56327 6.23362,-13.06691 10.96175,-18.55974c2.14319,-2.48981 4.91992,-4.7144 7.3946,-6.87883c5.11185,-4.471 10.22796,-7.5661 17.16121,-7.97845c2.52065,0.02271 3.50185,0.73085 5.66395,1.8119c1.20943,0.60471 2.55165,1.00676 3.61277,1.84489c2.8924,2.28459 4.94578,5.90452 5.94564,9.40525c0.52934,1.85336 0.42819,3.8311 0.64899,5.74587c0.20531,1.78047 0.9138,3.47614 1.14556,5.25337c0.43038,3.30012 0.7752,6.67049 1.10602,9.99765c0.27445,2.76024 0.01746,5.71874 0.01771,8.4937c0.00036,12.00935 0.0002,24.01868 0.00013,36.02803c2.6788,0.97078 5.08266,2.15065 7.38489,4.05954c2.01232,1.67697 3.95592,3.48018 6.01105,5.1025c4.89462,3.86379 10.21459,7.23126 14.81779,11.46471c2.04199,1.87797 3.94798,3.94626 5.90988,5.90816c0.16854,0.16853 3.93497,3.93106 4.0038,4.01645c0.83443,1.03516 1.4848,2.20193 2.14968,3.35788c0.13445,0.00591 0.27516,0.02308 0.42232,0.05253c1.25948,0.25202 1.61259,1.83568 1.68337,3.41752c0.74347,1.21292 1.51317,2.47547 1.54216,2.54925c0.04456,0.11341 0.40692,1.9149 0.71918,3.48799c0.29937,0.51955 0.599,1.04023 0.91042,1.55208c-0.16838,-2.56479 -0.11659,-4.8828 -1.40779,-7.35812l-0.147,-1.73662c0,0 -0.00001,-1.39239 1.39239,-1.39239c1.3924,0 1.3924,1.39239 1.3924,1.39239l-0.147,0.49122c0.99236,2.05227 1.4434,3.76773 1.79989,5.96926c0.22183,1.36993 -0.12886,2.78785 0.05855,4.16292c0.12961,0.95094 0.29686,1.88343 0.48006,2.80377c1.08907,1.34925 1.9595,2.83405 3.1366,4.11834zM370.14402,211.95545c-0.66264,0 -1.21717,-0.46288 -1.35789,-1.08295l-0.4793,-1.91717c-0.42759,-0.41319 -0.83219,-0.8427 -1.22193,-1.28292c-0.21024,1.14264 -0.49937,2.24115 -0.89598,3.24051c-0.23329,0.58783 -0.49262,1.08929 -0.77689,1.5457c-0.00952,0.37328 -0.01665,0.74424 -0.02014,1.11226l-0.13329,0.19067l0.07981,0.0266l-0.54681,1.64042c-0.17498,0.56896 -0.70475,0.98254 -1.3311,0.98254c-0.37056,0 -0.70731,-0.14476 -0.95679,-0.3808c-2.90519,3.21104 -5.87351,5.38407 -9.85369,7.34279c-0.92862,0.45699 -1.79984,1.06593 -2.79359,1.35514c-1.52849,0.44484 -3.18367,0.03785 -4.77558,0.03725c-3.52055,-0.00133 -7.24067,-0.20145 -10.73384,-0.56524c-2.63617,-0.27454 -5.36979,-1.1799 -7.97296,-1.70046c-9.52236,-1.91263 -18.1569,-6.53608 -26.52686,-11.27695c-7.52224,-4.26072 -15.08458,-8.19204 -22.2863,-13.00805c-3.10908,-2.11053 -6.3175,-4.17271 -9.14858,-6.65898c-4.82798,-4.23995 -8.86505,-9.37254 -13.35546,-13.95102c-0.02962,-0.0302 -0.86253,-0.87933 -1.75565,-1.7902c0.08738,0.98832 0.14585,1.97996 0.15965,2.97644c0.08489,6.13234 0.00023,12.27207 0.00023,18.40497c0,3.69824 -0.15959,7.3136 0.45125,10.96612c0.05289,1.84597 0.44694,3.66652 0.63588,5.50355c0.17441,1.69585 -0.16049,3.41914 0.02,5.11435c0.15314,1.43829 0.67022,2.81505 1.06592,4.20629c0.76271,2.68164 1.33881,5.30906 1.71525,8.01407c0.18386,1.32119 0.89028,2.5295 1.10637,3.84581c0.35629,2.17041 -0.3729,4.52579 0,6.68351c0.09998,0.57852 0.46348,1.09128 0.55696,1.67087c0.45997,2.85199 -0.15176,5.54224 0.5645,8.4073c0.00664,1.17061 0.01043,2.34124 0.01043,3.51188c0,0.55696 0.09495,1.12207 0,1.67088c-0.04537,0.26222 -0.66028,0.60215 -0.40782,0.6863c0.41377,0.13792 0.81009,-0.35693 1.24326,-0.40782c1.65947,-0.19497 3.34175,-0.00064 5.01263,0c2.45454,0.00094 4.83793,0.43334 7.28257,0.55595c2.67796,0.1343 5.21395,0.01948 7.89206,0.31706c2.60733,0.28972 5.20333,-0.00611 7.7979,0.24769c0.9253,0.09051 1.81279,0.42919 2.73506,0.54658c0.52503,0.06682 1.07431,-0.12473 1.58777,0.00361c0.25268,0.06316 0.71598,0.75052 0.56902,0.53549c-0.46689,-0.68317 -1.16765,-1.17284 -1.75783,-1.75283c-1.62849,-4.60791 -3.56348,-9.33114 -4.56394,-14.13735c-0.86255,-4.14372 -0.75744,-8.43728 -1.20317,-12.60162c-0.32897,-3.07343 -2.25917,-5.83788 -2.77724,-8.85844c-0.09416,-0.54895 0.0899,-1.12122 0,-1.67087c-0.22102,-1.35127 -0.94657,-2.59361 -1.12147,-3.95163c-0.18109,-1.40615 -0.16075,-2.84859 -0.50841,-4.22289l-0.53421,-1.60264c-0.05291,-0.14715 -0.08174,-0.30579 -0.08174,-0.47115c0,-0.769 0.6234,-1.39239 1.3924,-1.39239c0.55585,0 1.03562,0.3257 1.25889,0.79668l1.01565,2.03129c2.2518,2.13796 4.61023,4.17956 7.31898,5.70497c2.36071,1.32941 5.23032,1.88908 7.6769,3.06116c2.45173,1.17455 4.80028,2.69614 7.36451,3.64989c6.86012,2.55158 14.55184,2.31709 21.6575,3.67953c7.46404,1.2542 14.62937,2.24093 22.21354,2.24093c2.06321,0 4.97055,0.52207 6.97716,0.02513c2.04235,-0.5058 4.96558,-1.89132 6.68963,-3.10405c1.12591,-0.79199 1.63961,-2.22477 2.61437,-3.19676c0.43194,-0.43071 1.15542,-0.50841 1.5489,-0.97452c0.28202,-0.33406 0.21445,-0.84803 0.34256,-1.26602c0.42949,-1.40133 0.77918,-2.82854 1.0654,-4.266c0.43749,-1.72513 0.51729,-3.39739 0.39727,-5.0476c-0.0466,0.00471 -0.09388,0.00712 -0.14173,0.00712zM249.00542,161.55065c0,0 -0.00001,-1.3924 1.39239,-1.3924c1.3924,0 1.3924,1.3924 1.3924,1.3924c-0.00017,0.09526 0.0001,0.19048 0.00079,0.28567c0.09242,-0.00436 0.18498,-0.00683 0.27769,-0.00719c0.306,-0.00117 0.61203,-0.0043 0.91808,-0.00707c1.1268,-0.35398 2.26925,-0.60449 3.42284,-0.77445c0.05369,-1.09246 -0.26583,-2.2032 -0.33473,-3.3034c-0.1737,-2.77373 -0.34655,-5.54585 -0.5568,-8.31709c-0.48216,-6.35491 -0.38611,-12.69454 -0.38611,-19.06618c0,-6.21933 0,-12.43865 0,-18.65798c-2.67729,0.00314 -5.25442,0.05116 -7.86676,-0.25039c-0.1161,1.20552 0.06932,2.47408 0.06932,3.87048c0,2.59066 0.01113,5.0899 0.22646,7.67218c0.89411,10.72265 0.3305,21.67153 0.3305,32.42888c0,1.85654 0.13142,3.71772 0,5.56959c-0.03308,0.46626 -0.52366,0.96332 -0.2949,1.37094c0.17572,0.31311 0.72488,0.09314 1.0769,0.02248c0.114,-0.02289 0.22801,-0.04682 0.34203,-0.07136c-0.00623,-0.25475 -0.00969,-0.50978 -0.01011,-0.76511zM248.78037,165.16986c-0.50416,-0.04998 -1.05257,-0.09434 -1.57629,-0.19842c0.09941,0.28935 0.23712,0.55873 0.43717,0.79543c0.47217,0.5587 1.18293,0.86259 1.75517,1.31945c-0.07915,-0.64863 -0.15077,-1.29786 -0.21046,-1.94819c-0.13276,0.03143 -0.26749,0.04542 -0.4056,0.03173zM322.58333,157.94777c0.54163,-0.08972 1.12043,-0.12152 1.71258,-0.12405c-0.57714,-0.28067 -1.16697,-0.53723 -1.77188,-0.7796c0,0.30451 0,0.60903 0,0.91354c0.01977,-0.00331 0.03954,-0.00661 0.0593,-0.00988zM260.14722,150.91516c0.32551,-5.59158 1.45322,-11.17504 2.38912,-16.68619c1.19477,-7.03548 2.44641,-13.86423 4.29633,-20.75928c0.26128,-0.58786 0.52263,-1.17701 0.78493,-1.76677c-3.23361,0.00016 -6.46722,0.00043 -9.70084,0.00019c0,6.21928 0,12.43856 0,18.65784c0,7.25637 0.0888,14.40437 0.58947,21.64158c0.19213,2.77723 0.48511,5.60756 0.52378,8.39076c0.00181,0.13043 0.00962,0.26301 0.01957,0.39663c0.5016,-0.02625 1.00462,-0.04086 1.5087,-0.04565c-0.32353,-3.26874 -0.60286,-6.53424 -0.41105,-9.8291zM257.91676,108.55379c0,0.1215 0,0.24301 0,0.36451c0.26034,0.00002 0.52069,0.00003 0.78102,0.00005c-0.26704,-0.10849 -0.5335,-0.22917 -0.78102,-0.36456z" fill="#000000" stroke="none" stroke-width="0.5" stroke-linecap="butt"/><path d="M263.34688,160.82982c-0.32464,-3.23591 -0.62824,-6.47076 -0.43838,-9.73229c0.3195,-5.48858 1.43039,-10.97908 2.34904,-16.38869c1.16783,-6.87687 2.387,-13.57343 4.17338,-20.31701c0.40166,-0.89605 0.80383,-1.79909 1.20771,-2.69948c0.11361,0 0.2273,-0.00015 0.34091,-0.00015l1.54235,-0.96658c0,0 0.98565,-0.98654 0.00108,-1.97111c-0.1377,-0.13771 -0.27538,-0.23695 -0.41039,-0.3057c2.67111,-5.77277 5.6465,-11.45563 9.81659,-16.30014c2.058,-2.39084 4.74925,-4.52162 7.12488,-6.6012c4.59656,-4.02373 9.15481,-6.95199 15.41672,-7.28933c2.13331,-0.02639 2.48122,0.58946 4.36406,1.53088c0.5251,0.26256 1.14415,0.30018 1.67188,0.55743c2.57713,1.25625 4.3524,4.06078 5.47261,6.56278c1.21535,2.71452 1.18969,4.8209 1.5292,7.7028c0.21006,1.78303 0.9208,3.48469 1.14909,5.26548c0.77173,6.0199 1.10873,12.04948 1.10927,18.17434c0.00036,11.80961 -0.00953,23.6424 -0.0096,35.45202l-0.83578,-0.00767c0,0 -1.39338,0.00077 -1.39338,1.39317c0,1.3924 1.35876,1.34802 1.35876,1.34802l0.86955,0.03366c0,0.76243 -0.00066,1.52535 -0.00067,2.28777c-2.97391,0.716 -5.94265,1.67669 -8.93681,2.20907c-2.67311,0.47529 -5.49473,0.59608 -8.19718,0.8417c-4.45633,0.40749 -8.9514,0.24811 -13.42484,0.24452c-5.52735,-0.00444 -11.09764,0.14972 -16.61146,-0.25207c-3.0394,-0.22148 -6.14876,-0.61802 -9.23861,-0.77222z" data-paper-data="{&quot;noHover&quot;:false,&quot;origItem&quot;:[&quot;Path&quot;,{&quot;applyMatrix&quot;:true,&quot;segments&quot;:[[[247.35772,172.04668],[-5.45713,-0.39766],[9.89987,0.72141]],[[277.16498,172.49492],[-9.92417,-0.00796],[8.0319,0.00645]],[[301.25313,172.05759],[-8.00118,0.73163],[4.85215,-0.441]],[[315.96239,170.5495],[-4.79948,0.85336],[5.37592,-0.95586]],[[332.00001,166.58808],[-5.33955,1.28556],[0,-1.36891]],[[332.00003,162.48138],[0,1.36891],[0,0]],[330.5,162.5],[[328,160],[0,2.5],[0,-2.5]],[330.5,157.5],[[332.00005,157.51424],[0,0],[0.00013,-21.20374]],[[331.99982,93.90303],[0.00065,21.20374],[-0.00097,-10.99696]],[[330.01781,61.29782],[1.3856,10.80852],[-0.40988,-3.19734]],[[327.95902,51.84898],[0.37715,3.20137],[-0.60958,-5.17435]],[[325.2194,38.02414],[2.18211,4.87381],[-2.01128,-4.49227]],[[315.40162,26.24579],[4.62714,2.25555],[-0.94752,-0.46187]],[[312.40162,25.24579],[0.94281,0.47141],[-3.38057,-1.69028]],[[304.57104,22.49899],[3.83027,-0.04737],[-11.24303,0.60568]],[[276.90915,35.58892],[8.25297,-7.22446],[-4.26536,3.7338]],[[264.12935,47.43864],[3.69507,-4.29268],[-7.48723,8.69815]],[[246.53087,76.68347],[4.79588,-10.3648],[0.24241,0.12344]],[[247.26777,77.23224],[-0.24724,-0.24725],[1.76776,1.76776]],[247.26777,80.76777],[[244.5,82.5],[0,0],[-0.20399,0]],[[243.88802,82.5],[0.20399,0],[-0.72514,1.61662]],[[241.72168,87.34061],[0.72116,-1.60882],[-3.2074,12.10786]],[[234.22371,123.78201],[2.0968,-12.34717],[-1.64942,9.71274]],[[229.99625,153.19492],[0.57366,-9.85455],[-0.34089,5.85595]],[[230.77787,170.66455],[-0.58288,-5.80996],[5.54772,0.27687]]],&quot;closed&quot;:true}]}" fill="#ffffff" stroke="none" stroke-width="0.5" stroke-linecap="butt"/><path d="M370.31346,211.94566c0.12002,1.65021 0.04035,3.32486 -0.39714,5.04999c-0.28622,1.43746 -0.63596,2.86674 -1.06545,4.26807c-0.12811,0.41798 -0.0606,0.93258 -0.34261,1.26664c-0.39348,0.46611 -1.11702,0.54436 -1.54896,0.97508c-0.97476,0.97198 -1.48871,2.40656 -2.61462,3.19855c-1.72405,1.21273 -4.64782,2.60067 -6.69016,3.10647c-2.0066,0.49695 -4.91429,-0.02395 -6.9775,-0.02395c-7.58418,0 -14.75218,-0.98075 -22.21623,-2.23495c-7.10566,-1.36245 -14.83866,-1.12054 -21.69878,-3.67212c-2.56423,-0.95375 -4.9226,-2.49128 -7.37434,-3.66583c-2.44657,-1.17208 -5.3168,-1.73812 -7.67751,-3.06753c-2.70875,-1.52541 -5.06652,-3.5725 -7.31831,-5.71046l-1.01524,-2.0329c-0.22327,-0.47097 -0.64961,-0.78095 -1.20546,-0.78095c-0.769,0 -1.392,0.62194 -1.392,1.39094c0,0.16537 0.02891,0.32362 0.08181,0.47078l0.53448,1.60136c0.34766,1.3743 0.32774,2.81298 0.50883,4.21912c0.17489,1.35801 0.90034,2.5966 1.12137,3.94787c0.0899,0.54966 -0.09434,1.12035 -0.00019,1.6693c0.51807,3.02055 2.44557,5.77657 2.77454,8.85c0.44574,4.16434 0.33509,8.45043 1.19765,12.59416c1.00046,4.80622 2.92875,9.52469 4.55723,14.1326c0.59019,0.57999 1.28963,1.06905 1.75652,1.75221c0.14696,0.21504 -0.33935,-0.42162 -0.59203,-0.48478c-0.51346,-0.12834 -1.06353,0.06284 -1.58855,-0.00399c-0.92228,-0.11739 -1.81117,-0.45684 -2.73647,-0.54735c-2.59456,-0.2538 -5.1937,0.03993 -7.80103,-0.24978c-2.67811,-0.29758 -5.21652,-0.18487 -7.89448,-0.31916c-2.44464,-0.1226 -4.82978,-0.55687 -7.28431,-0.55782c-1.67088,-0.00064 -3.35404,-0.19606 -5.01351,-0.00108c-0.43317,0.0509 -0.82961,0.5456 -1.24338,0.40767c-0.25245,-0.08415 0.36238,-0.42419 0.40774,-0.6864c0.09495,-0.54881 -0.00034,-1.11439 -0.00034,-1.67135c0,-1.17064 -0.00452,-2.34232 -0.01115,-3.51293c-0.71627,-2.86506 -0.10626,-5.55835 -0.56623,-8.41034c-0.09348,-0.5796 -0.45733,-1.09312 -0.55731,-1.67163c-0.3729,-2.15772 0.35521,-4.51593 -0.00109,-6.68634c-0.21609,-1.31631 -0.92305,-2.52652 -1.10691,-3.84771c-0.37643,-2.70502 -0.95321,-5.33644 -1.71593,-8.01808c-0.39569,-1.39123 -0.91289,-2.77008 -1.06603,-4.20837c-0.1805,-1.69521 0.15446,-3.42098 -0.01995,-5.11683c-0.18893,-1.83703 -0.5827,-3.66016 -0.63558,-5.50612c-0.61084,-3.65251 -0.45005,-7.27258 -0.45005,-10.97082c0,-6.1329 0.08776,-12.27887 0.00287,-18.4112c-0.01379,-0.99648 -0.07174,-1.98888 -0.15912,-2.9772c0.89312,0.91085 1.77147,1.79219 1.80109,1.8224c4.49042,4.57849 8.52859,9.70936 13.35657,13.94931c2.83108,2.48627 6.03985,4.54783 9.14894,6.65837c7.20172,4.81599 14.76443,8.74668 22.28667,13.00739c8.36995,4.74087 16.95351,9.34233 26.47587,11.25497c2.60317,0.52056 5.33644,1.42699 7.97261,1.70153c3.49317,0.36379 7.2128,0.56589 10.73334,0.56722c1.5919,0.0006 3.24694,0.40833 4.77543,-0.03651c0.99375,-0.28921 1.86476,-0.89693 2.79338,-1.35392c3.98018,-1.95872 6.94824,-4.12698 9.85343,-7.33801c0.24948,0.23604 0.58622,0.38057 0.95678,0.38057c0.62635,0 1.15613,-0.41308 1.33111,-0.98204l0.54685,-1.63958l-0.07981,-0.02659l0.1333,-0.19058c0.00349,-0.36802 0.01067,-0.73841 0.02019,-1.11169c0.28427,-0.45641 0.54368,-0.95714 0.77697,-1.54497c0.39661,-0.99936 0.68598,-2.09634 0.89621,-3.23898c0.38975,0.44022 0.84929,0.86062 1.27688,1.27381l0.47941,1.91812c0.14072,0.62007 0.69531,1.08353 1.35795,1.08353c0.04784,0 0.09512,-0.00242 0.14173,-0.00712z" data-paper-data="{&quot;noHover&quot;:false,&quot;origItem&quot;:[&quot;Path&quot;,{&quot;applyMatrix&quot;:true,&quot;segments&quot;:[[[422.5,262.5],[0.0859,0],[-1.18975,0]],[[420.06196,260.5556],[0.25265,1.1133],[0,0]],[[419.20141,257.11339],[0,0],[-0.76771,-0.74187]],[[417.00747,254.80995],[0.69977,0.7904],[-0.37747,2.05158]],[[415.39877,260.62818],[0.71209,-1.79431],[-0.41886,1.05542]],[[414.00388,263.40343],[0.51039,-0.81947],[-0.0171,0.6702]],[[413.96772,265.40046],[0.00627,-0.66077],[0,0]],[413.7284,265.7428],[413.87171,265.79057],[[412.88994,268.73588],[0,0],[-0.31417,1.02156]],[[410.5,270.5],[1.1246,0],[-0.66532,0]],[[408.78212,269.81629],[0.44793,0.42381],[-5.21617,5.76531]],[[391.09017,283],[7.14627,-3.51681],[-1.6673,0.82051]],[[386.07438,285.43312],[1.78424,-0.51927],[-2.74435,0.79869]],[[377.5,285.5],[2.85821,0.00108],[-6.32101,-0.00239]],[[358.22777,284.48514],[6.27186,0.65317],[-4.73315,-0.49293]],[[343.91262,281.43203],[4.6739,0.93464],[-17.09706,-3.43407]],[[296.28461,261.18468],[15.02794,8.51207],[-13.5059,-7.64996]],[[256.27036,237.8292],[12.93043,8.64695],[-5.58225,-3.78938]],[[239.84441,225.87324],[5.08311,4.464],[-8.66846,-7.61267]],[[215.86516,200.82469],[8.06239,8.22051],[-0.05318,-0.05422]],[[212.71296,197.61046],[1.60357,1.63541],[0.15688,1.77448]],[[212.99959,202.95454],[-0.02477,-1.78914],[0.15243,11.01039]],[[213,236],[0,-11.01141],[0,6.64005]],[[213.81019,255.68926],[-1.09673,-6.55796],[0.09495,3.31436]],[[214.95188,265.57069],[-0.33922,-3.29833],[0.31315,3.04484]],[[214.9878,274.75331],[-0.32408,-3.04369],[0.27496,2.58239]],[[216.90161,282.30555],[-0.71046,-2.49791],[1.36943,4.81478]],[[219.98127,296.69454],[-0.67587,-4.85676],[0.33011,2.37216]],[[221.96772,303.59954],[-0.38797,-2.36339],[0.63971,3.8969]],[[221.96772,315.59954],[-0.66953,-3.87411],[0.17951,1.0387]],[[222.96772,318.59954],[-0.16784,-1.04064],[0.82587,5.12065]],[[223.98127,333.69454],[-1.28603,-5.14412],[0.01191,2.10179]],[[224,340],[0,-2.10183],[0,1]],[[224,343],[0.17048,-0.98536],[-0.08145,0.4708]],[[223.26777,344.23223],[-0.45327,-0.15109],[0.7429,0.24763]],[[225.5,343.5],[-0.77774,0.09138],[2.97951,-0.35007]],[[234.5,343.5],[-3,-0.00115],[4.40703,0.00168]],[[247.57559,344.49818],[-4.38926,-0.22012],[4.80819,0.24113]],[[261.7455,345.06745],[-4.80846,-0.53429],[4.68136,0.52017]],[[275.74634,345.51217],[-4.65845,-0.45568],[1.66134,0.16251]],[[280.65705,346.49353],[-1.65591,-0.21076],[0.94266,0.11998]],[[283.50784,346.50001],[-0.9219,-0.23043],[0.45368,0.1134]],[[284.52949,347.46147],[0.26386,0.38609],[-0.83828,-1.22661]],[[281.37337,344.31433],[1.05966,1.04135],[-2.92389,-8.27334]],[[273.17899,318.93122],[1.79629,8.62939],[-1.54869,-7.43991]],[[271.01873,296.30546],[0.8003,7.47693],[-0.59065,-5.51823]],[[266.03228,280.40046],[0.93018,5.42329],[-0.16905,-0.98561]],[[266.03228,277.40046],[0.16142,0.98689],[-0.39684,-2.42615]],[[264.01873,270.30546],[0.31401,2.43826],[-0.32514,-2.52468]],[[263.1059,262.72341],[0.62421,2.46751],[0,0]],[[262.14675,259.84593],[0,0],[-0.09499,-0.2642]],[[262,259],[0,0.29691],[0,-1.38071]],[[264.5,256.5],[-1.38071,0],[0.99801,0]],[[266.76029,257.93041],[-0.40086,-0.84561],[0,0]],[[268.58385,261.57752],[0,0],[4.04302,3.83863]],[[281.72481,271.82059],[-4.86346,-2.73881],[4.23857,2.38691]],[[295.50842,277.31678],[-4.39274,-2.10443],[4.40199,2.10886]],[[308.73113,283.87003],[-4.60398,-1.71242],[12.3171,4.58127]],[[347.61638,290.4765],[-12.75795,-2.44622],[13.40142,2.25186]],[[387.5,294.5],[-13.61711,0],[3.70442,0]],[[400.02723,294.54511],[-3.60279,0.89226],[3.66696,-0.90815]],[[412.03822,288.97189],[-3.09547,2.17741],[2.02153,-1.42198]],[[416.73223,283.23223],[-1.75014,1.74516],[0.77554,-0.77333]],[[419.51323,281.48252],[-0.70649,0.83688],[0.50635,-0.59979]],[[420.12829,279.20943],[-0.23002,0.75048],[0.77114,-2.51604]],[[422.04118,271.54999],[-0.5139,2.5809],[0.7855,-3.09742]],[[422.75446,262.48721],[0.21549,2.96289],[-0.08367,0.00846]]],&quot;closed&quot;:true}]}" fill="#ffffff" stroke="none" stroke-width="0.5" stroke-linecap="butt"/><path d="M260.56077,160.71652c-0.5041,0.00479 -1.01378,0.07467 -1.51537,0.10092c-0.00995,-0.13361 -0.01784,-0.26621 -0.01966,-0.39664c-0.03866,-2.78321 -0.33466,-5.61417 -0.52679,-8.3914c-0.50066,-7.23721 -0.59991,-14.43358 -0.59991,-21.68995c0,-6.21928 0.01232,-12.44439 0.01232,-18.66367c3.23361,0.00024 6.47802,-0.00005 9.71164,-0.0002c-0.2623,0.58976 -0.53394,1.23364 -0.79522,1.8215c-1.84992,6.89505 -3.09351,13.72407 -4.28827,20.75955c-0.93591,5.51115 -2.0619,11.03954 -2.3874,16.6311c-0.1918,3.29486 0.08513,6.56004 0.40866,9.82878z" data-paper-data="{&quot;noHover&quot;:false,&quot;origItem&quot;:[&quot;Path&quot;,{&quot;applyMatrix&quot;:true,&quot;segments&quot;:[[[450.00939,305.80869],[-0.68875,11.8316],[1.16885,-20.07893]],[[458.58857,245.88979],[-3.36077,19.79014],[4.29032,-25.26388]],[[474.0164,171.34468],[-6.64294,24.75962],[0.93822,-2.11095]],[[476.83502,165.00034],[-0.94189,2.11778],[-11.61167,0.00056]],[[442,165.00105],[11.61167,0.00083],[0,22.33298]],[[442,232],[0,-22.33298],[0,26.05709]],[[444.11673,309.71335],[-1.79785,-25.98829],[0.68992,9.97284]],[[445.99757,339.84398],[-0.13884,-9.99428],[0.00651,0.46836]],[[446.06783,341.26824],[-0.03573,-0.47978],[1.80119,-0.09427]],[[451.48548,341.1043],[-1.81015,0.01721],[-1.16176,-11.73782]]],&quot;closed&quot;:true}]}" fill="#ffffff" stroke="none" stroke-width="0.5" stroke-linecap="butt"/><path d="M249.01246,162.34343c-0.11401,0.02454 -0.22837,0.04843 -0.34238,0.07132c-0.35202,0.07066 -0.90233,0.29046 -1.07806,-0.02265c-0.22877,-0.40762 0.26189,-0.90466 0.29498,-1.37092c0.13142,-1.85187 -0.00131,-3.71331 -0.00131,-5.56984c0,-10.75735 0.56131,-21.7601 -0.33281,-32.48275c-0.21533,-2.58228 -0.22399,-5.08214 -0.22399,-7.6728c0,-1.3964 -0.18467,-2.6651 -0.06857,-3.87063c2.61234,0.30156 5.19797,0.25333 7.87526,0.25019c0,6.21933 0.00883,12.44135 0.00883,18.66068c0,6.37166 -0.10055,12.76289 0.38161,19.1178c0.21026,2.77123 0.38076,5.54394 0.55446,8.31767c0.0689,1.1002 0.38805,2.21103 0.33436,3.30347c-1.15359,0.16996 -2.29995,0.42093 -3.42675,0.77491c-0.30605,0.00277 -0.61311,0.00592 -0.91912,0.00709c-0.09271,0.00036 -0.18558,0.00283 -0.278,0.00719c-0.00069,-0.09518 -0.00097,-0.19041 -0.00079,-0.28567c0,0 -0.00167,-1.39244 -1.39407,-1.39244c-1.3924,0 -1.39386,1.39227 -1.39386,1.39227c0.00042,0.25532 0.00399,0.51036 0.01021,0.76512z" data-paper-data="{&quot;noHover&quot;:false,&quot;origItem&quot;:[&quot;Path&quot;,{&quot;applyMatrix&quot;:true,&quot;segments&quot;:[[[410,344],[0.0015,0.91685],[0,0]],[[415,339],[-5,0],[5,0]],[[420,344],[0,0],[-0.00061,0.34206]],[[420.00284,345.0258],[-0.00248,-0.34181],[0.33188,-0.01565]],[[421,345],[-0.33291,0.00128],[1.09883,-0.00422]],[[424.29676,344.97463],[-1.09897,0.00992],[4.04627,-1.27115]],[[436.58794,342.19363],[-4.14246,0.61035],[0.1928,-3.92291]],[[435.38595,330.33137],[0.24741,3.95073],[-0.62374,-9.96027]],[[433.3865,300.46531],[0.75501,9.9513],[-1.73137,-22.82001]],[[432,232],[0,22.88015],[0,-22.33316]],[[432,165.00053],[0,22.33316],[-9.61395,0.01126]],[[403.75106,164.10138],[9.38071,1.08287],[-0.41688,4.32894]],[[404,178],[0,-5.01439],[0,9.30288]],[[404.81318,205.55023],[-0.77321,-9.27279],[3.21069,38.50429]],[[406,322],[0,-38.62886],[0,6.66667]],[[406,342],[0.4719,-6.64994],[-0.11881,1.67431]],[[404.94103,346.92294],[-0.82148,-1.46376],[0.631,1.12435]],[[408.80812,347.00368],[-1.2641,0.25374],[0.40939,-0.08218]],[[410.0363,346.74743],[-0.40943,0.08812],[-0.02239,-0.91481]]],&quot;closed&quot;:true}]}" fill="#ffffff" stroke="none" stroke-width="0.5" stroke-linecap="butt"/><path d="M370.70098,209.72761c-1.3924,0 -1.3924,-1.39239 -1.3924,-1.39239l0.07145,-0.11665c-1.02256,-3.07853 -2.74485,-5.87288 -4.58364,-8.5858c0.0279,0.16387 0.05791,0.32712 0.09082,0.48952c-0.00305,3.04816 -0.1442,6.90704 -1.26317,9.77953c-0.5453,1.39981 -1.50182,2.35432 -2.44185,3.45334c-3.17383,3.71063 -7.15176,7.19236 -11.94327,8.67952c-1.31669,0.40867 -2.75801,-0.03667 -4.13665,-0.03613c-3.42683,0.00133 -7.03446,-0.20184 -10.43366,-0.54555c-2.55104,-0.25795 -5.21456,-1.15679 -7.73316,-1.66057c-9.23319,-1.83826 -17.63471,-6.38681 -25.745,-10.97736c-7.45429,-4.21925 -14.96569,-8.13397 -22.10098,-12.90548c-3.00783,-2.04182 -6.12125,-4.03699 -8.86073,-6.44177c-4.77724,-4.19356 -8.76792,-9.29081 -13.21022,-13.821c-1.2834,-1.30878 -2.63568,-2.5541 -3.85123,-3.92612c-0.06103,-0.06889 -0.22791,-0.27545 -0.45815,-0.56386c-0.31291,-2.20528 -0.64532,-4.40805 -0.82034,-6.62037c1.72738,0.09586 3.75459,0.63194 5.14375,-0.04144c0.20784,-0.10075 0.40911,-0.22279 0.59962,-0.36198c3.15026,0.39467 6.26461,0.46467 9.45064,0.46573l1.11454,-0.00029c0,0 0.73446,-0.00052 1.13659,-0.53355c1.02393,0.10335 2.03914,0.19988 3.03873,0.27245c5.58108,0.40512 11.21261,0.24659 16.80723,0.25108c4.55996,0.00366 9.1381,0.15104 13.68112,-0.25966c2.78138,-0.25291 5.68534,-0.38279 8.43629,-0.87192c2.83142,-0.50343 5.64299,-1.37452 8.45177,-2.07595c0,0.23354 0.00056,1.58122 0.00056,1.81477c0,0 0.00155,1.39308 1.39396,1.39308c1.3924,0 1.36793,-1.34237 1.36793,-1.34237l0.00038,-1.11373c0,-0.43998 0.00043,-0.87977 0.00043,-1.31975c0.16583,-0.03118 0.35538,-0.11157 0.52132,-0.14022c1.47105,-0.25395 3.30152,0.01897 4.79638,0.01897l0.8353,0.00029c8.036,6.63965 16.68691,12.53387 24.0711,19.91805c1.86927,1.86927 4.10355,3.69824 5.76342,5.75392c1.06626,1.3205 1.79667,2.88252 2.69117,4.32491c0.48861,0.78788 1.05928,1.53521 1.57826,2.30838c0.79534,-0.10459 1.29282,0.64163 1.29282,0.64163c2.92523,4.38784 6.27775,8.6692 7.95983,13.69906l0.07146,0.99728c0,0 0,1.3924 -1.3924,1.3924z" fill="#ffffff" stroke="none" stroke-width="0.5" stroke-linecap="butt"/><path d="M281.61683,147.34789c-1.39209,0.0293 -1.4214,-1.36279 -1.4214,-1.36279l-0.04716,-2.24397c-0.25746,-6.29179 -0.72899,-12.27276 0.05761,-18.56552c0,0 0.17271,-1.38164 1.55435,-1.20894c1.38164,0.1727 1.20894,1.55435 1.20894,1.55435c-0.76833,6.14667 -0.29644,11.98605 -0.03746,18.133l0.04791,2.27247c0,0 0.0293,1.39209 -1.36279,1.42139z" fill="#000000" stroke="none" stroke-width="0.5" stroke-linecap="butt"/><path d="M311.93886,146.04605c-0.09026,1.38947 -1.47972,1.29922 -1.47972,1.29922l-2.50711,-0.43798c-1.80173,-5.76145 -3.84733,-12.82113 -3.24239,-18.92611c0.17377,-1.75369 0.75646,-3.44244 1.13876,-5.16275c0,0 0.30206,-1.35924 1.66129,-1.05719c1.35924,0.30205 1.05719,1.66129 1.05719,1.66129c-0.36032,1.62144 -0.92074,3.21008 -1.08908,4.86252c-0.56802,5.57592 1.80256,11.00918 2.27597,16.49887l0.88587,-0.21758c0,0 1.38947,0.09026 1.29921,1.47973z" fill="#000000" stroke="none" stroke-width="0.5" stroke-linecap="butt"/><path d="M330.73787,208.61469c0.04505,0.00847 0.09009,0.01715 0.13512,0.02605c0,0 1.36536,0.27307 1.09229,1.63842c-0.27307,1.36535 -1.63843,1.09229 -1.63843,1.09229c-2.79015,-0.56517 -5.56603,-0.28729 -8.33125,-0.95838c-3.20708,-0.77833 -6.46978,-2.26359 -9.53632,-3.49016c-9.0919,-3.63664 -17.98305,-8.04336 -25.54811,-14.3387c-2.01385,-1.68121 -3.51378,-3.38261 -5.00841,-5.54103c-0.35634,-0.51459 -1.95355,-2.81021 -2.12302,-3.15937c-1.99533,-4.11113 0.12074,-7.62792 4.10948,-9.15813c3.18125,-1.22044 6.5116,-1.42334 9.81419,-1.75059c3.58749,-0.35548 7.02858,-1.10764 10.66271,-1.11875c2.8051,-0.00859 5.42532,0.00857 8.20661,-0.385c3.41503,-0.129 6.81192,-0.17391 10.22975,-0.17391c2.92272,0 5.91558,-0.31262 8.74844,0.62022c3.51049,1.15598 6.45344,3.60753 9.35273,5.7848c1.37503,1.0326 3.1603,2.20238 4.19285,3.64153c1.71441,2.3895 2.13081,5.23876 2.93452,7.95504c0.27366,0.92487 0.8248,1.76234 1.02536,2.70577c0.20208,0.95061 0.05574,1.94541 0.1686,2.91069c0.28121,2.40535 0.59441,4.52784 0.57204,6.95926c-1.10691,3.23043 -3.52515,5.86572 -7.02025,6.63052c-0.59215,0.12957 -5.14583,0.10613 -5.849,0.10672c-2.0633,0.00172 -4.1266,0.00247 -6.18991,0.0027zM317.15386,205.83312c0.04989,-0.00422 0.07905,-0.00423 0.07905,-0.00423h1.67087c6.9284,0 13.86007,0.05925 20.78816,-0.0052c3.21029,-0.02987 6.29498,-1.03498 7.35625,-4.39502c-0.02684,-2.15345 -0.34451,-4.05594 -0.58951,-6.19281c-0.10077,-0.87894 0.05854,-1.78587 -0.12602,-2.65111c-0.18609,-0.87241 -0.71697,-1.63861 -0.97138,-2.49359c-0.71417,-2.40007 -1.01635,-4.99613 -2.52391,-7.11888c-0.75495,-1.06302 -2.66708,-2.3398 -3.60458,-3.04199c-2.67224,-2.00151 -5.35498,-4.28584 -8.57811,-5.37601c-2.47966,-0.8387 -5.29044,-0.47206 -7.85218,-0.47206c-3.33514,0 -6.65098,0.04153 -9.98346,0.16298c-3.71772,0.52183 -7.3923,0.02047 -11.09565,0.3978c-2.59152,0.26405 -5.15343,0.84684 -7.74555,1.10332c-1.60562,0.15887 -3.24778,0.12715 -4.81213,0.52216c-1.95643,0.49401 -5.77633,0.73687 -6.95069,2.72295c-1.63883,2.77159 1.87951,6.72844 3.48552,8.66037c0.97483,1.17265 1.87832,1.8656 2.99343,2.79306c7.32673,6.11469 15.98678,10.36716 24.79957,13.89241c1.19592,0.47839 2.42097,0.99716 3.66033,1.49584z" fill="#000000" stroke="none" stroke-width="0.5" stroke-linecap="butt"/><path d="M313.49174,204.36507c-8.81279,-3.52525 -17.4989,-7.80496 -24.82562,-13.91965c-1.11511,-0.92746 -2.01852,-1.62316 -2.99335,-2.79581c-1.60601,-1.93193 -5.12297,-5.89552 -3.48414,-8.66712c1.17437,-1.98609 4.99613,-2.23324 6.95257,-2.72725c1.56436,-0.39501 3.20812,-0.36592 4.81374,-0.52479c2.59213,-0.25648 5.15912,-0.84483 7.75064,-1.10888c3.70335,-0.37733 7.3929,0.11775 11.11062,-0.40407c3.33248,-0.12146 6.66417,-0.1599 9.99931,-0.1599c2.56174,0 5.37972,-0.36117 7.85938,0.47753c3.22313,1.09017 5.91149,3.38324 8.58372,5.38475c0.9375,0.70218 2.85085,1.98276 3.6058,3.04577c1.50756,2.12275 1.81055,4.72557 2.52471,7.12564c0.25441,0.85499 0.78519,1.62335 0.97129,2.49576c0.18456,0.86523 0.02497,1.77441 0.12574,2.65334c0.245,2.13688 0.56146,4.04407 0.5883,6.19752c-1.06128,3.36004 -4.14866,4.37072 -7.35894,4.40059c-6.92809,0.06446 -13.87578,0.01718 -20.80418,0.01718l-1.67358,0.00062c0,0 -0.0293,0.00002 -0.07918,0.00424c-1.23935,-0.49868 -2.47091,-1.01711 -3.66683,-1.49549z" data-paper-data="{&quot;noHover&quot;:false,&quot;origItem&quot;:[&quot;Path&quot;,{&quot;applyMatrix&quot;:true,&quot;segments&quot;:[[[327.35807,251.50758],[-2.22522,-0.89537],[0.08957,-0.00758]],[327.5,251.5],[[330.5,251.5],[0,0],[12.43969,0]],[[367.8244,251.49065],[-12.43914,0.11573],[5.76396,-0.05362]],[[381.03228,243.59954],[-1.90548,6.03283],[-0.04818,-3.86644]],[[379.97385,232.48057],[0.43989,3.83668],[-0.18094,-1.57811]],[[379.74758,227.72062],[0.33137,1.55349],[-0.33412,-1.56638]],[[378.0035,223.24346],[0.45679,1.5351],[-1.28227,-4.30923]],[[373.47189,210.46178],[2.70678,3.81131],[-1.35548,-1.90861]],[[367,205],[1.68325,1.26075],[-4.79791,-3.59363]],[[351.59831,195.34757],[5.78701,1.95735],[-4.45214,-1.50586]],[[337.5,194.5],[4.59951,0],[-5.98812,0]],[[319.57506,194.79264],[5.98335,-0.21808],[-6.67504,0.93692]],[[299.65321,195.50686],[6.64924,-0.67747],[-4.65299,0.47408]],[[285.74634,197.48783],[4.65407,-0.46051],[-2.88283,0.28525]],[[277.10634,198.42536],[2.80875,-0.70923],[-3.5127,0.88698]],[[264.62663,203.31433],[2.10853,-3.56594],[-2.94247,4.9763]],[[270.88476,218.8637],[-2.88353,-3.4687],[1.75027,2.10546]],[[276.25935,223.87852],[-2.00214,-1.66522],[13.15487,10.9787]],[[320.78609,248.82185],[-15.82306,-6.32945],[2.14722,0.85892]]],&quot;closed&quot;:true}]}" fill-opacity="0.60392" fill="#b7ffe7" stroke="none" stroke-width="0.5" stroke-linecap="butt"/><path d="M285.99316,163.50018v-57.82937h62.49304v57.82937z" fill="#000000" stroke="#000000" stroke-width="2" stroke-linecap="butt"/><path d="M305.58055,150.90831h22.38556v52.23299h-18.74721c-1.17523,-0.51071 -2.47215,-0.74465 -3.63835,-1.27769z" fill="#000000" stroke="#000000" stroke-width="2" stroke-linecap="butt"/><path d="M296.25323,188.68395v-25.18376h11.65915v25.18376z" fill="#000000" stroke="#000000" stroke-width="2" stroke-linecap="butt"/><path d="M325.63429,189.15032v-30.78015h15.85644v30.78015z" fill="#000000" stroke="#000000" stroke-width="2" stroke-linecap="butt"/><path d="M306.51329,202.20857h21.45283v4.70076c-1.35258,-0.06919 -2.70707,-0.11864 -4.05785,-0.20231c-1.41363,-0.08756 -2.70716,-0.89158 -4.11233,-1.06911c-1.11104,-0.14037 -2.29635,-0.17996 -3.49507,-0.17656c-0.57184,-0.17856 -1.14707,-0.32874 -1.7292,-0.41058c-0.25197,-0.03543 -0.49961,0.28776 -0.73741,0.19725c-0.62559,-0.23812 -1.03584,-0.90223 -1.67088,-1.11391c-0.52837,-0.17613 -1.13942,0.16663 -1.67087,0c-0.36552,-0.1146 -0.49749,-0.61078 -0.83785,-0.78655c-0.98684,-0.50966 -2.08843,-0.75817 -3.14136,-1.11835z" fill="#000000" stroke="#000000" stroke-width="2" stroke-linecap="butt"/><path d="M289.72411,160.23564v-50.36752h55.96391v50.36752z" fill="#fff7bd" stroke="#000000" stroke-width="2" stroke-linecap="butt"/><path d="M289.72411,138.78279v-27.04923h17.25554v27.04923z" fill="#1d1b14" stroke="none" stroke-width="0" stroke-linecap="butt"/><path d="M326.80517,134.24819v-24.4892h18.18827v24.4892z" fill="#1d1b14" stroke="none" stroke-width="0" stroke-linecap="butt"/><path d="M288.97,123.02066v-13.05824h55.96391v13.05824z" fill="#1d1b14" stroke="none" stroke-width="0" stroke-linecap="butt"/><path d="M302.31596,148.57647v-13.52461h12.12552v13.52461z" fill="#ffffff" stroke="#000000" stroke-width="2" stroke-linecap="butt"/><path d="M320.0379,148.57647v-13.52461h13.05824v13.52461z" fill="#ffffff" stroke="#000000" stroke-width="2" stroke-linecap="butt"/><path d="M309.31149,146.24465v-10.26005h5.13002v10.26005z" fill="#2d2d2d" stroke="#000000" stroke-width="2" stroke-linecap="butt"/><path d="M322.36972,147.64375v-11.65915h5.59638v11.65915z" fill="#2d2d2d" stroke="#000000" stroke-width="2" stroke-linecap="butt"/><path d="M305.58055,162.56746h22.85192v41.97294h-15.59735c-0.207,-0.16979 -0.42199,-0.32303 -0.67176,-0.40628c-0.52837,-0.17613 -1.13943,0.16663 -1.67088,0c-0.36552,-0.1146 -0.49749,-0.61078 -0.83785,-0.78655c-1.28375,-0.663 -2.76171,-0.88407 -4.07409,-1.48394z" fill="#ffffff" stroke="#000000" stroke-width="2" stroke-linecap="butt"/><path d="M296.05323,180.8221v-16.3228h11.19279v16.3228z" fill="#ffffff" stroke="#000000" stroke-width="2" stroke-linecap="butt"/><path d="M327.96609,179.35663v-16.32281h13.52461v16.32281z" fill="#ffffff" stroke="#000000" stroke-width="2" stroke-linecap="butt"/><path d="M296.71959,189.15032v-7.92821h9.79368v7.92821z" fill="#fff7bd" stroke="#000000" stroke-width="2" stroke-linecap="butt"/><path d="M328.89884,189.15032v-8.86095h11.19279v8.86095z" fill="#fff7bd" stroke="#000000" stroke-width="2" stroke-linecap="butt"/><path d="M325.63429,205.93949v0.85993c-0.57572,-0.02737 -1.15121,-0.05678 -1.72603,-0.09239c-0.97989,-0.06069 -1.90206,-0.46563 -2.84371,-0.76754z" fill="#ff0000" stroke="#000000" stroke-width="2" stroke-linecap="butt"/><path d="M314.87643,205.09976l-0.01865,-0.55937" fill="none" stroke="#000000" stroke-width="2" stroke-linecap="round"/><path d="M303.08771,131.09353v-12.61154h7.11942v12.61154z" fill="#1d1b14" stroke="none" stroke-width="0" stroke-linecap="butt"/><path d="M306.74913,126.21164v-6.7126h5.89894v6.7126z" fill="#1d1b14" stroke="none" stroke-width="0" stroke-linecap="butt"/><path d="M318.54701,125.39799v-6.10235h9.76377v6.10235z" fill="#1d1b14" stroke="none" stroke-width="0" stroke-linecap="butt"/><path d="M322.41186,129.46624v-12.61154h5.2887v12.61154z" fill="#1d1b14" stroke="none" stroke-width="0" stroke-linecap="butt"/><path d="M279.66667,147.91667v-11.16666h5.33333v11.16666z" fill="#fff7bd" stroke="#000000" stroke-width="0.5" stroke-linecap="butt"/><path d="M349.16667,149.08334v-11.5h6.66667v11.5z" fill="#fff7bd" stroke="#000000" stroke-width="0.5" stroke-linecap="butt"/><path d="M308.94278,153.06685c-0.37818,-0.24987 -0.68415,-0.45522 -0.77053,-0.51238c0,0 -0.62818,-0.41569 -0.21249,-1.04388c0.41569,-0.62818 1.04388,-0.21249 1.04388,-0.21249c0.41879,0.27713 0.84577,0.54226 1.25637,0.83138c0.2907,0.20469 0.49447,0.59801 0.8463,0.64918c0.34095,0.04958 0.63364,-0.27208 0.95855,-0.38671c0.45558,-0.16073 0.90624,-0.35088 1.38127,-0.43878c0.333,-0.06161 2.65178,-0.15371 3.04667,-0.20678c0.99352,-0.13354 1.91713,-0.63515 2.91348,-0.7456c0.66938,-0.0742 1.32462,0.34553 1.99699,0.30692c0.37656,-0.02162 0.74634,-0.38384 1.10182,-0.25772c0.99703,0.35375 1.7375,1.84371 1.69408,2.807c-0.0082,0.18183 -1.26034,2.58286 -1.35209,2.76174c-0.71403,1.39212 -1.2277,2.56194 -2.3599,3.65353c-0.2871,0.09243 -0.60518,0.11799 -0.86129,0.2773c-0.28634,0.17811 -0.43436,0.533 -0.72264,0.70794c-0.69395,0.42113 -1.53593,0.52678 -2.31179,0.76546c-0.35797,0.11012 -0.70522,0.3374 -1.07898,0.31343c-1.68519,-0.10811 -1.91973,-0.57561 -3.1002,-1.55806c-0.42582,-0.35439 -1.51012,-1.21463 -1.82012,-1.71096c-0.75104,-1.20245 -1.0229,-3.11142 -1.4587,-4.46502l-0.2773,-0.86129c0,0 -0.12191,-0.37866 0.08662,-0.67422zM310.55258,154.09433c0.2773,0.86129 0.56951,1.76891 0.8468,2.63021c0.1672,0.51932 0.19551,1.09995 0.48237,1.56402c0.14794,0.23933 1.44857,1.2928 1.50048,1.33703c0.76015,0.64774 1.0479,1.15414 2.10391,1.2045c0.22884,0.01091 0.42666,-0.16752 0.6436,-0.24117c0.6594,-0.22387 1.40828,-0.24541 1.99466,-0.62102c0.28395,-0.18188 0.43631,-0.52983 0.72264,-0.70794c0.25611,-0.1593 0.57419,-0.18486 0.86129,-0.2773c0.84388,-0.85107 1.2542,-1.99081 1.79823,-3.05147c0.22919,-0.44683 0.44818,-0.89904 0.68756,-1.3405c0.15778,-0.29098 0.46597,-0.52705 0.50346,-0.85593c0.03385,-0.29697 -0.18662,-0.56915 -0.30996,-0.84141c-0.06219,-0.13726 -0.09374,-0.3662 -0.24373,-0.38075c-0.2283,-0.02215 -0.39207,0.27939 -0.62077,0.29688c-0.67339,0.05148 -1.3329,-0.39241 -2.00277,-0.30647c-0.96523,0.12383 -1.86089,0.60434 -2.82505,0.73625c-0.98168,0.1343 -1.99173,0.01418 -2.96617,0.19364c-0.55089,0.10145 -2.37503,0.90263 -2.82793,0.83829c-0.04473,-0.00636 -0.17193,-0.07304 -0.34864,-0.17685z" fill="#0e0e0b" stroke="none" stroke-width="0.5" stroke-linecap="butt"/><path d="M283.86392,132.80024v-30.63964h24.26168v30.63965z" fill="#1d1b14" stroke="none" stroke-width="0" stroke-linecap="butt"/><path d="M328.08893,129.08479v-25.95595h25.55404v25.95595z" fill="#1d1b14" stroke="none" stroke-width="0" stroke-linecap="butt"/><path d="M289.81413,121.7532v-23.34257h56.35303v23.34257z" fill="#1d1b14" stroke="none" stroke-width="0" stroke-linecap="butt"/><path d="M304.20657,126.5v-10.33333h7.16892v10.33333z" fill="#1d1b14" stroke="none" stroke-width="0" stroke-linecap="butt"/><path d="M307.18718,121.63796v-5.5h5.93996v5.5z" fill="#1d1b14" stroke="none" stroke-width="0" stroke-linecap="butt"/><path d="M323.12817,121.83333v-5h9.83166v5z" fill="#1d1b14" stroke="none" stroke-width="0" stroke-linecap="butt"/><path d="M325.07763,127.1781v-10.33333h5.32548v10.33333z" fill="#1d1b14" stroke="none" stroke-width="0" stroke-linecap="butt"/><path d="M285.85657,106.06786v-5.74692h9.71125v5.74692z" fill="#1d1b14" stroke="none" stroke-width="0" stroke-linecap="butt"/><path d="M344.12409,106.21154v-6.03427h6.70959v6.03427z" fill="#1d1b14" stroke="none" stroke-width="0" stroke-linecap="butt"/><path d="M293.27242,99.31523v-1.86774h49.08595v1.86774z" fill="#1d1b14" stroke="none" stroke-width="0" stroke-linecap="butt"/><path d="M285.32687,135.59115v-5.60325h14.30202v5.60325z" fill="#1d1b14" stroke="none" stroke-width="0" stroke-linecap="butt"/><path d="M337.23793,131.28096v-3.16081h13.94888v3.16081z" fill="#1d1b14" stroke="none" stroke-width="0" stroke-linecap="butt"/></g></g></svg>