<svg version="1.1" xmlns="http://www.w3.org/2000/svg" xmlns:xlink="http://www.w3.org/1999/xlink" width="348" height="240.93616" viewBox="0,0,348,240.93616"><g transform="translate(-146,-61.53192)"><g data-paper-data="{&quot;isPaintingLayer&quot;:true}" fill-rule="nonzero" stroke-linejoin="miter" stroke-miterlimit="10" stroke-dasharray="" stroke-dashoffset="0" style="mix-blend-mode: normal"><path d="M147,301.46808v-107.97163h346v107.97163z" fill="#b9b9b9" stroke="#000000" stroke-width="2" stroke-linecap="butt"/><path d="M229.98109,152.09929c0,-49.46669 40.10069,-89.56737 89.56738,-89.56737c49.4667,0 89.56737,40.10068 89.56737,89.56738c0,49.4667 -40.10068,89.56738 -89.56737,89.56738c-49.4667,0 -89.56738,-40.10068 -89.56738,-89.56737z" fill="#b9b9b9" stroke="#000000" stroke-width="2" stroke-linecap="butt"/><path d="M394.67546,219.6127c2.38754,-2.55105 4.7751,-5.10211 7.16264,-7.65317c-1.84579,0.55156 -3.81266,0.82429 -5.77831,1.19296c-0.45117,2.10547 -0.90234,4.21093 -1.35351,6.3164zM399.99926,198.56085c-0.0895,1.31141 0.17065,2.69529 -0.26852,3.93421c-0.48075,1.35624 -1.38897,2.50921 -2.18424,3.71948c-0.08096,0.3778 -0.16191,0.7556 -0.24287,1.13341c1.97048,-0.29922 3.94387,-0.40592 5.9239,-0.39992l-0.03082,-0.21578l4.90717,-0.70103c0.12902,-0.02054 0.26132,-0.03121 0.39612,-0.03121c1.38071,0 2.5,1.11929 2.5,2.5c0,0.66278 -0.25791,1.26531 -0.67884,1.71272c-6.83321,7.30118 -16.48911,17.61836 -23.32232,24.91953c-0.47152,0.50381 -4.33949,4.66694 -6.31744,6.69087l4.86207,0.17681c1.34379,0.04214 2.4202,1.14473 2.4202,2.49875c0,1.38071 -1.11929,2.5 -2.5,2.5c-0.01943,0 -0.03881,-0.00023 -0.05813,-0.00066l-4.99082,-0.09976c-3.28193,0.58311 -6.66533,-0.13322 -9.998,-0.19984c-4.999,-0.09992 -9.998,-0.19985 -14.99701,-0.29977c-0.21461,-0.00429 -0.42956,-0.00796 -0.64481,-0.01109c-0.39044,0.04407 -0.78113,0.08819 -1.172,0.13223c-2.77704,2.01284 -5.66428,4.10016 -8.54821,5.35137l-4.16208,2.70535c-0.39799,0.26744 -0.87707,0.42348 -1.39261,0.42348c-1.38071,0 -2.5,-1.11929 -2.5,-2.5c0,-0.59805 0.20999,-1.14705 0.56027,-1.57729l1.74061,-2.17576c0.24631,-0.3079 0.49739,-0.61589 0.75209,-0.92422c-3.47006,0.22874 -6.93312,0.33952 -10.37167,0.24611l0.03535,0.39669l-4.94959,0.44101c-0.08306,0.00833 -0.16731,0.0126 -0.25256,0.0126c-1.38071,0 -2.5,-1.11929 -2.5,-2.5c0,-0.57576 0.19464,-1.10606 0.5217,-1.52869c-4.75959,-0.0597 -9.50271,-0.15364 -14.28982,-0.52763c-2.75191,-0.21499 -5.50383,-0.42998 -8.25574,-0.64497c-0.11039,1.2787 -1.18333,2.28215 -2.49064,2.28215c-0.52533,0 -1.0128,-0.16203 -1.41519,-0.43884l-2.86066,-1.90711c-0.19963,-0.09516 -0.59478,-0.28334 -1.10802,-0.52792c-2.95169,-0.12099 -5.95962,0.07705 -8.79381,-0.71045l-4.96253,-0.38769c-1.30027,-0.08858 -2.32756,-1.17139 -2.32756,-2.49414c0,-1.38071 1.11929,-2.5 2.5,-2.5c0.03179,0 0.06343,0.0006 0.09493,0.00177l2.84339,0.09322c-0.52308,-0.40553 -1.0466,-0.81042 -1.57827,-1.20322c-0.60491,-0.15107 -1.12257,-0.52249 -1.46275,-1.02406c-0.12464,-0.08159 -0.25006,-0.16204 -0.37633,-0.24122c-1.82439,-1.14401 -3.62901,-2.08349 -5.26729,-3.17604c-2.68768,0.18452 -5.49609,0.01926 -6.79389,0.00969l-0.13374,-1.72038l-0.82428,0.13738l-0.81425,-4.88551c-0.02742,-0.14831 -0.04176,-0.30121 -0.04176,-0.45746c0,-0.06539 0.00251,-0.13019 0.00744,-0.19431c-0.78242,-0.13653 -1.56388,-0.27491 -2.33033,-0.45389c-1.83941,-0.42954 -3.85706,-0.34776 -5.53476,-1.21564c-2.96824,-1.53548 -5.36597,-5.17138 -7.16321,-8.3161c-0.66473,-0.15748 -1.33132,-0.30833 -1.86685,-0.63986c-0.7553,1.0588 -1.39753,1.88509 -1.61066,1.95596c-8.7366,2.90529 -8.08702,-0.55147 -9.61167,-6.6168c-0.40631,-1.61638 -0.83661,-3.24247 -0.98058,-4.9029c-0.04027,-0.46442 -0.12726,-0.95202 -0.23051,-1.44978l-4.0307,1.87186c-0.3322,0.16323 -0.70593,0.2549 -1.10106,0.2549c-1.38071,0 -2.5,-1.11929 -2.5,-2.5c0,-0.91602 0.49266,-1.71697 1.22746,-2.15235l4.22059,-2.59728c3.8475,-2.36769 7.7639,-4.27614 11.67848,-6.33248c5.15262,-2.70668 9.96956,-7.34841 14.66994,-10.79535c0,0 2.01601,-1.47841 3.49442,0.5376c0.29026,0.39581 0.44583,0.77089 0.50839,1.11814c0.33026,-0.16085 0.70123,-0.25109 1.09328,-0.25109c1.38071,0 2.5,1.11929 2.5,2.5c0,0.5306 -0.1653,1.02258 -0.4472,1.42728l-2.78093,4.11527c-2.41904,5.20288 -6.42112,10.17215 -10.00432,15.01167c0.64962,0.34053 1.29603,0.68622 1.8856,1.11726c3.63645,2.65864 5.22065,6.08639 6.4644,10.28581l1.82593,2.73889c0.02224,0.03232 0.04373,0.06519 0.06446,0.09859c4.31325,0.89415 9.66054,1.80185 12.70945,5.23404c1.23326,1.3883 3.46004,3.42363 2.498,4.99553c0.92191,0.56346 1.83929,1.13413 2.75558,1.70724c0.23238,0.03012 4.11237,0.53308 4.34475,0.56321c1.19149,-0.17824 2.39545,0.18113 3.5977,0.46637c8.48541,1.09996 16.97082,2.19993 25.45624,3.29989c4.505,0.58398 10.30154,0.4785 14.65321,1.8562c1.84893,-1.95074 3.77789,-3.94457 4.07379,-4.0852c3.22433,-1.53247 7.10391,-0.73875 10.63523,-1.2627c0.14329,-0.02126 0.28623,-0.0425 0.42882,-0.06369c-0.43601,-0.13123 -0.82184,-0.3783 -1.12173,-0.70544c-0.96703,-0.17707 -1.79445,-0.54069 -2.27167,-1.3559c-1.14492,-1.9558 0.08479,-5.1838 1.91199,-6.52445c1.60037,-1.17421 3.95827,0.38887 5.902,0.79122c1.67223,0.34615 3.12486,0.94777 4.45801,1.71788l2.61645,-1.15294c1.59722,-0.93941 4.93147,-2.60872 5.83037,-3.23842c1.50914,-1.05719 2.98381,-2.1851 4.44142,-3.34208c1.39667,-2.41514 2.9544,-5.09243 3.07461,-5.22686c1.27227,-1.4227 3.03452,-2.31571 4.55178,-3.47357l0.22654,-0.0515l-0.02934,-0.05861l4.42628,-2.21541c0.34762,-0.18319 0.74365,-0.28688 1.16389,-0.28688c1.38071,0 2.5,1.11929 2.5,2.5c0,0.54435 -0.17398,1.04807 -0.46937,1.45859l-2.63408,3.76362c0.14545,-0.06409 0.2909,-0.12817 0.43635,-0.19225c0.73994,-0.326 1.48018,-0.67285 2.2217,-1.03106c0.73479,-0.66587 1.47822,-1.32073 2.23173,-1.96247c1.63311,-2.65015 3.32955,-5.27 4.94325,-7.9106l2.58393,-4.22825c0.43442,-0.73871 1.23757,-1.23452 2.15652,-1.23452c0.09298,0 0.18477,0.00507 0.27511,0.01496l0.84128,-3.92597c0.22253,-1.15274 1.2369,-2.02335 2.45461,-2.02335c1.38071,0 2.5,1.11929 2.5,2.5v4h-0.02152zM390.03244,224.57371c-1.34951,-0.85892 -0.97695,-2.59752 -0.97695,-2.59752l0.24685,-1.15197c-0.14483,0.0261 -0.29399,0.03973 -0.44633,0.03973c-0.82361,0 -1.5542,-0.39827 -2.00968,-1.01273c-6.74991,7.11383 -13.79624,14.29221 -21.46118,20.25066l0.16384,0.14044c2.48962,-0.25958 4.97006,-0.6154 7.43923,-1.02461c1.38045,-0.22878 2.9187,-0.00162 4.14234,-0.68036c2.69052,-1.4924 4.11532,-4.57533 6.2177,-6.82169c2.22807,-2.38065 4.45612,-4.76131 6.68419,-7.14196zM242.90921,201.43985l-0.46462,-0.14818l-0.32384,1.85927c-1.1062,-0.66226 -2.06119,-1.89917 -3.24043,-2.28386c-0.26577,0.12365 -0.52703,0.24518 -0.77984,0.36276c0.5,0.51802 1.64816,1.35243 1.88982,1.97408c0.60387,1.55342 0.76426,3.25033 0.98058,4.9029c0.1335,1.01988 -1.02795,5.6737 2.34949,3.18901c0.77805,-0.57239 1.26538,-1.40349 1.68551,-2.29811c-0.13537,-0.49373 -0.27981,-0.98218 -0.45871,-1.45055l-1.40041,-4.20122c-0.09499,-0.2642 -0.14675,-0.54902 -0.14675,-0.84593c0,-0.18975 0.02114,-0.37457 0.06119,-0.55222c-0.05841,-0.1657 -0.10925,-0.33494 -0.15199,-0.50795zM249.35284,201.76146c1.43082,-2.11531 2.86507,-4.22833 4.29489,-6.34421c0.5339,-0.79007 1.01508,-1.6267 1.48879,-2.46993c-2.89293,1.66775 -5.81138,3.18407 -8.94551,4.58227l0.32599,0.48898c1.0794,1.11975 1.88574,2.50623 2.83584,3.74289zM340.72347,240.27181c0.49075,0.01586 0.98149,0.03207 1.47224,0.0486c0.01229,-0.21181 0.05094,-0.41654 0.11274,-0.61096c-0.27015,0.09286 -0.5403,0.18573 -0.81045,0.27859c-0.25926,0.08912 -0.51734,0.1842 -0.77453,0.28377zM252.99742,210.41619c-0.12438,-0.10517 -0.25205,-0.20917 -0.38264,-0.31217c0.02993,0.06279 0.05987,0.12569 0.08983,0.18869c0.09384,0.03913 0.19159,0.0803 0.29281,0.12348z" fill="#b9b9b9" stroke="none" stroke-width="0.5" stroke-linecap="butt"/><path d="M243.5,151.5c0,-40.86907 33.13093,-74 74,-74c40.86907,0 74,33.13093 74,74c0,40.86907 -33.13093,74 -74,74c-40.86907,0 -74,-33.13093 -74,-74z" fill="#ffffff" stroke="#000000" stroke-width="2" stroke-linecap="butt"/><path d="M266.125,178.12501v-51h98.5v51z" fill="#a5ff00" stroke="#000000" stroke-width="2" stroke-linecap="butt"/><path d="M295.125,151.75c0,-9.45788 7.66712,-17.125 17.125,-17.125c9.45788,0 17.125,7.66712 17.125,17.125c0,9.45788 -7.66712,17.125 -17.125,17.125c-9.45788,0 -17.125,-7.66712 -17.125,-17.125z" fill="#73b100" stroke="#000000" stroke-width="2" stroke-linecap="butt"/><path d="M271.875,131.125l0.25,6.25" fill="none" stroke="#73b100" stroke-width="2" stroke-linecap="round"/><path d="M271.875,165.125l0.75,6.5" fill="none" stroke="#73b100" stroke-width="2" stroke-linecap="round"/><path d="M358.375,170.12501l-1.25,-4.5" fill="none" stroke="#73b100" stroke-width="2" stroke-linecap="round"/><path d="M356.625,134.625l1.25,5.75" fill="none" stroke="#73b100" stroke-width="2" stroke-linecap="round"/><path d="M296.375,146.625l30.75,-0.75l-8,11.25l-9.5,-10l-6.75,9.25z" fill="#000000" stroke="#000000" stroke-width="2" stroke-linecap="round"/><path d="M323.875,161.125l-16.25,2.75l-8,-3" fill="none" stroke="#000000" stroke-width="2" stroke-linecap="round"/><path d="M298.625,148.375l1.25,-2" fill="none" stroke="#ffffff" stroke-width="2" stroke-linecap="round"/><path d="M303.125,146.875l-2.5,5" fill="none" stroke="#ffffff" stroke-width="2" stroke-linecap="round"/><path d="M315.625,147.375l-1.75,2.25" fill="none" stroke="#ffffff" stroke-width="2" stroke-linecap="round"/><path d="M315.875,152.625l1.75,-5.5" fill="none" stroke="#ffffff" stroke-width="2" stroke-linecap="round"/><path d="M264.875,163.625l-12,-8l12.25,-2.75" fill="none" stroke="#000000" stroke-width="2" stroke-linecap="round"/><path d="M365.875,151.125l16,10.25l-16.25,8" fill="none" stroke="#000000" stroke-width="2" stroke-linecap="round"/><path d="M301.875,206.62501l-2,-29" fill="none" stroke="#000000" stroke-width="2" stroke-linecap="round"/><path d="M301.45487,205.27368l14.30893,4.33033" fill="none" stroke="#000000" stroke-width="2" stroke-linecap="round"/><path d="M324.80102,177.97375l-3.95378,25.982" fill="none" stroke="#000000" stroke-width="2" stroke-linecap="round"/><path d="M319.71759,204.14403l12.42618,5.45999" fill="none" stroke="#000000" stroke-width="2" stroke-linecap="round"/><text transform="translate(177.78215,250.9536) scale(0.5,0.5)" font-size="40" xml:space="preserve" fill="#ffffff" fill-rule="nonzero" stroke="#000000" stroke-width="1" stroke-linecap="butt" stroke-linejoin="miter" stroke-miterlimit="10" stroke-dasharray="" stroke-dashoffset="0" font-family="Pixel" font-weight="normal" text-anchor="start" style="mix-blend-mode: normal"><tspan x="0" dy="0">MONEY MONEY GREEN GREEN</tspan></text><text transform="translate(252.51324,275.68232) scale(0.40559,0.40559)" font-size="40" xml:space="preserve" fill="#ffffff" fill-rule="nonzero" stroke="#000000" stroke-width="1" stroke-linecap="butt" stroke-linejoin="miter" stroke-miterlimit="10" stroke-dasharray="" stroke-dashoffset="0" font-family="Pixel" font-weight="normal" text-anchor="start" style="mix-blend-mode: normal"><tspan x="0" dy="0">Get 100 money.</tspan></text></g></g></svg>