<svg version="1.1" xmlns="http://www.w3.org/2000/svg" xmlns:xlink="http://www.w3.org/1999/xlink" width="91.31754" height="165.87624" viewBox="0,0,91.31754,165.87624"><g transform="translate(-275.48146,-97.16791)"><g data-paper-data="{&quot;isPaintingLayer&quot;:true}" fill-rule="nonzero" stroke-linejoin="miter" stroke-miterlimit="10" stroke-dasharray="" stroke-dashoffset="0" style="mix-blend-mode: normal"><path d="M318.35273,227.25264c2.66721,-0.02826 6.51639,-1.90688 7.99598,0.3125c3.16296,4.74443 0.22229,10.28055 0.46558,15.51379c0.0695,1.49498 1.0363,5.40089 -0.3125,6.74969c-1.57195,1.57195 -9.78281,2.0488 -11.12098,-0.62753c-2.41357,-4.82714 0.65651,-12.61476 -1.74835,-16.82326c-0.73685,-0.43488 -1.23117,-1.23698 -1.23117,-2.15454c0,-1.38071 1.11929,-2.5 2.5,-2.5c0.03294,0 0.06572,0.00064 0.09835,0.0019c0.90773,-0.36212 1.98443,-0.45805 3.35308,-0.47255z" fill="#ffffd6" stroke="none" stroke-width="0.5" stroke-linecap="butt"/><path d="M313.88491,199.05078c-0.17539,3.68333 -3.34851,6.80841 -5.13895,2.36529c-1.37102,-3.4023 -0.33974,-7.33195 -0.3125,-11c0.01675,-2.25545 4.04647,-3.50823 4.8125,-1.125c0.93627,2.91285 0.5625,6.45306 0.5625,9.37745z" fill="#ffffd6" stroke="none" stroke-width="0.5" stroke-linecap="butt"/><path d="M327.80846,200.16607c-2.87169,0 -3.05656,-7.4911 -2.58778,-10.05722c0.00378,-0.02166 0.00783,-0.04323 0.01216,-0.06469c0.23044,-1.14266 1.24005,-2.00309 2.45062,-2.00309c1.38071,0 2.5,1.11929 2.5,2.5c0,0.2807 -0.04626,0.55058 -0.13157,0.80246c1.18484,3.71708 0.20078,8.82254 -2.24343,8.82254z" fill="#ffffd6" stroke="none" stroke-width="0.5" stroke-linecap="butt"/><path d="M321.7803,215.79808c1.68988,-0.48833 3.19833,-1.58391 4.84937,-0.16873c2.53077,2.16923 2.21226,13.11266 -1.54435,13.8702c-1.55253,0.31307 -3.46729,-0.79147 -5.05406,-0.81365c-3.75514,-0.05249 -5.27326,1.55037 -8.25334,-0.43635c-0.87415,-0.58276 -0.04249,-4.96234 -0.04128,-5.72395c0.0031,-1.9636 -1.35942,-4.90644 0.34546,-5.88066c0.43488,-0.73685 1.23698,-1.23117 2.15454,-1.23117c0.11634,0 0.23083,0.00795 0.34295,0.02333c0.61919,0.00401 1.27778,-0.1811 1.95527,-0.36286c-1.17563,-0.23973 -2.19686,-0.69112 -2.85141,-1.34567c-2.52904,-2.52903 0.49826,-3.22582 -0.71357,-5.64948c-0.18291,-0.34741 -0.28643,-0.74312 -0.28643,-1.16302c0,-0.02273 0.0003,-0.04538 0.0009,-0.06796c0.08288,-6.02958 0.83786,-12.5083 0.8741,-18.72667c0.00456,-0.78222 0.00832,-1.56444 0.01137,-2.34667c-0.75948,1.97179 -3.47424,3.09056 -4.69887,0.6413h0.00001c-2.22479,-4.44958 -0.32308,-11.43322 -0.0625,-16.05776c0.13169,-2.33718 -1.18221,-4.47562 1.00696,-6.17831c1.98412,-1.54321 3.16582,0.82024 3.74676,2.45496c0.01854,-0.0316 0.03812,-0.06291 0.05878,-0.09389c2.33865,-3.50797 4.3278,0.85642 5.84819,2.25016c0.85258,0.78156 1.2335,-2.22366 2.33931,-2.56266c3.10095,-0.95061 7.51792,-5.26239 10.02118,-3.131c0.42723,0.36377 -0.78259,1.15793 -0.38061,1.92874c0.93854,1.79967 -1.04056,3.43299 -1.59369,4.65479c-1.33858,2.95675 -1.8541,4.75356 -1.21427,8.26465c0.4751,2.60718 3.11395,6.48809 1.31016,8.98808c-0.87273,1.20958 -2.98638,0.52235 -4.02952,-0.31264c-0.18031,-0.14433 -0.79542,-0.56813 -1.30953,-0.88315c-0.60415,2.82811 0.52495,5.62822 0.72801,8.78535l0.00001,-0.00001l0.00487,1.90595c0,0 0,0.55782 -0.2635,1.14648c0.45316,4.5851 1.07725,9.24801 0.49246,13.5755c-0.32458,2.40192 -2.88301,3.72313 -5.61543,4.04624c0.70687,0.33132 1.46936,0.70234 1.82169,0.60052z" fill="#000000" stroke="none" stroke-width="0.5" stroke-linecap="butt"/><path d="M319.22109,157.81237c0.72138,0.05266 1.1627,0.86078 1.73769,1.29959c0.16734,0.12771 1.30021,-0.75666 2.54778,0.52134c1.94393,1.99134 -1.61228,8.68948 -4.49999,8.52905c-2.75794,-0.15322 -3.66756,-4.35369 -3.64704,-6.47488c0.00236,-0.24371 -0.0529,-2.23394 0.44792,-2.46271l1.52991,-0.78448c0.06043,0 0.1202,0.00285 0.17917,0.00841c0.58014,-0.03841 1.10547,-0.68005 1.70455,-0.63632z" fill="#ffffd6" stroke="none" stroke-width="0.5" stroke-linecap="butt"/><path d="M312.81924,252.30197c1.23703,-0.53784 3.29385,0.16513 4.39282,-0.42898c0.59616,-0.32228 0.86567,-0.89081 1.77813,-0.89081c0.50556,0 1.27658,0.62944 1.65309,0.56665c2.252,-0.37559 3.81047,-1.1736 6.07605,-0.6072c0.87185,0.21796 0.95538,1.44429 1.3811,1.6516c0.69558,0.33873 2.09852,-0.18571 2.96059,-0.07043c2.37446,0.31754 6.29783,2.38183 5.74149,5.50369c-0.65294,3.66388 -9.83986,0.98782 -12.53916,0.46824c-1.1838,-0.22787 -2.59038,-1.33343 -3.56288,-0.62099c-0.76001,0.55677 -6.5524,2.70725 -8.18067,3.23604c-0.58066,0.18858 -1.83874,-0.10851 -2.88434,-0.57896c-0.67602,-0.05939 -1.24958,-0.47586 -1.53092,-1.05966c-0.08337,-0.12187 -0.12956,-0.24227 -0.12956,-0.35806c-0.03674,-0.14683 -0.05624,-0.30049 -0.05624,-0.45871c0,-0.3018 0.07097,-0.58702 0.19714,-0.83988c0.70009,-2.15378 2.88645,-4.72259 4.70337,-5.51255z" fill="#616161" stroke="none" stroke-width="0.5" stroke-linecap="butt"/><path d="M298.54805,156.64406c0,0 -4.22307,-17.29411 -4.22307,-24.93623c0,-2.75768 -0.95763,-11.04158 3.54451,-14.9676c5.80536,-5.06248 17.7568,-5.54445 21.79391,-5.54445c3.39251,0 15.74324,-2.37128 21.09113,2.11689c6.84841,5.74747 6.45938,19.01195 6.45938,23.02043c0,7.07165 -3.82087,20.31096 -3.82087,20.31096c0,0 -15.47704,2.21209 -23.12634,2.21209c-7.28084,0 -21.71865,-2.21209 -21.71865,-2.21209z" fill="#ffffd6" stroke="#000000" stroke-width="3" stroke-linecap="butt"/><path d="M308.68224,198.3044c0.16905,-1.32035 0.31732,-2.61102 0.37858,-3.77692c0.02564,-0.48784 -1.44854,-0.21155 -1.40795,-0.67387c0.40467,-4.60998 1.41322,-10.99197 1.30684,-13.83228c-0.21043,-5.61847 -1.07237,-15.99266 -1.07237,-15.99266l7.34652,1.3186" fill="none" stroke="#000000" stroke-width="3" stroke-linecap="round"/><path d="M316.08153,251.87298l-4.6466,-34.56538l1.60202,-3.1091l13.31624,0.12559" fill="none" stroke="#000000" stroke-width="3" stroke-linecap="round"/><path d="M322.73736,165.724l-3.76745,3.13954l-3.17093,-4.83489l-0.56511,-3.57907" fill="none" stroke="#000000" stroke-width="3" stroke-linecap="round"/><path d="M332.56413,162.71006l-8.66513,2.26046l0.56512,-4.52093" fill="none" stroke="#000000" stroke-width="3" stroke-linecap="round"/><path d="M313.91526,165.724l-0.75349,47.09311" fill="none" stroke="#000000" stroke-width="3" stroke-linecap="round"/><path d="M325.09203,166.28914l0.94186,47.65822l1.83032,3.14424l-0.6059,35.28373l9.92095,3.64186l-0.25117,5.27443l-15.32095,-2.51163" fill="none" stroke="#000000" stroke-width="3" stroke-linecap="round"/><path d="M329.78137,196.12758c0.16517,-1.37929 0.34321,-2.85557 0.47238,-4.55744c0.47731,-6.28876 -1.40055,-12.56035 -1.36566,-15.67721c0.04442,-3.96855 2.5458,-12.05263 2.5458,-12.05263" fill="none" stroke="#000000" stroke-width="3" stroke-linecap="round"/><path d="M308.45246,198.87756l3.57907,8.66513" fill="none" stroke="#000000" stroke-width="3" stroke-linecap="round"/><path d="M330.33506,196.36593l-4.7721,10.54886" fill="none" stroke="#000000" stroke-width="3" stroke-linecap="round"/><path d="M320.35132,214.57526l1.25581,43.57682l-11.67909,3.01395l-2.26047,-4.39535l7.66048,-5.02326" fill="none" stroke="#000000" stroke-width="3" stroke-linecap="round"/><path d="M326.25364,250.74276l-10.17211,0.37674" fill="none" stroke="#000000" stroke-width="3" stroke-linecap="round"/><path d="M314.44899,256.01719l-2.13489,-1.75814" fill="none" stroke="#000000" stroke-width="3" stroke-linecap="round"/><path d="M312.06292,256.89624l-1.88372,-1.38139" fill="none" stroke="#000000" stroke-width="3" stroke-linecap="round"/><path d="M331.65366,253.50556l-3.01395,1.50698" fill="none" stroke="#000000" stroke-width="3" stroke-linecap="round"/><path d="M332.78389,255.76603l1.75815,-1.50698" fill="none" stroke="#000000" stroke-width="3" stroke-linecap="round"/><path d="M308.43346,190.66607l4,-5.125" fill="none" stroke="#000000" stroke-width="3" stroke-linecap="round"/><path d="M325.18346,186.79107l4.5,1.875" fill="none" stroke="#000000" stroke-width="3" stroke-linecap="round"/><path d="M306.5152,173.92443v-6.81649l24.59865,0.29637l-0.88911,6.52012z" fill="#fafff2" stroke="none" stroke-width="0" stroke-linecap="butt"/><path d="M306.77329,189.29736l0.88911,-7.11286l23.70955,-0.29637l0.88911,6.81649z" fill="#fafff2" stroke="none" stroke-width="0" stroke-linecap="butt"/><path d="M311.84984,202.07951v-6.22376h15.70757v6.22376z" fill="#fafff2" stroke="none" stroke-width="0" stroke-linecap="butt"/><path d="M311.55347,212.15607v-4.74191h16.00394v4.74191z" fill="#fafff2" stroke="none" stroke-width="0" stroke-linecap="butt"/><path d="M320.76952,238.33162c1.61706,-0.08485 2.9329,-1.53491 4.59117,-1.50727c1.21254,0.02021 2.16853,1.36648 2.32424,2.73314c1.22495,1.89181 0.82098,5.01788 0.72136,6.811c-0.13376,2.40777 -4.66731,2.33169 -6.06266,1.93936c-1.52185,-0.42789 -4.55351,0.85767 -5.96677,-0.40683c-0.86002,-0.76949 -0.49827,-2.25376 -0.724,-3.38548c-0.02948,-0.14783 -0.13469,-0.25886 -0.27531,-0.35152c-0.22753,-0.07227 -0.44094,-0.17622 -0.63506,-0.30667c-0.66787,-0.44882 -1.10733,-1.21133 -1.10733,-2.07648c0,-0.4013 0.09455,-0.78052 0.2626,-1.11659c-0.22383,-0.24461 -0.36216,-0.46884 -0.34167,-0.63274c-0.12378,-0.29635 -0.19214,-0.62161 -0.19214,-0.96284c0,-1.38071 1.11929,-2.5 2.5,-2.5c0.01392,0 0.02782,0.00011 0.04169,0.00034c0.61108,0.00999 1.16884,0.23923 1.59805,0.61248c1.27592,0.51735 2.8902,1.16981 3.26584,1.15009z" fill="#000000" stroke="none" stroke-width="0.5" stroke-linecap="butt"/><path d="M311.66008,217.91378v-4.20386h15.59498v4.20386z" fill="#ffffff" stroke="none" stroke-width="0" stroke-linecap="butt"/><path d="M312.18499,226.57521v-4.20387h15.59498v4.20387z" fill="#ffffff" stroke="none" stroke-width="0" stroke-linecap="butt"/><path d="M315.45711,241.23844v-2.30534c0,0 3.63939,1.76291 5.42434,1.76291c1.83015,0 5.42434,-1.76291 5.42434,-1.76291v2.84778c0,0 -4.05174,1.53998 -5.99146,1.443c-1.61773,-0.08089 -4.85722,-1.98543 -4.85722,-1.98543z" fill="#ffffff" stroke="none" stroke-width="0" stroke-linecap="butt"/><path d="M315.57521,245.42479v-2.30535c0,0 3.63939,1.76291 5.42434,1.76291c1.83015,0 5.42434,-1.76291 5.42434,-1.76291v2.84778c0,0 -4.05173,1.53998 -5.99146,1.443c-1.61773,-0.08088 -4.85722,-1.98543 -4.85722,-1.98543z" fill="#ffffff" stroke="none" stroke-width="0" stroke-linecap="butt"/><path d="M296.07531,130.75933l6.74598,2.51013l25.10131,-2.66701l16.00209,2.35325l19.13975,-4.07896l-10.82494,-21.02235l5.17715,-2.03948l-25.41508,-2.66701l-16.94339,-3.60831l-9.41299,5.02026h-13.49196l-6.74598,8.31481l2.35325,11.13871l-7.37351,21.33612l15.53144,-13.64884" fill="#dafff4" stroke="#000000" stroke-width="4.5" stroke-linecap="round"/><path d="M313.33246,163.39104l-1.56883,23.84625" fill="none" stroke="#000000" stroke-width="4.5" stroke-linecap="round"/><path d="M307.68467,189.74742l2.8239,-2.51013" fill="none" stroke="#000000" stroke-width="4.5" stroke-linecap="round"/><path d="M330.11897,189.59053l-3.13766,-2.51013l-1.25507,-22.59118" fill="none" stroke="#000000" stroke-width="4.5" stroke-linecap="round"/><path d="M312.39116,226.30121l-0.62753,-8.94234l1.8826,-6.43221l-0.9413,-5.49091l1.41195,-18.04157" fill="none" stroke="#000000" stroke-width="4.5" stroke-linecap="round"/><path d="M325.25559,187.86482l1.56883,12.70754" fill="none" stroke="#000000" stroke-width="4.5" stroke-linecap="round"/><path d="M314.27376,209.35782l3.45143,0.78442" fill="none" stroke="#000000" stroke-width="4.5" stroke-linecap="round"/><path d="M314.58753,211.08353l11.92312,-0.31377v-4.86338" fill="none" stroke="#000000" stroke-width="4.5" stroke-linecap="round"/><path d="M326.19689,209.82847l1.8826,4.23585" fill="none" stroke="#000000" stroke-width="4.5" stroke-linecap="round"/><path d="M300.62492,138.60349l18.19845,0.15688l-11.13871,8.15793l-6.11845,-7.05974" fill="#ffffff" stroke="#000000" stroke-width="3" stroke-linecap="round"/><path d="M321.96104,138.13284l18.04157,0.47065l-11.13871,8.78546l-8.00104,-8.62858" fill="#ffffff" stroke="#000000" stroke-width="3" stroke-linecap="round"/><path d="M328.39325,140.95674v2.66701" fill="none" stroke="#000000" stroke-width="3" stroke-linecap="round"/><path d="M308.3122,140.48609v2.19636" fill="none" stroke="#000000" stroke-width="3" stroke-linecap="round"/><path d="M307.99843,152.09545c0,0 0.30169,2.92503 3.23299,3.23996c3.34225,0.35909 15.74988,-1.20048 15.74988,-1.20048" fill="none" stroke="#000000" stroke-width="3" stroke-linecap="round"/></g></g></svg>