<svg version="1.1" xmlns="http://www.w3.org/2000/svg" xmlns:xlink="http://www.w3.org/1999/xlink" width="81.03823" height="163.62742" viewBox="0,0,81.03823,163.62742"><g transform="translate(-278.95259,-98.99946)"><g data-paper-data="{&quot;isPaintingLayer&quot;:true}" fill-rule="nonzero" stroke-linejoin="miter" stroke-miterlimit="10" stroke-dasharray="" stroke-dashoffset="0" style="mix-blend-mode: normal"><path d="M323.66078,168.86413c0.44335,2.21753 1.5649,4.18178 2.47892,6.26008c0.32838,0.07262 0.59864,0.26896 0.77154,0.52981l0.78133,1.17878l-0.08665,0.05744l0.19845,0.15206c0.12059,0.54573 0.23785,1.08119 0.34801,1.60933c0.19832,0.40321 0.37865,0.87916 0.62757,1.37406c1.47446,2.93155 2.92771,5.68805 3.80301,8.85971c0.04213,0.00416 0.08446,0.0105 0.12685,0.0191c0.46385,0.09405 0.81521,0.43369 0.94611,0.85598l0.49822,1.50802l-0.28271,0.0934l0.00108,0.00877c1.27316,2.28017 2.08705,4.88827 2.76832,7.54005c1.67572,3.43907 3.32717,6.85551 4.10813,10.65437l-0.02863,0.08393c0.00672,0.0054 0.01337,0.01087 0.01997,0.0164l0.01713,-0.00077l0.00072,0.01603c0.05852,0.051 0.112,0.10718 0.15983,0.16769l0.9722,1.21213l-0.17404,0.13959c0.80647,0.6285 1.57879,1.29316 2.35802,1.95639c0.85408,0.51659 1.59529,1.11056 2.26638,1.84788c0.17929,0.13557 0.36072,0.26941 0.5447,0.40113l0.1342,-0.14157l1.35365,1.28313c0.27515,0.25239 0.4312,0.6226 0.40269,1.01185l0.06837,-0.06801l1.00341,1.00877c0.29352,0.28662 0.4401,0.71171 0.35251,1.14368c-0.1372,0.67658 -0.79689,1.11385 -1.47348,0.97666c-0.20576,-0.04172 -0.38938,-0.13176 -0.54145,-0.25591l-1.03702,-0.81101l0.09732,-0.12444l-0.05823,-0.05854c-1.76358,-0.81766 -3.34107,-1.73526 -4.78652,-2.80469c0.16342,0.75365 0.24098,1.50634 0.21463,2.26855c0.08743,0.20925 0.16444,0.41068 0.22703,0.60055l0.24193,0.01409l-0.07194,1.23556l0.02801,0.00212l-0.12046,1.58818c-0.00352,0.05751 -0.01106,0.11546 -0.02284,0.17353c-0.1372,0.67658 -0.79689,1.11385 -1.47348,0.97666c-0.29307,-0.05942 -0.54122,-0.21688 -0.71725,-0.43127l-0.81469,-0.97513l0.05414,-0.04523l-0.16574,-0.11142c-0.82816,-1.97627 -2.71421,-5.88867 -2.32857,-8.31873l-0.21541,-0.38639c-0.14291,-0.25277 -0.1989,-0.55622 -0.13666,-0.86315c0.04382,-0.21609 0.14094,-0.40777 0.27488,-0.56412c-0.17045,-0.61241 -0.34591,-1.22361 -0.53319,-1.82968c-0.16461,-0.14131 -0.25494,-0.27759 -0.25494,-0.27759l-0.27147,-0.4535c-0.83336,-2.06645 -1.64566,-3.35561 -1.98665,-5.0028c-0.03857,-0.05967 -0.07757,-0.11911 -0.11703,-0.17831l0.07374,-0.04726c-0.00369,-0.02087 -0.00731,-0.04179 -0.01085,-0.06278l-0.09619,0.04943l-0.08062,-0.15688l-0.25017,0.06751l-0.34301,-1.27102c-0.05511,-0.18841 -0.06651,-0.39261 -0.02479,-0.59837c0.00986,-0.04864 0.02243,-0.09604 0.0375,-0.14208c-0.7922,-1.34571 -1.44861,-2.77947 -2.03171,-4.25491c-3.13301,-4.81851 -4.72103,-10.48928 -6.57479,-15.87523c-0.65882,-1.91413 -1.22385,-3.12688 -1.50658,-4.57041c-0.03747,-0.09041 -0.07475,-0.18053 -0.11183,-0.27034l-0.31651,0.08542l-0.45953,-1.70279c-0.05511,-0.18841 -0.06651,-0.39261 -0.02479,-0.59837c0.04046,-0.19953 0.12636,-0.37825 0.24474,-0.52756c-0.28986,-0.62844 -0.58977,-1.25307 -0.90736,-1.87109l-0.21155,-0.67741c0,0 -0.09411,-0.34873 0.00631,-0.72186c-0.16228,-0.47726 -0.30215,-0.96518 -0.40994,-1.46865c0,0 -0.25426,-1.22386 0.96961,-1.47812c1.22386,-0.25426 1.47812,0.96961 1.47812,0.96961z" data-paper-data="{&quot;index&quot;:null}" fill="#ffffd6" stroke="none" stroke-width="0.5" stroke-linecap="butt"/><path d="M342.01884,224.51472l-5.00594,-5.5046l-1.62044,-10.12394l-15.78189,-38.91236" data-paper-data="{&quot;index&quot;:null}" fill="none" stroke="#000000" stroke-width="3" stroke-linecap="round"/><path d="M324.20644,167.43654l17.23075,39.81835l1.95197,3.45685l7.5884,7.86487l-1.84902,2.07392l-6.6192,-3.58694l2.69084,5.85144l-1.8463,1.05412" data-paper-data="{&quot;index&quot;:null}" fill="none" stroke="#000000" stroke-width="3" stroke-linecap="round"/><path d="M318.58413,172.1924c-1.6685,1.52647 -2.76943,3.50235 -4.07531,5.35961c0.1077,0.31861 0.07947,0.65146 -0.05434,0.93436l-0.60469,1.27842l-0.09398,-0.04445l-0.02749,0.24849c-0.40467,0.38549 -0.80228,0.76282 -1.1973,1.13028c-0.2425,0.37829 -0.55656,0.77881 -0.85135,1.24783c-1.74623,2.77825 -3.35362,5.4478 -5.61527,7.83748c0.01822,0.03821 0.03469,0.07771 0.04926,0.11844c0.15944,0.44562 0.05052,0.92201 -0.24319,1.25247l-1.0329,1.20642l-0.22617,-0.19364l-0.00695,0.00546c-1.29288,2.26904 -3.10398,4.31465 -5.02106,6.26936c-2.07648,3.21302 -4.14614,6.39356 -6.99336,9.02692l-0.08664,0.01892c-0.00115,0.00854 -0.00239,0.01706 -0.00371,0.02557l0.00952,0.01426l-0.01334,0.00891c-0.01337,0.07646 -0.0338,0.15129 -0.06084,0.22352l-0.53449,1.45902l-0.20949,-0.07674c-0.12074,1.0153 -0.29008,2.02007 -0.45463,3.03002c-0.00034,0.99815 -0.12528,1.93973 -0.40917,2.89546c-0.02328,0.22356 -0.04398,0.44806 -0.06155,0.67365l0.19057,0.04162l-0.39795,1.8222c-0.07368,0.36603 -0.3098,0.69108 -0.65768,0.86802l0.09358,0.02334l-0.34431,1.38055c-0.09347,0.39946 -0.38146,0.74478 -0.79646,0.89326c-0.65,0.23255 -1.36546,-0.10585 -1.59802,-0.75586c-0.07072,-0.19767 -0.08864,-0.4014 -0.06105,-0.59576l0.15768,-1.30701l0.15684,0.01892l0.01998,-0.08011c-0.21245,-1.93226 -0.24311,-3.75696 -0.07553,-5.54719c-0.56047,0.52969 -1.16452,0.9854 -1.83047,1.35711c-0.13386,0.18306 -0.26642,0.35316 -0.39654,0.50494l0.11308,0.21433l-1.09464,0.57754l0.01267,0.02507l-1.42152,0.71841c-0.05103,0.02673 -0.10453,0.05025 -0.16032,0.07021c-0.65,0.23255 -1.36546,-0.10585 -1.59802,-0.75586c-0.10074,-0.28155 -0.09434,-0.57538 -0.00191,-0.83692l0.41314,-1.20163l0.06672,0.02294l0.00963,-0.19948c1.26297,-1.731 3.63575,-5.36886 5.91494,-6.29579l0.21927,-0.38421c0.1424,-0.25306 0.37315,-0.45793 0.66802,-0.56343c0.2076,-0.07428 0.42188,-0.09031 0.62497,-0.05655c0.43594,-0.46264 0.86827,-0.92896 1.29009,-1.40273c0.03579,-0.21397 0.1057,-0.36177 0.1057,-0.36177l0.2477,-0.46691c1.33746,-1.78211 2.02059,-3.14413 3.25393,-4.28798c0.03112,-0.06387 0.06181,-0.128 0.09207,-0.19239l0.07859,0.03866c0.01595,-0.01394 0.03199,-0.02786 0.04812,-0.04175l-0.09206,-0.05675l0.09257,-0.15014l-0.18718,-0.17918l0.91035,-0.95101c0.13274,-0.14462 0.30161,-0.26001 0.49928,-0.33073c0.04673,-0.01672 0.09379,-0.03049 0.14099,-0.0414c0.74193,-1.37407 1.62944,-2.67747 2.59056,-3.93969c2.50325,-5.17373 6.53505,-9.46606 10.18563,-13.83849c1.29739,-1.55393 2.04303,-2.66481 3.1322,-3.65345c0.05798,-0.07883 0.11583,-0.15735 0.17351,-0.23554l-0.23682,-0.22669l1.2196,-1.27406c0.13274,-0.14462 0.30161,-0.26001 0.49928,-0.33073c0.19169,-0.06858 0.38908,-0.08751 0.57809,-0.06343c0.38791,-0.57315 0.76735,-1.15291 1.132,-1.74439l0.47032,-0.53145c0,0 0.24978,-0.26093 0.62106,-0.36799c0.32451,-0.38576 0.66974,-0.75783 1.04487,-1.11051c0,0 0.9159,-0.85065 1.76656,0.06525c0.85065,0.9159 -0.06525,1.76656 -0.06525,1.76656z" data-paper-data="{&quot;index&quot;:null}" fill="#ffffd6" stroke="none" stroke-width="0.5" stroke-linecap="butt"/><path d="M314.2074,198.75971c-0.04898,1.02871 -0.3318,2.01389 -0.75302,2.8028c-0.12678,-1.93001 -0.35031,-3.84044 -0.61638,-5.74993c-0.01234,-0.29385 -0.01959,-0.56662 -0.01959,-0.81259c0,-2.33026 0.01034,-4.65709 0.01235,-6.98114c0.3301,0.20841 0.59251,0.52948 0.73769,0.98116c0.93627,2.91285 0.5625,6.45306 0.5625,9.37745z" data-paper-data="{&quot;index&quot;:null}" fill="#ffffd6" stroke="none" stroke-width="0.5" stroke-linecap="butt"/><path d="M325.55533,189.75309c0.13707,-0.67966 0.54981,-1.25948 1.11654,-1.61776c0.25897,3.74662 0.55621,7.49202 0.73502,11.21487c0.00347,0.11815 0.00797,0.23564 0.0136,0.35239c-2.18917,-1.13397 -2.30398,-7.54925 -1.87732,-9.8848c0.00378,-0.02166 0.00783,-0.04323 0.01216,-0.06469z" data-paper-data="{&quot;index&quot;:null}" fill="#ffffd6" stroke="none" stroke-width="0.5" stroke-linecap="butt"/><path d="M313.89232,185.48373c-0.21887,0.56823 -0.60012,1.06563 -1.0613,1.4272c-0.00316,-6.59355 -0.0974,-13.16545 -0.70977,-19.73026c0.43309,-0.10566 1.22264,-0.39346 1.65303,-1.13603c0.03896,0.10169 0.07574,0.20177 0.11039,0.29927c0.01854,-0.0316 0.03812,-0.06291 0.05878,-0.09389c2.33865,-3.50797 4.3278,0.85642 5.84819,2.25016c0.85258,0.78156 1.2335,-2.22366 2.33931,-2.56266c1.43312,-0.43934 3.14732,-1.59656 4.82379,-2.5039c-0.08835,0.25584 -0.13633,0.5305 -0.13633,0.81638c0,0.27591 0.04471,0.54138 0.12725,0.78957c-1.10211,7.06484 -0.85318,14.28973 -0.37993,21.52123c-0.11539,-0.0746 -0.22321,-0.15198 -0.32152,-0.23067c-0.32118,-0.25709 -2.02193,-1.40089 -2.07399,-1.23716c-0.88989,2.79903 0.85131,3.5792 0.85131,5.92179c0,2.77973 0.91928,5.86558 1.21574,8.75509c0.39367,3.83696 0.1471,7.48038 -0.34074,11.0904c-0.61487,4.55003 -9.24587,5.22196 -11.89058,2.57726c-2.48707,-2.48705 0.3993,-3.20219 -0.65669,-5.53021l0.2128,-2.97918l-0.03402,-0.00243l0.03878,-0.08658c-0.00075,-1.7277 -0.10059,-3.43201 -0.26225,-5.12572c0.24557,-3.9461 0.55355,-7.9662 0.57638,-11.88301c0.00456,-0.78222 0.00832,-1.56444 0.01137,-2.34667z" data-paper-data="{&quot;index&quot;:null}" fill="#ffffff" stroke="none" stroke-width="0.5" stroke-linecap="butt"/><path d="M313.16624,230.04355c-0.4475,-2.75966 -0.07757,-5.77553 -0.41028,-8.56811c-0.12709,-1.06671 -1.49887,-3.35549 -1.25,-4.47543c1.18869,-5.34912 14.53917,-5.14033 16.0625,-0.875c1.53564,4.2998 -0.03792,9.58826 -0.1875,13.99969c-0.12286,3.62358 0.43112,7.06407 0.21389,10.76975c-0.13398,2.28554 0.18175,6.0643 -0.90139,8.23057c-1.37105,2.7421 -3.77847,0.52344 -5.78078,1.19448c-4.46855,1.49757 -7.36251,-1.85782 -5.73858,-6.7296c-0.02832,-0.15063 -0.04314,-0.30603 -0.04314,-0.46488c0,-0.07879 0.00365,-0.15673 0.01078,-0.23367c0.15484,-4.05409 -1.31134,-8.75204 -1.97549,-12.8478z" data-paper-data="{&quot;index&quot;:null}" fill="#ff0000" stroke="none" stroke-width="0.5" stroke-linecap="butt"/><path d="M319.54358,157.52131c0.72138,0.05266 1.1627,0.86078 1.73769,1.29959c0.16734,0.12771 1.30021,-0.75666 2.54778,0.52134c1.94393,1.99134 -1.61228,8.68948 -4.49999,8.52905c-2.75794,-0.15322 -3.66756,-4.35369 -3.64704,-6.47488c0.00236,-0.24371 -0.0529,-2.23394 0.44792,-2.46271l1.52991,-0.78448c0.06043,0 0.1202,0.00285 0.17917,0.00841c0.58014,-0.03841 1.10547,-0.68005 1.70455,-0.63632z" data-paper-data="{&quot;index&quot;:null}" fill="#ffffd6" stroke="none" stroke-width="0.5" stroke-linecap="butt"/><path d="M313.14173,252.01092c1.23703,-0.53784 3.29385,0.16513 4.39282,-0.42898c0.59616,-0.32228 0.86567,-0.89081 1.77813,-0.89081c0.50556,0 1.27658,0.62944 1.65309,0.56665c2.252,-0.37559 3.81047,-1.1736 6.07605,-0.6072c0.87185,0.21796 0.95538,1.44429 1.3811,1.6516c0.69558,0.33873 2.09852,-0.18571 2.96059,-0.07043c2.37446,0.31754 6.29783,2.38183 5.74149,5.50369c-0.65294,3.66388 -9.83986,0.98782 -12.53916,0.46824c-1.1838,-0.22787 -2.59038,-1.33343 -3.56288,-0.62099c-0.76001,0.55677 -6.5524,2.70725 -8.18067,3.23604c-0.58066,0.18858 -1.83874,-0.10851 -2.88434,-0.57896c-0.67602,-0.05939 -1.24958,-0.47586 -1.53092,-1.05966c-0.08337,-0.12187 -0.12956,-0.24227 -0.12956,-0.35806c-0.03674,-0.14683 -0.05624,-0.30049 -0.05624,-0.45871c0,-0.3018 0.07097,-0.58702 0.19714,-0.83988c0.70009,-2.15378 2.88645,-4.72259 4.70337,-5.51255z" data-paper-data="{&quot;index&quot;:null}" fill="#ffffff" stroke="none" stroke-width="0.5" stroke-linecap="butt"/><path d="M299.83136,157.38554c0,0 -4.22307,-17.29411 -4.22307,-24.93623c0,-2.75768 -0.95763,-11.04158 3.54451,-14.9676c5.80536,-5.06248 17.7568,-5.54445 21.79391,-5.54445c3.39251,0 15.74324,-2.37128 21.09113,2.11689c6.84841,5.74747 6.45938,19.01195 6.45938,23.02043c0,7.07165 -3.82087,20.31096 -3.82087,20.31096c0,0 -15.47704,2.21209 -23.12634,2.21209c-7.28084,0 -21.71865,-2.21209 -21.71865,-2.21209z" data-paper-data="{&quot;index&quot;:null}" fill="#ffffd6" stroke="#000000" stroke-width="3" stroke-linecap="butt"/><path d="M320.59532,136.51779l-21.09771,-0.37674" data-paper-data="{&quot;index&quot;:null}" fill="none" stroke="#000000" stroke-width="3" stroke-linecap="round"/><path d="M319.55926,137.36547l0.28256,8.1942l-12.62095,-0.56512v-8.28839l8.75932,0.18837" data-paper-data="{&quot;index&quot;:null}" fill="none" stroke="#000000" stroke-width="3" stroke-linecap="round"/><path d="M311.836,137.55384l0.47093,6.31047" data-paper-data="{&quot;index&quot;:null}" fill="none" stroke="#000000" stroke-width="3" stroke-linecap="round"/><path d="M312.68368,137.64801l3.48489,6.68722" data-paper-data="{&quot;index&quot;:null}" fill="none" stroke="#000000" stroke-width="3" stroke-linecap="round"/><path d="M316.35695,142.45151l-3.29651,0.28256" data-paper-data="{&quot;index&quot;:null}" fill="none" stroke="#000000" stroke-width="3" stroke-linecap="round"/><path d="M311.89011,136.98872l3.33659,4.52093l-3.48489,-2.34741" data-paper-data="{&quot;index&quot;:null}" fill="none" stroke="#000000" stroke-width="3" stroke-linecap="round"/><path d="M312.21274,142.92246l5.74536,1.13023" data-paper-data="{&quot;index&quot;:null}" fill="none" stroke="#000000" stroke-width="3" stroke-linecap="round"/><path d="M317.01625,142.54571l-0.47093,-3.95582" data-paper-data="{&quot;index&quot;:null}" fill="none" stroke="#000000" stroke-width="3" stroke-linecap="round"/><path d="M318.35184,136.5394c1.72467,0.91977 1.03707,5.89512 1.01907,6.85398c-0.03575,1.90416 -2.04149,1.97469 -3.31526,1.24682c-0.79595,-0.45482 -0.52965,-2.88253 -2.17374,-4.1156c-0.84674,-0.18452 -1.48078,-0.93848 -1.48078,-1.84053c0,-0.65172 0.33096,-1.22613 0.83398,-1.56435c1.27816,-1.15704 3.68896,-1.34175 5.11673,-0.58032z" data-paper-data="{&quot;index&quot;:null}" fill="#000000" stroke="none" stroke-width="0.5" stroke-linecap="butt"/><path d="M308.82205,143.39338l0.28256,-5.83954" data-paper-data="{&quot;index&quot;:null}" fill="none" stroke="#ffffff" stroke-width="3" stroke-linecap="round"/><path d="M310.61157,143.86432l-0.6593,-6.78141" data-paper-data="{&quot;index&quot;:null}" fill="none" stroke="#ffffff" stroke-width="3" stroke-linecap="round"/><path d="M315.41508,144.80619l-8.10001,-0.65931l0.18837,-7.62909h7.81745" data-paper-data="{&quot;index&quot;:null}" fill="none" stroke="#000000" stroke-width="3" stroke-linecap="round"/><path d="M323.32672,136.51779l21.09771,0.37674" data-paper-data="{&quot;index&quot;:null}" fill="none" stroke="#000000" stroke-width="3" stroke-linecap="round"/><path d="M343.38838,137.74221l0.28256,8.1942l-12.62095,-0.56512v-8.28839l8.75932,0.18837" data-paper-data="{&quot;index&quot;:null}" fill="none" stroke="#000000" stroke-width="3" stroke-linecap="round"/><path d="M335.6651,137.93059l0.47093,6.31047" data-paper-data="{&quot;index&quot;:null}" fill="none" stroke="#000000" stroke-width="3" stroke-linecap="round"/><path d="M339.99767,144.71199l-3.48488,-6.68722" data-paper-data="{&quot;index&quot;:null}" fill="none" stroke="#000000" stroke-width="3" stroke-linecap="round"/><path d="M340.18606,142.82827l-3.29651,0.28256" data-paper-data="{&quot;index&quot;:null}" fill="none" stroke="#000000" stroke-width="3" stroke-linecap="round"/><path d="M336.09597,137.64801l3.33659,4.52094l-3.48489,-2.34741" data-paper-data="{&quot;index&quot;:null}" fill="none" stroke="#000000" stroke-width="3" stroke-linecap="round"/><path d="M341.78722,144.42943l-5.74536,-1.13023" data-paper-data="{&quot;index&quot;:null}" fill="none" stroke="#000000" stroke-width="3" stroke-linecap="round"/><path d="M340.37443,138.96664l0.47093,3.95582" data-paper-data="{&quot;index&quot;:null}" fill="none" stroke="#000000" stroke-width="3" stroke-linecap="round"/><path d="M342.18095,136.91615c1.72467,0.91977 1.03707,5.89512 1.01906,6.85398c-0.03575,1.90416 -2.04149,1.97469 -3.31526,1.24682c-0.79595,-0.45482 -0.52965,-2.88253 -2.17374,-4.1156c-0.84674,-0.18452 -1.48078,-0.93848 -1.48078,-1.84053c0,-0.65172 0.33096,-1.22613 0.83398,-1.56435c1.27816,-1.15704 3.68896,-1.34175 5.11673,-0.58032z" data-paper-data="{&quot;index&quot;:null}" fill="#000000" stroke="none" stroke-width="0.5" stroke-linecap="butt"/><path d="M332.65115,143.77013l0.28256,-5.83954" data-paper-data="{&quot;index&quot;:null}" fill="none" stroke="#ffffff" stroke-width="3" stroke-linecap="round"/><path d="M333.78139,137.45966l0.6593,6.78141" data-paper-data="{&quot;index&quot;:null}" fill="none" stroke="#ffffff" stroke-width="3" stroke-linecap="round"/><path d="M339.2442,145.18293l-8.10002,-0.65931l0.18837,-7.62909h7.81745" data-paper-data="{&quot;index&quot;:null}" fill="none" stroke="#000000" stroke-width="3" stroke-linecap="round"/><path d="M313.53135,153.5655l9.23025,-0.09418" data-paper-data="{&quot;index&quot;:null}" fill="none" stroke="#000000" stroke-width="3" stroke-linecap="round"/><path d="M359.19053,131.707l-0.14343,0.08367l0.33475,0.37387c-0.00225,1.08935 0.25677,2.21105 -0.00676,3.26804c-0.71879,2.88303 -2.2179,2.17152 -3.38575,4.87996c-0.35102,0.81408 0.47941,2.11992 -0.23157,2.64948c-3.88254,2.89185 -7.27805,-0.98608 -8.27893,-4.08709c-0.70971,-2.19889 -0.2384,-4.21848 0.48796,-6.24106c-0.25105,-0.06961 -0.50104,-0.12914 -0.74983,-0.17417c-3.58292,0.01273 -7.14706,0.81201 -10.69644,0.56847c-2.81241,-0.19297 -5.53,-1.08522 -8.33581,-1.32258c-3.05575,-0.25851 -4.09995,-0.08766 -7.25629,-0.51532c-2.96979,-0.40239 -4.99482,-1.68098 -8.136,-1.37636c-1.5576,0.15105 -4.04694,1.65645 -5.14212,2.00023c-1.29235,0.40566 -2.64449,0.59712 -3.98279,0.80613c-2.21245,0.34553 -3.6248,-0.5318 -5.53875,-0.60573c1.33415,2.72128 1.63634,5.98327 1.54783,8.90538l0.74466,1.34037c0.16131,0.27772 0.25367,0.60044 0.25367,0.94473c0,0.69725 -0.37882,1.30601 -0.94186,1.63172v1.00549c0,1.04035 -0.84338,1.88372 -1.88373,1.88372c-0.74135,0 -1.38266,-0.42825 -1.69007,-1.05086l-0.91271,-1.75747c-1.192,0.19968 -1.85833,-0.9664 -1.85833,-0.9664l-0.08542,-0.17781c-0.82137,-0.74195 -1.56986,-2.11574 -2.13529,-3.24841c-0.52376,-0.01525 -1.03774,-0.0702 -1.51691,-0.26643c-3.08562,-1.26363 -3.40458,-3.8018 -2.65153,-6.47753c-0.20715,-0.82715 -0.26448,-1.88197 -0.13702,-3.21786c0.0281,-0.29451 0.18298,-0.52439 0.39897,-0.7251c-3.80262,0.2981 -6.30821,-0.23036 -6.36438,-4.58475c-0.0328,-2.54237 1.23406,-4.29673 2.95379,-5.7228c0.46659,-0.84575 1.22511,-1.71413 2.13053,-2.44444c0.55139,-1.30416 1.17433,-2.57207 1.88773,-3.83643l0.23282,-0.13668l-0.06095,-0.06095l1.69535,-1.69535v0c0.21044,-0.21044 0.47044,-0.37132 0.761,-0.46363c1.16084,-2.14751 2.69086,-4.01431 5.22521,-4.88075c1.03573,-0.3541 2.31551,-0.64049 3.28138,-0.12548c0.79683,0.42488 0.21672,2.37041 1.11433,2.46931c0.78591,0.0866 0.29874,-1.5809 0.68442,-2.27112c1.56335,-2.79781 3.75449,-5.06529 7.01117,-5.59837c1.27957,-0.20945 2.62268,-0.62494 3.87814,-0.30093c0.71808,0.18533 0.76128,1.43049 1.46014,1.67865c0.80797,0.28691 2.99304,-1.38887 3.47817,-1.6135c2.25119,-1.04236 5.0758,-1.69421 7.53113,-0.89462c0.81736,0.26618 0.80707,1.57717 1.48032,2.11165c1.98197,1.57344 2.74417,0.96118 4.89146,0.54316c2.42854,-0.85656 4.70167,-1.88804 7.38503,-1.75021c3.30064,0.16953 4.71681,2.59696 7.04773,4.28628c0.2246,-0.09456 0.47138,-0.14683 0.73037,-0.14683c0.66422,0 1.24815,0.34378 1.58356,0.86313l0.26758,0.40138c1.04552,0.20455 2.13932,0.29867 3.0702,0.787c2.51583,1.31979 5.91825,5.6709 6.69752,8.58995c0.37646,1.4102 -0.20546,3.10201 0.03866,4.5209c0.4596,2.67125 3.49963,6.09339 2.39881,8.8986c-0.29573,0.7536 -0.73392,1.44133 -1.2381,2.08629zM352.96619,140.47461c0.00849,0.01026 0.01142,0.00865 0.00743,-0.00872c-0.00247,0.00292 -0.00495,0.00582 -0.00743,0.00872z" data-paper-data="{&quot;index&quot;:null}" fill="#29241d" stroke="none" stroke-width="0.5" stroke-linecap="butt"/><path d="M315.55636,165.05621l-1.48329,-0.26623" data-paper-data="{&quot;index&quot;:null}" fill="none" stroke="#000000" stroke-width="3" stroke-linecap="round"/><path d="M316.40402,251.58193l-4.6466,-34.56538l1.60202,-3.1091l13.31624,0.12559" data-paper-data="{&quot;index&quot;:null}" fill="none" stroke="#000000" stroke-width="3" stroke-linecap="round"/><path d="M323.05985,165.43294l-3.76745,3.13954l-3.17093,-4.83489l-0.56511,-3.57907" data-paper-data="{&quot;index&quot;:null}" fill="none" stroke="#000000" stroke-width="3" stroke-linecap="round"/><path d="M326.83088,163.99875l-2.60939,0.68071l0.56512,-4.52093" data-paper-data="{&quot;index&quot;:null}" fill="none" stroke="#000000" stroke-width="3" stroke-linecap="round"/><path d="M313.48427,212.52605c0,0 -0.89395,-8.42812 -0.81562,-13.32404c0.00688,-0.43015 0.63063,-0.49924 0.66875,-1.00246c0.44626,-5.89098 -0.73732,-17.05835 -0.33835,-24.554c0.24845,-4.66771 1.23871,-8.2126 1.23871,-8.2126" data-paper-data="{&quot;index&quot;:null}" fill="none" stroke="#000000" stroke-width="3" stroke-linecap="round"/><path d="M330.10252,170.94752l-2.888,-5.14944c0,0 -0.48641,6.14759 -0.39794,10.62419c0.09213,4.66178 -0.11157,17.0777 -0.31638,25.78612c-0.17152,7.29284 1.65618,11.24791 1.65618,11.24791l1.83032,3.14424l-0.6059,35.28373l9.92095,3.64186l-0.25117,5.27443l-15.32095,-2.51163" data-paper-data="{&quot;index&quot;:null}" fill="none" stroke="#000000" stroke-width="3" stroke-linecap="round"/><path d="M326.94341,177l2.43477,4.68784" data-paper-data="{&quot;index&quot;:null}" fill="none" stroke="#000000" stroke-width="3" stroke-linecap="round"/><path d="M327.53829,202.97009l-1.65284,3.65364" data-paper-data="{&quot;index&quot;:null}" fill="none" stroke="#000000" stroke-width="3" stroke-linecap="round"/><path d="M320.67381,214.2842l1.25581,43.57682l-11.67909,3.01395l-2.26047,-4.39535l7.66048,-5.02326" data-paper-data="{&quot;index&quot;:null}" fill="none" stroke="#000000" stroke-width="3" stroke-linecap="round"/><path d="M316.40402,250.82845l10.17211,-0.37674" data-paper-data="{&quot;index&quot;:null}" fill="none" stroke="#000000" stroke-width="3" stroke-linecap="round"/><path d="M312.6366,253.96799l2.13489,1.75814" data-paper-data="{&quot;index&quot;:null}" fill="none" stroke="#000000" stroke-width="3" stroke-linecap="round"/><path d="M312.38541,256.6052l-1.88372,-1.38139" data-paper-data="{&quot;index&quot;:null}" fill="none" stroke="#000000" stroke-width="3" stroke-linecap="round"/><path d="M328.9622,254.72148l3.01395,-1.50698" data-paper-data="{&quot;index&quot;:null}" fill="none" stroke="#000000" stroke-width="3" stroke-linecap="round"/><path d="M333.10638,255.47497l1.75815,-1.50698" data-paper-data="{&quot;index&quot;:null}" fill="none" stroke="#000000" stroke-width="3" stroke-linecap="round"/><path d="M326.59156,186.95235l-1.0856,-0.45234" data-paper-data="{&quot;index&quot;:null}" fill="none" stroke="#000000" stroke-width="3" stroke-linecap="round"/><path d="M315.27677,189.66668v-10.11111h4v10.11111z" data-paper-data="{&quot;index&quot;:null}" fill="#000000" stroke="none" stroke-width="0" stroke-linecap="butt"/><path d="M324.72123,184.72223c0,2.48528 -1.34314,4.5 -3,4.5c-1.65686,0 -3,-2.01472 -3,-4.5c0,-2.48528 1.34314,-4.5 3,-4.5c1.65686,0 3,2.01472 3,4.5z" data-paper-data="{&quot;index&quot;:null}" fill="#000000" stroke="none" stroke-width="0" stroke-linecap="butt"/><path d="M320.11646,194.16775l-5.01269,-4.89104" data-paper-data="{&quot;index&quot;:null}" fill="none" stroke="#000000" stroke-width="0.5" stroke-linecap="round"/><path d="M319.10145,195.20744c-3.78264,-4.41308 2.82119,-7.86517 4.94308,-4.53075c2.66095,4.18149 -3.19159,7.20659 -4.89262,4.53356z" data-paper-data="{&quot;index&quot;:null}" fill="#000000" stroke="none" stroke-width="0.5" stroke-linecap="butt"/><path d="M323.82062,186.57402c0.29297,0.88619 -0.92222,1.09984 -0.92222,1.09984l-2.07465,0.10044c-0.62804,-0.29358 -1.40178,-0.46573 -1.88412,-0.88074c-0.46031,-0.39605 -1.06516,-2.35336 -1.87873,-0.70646c0,0 -0.60135,0.79916 -1.69719,0.36062c-1.09585,-0.43854 -0.4945,-1.2377 -0.4945,-1.2377c1.23925,-1.41236 3.33766,-2.30657 5.46134,-0.77823c0.6864,0.49397 0.90475,1.35277 1.76377,1.67236l0.21816,-0.30267c0,0 1.21519,-0.21364 1.50815,0.67255z" data-paper-data="{&quot;index&quot;:null}" fill="#313131" stroke="none" stroke-width="0.5" stroke-linecap="butt"/><path d="M317.96429,195.16667c-0.75,-1 0.25,-1.75 0.25,-1.75l1,-0.75c0,0 0.07409,-0.05557 0.19707,-0.11629c1.15173,-1.29906 2.24145,-1.23074 4.05293,-0.00871l0.56085,0.97972c0,0 0.39528,1.18585 -0.79057,1.58114c-0.97619,0.3254 -1.41665,-0.42067 -1.54189,-0.69466c-0.29893,-0.07279 -0.68352,-0.00138 -0.7607,0.24086c0,0 -0.38207,0.68773 -1.08559,0.66887l-0.1321,0.09908c0,0 -1,0.75 -1.75,-0.25zM321.88604,194.48385l0.07825,0.05782c-0.02288,-0.02133 -0.04921,-0.04062 -0.07825,-0.05782z" data-paper-data="{&quot;index&quot;:null}" fill="#313131" stroke="none" stroke-width="0.5" stroke-linecap="butt"/><path d="M316.45656,192.85659c1.0474,0.23475 1.05292,1.0621 1.01385,1.38122c0.19471,0.04933 0.40087,0.05243 0.57364,-0.00424c0,0 1.32895,-0.18726 1.53032,1.04863c0.20137,1.23589 -1.12758,1.42316 -1.12758,1.42316c-1.19861,0.08663 -2.5148,-0.30988 -3.43113,-1.03363l-0.18074,-1.8928c0,0 0.31493,-1.21521 1.62164,-0.92234zM317.15387,194.10909l-0.25352,-0.22005c0.06373,0.08567 0.15165,0.16005 0.25352,0.22005z" data-paper-data="{&quot;index&quot;:null}" fill="#9b9b9b" stroke="none" stroke-width="0.5" stroke-linecap="butt"/><path d="M280.45259,216.68946l2.12163,-7.13153l7.82618,-6.62351l25.13903,-33.63434" data-paper-data="{&quot;index&quot;:null}" fill="none" stroke="#000000" stroke-width="3" stroke-linecap="round"/><path d="M320.08818,171.92093l-25.16498,35.34295l-1.9488,3.45864l-2.80583,10.56254l-2.73134,-0.50969l-0.35402,-7.52028l-3.61598,5.32961l-1.85716,-1.03487" data-paper-data="{&quot;index&quot;:null}" fill="none" stroke="#000000" stroke-width="3" stroke-linecap="round"/><path d="M316.47355,175.15761c-1.00801,2.02962 -1.28707,2.88714 -2.4191,3.61137l0.24968,0.29688l-1.53277,1.00663c-0.10153,0.06961 -0.21462,0.12918 -0.33796,0.17613c-0.74458,0.28343 -1.581,-0.00049 -1.86819,-0.63415c-0.15917,-0.35119 -0.11623,-0.7361 0.08043,-1.05773l1.00631,-1.66884c0.55036,-0.90283 1.28875,-1.66557 2.01367,-2.41102c-0.00875,-0.37664 0.1451,-0.88707 0.92645,-1.18449c0.08599,-0.03273 0.16862,-0.05871 0.24796,-0.07866c0.50159,-0.59387 0.92673,-1.21896 1.18113,-1.93276c0,0 0.48257,-1.20511 1.8446,-0.84807c1.36203,0.35704 0.87946,1.56215 0.87946,1.56215c-0.56129,1.30344 -1.39941,2.23345 -2.27169,3.16256z" data-paper-data="{&quot;index&quot;:null}" fill="#ffffd6" stroke="none" stroke-width="0.5" stroke-linecap="butt"/></g></g></svg>