<svg version="1.1" xmlns="http://www.w3.org/2000/svg" xmlns:xlink="http://www.w3.org/1999/xlink" width="977.99841" height="978.83625" viewBox="0,0,977.99841,978.83625"><g transform="translate(121.9992,310.89889)"><g data-paper-data="{&quot;isPaintingLayer&quot;:true}" fill-rule="nonzero" stroke-linejoin="miter" stroke-miterlimit="10" stroke-dasharray="" stroke-dashoffset="0" style="mix-blend-mode: normal"><path d="M-72.25438,384v-448h733.75439v448z" data-paper-data="{&quot;index&quot;:null}" fill="#00e6ff" stroke="#000000" stroke-width="2" stroke-linecap="butt"/><path d="M181.03428,338.90562l-15.84833,-57.3404l38.22691,-10.56555l15.84833,57.3404z" data-paper-data="{&quot;index&quot;:null}" fill="#000000" stroke="#000000" stroke-width="2" stroke-linecap="butt"/><path d="M111.18953,221.09551l-28.14639,-101.83565l110.04822,-30.41626l28.14639,101.83565z" data-paper-data="{&quot;index&quot;:null}" fill="#000000" stroke="#000000" stroke-width="2" stroke-linecap="butt"/><path d="M163.58124,283.82929l-25.42255,-91.9806l39.42025,-10.89538l25.42255,91.9806z" data-paper-data="{&quot;index&quot;:null}" fill="#000000" stroke="#000000" stroke-width="2" stroke-linecap="butt"/><path d="M140.11953,262.91011l-12.2573,-44.34779l20.53139,-5.67468l12.2573,44.34779z" data-paper-data="{&quot;index&quot;:null}" fill="#000000" stroke="#000000" stroke-width="2" stroke-linecap="butt"/><path d="M192.08561,249.43117l-14.98114,-54.20284l27.92268,-7.71756l14.98114,54.20285z" data-paper-data="{&quot;index&quot;:null}" fill="#000000" stroke="#000000" stroke-width="2" stroke-linecap="butt"/><path d="M114.77575,215.99137l-24.5146,-88.69557l98.55063,-27.23844l24.5146,88.69557z" data-paper-data="{&quot;index&quot;:null}" fill="#fff7bd" stroke="#000000" stroke-width="2" stroke-linecap="butt"/><path d="M104.33434,178.21361l-13.16524,-47.6328l30.38645,-8.39853l13.16525,47.6328z" data-paper-data="{&quot;index&quot;:null}" fill="#560e00" stroke="#000000" stroke-width="2" stroke-linecap="butt"/><path d="M172.27154,158.55243l-12.71127,-45.99029l32.02896,-8.8525l12.71128,45.9903z" data-paper-data="{&quot;index&quot;:null}" fill="#560e00" stroke="#000000" stroke-width="2" stroke-linecap="butt"/><path d="M96.85418,150.46953l-6.35563,-22.99513l98.55063,-27.23844l6.35563,22.99513z" data-paper-data="{&quot;index&quot;:null}" fill="#560e00" stroke="#000000" stroke-width="2" stroke-linecap="butt"/><path d="M131.27496,189.33133l-6.58262,-23.81639l21.35264,-5.90167l6.58263,23.8164z" data-paper-data="{&quot;index&quot;:null}" fill="#ffffff" stroke="#000000" stroke-width="2" stroke-linecap="butt"/><path d="M162.48266,180.70582l-6.58262,-23.81639l22.99514,-6.35563l6.58263,23.8164z" data-paper-data="{&quot;index&quot;:null}" fill="#ffffff" stroke="#000000" stroke-width="2" stroke-linecap="butt"/><path d="M143.5311,185.69963l-6.5001,-23.51781l9.68037,-2.67556l6.5001,23.51781z" data-paper-data="{&quot;index&quot;:null}" fill="#2d2d2d" stroke="#000000" stroke-width="2" stroke-linecap="butt"/><path d="M169.3678,177.03485l-5.67468,-20.53139l9.20849,-2.54514l5.67468,20.53139z" data-paper-data="{&quot;index&quot;:null}" fill="#2d2d2d" stroke="#000000" stroke-width="2" stroke-linecap="butt"/><path d="M164.2622,286.29305l-20.42884,-73.91299l40.24151,-11.12236l20.42883,73.91298z" data-paper-data="{&quot;index&quot;:null}" fill="#ffffff" stroke="#000000" stroke-width="2" stroke-linecap="butt"/><path d="M136.48774,249.77002l-7.94454,-28.74393l19.71014,-5.44769l7.94455,28.74393z" data-paper-data="{&quot;index&quot;:null}" fill="#ffffff" stroke="#000000" stroke-width="2" stroke-linecap="butt"/><path d="M191.42514,231.04988l-7.94455,-28.74393l23.8164,-6.58262l7.94455,28.74393z" data-paper-data="{&quot;index&quot;:null}" fill="#ffffff" stroke="#000000" stroke-width="2" stroke-linecap="butt"/><path d="M141.16778,263.50437l-3.85878,-13.96134l17.24636,-4.76673l3.85878,13.96134z" data-paper-data="{&quot;index&quot;:null}" fill="#fff7bd" stroke="#000000" stroke-width="2" stroke-linecap="butt"/><path d="M197.83439,247.84227l-4.31275,-15.60385l19.71013,-5.44769l4.31275,15.60385z" data-paper-data="{&quot;index&quot;:null}" fill="#fff7bd" stroke="#000000" stroke-width="2" stroke-linecap="butt"/><path d="M183.20993,333.83177l-12.86241,-46.53713l30.74776,-8.49838l12.86242,46.53714z" data-paper-data="{&quot;index&quot;:null}" fill="#ff0000" stroke="#000000" stroke-width="2" stroke-linecap="butt"/><path d="M181.26397,339.73664l-4.59372,-16.6204l36.56491,-10.10619l4.59372,16.62041z" data-paper-data="{&quot;index&quot;:null}" fill="#ffffff" stroke="#000000" stroke-width="2" stroke-linecap="butt"/><path d="M196.3893,330.18913l-15.18581,-48.57849" data-paper-data="{&quot;index&quot;:null}" fill="none" stroke="#000000" stroke-width="2" stroke-linecap="round"/><path d="M458.95926,88.08801l5.57246,-70.53886l75.79175,5.98744l-5.57246,70.53886z" data-paper-data="{&quot;index&quot;:null}" fill="#000000" stroke="#000000" stroke-width="2" stroke-linecap="butt"/><path d="M480.3424,161.51141l8.003,-101.30581l27.01488,2.13414l-8.00301,101.30581z" data-paper-data="{&quot;index&quot;:null}" fill="#000000" stroke="#000000" stroke-width="2" stroke-linecap="butt"/><path d="M467.48851,123.49624l3.55689,-45.0248l27.01489,2.13414l-3.55689,45.0248z" data-paper-data="{&quot;index&quot;:null}" fill="#000000" stroke="#000000" stroke-width="2" stroke-linecap="butt"/><path d="M486.4079,103.84814l0.05928,-0.75041l9.00497,0.71138l-0.05928,0.75041z" data-paper-data="{&quot;index&quot;:null}" fill="#000000" stroke="#000000" stroke-width="2" stroke-linecap="butt"/><path d="M495.07596,127.94091l3.55689,-45.0248l27.01488,2.13414l-3.55689,45.0248z" data-paper-data="{&quot;index&quot;:null}" fill="#000000" stroke="#000000" stroke-width="2" stroke-linecap="butt"/><path d="M465.19969,85.5606l5.03893,-63.78514l64.53555,5.09822l-5.03893,63.78514z" data-paper-data="{&quot;index&quot;:null}" fill="#ffffff" stroke="#000000" stroke-width="2" stroke-linecap="butt"/><path d="M495.92907,50.23335l-1.65988,21.01157l-6.3123,-0.49867l1.65987,-21.01157z" data-paper-data="{&quot;index&quot;:null}" fill="#000000" stroke="#000000" stroke-width="2" stroke-linecap="butt"/><path d="M468.04521,49.54076l2.31198,-29.26612l9.00496,0.71138l-2.31198,29.26613z" data-paper-data="{&quot;index&quot;:null}" fill="#765600" stroke="#000000" stroke-width="2" stroke-linecap="butt"/><path d="M522.88467,53.1179l2.31198,-29.26612l9.00497,0.71138l-2.31198,29.26613z" data-paper-data="{&quot;index&quot;:null}" fill="#765600" stroke="#000000" stroke-width="2" stroke-linecap="butt"/><path d="M523.5758,53.9276l-1.65988,21.01158l-6.3123,-0.49867l1.65988,-21.01157z" data-paper-data="{&quot;index&quot;:null}" fill="#000000" stroke="#000000" stroke-width="2" stroke-linecap="butt"/><path d="M474.56034,81.7695l0.47426,-6.00331l39.02149,3.08264l-0.47425,6.00331z" data-paper-data="{&quot;index&quot;:null}" fill="#000000" stroke="#000000" stroke-width="2" stroke-linecap="butt"/><path d="M467.96714,31.41227l0.94851,-12.00661l66.7868,5.27606l-0.94851,12.00661z" data-paper-data="{&quot;index&quot;:null}" fill="#765600" stroke="#000000" stroke-width="2" stroke-linecap="butt"/><path d="M475.25147,82.57919l1.83773,-23.26282l6.75372,0.53354l-1.83772,23.26282z" data-paper-data="{&quot;index&quot;:null}" fill="#000000" stroke="#000000" stroke-width="2" stroke-linecap="butt"/><path d="M424.0555,106.49352l-18.85025,-68.20155l73.28039,-20.25399l18.85025,68.20156z" data-paper-data="{&quot;index&quot;:null}" fill="#000000" stroke="#000000" stroke-width="2" stroke-linecap="butt"/><path d="M469.22603,168.20138l-27.07217,-97.94904l26.11974,-7.21925l27.07217,97.94904z" data-paper-data="{&quot;index&quot;:null}" fill="#000000" stroke="#000000" stroke-width="2" stroke-linecap="butt"/><path d="M444.16332,136.86073l-12.03208,-43.5329l26.11975,-7.21925l12.03207,43.5329z" data-paper-data="{&quot;index&quot;:null}" fill="#000000" stroke="#000000" stroke-width="2" stroke-linecap="butt"/><path d="M455.23596,111.93308l-0.20054,-0.72554l8.70659,-2.40642l0.20054,0.72555z" data-paper-data="{&quot;index&quot;:null}" fill="#000000" stroke="#000000" stroke-width="2" stroke-linecap="butt"/><path d="M471.61022,131.6176l-12.03207,-43.53291l26.11974,-7.21925l12.03208,43.53291z" data-paper-data="{&quot;index&quot;:null}" fill="#000000" stroke="#000000" stroke-width="2" stroke-linecap="butt"/><path d="M429.05775,101.98705l-17.04544,-61.67162l62.39716,-17.24597l17.04545,61.67161z" data-paper-data="{&quot;index&quot;:null}" fill="#ffffff" stroke="#000000" stroke-width="2" stroke-linecap="butt"/><path d="M427.59347,62.78172l-1.51655,-5.48696l17.41316,-4.81283l1.51654,5.48696z" data-paper-data="{&quot;index&quot;:null}" fill="#000000" stroke="#000000" stroke-width="2" stroke-linecap="butt"/><path d="M445.87632,58.28985l5.61496,20.31535l-6.10314,1.68685l-5.61497,-20.31536z" data-paper-data="{&quot;index&quot;:null}" fill="#000000" stroke="#000000" stroke-width="2" stroke-linecap="butt"/><path d="M419.43209,67.16073l-7.82085,-28.29638l8.70659,-2.40642l7.82085,28.29639z" data-paper-data="{&quot;index&quot;:null}" fill="#423000" stroke="#000000" stroke-width="2" stroke-linecap="butt"/><path d="M472.19659,51.79616l-7.82085,-28.29638l8.70659,-2.40642l7.82085,28.29639z" data-paper-data="{&quot;index&quot;:null}" fill="#423000" stroke="#000000" stroke-width="2" stroke-linecap="butt"/><path d="M470.99513,44.62356l2.35002,8.50252l-18.13871,5.01337l-2.35002,-8.50252z" data-paper-data="{&quot;index&quot;:null}" fill="#000000" stroke="#000000" stroke-width="2" stroke-linecap="butt"/><path d="M473.12268,52.32117l5.61497,20.31536l-6.10314,1.68685l-5.61497,-20.31535z" data-paper-data="{&quot;index&quot;:null}" fill="#000000" stroke="#000000" stroke-width="2" stroke-linecap="butt"/><path d="M436.56113,95.22734l-1.60428,-5.80438l37.72852,-10.4278l1.60428,5.80438z" data-paper-data="{&quot;index&quot;:null}" fill="#000000" stroke="#000000" stroke-width="2" stroke-linecap="butt"/><path d="M413.16816,50.14863l-3.20855,-11.60877l64.5738,-17.84758l3.20855,11.60877z" data-paper-data="{&quot;index&quot;:null}" fill="#423000" stroke="#000000" stroke-width="2" stroke-linecap="butt"/><text transform="translate(230.79776,191.24447) rotate(-1.05881) scale(0.63641,1.20512) skewX(19.62834)" font-size="40" xml:space="preserve" data-paper-data="{&quot;index&quot;:null}" fill="#000000" fill-rule="nonzero" stroke="none" stroke-width="1" stroke-linecap="butt" stroke-linejoin="miter" stroke-miterlimit="10" stroke-dasharray="" stroke-dashoffset="0" font-family="Sans Serif" font-weight="normal" text-anchor="start" style="mix-blend-mode: normal"><tspan x="0" dy="0">random life game</tspan></text><text transform="translate(234.18374,113.96283) rotate(-15.4502) scale(0.5,0.5)" font-size="40" xml:space="preserve" data-paper-data="{&quot;index&quot;:null}" fill="#423000" fill-rule="nonzero" stroke="none" stroke-width="1" stroke-linecap="butt" stroke-linejoin="miter" stroke-miterlimit="10" stroke-dasharray="" stroke-dashoffset="0" font-family="Pixel" font-weight="normal" text-anchor="start" style="mix-blend-mode: normal"><tspan x="0" dy="0">made by oliver</tspan><tspan x="0" dy="46.150000000000006px">december 2024</tspan></text><path d="M-120.77138,-113.9584l717.83688,-195.71267l69.70588,255.66793l-717.83688,195.71267z" data-paper-data="{&quot;index&quot;:null}" fill="#00ff09" stroke="#000000" stroke-width="2" stroke-linecap="butt"/><path d="M67.22862,411.0416l717.83688,-195.71267l69.70588,255.66793l-717.83688,195.71267z" data-paper-data="{&quot;index&quot;:null}" fill="#00ff09" stroke="#000000" stroke-width="2" stroke-linecap="butt"/></g></g></svg>