<svg version="1.1" xmlns="http://www.w3.org/2000/svg" xmlns:xlink="http://www.w3.org/1999/xlink" width="327" height="252" viewBox="0,0,327,252"><defs><linearGradient x1="320" y1="54" x2="320" y2="306" gradientUnits="userSpaceOnUse" id="color-1"><stop offset="0" stop-color="#ff7575"/><stop offset="1" stop-color="#f1b3b3"/></linearGradient><linearGradient x1="172.41915" y1="82.54615" x2="292.75915" y2="82.54615" gradientTransform="translate(-344.8383,-176.62979) scale(2,2)" gradientUnits="userSpaceOnUse" id="color-2"><stop offset="0" stop-color="#ff0000"/><stop offset="1" stop-color="#cc00ff"/></linearGradient></defs><g transform="translate(-156.5,-54)"><g data-paper-data="{&quot;isPaintingLayer&quot;:true}" fill-rule="nonzero" stroke="none" stroke-linecap="butt" stroke-linejoin="miter" stroke-miterlimit="10" stroke-dasharray="" stroke-dashoffset="0" style="mix-blend-mode: normal"><path d="M156.5,306c0,0 8.9385,-88.26978 8.9385,-131.49533c0,-40.61126 -8.9385,-120.50467 -8.9385,-120.50467c0,0 107.20003,7.06542 161.63781,7.06542c54.56193,0 165.36219,-7.06542 165.36219,-7.06542c0,0 -11.17312,85.96992 -11.17312,127.57009c0,42.38515 11.17312,124.42991 11.17312,124.42991c0,0 -114.20367,-10.99065 -169.83144,-10.99065c-53.2701,0 -157.16856,10.99065 -157.16856,10.99065z" fill="url(#color-1)" stroke-width="NaN"/><text transform="translate(409.7574,287.5514) scale(0.37244,0.39252)" font-size="40" xml:space="preserve" fill="#000000" fill-rule="nonzero" stroke="none" stroke-width="1" stroke-linecap="butt" stroke-linejoin="miter" stroke-miterlimit="10" stroke-dasharray="" stroke-dashoffset="0" font-family="Sans Serif" font-weight="normal" text-anchor="start" style="mix-blend-mode: normal"><tspan x="0" dy="0">- To You</tspan></text><text transform="translate(172.41915,88.3149) scale(0.5,0.5)" font-size="40" xml:space="preserve" fill="url(#color-2)" fill-rule="nonzero" stroke="none" stroke-width="1" stroke-linecap="butt" stroke-linejoin="miter" stroke-miterlimit="10" stroke-dasharray="" stroke-dashoffset="0" font-family="Sans Serif" font-weight="normal" text-anchor="start" style="mix-blend-mode: normal"><tspan x="0" dy="0">From Sarah :</tspan></text><text transform="translate(180.4617,138.17872) scale(0.5,0.5)" font-size="40" xml:space="preserve" fill="#000000" fill-rule="nonzero" stroke="none" stroke-width="1" stroke-linecap="butt" stroke-linejoin="miter" stroke-miterlimit="10" stroke-dasharray="" stroke-dashoffset="0" font-family="Sans Serif" font-weight="normal" text-anchor="start" style="mix-blend-mode: normal"><tspan x="0" dy="0">h-hey... ummm........</tspan></text><path d="M186.97741,274.88001c0.00355,0.27553 0.00557,0.551 0.00557,0.82638c0,0 0,2.5 -2.5,2.5c-2.5,0 -2.5,-2.5 -2.5,-2.5c0,-0.29095 -0.00316,-10.0693 0.00986,-10.22191c0.53331,-6.2522 2.43122,-12.49908 4.06862,-18.48968c1.96292,-7.18157 3.15413,-14.88619 3.97624,-22.20284c0.82507,-7.34299 3.22865,-14.16404 3.20868,-21.6068c0.87548,-7.89538 0.23037,-15.82423 1.64565,-23.63586c0.88219,-4.86929 1.49546,-10.99946 5.76709,-14.40415c0.85601,-0.68228 2.05091,-0.76626 3.07036,-1.16495c5.46365,-2.13677 10.15687,-3.30277 16.10959,-3.36937c2.80123,-0.03134 6.66154,-0.23868 9.25335,1.09987c5.60959,2.89709 7.71371,11.91179 7.7544,17.48504c0,0.75131 0.01991,9.79121 -0.06688,10.22545c-0.26098,1.30562 -1.21373,2.37288 -1.73194,3.59935c-1.40049,3.3146 -3.22031,6.33168 -4.45371,9.61556c2.60708,-2.30978 6.20811,-3.91292 9.04142,-5.71474c7.0394,-4.47666 14.91242,-7.47157 21.93595,-11.95233c4.08191,-2.60411 8.05878,-5.84412 11.922,-8.76837c3.53074,-2.67258 7.21194,-5.51409 10.5456,-8.42912c0.99259,-0.86795 5.09823,-5.34496 6.03105,-5.48551c7.31008,-1.10145 5.48678,6.63665 5.47863,10.68188c-0.53403,3.20738 -1.00371,7.61211 -2.6898,10.60513c-0.64247,1.14046 -1.78202,1.96164 -2.36987,3.13118c-0.46319,0.92153 -0.35411,2.04449 -0.71689,3.00996c-0.36264,0.96508 -2.78217,5.42928 -3.25204,6.52338c-0.4212,0.98075 -1.32975,4.47311 -1.79158,5.18315c-0.67985,1.04522 -1.83554,1.70309 -2.60604,2.68341c-3.66388,4.66163 -7.01767,9.22662 -11.55493,13.17175c-2.00933,1.74711 -4.49806,2.85081 -6.75772,4.25927c-2.24801,1.4012 -4.1495,3.3039 -6.35339,4.77352c-3.80479,2.53715 -7.74828,4.60681 -11.42974,7.34309c-4.3723,1.74892 -7.30845,4.19191 -11.27918,6.72325c-4.23564,2.70022 -8.50458,5.18127 -12.71942,7.87392c-11.73775,7.49863 -23.51144,14.54631 -33.36483,24.3997l-0.33596,0.95878c0,0 -0.45005,0.9001 -1.35015,1.27261zM186.88415,267.40296c9.7429,-9.2426 21.09524,-16.10687 32.45169,-23.36716c4.21478,-2.69455 8.48982,-5.17586 12.72356,-7.87656c3.9959,-2.54898 7.10326,-5.10044 11.51792,-6.8663c3.54913,-2.68843 7.3972,-4.67267 11.08942,-7.13351c1.04852,-0.69883 5.55712,-4.27753 6.51469,-4.87754c2.03,-1.272 4.31316,-2.19933 6.11037,-3.78328c4.31375,-3.80186 7.44281,-8.11995 10.96422,-12.56442c0.63853,-0.8059 1.63595,-1.29555 2.21949,-2.14212c0.88721,-1.28711 0.8106,-3.03064 1.42544,-4.46792c0.93055,-2.17529 2.35276,-4.1288 3.18201,-6.3447c0.41337,-1.10461 0.36621,-2.36817 0.89163,-3.42408c0.61117,-1.22825 1.76702,-2.11632 2.45566,-3.30286c1.35537,-2.33532 1.72603,-6.24169 2.13573,-8.697c-0.00494,-2.21193 -0.34104,-3.63939 0.46337,-5.57032c0.03622,-0.08693 0.05377,-0.12822 0.05583,-0.13306c-0.01344,0.0315 -0.67883,1.58774 -1.0896,2.05166c-0.81743,0.92323 -1.70263,1.78885 -2.63038,2.60113c-4.73109,4.14227 -9.88224,7.91646 -14.95302,11.6196c-0.22976,0.16779 -8.01771,5.9745 -8.15135,6.05976c-5.65244,3.60605 -12.01542,6.02651 -17.82805,9.33462c-4.93671,2.80961 -9.58734,7.06123 -14.80156,9.34922c-0.00699,0.00307 -0.01399,0.00614 -0.02098,0.0092l0.00155,0.00259l-3.98604,2.39163c-0.3834,0.2392 -0.83629,0.3774 -1.32147,0.3774c-1.38071,0 -2.5,-1.11929 -2.5,-2.5c0,-0.29691 0.05176,-0.58173 0.14674,-0.84593l0.75001,-2.25001c0.73645,-3.48661 1.81516,-6.13484 3.37874,-9.26201c1.1112,-2.2224 3.33669,-5.03416 3.83394,-7.51856c0.5938,-2.9668 -0.06687,-6.05104 -0.06687,-9.07668c0.03635,-4.07746 -0.36193,-4.92386 -2.14883,-8.53303c-0.53636,-1.08334 -1.53024,-3.86801 -2.96485,-4.54363c-1.53813,-0.72438 -5.36814,-0.52837 -6.83176,-0.50863c-5.50428,0.07421 -9.38348,1.26405 -14.45211,3.06467c-0.56864,0.20201 -1.28522,0.06501 -1.75517,0.44356c-3.03716,2.44651 -3.27449,7.99229 -3.88398,11.33202c-1.38497,7.58903 -0.71632,15.33121 -1.57137,23.01095c-0.01886,7.51846 -2.4117,14.41226 -3.22537,21.82298c-0.83274,7.58442 -2.09681,15.56151 -4.12105,22.99969c-1.55587,5.71712 -3.41552,11.67559 -3.9192,17.64396c-0.04144,0.49107 -0.07013,0.98266 -0.08897,1.47467z" fill="#000000" stroke-width="0.5"/><path d="M363.80254,285.30766c0.2529,0.59983 0.30242,1.39507 -0.34906,2.30714c-1.4531,2.03433 -3.48743,0.58124 -3.48743,0.58124c-1.51796,-1.12053 -3.3102,-1.94277 -4.55387,-3.3616c-0.9457,-1.0789 -1.13236,-2.64074 -1.81401,-3.90316c-1.51816,-2.81163 -3.68852,-6.04369 -5.49118,-8.62322c-4.81673,-6.89257 -10.15985,-13.50781 -14.0607,-21.02669c-6.13225,-11.8199 -7.81076,-25.26921 -9.15031,-38.34444c-0.60695,-5.95852 -0.56558,-11.84796 -0.55981,-17.83054c0.0044,-4.56707 0.1264,-9.20789 1.7638,-13.56098c2.19268,-5.82931 6.62779,-10.52252 13.52449,-8.76366c3.22753,0.82311 4.03982,3.35679 5.98971,5.58026c2.13205,2.43119 4.19449,4.92939 6.11404,7.53162c5.0022,6.7812 10.50793,13.17148 15.211,20.15094c0.07571,-0.15429 0.14826,-0.30787 0.2128,-0.46085c2.31024,-5.47594 6.55239,-9.55631 11.22922,-13.07977c11.83953,-8.91975 23.89533,-18.03123 37.70014,-23.67698c3.68304,-1.50625 7.6149,-3.35972 11.53796,-4.13312c3.36763,-0.6639 6.80043,-0.9506 10.17939,-1.55423c1.57928,-0.00619 3.2133,-0.43082 4.73784,-0.01857c6.58952,1.78187 5.82941,8.50699 5.82941,13.66193c0,2.81436 0.52192,5.68376 -0.03228,8.44301c-1.07053,5.3299 -4.19396,9.64698 -7.20263,14.02327c-8.96454,13.03947 -20.95581,23.64933 -32.10158,34.7951c-3.77228,3.76514 -6.74381,8.35232 -10.45532,12.06383c-2.60648,2.60648 -6.1969,4.59147 -8.81382,7.20468c-0.63738,0.63648 -0.89885,1.57196 -1.47591,2.26359c-2.53201,3.03469 -5.53018,5.45567 -7.98134,8.60995c-4.58153,5.89575 -8.64118,12.32448 -12.78253,18.53651l-0.64831,1.33979c0,0 -1.02323,2.04647 -3.0697,1.24494zM362.20102,283.70395c-0.26171,-0.95571 0.19909,-1.8773 0.19909,-1.8773l0.9602,-1.87723c4.20462,-6.30693 8.32914,-12.83731 12.98584,-18.81957c2.48503,-3.19241 5.51726,-5.65433 8.07157,-8.72333c0.66052,-0.79361 1.01145,-1.83139 1.74111,-2.56194c2.63646,-2.63971 6.26506,-4.65717 8.8798,-7.27192c3.69655,-3.69655 6.69659,-8.29839 10.45532,-12.06383c9.62919,-9.62919 20.74732,-18.90322 28.64548,-30.04418c2.68338,-3.78511 5.90871,-7.7003 7.87207,-11.93588c1.86373,-4.02064 1.35447,-7.42425 1.35447,-11.7458c0,-2.05158 1.31953,-8.19247 -2.21314,-8.85722c-0.93304,-0.17557 -1.8947,0.12504 -2.84205,0.18757c-3.18003,0.57625 -6.41155,0.84731 -9.5854,1.45665c-3.64955,0.70067 -7.32736,2.487 -10.75265,3.88547c-10.53527,4.30133 -19.44794,10.69333 -28.52841,17.40273c-5.67609,4.19396 -12.2558,7.785 -16.26825,13.81261c-0.84524,1.26974 -1.49014,2.81033 -2.0186,4.4199v4.68804c0,1.38071 -1.11929,2.5 -2.5,2.5c-0.97787,0 -1.82462,-0.56144 -2.23547,-1.37955l-1.1438,-2.16787c-5.06974,-8.51586 -11.7088,-15.91211 -17.57428,-23.87038c-1.84031,-2.49693 -3.82722,-4.88612 -5.867,-7.22292c-0.36549,-0.41871 -2.25733,-3.73468 -3.66136,-4.07081c-6.67185,-1.59727 -8.47001,8.22624 -8.84924,12.76109c-0.27145,3.24599 0.0044,6.51465 0.00986,9.77197c0.00697,4.1629 0.10643,8.18023 0.53379,12.32711c1.27355,12.43214 2.77715,25.3103 8.61417,36.55059c3.80418,7.32567 9.03723,13.75756 13.72804,20.47569c1.8576,2.66043 4.22836,6.14656 5.76839,9.07039c0.53021,1.00664 0.56,2.29546 1.30823,3.15254c0.77867,0.89195 1.88239,1.41809 2.91224,2.02737z" fill="#000000" stroke-width="0.5"/><path d="M450.93151,143.94146c0.68543,0.2747 1.45573,0.89211 1.45573,2.27982c0,2.5 -2.5,2.5 -2.5,2.5l-3.17596,-1.70943c-0.35695,-1.07335 -0.78566,-2.22853 -1.19088,-3.40564c-0.82749,0.42614 -1.75324,0.24099 -1.75324,0.24099c-2.83947,-0.56789 -5.82445,-0.66471 -8.50897,-1.75026c-2.9577,-1.19602 -5.9774,-4.07551 -8.52978,-5.89864c-4.89121,-3.49372 -8.94669,-7.28743 -13.19192,-11.53266c-3.04949,-3.04949 -7.07892,-5.65457 -9.24132,-9.35976c-2.01814,-3.45802 -3.03915,-7.33397 -4.28528,-11.10751c-0.49756,-2.98833 -0.49361,-6.04004 -0.84569,-9.04898c-0.5796,-4.95334 -3.85608,-8.68459 0.69995,-13.4278c3.0502,-3.17551 8.5166,-3.25129 12.39755,-3.145c1.41032,0.03862 2.96303,-0.34058 4.2222,0.29581c1.14345,0.5779 1.51747,2.06874 2.36222,3.03198c1.43468,1.63591 2.95769,3.21556 4.16805,5.02375c0.94175,1.4069 3.51804,4.03819 4.7253,6.54736c0.12001,-0.64677 0.27672,-1.28634 0.46818,-1.91244c0.56658,-1.85284 3.31037,-6.17347 4.20722,-7.66821c2.64986,-5.27047 6.70351,-10.83134 12.43971,-13.14709c2.6727,-1.07899 7.05362,-1.94689 9.41594,0.74776c1.05144,1.19935 0.42379,3.16408 0.52949,4.75555c0.28416,4.2786 -0.08675,8.32226 -0.84522,12.51453c-0.07873,0.43517 -1.592,9.62402 -1.66002,9.874c-0.36117,1.32743 -1.29137,2.47143 -1.56115,3.82041c-0.25193,1.25974 0.16686,2.57698 0.02638,3.85397c-0.76137,6.92094 -1.58978,13.58958 -1.58978,20.60518c0,3.44908 -0.45297,7.43473 -0.03228,10.85912c0.24168,1.96726 1.06667,4.1533 1.79358,6.16319zM444.23962,138.84929c-0.01337,-0.09043 -0.02577,-0.18048 -0.03713,-0.27012c-0.46688,-3.68413 -0.03228,-7.93984 -0.03228,-11.66003c0,-3.94294 0.28283,-7.10501 0.83654,-10.85577c0.69975,-4.74009 -0.12747,-9.82645 0.81708,-14.54891c0.5954,-2.97684 1.90703,-5.7898 2.40167,-8.78504c0.75988,-4.60127 1.58178,-8.59508 1.5745,-13.26134c-0.00167,-1.07234 -0.11531,-2.1509 0,-3.21702c0.06309,-0.58327 0.77961,-1.14781 0.52949,-1.67849c-0.17855,-0.37882 -0.83721,0.06856 -1.24651,0.15721c-0.74386,0.16112 -1.51673,0.26697 -2.20564,0.59054c-4.73222,2.22265 -7.82995,6.45466 -10.07944,10.98057c-0.29081,0.48468 -3.47609,5.5856 -3.83533,6.80839c-0.47403,1.6135 -0.07328,3.4838 -0.85689,4.97177c-0.86298,1.63868 -2.01594,4.11407 -3.86397,3.99246c-2.17635,-0.14322 -3.3452,-2.84384 -4.69658,-4.55579c-0.52527,-0.66542 -0.38484,-1.67602 -0.80426,-2.41277c-2.09374,-3.67789 -5.20996,-6.74608 -7.76146,-10.03061c-0.40629,-0.52301 -0.27477,-1.4739 -0.8548,-1.79355c-0.55066,-0.30347 -1.23468,0.2702 -1.86291,0.29581c-3.06932,0.12516 -8.88734,-0.60519 -9.80518,3.70417c-0.5574,2.61706 1.3179,4.5976 1.64311,7.06772c0.37759,2.86799 0.28671,5.79134 0.76282,8.64463c1.22277,3.62879 2.12485,8.94019 4.97127,11.70295c0.63531,0.61664 1.54982,0.87613 2.22997,1.44292c6.16556,5.13796 10.96748,11.27397 17.55258,15.97761c2.18441,1.56029 4.98808,4.33253 7.55533,5.36094c2.22804,0.89252 4.69829,0.95727 7.06802,1.37176z" fill="#000000" stroke-width="0.5"/><path d="M331.27832,104.16104c-0.51486,0.27324 -2.15047,0.94512 -3.30526,-0.78706c-0.29002,-0.43503 -0.4284,-0.83973 -0.4659,-1.20776c-0.56316,-0.51869 -1.20347,-1.4872 -0.4943,-2.90553c1.11803,-2.23607 3.3541,-1.11803 3.3541,-1.11803l0.46222,0.23611c0.79435,-0.56563 1.60475,-1.10184 2.49058,-1.49985c0.87355,-0.39248 2.02914,0.14527 2.85233,-0.3441c1.89064,-1.12395 3.40396,-2.87765 4.62255,-4.70872c1.09152,-1.64013 0.84061,-3.85018 1.31889,-5.76138c1.68311,-6.72572 3.41798,-11.55214 10.30635,-14.53611c3.91708,-1.69684 9.1173,-2.39841 13.326,-1.78008c1.59396,0.23418 3.38674,0.40302 4.61019,1.45122c1.94365,1.66525 1.93927,7.1293 1.49836,8.99281c-0.26635,1.12572 -1.22598,1.96208 -1.83897,2.94312c-0.23643,0.47286 -0.4128,0.98887 -0.60856,1.49094c0.34232,-0.10927 0.60939,-0.18691 0.70659,-0.22993c1.14348,-0.50607 2.17579,-1.269 3.36239,-1.66349c3.27676,-1.08939 9.03716,-2.51232 12.47137,-1.71155c1.52099,0.35466 3.54427,0.65326 4.20382,2.06895c1.83496,3.93863 -2.835,8.96678 -5.37904,11.13421c-1.78164,1.51789 -4.08643,2.28693 -6.07308,3.52444c-1.39076,0.86632 -2.42478,2.23845 -3.82989,3.0813c-1.30983,0.78569 -2.87002,1.06524 -4.23279,1.75506c-3.03012,1.53381 -6.07975,3.65105 -9.54863,4.26929c-0.30001,0.05347 -7.08791,0.04511 -8.51532,0.04511c-2.74959,0 -5.51324,0.26929 -8.24875,-0.00852c-4.28399,-0.43507 -8.39119,-1.80288 -12.63074,-2.52679zM338.74684,100.79681c1.98012,0.46866 3.96283,0.91274 5.98915,1.11171c2.59962,0.25526 5.22423,-0.00852 7.83635,-0.00852c2.52331,0 5.0857,0.48826 7.56978,0.04511c5.87209,-1.04757 11.36115,-5.60497 16.16742,-8.58797c0.73121,-0.45382 1.69666,-0.40159 2.44721,-0.82265c2.53581,-1.42258 5.65968,-4.39536 7.01131,-7.03785c0.11743,-0.22959 -0.36567,0.42962 -0.62171,0.46044c-2.0972,0.25249 -4.22706,0.31862 -6.28937,0.77563c-1.24598,0.27611 -2.54805,0.32521 -3.75841,0.72984c-1.50813,0.50419 -4.2396,2.57696 -6.04067,2.5158c-2.24869,-0.07635 -5.20871,0.45949 -6.62592,-1.28807c-0.59029,-0.72788 2.73246,-7.0113 3.25893,-8.06425c0.97529,-1.33224 1.34998,-3.12836 1.30307,-4.77877c-0.00928,-0.32638 0.24344,-0.80864 -0.03516,-0.97892c-1.74618,-1.06724 -4.09871,-0.32182 -6.13773,-0.14708c-2.84209,0.24357 -6.76179,0.9798 -9.19974,2.75365c-5.473,3.98214 -3.28017,11.74966 -6.57345,16.97984c-1.58612,2.51899 -3.78421,4.7415 -6.30107,6.34206z" fill="#000000" stroke-width="0.5"/></g></g></svg>