<svg version="1.1" xmlns="http://www.w3.org/2000/svg" xmlns:xlink="http://www.w3.org/1999/xlink" width="68.99733" height="117.33353" viewBox="0,0,68.99733,117.33353"><g transform="translate(-286.99779,-128.18332)"><g data-paper-data="{&quot;isPaintingLayer&quot;:true}" fill-rule="nonzero" stroke-linejoin="miter" stroke-miterlimit="10" stroke-dasharray="" stroke-dashoffset="0" style="mix-blend-mode: normal"><path d="M296.41017,186.05257v-47.38281h51.20401v47.38281z" fill="#000000" stroke="#000000" stroke-width="2" stroke-linecap="butt"/><path d="M312.4592,218.53273v-42.79738h18.34173v42.79738z" fill="#000000" stroke="#000000" stroke-width="2" stroke-linecap="butt"/><path d="M304.81681,206.68702v-20.63445h9.55299v20.63445z" fill="#000000" stroke="#000000" stroke-width="2" stroke-linecap="butt"/><path d="M328.89034,207.06914v-25.21988h12.99206v25.21988z" fill="#000000" stroke="#000000" stroke-width="2" stroke-linecap="butt"/><path d="M313.22344,244.13473v-26.36624h17.57749v26.36624z" fill="#000000" stroke="#000000" stroke-width="2" stroke-linecap="butt"/><path d="M299.46714,183.37774v-41.2689h45.85433v41.2689z" fill="#fff7bd" stroke="#000000" stroke-width="2" stroke-linecap="butt"/><path d="M288.83533,169.67942l10.63181,-26.0421h14.13842l0.57469,15.41029z" fill="#560e00" stroke="#000000" stroke-width="2" stroke-linecap="butt"/><path d="M330.60835,158.09079l0.57469,-14.07136h14.90266l4.74121,20.53665z" fill="#560e00" stroke="#000000" stroke-width="2" stroke-linecap="butt"/><path d="M299.84926,154.71878v-10.69934h45.85433v10.69934z" fill="#560e00" stroke="#000000" stroke-width="2" stroke-linecap="butt"/><path d="M309.64068,176.84189v-10.65369h9.93511v10.65369z" fill="#ffffff" stroke="#000000" stroke-width="2" stroke-linecap="butt"/><path d="M324.3049,176.84189v-10.55369h10.69934v10.55369z" fill="#ffffff" stroke="#000000" stroke-width="2" stroke-linecap="butt"/><path d="M314.91616,175.11743v-7.37523h4.20331v7.37523z" fill="#2d2d2d" stroke="#000000" stroke-width="2" stroke-linecap="butt"/><path d="M325.3306,175.21561v-7.33787h4.58543v7.33787z" fill="#2d2d2d" stroke="#000000" stroke-width="2" stroke-linecap="butt"/><path d="M312.4592,219.67908v-34.39075h18.72385v34.39075z" fill="#000000" stroke="#000000" stroke-width="2" stroke-linecap="butt"/><path d="M304.81681,200.57311v-13.37418h9.17087v13.37418z" fill="#000000" stroke="#000000" stroke-width="2" stroke-linecap="butt"/><path d="M331.05093,200.04463v-13.37418h11.08146v13.37418z" fill="#000000" stroke="#000000" stroke-width="2" stroke-linecap="butt"/><path d="M305.19892,207.06914v-6.49603h8.02451v6.49603z" fill="#fff7bd" stroke="#000000" stroke-width="2" stroke-linecap="butt"/><path d="M331.56516,207.06914v-7.26027h9.17087v7.26027z" fill="#fff7bd" stroke="#000000" stroke-width="2" stroke-linecap="butt"/><path d="M314.75192,242.22413v-21.39869h14.13842v21.39869z" fill="#676964" stroke="#000000" stroke-width="2" stroke-linecap="butt"/><path d="M313.22344,244.51685v-7.64239h16.81326v7.64239z" fill="#ffffff" stroke="#000000" stroke-width="2" stroke-linecap="butt"/><path d="M320.06055,219.67908l0.7515,22.54505" fill="none" stroke="#000000" stroke-width="2" stroke-linecap="round"/><path d="M296.3078,149.74682v-20.5635h52.21516v20.5635z" fill="#676964" stroke="#000000" stroke-width="2" stroke-linecap="butt"/><path d="M304.77513,159.22216l-8.66893,-10.08015h51.61036l6.45129,10.08015z" fill="#676964" stroke="#000000" stroke-width="2" stroke-linecap="butt"/><path d="M332.67657,146.49795c-0.9848,2.29787 -3.28266,1.31307 -3.28266,1.31307l-3.05602,-1.32446c-2.16433,-1.5108 -4.32456,-3.02737 -6.48352,-4.54576c-0.85629,-0.40632 -1.73855,-1.07414 -2.57311,-1.81059c-0.19025,-0.13391 -0.38049,-0.26783 -0.57074,-0.40174c-1.21864,0.323 -2.43543,0.65948 -3.66611,0.91449l-1.66304,1.79949c0,0 -1.76777,1.76776 -3.53554,0c-1.76776,-1.76776 0,-3.53553 0,-3.53553l2.77223,-2.63578c0.94115,-0.23592 1.90942,-0.51097 2.89628,-0.79334c-0.02873,-0.55059 0.15181,-1.18158 0.78279,-1.81256c1.76776,-1.76776 3.53553,0 3.53553,0c0.18413,0.18555 0.35769,0.36282 0.52215,0.53197c2.75911,-0.60482 5.55357,-0.89399 8.21596,-0.24613c0.04177,0.01017 0.08348,0.02054 0.12513,0.03111l0.00232,-0.01633l4.65781,0.6616c1.23185,0.15504 2.18466,1.20639 2.18466,2.4803c0,1.05115 -0.64873,1.95078 -1.56767,2.32036l-4.3588,1.86914c0.38696,0.2742 0.77377,0.54861 1.16041,0.82326l2.58887,1.09477c0,0 2.29787,0.98479 1.31306,3.28266z" fill="#000000" stroke="none" stroke-width="0.5" stroke-linecap="butt"/><path d="M313.56489,212.65743c0,-1.38071 1.11929,-2.5 2.5,-2.5c1.38071,0 2.5,1.11929 2.5,2.5c0,1.38071 -1.11929,2.5 -2.5,2.5c-1.38071,0 -2.5,-1.11929 -2.5,-2.5z" fill="#ffffff" stroke="none" stroke-width="0.5" stroke-linecap="butt"/><path d="M321.2258,206.20613c0,-1.38071 1.11929,-2.5 2.5,-2.5c1.38071,0 2.5,1.11929 2.5,2.5c0,1.38071 -1.11929,2.5 -2.5,2.5c-1.38071,0 -2.5,-1.11929 -2.5,-2.5z" fill="#ffffff" stroke="none" stroke-width="0.5" stroke-linecap="butt"/><path d="M314.1697,196.9324c0,-1.38071 1.11929,-2.5 2.5,-2.5c1.38071,0 2.5,1.11929 2.5,2.5c0,1.38071 -1.11929,2.5 -2.5,2.5c-1.38071,0 -2.5,-1.11929 -2.5,-2.5z" fill="#ffffff" stroke="none" stroke-width="0.5" stroke-linecap="butt"/><path d="M323.44344,188.46507c0,-1.38071 1.11929,-2.5 2.5,-2.5c1.38071,0 2.5,1.11929 2.5,2.5c0,1.38071 -1.11929,2.5 -2.5,2.5c-1.38071,0 -2.5,-1.11929 -2.5,-2.5z" fill="#ffffff" stroke="none" stroke-width="0.5" stroke-linecap="butt"/><path d="M306.10559,191.08591c0,-1.38071 1.11929,-2.5 2.5,-2.5c1.38071,0 2.5,1.11929 2.5,2.5c0,1.38071 -1.11929,2.5 -2.5,2.5c-1.38071,0 -2.5,-1.11929 -2.5,-2.5z" fill="#ffffff" stroke="none" stroke-width="0.5" stroke-linecap="butt"/><path d="M334.7332,194.31156c0,-1.38071 1.11929,-2.5 2.5,-2.5c1.38071,0 2.5,1.11929 2.5,2.5c0,1.38071 -1.11929,2.5 -2.5,2.5c-1.38071,0 -2.5,-1.11929 -2.5,-2.5z" fill="#ffffff" stroke="none" stroke-width="0.5" stroke-linecap="butt"/><path d="M304.5559,161.47248l14.07996,2.58612" fill="none" stroke="#000000" stroke-width="2" stroke-linecap="round"/><path d="M323.08973,163.62758h10.63181" fill="none" stroke="#000000" stroke-width="2" stroke-linecap="round"/></g></g></svg>