<svg version="1.1" xmlns="http://www.w3.org/2000/svg" xmlns:xlink="http://www.w3.org/1999/xlink" width="123.29377" height="203.08695" viewBox="0,0,123.29377,203.08695"><g transform="translate(-117.70444,-76.46696)"><g data-paper-data="{&quot;isPaintingLayer&quot;:true}" fill="#9966ff" fill-rule="nonzero" stroke="none" stroke-width="0.5" stroke-linecap="butt" stroke-linejoin="miter" stroke-miterlimit="10" stroke-dasharray="" stroke-dashoffset="0" style="mix-blend-mode: normal"><path d="M219.57032,278.78076c-8.0442,1.75468 -15.97059,-0.02608 -15.97059,-0.02608l-15.75318,-3.74207c-3.04533,-5.405 -5.55007,-10.56572 -5.56498,-16.01261c0,-3.20943 1.89663,-6.44286 0.12554,-9.62826c-1.51383,-2.72271 -7.41693,-5.23511 -11.05294,-7.85763c-14.47998,-10.44387 -44.49355,-20.24132 -52.20546,-31.16736c-3.18469,-4.51201 -0.10914,-9.78419 -0.10914,-14.34675c0,-11.13346 1.98345,-22.10327 5.12043,-33.21437c1.87856,-6.65368 3.75707,-13.30737 5.63563,-19.96105c0.13769,-0.48764 2.80627,-10.07243 3.04054,-10.34221c5.20003,-5.9885 20.36998,-12.25195 29.94197,-17.97316c20.07789,-12.00064 37.94109,-24.15961 56.22128,-36.29977c0,0 3.57123,-2.37171 14.28492,-1.58114c10.71369,0.79057 7.14246,3.16228 7.14246,3.16228c-18.3587,12.19231 -36.30403,24.40298 -56.46824,36.4552c-9.15749,5.47348 -24.14453,11.54578 -29.02537,17.27186c-2.69041,3.15629 -1.69001,6.4131 -2.59509,9.61884c-1.87856,6.65368 -3.75707,13.30737 -5.63563,19.96105c-3.10794,11.00821 -5.07644,21.87236 -5.07644,32.90248c0,4.32978 -3.11869,9.37174 -0.10914,13.65325c6.28255,8.93784 30.58898,17.09833 44.50624,25.43617c6.71969,4.02576 16.25432,9.25736 18.71936,13.53885c0.16452,0.28572 0.12554,9.86642 0.12554,10.37174c-0.01346,4.67826 2.0429,9.22532 3.42474,13.88814l11.39535,2.35719c0,0 7.92639,1.78076 -0.11781,3.53544z"/></g></g></svg>