<svg version="1.1" xmlns="http://www.w3.org/2000/svg" xmlns:xlink="http://www.w3.org/1999/xlink" width="79.09479" height="165.59129" viewBox="0,0,79.09479,165.59129"><g transform="translate(-280.4526,-98.99944)"><g data-paper-data="{&quot;isPaintingLayer&quot;:true}" fill-rule="nonzero" stroke-linejoin="miter" stroke-miterlimit="10" stroke-dasharray="" stroke-dashoffset="0" style="mix-blend-mode: normal"><path d="M313.76396,198.75972c-0.17539,3.68333 -3.34851,6.80841 -5.13895,2.36529c-1.37102,-3.4023 -0.33974,-7.33195 -0.3125,-11c0.01675,-2.25545 4.04647,-3.50823 4.8125,-1.125c0.93627,2.91285 0.5625,6.45306 0.5625,9.37745z" fill="#ffffd6" stroke="none" stroke-width="0.5" stroke-linecap="butt"/><path d="M327.68751,199.87501c-2.87169,0 -3.05656,-7.4911 -2.58778,-10.05722c0.00378,-0.02166 0.00783,-0.04323 0.01216,-0.06469c0.23044,-1.14266 1.24005,-2.00309 2.45062,-2.00309c1.38071,0 2.5,1.11929 2.5,2.5c0,0.2807 -0.04626,0.55058 -0.13157,0.80246c1.18484,3.71708 0.20078,8.82254 -2.24343,8.82254z" fill="#ffffd6" stroke="none" stroke-width="0.5" stroke-linecap="butt"/><path d="M308.75001,186.12501c-2.22479,-4.44958 -0.32308,-11.43322 -0.0625,-16.05776c0.13169,-2.33718 -1.18221,-4.47562 1.00696,-6.17831c1.98412,-1.54321 3.16582,0.82024 3.74676,2.45496c0.01854,-0.0316 0.03812,-0.06291 0.05878,-0.09389c2.33865,-3.50797 4.3278,0.85642 5.84819,2.25016c0.85258,0.78156 1.2335,-2.22366 2.33931,-2.56266c3.10095,-0.95061 7.51792,-5.26239 10.02118,-3.131c0.42723,0.36377 -0.78259,1.15793 -0.38061,1.92874c0.93854,1.79967 -1.04056,3.43299 -1.59369,4.65479c-1.33858,2.95675 -1.8541,4.75356 -1.21427,8.26465c0.4751,2.60718 3.11395,6.48809 1.31016,8.98808c-0.87273,1.20958 -2.98638,0.52235 -4.02952,-0.31264c-0.32118,-0.25709 -2.02193,-1.40089 -2.07399,-1.23716c-0.88989,2.79903 0.85131,3.5792 0.85131,5.92179c0,6.47091 1.73022,13.51687 0.875,19.84549c-0.08808,0.65179 -0.34066,1.224 -0.71657,1.71828c-2.2203,-0.0769 -4.47078,-0.09096 -6.51821,0.36906c-1.3213,-0.00337 -3.30862,-0.16521 -5.16309,-0.08633c-1.56243,-2.07597 0.90813,-2.84441 -0.20628,-5.07324c-0.18291,-0.34741 -0.28643,-0.74312 -0.28643,-1.16302c0,-0.02273 0.0003,-0.04538 0.0009,-0.06796c0.08288,-6.02958 0.83786,-12.5083 0.8741,-18.72667c0.00456,-0.78222 0.00832,-1.56444 0.01137,-2.34667c-0.75948,1.97179 -3.47424,3.09056 -4.69887,0.6413z" fill="#ffffff" stroke="none" stroke-width="0.5" stroke-linecap="butt"/><path d="M313.5625,213.43751c-0.03699,-0.03699 -0.07281,-0.0736 -0.10746,-0.10983c1.76382,-0.03861 3.62341,0.12096 4.81777,0.11693c1.90359,-0.41589 3.9699,-0.43425 6.02535,-0.37557c-0.63614,0.61208 -1.48314,1.07442 -2.43014,1.39146c-2.47054,-0.01444 -4.9393,-0.19289 -7.40512,-0.36141c-0.34589,-0.19047 -0.64998,-0.41116 -0.9004,-0.66159z" fill="#ffffff" stroke="none" stroke-width="0.5" stroke-linecap="butt"/><path d="M319.77986,214.91317c-1.26346,0.14278 -2.56095,0.07264 -3.68937,-0.20227c1.22919,0.08172 2.45902,0.15618 3.68937,0.20227z" fill="#ffffff" stroke="none" stroke-width="0.5" stroke-linecap="butt"/><path d="M326.00725,230.29353c-0.66415,4.09576 -2.13033,8.79371 -1.97549,12.8478c0.00713,0.07694 0.01078,0.15488 0.01078,0.23367c0,0.15885 -0.01482,0.31425 -0.04314,0.46488c1.13642,3.40924 0.06038,6.07589 -2.21947,6.85651c-0.04845,-0.00025 -0.09679,-0.00037 -0.14499,-0.00037c-0.97793,0 -1.98021,0.00082 -2.99199,-0.00913c-0.12602,-0.03516 -0.25341,-0.07426 -0.38212,-0.1174c-0.75977,-0.25462 -1.57786,-0.09319 -2.37552,0.05541c-0.83263,-0.03186 -1.66264,-0.07797 -2.48188,-0.14468c-0.34086,-0.215 -0.65237,-0.56319 -0.92338,-1.10521c-1.08314,-2.16627 -0.76741,-5.94503 -0.90139,-8.23057c-0.21723,-3.70568 0.33675,-7.14617 0.21389,-10.76975c-0.14958,-4.41143 -1.72314,-9.69989 -0.1875,-13.99969c0.1797,-0.50316 0.52399,-0.94988 0.99349,-1.33768c0.42171,0.04124 0.84522,0.07503 1.27098,0.09992c3.51001,0.20514 7.01716,-0.05631 10.51862,-0.29525c0.46206,-0.03153 0.92287,-0.06272 1.38286,-0.09295c0.97444,0.63088 1.66541,1.46085 1.89654,2.50097c0.24887,1.11994 -1.12291,3.40872 -1.25,4.47543c-0.33271,2.79258 0.03722,5.80845 -0.41028,8.56811z" data-paper-data="{&quot;index&quot;:null}" fill="#ff0000" stroke="none" stroke-width="0.5" stroke-linecap="butt"/><path d="M315.75678,213.36034c0.95911,0.03689 1.84314,0.08655 2.51603,0.08428c0.99162,-0.21665 2.0274,-0.32542 3.08281,-0.37162c1.59459,0.19465 3.06538,0.6233 4.14094,1.26898c-0.22116,0.01769 -0.44285,0.03313 -0.66517,0.04613c-3.48886,0.2039 -6.97508,-0.05745 -10.45542,-0.29495c-0.20417,-0.01394 -0.4081,-0.0278 -0.61183,-0.04154c0.60319,-0.28794 1.27688,-0.51777 1.99264,-0.69128z" fill="#ff0000" stroke="none" stroke-width="0.5" stroke-linecap="butt"/><path d="M319.10014,157.52131c0.72138,0.05266 1.1627,0.86078 1.73769,1.29959c0.16734,0.12771 1.30021,-0.75666 2.54778,0.52134c1.94393,1.99134 -1.61228,8.68948 -4.49999,8.52905c-2.75794,-0.15322 -3.66756,-4.35369 -3.64704,-6.47488c0.00236,-0.24371 -0.0529,-2.23394 0.44792,-2.46271l1.52991,-0.78448c0.06043,0 0.1202,0.00285 0.17917,0.00841c0.58014,-0.03841 1.10547,-0.68005 1.70455,-0.63632z" fill="#ffffd6" stroke="none" stroke-width="0.5" stroke-linecap="butt"/><path d="M320.47612,250.4639c0.07054,0.08989 0.14176,0.18054 0.21404,0.27187l-0.14459,0.18225c-1.28596,1.62081 -2.57191,3.24162 -3.85787,4.86242c-0.691,-0.3184 -1.61178,-0.45396 -2.26429,-0.79412c-2.43753,-1.27069 -11.29769,-4.88433 -9.53195,-8.16038c1.50452,-2.7914 5.86106,-1.97001 7.91854,-0.74294c0.74698,0.44551 1.52006,1.72832 2.2755,1.8953c0.46236,0.1022 1.29,-0.80657 2.10847,-0.43543c0.03411,0.01547 0.06786,0.03111 0.10127,0.0469c0.99887,0.98639 2.0775,1.94462 3.18086,2.87413z" data-paper-data="{&quot;index&quot;:null}" fill="#ffffff" stroke="none" stroke-width="0.5" stroke-linecap="butt"/><path d="M329.35232,260.46896c0.0012,0.28259 -0.06142,0.56976 -0.19502,0.84038c-0.07004,0.14187 -0.15555,0.27102 -0.25349,0.38642c-0.05126,0.10382 -0.14597,0.19134 -0.27468,0.26371c-0.51072,0.39894 -1.20937,0.51847 -1.84184,0.27247c-1.14582,-0.04102 -2.40544,-0.33156 -2.84262,-0.7577c-1.22596,-1.19496 -5.4679,-5.68741 -5.90292,-6.5231c-0.13835,-0.26578 -0.35046,-0.44272 -0.60897,-0.56349c0.90537,-1.83387 1.81072,-3.66773 2.71607,-5.5016l0.05271,-0.10677c0.21964,0.17501 0.44857,0.351 0.69138,0.52576c0.17441,0.12551 0.55803,0.10967 0.94092,0.11178c0.50002,0.25082 0.99788,0.49756 1.49032,0.74085c0.18718,0.30699 0.28026,0.64418 0.50196,0.95696c0.72242,1.01921 2.87792,1.29938 3.74905,2.32926c1.2795,1.51265 2.1028,4.78391 1.77713,7.02507z" data-paper-data="{&quot;index&quot;:null}" fill="#ffffff" stroke="none" stroke-width="0.5" stroke-linecap="butt"/><path d="M297.10221,157.95697c0,0 -4.22307,-17.29411 -4.22307,-24.93623c0,-2.75768 -0.95763,-11.04158 3.54451,-14.9676c5.80536,-5.06248 17.7568,-5.54445 21.79391,-5.54445c3.39251,0 15.74324,-2.37128 21.09113,2.11689c6.84841,5.74747 6.45938,19.01195 6.45938,23.02043c0,7.07165 -3.82087,20.31096 -3.82087,20.31096c0,0 -15.47704,2.21209 -23.12634,2.21209c-7.28084,0 -21.71865,-2.21209 -21.71865,-2.21209z" fill="#ffffd6" stroke="#000000" stroke-width="3" stroke-linecap="butt"/><path d="M358.74709,131.707l-0.14343,0.08367l0.33475,0.37387c-0.00225,1.08935 0.25677,2.21105 -0.00676,3.26804c-0.71879,2.88303 -2.2179,2.17152 -3.38575,4.87996c-0.35102,0.81408 0.47941,2.11992 -0.23157,2.64948c-3.88254,2.89185 -7.27805,-0.98608 -8.27893,-4.08709c-0.70971,-2.19889 1.73392,3.68249 -1.81545,3.43895c-2.81241,-0.19297 -5.81571,2.48621 -8.62152,2.24885c-3.05575,-0.25851 -4.09995,-5.94481 -7.25629,-6.37247c-2.96979,-0.40239 -5.42339,4.17616 -8.56457,4.48078c-1.5576,0.15105 -3.33265,-3.05784 -4.42784,-2.71406c-1.29235,0.40566 -2.35877,3.59712 -3.69707,3.80613c-0.24984,0.03902 -3.81786,0.95526 -3.8714,1.28276c-0.42064,2.57255 -1.54095,1.03424 -3.23877,0.96866c1.33415,2.72128 -2.64938,0.84041 -2.73789,3.76252l-0.82677,1.34037c0.16131,0.27772 -2.03204,-1.68527 -2.03204,-1.34098c0,0.69725 -0.09311,-0.55113 -0.65615,-0.22543l-1.14285,-0.13737c0,1.04035 0.29947,-1.68771 -0.74088,-1.68771c-0.74135,0 -1.38266,-0.42825 -1.69007,-1.05086l-0.91271,-1.75747c-1.192,0.19968 -1.85833,-0.9664 -1.85833,-0.9664l-0.08542,-0.17781c-0.82137,-0.74195 -1.56986,-2.11574 -2.13529,-3.24841c-0.52376,-0.01525 -1.03774,-0.0702 -1.51691,-0.26643c-3.08562,-1.26363 -3.40458,-3.8018 -2.65153,-6.47753c-0.20715,-0.82715 -0.26448,-1.88197 -0.13702,-3.21786c0.0281,-0.29451 0.18298,-0.52439 0.39897,-0.7251c-3.80262,0.2981 -6.30821,-0.23036 -6.36438,-4.58475c-0.0328,-2.54237 1.23406,-4.29673 2.95379,-5.7228c0.46659,-0.84575 1.22511,-1.71413 2.13053,-2.44444c0.55139,-1.30416 1.17433,-2.57207 1.88773,-3.83643l0.23282,-0.13668l-0.06095,-0.06095l1.69535,-1.69535v0c0.21044,-0.21044 0.47044,-0.37132 0.761,-0.46363c1.16084,-2.14751 2.69086,-4.01431 5.22521,-4.88075c1.03573,-0.3541 2.31551,-0.64049 3.28138,-0.12548c0.79683,0.42488 0.21672,2.37041 1.11433,2.46931c0.78591,0.0866 0.29874,-1.5809 0.68442,-2.27112c1.56335,-2.79781 3.75449,-5.06529 7.01117,-5.59837c1.27957,-0.20945 2.62268,-0.62494 3.87814,-0.30093c0.71808,0.18533 0.76128,1.43049 1.46014,1.67865c0.80797,0.28691 2.99304,-1.38887 3.47817,-1.6135c2.25119,-1.04236 5.0758,-1.69421 7.53113,-0.89462c0.81736,0.26618 0.80707,1.57717 1.48032,2.11165c1.98197,1.57344 2.74417,0.96118 4.89146,0.54316c2.42854,-0.85656 4.70167,-1.88804 7.38503,-1.75021c3.30064,0.16953 4.71681,2.59696 7.04773,4.28628c0.2246,-0.09456 0.47138,-0.14683 0.73037,-0.14683c0.66422,0 1.24815,0.34378 1.58356,0.86313l0.26758,0.40138c1.04552,0.20455 2.13932,0.29867 3.0702,0.787c2.51583,1.31979 5.91825,5.6709 6.69752,8.58995c0.37646,1.4102 -0.20546,3.10201 0.03866,4.5209c0.4596,2.67125 3.49963,6.09339 2.39881,8.8986c-0.29573,0.7536 -0.73392,1.44133 -1.2381,2.08629zM352.52275,140.47461c0.00849,0.01026 0.01142,0.00865 0.00743,-0.00872c-0.00247,0.00292 -0.00495,0.00582 -0.00743,0.00872z" fill="#29241d" stroke="none" stroke-width="0.5" stroke-linecap="butt"/><path d="M308.56129,198.01334c0.16905,-1.32035 0.31732,-2.61102 0.37858,-3.77692c0.02564,-0.48784 -1.44854,-0.21155 -1.40795,-0.67387c0.40467,-4.60998 1.41322,-10.99197 1.30684,-13.83228c-0.21043,-5.61847 -1.07237,-15.99266 -1.07237,-15.99266l7.34652,1.3186" fill="none" stroke="#000000" stroke-width="3" stroke-linecap="round"/><path d="M324.83986,251.61508l0.34625,-0.51467" data-paper-data="{&quot;index&quot;:null}" fill="none" stroke="#000000" stroke-width="3" stroke-linecap="round"/><path d="M326.10758,214.72711l1.3085,2.53945l-4.49714,33.45357" data-paper-data="{&quot;index&quot;:null}" fill="none" stroke="#000000" stroke-width="3" stroke-linecap="round"/><path d="M312.87228,213.9923l0.04372,-0.08485l13.31624,0.12559" fill="none" stroke="#000000" stroke-width="3" stroke-linecap="round"/><path d="M322.61641,165.43294l-3.76745,3.13954l-3.17093,-4.83489l-0.56511,-3.57907" fill="none" stroke="#000000" stroke-width="3" stroke-linecap="round"/><path d="M332.44318,162.419l-8.66513,2.26046l0.56512,-4.52093" fill="none" stroke="#000000" stroke-width="3" stroke-linecap="round"/><path d="M313.04082,212.52605l0.75349,-47.09311" fill="none" stroke="#000000" stroke-width="3" stroke-linecap="round"/><path d="M325.89251,212.62226l-0.92143,-46.62418" fill="none" stroke="#000000" stroke-width="3" stroke-linecap="round"/><path d="M326.27078,214.27102l-0.35784,-0.61472l-0.0105,-0.53126" fill="none" stroke="#000000" stroke-width="3" stroke-linecap="round"/><path d="M311.55758,250.2896l-0.57079,-33.23906l1.19695,-2.05618" data-paper-data="{&quot;index&quot;:null}" fill="none" stroke="#000000" stroke-width="3" stroke-linecap="round"/><path d="M315.98271,256.669l-13.21903,-7.36326l3.0815,-4.28802l10.03546,3.31328l0.9361,-1.22239" data-paper-data="{&quot;index&quot;:null}" fill="none" stroke="#000000" stroke-width="3" stroke-linecap="round"/><path d="M329.66042,195.83652c0.16517,-1.37929 0.34321,-2.85557 0.47238,-4.55744c0.47731,-6.28876 -1.40055,-12.56035 -1.36566,-15.67721c0.04442,-3.96855 2.5458,-12.05263 2.5458,-12.05263" fill="none" stroke="#000000" stroke-width="3" stroke-linecap="round"/><path d="M311.91058,207.25163l-3.57907,-8.66513" fill="none" stroke="#000000" stroke-width="3" stroke-linecap="round"/><path d="M330.21411,196.07487l-4.7721,10.54886" fill="none" stroke="#000000" stroke-width="3" stroke-linecap="round"/><path d="M320.23037,214.2842l0.00417,0.14471" fill="none" stroke="#000000" stroke-width="3" stroke-linecap="round"/><path d="M317.45833,250.66971l1.02277,-35.49039" data-paper-data="{&quot;index&quot;:null}" fill="none" stroke="#000000" stroke-width="3" stroke-linecap="round"/><path d="M317.35505,254.25347l0.08882,-3.08225" data-paper-data="{&quot;index&quot;:null}" fill="none" stroke="#000000" stroke-width="3" stroke-linecap="round"/><path d="M325.57107,251.83602l4.64531,7.89539l-3.97264,2.94057l-9.05122,-7.79771" data-paper-data="{&quot;index&quot;:null}" fill="none" stroke="#000000" stroke-width="3" stroke-linecap="round"/><path d="M327.16178,255.42237l-2.6926,0.63142" data-paper-data="{&quot;index&quot;:null}" fill="none" stroke="#000000" stroke-width="3" stroke-linecap="round"/><path d="M328.52018,257.49351l-2.30061,0.40478" data-paper-data="{&quot;index&quot;:null}" fill="none" stroke="#000000" stroke-width="3" stroke-linecap="round"/><path d="M313.15934,249.53835l-1.42443,-3.05383" data-paper-data="{&quot;index&quot;:null}" fill="none" stroke="#000000" stroke-width="3" stroke-linecap="round"/><path d="M309.00388,245.27956l0.44066,2.2733" data-paper-data="{&quot;index&quot;:null}" fill="none" stroke="#000000" stroke-width="3" stroke-linecap="round"/><path d="M312.31251,185.25001l-4,5.125" fill="none" stroke="#000000" stroke-width="3" stroke-linecap="round"/><path d="M325.06251,186.50001l4.5,1.875" fill="none" stroke="#000000" stroke-width="3" stroke-linecap="round"/><path d="M323.65906,189.20804c-0.24514,0.74035 -1.47087,0.59228 -1.47087,0.59228l-1.94071,-0.62239c-0.25972,-0.48849 -0.02309,-2.6124 -0.50226,-2.87007c-0.70049,-0.37669 -1.93535,0.85467 -1.86188,1.18171c0,0 0,0.75501 -1.25,0.75501c-1.25,0 -1.25,-0.75501 -1.25,-0.75501c0.13326,-1.31643 2.88145,-3.60448 5.73811,-2.44233c1.88292,0.76601 0.87175,2.57369 1.49774,3.65319l0.05929,-0.38079c0,0 1.22572,0.14807 0.98058,0.88841z" fill="#cacaca" stroke="none" stroke-width="0.5" stroke-linecap="butt"/><path d="M322.8521,191.59788c0.65519,-0.0341 -0.16835,0.74131 -0.16835,0.74131l-0.73211,0.62779c-0.54022,0.35656 -1.09511,0.82011 -1.62067,1.06968c-1.83787,0.87275 -1.28552,-0.61429 -2.35839,0.88607c0,0 -0.64005,0.74399 -1.47542,0.96514c-0.83537,0.22115 -0.19533,-0.52283 -0.19533,-0.52283c0.46952,-0.50801 0.73466,-1.03235 1.40853,-1.52403c0.75026,-0.54741 1.64131,-0.96602 2.31344,-1.19162c0.57042,-0.19146 0.86704,0.15749 1.49238,-0.31496l-0.14282,0.07295c0,0 0.82354,-0.77541 1.47874,-0.80951z" fill="#cacaca" stroke="none" stroke-width="0.5" stroke-linecap="butt"/><path d="M323.86642,222.88637l-2.36364,-0.18182l-0.81818,-5.27273l4,-0.09091l-1.45454,5.63636" data-paper-data="{&quot;index&quot;:null}" fill="none" stroke="#000000" stroke-width="0.5" stroke-linecap="round"/><path d="M316.50278,222.06818l-2.72727,0.18182l-0.90909,-4.81818l3.90909,0.36364z" data-paper-data="{&quot;index&quot;:null}" fill="none" stroke="#000000" stroke-width="0.5" stroke-linecap="round"/></g></g></svg>