<svg version="1.1" xmlns="http://www.w3.org/2000/svg" xmlns:xlink="http://www.w3.org/1999/xlink" width="807" height="406" viewBox="0,0,807,406"><g transform="translate(83.5,18)"><g data-paper-data="{&quot;isPaintingLayer&quot;:true}" fill-rule="nonzero" stroke-linejoin="miter" stroke-miterlimit="10" stroke-dasharray="" stroke-dashoffset="0" style="mix-blend-mode: normal"><path d="M386.25375,105.59309v-11h8v11z" fill="#000000" stroke="none" stroke-width="0" stroke-linecap="butt"/><path d="M-83.5,388v-406h807v406z" fill="#000000" stroke="none" stroke-width="0" stroke-linecap="butt"/><text transform="translate(176.5,50) scale(0.5,0.5)" font-size="40" xml:space="preserve" fill="#ffffff" fill-rule="nonzero" stroke="none" stroke-width="1" stroke-linecap="butt" stroke-linejoin="miter" stroke-miterlimit="10" stroke-dasharray="" stroke-dashoffset="0" font-family="Pixel" font-weight="normal" text-anchor="start" style="mix-blend-mode: normal"><tspan x="0" dy="0">still cant find my meaning</tspan></text><path d="M175.1874,220.1548l18.46257,-63.85026c0,0 37.55147,47.63786 73.84603,56.7115c37.70581,9.42645 99.31661,-5.17084 99.31661,-5.17084l-15.46256,59.85026c0,0 -61.6108,24.59729 -99.31661,15.17084c-36.29456,-9.07364 -76.84602,-62.71151 -76.84602,-62.71151z" fill="#cecece" stroke="none" stroke-width="0" stroke-linecap="butt"/><path d="M365.40788,208.41525c-4.8757,11.42992 -72.97834,17.54077 -105.23612,3.78046c-32.25778,-13.76031 -71.45534,-40.18103 -66.57964,-51.61095c4.8757,-11.42992 61.97834,-18.54077 94.23612,-4.78046c32.25778,13.76031 82.45534,41.18103 77.57964,52.61095z" fill="#ffffff" stroke="none" stroke-width="0" stroke-linecap="butt"/><path d="M319.60893,261.60718l5.03329,-18.32119l80.74885,27.10683l-6.03329,16.32119z" fill="#b2b2b2" stroke="none" stroke-width="0" stroke-linecap="butt"/><path d="M320.7629,244.93143l21.93782,-4.77259c0,0 27.80022,8.17337 41.56945,12.22157c13.59692,3.99754 40.53552,11.91759 40.53552,11.91759l-19.04413,10.21314z" data-paper-data="{&quot;index&quot;:null}" fill="#999999" stroke="none" stroke-width="0" stroke-linecap="butt"/><path d="M364,253c0,-1.38071 1.11929,-2.5 2.5,-2.5c1.38071,0 2.5,1.11929 2.5,2.5c0,1.38071 -1.11929,2.5 -2.5,2.5c-1.38071,0 -2.5,-1.11929 -2.5,-2.5z" fill="#999999" stroke="none" stroke-width="0.5" stroke-linecap="butt"/><path d="M398.60893,285.60718l4.51278,-12.32119l18.26936,-5.89317l-1.81333,11.32119z" fill="#5e5e5e" stroke="none" stroke-width="0" stroke-linecap="butt"/><path d="M77.5,103v48" fill="none" stroke="#ffffff" stroke-width="3" stroke-linecap="round"/><path d="M123.5,104l-4,54" fill="none" stroke="#ffffff" stroke-width="3" stroke-linecap="round"/><path d="M119.5,205h-79l16,50z" fill="none" stroke="#ffffff" stroke-width="3" stroke-linecap="round"/><path d="M52.5,99l19,-11l13,-12l18,2" fill="none" stroke="#ffffff" stroke-width="3" stroke-linecap="round"/><path d="M128.5,77h18l13,22l17,9" fill="none" stroke="#ffffff" stroke-width="3" stroke-linecap="round"/><path d="M28.5,258l-10,-205l192,6l2,93" fill="none" stroke="#ffffff" stroke-width="3" stroke-linecap="round"/><path d="M37.5,258l183,5" fill="none" stroke="#ffffff" stroke-width="3" stroke-linecap="round"/><path d="M24.5,88h97l92,4" fill="none" stroke="#ffffff" stroke-width="3" stroke-linecap="round"/><path d="M212.5,69l54,-3" fill="none" stroke="#ffffff" stroke-width="3" stroke-linecap="round"/><path d="M269.5,60l1,15l-65,4" fill="none" stroke="#ffffff" stroke-width="3" stroke-linecap="round"/></g></g></svg>