<svg version="1.1" xmlns="http://www.w3.org/2000/svg" xmlns:xlink="http://www.w3.org/1999/xlink" width="146.5" height="70.16926" viewBox="0,0,146.5,70.16926"><defs><linearGradient x1="93.44067" y1="225.37014" x2="93.44067" y2="253.29945" gradientUnits="userSpaceOnUse" id="color-1"><stop offset="0" stop-color="#d8d8d8"/><stop offset="1" stop-color="#d8d8d8" stop-opacity="0"/></linearGradient><linearGradient x1="93.44067" y1="225.37014" x2="93.44067" y2="253.29945" gradientUnits="userSpaceOnUse" id="color-2"><stop offset="0" stop-color="#000000"/><stop offset="1" stop-color="#000000" stop-opacity="0"/></linearGradient></defs><g transform="translate(-20,-186.83075)"><g data-paper-data="{&quot;isPaintingLayer&quot;:true}" fill-rule="nonzero" stroke-linejoin="miter" stroke-miterlimit="10" stroke-dasharray="" stroke-dashoffset="0" style="mix-blend-mode: normal"><path d="M21,256.00001v-67h144.5v67z" fill="#ffffff" stroke="#000000" stroke-width="2" stroke-linecap="butt"/><path d="M114.45242,235.97465c0.07386,0.00398 0.45338,0.04489 0.45338,0.46533c0,0.46576 -0.46576,0.46576 -0.46576,0.46576l-0.51564,-0.13641c-0.03621,-0.0365 -0.07152,-0.07358 -0.10603,-0.11115c0.13978,0.87503 0.18459,1.7564 -0.04529,2.69637c-0.11538,0.57446 -0.25477,1.71238 -0.63962,2.21202c-0.14884,0.19323 -0.42748,0.24653 -0.59971,0.41923c-0.35986,0.36086 -0.5755,0.86776 -0.98852,1.16631c-0.65727,0.47512 -1.82379,1.01003 -2.60619,1.19733c-0.74232,0.17772 -1.75087,0.0084 -2.51001,0.0084c-2.59229,0 -5.04471,-0.33572 -7.59588,-0.7644c-2.43614,-0.47355 -5.04618,-0.40269 -7.40282,-1.2741c-1.45315,-0.53733 -2.80176,-1.35351 -4.24376,-1.93381c-1.01466,-0.40832 -1.98971,-1.03271 -2.85022,-1.72233c-0.00069,-0.00056 -0.00205,-0.00178 -0.00404,-0.00363c0.00512,0.04855 0.01053,0.09704 0.01638,0.14544c0.05352,0.44297 0.29552,0.8465 0.37008,1.28642c0.03113,0.18368 -0.02964,0.37498 0,0.55891c0.16504,1.0242 0.81392,1.95154 0.93403,2.99854c0.15676,1.36641 0.10654,2.77799 0.38989,4.13922c0.31443,1.51054 0.9578,2.96125 1.40707,4.42905c0.41613,0.42298 0.97297,0.8303 0.52983,1.64932c-0.14984,0.27694 -0.61456,0.14418 -0.92749,0.17912c-0.51229,0.0572 -1.02195,-0.13713 -1.53485,-0.18856c-0.61123,-0.0613 -1.22935,0.03208 -1.84289,0.00155c-1.91138,-0.09512 -3.83402,-0.37265 -5.74963,-0.37189c-0.55891,0.00022 -1.11938,0.04178 -1.67672,0c-0.36005,-0.02699 -0.79892,0.09681 -1.07455,-0.13641c-0.22867,-0.1935 -0.1083,-0.59002 -0.13641,-0.88825c-0.04971,-0.52732 -0.0002,-1.0898 0.00349,-1.61981c-0.23612,-0.94447 -0.0229,-1.84598 -0.18378,-2.77684c-0.06857,-0.39673 -0.19029,-0.78982 -0.19232,-1.19242c-0.00253,-0.50206 0.08995,-1.1079 0.00602,-1.60212c-0.30753,-1.81077 -1.10608,-3.59196 -1.30786,-5.43142c-0.06202,-0.56536 0.05336,-1.14061 -0.00624,-1.70623c-0.06494,-0.61632 -0.19471,-1.22747 -0.2133,-1.84692c-0.20789,-1.2516 -0.15534,-2.49192 -0.15534,-3.7586c0,-2.04582 0.02819,-4.09389 0.00008,-6.13952c-0.01005,-0.73145 -0.09072,-1.45449 -0.1878,-2.17498c-0.26106,-0.34902 -0.50486,-0.71271 -0.81157,-1.02095c-0.23794,-0.23914 -0.57425,-0.37748 -0.78003,-0.64479c-0.15528,-0.2017 -0.3886,-1.24274 -0.4424,-1.45756c0,0 -0.11296,-0.45184 0.33889,-0.56481c0.00699,-0.00175 0.0139,-0.00336 0.02072,-0.00484c0.00091,-0.03469 0.00077,-0.06884 -0.00091,-0.10222c-0.03116,-0.62023 0,-1.24201 0,-1.86302c0,-3.27779 0.12247,-6.58416 -0.03108,-9.85866c-0.05597,-1.19361 -0.15523,-2.35771 -0.15523,-3.55513c0,-0.11552 -0.00262,-0.93188 0.00347,-1.48595c-0.11457,-0.07554 -0.23115,-0.21632 -0.18073,-0.46842c0.05215,-0.26074 0.22338,-0.34284 0.36073,-0.3653c0.0869,-0.12116 0.18862,-0.23593 0.26736,-0.36061c0,0 0.25836,-0.38754 0.64589,-0.12918c0.32331,0.21554 0.19707,0.52099 0.14634,0.61631c0.76065,0.07125 1.51675,0.0522 2.29668,0.05075c0,-0.27948 0,-0.55896 0,-0.83844v-0.55891c0,-0.25723 0.20853,-0.46576 0.46576,-0.46576c0.12861,0 0.24505,0.05213 0.32934,0.13642l0.37261,0.37261l-0.00528,0.00527c0.01217,0.0094 0.02422,0.01898 0.03613,0.02877c0.14597,0.12001 0.1546,0.35771 0.29513,0.48406c0.0902,0.0811 0.23386,0.06447 0.3508,0.0967l0.67061,-0.00601c0,0 0.46576,0 0.46576,0.46576c0,0.12265 -0.0323,0.21299 -0.07988,0.27955c0.56432,-0.00002 1.12865,-0.00006 1.69297,-0.00009c0.99505,-2.19541 2.08514,-4.37088 3.6667,-6.20822c0.7169,-0.83284 1.64571,-1.57696 2.47349,-2.30096c1.70991,-1.49555 3.42125,-2.53086 5.74042,-2.66879c0.84315,0.0076 1.17136,0.24447 1.89459,0.60608c0.40456,0.20227 0.85353,0.33676 1.20847,0.61712c0.96751,0.7642 1.65436,1.97506 1.98881,3.14605c0.17706,0.61995 0.14323,1.28151 0.21709,1.922c0.06867,0.59557 0.30567,1.16277 0.38319,1.75725c0.14396,1.10389 0.2593,2.23127 0.36996,3.34421c0.0918,0.9233 0.00584,1.91292 0.00592,2.84114c0.00012,4.01712 0.00007,8.03424 0.00005,12.05136c0.89606,0.32473 1.70015,0.71939 2.47025,1.35792c0.67312,0.56095 1.32325,1.16412 2.01069,1.70678c1.63725,1.29244 3.41678,2.41885 4.95655,3.83494c0.68305,0.62818 1.3206,1.32003 1.97686,1.97628c0.05638,0.05638 1.31624,1.31494 1.33927,1.3435c0.27912,0.34626 0.49667,0.73655 0.71907,1.12321c0.04497,0.00198 0.09204,0.00772 0.14126,0.01757c0.4213,0.0843 0.53941,0.61404 0.56309,1.14316c0.24869,0.40572 0.50616,0.82803 0.51586,0.85272c0.0149,0.03794 0.13612,0.64054 0.24057,1.16674c0.10014,0.17379 0.20037,0.34795 0.30454,0.51916c-0.05633,-0.85792 -0.039,-1.6333 -0.47091,-2.46129l-0.04917,-0.5809c0,0 0,-0.46576 0.46576,-0.46576c0.46576,0 0.46576,0.46576 0.46576,0.46576l-0.04917,0.16431c0.33195,0.68649 0.48282,1.2603 0.60207,1.99671c0.07421,0.45824 -0.04311,0.93254 0.01958,1.39249c0.04336,0.31809 0.0993,0.63001 0.16058,0.93786c0.36429,0.45132 0.65546,0.94799 1.0492,1.37758zM112.94963,237.46464c-0.22165,0 -0.40714,-0.15483 -0.45421,-0.36225l-0.16033,-0.6413c-0.14302,-0.13821 -0.27837,-0.28188 -0.40874,-0.42914c-0.07032,0.38222 -0.16704,0.74967 -0.29971,1.08395c-0.07803,0.19663 -0.16478,0.36436 -0.25987,0.51703c-0.00319,0.12486 -0.00557,0.24895 -0.00674,0.37205l-0.04459,0.06378l0.0267,0.0089l-0.18291,0.54872c-0.05853,0.19032 -0.23574,0.32866 -0.44525,0.32866c-0.12395,0 -0.2366,-0.04842 -0.32005,-0.12738c-0.97178,1.07409 -1.96468,1.80096 -3.29605,2.45615c-0.31063,0.15286 -0.60205,0.35656 -0.93445,0.4533c-0.51128,0.1488 -1.06494,0.01266 -1.59743,0.01246c-1.17762,-0.00045 -2.422,-0.06738 -3.59047,-0.18907c-0.8818,-0.09184 -1.79619,-0.39468 -2.66695,-0.5688c-3.18523,-0.63977 -6.07348,-2.18631 -8.87322,-3.77213c-2.51618,-1.42521 -5.04578,-2.74024 -7.45476,-4.35119c-1.03999,-0.70597 -2.1132,-1.39577 -3.0602,-2.22743c-1.61495,-1.41826 -2.96535,-3.13511 -4.4674,-4.66661c-0.00991,-0.0101 -0.28851,-0.29413 -0.58726,-0.59882c0.02922,0.33059 0.04878,0.6623 0.0534,0.99561c0.0284,2.05127 0.00007,4.10501 0.00007,6.15646c0,1.23706 -0.05338,2.44639 0.15094,3.66816c0.01769,0.61748 0.14951,1.22645 0.2127,1.84094c0.05834,0.56726 -0.05369,1.14369 0.00669,1.71074c0.05123,0.48111 0.22419,0.94163 0.35655,1.407c0.25513,0.89701 0.44783,1.77588 0.57375,2.68071c0.0615,0.44194 0.2978,0.84611 0.37009,1.28642c0.11918,0.726 -0.12474,1.51388 0,2.23563c0.03345,0.19351 0.15503,0.36503 0.1863,0.5589c0.15386,0.95399 -0.05076,1.85388 0.18883,2.81224c0.00222,0.39157 0.00348,0.78315 0.00348,1.17472c0,0.18631 0.03176,0.37533 0,0.55891c-0.01517,0.08771 -0.22086,0.20142 -0.13641,0.22957c0.13841,0.04613 0.27097,-0.11939 0.41587,-0.13641c0.55509,-0.06522 1.11781,-0.00021 1.67672,0c0.82104,0.00031 1.61829,0.14495 2.43602,0.18596c0.89578,0.04492 1.74407,0.00652 2.63989,0.10606c0.87215,0.09691 1.74051,-0.00204 2.6084,0.08285c0.30952,0.03027 0.60638,0.14356 0.91488,0.18283c0.17562,0.02235 0.35936,-0.04172 0.53111,0.00121c0.08452,0.02113 0.23949,0.25105 0.19033,0.17912c-0.15618,-0.22852 -0.39057,-0.39231 -0.58799,-0.58632c-0.54473,-1.54135 -1.19198,-3.12126 -1.52663,-4.72894c-0.28853,-1.38608 -0.25337,-2.82227 -0.40246,-4.21524c-0.11004,-1.02806 -0.7557,-1.95276 -0.92899,-2.96314c-0.0315,-0.18363 0.03007,-0.37505 0,-0.55891c-0.07394,-0.452 -0.31663,-0.86757 -0.37513,-1.32182c-0.06058,-0.47036 -0.05377,-0.95285 -0.17006,-1.41255l-0.1787,-0.53608c-0.0177,-0.04922 -0.02734,-0.10228 -0.02734,-0.1576c0,-0.25723 0.20853,-0.46576 0.46576,-0.46576c0.18593,0 0.34642,0.10895 0.4211,0.26649l0.33974,0.67946c0.75323,0.71515 1.54212,1.39806 2.44819,1.90831c0.78965,0.44469 1.74954,0.63189 2.56792,1.02395c0.8201,0.39289 1.60569,0.90186 2.46342,1.22089c2.2947,0.8535 4.86758,0.77507 7.24442,1.23081c2.49672,0.41952 4.89352,0.74958 7.43042,0.74958c0.69014,0 1.66265,0.17464 2.33386,0.00841c0.68317,-0.16919 1.66098,-0.63264 2.23767,-1.03831c0.37662,-0.26492 0.54846,-0.74418 0.87451,-1.06931c0.14449,-0.14407 0.38649,-0.17007 0.51811,-0.32598c0.09434,-0.11175 0.07174,-0.28366 0.11459,-0.42348c0.14366,-0.46875 0.26063,-0.94615 0.35637,-1.42697c0.14634,-0.57706 0.17303,-1.13643 0.13289,-1.68842c-0.01559,0.00158 -0.0314,0.00238 -0.04741,0.00238zM110.06194,236.06737c0,-0.71564 0.06647,-1.41248 0.11999,-2.11078c-0.05848,-0.06874 -0.24214,-0.3223 -0.03115,-0.5874c-0.11199,-0.17694 -0.24617,-0.34532 -0.26268,-0.54825c-0.02978,-0.36599 -0.09493,-0.9124 0.23353,-1.07656c0.04076,-0.02037 0.0827,-0.03394 0.12553,-0.0415c-0.00001,-0.00133 -0.00001,-0.00265 -0.00001,-0.00397c-0.21741,-0.21188 -0.43455,-0.42206 -0.53391,-0.70072c-0.07958,-0.22318 -0.08227,-0.63077 0.03981,-0.97205c-0.2204,-0.38461 -0.42996,-0.777 -0.70766,-1.1209c-0.55522,-0.68762 -1.30237,-1.29815 -1.92764,-1.92342c-2.47001,-2.47 -5.35981,-4.43605 -8.04785,-6.65701h-0.27926c-0.50003,0 -1.11135,-0.09075 -1.60341,-0.0058c-0.0555,0.00958 -0.11099,0.01961 -0.16646,0.03004c0,0.14718 0,0.29434 0,0.44152v0.37261c0,0 0,0.46576 -0.46576,0.46576c-0.46576,0 -0.46576,-0.46576 -0.46576,-0.46576c0,-0.07812 0,-0.52885 0,-0.60697c-0.93954,0.23463 -1.87768,0.52656 -2.82478,0.69495c-0.92019,0.16361 -1.88874,0.20692 -2.81911,0.29152c-1.51964,0.13737 -3.04747,0.08652 -4.57277,0.0853c-1.8714,-0.0015 -3.75312,0.04955 -5.62,-0.08596c-0.33437,-0.02427 -0.67376,-0.05682 -1.01627,-0.09139c-0.13451,0.17829 -0.38008,0.17829 -0.38008,0.17829h-0.37275c-1.06573,-0.00036 -2.10709,-0.02443 -3.16085,-0.15645c-0.06373,0.04656 -0.13101,0.0873 -0.20052,0.121c-0.46467,0.22525 -1.14261,0.0456 -1.72042,0.01354c0.05854,0.74002 0.17008,1.47603 0.27474,2.2137c0.07701,0.09647 0.13285,0.1655 0.15327,0.18855c0.4066,0.45894 0.85907,0.87511 1.28836,1.31289c1.48595,1.51534 2.82123,3.21811 4.41921,4.62086c0.91636,0.8044 1.95769,1.46989 2.96381,2.15288c2.38675,1.59607 4.89367,2.89835 7.38712,4.30969c2.71289,1.53554 5.51455,3.05784 8.60304,3.67274c0.84247,0.16852 1.73239,0.46996 2.58571,0.55625c1.13703,0.11497 2.34276,0.18398 3.48903,0.18354c0.46116,-0.00018 0.94298,0.14916 1.38341,0.01246c1.60276,-0.49746 2.93223,-1.66008 3.99388,-2.90129c0.04054,-0.04738 0.08115,-0.09396 0.12156,-0.14014c-0.00371,-0.14583 -0.00291,-1.57558 -0.00291,-1.72175zM72.42881,220.60425c0,0 0,-0.46576 0.46576,-0.46576c0.46576,0 0.46576,0.46576 0.46576,0.46576c-0.00006,0.03187 0.00003,0.06372 0.00026,0.09555c0.03091,-0.00146 0.06188,-0.00228 0.09288,-0.0024c0.10236,-0.00039 0.20473,-0.00144 0.3071,-0.00237c0.37691,-0.11841 0.75906,-0.20219 1.14494,-0.25905c0.01796,-0.36542 -0.08892,-0.73697 -0.11197,-1.10498c-0.0581,-0.92781 -0.11592,-1.85509 -0.18625,-2.78207c-0.16128,-2.12572 -0.12916,-4.24632 -0.12916,-6.37763c0,-2.08037 0,-4.16073 0,-6.24109c-0.89555,0.00105 -1.75759,0.01711 -2.63142,-0.08375c-0.03884,0.40324 0.02319,0.82758 0.02319,1.29467c0,0.86658 0.00372,1.70257 0.07574,2.56634c0.29908,3.58673 0.11056,7.24912 0.11056,10.84745c0,0.62101 0.04396,1.24358 0,1.86303c-0.01107,0.15596 -0.17517,0.32223 -0.09865,0.45857c0.05878,0.10474 0.24248,0.03116 0.36023,0.00752c0.03813,-0.00765 0.07627,-0.01566 0.11441,-0.02387c-0.00208,-0.08522 -0.00325,-0.17052 -0.00339,-0.25593zM72.35353,221.81488c-0.16864,-0.01672 -0.35208,-0.03155 -0.52726,-0.06637c0.03325,0.09679 0.07931,0.1869 0.14623,0.26607c0.15794,0.18688 0.39569,0.28853 0.58711,0.44135c-0.02648,-0.21696 -0.05044,-0.43413 -0.0704,-0.65167c-0.04441,0.01051 -0.08947,0.0152 -0.13567,0.01062zM80.32016,220.61295c1.84437,0.1344 3.70427,0.08203 5.55317,0.08351c1.49636,0.0012 2.99705,0.05482 4.48768,-0.08148c0.90397,-0.08216 1.84622,-0.12197 2.74038,-0.28096c1.00155,-0.17808 1.99308,-0.49852 2.98785,-0.73802c0,-0.25503 0.00001,-0.51006 0.00001,-0.76509l-0.27946,0.00347c0,0 -0.46576,0 -0.46576,-0.46576c0,-0.46576 0.46576,-0.46576 0.46576,-0.46576l0.27947,0.00265c0.00002,-3.95031 0.00007,-7.90062 -0.00005,-11.85093c-0.00018,-2.04877 -0.11112,-4.06078 -0.36926,-6.07444c-0.07636,-0.59567 -0.31329,-1.16392 -0.38356,-1.76034c-0.11356,-0.964 -0.10386,-1.6676 -0.51039,-2.5756c-0.37471,-0.83692 -0.96704,-1.77413 -1.82908,-2.19434c-0.17652,-0.08605 -0.38325,-0.09847 -0.5589,-0.1863c-0.62981,-0.31491 -0.74527,-0.52057 -1.45886,-0.51174c-2.09461,0.11284 -3.61593,1.09275 -5.15348,2.43869c-0.79465,0.69562 -1.69251,1.4079 -2.38091,2.20764c-1.39489,1.62049 -2.38516,3.5174 -3.27864,5.44839c0.04516,0.023 0.09122,0.05617 0.13728,0.10223c0.32934,0.32933 0,0.65868 0,0.65868l-0.51564,0.32272c-0.038,0 -0.07601,0 -0.11402,0c-0.1351,0.30118 -0.26923,0.60209 -0.40359,0.90182c-0.59755,2.25573 -1.00625,4.48882 -1.3969,6.78913c-0.30729,1.80951 -0.68071,3.64378 -0.78759,5.4797c-0.06351,1.09097 0.03702,2.17222 0.14562,3.25464c1.03356,0.05158 2.0722,0.18341 3.08888,0.2575zM97.04059,219.39909c0.18118,-0.03001 0.37479,-0.04065 0.57286,-0.0415c-0.19306,-0.09389 -0.39035,-0.17971 -0.5927,-0.26078c0,0.10186 0,0.20372 0,0.30558c0.00661,-0.00111 0.01323,-0.00221 0.01984,-0.00331zM76.15574,217.04668c0.10888,-1.87038 0.4861,-3.73804 0.79916,-5.58152c0.39965,-2.35336 0.81832,-4.63758 1.43712,-6.94397c0.0874,-0.19664 0.17482,-0.39371 0.26256,-0.59098c-1.08164,0.00005 -2.16328,0.00014 -3.24492,0.00006c0,2.08034 0,4.1607 0,6.24104c0,2.42726 0.02971,4.81826 0.19718,7.2391c0.06427,0.92899 0.16227,1.87572 0.1752,2.8067c0.0006,0.04363 0.00322,0.08798 0.00655,0.13267c0.16778,-0.00878 0.33604,-0.01367 0.50465,-0.01527c-0.10822,-1.09339 -0.20165,-2.1857 -0.13749,-3.28783zM75.40965,202.87682c0,0.04065 0,0.08128 0,0.12193c0.08709,0 0.17417,0.00001 0.26125,0.00001c-0.08933,-0.03628 -0.17845,-0.07666 -0.26125,-0.12194z" fill="#000000" stroke="none" stroke-width="0.5" stroke-linecap="butt"/><path d="M77.22602,220.36314c-0.10859,-1.08241 -0.21014,-2.16448 -0.14664,-3.25545c0.10688,-1.83593 0.47846,-3.67249 0.78575,-5.482c0.39064,-2.30031 0.79845,-4.54031 1.39599,-6.79604c0.13435,-0.29973 0.26888,-0.6018 0.40398,-0.90297c0.038,0 0.07604,-0.00006 0.11404,-0.00006l0.51591,-0.32332c0,0 0.32969,-0.33 0.00036,-0.65934c-0.04606,-0.04606 -0.0921,-0.07925 -0.13727,-0.10225c0.89348,-1.93099 1.88875,-3.83191 3.28364,-5.45239c0.6884,-0.79973 1.58862,-1.51248 2.38327,-2.2081c1.53755,-1.34593 3.06228,-2.32543 5.15689,-2.43828c0.71359,-0.00883 0.82997,0.19717 1.45978,0.51208c0.17565,0.08783 0.38272,0.1004 0.55924,0.18645c0.86205,0.42022 1.45588,1.35833 1.83058,2.19525c0.40653,0.90801 0.39795,1.61259 0.51152,2.57658c0.07027,0.59642 0.30802,1.16563 0.38438,1.7613c0.25814,2.01366 0.37086,4.03054 0.37105,6.07931c0.00012,3.95031 -0.00319,7.90837 -0.00321,11.85869l-0.27957,-0.00257c0,0 -0.46608,0.00026 -0.46608,0.46602c0,0.46576 0.4545,0.45091 0.4545,0.45091l0.29086,0.01126c0,0.25503 -0.00022,0.51022 -0.00023,0.76525c-0.99477,0.23951 -1.98782,0.56085 -2.98936,0.73893c-0.89415,0.15899 -1.83798,0.19939 -2.74195,0.28155c-1.49064,0.1363 -2.99424,0.08299 -4.49061,0.08179c-1.8489,-0.00148 -3.71216,0.05008 -5.55653,-0.08432c-1.01668,-0.07408 -2.05676,-0.20673 -3.09031,-0.25831z" data-paper-data="{&quot;noHover&quot;:false,&quot;origItem&quot;:[&quot;Path&quot;,{&quot;applyMatrix&quot;:true,&quot;segments&quot;:[[[247.35772,172.04668],[-5.45713,-0.39766],[9.89987,0.72141]],[[277.16498,172.49492],[-9.92417,-0.00796],[8.0319,0.00645]],[[301.25313,172.05759],[-8.00118,0.73163],[4.85215,-0.441]],[[315.96239,170.5495],[-4.79948,0.85336],[5.37592,-0.95586]],[[332.00001,166.58808],[-5.33955,1.28556],[0,-1.36891]],[[332.00003,162.48138],[0,1.36891],[0,0]],[330.5,162.5],[[328,160],[0,2.5],[0,-2.5]],[330.5,157.5],[[332.00005,157.51424],[0,0],[0.00013,-21.20374]],[[331.99982,93.90303],[0.00065,21.20374],[-0.00097,-10.99696]],[[330.01781,61.29782],[1.3856,10.80852],[-0.40988,-3.19734]],[[327.95902,51.84898],[0.37715,3.20137],[-0.60958,-5.17435]],[[325.2194,38.02414],[2.18211,4.87381],[-2.01128,-4.49227]],[[315.40162,26.24579],[4.62714,2.25555],[-0.94752,-0.46187]],[[312.40162,25.24579],[0.94281,0.47141],[-3.38057,-1.69028]],[[304.57104,22.49899],[3.83027,-0.04737],[-11.24303,0.60568]],[[276.90915,35.58892],[8.25297,-7.22446],[-4.26536,3.7338]],[[264.12935,47.43864],[3.69507,-4.29268],[-7.48723,8.69815]],[[246.53087,76.68347],[4.79588,-10.3648],[0.24241,0.12344]],[[247.26777,77.23224],[-0.24724,-0.24725],[1.76776,1.76776]],[247.26777,80.76777],[[244.5,82.5],[0,0],[-0.20399,0]],[[243.88802,82.5],[0.20399,0],[-0.72514,1.61662]],[[241.72168,87.34061],[0.72116,-1.60882],[-3.2074,12.10786]],[[234.22371,123.78201],[2.0968,-12.34717],[-1.64942,9.71274]],[[229.99625,153.19492],[0.57366,-9.85455],[-0.34089,5.85595]],[[230.77787,170.66455],[-0.58288,-5.80996],[5.54772,0.27687]]],&quot;closed&quot;:true}]}" fill="#ffffff" stroke="none" stroke-width="0.5" stroke-linecap="butt"/><path d="M113.00631,237.46137c0.04014,0.552 0.01349,1.11216 -0.13285,1.68921c-0.09574,0.48083 -0.21273,0.95892 -0.35639,1.42767c-0.04285,0.13981 -0.02027,0.31194 -0.1146,0.42369c-0.13162,0.15591 -0.37364,0.18209 -0.51813,0.32616c-0.32605,0.32513 -0.49797,0.805 -0.87459,1.06992c-0.5767,0.40566 -1.55469,0.86992 -2.23786,1.03911c-0.67121,0.16623 -1.64382,-0.00802 -2.33396,-0.00802c-2.5369,0 -4.9346,-0.32807 -7.43132,-0.74759c-2.37684,-0.45574 -4.96353,-0.37482 -7.25823,-1.22832c-0.85774,-0.31903 -1.64661,-0.83333 -2.46672,-1.22621c-0.81838,-0.39206 -1.77846,-0.5814 -2.56812,-1.02609c-0.90608,-0.51025 -1.69476,-1.195 -2.44798,-1.91015l-0.33959,-0.68001c-0.07468,-0.15754 -0.2173,-0.26122 -0.40323,-0.26122c-0.25723,0 -0.46562,0.20804 -0.46562,0.46527c0,0.05532 0.00967,0.10825 0.02737,0.15747l0.17879,0.53566c0.11629,0.45971 0.10962,0.94094 0.1702,1.41129c0.0585,0.45425 0.30116,0.86856 0.3751,1.32056c0.03007,0.18386 -0.03156,0.37475 -0.00006,0.55838c0.17329,1.01038 0.81804,1.93226 0.92808,2.96032c0.1491,1.39297 0.11208,2.82666 0.40061,4.21274c0.33465,1.60768 0.97966,3.186 1.52439,4.72734c0.19742,0.19401 0.43138,0.3576 0.58756,0.58612c0.04916,0.07193 -0.11351,-0.14103 -0.19803,-0.16216c-0.17175,-0.04293 -0.35576,0.02101 -0.53138,-0.00134c-0.3085,-0.03927 -0.60583,-0.15281 -0.91535,-0.18308c-0.86788,-0.08489 -1.73729,0.01336 -2.60944,-0.08355c-0.89583,-0.09954 -1.74492,-0.06184 -2.6407,-0.10676c-0.81773,-0.04101 -1.61556,-0.18627 -2.4366,-0.18659c-0.55891,-0.00021 -1.12193,-0.06559 -1.67702,-0.00037c-0.1449,0.01702 -0.2775,0.1825 -0.4159,0.13637c-0.08445,-0.02815 0.12122,-0.1419 0.13639,-0.2296c0.03176,-0.18357 -0.00012,-0.37276 -0.00012,-0.55907c0,-0.39157 -0.00151,-0.7835 -0.00373,-1.17507c-0.23959,-0.95836 -0.03555,-1.85926 -0.18941,-2.81325c-0.03127,-0.19387 -0.15297,-0.36565 -0.18642,-0.55916c-0.12474,-0.72176 0.11881,-1.51058 -0.00037,-2.23658c-0.07228,-0.4403 -0.30877,-0.84512 -0.37027,-1.28706c-0.12592,-0.90483 -0.31884,-1.78503 -0.57397,-2.68204c-0.13236,-0.46537 -0.30537,-0.92659 -0.35659,-1.4077c-0.06037,-0.56705 0.05167,-1.14431 -0.00667,-1.71157c-0.06319,-0.61449 -0.19491,-1.22432 -0.2126,-1.8418c-0.20432,-1.22177 -0.15054,-2.43267 -0.15054,-3.66974c0,-2.05146 0.02935,-4.10728 0.00096,-6.15855c-0.00462,-0.33332 -0.024,-0.66528 -0.05322,-0.99587c0.29875,0.30468 0.59255,0.59949 0.60246,0.60959c1.50204,1.53151 2.85282,3.24778 4.46778,4.66604c0.947,0.83166 2.02032,1.52125 3.06032,2.22722c2.40897,1.61095 4.93869,2.92576 7.45488,4.35097c2.79975,1.58582 5.67094,3.12501 8.85617,3.76478c0.87076,0.17413 1.78504,0.47733 2.66684,0.56916c1.16846,0.12169 2.41267,0.18928 3.59029,0.18973c0.53249,0.0002 1.0861,0.13659 1.59738,-0.01221c0.33241,-0.09674 0.62376,-0.30002 0.93438,-0.45288c1.33137,-0.65519 2.32419,-1.38047 3.29597,-2.45457c0.08345,0.07896 0.19609,0.1273 0.32004,0.1273c0.20951,0 0.38672,-0.13817 0.44526,-0.3285l0.18292,-0.54843l-0.0267,-0.00889l0.04459,-0.06375c0.00117,-0.12311 0.00357,-0.247 0.00675,-0.37186c0.09508,-0.15267 0.18186,-0.32016 0.2599,-0.51679c0.13267,-0.33428 0.22946,-0.70122 0.29978,-1.08344c0.13037,0.14726 0.28409,0.28788 0.42712,0.42609l0.16036,0.64161c0.04707,0.20741 0.23258,0.36244 0.45423,0.36244c0.01601,0 0.03182,-0.0008 0.0474,-0.00238z" data-paper-data="{&quot;noHover&quot;:false,&quot;origItem&quot;:[&quot;Path&quot;,{&quot;applyMatrix&quot;:true,&quot;segments&quot;:[[[422.5,262.5],[0.0859,0],[-1.18975,0]],[[420.06196,260.5556],[0.25265,1.1133],[0,0]],[[419.20141,257.11339],[0,0],[-0.76771,-0.74187]],[[417.00747,254.80995],[0.69977,0.7904],[-0.37747,2.05158]],[[415.39877,260.62818],[0.71209,-1.79431],[-0.41886,1.05542]],[[414.00388,263.40343],[0.51039,-0.81947],[-0.0171,0.6702]],[[413.96772,265.40046],[0.00627,-0.66077],[0,0]],[413.7284,265.7428],[413.87171,265.79057],[[412.88994,268.73588],[0,0],[-0.31417,1.02156]],[[410.5,270.5],[1.1246,0],[-0.66532,0]],[[408.78212,269.81629],[0.44793,0.42381],[-5.21617,5.76531]],[[391.09017,283],[7.14627,-3.51681],[-1.6673,0.82051]],[[386.07438,285.43312],[1.78424,-0.51927],[-2.74435,0.79869]],[[377.5,285.5],[2.85821,0.00108],[-6.32101,-0.00239]],[[358.22777,284.48514],[6.27186,0.65317],[-4.73315,-0.49293]],[[343.91262,281.43203],[4.6739,0.93464],[-17.09706,-3.43407]],[[296.28461,261.18468],[15.02794,8.51207],[-13.5059,-7.64996]],[[256.27036,237.8292],[12.93043,8.64695],[-5.58225,-3.78938]],[[239.84441,225.87324],[5.08311,4.464],[-8.66846,-7.61267]],[[215.86516,200.82469],[8.06239,8.22051],[-0.05318,-0.05422]],[[212.71296,197.61046],[1.60357,1.63541],[0.15688,1.77448]],[[212.99959,202.95454],[-0.02477,-1.78914],[0.15243,11.01039]],[[213,236],[0,-11.01141],[0,6.64005]],[[213.81019,255.68926],[-1.09673,-6.55796],[0.09495,3.31436]],[[214.95188,265.57069],[-0.33922,-3.29833],[0.31315,3.04484]],[[214.9878,274.75331],[-0.32408,-3.04369],[0.27496,2.58239]],[[216.90161,282.30555],[-0.71046,-2.49791],[1.36943,4.81478]],[[219.98127,296.69454],[-0.67587,-4.85676],[0.33011,2.37216]],[[221.96772,303.59954],[-0.38797,-2.36339],[0.63971,3.8969]],[[221.96772,315.59954],[-0.66953,-3.87411],[0.17951,1.0387]],[[222.96772,318.59954],[-0.16784,-1.04064],[0.82587,5.12065]],[[223.98127,333.69454],[-1.28603,-5.14412],[0.01191,2.10179]],[[224,340],[0,-2.10183],[0,1]],[[224,343],[0.17048,-0.98536],[-0.08145,0.4708]],[[223.26777,344.23223],[-0.45327,-0.15109],[0.7429,0.24763]],[[225.5,343.5],[-0.77774,0.09138],[2.97951,-0.35007]],[[234.5,343.5],[-3,-0.00115],[4.40703,0.00168]],[[247.57559,344.49818],[-4.38926,-0.22012],[4.80819,0.24113]],[[261.7455,345.06745],[-4.80846,-0.53429],[4.68136,0.52017]],[[275.74634,345.51217],[-4.65845,-0.45568],[1.66134,0.16251]],[[280.65705,346.49353],[-1.65591,-0.21076],[0.94266,0.11998]],[[283.50784,346.50001],[-0.9219,-0.23043],[0.45368,0.1134]],[[284.52949,347.46147],[0.26386,0.38609],[-0.83828,-1.22661]],[[281.37337,344.31433],[1.05966,1.04135],[-2.92389,-8.27334]],[[273.17899,318.93122],[1.79629,8.62939],[-1.54869,-7.43991]],[[271.01873,296.30546],[0.8003,7.47693],[-0.59065,-5.51823]],[[266.03228,280.40046],[0.93018,5.42329],[-0.16905,-0.98561]],[[266.03228,277.40046],[0.16142,0.98689],[-0.39684,-2.42615]],[[264.01873,270.30546],[0.31401,2.43826],[-0.32514,-2.52468]],[[263.1059,262.72341],[0.62421,2.46751],[0,0]],[[262.14675,259.84593],[0,0],[-0.09499,-0.2642]],[[262,259],[0,0.29691],[0,-1.38071]],[[264.5,256.5],[-1.38071,0],[0.99801,0]],[[266.76029,257.93041],[-0.40086,-0.84561],[0,0]],[[268.58385,261.57752],[0,0],[4.04302,3.83863]],[[281.72481,271.82059],[-4.86346,-2.73881],[4.23857,2.38691]],[[295.50842,277.31678],[-4.39274,-2.10443],[4.40199,2.10886]],[[308.73113,283.87003],[-4.60398,-1.71242],[12.3171,4.58127]],[[347.61638,290.4765],[-12.75795,-2.44622],[13.40142,2.25186]],[[387.5,294.5],[-13.61711,0],[3.70442,0]],[[400.02723,294.54511],[-3.60279,0.89226],[3.66696,-0.90815]],[[412.03822,288.97189],[-3.09547,2.17741],[2.02153,-1.42198]],[[416.73223,283.23223],[-1.75014,1.74516],[0.77554,-0.77333]],[[419.51323,281.48252],[-0.70649,0.83688],[0.50635,-0.59979]],[[420.12829,279.20943],[-0.23002,0.75048],[0.77114,-2.51604]],[[422.04118,271.54999],[-0.5139,2.5809],[0.7855,-3.09742]],[[422.75446,262.48721],[0.21549,2.96289],[-0.08367,0.00846]]],&quot;closed&quot;:true}]}" fill="url(#color-1)" stroke="url(#color-2)" stroke-width="0.5" stroke-linecap="butt"/><path d="M76.29407,220.32524c-0.16862,0.00161 -0.33911,0.02498 -0.50689,0.03376c-0.00333,-0.04469 -0.00597,-0.08905 -0.00658,-0.13268c-0.01293,-0.93098 -0.11195,-1.87793 -0.17621,-2.80692c-0.16747,-2.42085 -0.20067,-4.82802 -0.20067,-7.25528c0,-2.08034 0.00412,-4.16265 0.00412,-6.24299c1.08164,0.00008 2.1669,-0.00001 3.24854,-0.00006c-0.08774,0.19727 -0.17861,0.41265 -0.26601,0.60929c-0.6188,2.30639 -1.03477,4.59069 -1.43442,6.94405c-0.31306,1.84348 -0.68971,3.69273 -0.79859,5.5631c-0.06416,1.10213 0.02848,2.19433 0.1367,3.28772z" data-paper-data="{&quot;noHover&quot;:false,&quot;origItem&quot;:[&quot;Path&quot;,{&quot;applyMatrix&quot;:true,&quot;segments&quot;:[[[450.00939,305.80869],[-0.68875,11.8316],[1.16885,-20.07893]],[[458.58857,245.88979],[-3.36077,19.79014],[4.29032,-25.26388]],[[474.0164,171.34468],[-6.64294,24.75962],[0.93822,-2.11095]],[[476.83502,165.00034],[-0.94189,2.11778],[-11.61167,0.00056]],[[442,165.00105],[11.61167,0.00083],[0,22.33298]],[[442,232],[0,-22.33298],[0,26.05709]],[[444.11673,309.71335],[-1.79785,-25.98829],[0.68992,9.97284]],[[445.99757,339.84398],[-0.13884,-9.99428],[0.00651,0.46836]],[[446.06783,341.26824],[-0.03573,-0.47978],[1.80119,-0.09427]],[[451.48548,341.1043],[-1.81015,0.01721],[-1.16176,-11.73782]]],&quot;closed&quot;:true}]}" fill="#ffffff" stroke="none" stroke-width="0.5" stroke-linecap="butt"/><path d="M72.43116,220.86944c-0.03813,0.00821 -0.07639,0.0162 -0.11453,0.02385c-0.11775,0.02364 -0.30183,0.09716 -0.36061,-0.00758c-0.07652,-0.13635 0.0876,-0.30261 0.09867,-0.45857c0.04396,-0.61945 -0.00043,-1.24211 -0.00043,-1.86311c0,-3.59833 0.18776,-7.27874 -0.11132,-10.86547c-0.07202,-0.86377 -0.07493,-1.69997 -0.07493,-2.56655c0,-0.4671 -0.06177,-0.89148 -0.02294,-1.29472c0.87383,0.10087 1.73872,0.08474 2.63427,0.08369c0,2.08037 0.00295,4.16162 0.00295,6.24199c0,2.13132 -0.03363,4.26918 0.12765,6.39489c0.07033,0.92697 0.12736,1.85445 0.18547,2.78226c0.02304,0.36802 0.12981,0.73958 0.11185,1.10501c-0.38587,0.05686 -0.76934,0.1408 -1.14625,0.25921c-0.10237,0.00092 -0.20508,0.00198 -0.30745,0.00238c-0.03101,0.00012 -0.06208,0.00095 -0.09299,0.00241c-0.00023,-0.03184 -0.00032,-0.06369 -0.00026,-0.09556c0,0 -0.00056,-0.46577 -0.46631,-0.46577c-0.46576,0 -0.46625,0.46571 -0.46625,0.46571c0.00014,0.08541 0.00133,0.17072 0.00342,0.25593z" data-paper-data="{&quot;noHover&quot;:false,&quot;origItem&quot;:[&quot;Path&quot;,{&quot;applyMatrix&quot;:true,&quot;segments&quot;:[[[410,344],[0.0015,0.91685],[0,0]],[[415,339],[-5,0],[5,0]],[[420,344],[0,0],[-0.00061,0.34206]],[[420.00284,345.0258],[-0.00248,-0.34181],[0.33188,-0.01565]],[[421,345],[-0.33291,0.00128],[1.09883,-0.00422]],[[424.29676,344.97463],[-1.09897,0.00992],[4.04627,-1.27115]],[[436.58794,342.19363],[-4.14246,0.61035],[0.1928,-3.92291]],[[435.38595,330.33137],[0.24741,3.95073],[-0.62374,-9.96027]],[[433.3865,300.46531],[0.75501,9.9513],[-1.73137,-22.82001]],[[432,232],[0,22.88015],[0,-22.33316]],[[432,165.00053],[0,22.33316],[-9.61395,0.01126]],[[403.75106,164.10138],[9.38071,1.08287],[-0.41688,4.32894]],[[404,178],[0,-5.01439],[0,9.30288]],[[404.81318,205.55023],[-0.77321,-9.27279],[3.21069,38.50429]],[[406,322],[0,-38.62886],[0,6.66667]],[[406,342],[0.4719,-6.64994],[-0.11881,1.67431]],[[404.94103,346.92294],[-0.82148,-1.46376],[0.631,1.12435]],[[408.80812,347.00368],[-1.2641,0.25374],[0.40939,-0.08218]],[[410.0363,346.74743],[-0.40943,0.08812],[-0.02239,-0.91481]]],&quot;closed&quot;:true}]}" fill="#ffffff" stroke="none" stroke-width="0.5" stroke-linecap="butt"/><path d="M113.13593,236.71943c-0.46576,0 -0.46576,-0.46576 -0.46576,-0.46576l0.0239,-0.03902c-0.34204,-1.02976 -0.91815,-1.96448 -1.53323,-2.87195c0.00933,0.05481 0.01937,0.10943 0.03038,0.16375c-0.00102,1.01961 -0.04823,2.31041 -0.42253,3.27125c-0.1824,0.46824 -0.50236,0.78752 -0.8168,1.15514c-1.06165,1.24121 -2.39226,2.40584 -3.99502,2.9033c-0.44043,0.1367 -0.92255,-0.01227 -1.38371,-0.01209c-1.14627,0.00045 -2.35303,-0.06752 -3.49005,-0.18249c-0.85332,-0.08629 -1.74427,-0.38695 -2.58674,-0.55546c-3.08849,-0.61489 -5.8988,-2.13638 -8.61169,-3.67192c-2.49345,-1.41134 -5.00602,-2.72081 -7.39277,-4.31688c-1.00612,-0.68299 -2.04755,-1.35037 -2.96391,-2.15477c-1.59798,-1.40275 -2.93286,-3.10778 -4.41881,-4.62312c-0.42929,-0.43778 -0.88164,-0.85435 -1.28824,-1.31329c-0.02041,-0.02304 -0.07624,-0.09214 -0.15325,-0.18861c-0.10466,-0.73766 -0.21586,-1.47449 -0.2744,-2.21451c0.57781,0.03206 1.25591,0.21139 1.72058,-0.01386c0.06952,-0.0337 0.13684,-0.07453 0.20057,-0.12109c1.05376,0.13201 2.09551,0.15544 3.16124,0.15579l0.37281,-0.0001c0,0 0.24568,-0.00017 0.3802,-0.17847c0.34251,0.03457 0.68209,0.06686 1.01645,0.09113c1.86687,0.13551 3.75061,0.08249 5.62201,0.08399c1.52531,0.00123 3.05669,0.05052 4.57633,-0.08685c0.93037,-0.0846 1.90174,-0.12805 2.82194,-0.29166c0.9471,-0.1684 1.88758,-0.45977 2.82712,-0.6944c0,0.07812 0.00018,0.52891 0.00018,0.60703c0,0 0.00052,0.46598 0.46628,0.46598c0.46576,0 0.45758,-0.44902 0.45758,-0.44902l0.00012,-0.37255c0,-0.14718 0.00015,-0.29428 0.00015,-0.44145c0.05547,-0.01043 0.11887,-0.03732 0.17438,-0.0469c0.49206,-0.08495 1.10435,0.00634 1.60438,0.00634l0.27941,0.0001c2.68804,2.22096 5.58177,4.19258 8.05177,6.66258c0.62527,0.62527 1.37264,1.23706 1.92786,1.92469c0.35666,0.44171 0.60098,0.9642 0.90019,1.44668c0.16344,0.26355 0.35433,0.51353 0.52793,0.77215c0.26604,-0.03499 0.43245,0.21463 0.43245,0.21463c0.97849,1.46774 2.0999,2.89984 2.66256,4.58233l0.0239,0.33359c0,0 0,0.46576 -0.46576,0.46576z" fill="#ffffff" stroke="none" stroke-width="0.5" stroke-linecap="butt"/><path d="M83.33731,215.85343c-0.46565,0.00981 -0.47545,-0.45585 -0.47545,-0.45585l-0.01578,-0.75061c-0.08612,-2.1046 -0.24385,-4.10523 0.01927,-6.21016c0,0 0.05777,-0.46216 0.51993,-0.40439c0.46216,0.05777 0.40439,0.51994 0.40439,0.51994c-0.25701,2.05606 -0.09915,4.00933 -0.01253,6.06548l0.01602,0.76014c0,0 0.00981,0.46565 -0.45585,0.47546z" fill="#000000" stroke="none" stroke-width="0.5" stroke-linecap="butt"/><path d="M93.48002,215.41797c-0.03019,0.46478 -0.49497,0.43458 -0.49497,0.43458l-0.83863,-0.1465c-0.60268,-1.9272 -1.28693,-4.28866 -1.08457,-6.33077c0.05813,-0.58661 0.25303,-1.1515 0.38091,-1.72694c0,0 0.10104,-0.45467 0.5557,-0.35363c0.45467,0.10104 0.35363,0.5557 0.35363,0.5557c-0.12053,0.54237 -0.30799,1.07377 -0.3643,1.62651c-0.19,1.86515 0.60295,3.68257 0.76131,5.51887l0.29632,-0.07278c0,0 0.46478,0.03019 0.43458,0.49497z" fill="#000000" stroke="none" stroke-width="0.5" stroke-linecap="butt"/><path d="M99.76829,236.34716c0.01507,0.00283 0.03013,0.00573 0.04519,0.00871c0,0 0.45672,0.09135 0.36537,0.54806c-0.09135,0.45671 -0.54805,0.36537 -0.54805,0.36537c-0.93331,-0.18905 -1.86184,-0.0961 -2.7868,-0.32059c-1.07277,-0.26036 -2.16414,-0.75716 -3.1899,-1.16745c-3.04124,-1.21645 -6.01532,-2.69051 -8.54583,-4.79629c-0.67363,-0.56236 -1.17536,-1.13148 -1.67531,-1.85347c-0.1192,-0.17213 -0.65346,-0.94001 -0.71015,-1.0568c-0.66743,-1.37517 0.04039,-2.55154 1.37462,-3.0634c1.06413,-0.40823 2.17812,-0.4761 3.28284,-0.58557c1.20001,-0.11891 2.35106,-0.37051 3.56668,-0.37422c0.9383,-0.00287 1.81476,0.00287 2.7451,-0.12878c1.14232,-0.04315 2.27859,-0.05817 3.42185,-0.05817c0.97765,0 1.97876,-0.10457 2.92635,0.20747c1.17426,0.38667 2.15867,1.20672 3.12848,1.93501c0.45995,0.3454 1.05712,0.73669 1.40251,1.21809c0.57347,0.79928 0.71276,1.75236 0.9816,2.66096c0.09154,0.30937 0.27589,0.5895 0.34298,0.90508c0.06759,0.31798 0.01865,0.65074 0.0564,0.97362c0.09407,0.80459 0.19882,1.51456 0.19134,2.32787c-0.37026,1.08058 -1.17916,1.96209 -2.34828,2.21791c-0.19808,0.04334 -1.72128,0.03549 -1.95649,0.0357c-0.69017,0.00058 -1.38034,0.00083 -2.07052,0.0009zM95.22444,235.41672c0.01668,-0.00142 0.02644,-0.00142 0.02644,-0.00142h0.55891c2.31754,0 4.63618,0.01982 6.95363,-0.00174c1.07384,-0.00999 2.10567,-0.3462 2.46067,-1.47013c-0.00898,-0.72033 -0.11524,-1.35671 -0.19719,-2.07149c-0.03371,-0.294 0.01958,-0.59737 -0.04215,-0.88679c-0.06225,-0.29182 -0.23983,-0.54811 -0.32493,-0.83411c-0.23889,-0.80282 -0.33997,-1.6712 -0.84425,-2.38126c-0.25253,-0.35558 -0.89214,-0.78266 -1.20573,-1.01754c-0.89387,-0.6695 -1.79124,-1.43361 -2.86938,-1.79827c-0.82945,-0.28054 -1.76965,-0.1579 -2.62655,-0.1579c-1.11561,0 -2.22475,0.01389 -3.33947,0.05452c-1.24358,0.17455 -2.47272,0.00684 -3.71149,0.13306c-0.86687,0.08832 -1.72382,0.28327 -2.59088,0.36906c-0.53708,0.05315 -1.08638,0.04254 -1.60966,0.17467c-0.65443,0.16524 -1.93218,0.24648 -2.325,0.91082c-0.54819,0.9271 0.62869,2.25066 1.1659,2.89689c0.32608,0.39226 0.62829,0.62404 1.0013,0.93427c2.45078,2.04536 5.34757,3.46782 8.29545,4.64701c0.40004,0.16002 0.80982,0.33355 1.22438,0.50036z" fill="#000000" stroke="none" stroke-width="0.5" stroke-linecap="butt"/><path d="M93.99946,234.92566c-2.94788,-1.17919 -5.85337,-2.61076 -8.30416,-4.65611c-0.37301,-0.31024 -0.6752,-0.54295 -1.00128,-0.9352c-0.53721,-0.64623 -1.71363,-1.97205 -1.16544,-2.89915c0.39283,-0.66434 1.6712,-0.74702 2.32563,-0.91226c0.52327,-0.13213 1.07312,-0.1224 1.6102,-0.17554c0.86706,-0.08579 1.72572,-0.28259 2.59258,-0.37091c1.23877,-0.12622 2.47292,0.03939 3.7165,-0.13517c1.11472,-0.04063 2.22916,-0.05348 3.34477,-0.05348c0.8569,0 1.79951,-0.12081 2.62895,0.15974c1.07814,0.36466 1.9774,1.13169 2.87126,1.8012c0.31359,0.23488 0.95361,0.66323 1.20614,1.01881c0.50428,0.71006 0.60563,1.5807 0.84452,2.38352c0.0851,0.286 0.26264,0.54301 0.32489,0.83483c0.06173,0.28942 0.00835,0.59354 0.04206,0.88754c0.08195,0.71479 0.18781,1.35274 0.19679,2.07307c-0.355,1.12393 -1.38772,1.46201 -2.46156,1.472c-2.31745,0.02156 -4.64145,0.00574 -6.95899,0.00574l-0.55982,0.0002c0,0 -0.0098,0 -0.02648,0.00142c-0.41456,-0.16681 -0.82652,-0.34022 -1.22655,-0.50024z" data-paper-data="{&quot;noHover&quot;:false,&quot;origItem&quot;:[&quot;Path&quot;,{&quot;applyMatrix&quot;:true,&quot;segments&quot;:[[[327.35807,251.50758],[-2.22522,-0.89537],[0.08957,-0.00758]],[327.5,251.5],[[330.5,251.5],[0,0],[12.43969,0]],[[367.8244,251.49065],[-12.43914,0.11573],[5.76396,-0.05362]],[[381.03228,243.59954],[-1.90548,6.03283],[-0.04818,-3.86644]],[[379.97385,232.48057],[0.43989,3.83668],[-0.18094,-1.57811]],[[379.74758,227.72062],[0.33137,1.55349],[-0.33412,-1.56638]],[[378.0035,223.24346],[0.45679,1.5351],[-1.28227,-4.30923]],[[373.47189,210.46178],[2.70678,3.81131],[-1.35548,-1.90861]],[[367,205],[1.68325,1.26075],[-4.79791,-3.59363]],[[351.59831,195.34757],[5.78701,1.95735],[-4.45214,-1.50586]],[[337.5,194.5],[4.59951,0],[-5.98812,0]],[[319.57506,194.79264],[5.98335,-0.21808],[-6.67504,0.93692]],[[299.65321,195.50686],[6.64924,-0.67747],[-4.65299,0.47408]],[[285.74634,197.48783],[4.65407,-0.46051],[-2.88283,0.28525]],[[277.10634,198.42536],[2.80875,-0.70923],[-3.5127,0.88698]],[[264.62663,203.31433],[2.10853,-3.56594],[-2.94247,4.9763]],[[270.88476,218.8637],[-2.88353,-3.4687],[1.75027,2.10546]],[[276.25935,223.87852],[-2.00214,-1.66522],[13.15487,10.9787]],[[320.78609,248.82185],[-15.82306,-6.32945],[2.14722,0.85892]]],&quot;closed&quot;:true}]}" fill-opacity="0.60392" fill="#b7ffe7" stroke="none" stroke-width="0.5" stroke-linecap="butt"/><path d="M84.8012,221.25637v-19.34391h20.9039v19.34391z" fill="#000000" stroke="#000000" stroke-width="2" stroke-linecap="butt"/><path d="M91.35317,217.0444h7.48796v17.47191h-6.27094c-0.39311,-0.17083 -0.82693,-0.24909 -1.21702,-0.42739z" fill="#000000" stroke="#000000" stroke-width="2" stroke-linecap="butt"/><path d="M88.23319,229.68033v-8.42396h3.89998v8.42396z" fill="#000000" stroke="#000000" stroke-width="2" stroke-linecap="butt"/><path d="M98.06114,229.83633v-10.29595h5.30397v10.29595z" fill="#000000" stroke="#000000" stroke-width="2" stroke-linecap="butt"/><path d="M91.66517,234.20431h7.17596v1.57241c-0.45243,-0.02314 -0.90551,-0.03968 -1.35735,-0.06767c-0.47286,-0.02929 -0.90555,-0.29823 -1.37558,-0.35762c-0.37164,-0.04695 -0.76812,-0.0602 -1.16909,-0.05906c-0.19128,-0.05973 -0.3837,-0.10996 -0.57842,-0.13734c-0.08428,-0.01185 -0.16712,0.09625 -0.24667,0.06598c-0.20926,-0.07965 -0.34649,-0.3018 -0.5589,-0.3726c-0.17674,-0.05892 -0.38114,0.05574 -0.55891,0c-0.12226,-0.03833 -0.16641,-0.20431 -0.28026,-0.2631c-0.3301,-0.17048 -0.69858,-0.25361 -1.05078,-0.37409z" fill="#000000" stroke="#000000" stroke-width="2" stroke-linecap="butt"/><path d="M86.0492,220.16438v-16.84792h18.7199v16.84792z" fill="#fff7bd" stroke="#000000" stroke-width="2" stroke-linecap="butt"/><path d="M86.0492,212.98841v-9.04796h5.77197v9.04796z" fill="#1d1b14" stroke="none" stroke-width="0" stroke-linecap="butt"/><path d="M98.4528,211.47159v-8.19163h6.08397v8.19163z" fill="#1d1b14" stroke="none" stroke-width="0" stroke-linecap="butt"/><path d="M85.79695,207.71598v-4.36797h18.71991v4.36797z" fill="#1d1b14" stroke="none" stroke-width="0" stroke-linecap="butt"/><path d="M90.26117,216.2644v-4.52398h3.58932v4.52398z" fill="#ffffff" stroke="#000000" stroke-width="2" stroke-linecap="butt"/><path d="M96.18915,216.2644v-4.52398h4.36798v4.52398z" fill="#ffffff" stroke="#000000" stroke-width="2" stroke-linecap="butt"/><path d="M93.58382,215.6844v-3.43198h0.15068v3.43198z" fill="#2d2d2d" stroke="#000000" stroke-width="2" stroke-linecap="butt"/><path d="M96.56914,215.00796v-1.95554h0.60532v1.95554z" fill="#2d2d2d" stroke="#000000" stroke-width="2" stroke-linecap="butt"/><path d="M91.35317,220.94437h7.64396v14.03994h-5.21731c-0.06924,-0.05679 -0.14115,-0.10806 -0.2247,-0.13591c-0.17674,-0.05892 -0.38114,0.05574 -0.55891,0c-0.12226,-0.03833 -0.16641,-0.20431 -0.28026,-0.2631c-0.42942,-0.22178 -0.92379,-0.29572 -1.36279,-0.49638z" fill="#ffffff" stroke="#000000" stroke-width="2" stroke-linecap="butt"/><path d="M88.23319,227.18434v-5.45997h3.74398v5.45997z" fill="#ffffff" stroke="#000000" stroke-width="2" stroke-linecap="butt"/><path d="M98.84113,226.56035v-5.45998h4.52397v5.45998z" fill="#ffffff" stroke="#000000" stroke-width="2" stroke-linecap="butt"/><path d="M88.38918,229.83633v-2.65198h3.27599v2.65198z" fill="#fff7bd" stroke="#000000" stroke-width="2" stroke-linecap="butt"/><path d="M99.15313,229.83633v-2.96399h3.74398v2.96399z" fill="#fff7bd" stroke="#000000" stroke-width="2" stroke-linecap="butt"/><path d="M98.06114,235.4523v0.28764c-0.19258,-0.00915 -0.38508,-0.01899 -0.57735,-0.0309c-0.32777,-0.0203 -0.63624,-0.15575 -0.95122,-0.25674z" fill="#ff0000" stroke="#000000" stroke-width="2" stroke-linecap="butt"/><path d="M94.46264,235.17141l-0.00624,-0.18711" fill="none" stroke="#000000" stroke-width="2" stroke-linecap="round"/><path d="M90.51932,210.41636v-4.21856h2.38144v4.21856z" fill="#1d1b14" stroke="none" stroke-width="0" stroke-linecap="butt"/><path d="M91.74406,208.78337v-2.24536h1.9732v2.24536z" fill="#1d1b14" stroke="none" stroke-width="0" stroke-linecap="butt"/><path d="M95.69044,208.5112v-2.04124h3.26598v2.04124z" fill="#1d1b14" stroke="none" stroke-width="0" stroke-linecap="butt"/><path d="M96.98324,209.87203v-4.21856h1.76907v4.21856z" fill="#1d1b14" stroke="none" stroke-width="0" stroke-linecap="butt"/><text transform="translate(23.21667,251.85842) scale(0.36662,0.36662)" font-size="40" xml:space="preserve" fill="#000000" fill-rule="nonzero" stroke="none" stroke-width="1" stroke-linecap="butt" stroke-linejoin="miter" stroke-miterlimit="10" stroke-dasharray="" stroke-dashoffset="0" font-family="Sans Serif" font-weight="normal" text-anchor="start" style="mix-blend-mode: normal"><tspan x="0" dy="0">Brainrot Vids</tspan></text><text transform="translate(23.21667,198.88982) scale(0.27722,0.27722)" font-size="40" xml:space="preserve" fill="#000000" fill-rule="nonzero" stroke="none" stroke-width="1" stroke-linecap="butt" stroke-linejoin="miter" stroke-miterlimit="10" stroke-dasharray="" stroke-dashoffset="0" font-family="Sans Serif" font-weight="normal" text-anchor="start" style="mix-blend-mode: normal"><tspan x="0" dy="0">Most popular search</tspan></text><path d="M82.75544,213.67832v-13.68676h8.81863v13.68677z" fill="#1d1b14" stroke="none" stroke-width="0" stroke-linecap="butt"/><path d="M98.83034,212.01863v-11.59455h9.28837v11.59455z" fill="#1d1b14" stroke="none" stroke-width="0" stroke-linecap="butt"/><path d="M84.91823,208.7436v-10.42715h20.48318v10.42715z" fill="#1d1b14" stroke="none" stroke-width="0" stroke-linecap="butt"/><path d="M90.14959,210.864v-4.61591h2.60576v4.61591z" fill="#1d1b14" stroke="none" stroke-width="0" stroke-linecap="butt"/><path d="M91.23298,208.69212v-2.45686h2.15905v2.45686z" fill="#1d1b14" stroke="none" stroke-width="0" stroke-linecap="butt"/><path d="M97.0272,208.77939v-2.23351h3.57361v2.23351z" fill="#1d1b14" stroke="none" stroke-width="0" stroke-linecap="butt"/><path d="M97.73579,211.16691v-4.61591h1.9357v4.61591z" fill="#1d1b14" stroke="none" stroke-width="0" stroke-linecap="butt"/><path d="M83.47973,201.73694v-2.56716h3.52984v2.56716z" fill="#1d1b14" stroke="none" stroke-width="0" stroke-linecap="butt"/><path d="M104.65879,201.80112v-2.69552h2.4388v2.69552z" fill="#1d1b14" stroke="none" stroke-width="0" stroke-linecap="butt"/><path d="M86.17524,198.72053v-0.83432h17.84175v0.83432z" fill="#1d1b14" stroke="none" stroke-width="0" stroke-linecap="butt"/><path d="M83.2872,214.92503v-2.50298h5.19849v2.50298z" fill="#1d1b14" stroke="none" stroke-width="0" stroke-linecap="butt"/><path d="M102.15581,212.99966v-1.41194h5.07013v1.41194z" fill="#1d1b14" stroke="none" stroke-width="0" stroke-linecap="butt"/></g></g></svg>