<svg version="1.1" xmlns="http://www.w3.org/2000/svg" xmlns:xlink="http://www.w3.org/1999/xlink" width="42.54958" height="43.32448" viewBox="0,0,42.54958,43.32448"><g transform="translate(-219.27601,-158.47544)"><g data-paper-data="{&quot;isPaintingLayer&quot;:true}" fill-rule="nonzero" stroke-linecap="butt" stroke-linejoin="miter" stroke-miterlimit="10" stroke-dasharray="" stroke-dashoffset="0" style="mix-blend-mode: normal"><path d="M260.81791,200.48191l-40.21785,0.31033l-0.31636,-40.99878l40.21785,-0.31033z" data-paper-data="{&quot;index&quot;:null}" fill="#ffffff" stroke="#000000" stroke-width="2"/><path d="M223.81878,182.25187c-0.10689,0.64137 -0.19595,1.28597 -0.32066,1.92411c-0.11041,0.56496 -0.74898,1.61832 -0.18191,1.71734c2.66628,0.46562 6.61747,0.12314 9.73151,-0.24198c0.92306,-2.14214 2.41533,-4.41636 4.00928,-6.21156c-0.10333,-0.27417 -0.06823,-0.55422 0.03456,-0.83633c-0.15957,0.02139 -0.31924,0.04212 -0.47899,0.0621c-2.85227,0.25957 -7.99439,1.58637 -10.66167,0.44847c-0.67622,0.70845 -1.31493,1.45869 -1.98489,2.18096zM225.29943,188.25479c-0.51403,0.00035 -2.85899,0.0313 -3.12718,-0.13854c-0.68278,-0.43238 -1.23946,-1.16559 -1.4443,-1.94737c-0.06424,-0.24516 0.38057,-2.88791 0.55948,-3.94176c-0.53397,-0.58359 -0.14034,-1.37085 -0.14034,-1.37085l0.39385,-0.64427c0.02462,-0.02462 0.04917,-0.04928 0.07366,-0.07399l0.05386,-0.3501c0,0 0.17376,-1.12946 1.26892,-1.0624c0.25907,-0.28606 0.5169,-0.57242 0.77738,-0.85592c-0.20794,-0.21372 -0.36718,-0.45944 -0.45107,-0.74773c-0.3225,-1.10824 1.72509,-2.17959 2.29929,-2.98516c0.4216,-0.59149 0.51513,-1.44331 1.09059,-1.88654c0.96382,-0.74235 3.70788,-0.54817 4.87417,-0.54898c3.05799,-0.0021 6.13551,0.12564 9.18523,-0.10427c0.27939,-0.21687 0.70445,-0.36854 1.2752,-0.08316c0.45201,0.22601 0.62991,0.54339 0.68145,0.84131c1.40756,0.2835 2.97788,0.45721 4.07208,1.42799c1.08004,0.95822 2.07806,2.62794 3.01874,4.12498l0.81006,0.54004c0.08945,0.05777 0.17106,0.12665 0.24286,0.20469c2.04423,0.77365 3.77454,3.51999 4.73995,4.92708c0.65147,0.94952 2.2859,3.15838 1.83005,4.33418c-0.22849,0.58935 -2.83897,0.93088 -3.57962,0.97716c-3.01069,0.18813 -6.72252,-0.71154 -9.54018,0.40193c0,0 -0.91466,0.343 -1.43004,-0.38601c-2.67027,0.21157 -5.92145,0.15982 -8.27147,-0.1732c-0.77744,-0.11017 -1.8946,0.04386 -2.32521,-0.57101c-2.31275,0.12086 -4.6831,0.09036 -6.9374,0.09191zM227.3664,176.13019c0.10075,0.11754 0.17447,0.233 0.2263,0.3451c1.68509,-0.09252 3.54739,0.13241 5.06207,0.02393c1.06864,-0.07654 2.60385,-0.22062 3.68955,-0.31922c0.68661,-0.08578 1.37129,-0.18675 2.05481,-0.29508c0.26096,-0.57335 0.54248,-1.13985 0.83003,-1.7029c-2.56298,0.09967 -5.13795,0.02101 -7.70141,0.01915c-0.43632,-0.00032 -3.15755,-0.19135 -3.43024,0.08982c-0.42926,0.44262 -0.62739,1.09621 -0.92722,1.64489c0.06587,0.05448 0.13143,0.11881 0.19613,0.1943zM241.69667,176.53883c0.24515,1.22573 -0.98058,1.47087 -0.98058,1.47087l-0.70715,0.14087c-0.16171,0.15298 -0.33212,0.27884 -0.51223,0.37057c0.01419,0.0121 0.0284,0.02464 0.04261,0.03761c0.36972,-0.10275 1.08128,-0.308 1.41073,-0.30988c0.58556,-0.00333 1.17113,0 1.7567,0c1.29679,0 2.59359,0 3.89038,0c-0.4896,-0.79441 -0.81408,-1.89984 -1.53732,-2.61617c-0.64668,-0.64051 -2.14308,-0.73158 -3.16685,-0.9006c-0.15343,0.38319 -0.31569,0.78421 -0.49038,1.17777c0.13153,0.14685 0.23825,0.34974 0.2941,0.62895zM247.68551,186.34287c1.05302,-0.00174 2.11428,0.05072 3.16595,0.05072c0.93231,0 1.86644,0.06059 2.79693,0.00242c0.19744,-0.01234 0.53743,0.01509 0.85625,0.06079c-0.51688,-0.48062 -0.96639,-1.39527 -1.00882,-1.45685c-0.65693,-0.95353 -1.68261,-3.21659 -2.80331,-3.70741c-0.81608,-0.35741 -1.31437,-0.21146 -1.20093,0.48842c-0.56078,1.54589 -1.14982,3.05811 -1.80606,4.56192zM247.10093,181.04962c0.03092,-0.0787 0.05737,-0.16075 0.08102,-0.2449c-1.15559,0.07527 -2.45968,0.2061 -3.72608,0.26041c0.77381,1.06867 1.69588,2.18779 2.34387,3.32862c0.4607,-1.10326 0.88928,-2.2144 1.30119,-3.34414zM236.95754,186.23389c1.96964,0 3.93927,0 5.90891,0c0.22998,0 0.57388,-0.00218 0.90561,0.02061c-0.20949,-0.29324 -0.40416,-0.62021 -0.53556,-0.83477c-0.82779,-1.35168 -1.70572,-2.63535 -2.54795,-3.98075l-0.14518,-0.46389c-0.38355,-0.05573 -0.74336,-0.13456 -1.07115,-0.24235c-0.05361,-0.01763 -0.10853,-0.03472 -0.16447,-0.05147c-1.43422,1.52703 -2.40234,3.35276 -3.47684,5.14771c0.09373,0.10615 0.17348,0.24067 0.22815,0.41095c0.34139,-0.00894 0.66543,-0.00603 0.89848,-0.00603z" fill="#000000" stroke="none" stroke-width="0.5"/><path d="M241.35693,175.88946c0.1747,-0.39356 0.35677,-0.81698 0.5102,-1.20017c1.02377,0.16902 2.59066,0.28044 3.23734,0.92095c0.72324,0.71633 1.04863,1.86481 1.53822,2.65922c-1.29679,0 -2.64953,0.02833 -3.94633,0.02833c-0.58557,0 -1.20049,-0.02187 -1.78604,-0.01854c-0.32945,0.00188 -1.04519,0.2007 -1.41491,0.30345c-0.01421,-0.01298 -0.02873,-0.02609 -0.04292,-0.0382c0.18011,-0.09173 0.43953,-0.26314 0.60124,-0.41613l0.7055,-0.14393c0,0 1.13273,-0.22382 0.88758,-1.44955c-0.05584,-0.27921 -0.15837,-0.49859 -0.28989,-0.64543z" data-paper-data="{&quot;noHover&quot;:false,&quot;origItem&quot;:[&quot;Path&quot;,{&quot;applyMatrix&quot;:true,&quot;segments&quot;:[[[241.69667,176.53883],[-0.05584,-0.27921],[0.24515,1.22573]],[240.71609,178.00971],[[240.00894,178.15058],[0,0],[-0.16171,0.15298]],[[239.49671,178.52115],[0.18011,-0.09173],[0.01419,0.0121]],[[239.53931,178.55876],[-0.01421,-0.01298],[0.36972,-0.10275]],[[240.95004,178.24888],[-0.32945,0.00188],[0.58556,-0.00333]],[[242.70675,178.24888],[-0.58557,0],[1.29679,0]],[[246.59713,178.24888],[-1.29679,0],[-0.4896,-0.79441]],[[245.05981,175.63271],[0.72324,0.71633],[-0.64668,-0.64051]],[[241.89296,174.73211],[1.02377,0.16902],[-0.15343,0.38319]],[[241.40257,175.90988],[0.1747,-0.39356],[0.13153,0.14685]]],&quot;closed&quot;:true}]}" fill="#96a000" stroke="none" stroke-width="0.5"/><path d="M236.01888,186.26968c-0.05467,-0.17028 -0.13721,-0.309 -0.23095,-0.41515c1.0745,-1.79494 2.07687,-3.69546 3.51109,-5.22249c0.05594,0.01675 0.11361,0.03343 0.16722,0.05106c0.32779,0.1078 0.70784,0.18834 1.09139,0.24407l0.15095,0.466c0.84223,1.3454 1.7436,2.69959 2.57139,4.05127c0.1314,0.21456 0.32352,0.54555 0.53302,0.83879c-0.33173,-0.02279 -0.67944,-0.01584 -0.90942,-0.01584c-1.96964,0 -4.01223,0.00136 -5.98187,0.00136c-0.23305,0 -0.56143,-0.00801 -0.90282,0.00093z" data-paper-data="{&quot;noHover&quot;:false,&quot;origItem&quot;:[&quot;Path&quot;,{&quot;applyMatrix&quot;:true,&quot;segments&quot;:[[[236.95754,186.23389],[-0.23305,0],[1.96964,0]],[[242.86645,186.23389],[-1.96964,0],[0.22998,0]],[[243.77206,186.2545],[-0.33173,-0.02279],[-0.20949,-0.29324]],[[243.2365,185.41974],[0.1314,0.21456],[-0.82779,-1.35168]],[[240.68855,181.43898],[0.84223,1.3454],[0,0]],[[240.54337,180.9751],[0,0],[-0.38355,-0.05573]],[[239.47222,180.73274],[0.32779,0.1078],[-0.05361,-0.01763]],[[239.30774,180.68127],[0.05594,0.01675],[-1.43422,1.52703]],[[235.83091,185.82898],[1.0745,-1.79494],[0.09373,0.10615]],[[236.05906,186.23992],[-0.05467,-0.17028],[0.34139,-0.00894]]],&quot;closed&quot;:true}]}" fill="#96a000" stroke="none" stroke-width="0.5"/><path d="M249.46029,181.74194c-0.11344,-0.69988 0.40814,-0.85618 1.22422,-0.49877c1.1207,0.49082 2.19894,2.82587 2.85587,3.77941c0.04243,0.06159 0.48669,0.98446 1.00358,1.46508c-0.31882,-0.0457 -0.66322,-0.06823 -0.86065,-0.05588c-0.93049,0.05817 -1.90419,0.01159 -2.8365,0.01159c-1.05167,0 -2.14825,-0.07221 -3.20128,-0.07046c0.65625,-1.50381 1.25398,-3.08507 1.81475,-4.63097z" data-paper-data="{&quot;noHover&quot;:false,&quot;origItem&quot;:[&quot;Path&quot;,{&quot;applyMatrix&quot;:true,&quot;segments&quot;:[[[247.68551,186.34287],[0.65625,-1.50381],[1.05302,-0.00174]],[[250.85145,186.39359],[-1.05167,0],[0.93231,0]],[[253.64839,186.39601],[-0.93049,0.05817],[0.19744,-0.01234]],[[254.50463,186.4568],[-0.31882,-0.0457],[-0.51688,-0.48062]],[[253.49581,184.99994],[0.04243,0.06159],[-0.65693,-0.95353]],[[250.6925,181.29253],[1.1207,0.49082],[-0.81608,-0.35741]],[[249.49157,181.78095],[-0.11344,-0.69988],[-0.56078,1.54589]]],&quot;closed&quot;:true}]}" fill="#96a000" stroke="none" stroke-width="0.5"/><path d="M245.81268,184.44205c-0.64799,-1.14084 -1.6216,-2.34003 -2.39541,-3.4087c1.2664,-0.05431 2.6451,-0.18805 3.80069,-0.26332c-0.02365,0.08415 -0.04838,0.16808 -0.0793,0.24678c-0.41191,1.12974 -0.86528,2.32199 -1.32598,3.42524z" data-paper-data="{&quot;noHover&quot;:false,&quot;origItem&quot;:[&quot;Path&quot;,{&quot;applyMatrix&quot;:true,&quot;segments&quot;:[[[247.10093,181.04962],[-0.41191,1.12974],[0.03092,-0.0787]],[[247.18195,180.80472],[-0.02365,0.08415],[-1.15559,0.07527]],[[243.45587,181.06513],[1.2664,-0.05431],[0.77381,1.06867]],[[245.79974,184.39376],[-0.64799,-1.14084],[0.4607,-1.10326]]],&quot;closed&quot;:true}]}" fill="#96a000" stroke="none" stroke-width="0.5"/><path d="M227.12052,175.94086c0.29984,-0.54868 0.49873,-1.21725 0.92799,-1.65987c0.27269,-0.28118 3.00151,-0.10817 3.43783,-0.10785c2.56346,0.00185 5.22894,0.09918 7.79193,-0.0005c-0.28755,0.56305 -0.56845,1.1442 -0.82942,1.71755c-0.68352,0.10832 -1.36963,0.21702 -2.05625,0.3028c-1.08571,0.0986 -2.69037,0.27498 -3.75901,0.35152c-1.51468,0.10849 -3.4048,-0.15177 -5.08989,-0.05924c-0.05183,-0.1121 -0.12609,-0.23077 -0.22684,-0.34831c-0.0647,-0.07548 -0.13047,-0.14161 -0.19634,-0.19609z" data-paper-data="{&quot;noHover&quot;:false,&quot;origItem&quot;:[&quot;Path&quot;,{&quot;applyMatrix&quot;:true,&quot;segments&quot;:[[[227.3664,176.13019],[-0.0647,-0.07548],[0.10075,0.11754]],[[227.5927,176.47529],[-0.05183,-0.1121],[1.68509,-0.09252]],[[232.65476,176.49922],[-1.51468,0.10849],[1.06864,-0.07654]],[[236.34431,176.18],[-1.08571,0.0986],[0.68661,-0.08578]],[[238.39912,175.88492],[-0.68352,0.10832],[0.26096,-0.57335]],[[239.22915,174.18202],[-0.28755,0.56305],[-2.56298,0.09967]],[[231.52773,174.20118],[2.56346,0.00185],[-0.43632,-0.00032]],[[228.0975,174.291],[0.27269,-0.28118],[-0.42926,0.44262]],[[227.17027,175.93589],[0.29984,-0.54868],[0.06587,0.05448]]],&quot;closed&quot;:true}]}" fill="#96a000" stroke="none" stroke-width="0.5"/><path d="M223.91674,181.28641c0.66997,-0.72227 1.3186,-1.4948 1.99482,-2.20325c2.66728,1.1379 7.89224,-0.18267 10.74451,-0.44224c0.15976,-0.01998 0.31997,-0.0397 0.47954,-0.0611c-0.10279,0.28211 -0.13584,0.56647 -0.03251,0.84064c-1.59395,1.7952 -3.09889,4.12593 -4.02195,6.26806c-3.11404,0.36512 -7.143,0.69354 -9.80928,0.22793c-0.56707,-0.09903 0.06763,-1.16223 0.17804,-1.72719c0.12471,-0.63814 0.21199,-1.29689 0.31887,-1.93826z" data-paper-data="{&quot;noHover&quot;:false,&quot;origItem&quot;:[&quot;Path&quot;,{&quot;applyMatrix&quot;:true,&quot;segments&quot;:[[[223.81878,182.25187],[0,0],[-0.10689,0.64137]],[[223.49812,184.17599],[0.12471,-0.63814],[-0.11041,0.56496]],[[223.3162,185.89333],[-0.56707,-0.09903],[2.66628,0.46562]],[[233.04771,185.65135],[-3.11404,0.36512],[0.92306,-2.14214]],[[237.05699,179.4398],[-1.59395,1.7952],[-0.10333,-0.27417]],[[237.09156,178.60346],[-0.10279,0.28211],[-0.15957,0.02139]],[[236.61257,178.66556],[0.15976,-0.01998],[-2.85227,0.25957]],[[225.9509,179.11403],[2.66728,1.1379],[-0.67622,0.70845]],[[223.966,181.29499],[0.66997,-0.72227],[0,0]]],&quot;closed&quot;:true}]}" fill="#96a000" stroke="none" stroke-width="0.5"/><path d="M259.60305,170.81918c-0.10381,1.24568 -1.34949,1.14188 -1.34949,1.14188l-1.86454,-0.15646c-1.78572,0.00157 -2.72709,0.03342 -3.7907,-0.37094l-0.10966,0.29243l-1.25028,-0.46885c-0.48815,-0.17015 -0.83842,-0.6345 -0.83842,-1.18066c0,-0.47329 0.26303,-0.88514 0.65089,-1.09734l1.09683,-0.62676l0.00528,0.00923l0.02508,-0.02602c0.5422,-0.26887 2.14625,-0.96051 2.6037,-1.53627c0.53782,-0.67693 0.48245,-2.61692 -0.08635,-3.25789c-1.2261,-1.38167 -3.59419,2.25 -3.8438,2.78217c0,0 -0.55902,1.11803 -1.67705,0.55902c-1.11803,-0.55902 -0.55902,-1.67705 -0.55902,-1.67705c1.10836,-2.1188 2.62384,-4.20746 5.38446,-4.20356c3.56431,0.00503 4.66953,4.70376 2.82261,7.24124c-0.28588,0.39278 -0.65886,0.72223 -1.07318,1.01009c0.25984,0.02956 0.51171,0.05314 0.74351,0.05333l1.96826,0.16294c0,0 1.24568,0.10381 1.14188,1.34949z" fill="#000000" stroke="none" stroke-width="0.5"/><path d="M235.91256,175.59369c0,0.25 -0.25,0.25 -0.25,0.25h-0.18848c-2.18848,0 -4.33163,-0.5543 -6.55867,-0.55079c0,0 -0.25,0 -0.25,-0.25c0,-0.25 0.25,-0.25 0.25,-0.25c2.22475,0.00324 4.37477,0.55079 6.55867,0.55079h0.18848c0,0 0.25,0 0.25,0.25z" fill="#000000" stroke="none" stroke-width="0.5"/><path d="M232.88963,183.18861c0.05833,-0.00698 0.12704,0.00831 0.19576,0.07703c0.17677,0.17677 0,0.35355 0,0.35355l-0.27539,0.2754c-0.04524,0.04524 -0.10774,0.07322 -0.17678,0.07322c-0.13807,0 -0.25,-0.11192 -0.25,-0.24999l-0.00001,-0.2867c-0.00065,-0.67763 0.0906,-2.7251 0.0097,-2.54534c-0.30221,0.6301 -0.85984,2.80694 -1.38765,3.16006c-1.11157,0.74367 -0.98622,-1.33903 -0.7528,-1.83277c0.1737,-0.36741 -0.38095,0.71844 -0.59005,1.06693c-0.33861,0.56433 -0.63482,1.11163 -1.01362,1.61973l0.046,0.02684l-0.24955,0.4278c-0.04277,0.07645 -0.12452,0.12812 -0.21833,0.12812c-0.13807,0 -0.25,-0.11193 -0.25,-0.25v-0.27532c0,-0.00002 0,-0.00005 0,-0.00007c-0.00068,-0.91936 -0.60157,-2.76017 -0.60157,-0.96388c0,0 0,0.25 -0.25,0.25c-0.25,0 -0.25,-0.25 -0.25,-0.25c0,-2.21596 1.28648,-0.9932 1.55344,0.45752c0.38665,-1.01403 1.48957,-2.91016 2.03116,-2.69258c0.41768,0.1678 0.12618,1.67208 0.12767,1.99015c0.00154,0.33068 0.2625,-0.60724 0.3812,-0.91587c0.30202,-0.78524 0.65719,-1.52283 1.04322,-2.27058c1.27279,-0.63784 0.93129,1.4813 0.87761,2.62677z" fill="#000000" stroke="none" stroke-width="0.5"/><path d="M228.06383,180.27539c0,0.25 -0.25,0.25 -0.25,0.25l-0.0259,-0.0264c-0.70879,0.33832 -1.74886,0.39629 -2.53611,0.57123c0,0 -0.24404,0.05423 -0.29828,-0.18982c-0.05424,-0.24404 0.18982,-0.29828 0.18982,-0.29828c0.71482,-0.15885 1.79848,-0.19805 2.42097,-0.53035l0.2495,-0.02639c0,0 0.25,0 0.25,0.25z" fill="#000000" stroke="none" stroke-width="0.5"/><path d="M242.5728,176.69526c0,-0.13807 0.11193,-0.25 0.25,-0.25c0.13807,0 0.25,0.11193 0.25,0.25c0,0.13807 -0.11193,0.25 -0.25,0.25c-0.13807,0 -0.25,-0.11193 -0.25,-0.25z" fill="#000000" stroke="none" stroke-width="0.5"/></g></g></svg>