<svg version="1.1" xmlns="http://www.w3.org/2000/svg" xmlns:xlink="http://www.w3.org/1999/xlink" width="173.27386" height="314.57459" viewBox="0,0,173.27386,314.57459"><defs><radialGradient cx="271.1634" cy="94.71328" r="132.53387" gradientUnits="userSpaceOnUse" id="color-1"><stop offset="0" stop-color="#eafffd"/><stop offset="1" stop-color="#00ffe6"/></radialGradient></defs><g transform="translate(-233.36307,-22.71271)"><g data-paper-data="{&quot;isPaintingLayer&quot;:true}" fill-rule="nonzero" stroke-linejoin="miter" stroke-miterlimit="10" stroke-dasharray="" stroke-dashoffset="0" style="mix-blend-mode: normal"><path d="M233.36307,337.28726v-314.57455h173.27386v314.57459z" fill="#333333" stroke="none" stroke-width="0" stroke-linecap="butt"/><path d="M339.59646,43.34051l-51.56959,-2.06278" fill="none" stroke="none" stroke-width="0" stroke-linecap="round"/><path d="M286.56693,41.02387c0,5.61184 -4.38682,10.16112 -9.79823,10.16112c-5.41141,0 -9.7982,-4.54927 -9.7982,-10.16112c0,-5.61184 4.38682,-10.16112 9.7982,-10.16112c5.41141,0 9.79823,4.5493 9.79823,10.16112z" fill="#ffffff" stroke="none" stroke-width="0" stroke-linecap="butt"/><path d="M304.0643,40.97272h61.88351" fill="none" stroke="#ffffff" stroke-width="3" stroke-linecap="round"/><path d="M242.28443,324.71372v-265.06774h154.7088v265.06774z" fill="url(#color-1)" stroke="none" stroke-width="0" stroke-linecap="butt"/><path d="M250.53557,92.65051l24.75339,-20.62787" fill="none" stroke="#ffffff" stroke-width="0.5" stroke-linecap="round"/><path d="M313.45045,75.11685l-63.94628,56.72655" fill="none" stroke="#ffffff" stroke-width="0.5" stroke-linecap="round"/><text transform="translate(262.75,94.125) scale(0.83586,0.83586)" font-size="40" xml:space="preserve" fill="#000000" fill-rule="nonzero" stroke="none" stroke-width="1" stroke-linecap="butt" stroke-linejoin="miter" stroke-miterlimit="10" stroke-dasharray="" stroke-dashoffset="0" font-family="Sans Serif" font-weight="normal" text-anchor="start" style="mix-blend-mode: normal"><tspan x="0" dy="0">SET UP</tspan></text><path d="M369.25,230.75c0,29.13302 -20.56469,31.25 -50.25,31.25c-29.68531,0 -47.75,-3.61698 -47.75,-32.75c0,-29.13302 19.06469,-50.25 48.75,-50.25c29.68531,0 49.25,22.61698 49.25,51.75z" fill="#ffffff" stroke="none" stroke-width="0" stroke-linecap="butt"/><path d="M343.75,144c0,13.80712 -10.96902,25 -24.5,25c-13.53098,0 -24.5,-11.19288 -24.5,-25c0,-13.80712 10.96902,-25 24.5,-25c13.53098,0 24.5,11.19288 24.5,25z" fill="#ffffff" stroke="none" stroke-width="0" stroke-linecap="butt"/><text transform="translate(254.75,297.12564) scale(0.44577,0.44577)" font-size="40" xml:space="preserve" fill="#000000" fill-rule="nonzero" stroke="none" stroke-width="1" stroke-linecap="butt" stroke-linejoin="miter" stroke-miterlimit="10" stroke-dasharray="" stroke-dashoffset="0" font-family="Sans Serif" font-weight="normal" text-anchor="start" style="mix-blend-mode: normal"><tspan x="0" dy="0">Welcome guest.</tspan></text></g></g></svg>