<svg version="1.1" xmlns="http://www.w3.org/2000/svg" xmlns:xlink="http://www.w3.org/1999/xlink" width="153.71439" height="70.18305" viewBox="0,0,153.71439,70.18305"><defs><linearGradient x1="258.16614" y1="179.545" x2="390.86406" y2="179.545" gradientUnits="userSpaceOnUse" id="color-1"><stop offset="0" stop-color="#ffffff"/><stop offset="1" stop-color="#5b5b5b"/></linearGradient><linearGradient x1="324.51511" y1="152.02247" x2="324.51511" y2="207.06753" gradientUnits="userSpaceOnUse" id="color-2"><stop offset="0" stop-color="#ffffff" stop-opacity="0"/><stop offset="1" stop-color="#ffffff"/></linearGradient><linearGradient x1="254.62081" y1="179.87877" x2="387.31873" y2="179.87877" gradientUnits="userSpaceOnUse" id="color-3"><stop offset="0" stop-color="#ffffff"/><stop offset="1" stop-color="#1a1a1a"/></linearGradient><linearGradient x1="320.96978" y1="152.35624" x2="320.96978" y2="207.4013" gradientUnits="userSpaceOnUse" id="color-4"><stop offset="0" stop-color="#000000"/><stop offset="1" stop-color="#ffffff"/></linearGradient><linearGradient x1="271.48594" y1="180.17577" x2="368.51329" y2="180.17577" gradientTransform="translate(-713.49869,-485.06176) scale(2.62812,2.62812)" gradientUnits="userSpaceOnUse" id="color-5"><stop offset="0" stop-color="#1a1a1a"/><stop offset="1" stop-color="#ffffff"/></linearGradient></defs><g transform="translate(-244.91547,-144.74159)"><g data-paper-data="{&quot;isPaintingLayer&quot;:true}" fill-rule="nonzero" stroke-linecap="butt" stroke-linejoin="miter" stroke-miterlimit="10" stroke-dasharray="" stroke-dashoffset="0" style="mix-blend-mode: normal"><path d="M258.16614,207.06753c0,0 -9.45534,-20.40517 -9.45534,-29.94697c0,-8.73523 9.45534,-25.09808 9.45534,-25.09808c0,0 41.22643,-7.03089 62.59108,-7.03089c22.77746,0 70.10686,7.03089 70.10686,7.03089c0,0 7.51578,14.87605 7.51578,23.15853c0,9.80705 -7.51578,31.88653 -7.51578,31.88653c0,0 -47.47229,7.27333 -70.10685,7.27333c-21.54423,0 -62.59108,-7.27333 -62.59108,-7.27333z" fill="url(#color-1)" stroke="url(#color-2)" stroke-width="0.5"/><path d="M254.62081,207.4013c0,0 -9.45534,-20.40517 -9.45534,-29.94697c0,-8.73523 9.45534,-25.09808 9.45534,-25.09808c0,0 41.22643,-7.03089 62.59108,-7.03089c22.77746,0 70.10686,7.03089 70.10686,7.03089c0,0 7.51578,14.87605 7.51578,23.15853c0,9.80705 -7.51578,31.88653 -7.51578,31.88653c0,0 -47.47229,7.27333 -70.10685,7.27333c-21.54423,0 -62.59108,-7.27333 -62.59108,-7.27333z" fill="url(#color-3)" stroke="url(#color-4)" stroke-width="0.5"/><text transform="translate(271.48625,184.566) scale(0.3805,0.3805)" font-size="40" xml:space="preserve" fill="url(#color-5)" fill-rule="nonzero" stroke="none" stroke-width="1" stroke-linecap="butt" stroke-linejoin="miter" stroke-miterlimit="10" stroke-dasharray="" stroke-dashoffset="0" font-family="Pixel" font-weight="normal" text-anchor="start" style="mix-blend-mode: normal"><tspan x="0" dy="0">Click to play.</tspan></text></g></g></svg>