<svg version="1.1" xmlns="http://www.w3.org/2000/svg" xmlns:xlink="http://www.w3.org/1999/xlink" width="894" height="495" viewBox="0,0,894,495"><g transform="translate(127,67.5)"><g data-paper-data="{&quot;isPaintingLayer&quot;:true}" fill-rule="nonzero" stroke-linecap="butt" stroke-linejoin="miter" stroke-miterlimit="10" stroke-dasharray="" stroke-dashoffset="0" style="mix-blend-mode: normal"><path d="M-126,426.5v-493h892v493z" fill="#000000" stroke="#000000" stroke-width="2"/><text transform="translate(212,220.5) scale(0.5,0.5)" font-size="40" xml:space="preserve" fill="#ffffff" fill-rule="nonzero" stroke="none" stroke-width="1" stroke-linecap="butt" stroke-linejoin="miter" stroke-miterlimit="10" stroke-dasharray="" stroke-dashoffset="0" font-family="Sans Serif" font-weight="normal" text-anchor="start" style="mix-blend-mode: normal"><tspan x="0" dy="0">A Game by Oliver</tspan></text><text transform="translate(150.1875,300) scale(0.5,0.5)" font-size="40" xml:space="preserve" fill="#ffffff" fill-rule="nonzero" stroke="none" stroke-width="1" stroke-linecap="butt" stroke-linejoin="miter" stroke-miterlimit="10" stroke-dasharray="" stroke-dashoffset="0" font-family="Sans Serif" font-weight="normal" text-anchor="start" style="mix-blend-mode: normal"><tspan x="0" dy="0">Copyright December 25 2024 - 2025</tspan></text><path d="M430,358.5v-123h74v123z" fill="#000000" stroke="#000000" stroke-width="2"/><path d="M165,169.5v-145h237v145z" fill="none" stroke="#ffffff" stroke-width="2"/><path d="M61,107.5v-35h101v35z" fill="none" stroke="#ffffff" stroke-width="2"/><path d="M349.3125,336v-82h28v82z" fill="#000000" stroke="none" stroke-width="0"/><text transform="translate(351.7,300.1) scale(0.5,0.5)" font-size="40" xml:space="preserve" fill="#ffffff" fill-rule="nonzero" stroke="none" stroke-width="1" stroke-linecap="butt" stroke-linejoin="miter" stroke-miterlimit="10" stroke-dasharray="" stroke-dashoffset="0" font-family="Sans Serif" font-weight="normal" text-anchor="start" style="mix-blend-mode: normal"><tspan x="0" dy="0">23</tspan></text><text transform="translate(0.5,355.20197) scale(0.27629,0.27629)" font-size="40" xml:space="preserve" fill="#ffffff" fill-rule="nonzero" stroke="none" stroke-width="1" stroke-linecap="butt" stroke-linejoin="miter" stroke-miterlimit="10" stroke-dasharray="" stroke-dashoffset="0" font-family="Sans Serif" font-weight="normal" text-anchor="start" style="mix-blend-mode: normal"><tspan x="0" dy="0">i like tinpot</tspan></text><path d="M153.94077,184.1952c2.35508,0.8388 1.51628,3.19388 1.51628,3.19388l-1.26822,3.53571c-1.64449,2.97768 -3.29125,5.95412 -4.94055,8.92914c-2.47727,4.42099 -2.53057,5.51766 -6.74474,8.76652c-7.21363,5.56125 -18.97326,3.50079 -27.42915,3.42968c-7.33473,-0.06168 -15.14354,-0.21772 -21.49992,-4.52077c-2.32647,-1.57494 -3.51195,-4.38632 -5.23677,-6.60394c-3.0697,-3.94676 -6.13941,-7.89352 -9.20911,-11.84028c0,0 -1.53485,-1.97338 0.43853,-3.50823c1.97338,-1.53485 3.50823,0.43853 3.50823,0.43853c3.0697,3.94676 6.13941,7.89352 9.20911,11.84028c1.46927,1.88906 2.33092,4.42291 4.34501,5.71549c5.48499,3.52008 12.27287,3.42708 18.50008,3.47923c7.25379,0.06074 18.35586,2.18756 24.57085,-2.57032c3.1025,-2.37512 3.30569,-3.63678 5.17492,-7.05048c1.58309,-2.8556 3.16853,-5.70989 4.75663,-8.56271l1.11494,-3.15545c0,0 0.8388,-2.35508 3.19388,-1.51628z" fill="#ffffff" stroke="none" stroke-width="0.5"/><path d="M95.60197,179.55029c0,-1.38071 1.11929,-2.5 2.5,-2.5c1.38071,0 2.5,1.11929 2.5,2.5c0,1.38071 -1.11929,2.5 -2.5,2.5c-1.38071,0 -2.5,-1.11929 -2.5,-2.5z" fill="#ffffff" stroke="none" stroke-width="0.5"/><path d="M138.60197,182.55029c0,-1.38071 1.11929,-2.5 2.5,-2.5c1.38071,0 2.5,1.11929 2.5,2.5c0,1.38071 -1.11929,2.5 -2.5,2.5c-1.38071,0 -2.5,-1.11929 -2.5,-2.5z" fill="#ffffff" stroke="none" stroke-width="0.5"/></g></g></svg>