<svg version="1.1" xmlns="http://www.w3.org/2000/svg" xmlns:xlink="http://www.w3.org/1999/xlink" width="79.09479" height="154.82195" viewBox="0,0,79.09479,154.82195"><g transform="translate(-279.82967,-107.93113)"><g data-paper-data="{&quot;isPaintingLayer&quot;:true}" fill-rule="nonzero" stroke-linejoin="miter" stroke-miterlimit="10" stroke-dasharray="" stroke-dashoffset="0" style="mix-blend-mode: normal"><path d="M320.87241,214.47657c0.31572,0 0.63145,0 0.94717,0c-2.08935,0.68614 -4.6529,0.6704 -6.51265,0.00001c1.85516,0.00003 3.71032,-0.00001 5.56547,-0.00001z" fill="#ffffff" stroke="none" stroke-width="0.5" stroke-linecap="butt"/><path d="M312.7228,230.04355c-0.4475,-2.75966 -0.07757,-5.77553 -0.41028,-8.56811c-0.12709,-1.06671 -1.49887,-3.35549 -1.25,-4.47543c0.2339,-1.05255 0.93869,-1.8899 1.9316,-2.5235c2.6261,0.00014 5.2522,0.00006 7.87829,0.00006c1.6126,0 3.22519,0 4.83779,0c0.68591,0.4537 1.18498,1.0049 1.41482,1.64844c1.53564,4.2998 -0.03792,9.58826 -0.1875,13.99969c-0.12286,3.62358 0.43112,7.06407 0.21389,10.76975c-0.13398,2.28554 0.18175,6.0643 -0.90139,8.23057c-1.37105,2.7421 -3.77847,0.52344 -5.78078,1.19448c-4.46855,1.49757 -7.36251,-1.85782 -5.73858,-6.7296c-0.02832,-0.15063 -0.04314,-0.30603 -0.04314,-0.46488c0,-0.07879 0.00365,-0.15673 0.01078,-0.23367c0.15484,-4.05409 -1.31134,-8.75204 -1.97549,-12.8478z" fill="#ff0000" stroke="none" stroke-width="0.5" stroke-linecap="butt"/><path d="M312.69829,252.01092c1.23703,-0.53784 3.29385,0.16513 4.39282,-0.42898c0.59616,-0.32228 0.86567,-0.89081 1.77813,-0.89081c0.50556,0 1.27658,0.62944 1.65309,0.56665c2.252,-0.37559 3.81047,-1.1736 6.07605,-0.6072c0.87185,0.21796 0.95538,1.44429 1.3811,1.6516c0.69558,0.33873 2.09852,-0.18571 2.96059,-0.07043c2.37446,0.31754 6.29783,2.38183 5.74149,5.50369c-0.65294,3.66388 -9.83986,0.98782 -12.53916,0.46824c-1.1838,-0.22787 -2.59038,-1.33343 -3.56288,-0.62099c-0.76001,0.55677 -6.5524,2.70725 -8.18067,3.23604c-0.58066,0.18858 -1.83874,-0.10851 -2.88434,-0.57896c-0.67602,-0.05939 -1.24958,-0.47586 -1.53092,-1.05966c-0.08337,-0.12187 -0.12956,-0.24227 -0.12956,-0.35806c-0.03674,-0.14683 -0.05624,-0.30049 -0.05624,-0.45871c0,-0.3018 0.07097,-0.58702 0.19714,-0.83988c0.70009,-2.15378 2.88645,-4.72259 4.70337,-5.51255z" fill="#ffffff" stroke="none" stroke-width="0.5" stroke-linecap="butt"/><path d="M298.765,166.31721c0,0 -4.22307,-17.29411 -4.22307,-24.93623c0,-2.75768 -0.95763,-11.04158 3.54451,-14.9676c5.80536,-5.06248 17.7568,-5.54445 21.79391,-5.54445c3.39251,0 15.74324,-2.37128 21.09113,2.11689c6.84841,5.74747 6.45938,19.01195 6.45938,23.02043c0,7.07165 -3.82087,20.31096 -3.82087,20.31096c0,0 -15.47704,2.21209 -23.12634,2.21209c-7.28084,0 -21.71865,-2.21209 -21.71865,-2.21209z" fill="#ffffd6" stroke="#000000" stroke-width="3" stroke-linecap="butt"/><path d="M358.12417,140.63867l-0.14343,0.08367l0.33475,0.37387c-0.00225,1.08935 0.25677,2.21105 -0.00676,3.26804c-0.71879,2.88303 -2.2179,2.17152 -3.38575,4.87996c-0.35102,0.81408 0.47941,2.11992 -0.23157,2.64948c-3.88254,2.89185 -7.27805,-0.98608 -8.27893,-4.08709c-0.70971,-2.19889 -0.2384,-4.21848 0.48796,-6.24106c-0.25105,-0.06961 -0.50104,-0.12914 -0.74983,-0.17417c-3.58292,0.01273 -7.14706,0.81201 -10.69644,0.56847c-2.81241,-0.19297 -5.53,-1.08522 -8.33581,-1.32258c-3.05575,-0.25851 -4.09995,-0.08766 -7.25629,-0.51532c-2.96979,-0.40239 -4.99482,-1.68098 -8.136,-1.37636c-1.5576,0.15105 -4.04694,1.65645 -5.14212,2.00023c-1.29235,0.40566 -2.64449,0.59712 -3.98279,0.80613c-2.21245,0.34553 -3.6248,-0.5318 -5.53875,-0.60573c1.33415,2.72128 1.63634,5.98327 1.54783,8.90538l0.74466,1.34037c0.16131,0.27772 0.25367,0.60044 0.25367,0.94473c0,0.69725 -0.37882,1.30601 -0.94186,1.63172v1.00549c0,1.04035 -0.84338,1.88372 -1.88373,1.88372c-0.74135,0 -1.38266,-0.42825 -1.69007,-1.05086l-0.91271,-1.75747c-1.192,0.19968 -1.85833,-0.9664 -1.85833,-0.9664l-0.08542,-0.17781c-0.82137,-0.74195 -1.56986,-2.11574 -2.13529,-3.24841c-0.52376,-0.01525 -1.03774,-0.0702 -1.51691,-0.26643c-3.08562,-1.26363 -3.40458,-3.8018 -2.65153,-6.47753c-0.20715,-0.82715 -0.26448,-1.88197 -0.13702,-3.21786c0.0281,-0.29451 0.18298,-0.52439 0.39897,-0.7251c-3.80262,0.2981 -6.30821,-0.23036 -6.36438,-4.58475c-0.0328,-2.54237 1.23406,-4.29673 2.95379,-5.7228c0.46659,-0.84575 1.22511,-1.71413 2.13053,-2.44444c0.55139,-1.30416 1.17433,-2.57207 1.88773,-3.83643l0.23282,-0.13668l-0.06095,-0.06095l1.69535,-1.69535v0c0.21044,-0.21044 0.47044,-0.37132 0.761,-0.46363c1.16084,-2.14751 2.69086,-4.01431 5.22521,-4.88075c1.03573,-0.3541 2.31551,-0.64049 3.28138,-0.12548c0.79683,0.42488 0.21672,2.37041 1.11433,2.46931c0.78591,0.0866 0.29874,-1.5809 0.68442,-2.27112c1.56335,-2.79781 3.75449,-5.06529 7.01117,-5.59837c1.27957,-0.20945 2.62268,-0.62494 3.87814,-0.30093c0.71808,0.18533 0.76128,1.43049 1.46014,1.67865c0.80797,0.28691 2.99304,-1.38887 3.47817,-1.6135c2.25119,-1.04236 5.0758,-1.69421 7.53113,-0.89462c0.81736,0.26618 0.80707,1.57717 1.48032,2.11165c1.98197,1.57344 2.74417,0.96118 4.89146,0.54316c2.42854,-0.85656 4.70167,-1.88804 7.38503,-1.75021c3.30064,0.16953 4.71681,2.59696 7.04773,4.28628c0.2246,-0.09456 0.47138,-0.14683 0.73037,-0.14683c0.66422,0 1.24815,0.34378 1.58356,0.86313l0.26758,0.40138c1.04552,0.20455 2.13932,0.29867 3.0702,0.787c2.51583,1.31979 5.91825,5.6709 6.69752,8.58995c0.37646,1.4102 -0.20546,3.10201 0.03866,4.5209c0.4596,2.67125 3.49963,6.09339 2.39881,8.8986c-0.29573,0.7536 -0.73392,1.44133 -1.2381,2.08629zM351.89983,149.40628c0.00849,0.01026 0.01142,0.00865 0.00743,-0.00872c-0.00247,0.00292 -0.00495,0.00582 -0.00743,0.00872z" fill="#29241d" stroke="none" stroke-width="0.5" stroke-linecap="butt"/><path d="M315.96058,251.58193l-4.6466,-34.56538l1.30881,-2.54006" fill="none" stroke="#000000" stroke-width="3" stroke-linecap="round"/><path d="M312.88042,213.9765l0.03558,-0.06905l7.32855,0.06912" fill="none" stroke="#000000" stroke-width="3" stroke-linecap="round"/><path d="M326.39043,214.47657l1.35283,2.32397l-0.6059,35.28373l9.92095,3.64186l-0.25117,5.27443l-15.32095,-2.51163" fill="none" stroke="#000000" stroke-width="3" stroke-linecap="round"/><path d="M320.23591,214.47657l1.25027,43.38445l-11.67909,3.01395l-2.26047,-4.39535l7.66048,-5.02326" fill="none" stroke="#000000" stroke-width="3" stroke-linecap="round"/><path d="M315.96058,250.82845l10.17211,-0.37674" fill="none" stroke="#000000" stroke-width="3" stroke-linecap="round"/><path d="M314.32804,255.72613l-2.13489,-1.75814" fill="none" stroke="#000000" stroke-width="3" stroke-linecap="round"/><path d="M310.05825,255.22381l1.88372,1.38139" fill="none" stroke="#000000" stroke-width="3" stroke-linecap="round"/><path d="M331.53271,253.2145l-3.01395,1.50698" fill="none" stroke="#000000" stroke-width="3" stroke-linecap="round"/><path d="M332.66294,255.47497l1.75815,-1.50698" fill="none" stroke="#000000" stroke-width="3" stroke-linecap="round"/><path d="M313.76396,201.50966c-0.17539,3.01769 -3.34851,5.57802 -5.13895,1.93784c-1.37102,-2.78745 -0.33974,-6.00694 -0.3125,-9.01211c0.01675,-1.84785 4.04647,-2.87423 4.8125,-0.92169c0.93627,2.38645 0.5625,5.28688 0.5625,7.68279z" fill="#ffffd6" stroke="none" stroke-width="0.5" stroke-linecap="butt"/><path d="M327.68751,202.4234c-2.87169,0 -3.05656,-6.13733 -2.58778,-8.23971c0.00378,-0.01775 0.00783,-0.03542 0.01216,-0.053c0.23044,-0.93616 1.24005,-1.6411 2.45062,-1.6411c1.38071,0 2.5,0.91702 2.5,2.04821c0,0.22997 -0.04626,0.45108 -0.13157,0.65744c1.18484,3.04534 0.20078,7.22816 -2.24343,7.22816z" fill="#ffffd6" stroke="none" stroke-width="0.5" stroke-linecap="butt"/><path d="M309.77029,191.6684c-2.22479,-3.64547 -0.32308,-9.36704 -0.0625,-13.15585c0.13169,-1.91481 -1.18221,-3.6668 1.00696,-5.06179c1.98412,-1.26433 3.16582,0.67201 3.74676,2.01131c0.01854,-0.02589 0.03812,-0.05154 0.05878,-0.07692c2.33865,-2.87402 4.3278,0.70165 5.84819,1.84352c0.85258,0.64032 1.2335,-1.82181 2.33931,-2.09954c3.10095,-0.77882 7.51792,-4.31139 10.02118,-2.56518c0.42723,0.29803 -0.78259,0.94867 -0.38061,1.58018c0.93854,1.47444 -1.04056,2.81259 -1.59369,3.81359c-1.33858,2.42242 -1.8541,3.89451 -1.21427,6.77109c0.4751,2.13602 3.11395,5.31558 1.31016,7.36378c-0.87273,0.99099 -2.98638,0.42795 -4.02952,-0.25614c-0.32118,-0.21063 -2.02193,-1.14773 -2.07399,-1.01358c-0.88989,2.2932 0.85131,2.93238 0.85131,4.85162c0,5.30151 1.73022,11.07414 0.875,16.25908c-0.18932,1.14779 -1.13861,1.99437 -2.43912,2.55315c-0.71385,0 -1.4277,0 -2.14155,0c-2.20647,0 -4.41295,0.00004 -6.61942,-0.00001c-0.25992,-0.13178 -0.49205,-0.27906 -0.69049,-0.44163c-2.52904,-2.07199 0.49826,-2.64286 -0.71357,-4.62852c-0.18291,-0.28463 -0.28643,-0.60883 -0.28643,-0.95284c0,-0.01862 0.0003,-0.03718 0.0009,-0.05568c0.08288,-4.93993 0.83786,-10.24784 0.8741,-15.34245c0.00456,-0.64086 0.00832,-1.28172 0.01137,-1.92259c-0.75948,1.61545 -3.47424,2.53204 -4.69887,0.52541z" fill="#ff6969" stroke="none" stroke-width="0.5" stroke-linecap="butt"/><path d="M320.87241,213.97657c-2.31551,0 -4.63103,0.00005 -6.94654,-0.00002c3.10972,-1.14947 7.95505,-1.08683 10.87091,0.00002c-1.30813,0 -2.61625,0 -3.92438,0z" fill="#ff0000" stroke="none" stroke-width="0.5" stroke-linecap="butt"/><path d="M320.12042,168.23387c0.72138,0.04314 1.1627,0.70522 1.73769,1.06473c0.16734,0.10463 1.30021,-0.61992 2.54778,0.42713c1.94393,1.63147 -1.61228,7.11914 -4.49999,6.98771c-2.75794,-0.12553 -3.66756,-3.5669 -3.64704,-5.30476c0.00236,-0.19967 -0.0529,-1.83023 0.44792,-2.01766l1.52991,-0.64271c0.06043,0 0.1202,0.00233 0.17917,0.00689c0.58014,-0.03147 1.10547,-0.55715 1.70455,-0.52133z" fill="#ffffd6" stroke="none" stroke-width="0.5" stroke-linecap="butt"/><path d="M309.58157,201.40831c0.16905,-1.08174 0.31732,-2.13916 0.37858,-3.09437c0.02564,-0.39968 -1.44854,-0.17332 -1.40795,-0.55209c0.40467,-3.77688 1.41322,-9.00554 1.30684,-11.33255c-0.21043,-4.60312 -1.07237,-13.10252 -1.07237,-13.10252l7.34652,1.08031" fill="none" stroke="#000000" stroke-width="3" stroke-linecap="round"/><path d="M323.63669,174.71573l-3.76745,2.57217l-3.17093,-3.96114l-0.56511,-2.93227" fill="none" stroke="#000000" stroke-width="3" stroke-linecap="round"/><path d="M332.44318,171.73632l-8.66513,1.85196l0.56512,-3.70392" fill="none" stroke="#000000" stroke-width="3" stroke-linecap="round"/><path d="M314.81459,174.71574l-0.75349,38.58259" fill="none" stroke="#000000" stroke-width="3" stroke-linecap="round"/><path d="M327.11965,214.48671l-0.18643,-0.26239l-0.94186,-39.04558" fill="none" stroke="#000000" stroke-width="3" stroke-linecap="round"/><path d="M330.6807,199.62488c0.16517,-1.13003 0.34321,-2.33952 0.47238,-3.73383c0.47731,-5.15228 -1.40055,-10.29048 -1.36566,-12.84407c0.04442,-3.25137 2.5458,-9.87452 2.5458,-9.87452" fill="none" stroke="#000000" stroke-width="3" stroke-linecap="round"/><path d="M311.91058,208.46695l-3.57907,-7.0992" fill="none" stroke="#000000" stroke-width="3" stroke-linecap="round"/><path d="M325.44201,207.95252l4.7721,-8.6425" fill="none" stroke="#000000" stroke-width="3" stroke-linecap="round"/><path d="M308.31251,194.64021l4,-4.19883" fill="none" stroke="#000000" stroke-width="3" stroke-linecap="round"/><path d="M314.18783,148.86851c1.51981,0.13914 4.04166,-0.54783 4.04166,2.5c0,4.20313 -6.11575,2.35968 -8.50081,2.10951c-0.20308,-0.0213 -0.93032,-0.03233 -1.55888,-0.11318c-0.12747,-0.00786 -0.25204,-0.02821 -0.37278,-0.06002c-0.96956,-0.25544 -1.69253,-1.24926 -1.69253,-2.43631c0,-1.38071 0.97812,-2.5 2.18469,-2.5c0.15435,0 0.30496,0.01832 0.45027,0.05316c1.4962,-0.36121 3.28562,0.24885 5.44838,0.44684z" fill="#ffffff" stroke="none" stroke-width="0.5" stroke-linecap="butt"/><path d="M325.06251,191.46549l4.5,1.53616" fill="none" stroke="#000000" stroke-width="3" stroke-linecap="round"/><path d="M301.23292,148.97374l17.95228,0.16778" fill="none" stroke="#000000" stroke-width="2" stroke-linecap="round"/><path d="M317.67519,149.9804l0.33555,3.35557l-11.40893,-0.16778l-0.50333,-4.02668" fill="none" stroke="#000000" stroke-width="2" stroke-linecap="round"/><path d="M312.47406,149.81263l0.33556,3.02001" fill="none" stroke="#000000" stroke-width="2" stroke-linecap="round"/><path d="M314.99073,150.14818l0.33556,2.01334" fill="none" stroke="#000000" stroke-width="2" stroke-linecap="round"/><path d="M313.48073,150.48374l0.33556,1.67778" fill="none" stroke="#000000" stroke-width="2" stroke-linecap="round"/><path d="M332.46954,149.04666c0.14531,-0.03484 0.29592,-0.05316 0.45027,-0.05316c1.20657,0 2.18469,1.11929 2.18469,2.5c0,1.18705 -0.72297,2.18087 -1.69253,2.43631c-0.12074,0.03181 -0.24531,0.05217 -0.37278,0.06002c-0.62856,0.08085 -1.3558,0.09188 -1.55888,0.11318c-2.38506,0.25017 -8.50081,2.09361 -8.50081,-2.10951c0,-3.04783 2.52186,-2.36086 4.04167,-2.5c2.16276,-0.19799 3.95218,-0.80805 5.44838,-0.44684z" data-paper-data="{&quot;index&quot;:null}" fill="#ffffff" stroke="none" stroke-width="0.5" stroke-linecap="butt"/><path d="M322.03743,149.47707h17.11339" fill="none" stroke="#000000" stroke-width="2" stroke-linecap="round"/><path d="M334.13923,153.8685l-11.22223,-0.11111l0.77778,-3.66666" fill="none" stroke="#000000" stroke-width="2" stroke-linecap="round"/><path d="M335.36145,149.97963l-1.44445,4.55555" fill="none" stroke="#000000" stroke-width="2" stroke-linecap="round"/><path d="M326.25033,150.09073l-0.44445,3.44445" fill="none" stroke="#000000" stroke-width="2" stroke-linecap="round"/><path d="M327.47255,153.09073l-0.11111,-3.11111" fill="none" stroke="#000000" stroke-width="2" stroke-linecap="round"/><path d="M328.47256,152.97963l0.33333,-2.44445" fill="none" stroke="#000000" stroke-width="2" stroke-linecap="round"/><path d="M329.4795,159.24351l-19.25,-0.5" fill="none" stroke="#000000" stroke-width="3" stroke-linecap="round"/><path d="M328.3545,159.99351l-3,3.875l-11.75,-4.25" fill="none" stroke="#000000" stroke-width="3" stroke-linecap="round"/><path d="M321.4795,160.11851l5,0.625l-3.875,-0.375" fill="none" stroke="#000000" stroke-width="3" stroke-linecap="round"/><path d="M315.9795,159.24351h-7.5" fill="none" stroke="#000000" stroke-width="3" stroke-linecap="round"/><path d="M308.1045,158.24351l6.375,0.625" fill="none" stroke="#000000" stroke-width="3" stroke-linecap="round"/><path d="M307.2295,158.74351l4.75,-0.125" fill="none" stroke="#000000" stroke-width="3" stroke-linecap="round"/><path d="M317.09461,185.375c0,-1.38071 0.50841,-2.5 1.13556,-2.5c0.62715,0 1.13556,1.11929 1.13556,2.5c0,1.38071 -0.50841,2.5 -1.13556,2.5c-0.62715,0 -1.13556,-1.11929 -1.13556,-2.5z" fill="#000000" stroke="none" stroke-width="0.5" stroke-linecap="butt"/><path d="M320.33096,185.875c0,-1.38071 0.50841,-2.5 1.13556,-2.5c0.62715,0 1.13556,1.11929 1.13556,2.5c0,1.38071 -0.50841,2.5 -1.13556,2.5c-0.62715,0 -1.13556,-1.11929 -1.13556,-2.5z" fill="#000000" stroke="none" stroke-width="0.5" stroke-linecap="butt"/><path d="M319.84521,193.62446c0.96781,-0.15024 3.72162,-9.5352 3.93349,-1.60542c0.02418,0.90492 -0.62797,2.05373 -0.86952,2.73483c-1.52546,4.30133 -4.16878,5.25715 -5.92812,0.87114c-0.34686,-0.86471 -1.25866,-5.46376 -0.18474,-6.12872c0.20598,-0.46066 0.49249,-0.74628 0.8093,-0.74628c0.62715,0 1.13556,1.11929 1.13556,2.5c0,0.18652 -0.00929,0.36828 -0.02688,0.54315c0.33817,1.04775 0.68428,1.90064 1.13091,1.83131z" fill="#000000" stroke="none" stroke-width="0.5" stroke-linecap="butt"/></g></g></svg>