<svg version="1.1" xmlns="http://www.w3.org/2000/svg" xmlns:xlink="http://www.w3.org/1999/xlink" width="99.6974" height="165.33576" viewBox="0,0,99.6974,165.33576"><g transform="translate(-270.1513,-97.70838)"><g data-paper-data="{&quot;isPaintingLayer&quot;:true}" fill-rule="nonzero" stroke-linejoin="miter" stroke-miterlimit="10" stroke-dasharray="" stroke-dashoffset="0" style="mix-blend-mode: normal"><path d="M313.88491,199.05078c-0.17539,3.68333 -3.34851,6.80841 -5.13895,2.36529c-1.37102,-3.4023 -0.33974,-7.33195 -0.3125,-11c0.01675,-2.25545 4.04647,-3.50823 4.8125,-1.125c0.93627,2.91285 0.5625,6.45306 0.5625,9.37745z" fill="#ffffd6" stroke="none" stroke-width="0.5" stroke-linecap="butt"/><path d="M327.80846,200.16607c-2.87169,0 -3.05656,-7.4911 -2.58778,-10.05722c0.00378,-0.02166 0.00783,-0.04323 0.01216,-0.06469c0.23044,-1.14266 1.24005,-2.00309 2.45062,-2.00309c1.38071,0 2.5,1.11929 2.5,2.5c0,0.2807 -0.04626,0.55058 -0.13157,0.80246c1.18484,3.71708 0.20078,8.82254 -2.24343,8.82254z" fill="#ffffd6" stroke="none" stroke-width="0.5" stroke-linecap="butt"/><path d="M325.3402,194.52339l0.00487,1.90595c0,0 0,0.55782 -0.2635,1.14648c0.45316,4.5851 1.07725,9.24801 0.49246,13.5755c-0.61487,4.55003 -9.24587,5.22196 -11.89058,2.57726c-2.52904,-2.52903 0.49826,-3.22582 -0.71357,-5.64948c-0.18291,-0.34741 -0.28643,-0.74312 -0.28643,-1.16302c0,-0.02273 0.0003,-0.04538 0.0009,-0.06796c0.08288,-6.02958 0.83786,-12.5083 0.8741,-18.72667c0.00456,-0.78222 0.00832,-1.56444 0.01137,-2.34667c-0.75948,1.97179 -3.47424,3.09056 -4.69887,0.6413h0.00001c-2.22479,-4.44958 -0.32308,-11.43322 -0.0625,-16.05776c0.13169,-2.33718 -1.18221,-4.47562 1.00696,-6.17831c1.98412,-1.54321 3.16582,0.82024 3.74676,2.45496c0.01854,-0.0316 0.03812,-0.06291 0.05878,-0.09389c2.33865,-3.50797 4.3278,0.85642 5.84819,2.25016c0.85258,0.78156 1.2335,-2.22366 2.33931,-2.56266c3.10095,-0.95061 7.51792,-5.26239 10.02118,-3.131c0.42723,0.36377 -0.78259,1.15793 -0.38061,1.92874c0.93854,1.79967 -1.04056,3.43299 -1.59369,4.65479c-1.33858,2.95675 -1.8541,4.75356 -1.21427,8.26465c0.4751,2.60718 3.11395,6.48809 1.31016,8.98808c-0.87273,1.20958 -2.98638,0.52235 -4.02952,-0.31264c-0.18031,-0.14433 -0.79542,-0.56813 -1.30953,-0.88315c-0.60415,2.82811 0.52495,5.62822 0.72801,8.78535z" fill="#000000" stroke="none" stroke-width="0.5" stroke-linecap="butt"/><path d="M312.84375,230.33461c-0.4475,-2.75966 -0.07757,-5.77553 -0.41028,-8.56811c-0.12709,-1.06671 -1.49887,-3.35549 -1.25,-4.47543c1.18869,-5.34912 14.53917,-5.14033 16.0625,-0.875c1.53564,4.2998 -0.03792,9.58826 -0.1875,13.99969c-0.12286,3.62358 0.43112,7.06407 0.21389,10.76975c-0.13398,2.28554 0.18175,6.0643 -0.90139,8.23057c-1.37105,2.7421 -3.77847,0.52344 -5.78078,1.19448c-4.46855,1.49757 -7.36251,-1.85782 -5.73858,-6.7296c-0.02832,-0.15063 -0.04314,-0.30603 -0.04314,-0.46488c0,-0.07879 0.00365,-0.15673 0.01078,-0.23367c0.15484,-4.05409 -1.31134,-8.75204 -1.97549,-12.8478z" fill="#676964" stroke="none" stroke-width="0.5" stroke-linecap="butt"/><path d="M319.22109,157.81237c0.72138,0.05266 1.1627,0.86078 1.73769,1.29959c0.16734,0.12771 1.30021,-0.75666 2.54778,0.52134c1.94393,1.99134 -1.61228,8.68948 -4.49999,8.52905c-2.75794,-0.15322 -3.66756,-4.35369 -3.64704,-6.47488c0.00236,-0.24371 -0.0529,-2.23394 0.44792,-2.46271l1.52991,-0.78448c0.06043,0 0.1202,0.00285 0.17917,0.00841c0.58014,-0.03841 1.10547,-0.68005 1.70455,-0.63632z" fill="#ffffd6" stroke="none" stroke-width="0.5" stroke-linecap="butt"/><path d="M312.81924,252.30197c1.23703,-0.53784 3.29385,0.16513 4.39282,-0.42898c0.59616,-0.32228 0.86567,-0.89081 1.77813,-0.89081c0.50556,0 1.27658,0.62944 1.65309,0.56665c2.252,-0.37559 3.81047,-1.1736 6.07605,-0.6072c0.87185,0.21796 0.95538,1.44429 1.3811,1.6516c0.69558,0.33873 2.09852,-0.18571 2.96059,-0.07043c2.37446,0.31754 6.29783,2.38183 5.74149,5.50369c-0.65294,3.66388 -9.83986,0.98782 -12.53916,0.46824c-1.1838,-0.22787 -2.59038,-1.33343 -3.56288,-0.62099c-0.76001,0.55677 -6.5524,2.70725 -8.18067,3.23604c-0.58066,0.18858 -1.83874,-0.10851 -2.88434,-0.57896c-0.67602,-0.05939 -1.24958,-0.47586 -1.53092,-1.05966c-0.08337,-0.12187 -0.12956,-0.24227 -0.12956,-0.35806c-0.03674,-0.14683 -0.05624,-0.30049 -0.05624,-0.45871c0,-0.3018 0.07097,-0.58702 0.19714,-0.83988c0.70009,-2.15378 2.88645,-4.72259 4.70337,-5.51255z" fill="#ffffff" stroke="none" stroke-width="0.5" stroke-linecap="butt"/><path d="M299.14079,156.94043c0,0 -4.22307,-17.29411 -4.22307,-24.93623c0,-2.75768 -0.95763,-11.04158 3.54451,-14.9676c5.80536,-5.06248 17.7568,-5.54445 21.79391,-5.54445c3.39251,0 15.74324,-2.37128 21.09113,2.11689c6.84841,5.74747 6.45938,19.01195 6.45938,23.02043c0,7.07165 -3.82087,20.31096 -3.82087,20.31096c0,0 -15.47704,2.21209 -23.12634,2.21209c-7.28084,0 -21.71865,-2.21209 -21.71865,-2.21209z" fill="#ffffd6" stroke="#000000" stroke-width="3" stroke-linecap="butt"/><path d="M308.68224,198.3044c0.16905,-1.32035 0.31732,-2.61102 0.37858,-3.77692c0.02564,-0.48784 -1.44854,-0.21155 -1.40795,-0.67387c0.40467,-4.60998 1.41322,-10.99197 1.30684,-13.83228c-0.21043,-5.61847 -1.07237,-15.99266 -1.07237,-15.99266l7.34652,1.3186" fill="none" stroke="#000000" stroke-width="3" stroke-linecap="round"/><path d="M329.94469,151.03972c-0.77776,-0.17789 -1.57163,-0.54914 -2.10163,-1.14551c-0.66014,-0.74281 -0.81442,-1.49885 -0.72905,-2.36098c0.57071,-5.76362 8.72894,-0.19022 5.05587,2.14719z" fill="#ffffff" stroke="none" stroke-width="0.5" stroke-linecap="butt"/><path d="M316.08153,251.87298l-4.6466,-34.56538l1.60202,-3.1091l13.31624,0.12559" fill="none" stroke="#000000" stroke-width="3" stroke-linecap="round"/><path d="M311.33794,150.70489c-0.77777,-0.17789 -1.57163,-0.54914 -2.10163,-1.14551c-0.66014,-0.74281 -0.81442,-1.49885 -0.72905,-2.36098c0.57071,-5.76363 8.72894,-0.19022 5.05587,2.14718z" fill="#ffffff" stroke="none" stroke-width="0.5" stroke-linecap="butt"/><path d="M322.73736,165.724l-3.76745,3.13954l-3.17093,-4.83489l-0.56511,-3.57907" fill="none" stroke="#000000" stroke-width="3" stroke-linecap="round"/><path d="M332.56413,162.71006l-8.66513,2.26046l0.56512,-4.52093" fill="none" stroke="#000000" stroke-width="3" stroke-linecap="round"/><path d="M313.91526,165.724l-0.75349,47.09311" fill="none" stroke="#000000" stroke-width="3" stroke-linecap="round"/><path d="M325.09203,166.28914l0.94186,47.65822l1.83032,3.14424l-0.6059,35.28373l9.92095,3.64186l-0.25117,5.27443l-15.32095,-2.51163" fill="none" stroke="#000000" stroke-width="3" stroke-linecap="round"/><path d="M329.78137,196.12758c0.16517,-1.37929 0.34321,-2.85557 0.47238,-4.55744c0.47731,-6.28876 -1.40055,-12.56035 -1.36566,-15.67721c0.04442,-3.96855 2.5458,-12.05263 2.5458,-12.05263" fill="none" stroke="#000000" stroke-width="3" stroke-linecap="round"/><path d="M312.03153,207.54269l-3.57907,-8.66513" fill="none" stroke="#000000" stroke-width="3" stroke-linecap="round"/><path d="M325.56296,206.91479l4.7721,-10.54886" fill="none" stroke="#000000" stroke-width="3" stroke-linecap="round"/><path d="M320.35132,214.57526l1.25581,43.57682l-11.67909,3.01395l-2.26047,-4.39535l7.66048,-5.02326" fill="none" stroke="#000000" stroke-width="3" stroke-linecap="round"/><path d="M326.25364,250.74276l-10.17211,0.37674" fill="none" stroke="#000000" stroke-width="3" stroke-linecap="round"/><path d="M312.3141,254.25905l2.13489,1.75814" fill="none" stroke="#000000" stroke-width="3" stroke-linecap="round"/><path d="M310.1792,255.51485l1.88372,1.38139" fill="none" stroke="#000000" stroke-width="3" stroke-linecap="round"/><path d="M328.63971,255.01254l3.01395,-1.50698" fill="none" stroke="#000000" stroke-width="3" stroke-linecap="round"/><path d="M332.78389,255.76603l1.75815,-1.50698" fill="none" stroke="#000000" stroke-width="3" stroke-linecap="round"/><path d="M312.43346,185.54107l-4,5.125" fill="none" stroke="#000000" stroke-width="3" stroke-linecap="round"/><path d="M325.18346,186.79107l4.5,1.875" fill="none" stroke="#000000" stroke-width="3" stroke-linecap="round"/><path d="M288.31982,124.24384v-10.69934h63.58682v10.69934z" fill="#560e00" stroke="#000000" stroke-width="2" stroke-linecap="butt"/><path d="M283.40883,119.27188v-20.5635h72.40748v20.5635z" fill="#676964" stroke="#000000" stroke-width="2" stroke-linecap="butt"/><path d="M295.15059,128.7472l-12.02132,-10.08015h71.56878l8.9461,10.08015z" fill="#676964" stroke="#000000" stroke-width="2" stroke-linecap="butt"/><path d="M325.27257,108.1559l-17.66812,-4.41702l24.29365,5.1532" fill="none" stroke="#000000" stroke-width="0.5" stroke-linecap="round"/><path d="M302.81933,108.524l32.39155,-5.52129" fill="none" stroke="#000000" stroke-width="0.5" stroke-linecap="round"/><path d="M305.39593,102.26654l23.1894,12.51492" fill="none" stroke="#000000" stroke-width="0.5" stroke-linecap="round"/><path d="M314.22998,109.26017l9.20215,6.99363" fill="none" stroke="#000000" stroke-width="0.5" stroke-linecap="round"/><path d="M326.00873,102.63462l-1.84043,9.93832l-17.66812,-5.1532" fill="none" stroke="#000000" stroke-width="0.5" stroke-linecap="round"/><path d="M313.8619,104.84313l10.67449,0.36809l-13.25109,9.20215" fill="none" stroke="#000000" stroke-width="0.5" stroke-linecap="round"/><path d="M304.34019,139.13373l12.05169,2.07341" fill="none" stroke="#000000" stroke-width="3" stroke-linecap="round"/><path d="M323.00087,140.4296h12.31087" fill="none" stroke="#000000" stroke-width="3" stroke-linecap="round"/><path d="M307.83907,144.70601l7.90487,0.12959l-0.12958,5.83147h-6.609l0.25917,-6.4794" fill="none" stroke="#000000" stroke-width="3" stroke-linecap="round"/><path d="M314.0593,149.63037l-0.12959,-3.49888" fill="none" stroke="#000000" stroke-width="3" stroke-linecap="round"/><path d="M314.18888,153.90677l5.96105,1.42547" fill="none" stroke="#000000" stroke-width="3" stroke-linecap="round"/><path d="M319.50199,155.98018l6.99776,-0.12959" fill="none" stroke="#000000" stroke-width="3" stroke-linecap="round"/><path d="M321.96416,156.23934l-3.62846,-1.16629" fill="none" stroke="#000000" stroke-width="3" stroke-linecap="round"/><path d="M324.81511,150.27831l-0.38877,-5.57229" fill="none" stroke="#000000" stroke-width="3" stroke-linecap="round"/><path d="M323.7784,145.61312l8.55281,-0.25918" fill="none" stroke="#000000" stroke-width="3" stroke-linecap="round"/><path d="M332.20162,144.57643l0.38876,6.73858l-7.6457,-0.25918" fill="none" stroke="#000000" stroke-width="3" stroke-linecap="round"/><path d="M326.49975,146.77943l0.38876,2.98053" fill="none" stroke="#000000" stroke-width="3" stroke-linecap="round"/><path d="M369.83643,142.88695c-0.20761,2.49137 -2.69898,2.28375 -2.69898,2.28375l-1.44423,-0.13151c-0.44569,0.68625 -1.21892,1.14014 -2.09816,1.14014c-0.25603,0 -0.50308,-0.03849 -0.73566,-0.10999l-2.73113,-0.77221c-3.75935,-0.71266 -11.97547,-0.31247 -14.68471,-3.49474c-1.1521,-1.35325 -0.87129,-3.44606 -1.30694,-5.16908c1.05104,-2.15733 -0.60197,1.05521 -4.12963,0.79448c-1.56884,-0.11595 -3.1608,-0.73562 -4.40143,-1.70285c-0.58011,-0.45227 0.06141,-1.70506 -0.53027,-2.14207c-0.00322,-0.00238 -0.00644,-0.00468 -0.00966,-0.00692c-0.16437,0.0175 -0.32867,0.03537 -0.49291,0.05358c-0.29123,0.19163 -0.60088,0.56557 -0.91888,0.6539c-1.71642,0.47678 -3.43903,1.11984 -5.22027,1.14434c-1.37241,0.01888 -2.84556,-0.08682 -4.10905,-0.62389c-0.6079,0.04836 -1.21759,0.08903 -1.8295,0.11984c-1.64481,0.08282 -3.29543,0.12881 -4.94936,0.15032c-0.55917,0.17404 -1.12873,0.3009 -1.71174,0.35527c-0.43775,0.04083 -0.84128,-0.12034 -1.23712,-0.34027c-1.73823,-0.00337 -3.47847,-0.02562 -5.21785,-0.05249c-1.33662,0.6703 -2.66694,1.46049 -4.08765,1.37427c-0.26108,-0.01585 -0.51226,-0.07079 -0.75605,-0.15476c-0.14327,0.17607 -0.31002,0.33227 -0.49549,0.46382l-2.72429,1.9813l-0.1492,-0.20515l-0.43065,0.51931c-1.29458,0.1309 -2.58837,0.56126 -3.74148,1.20862c0.06567,0.2237 0.1009,0.46043 0.1009,0.70539c0,0.9177 -0.49446,1.7199 -1.23149,2.15473c0.61266,0.23147 1.15362,0.45484 0.97643,0.93623c-0.80016,2.17386 -2.93091,3.6843 -4.85891,4.96834c-4.13985,2.75713 -9.58347,2.67435 -14.61473,1.7335l-0.04954,0.41167l-4.93224,-0.59353c-1.25529,-0.13315 -2.23326,-1.19533 -2.23326,-2.48594c0,-0.66899 0.26277,-1.27661 0.69073,-1.72527l3.44052,-3.6216l0.00456,0.00433l0.01766,-0.02742c0.82597,-0.82607 6.11383,-6.12283 6.29796,-6.26076c0.72164,-0.54062 1.9979,-0.27002 2.54577,-0.95734c0.07592,-0.2566 0.17379,-0.50466 0.28749,-0.74659c0.21571,-1.78459 -1.82762,-4.71917 -2.10609,-5.7536c-0.88233,-3.27755 -0.73087,-6.03201 -0.73485,-9.28674c0,0 0,-2.5 2.5,-2.5c2.3732,0 2.49357,2.25283 2.49967,2.48136c1.71907,-0.26484 2.52023,1.471 2.52023,1.471l0.15343,0.33334c0.59513,0.10151 1.11854,0.41335 1.49102,0.85634l1.89276,2.22268c0.95278,1.11898 1.81546,2.31153 2.61034,3.55236l0.33114,-0.05683l-0.06814,-0.13827l2.41884,-1.19198c0.34444,-0.1789 0.73577,-0.27999 1.15071,-0.27999c0.71733,0 1.3641,0.30212 1.82001,0.78606c2.85301,0.24042 6.41857,0.66142 7.30453,0.71705c3.339,0.20964 8.00063,-1.12586 11.10682,0.00762c0.07361,0.02686 0.1469,0.05445 0.21988,0.08272l0.00949,-0.05063l1.55517,0.2916c1.07799,-0.84188 2.2841,-1.47998 4.65941,-0.90687c0.85369,0.20597 0.95934,1.34581 1.31112,2.24932c7.52078,-0.84696 15.193,-2.68582 22.65917,-0.84207c1.007,0.24867 1.97214,0.58587 2.90696,0.98597c0.87272,-0.09942 1.76852,0.00047 2.63286,0.25209c0.32781,-0.07287 0.56458,-0.07287 0.56458,-0.07287c1.54481,0.09074 3.30129,-0.51352 4.63445,0.27221c1.57997,0.93121 2.6942,2.67191 3.29867,4.40341c0.10492,0.30054 0.14404,0.60975 0.14009,0.92405c0.68274,0.99928 0.65053,2.42901 0.97538,3.63396l0.4089,0.71557c0.20475,0.03114 0.40746,0.0671 0.60519,0.11495l2.64493,0.19449c0,0 2.49136,0.20762 2.28375,2.69898z" fill="#29241d" stroke="none" stroke-width="0.5" stroke-linecap="butt"/><path d="M309.09507,170.92933c0,-1.38071 1.11929,-2.5 2.5,-2.5c1.38071,0 2.5,1.11929 2.5,2.5c0,1.38071 -1.11929,2.5 -2.5,2.5c-1.38071,0 -2.5,-1.11929 -2.5,-2.5z" fill="#ffffff" stroke="none" stroke-width="0.5" stroke-linecap="butt"/><path d="M315.84507,180.17933c0,-1.38071 1.11929,-2.5 2.5,-2.5c1.38071,0 2.5,1.11929 2.5,2.5c0,1.38071 -1.11929,2.5 -2.5,2.5c-1.38071,0 -2.5,-1.11929 -2.5,-2.5z" fill="#ffffff" stroke="none" stroke-width="0.5" stroke-linecap="butt"/><path d="M322.84507,169.92933c0,-1.38071 1.11929,-2.5 2.5,-2.5c1.38071,0 2.5,1.11929 2.5,2.5c0,1.38071 -1.11929,2.5 -2.5,2.5c-1.38071,0 -2.5,-1.11929 -2.5,-2.5z" fill="#ffffff" stroke="none" stroke-width="0.5" stroke-linecap="butt"/><path d="M315.84507,191.92933c0,-1.38071 1.11929,-2.5 2.5,-2.5c1.38071,0 2.5,1.11929 2.5,2.5c0,1.38071 -1.11929,2.5 -2.5,2.5c-1.38071,0 -2.5,-1.11929 -2.5,-2.5z" fill="#ffffff" stroke="none" stroke-width="0.5" stroke-linecap="butt"/><path d="M315.34507,203.67933c0,-1.38071 1.11929,-2.5 2.5,-2.5c1.38071,0 2.5,1.11929 2.5,2.5c0,1.38071 -1.11929,2.5 -2.5,2.5c-1.38071,0 -2.5,-1.11929 -2.5,-2.5z" fill="#ffffff" stroke="none" stroke-width="0.5" stroke-linecap="butt"/></g></g></svg>