<svg version="1.1" xmlns="http://www.w3.org/2000/svg" xmlns:xlink="http://www.w3.org/1999/xlink" width="171.66667" height="175.68621" viewBox="0,0,171.66667,175.68621"><g transform="translate(-230.16666,-48.98045)"><g data-paper-data="{&quot;isPaintingLayer&quot;:true}" fill-rule="nonzero" stroke="none" stroke-linecap="butt" stroke-linejoin="miter" stroke-miterlimit="10" stroke-dasharray="" stroke-dashoffset="0" style="mix-blend-mode: normal"><path d="M234.5,224v-120h160.66667v120z" fill="#ff6f00" stroke-width="0"/><path d="M230.16667,104.33334c0,0 27.30085,-14.91943 51.78574,-28.20218c7.11136,-3.85782 28.90017,-20.27027 34.90177,-26.47108c0.23696,-0.24482 0.44462,-0.47098 0.62547,-0.67962c0.05433,0.06643 0.11008,0.13398 0.16728,0.20265c4.9647,5.96113 28.71918,26.60549 35.30566,30.39923c22.37745,12.88917 48.88075,24.75101 48.88075,24.75101z" fill="#ff0000" stroke-width="0"/><path d="M299.16667,224.66667v-60h36v60z" fill="#710000" stroke-width="0"/><path d="M302.33333,193.66667c0,-1.38071 1.11929,-2.5 2.5,-2.5c1.38071,0 2.5,1.11929 2.5,2.5c0,1.38071 -1.11929,2.5 -2.5,2.5c-1.38071,0 -2.5,-1.11929 -2.5,-2.5z" fill="#d4ff00" stroke-width="0.5"/><path d="M243.16667,192.66667v-50h47.33333v50z" fill="#00ffcf" stroke-width="0"/><path d="M344.16667,196.66667v-50h47.33333v50z" fill="#00ffcf" stroke-width="0"/></g></g></svg>