<svg version="1.1" xmlns="http://www.w3.org/2000/svg" xmlns:xlink="http://www.w3.org/1999/xlink" width="131.74971" height="107.68273" viewBox="0,0,131.74971,107.68273"><defs><radialGradient cx="282.36832" cy="159.67203" r="63.38128" gradientUnits="userSpaceOnUse" id="color-1"><stop offset="0" stop-color="#757575"/><stop offset="1" stop-color="#c8c8c8"/></radialGradient></defs><g transform="translate(-254.12515,-126.15865)"><g data-paper-data="{&quot;isPaintingLayer&quot;:true}" fill-rule="nonzero" stroke="none" stroke-width="0.5" stroke-linecap="butt" stroke-linejoin="miter" stroke-miterlimit="10" stroke-dasharray="" stroke-dashoffset="0" style="mix-blend-mode: normal"><path d="M256.8169,226.52185c0.66951,-0.60804 1.4909,-0.06044 1.4909,-0.06044c3.5876,2.48911 9.61888,1.81422 13.95073,2.1743c9.95158,0.82721 19.75975,2.45715 29.74946,2.53406c17.20162,0.13244 34.40434,0.0817 51.60643,0.0817c7.33333,0 14.66667,0 22,0c1.98626,0 4.01718,-0.11073 6,0c0.45121,0.0252 0.95218,0.41388 1.34284,0.18669c0.66355,-0.3859 0.41018,-2.60161 0.40716,-2.93669c-0.04047,-4.49358 -1.61413,-8.29367 -1.98807,-12.81196c-0.04347,-11.39578 -0.01193,-22.79217 -0.01193,-34.18804c0,-4.49365 1.2992,-11.24267 -0.76405,-15.26911c-2.90844,-2.898 -5.08769,-2.48089 -8.98595,-2.48089c-6.58813,0 -12.74448,1.4835 -19.23555,1.85863c-2.24367,0.12966 -4.51696,0.16143 -6.76445,0.14137c-0.18847,-0.00168 -0.97183,-0.08258 -1.68995,-0.035c-0.45637,0.7 -0.91573,1.40051 -1.37572,2.10462c0.06843,1.35768 0.31567,3.09081 0.31567,3.68038c-0.04779,3.26885 -1.05175,4.1592 -3.05762,6.56815c-5.35749,6.43408 -11.43154,11.64603 -17.46801,17.45057l-0.19199,0.04603l0.02664,0.05328l-1.97751,0.98875c-0.1737,0.09145 -0.37156,0.14321 -0.58151,0.14321c-0.69036,0 -1.25,-0.55964 -1.25,-1.25c0,-0.20995 0.05176,-0.4078 0.14321,-0.58151l0.98875,-1.97751l0.01869,0.00935c0.02697,-0.06094 0.05536,-0.12136 0.08529,-0.18122c0.02987,-0.05974 3.53327,-3.5561 3.6657,-3.68853c2.27126,-2.27126 4.86854,-4.45108 6.92374,-6.9165c3.1239,-3.74745 5.56219,-8.26543 8.14885,-12.38856c0.60102,-0.95802 1.21118,-1.90526 1.82359,-2.84792c0.01797,-0.91404 0.11871,-1.70031 0.38886,-2.08477c0.41843,-0.5955 1.04856,-1.00984 1.81016,-1.2944c1.76005,-2.72327 3.4695,-5.4701 4.96065,-8.39047c3.02165,-5.91779 6.06768,-11.98933 9.42673,-17.71665c1.21774,-2.0763 2.66749,-4.30017 4.04044,-6.27432c0.30672,-0.44103 1.19828,-0.66773 1.08392,-1.19262c-0.10255,-0.47066 -4.87908,-0.22439 -5.25859,-0.22438c-4.86069,0.00015 -9.76047,0.2063 -14.6029,-0.23147c-10.76227,-0.97839 -21.55269,-0.76732 -32.35584,-0.7682c-2.49997,-0.0002 -4.99994,-0.00028 -7.49992,-0.00032c-1.29622,-0.00002 -2.75727,-0.82722 -3.88418,-0.1867c-1.05865,0.60172 -0.42652,4.71787 -0.4406,5.6495c1.1597,2.31941 0.40713,3.72264 1,6c0.57691,2.21605 1.02124,4.41512 1.8539,6.60007c0.38949,1.02204 1.53708,2.07767 1.11409,3.08631c-0.47482,1.13224 -1.97025,1.66942 -3.18455,1.85081c-0.82743,0.1236 -1.47388,-0.83739 -2.28719,-1.03344c-1.3361,-0.32207 -2.66044,-0.69266 -4,-1c-2.08692,-0.47881 -5.06511,0.03734 -7.21281,0.03344c-2.62263,-0.00477 -4.92243,-0.60312 -7.52332,-0.82528c-2.03023,-0.17341 -5.02638,-1.17565 -5.76012,0.86247c0.07883,4.0381 1.0751,7.29889 1.8863,11.15735c0.62306,2.96358 0.14714,6.52744 0.14714,9.55546c0,0.3365 0.00975,4.10804 -0.03344,4.28719c-0.49551,2.05559 -1.4846,3.94773 -2,6c-0.38548,1.53496 -0.2057,3.23917 -0.89856,4.66207c-1.7846,3.665 -5.08088,6.0286 -7.13296,9.48853c-5.95208,6.29876 -6.9231,16.35418 -6.93504,24.56421c-0.0033,2.26763 -0.26221,4.75071 -0.04752,7.01838zM264.01666,230.68352c-0.22285,0.06795 -0.40223,0.06795 -0.40223,0.06795h-1c-1.49418,0 -5.648,0.5583 -6.81621,-0.42484c-2.53387,-2.13245 -1.43796,-7.95689 -1.43379,-10.82715c0.01266,-8.70401 1.13942,-19.39611 7.43967,-26.06636c1.99762,-3.35537 5.10692,-5.64365 6.91119,-9.13749c0.63291,-1.22557 0.34941,-2.74284 0.68258,-4.08134c0.51393,-2.06469 1.46353,-3.93929 2,-6c0.31181,-1.19773 -0.03344,-2.47516 -0.03344,-3.71281c0,-2.82986 0.5142,-6.26971 -0.09152,-9.03105c-0.93301,-4.25341 -1.94046,-7.78142 -1.87504,-12.25614c0.5198,-0.92537 0.69097,-2.16592 1.5594,-2.77612c0.28925,-0.20325 4.1213,-0.21141 4.7108,-0.18554c2.44494,0.1073 4.71354,0.71036 7.09909,1.00821c3.2739,0.40878 6.9057,-0.67294 10.13446,0.02407c1.96775,0.42479 3.81576,1.35326 5.71281,1.96656c0.26293,0.085 0.85653,0.12407 0.81545,-0.14919c-0.08103,-0.53912 -0.77417,-0.78933 -1.02896,-1.27131c-0.80091,-1.51503 -0.63116,-3.36945 -1.00306,-5.04231c-0.16175,-0.72759 -0.82533,-1.2754 -1,-2c-0.62375,-2.58762 0.26233,-3.47534 -1,-6c-0.02904,-2.42034 -0.90714,-6.63421 1.5594,-8.3505c0.74011,-0.515 1.79745,-0.15433 2.69852,-0.18669c3.32298,-0.11932 6.6747,0.00006 10.0001,0.00033c10.87905,0.00089 21.74387,-0.20682 32.58198,0.77846c5.44349,0.49775 10.93397,0.1055 16.39508,0.22134c1.58932,0.03371 4.81377,-0.13531 5.59964,1.89813c0.60493,1.56527 -3.1058,6.29438 -3.96669,7.56023c-4.1119,6.04609 -7.38708,13.06401 -10.71742,19.58635c-1.18693,2.32456 -2.49972,4.52598 -3.8697,6.69434c2.40889,-0.10068 5.01177,0.2069 6.56046,0.12334c6.52844,-0.35223 12.7418,-1.86253 19.3752,-1.86253c4.79769,0 7.40988,-0.09466 11.01405,3.51911c2.36886,4.81392 1.23595,11.41038 1.23595,16.73089c0,11.36135 -0.02535,22.72304 0.00978,34.08435c0.34663,4.55648 2.026,8.32899 1.99022,12.91565c-0.01426,1.82781 0.29168,3.73914 -1.59284,5.06331c-0.72649,0.51048 -1.76997,0.15112 -2.65716,0.18669c-1.99111,0.07982 -4.00711,0 -6,0c-7.33333,0 -14.66667,0 -22,0c-17.20851,0 -34.41764,0.05072 -51.62568,-0.08177c-10.05453,-0.07741 -19.92233,-1.7101 -29.93731,-2.54258c-2.544,-0.21147 -5.34257,-0.16915 -8.03478,-0.4436zM340.35843,171.21836c-2.57887,4.05938 -5.05213,8.0894 -8.00684,11.81718c1.44948,-1.41855 2.83275,-2.89802 4.0963,-4.48754c1.83229,-2.30498 3.97628,-3.98682 3.91654,-7.04653c0,-0.08409 -0.00215,-0.17893 -0.006,-0.28311z" fill="#000000"/><path d="M256.82205,219.53001c0.01194,-8.21003 0.97702,-18.27909 6.92911,-24.57785c2.05208,-3.45993 5.34698,-5.83083 7.13158,-9.49583c0.69286,-1.4229 0.51277,-3.1318 0.89825,-4.66677c0.5154,-2.05227 1.50479,-3.95083 2.0003,-6.00641c0.04318,-0.17915 0.03414,-3.95517 0.03414,-4.29166c0,-3.02803 0.47864,-6.60084 -0.14442,-9.56442c-0.81119,-3.85846 -1.8036,-7.1268 -1.88243,-11.1649c0.73374,-2.03813 3.73191,-1.03887 5.76213,-0.86545c2.6009,0.22216 4.90323,0.81732 7.52586,0.82208c2.1477,0.0039 5.12991,-0.5164 7.21684,-0.03759c1.33956,0.30734 2.66618,0.67596 4.00228,0.99803c0.81331,0.19605 1.46101,1.15606 2.28844,1.03246c1.2143,-0.18139 2.71402,-0.72151 3.18885,-1.85375c0.42299,-1.00864 -0.72387,-2.0647 -1.11336,-3.08674c-0.83266,-2.18495 -1.27531,-4.38496 -1.85221,-6.60101c-0.59287,-2.27736 0.16141,-3.68146 -0.99829,-6.00087c0.01408,-0.93163 -0.61571,-5.04884 0.44294,-5.65056c1.12691,-0.64052 2.59097,0.18551 3.88719,0.18553c2.49997,0.00003 5.00649,-0.00169 7.50647,-0.00149c10.80315,0.00088 21.62351,-0.20704 32.38578,0.77135c4.84243,0.43777 9.7517,0.23705 14.61238,0.2369c0.3795,-0.00001 5.15869,-0.24421 5.26124,0.22645c0.11436,0.52488 -0.77724,0.75156 -1.08396,1.19258c-1.37295,1.97415 -2.82207,4.19855 -4.03981,6.27485c-3.35905,5.72732 -6.40075,11.80308 -9.4224,17.72088c-1.49115,2.92036 -3.1973,5.67123 -4.95735,8.3945c-0.7616,0.28457 -1.39177,0.69886 -1.8102,1.29436c-0.27014,0.38446 -0.36916,1.17322 -0.38714,2.08726c-0.61241,0.94266 -1.22084,1.89278 -1.82186,2.8508c-2.58666,4.12313 -5.01987,8.67623 -8.14376,12.42368c-2.05519,2.46542 -4.68484,4.6816 -6.9561,6.95286c-0.13243,0.13243 -3.65412,3.63154 -3.68399,3.69128c-0.02993,0.05986 -0.05862,0.12027 -0.08559,0.18121l-0.01877,-0.00935l-0.99173,1.97729c-0.09145,0.1737 -0.13257,0.27213 -0.13257,0.48208c0,0.69036 0.55556,1.24972 1.24591,1.24972c0.20995,0 0.40607,-0.05178 0.57978,-0.14323l1.97125,-0.98831l-0.02658,-0.05329l0.19137,-0.04595c6.03647,-5.80454 12.06792,-10.96235 17.42542,-17.39643c2.00587,-2.40895 3.01271,-3.28664 3.0605,-6.55549c0,-0.58957 -0.24436,-2.31633 -0.31279,-3.67401c0.45999,-0.7041 0.92042,-1.40273 1.37679,-2.10273c0.71812,-0.04758 1.58817,-0.01651 1.77664,-0.01483c2.24749,0.02006 4.52277,-0.0077 6.76644,-0.13736c6.49107,-0.37513 12.64942,-1.85335 19.23754,-1.85335c3.89825,0 6.07857,-0.41317 8.98701,2.48482c2.06326,4.02644 0.76527,10.78778 0.76527,15.28143c0,11.39587 -0.03834,22.81616 0.00513,34.21194c0.37394,4.5183 1.94408,8.32363 1.98455,12.81721c0.00302,0.33507 0.2554,2.55203 -0.40815,2.93793c-0.39066,0.22719 -0.8919,-0.16115 -1.34312,-0.18635c-1.98282,-0.11073 -4.01542,0.00191 -6.00168,0.00191c-7.33333,0 -14.67604,0.00792 -22.00937,0.00792c-17.20209,0 -34.44878,0.05604 -51.6504,-0.0764c-9.98972,-0.07691 -19.81629,-1.71832 -29.76787,-2.54553c-4.33185,-0.36008 -10.36804,0.30921 -13.95564,-2.1799c0,0 -0.82171,-0.54803 -1.49122,0.06001c-0.21469,-2.26767 0.04211,-4.75387 0.0454,-7.0215z" data-paper-data="{&quot;noHover&quot;:false,&quot;origItem&quot;:[&quot;Path&quot;,{&quot;applyMatrix&quot;:true,&quot;segments&quot;:[[[170.70247,254.02038],[-0.21469,-2.26767],[0.66951,-0.60804]],[[172.19338,253.95994],[0,0],[3.5876,2.48911]],[[186.14411,256.13424],[-4.33185,-0.36008],[9.95158,0.82721]],[[215.89357,258.6683],[-9.98972,-0.07691],[17.20162,0.13244]],[[267.5,258.75],[-17.20209,0],[7.33333,0]],[[289.5,258.75],[-7.33333,0],[1.98626,0]],[[295.5,258.75],[-1.98282,-0.11073],[0.45121,0.0252]],[[296.84284,258.93669],[-0.39066,0.22719],[0.66355,-0.3859]],[[297.25,256],[0.00302,0.33507],[-0.04047,-4.49358]],[[295.26193,243.18804],[0.37394,4.5183],[-0.04347,-11.39578]],[[295.25,209],[0,11.39587],[0,-4.49365]],[[294.48595,193.73089],[2.06326,4.02644],[-2.90844,-2.898]],[[285.5,191.25],[3.89825,0],[-6.58813,0]],[[266.26445,193.10863],[6.49107,-0.37513],[-2.24367,0.12966]],[[259.5,193.25],[2.24749,0.02006],[-0.18847,-0.00168]],[[257.81005,193.215],[0.71812,-0.04758],[-0.45637,0.7]],[[256.43433,195.31962],[0.45999,-0.7041],[0.06843,1.35768]],[[256.75,199],[0,-0.58957],[-0.04779,3.26885]],[[253.69238,205.56815],[2.00587,-2.40895],[-5.35749,6.43408]],[[236.22437,223.01872],[6.03647,-5.80454],[0,0]],[236.03238,223.06476],[236.05902,223.11803],[[234.08151,224.10679],[0,0],[-0.1737,0.09145]],[[233.5,224.25],[0.20995,0],[-0.69036,0]],[[232.25,223],[0,0.69036],[0,-0.20995]],[[232.39321,222.41849],[-0.09145,0.1737],[0,0]],[233.38197,220.44098],[[233.40066,220.45033],[0,0],[0.02697,-0.06094]],[[233.48595,220.26911],[-0.02993,0.05986],[0.02987,-0.05974]],[[237.15165,216.58058],[-0.13243,0.13243],[2.27126,-2.27126]],[[244.07539,209.66408],[-2.05519,2.46542],[3.1239,-3.74745]],[[252.22424,197.27552],[-2.58666,4.12313],[0.60102,-0.95802]],[[254.04783,194.4276],[-0.61241,0.94266],[0.01797,-0.91404]],[[254.43669,192.34284],[-0.27014,0.38446],[0.41843,-0.5955]],[[256.24685,191.04843],[-0.7616,0.28457],[1.76005,-2.72327]],[[261.2075,182.65797],[-1.49115,2.92036],[3.02165,-5.91779]],[[270.63422,164.94131],[-3.35905,5.72732],[1.21774,-2.0763]],[[274.67466,158.66699],[-1.37295,1.97415],[0.30672,-0.44103]],[[275.75859,157.47438],[0.11436,0.52488],[-0.10255,-0.47066]],[[270.5,157.25],[0.3795,-0.00001],[-4.86069,0.00015]],[[255.8971,157.01853],[4.84243,0.43777],[-10.76227,-0.97839]],[[223.54125,156.25033],[10.80315,0.00088],[-2.49997,-0.0002]],[[216.04134,156.25001],[2.49997,0.00003],[-1.29622,-0.00002]],[[212.15716,156.06331],[1.12691,-0.64052],[-1.05865,0.60172]],[[211.71656,161.71281],[0.01408,-0.93163],[1.1597,2.31941]],[[212.71656,167.71281],[-0.59287,-2.27736],[0.57691,2.21605]],[[214.57046,174.31288],[-0.83266,-2.18495],[0.38949,1.02204]],[[215.68455,177.39919],[0.42299,-1.00864],[-0.47482,1.13224]],[[212.5,179.25],[1.2143,-0.18139],[-0.82743,0.1236]],[[210.21281,178.21656],[0.81331,0.19605],[-1.3361,-0.32207]],[[206.21281,177.21656],[1.33956,0.30734],[-2.08692,-0.47881]],[[199,177.25],[2.1477,0.0039],[-2.62263,-0.00477]],[[191.47668,176.42472],[2.6009,0.22216],[-2.03023,-0.17341]],[[185.71656,177.28719],[0.73374,-2.03813],[0.07883,4.0381]],[[187.60286,188.44454],[-0.81119,-3.85846],[0.62306,2.96358]],[[187.75,198],[0,-3.02803],[0,0.3365]],[[187.71656,202.28719],[0.04318,-0.17915],[-0.49551,2.05559]],[[185.71656,208.28719],[0.5154,-2.05227],[-0.38548,1.53496]],[[184.818,212.94927],[0.69286,-1.4229],[-1.7846,3.665]],[[177.68504,222.43779],[2.05208,-3.45993],[-5.95208,6.29876]],[[170.75,247.002],[0.01194,-8.21003],[-0.0033,2.26763]]],&quot;closed&quot;:true}]}" fill="url(#color-1)"/><path d="M334.77977,149.52601c0.17964,0.17387 0.00577,0.35351 0.00577,0.35351l-0.13891,0.14352c-0.34668,0.35813 -0.65897,0.70314 -0.94799,1.10963c-2.05041,2.87868 -4.65843,5.22089 -6.8985,7.92285c-0.5674,0.68439 -1.765,1.85397 -1.90225,2.7647c-0.17105,1.135 1.08891,1.03206 0.88764,2.06564c-0.29159,1.49746 -1.25977,2.75793 -1.88054,4.11745c-1.47461,3.22953 -3.38261,5.90481 -5.66634,8.73269c-2.16195,2.16499 -4.2304,4.10665 -5.75413,6.77318c0,0 -0.12403,0.21706 -0.34109,0.09303c-0.21706,-0.12403 -0.09303,-0.3411 -0.09303,-0.3411c1.54206,-2.69861 3.62602,-4.67215 5.81634,-6.8593c2.24869,-2.79262 4.13028,-5.42366 5.58343,-8.60618c0.26425,-0.57874 2.38191,-3.78189 1.96541,-4.33777c-1.3841,-1.84729 -0.53229,-2.87365 0.99965,-4.72146c2.23233,-2.69261 4.83295,-5.02522 6.87616,-7.8938c0.30405,-0.42617 0.6322,-0.79138 0.99597,-1.16729l0.13891,-0.14352c0,0 0.17386,-0.17964 0.3535,-0.00577z" fill="#000000"/><path d="M370.25374,171.01309c0,0.25 -0.25001,0.25 -0.25001,0.25c-1,-0.00002 -2.29215,-0.00006 -3.29215,-0.00008c-3.42043,-0.00008 -7.17263,0.40148 -10.52881,-0.29548c-3.32297,-0.6912 -5.90685,2.93943 -7.90416,5.34315c-0.89288,1.07456 -0.55097,2.16851 -1.17307,3.12928c-1.24737,1.92646 -3.30671,3.40625 -5.36557,4.4688c-3.0804,1.588 -5.85453,3.85048 -8.73574,5.76647c-2.4991,1.66188 -5.02184,3.28678 -7.54156,4.91719c0,0 -0.20989,0.13582 -0.34571,-0.07408c-0.13581,-0.20989 0.07408,-0.34571 0.07408,-0.34571c2.51797,-1.62928 5.03896,-3.25302 7.53632,-4.91375c2.89772,-1.92696 5.68668,-4.19464 8.7833,-5.79444c2.06981,-1.0682 3.8399,-2.47633 5.18142,-4.30564c0.56349,-0.76837 0.37585,-2.17344 1.20197,-3.16766c2.13711,-2.57197 4.82345,-6.25262 8.39039,-5.51317c3.32047,0.68955 7.04281,0.28496 10.42715,0.28503c1,0.00002 2,0.00005 3,0.00007l0.29215,0.00001c0,0 0.25,0 0.25,0.25z" fill="#000000"/><path d="M294.61776,201.02902c-0.1168,0.22104 -0.33783,0.10425 -0.33783,0.10425l-0.14552,-0.07689c-1.01315,-0.53532 -2.03285,-1.05997 -3.03639,-1.6131c-3.92575,0.12022 -6.01283,2.36348 -9.69906,2.96344c-0.72987,-0.39975 -0.46674,-1.35251 -1.05734,-1.60799c-1.70063,-0.73565 -6.53511,0.70302 -8.06701,1.51651c-2.84889,1.51286 -4.93449,3.87412 -7.57009,5.51995l0.01342,0.01481l-0.15312,0.13883c-0.40666,1.13861 -0.82052,2.27469 -1.23123,3.41183c-1.08916,3.01561 -2.36637,5.17914 -2.36637,8.41332c0,0 0,0.25 -0.25,0.25c-0.25,0 -0.25,-0.25 -0.25,-0.25c0,-3.29792 1.28931,-5.51874 2.3961,-8.58317c0.37125,-1.0279 0.73926,-2.05705 1.11355,-3.08387c-0.02974,-0.04113 -0.04726,-0.09168 -0.04726,-0.14631c0,-0.01855 0.00202,-0.03664 0.00585,-0.05404l0.09695,-0.48525l0.00767,0.00153l-0.00062,-0.02874c0.00606,-0.00753 0.01213,-0.01507 0.01819,-0.0226l-0.00813,-0.00365l0.20256,-0.45091c0.03794,-0.08976 0.1268,-0.15275 0.23038,-0.15275c0.08949,0 0.16799,0.04701 0.21216,0.11769c1.38281,-2.15751 5.50532,-4.07109 7.34549,-5.04828c1.5967,-0.8479 6.75288,-2.391 8.51399,-1.52753c0.7283,0.35709 0.33366,1.29898 0.91819,1.566c3.62306,-0.80038 5.77366,-2.95821 9.74292,-2.95491c1.0572,0.5401 2.10313,1.10248 3.15278,1.65709l0.14552,0.07689c0,0 0.22105,0.11679 0.10425,0.33783z" fill="#000000"/></g></g></svg>