<svg version="1.1" xmlns="http://www.w3.org/2000/svg" xmlns:xlink="http://www.w3.org/1999/xlink" width="808" height="588.5" viewBox="0,0,808,588.5"><g transform="translate(84,51.5)"><g data-paper-data="{&quot;isPaintingLayer&quot;:true}" fill-rule="nonzero" stroke-linejoin="miter" stroke-miterlimit="10" stroke-dasharray="" stroke-dashoffset="0" style="mix-blend-mode: normal"><path d="M-84,411.5v-463h808v463z" fill="#000000" stroke="none" stroke-width="0" stroke-linecap="butt"/><path d="M186.48868,270.47262l8.17639,-98.66178l44.84626,3.71654l-8.17639,98.66178z" fill="none" stroke="#ffffff" stroke-width="2" stroke-linecap="butt"/><path d="M346.66507,272.18916l-8.17639,-98.66178l44.84626,-3.71654l8.17639,98.66178z" data-paper-data="{&quot;index&quot;:null}" fill="none" stroke="#ffffff" stroke-width="2" stroke-linecap="butt"/><path d="M189.5,220.5l43,3" fill="none" stroke="#ffffff" stroke-width="2" stroke-linecap="round"/><path d="M341.5,222.5l47,-9" fill="none" stroke="#ffffff" stroke-width="2" stroke-linecap="round"/><path d="M241.5,171v-82h90v82z" fill="none" stroke="#ffffff" stroke-width="2" stroke-linecap="butt"/><path d="M244.5,131v-45h89v45z" fill="none" stroke="#ffffff" stroke-width="2" stroke-linecap="butt"/><path d="M188.5,116v-17h55v17z" fill="none" stroke="#ffffff" stroke-width="2" stroke-linecap="butt"/><path d="M260.58333,151.66667c0,0 -0.39701,5.43603 0.50188,6.56689c0.81513,1.02549 4.66478,-0.06689 4.66478,-0.06689" fill="none" stroke="#ffffff" stroke-width="2" stroke-linecap="round"/><path d="M310.58333,157c0,0 6.05203,0.45729 7.09546,-0.75089c1.06716,-1.23565 -0.76213,-6.58245 -0.76213,-6.58245" fill="none" stroke="#ffffff" stroke-width="2" stroke-linecap="round"/><path d="M275.08333,142.66667l-0.33333,7.16667" fill="none" stroke="#ffffff" stroke-width="2" stroke-linecap="round"/><path d="M300.08333,142.16667v8.83334" fill="none" stroke="#ffffff" stroke-width="2" stroke-linecap="round"/><path d="M298.41667,159.16667l-23.83333,0.66667l-2.33333,4.83333l30.66667,-0.33333l-5,-4.16667" fill="none" stroke="#ffffff" stroke-width="2" stroke-linecap="round"/><path d="M261.08333,140c0,0 5.56713,0.71658 8.17799,0.22705c2.71816,-0.50966 7.82201,-3.22705 7.82201,-3.22705" fill="none" stroke="#ffffff" stroke-width="2" stroke-linecap="round"/><path d="M297.25,136.83334c0,0 5.88728,3.80539 8.32839,4.0495c2.55381,0.25538 6.67161,-2.5495 6.67161,-2.5495" fill="none" stroke="#ffffff" stroke-width="2" stroke-linecap="round"/><path d="M243.5,287v-106h88v106z" fill="none" stroke="#ffffff" stroke-width="2" stroke-linecap="butt"/><path d="M275.625,179.70552v-8.75h16.25v8.75z" fill="none" stroke="#ffffff" stroke-width="2" stroke-linecap="butt"/><path d="M-53.5,413v-191c0,0 9.03739,30.15776 32.031,24.82325c13.34332,-3.09564 35.36592,-45.33653 52.68402,-41.52755c24.93904,5.48514 49.68315,52.41825 79.28283,51.62404c37.82068,-1.01479 73.01482,-45.9576 110.29282,-43.68264c28.02918,1.71053 55.35663,38.7629 77.70934,38.7629c21.4176,0 62.74359,-28.90209 89.97846,-30.39342c24.11756,-1.32063 76.17986,28.86299 101.00355,28.40909c15.14601,-0.27695 50.67996,-46.0197 64.47875,-47.09321c29.45388,-2.29144 81.05578,25.27246 99.33608,28.30303c34.67549,5.74861 22.20317,-9.22549 22.20317,-9.22549v191z" fill="#ffffff" stroke="#ffffff" stroke-width="2" stroke-linecap="butt"/><path d="M-58.5,481v-191c0,0 9.03739,30.15776 32.031,24.82326c13.34331,-3.09564 35.36592,-45.33654 52.68402,-41.52756c24.93904,5.48514 49.68315,52.41825 79.28283,51.62404c37.82068,-1.01479 73.01482,-45.9576 110.29282,-43.68264c28.02918,1.71053 55.35663,38.7629 77.70934,38.7629c21.4176,0 62.74359,-28.90209 89.97846,-30.39342c24.11756,-1.32063 76.17986,28.86299 101.00355,28.40909c15.14601,-0.27695 50.67996,-46.0197 64.47875,-47.09321c29.45389,-2.29144 81.05578,25.27245 99.33609,28.30302c34.67549,5.74862 22.20317,-9.22548 22.20317,-9.22548v191z" fill="#e0e0e0" stroke="#ffffff" stroke-width="2" stroke-linecap="butt"/><path d="M-62.5,537v-191c0,0 9.03739,30.15776 32.031,24.82326c13.34332,-3.09564 35.36592,-45.33654 52.68402,-41.52756c24.93904,5.48514 49.68315,52.41825 79.28283,51.62404c37.82068,-1.01479 73.01482,-45.9576 110.29282,-43.68264c28.02918,1.71053 55.35663,38.7629 77.70934,38.7629c21.4176,0 62.74359,-28.90209 89.97846,-30.39342c24.11756,-1.32063 76.17986,28.863 101.00355,28.40909c15.14601,-0.27695 50.67996,-46.0197 64.47875,-47.09321c29.45389,-2.29144 81.05578,25.27245 99.33609,28.30302c34.67549,5.74861 22.20317,-9.22548 22.20317,-9.22548v191z" fill="#b9b9b9" stroke="none" stroke-width="0" stroke-linecap="butt"/><text transform="translate(0.5,92.88893) scale(2.60586,2.60586)" font-size="40" xml:space="preserve" fill="#ffffff" fill-rule="nonzero" stroke="none" stroke-width="1" stroke-linecap="butt" stroke-linejoin="miter" stroke-miterlimit="10" stroke-dasharray="" stroke-dashoffset="0" font-family="Sans Serif" font-weight="normal" text-anchor="start" style="mix-blend-mode: normal"><tspan x="0" dy="0">STAY</tspan></text></g></g></svg>