<svg version="1.1" xmlns="http://www.w3.org/2000/svg" xmlns:xlink="http://www.w3.org/1999/xlink" width="776" height="474.03352" viewBox="0,0,776,474.03352"><g transform="translate(68,51.5)"><g data-paper-data="{&quot;isPaintingLayer&quot;:true}" fill-rule="nonzero" stroke-linecap="butt" stroke-linejoin="miter" stroke-miterlimit="10" stroke-dasharray="" stroke-dashoffset="0" style="mix-blend-mode: normal"><path d="M-67,410.5v-461h774v461z" fill="#ffffff" stroke="#000000" stroke-width="2"/><path d="M-35.5,396v-350h686v350z" fill="#ffffff" stroke="#000000" stroke-width="0.5"/><text transform="translate(191.5,26) scale(0.5,0.5)" font-size="40" xml:space="preserve" fill="#000000" fill-rule="nonzero" stroke="none" stroke-width="1" stroke-linecap="butt" stroke-linejoin="miter" stroke-miterlimit="10" stroke-dasharray="" stroke-dashoffset="0" font-family="Sans Serif" font-weight="normal" text-anchor="start" style="mix-blend-mode: normal"><tspan x="0" dy="0">rlg if it was peak</tspan></text><path d="M140.84164,213.32918c0.67082,1.34164 -0.67082,2.01246 -0.67082,2.01246l-2,1c-1.19469,0.57398 -2.03278,1.70808 -3.12651,2.45674c-0.35462,0.24274 -0.7254,0.48312 -1.10859,0.71995c3.22111,0.2393 6.55971,-0.01834 9.56428,-0.01834c2.29943,0 9.68999,-0.021 3.78859,4.77597c-0.98167,0.79796 -2.52421,0.1823 -3.78859,0.22403c-3.1684,0.10456 -7.58905,-0.83295 -10.65537,-0.04012c-5.89415,1.52399 -11.56014,5.33496 -16.48054,8.76623c-1.89463,1.32124 -4.69348,2.70396 -5.41447,5.15937c-0.05456,0.18581 -0.08765,0.37471 -0.10605,0.56579c2.06265,0.66735 4.13041,1.26368 6.20064,1.73679c9.59996,2.19386 19.78695,1.80853 29.55225,1.81441c5.39873,0.0039 10.5718,0.99753 15.90353,0.99753c1.40579,0 2.9002,0.73096 4.21141,0.22403c0.39784,-0.15382 0.27125,-0.80976 0.37426,-1.22368c0.63462,-2.55003 1.06458,-5.06641 1.32475,-7.67938c0.88728,-8.91117 0.58958,-17.86856 0.58958,-26.82097c0,-1.27831 -0.00708,-2.55895 -0.01909,-3.84144c-7.23279,2.94686 -16.07679,4.16656 -23.36536,4.33904c-1.37185,0.00156 -2.7437,0.0024 -4.11554,0.0024h-1c0,0 -1.5,0 -1.5,-1.5c0,-0.4161 0.11542,-0.71678 0.28224,-0.93404c-2.17125,-0.7306 -4.32615,-1.72962 -6.52907,-2.79555c-0.49552,-0.23977 -0.98685,-0.46559 -1.46686,-0.70156c-2.39134,1.53689 -5.11877,3.85495 -7.73699,4.87415c-0.70927,0.27609 -1.46502,0.50237 -2.25042,0.69303c0.67061,3.09591 1.34927,6.64613 4.07815,8.64711c1.11623,0.81849 2.33576,1.408 3.62197,1.82974c2.67783,-1.57967 5.03001,-3.5121 7.83015,-4.95452l2,-1c0,0 1.34164,-0.67082 2.01246,0.67082zM126.78837,223.0309c-6.15353,3.04849 -12.58183,2.4691 -19.28836,2.4691c-6.59907,0 -13.57827,0.6448 -20.07856,-0.53687c-1.68695,-0.30667 -3.19924,-0.50544 -4.63015,-0.77595c-0.97809,0.64073 -1.95485,1.23926 -2.8988,1.78163c-0.9857,0.56635 -1.96677,1.21076 -3.06986,1.48562c-0.79851,0.19896 -1.79125,-0.57649 -2.46649,-0.10611c-0.59343,0.4134 -0.28875,1.41735 -0.43312,2.12602c0,0 -0.11024,0.33071 -0.38386,0.62014c2.97017,4.32888 6.97692,7.79631 11.13267,11.07066c0.04922,0.03878 4.25187,3.36644 4.47283,3.48045c6.77789,3.49731 16.1183,1.4288 23.29468,2.29375c0.16185,0.01951 -0.20634,-0.2537 -0.32516,-0.36531c-0.54842,-0.51515 -1.14279,-0.98131 -1.67484,-1.51336c-0.80241,-0.80241 -1.55011,-1.65776 -2.32516,-2.48664c-0.00758,-0.17087 -0.03842,-0.72218 -0.06886,-1.40088c-4.8965,-1.6797 -9.75818,-3.65849 -14.55501,-5.26086l-1.46557,-0.48957c0,0 -1.42272,-0.47526 -0.94746,-1.89798c0.47526,-1.42272 1.89798,-0.94746 1.89798,-0.94746l1.46557,0.48957c4.46859,1.49272 8.99727,3.32301 13.55713,4.92253c0.01157,-0.16919 0.0286,-0.29877 0.05242,-0.37485c1.03829,-3.31653 3.94513,-4.99624 6.58553,-6.84063c4.67719,-3.26715 10.08914,-6.91706 15.69451,-8.71734c-0.27978,-0.05392 -0.55784,-0.11297 -0.83391,-0.17762c-0.92068,0.42521 -1.83622,0.8133 -2.70815,1.15197zM75.6,221.2c0,0 -1.2,-0.9 -0.3,-2.1c0.9,-1.2 2.1,-0.3 2.1,-0.3c1.70831,1.30007 3.30542,1.91446 4.98645,2.29622c2.05609,-1.52493 3.97859,-3.249 5.35054,-4.60265c2.87335,-2.83502 4.35793,-5.95227 5.3996,-9.53253c-1.69795,-1.34187 -3.38514,-3.06068 -4.78012,-4.17244c-0.77763,-0.61975 -1.53225,-1.26601 -2.26566,-1.93613c-0.04639,0.19904 -0.09797,0.39328 -0.15517,0.58221c-1.07233,3.54169 -5.4042,8.15196 -9.07359,9.02097c-1.67983,0.39783 -3.472,-0.22575 -5.17878,0.03311c-4.39997,0.66734 -8.69806,1.16961 -13.0147,1.50532c-0.44177,0.50592 -1.16857,0.50592 -1.16857,0.50592l-0.62667,-0.376c-2.0944,0.14023 -4.19706,0.24134 -6.32167,0.30316c-0.49703,1.08096 -1.52367,1.70633 -3.62569,0.95866c-0.42259,-0.15031 -0.68349,-0.47625 -0.86857,-0.88669c-0.18556,0.00058 -0.37136,0.00087 -0.5574,0.00087c-1.7816,0 -3.63287,0.45379 -5.34463,-0.04012c-1.22378,-0.3531 -2.60069,-1.05923 -3.93541,-1.97518c0.2812,4.74257 0.80185,9.46903 1.73844,14.17186c1.04664,5.25538 2.49618,11.02509 6.21191,15.04593c2.61671,2.8701 5.11017,5.68981 8.55074,7.62693c7.81827,4.40187 17.50103,4.21013 26.26743,4.17431c0.27612,-2.91031 0.61234,-5.81601 1.02661,-8.71586c0,0 0.05479,-0.38347 0.30354,-0.73283c-4.86095,-3.95351 -8.93012,-8.99908 -11.46951,-14.0123c-0.47969,-0.97247 -0.95937,-1.94494 -1.43905,-2.91741l-0.39786,-2.93448c0,0 -0.19084,-1.48781 1.29697,-1.67865c1.48781,-0.19084 1.67865,1.29697 1.67865,1.29697l0.29162,2.44056c0.41678,0.81537 0.83355,1.63074 1.25032,2.44611c0.01274,0.02548 0.02552,0.05092 0.03833,0.07634c0.18461,-0.70912 0.42524,-1.37618 0.97316,-1.81259c0.92548,-0.73712 2.38384,-0.09929 3.52589,-0.40845c0.9793,-0.26511 2.03803,-0.74123 3.11811,-1.34906c-1.17525,-0.45861 -2.35025,-1.08732 -3.58522,-2.00207zM87.95985,222.01184c6.30914,1.15512 13.13291,0.48816 19.54015,0.48816c6.18443,0 12.25062,0.65573 17.9115,-2.13106c-0.61798,-0.33323 -1.21549,-0.715 -1.78856,-1.15207c-2.84092,-2.16674 -4.72183,-6.48188 -5.58281,-9.87224c-0.04921,-0.19375 -0.09875,-0.38743 -0.14843,-0.58106c-2.20465,0.31415 -4.4526,0.51802 -6.43437,0.8728c-4.20534,0.73029 -8.12038,-0.00136 -12.33315,-0.55682c-1.11593,-0.14713 -2.30577,-0.03397 -3.34636,-0.45967c-1.18436,3.73238 -2.93829,7.05367 -5.93379,10.00921c-1.07297,1.05865 -2.29851,2.10545 -3.59341,3.10347c0.54944,0.0815 1.11762,0.17097 1.70922,0.27929zM94.22403,199.21141c2.22037,-3.09975 9.06153,-1.71141 12.27598,-1.71141c3.13257,0 7.05953,-0.6491 9.80093,1.29188c0.66772,0.47277 0.6504,1.54808 1.23355,2.12192c0.61536,0.60554 1.77189,0.57318 2.2415,1.29762c0.44438,0.68553 -0.02641,1.65454 0.1839,2.44396c0.06218,0.23342 0.1701,0.44965 0.29373,0.65994c0.77353,-0.18115 1.51564,-0.39867 2.20745,-0.66797c2.08442,-0.81141 4.1874,-2.27792 6.21402,-3.73979c-0.25231,-0.22536 -0.4951,-0.47229 -0.72671,-0.74643c-2.40494,-2.84658 -3.88433,-7.67894 -5.55657,-11.02343c-1.77097,-3.54193 -6.68377,-9.96631 -5.43277,-14.26641c-0.55674,0.15431 -1.1141,0.30226 -1.67212,0.44292c-6.7562,1.70303 -13.93414,2.41987 -20.80182,3.61042c-3.65636,0.63385 -7.23887,1.30318 -10.84034,1.80057c0.20094,0.31548 0.39222,0.62529 0.57322,0.92722c0.5836,0.9735 1.41621,1.84419 1.72307,2.93695c0.30686,1.09276 0.03848,2.26974 0.05772,3.4046c0.00159,2.56448 0.46509,5.96486 0.45694,9.0548c1.19415,1.20343 2.44782,2.3396 3.77053,3.39377c1.06745,0.85073 2.35173,2.16363 3.66696,3.31375c0.09534,-1.23833 0.20987,-4.376 0.33084,-4.54487zM114.56066,249.06066c-0.48321,0.58143 -5.49111,0.43934 -6.06066,0.43934c-3.95356,0 -8.26292,0.47138 -12.18327,-0.01124c-4.65585,-0.57316 -9.26948,-2.6128 -13.43978,-5.50776c-0.32498,2.35403 -0.59916,4.71197 -0.83226,7.07314c0.00817,-0.00111 0.01635,-0.00223 0.02452,-0.00334c0.49066,-0.39291 0.98019,-0.79452 1.47052,-1.20314c0,0 1.15233,-0.96027 2.11261,0.19206c0.17918,0.21501 0.2848,0.42334 0.33808,0.61998c4.471,-0.30028 8.95336,-0.15971 13.50959,-0.15971c2.11455,0 4.22912,0 6.34367,0c5.20345,-0.23644 10.46994,0 15.65633,0c3.66666,0 7.33334,0 11,0c4.33334,0 8.66666,0 13,0c0.17936,0 1.59852,-0.0254 3,0c1.33334,0 2.66666,0 4,0c0,0 0.55913,0 0.99465,0.34137c0.50818,-0.42762 1.21748,-0.3263 1.21748,-0.3263c5.9457,0.84939 11.7269,0.96215 17.72994,0.97724c2.78708,0.007 6.64033,-0.60003 9.33641,0.04677c1.99192,0.47787 7.6359,3.87616 8.17138,6.07633c0.1744,0.71654 -1.63261,5.47908 -1.89891,6.46706c-0.97353,3.61178 -1.34443,7.35879 -1.80674,11.05724c-1.45548,11.61458 -0.9023,23.21588 -1.24486,34.87113c-0.25533,8.68737 -0.99936,17.2882 -0.99936,25.98915c0,7.33333 0,14.66667 0,22c0,3.46468 -0.5252,7.39448 -0.01124,10.81673c1.28789,8.57553 5.92547,16.29998 8.39264,24.54672c0.12876,0.43093 0.25743,0.86187 0.38599,1.29285c0.1921,-0.09618 0.43229,-0.1563 0.73261,-0.1563c1.5,0 1.5,1.5 1.5,1.5v5c0,0.82842 -0.67157,1.5 -1.5,1.5c-0.5988,0 -1.11566,-0.35088 -1.35618,-0.85825l-0.98547,-1.97093l0.03993,-0.01997l-0.09294,-0.09866c-0.5349,-1.776 -1.06738,-3.55273 -1.59838,-5.3299c-2.5129,-8.4216 -7.21121,-16.26778 -8.49573,-25.03902c-0.52124,-3.55926 -0.01124,-7.58513 -0.01124,-11.18327c0,-7.33333 0,-14.66667 0,-22c0,-8.73057 0.74446,-17.36067 1.00065,-26.07729c0.34538,-11.75155 -0.19363,-23.44396 1.26672,-35.1551c0.47972,-3.83774 0.87683,-7.71837 1.88695,-11.46589c0.26786,-0.99375 0.60371,-1.9697 0.97396,-2.93001c0.26268,-0.68129 1.06705,-1.27152 0.92185,-1.98712c-0.12333,-0.60784 -1.04144,-0.67564 -1.53762,-1.04777c-1.24921,-0.93687 -2.77347,-2.50912 -4.41443,-2.87591c-2.52107,-0.56351 -6.07186,0.0379 -8.66357,0.03139c-6.14166,-0.01543 -12.06236,-0.13819 -18.14666,-1.00737c0,0 -0.41812,-0.05973 -0.77892,-0.33767c-0.22785,0.18372 -0.49204,0.27175 -0.69292,0.31393c0.42211,2.42225 -0.85939,5.13079 -1.25466,7.46643c-1.83549,10.84581 -1.99573,21.6773 -2.4265,32.66242c-0.82239,20.92136 -0.13466,42.00031 -0.13482,62.93893c-0.0001,13.03894 0.27498,26.07175 -0.62408,39.08199c-0.20066,2.90385 -0.34524,5.72865 -0.88959,8.59483c-0.2279,1.19997 0.0377,2.65528 -0.75328,3.58598c-4.23466,4.9826 -5.87105,-1.71354 -7.25803,-4.4875l-0.31672,-0.63344c0,0 -0.67082,-1.34164 0.67082,-2.01246c1.34164,-0.67082 2.01246,0.67082 2.01246,0.67082l0.31672,0.63344c0.73714,1.47429 0.98146,3.17407 1.7951,4.60756c0.103,0.18147 0.29957,-0.32062 0.34064,-0.5252c0.15381,-0.76605 0.12691,-1.55831 0.23311,-2.33239c0.13265,-0.96691 0.36477,-1.91902 0.48306,-2.88779c0.45961,-3.76385 0.52448,-7.62318 0.78648,-11.40639c0.75406,-10.8884 0.20322,-21.97416 0.20331,-32.88947c0.00016,-20.97838 -0.68291,-42.09516 0.13712,-63.05645c0.3936,-10.0372 0.28259,-20.18045 1.96447,-30.0892c0.01914,-0.11274 1.0095,-5.95304 1.02246,-6.00657c0.13979,-0.57752 1.30789,-2.75942 0.7138,-3.87671c-0.44597,0 -0.89194,0 -1.33791,0c-0.99765,0.06851 -2,0 -3,0c-4.33334,0 -8.66666,0 -13,0c-3.66666,0 -7.33334,0 -11,0c-5.23927,0 -10.47852,0 -15.71779,0c-1.37223,0.06733 -2.73932,0.17005 -4.09822,0.32212c-6.39034,0.71004 -12.77553,0.71929 -19.1864,0.69346c-0.27078,0.20462 -0.54249,0.4064 -0.81536,0.60511c-1.08754,13.59317 -1.00255,27.2793 -1.59583,40.92465c-0.8837,20.24212 -0.0864,40.69131 -0.0864,60.95466c0,3.72267 0.10495,7.39694 0.30895,11.04846c0.2142,-0.29701 0.57689,-0.54846 1.19105,-0.54846c1.5,0 1.5,1.5 1.5,1.5v2c0,6.2047 0.99765,13.56398 -0.1607,19.92326c0.04666,0.28863 0.09384,0.57747 0.14156,0.8665l-0.25204,0.12048l0.25753,-0.00168l0.0006,0.09144h0.01304v2v0c0,0.82842 -0.67158,1.5 -1.5,1.5c-0.82557,0 -1.49537,-0.66696 -1.49998,-1.49144l-0.01301,-1.99074c-1.97144,-11.71936 -2.98701,-23.13819 -2.98701,-35.01782c0,-20.30797 -0.78931,-40.79791 0.08924,-61.08497c0.56069,-12.89571 0.5247,-25.82462 1.42847,-38.6798c-2.8242,1.707 -5.85004,3.03094 -9.30584,3.75757c-2.77079,0.5826 -5.40528,0.20284 -8.13275,1.15268c-0.36935,0.12862 -4.88484,2.24417 -5.26648,2.32159c-1.27981,0.25963 -3.10392,-0.55446 -4.25198,0.5936c-1.69313,1.69313 -0.10778,4.84277 0.15124,6.63326c0.01508,0.10429 0.27553,5.99912 0.28344,6.17646c0.01664,20.27271 1.26349,41.00501 -0.99155,61.15817c-0.00055,5.97213 -0.00374,11.94427 -0.00377,17.9164c-0.00001,2.18414 -0.48339,5.56066 -0.04014,7.71041c0.15051,0.73 0.82646,1.27513 1,2c0.5887,2.45899 0.01455,4.0861 0.87736,6.62329l1.01076,2.06339c0,0 0.65794,1.348 -0.69006,2.00594c-1.348,0.65794 -2.00594,-0.69006 -2.00594,-0.69006l-1.09187,-2.24451c-0.85573,-2.60902 -0.3864,-4.65594 -1.02,-7.0688c-0.1893,-0.72091 -0.85762,-1.26837 -1,-2c-0.47125,-2.42149 -0.04013,-5.91635 -0.04012,-8.39969c0.00003,-6.02787 -0.0012,-12.05572 0.00844,-18.08358c2.21697,-20.08686 0.99936,-40.71923 0.98766,-60.92287c-0.08689,-1.93707 0.02941,-3.89319 -0.25279,-5.81155c-0.45114,-3.06677 -1.98643,-6.50513 0.69602,-9.18759c2.3918,-2.3918 2.91098,-0.8711 5.74802,-1.4064c1.76627,-0.33326 3.21228,-1.64058 4.91266,-2.2232c2.89066,-0.99046 5.58801,-0.64267 8.49503,-1.25285c3.24394,-0.6809 6.04909,-1.93905 8.66646,-3.55694c-8.66171,-0.00349 -18.24735,-0.18453 -26.01229,-4.55639c-3.72449,-2.09697 -6.46182,-5.11141 -9.29584,-8.21986c-4.07142,-4.51653 -5.76668,-10.62201 -6.93703,-16.48028c-1.15277,-5.77029 -1.6906,-11.57358 -1.92768,-17.39809c-1.1874,-1.22593 -2.14851,-2.55212 -2.65626,-3.81211c-0.90848,-2.2544 -0.39516,-5.49693 -0.20839,-7.82181l2.60516,-1.55305c0,0 0.03696,-0.01848 0.10168,-0.04317c0.02298,-3.53476 0.06914,-7.07403 0.06914,-10.61518c0,-7.12614 -0.4185,-14.43394 -0.3533,-21.6473c-1.27225,3.06868 -2.67949,6.07762 -3.84347,8.95422c-0.97609,2.41225 -1.85898,4.86477 -2.87009,7.25272c0.05819,0.20911 0.31033,1.32782 -0.79744,1.80225c-0.69087,1.48804 -1.45575,2.9395 -2.35097,4.32772l-1.61822,2.497c-0.26517,0.4233 -0.73576,0.70479 -1.2721,0.70479c-0.70979,0 -1.30444,-0.493 -1.4602,-1.15526l-0.74321,-2.87358l0.3641,-0.09417c-0.60392,-2.06196 -0.91437,-4.10367 -1.04143,-6.19092c-0.18461,0.20327 -0.37584,0.40478 -0.57433,0.60451c-0.84337,0.84862 -4.68947,4.9375 -5.74101,4.61669c-1.04673,-0.31934 -1.96346,-5.86129 -2.1862,-7.03517c-1.43834,-7.58023 2.91558,-16.4626 5.86046,-23.3175c2.32233,-5.40577 4.16946,-11.68247 7.1976,-16.71923c0.01488,-0.02476 0.02982,-0.04951 0.0448,-0.07424c-0.16087,-0.50218 -0.325,-0.99762 -0.49498,-1.48331c-0.94687,-2.70534 -2.6361,-5.94856 -3.04214,-8.77711c-0.02706,-0.18849 0.27746,-5.92787 0.29574,-6.28243c0.2131,-4.13295 0.41382,-8.26481 0.69712,-12.39362c2.86927,-4.26221 5.83447,-8.45817 8.77571,-12.67096c0.23138,-0.33141 3.48466,-5.0121 3.6529,-5.16255c2.07859,-1.85883 5.72428,-3.16772 8.18345,-4.50908c4.30651,-2.34901 8.77265,-5.54216 13.35788,-7.26962c5.49226,-2.06919 12.02815,-2.72042 17.76086,-4.00992c0.38536,-0.08668 0.77287,-0.17861 1.16217,-0.27421c1.91173,-2.74824 4.1121,-6.23965 6.45269,-7.74179c0.19553,-0.12549 5.78251,-1.56289 6.26072,-1.6602c1.2876,-0.26201 2.68867,-1.18542 3.88819,-0.64901c2.20382,0.98553 3.06345,4.82521 3.33234,7.51686c2.8952,0.07815 5.78982,0.2144 8.60236,0.2144c3.91514,0 8.35922,-0.5691 12.22484,0.01695c6.72794,1.01999 13.76812,4.25512 20.27611,6.27484c2.77561,0.8614 6.24439,1.44995 8.83004,2.7627c3.27391,1.66219 6.39726,4.36382 9.41368,6.83268c2.82339,-1.30006 5.98808,-2.27059 8.73288,-3.4263c4.87614,-2.05311 8.97248,-3.77584 14.32011,-4.11428c1.31463,-0.0832 2.83772,-0.81261 3.95032,-0.10742c1.1126,0.7052 1.10692,2.39236 1.58887,3.6183c1.21785,3.0978 1.22473,5.94145 1.43445,9.21619c0.70362,10.98668 -0.04248,21.50933 -0.88635,32.47953c-0.22358,2.90648 -0.73994,5.72111 -1.40429,8.50228c-0.00823,0.46924 -0.01956,0.78884 -0.03509,0.84493c-0.14356,0.5183 -0.34148,1.04722 -0.58064,1.58243c-0.78621,2.94583 -1.6923,5.87304 -2.54346,8.85211c-0.33979,1.18926 -0.68405,2.37675 -1.03297,3.56247c2.80089,-4.36827 5.61661,-8.72696 8.43266,-13.08615c2.26603,-3.48968 5.19942,-6.22517 8.09713,-9.19687l2.09328,-2.14673c0.2725,-0.28002 0.65347,-0.45395 1.07507,-0.45395c0.82726,0 1.49811,0.66968 1.5,1.49649l0.00804,2.99948l-0.03041,0.00008c-0.00223,0.13589 -0.01032,0.272 -0.02514,0.40837c-0.12275,1.1296 -1.14526,1.96289 -1.72929,2.93756c-1.54171,2.57292 -3.1296,5.11975 -4.694,7.67896c-5.07766,8.3066 -10.54193,16.88733 -16.59417,24.84303c-0.21524,1.62986 -0.46768,3.12342 -0.59345,4.25128c-0.13916,1.2481 -0.25518,2.50258 -0.35116,3.76233c0.69083,0.20574 1.37037,0.43783 2.03656,0.69941c0.18136,0.07121 5.14467,2.91501 5.44002,3.08379c3.00559,1.79799 6.52336,6.53745 6.26926,10.35433c-0.07702,1.1569 -0.85015,2.15757 -1.29197,3.22956c-1.03348,2.50753 -2.06974,6.48914 -3.72652,8.61333c-1.47612,1.89257 -4.97238,3.74142 -7.00518,4.95803c-0.56487,0.33807 -1.14846,0.66108 -1.74853,0.96952c0.03016,1.74227 0.04926,3.47682 0.04926,5.20076c0,9.05188 0.30032,18.10924 -0.60447,27.11948c-0.2471,2.46073 -0.4493,9.68376 -3.10694,11.15649c-0.47528,0.26337 -4.62028,0.22403 -5.78859,0.22403c-5.3439,0 -10.50255,-0.99495 -15.90534,-0.99753c-9.99335,-0.00602 -20.39556,0.35509 -30.2188,-1.8898c-1.40479,-0.32103 -2.80813,-0.69744 -4.20932,-1.11355c2.01278,1.66451 4.53889,3.98082 2.39411,6.56155zM117.04013,205.34463c-0.11683,-0.50905 0.48261,-1.1276 0.1839,-1.55604c-0.361,-0.51778 -1.30024,-0.26834 -1.7585,-0.70238c-0.54533,-0.5165 -0.49148,-1.50698 -1.07435,-1.98072c-1.69249,-1.37562 -5.89311,-0.60549 -7.89117,-0.60549c-2,0 -4.00005,0.01419 -6,0c-1.24503,-0.00884 -3.14119,-0.81163 -3.72402,0.28859c-0.63238,1.19376 0.29225,2.73363 0.00087,4.05275c-0.06303,0.28534 -0.12784,0.56851 -0.19468,0.84954c0.11016,0.0549 0.21958,0.10535 0.32816,0.15095c1.71877,0.72179 3.70711,0.39865 5.55737,0.62604c3.07264,0.3776 5.40603,0.78143 8.46096,0.21544c1.90587,-0.34119 4.09404,-0.52356 6.23334,-0.8179c-0.04132,-0.17343 -0.08199,-0.34701 -0.12187,-0.52079zM155.50623,198.29033l-2.34787,1.38049c-1.89373,-3.93942 -1.13648,-8.33702 -1.41595,-12.5367c-2.40703,2.585 -4.88948,5.05368 -7.51868,7.21396c-2.93772,2.41377 -6.49083,4.37689 -9.87398,6.36137c5.10845,2.45779 10.06945,4.77568 15.67591,2.86753c0,0 1.42302,-0.47434 1.89737,0.94868c0.06834,0.20503 0.0973,0.39035 0.0968,0.55741c5.73872,-0.60377 11.8524,-1.8862 16.9217,-4.15815c-0.13247,-9.07578 -0.42029,-18.22275 -0.10385,-27.26687c-0.23566,-0.03131 -0.47019,-0.06664 -0.70278,-0.10893c-0.62257,-0.11319 -1.24358,-0.21436 -1.8634,-0.30475c-1.12199,3.04551 -2.28522,6.07828 -3.49295,9.09815c-0.37139,0.92847 -0.74279,1.85696 -1.11418,2.78543l-1.10119,2.75299c-0.21272,0.56968 -0.76182,0.97536 -1.40569,0.97536c-0.73925,0 -1.35359,-0.53477 -1.47729,-1.23856l-0.57146,-2.91712l0.03429,-0.00672c-0.02452,-0.11712 -0.04485,-0.23539 -0.06047,-0.35494c-0.1452,-1.11062 0.60851,-2.15596 0.9227,-3.23107c0.14291,-0.48902 0.28696,-0.97772 0.43188,-1.4662c-1.29403,1.46355 -2.59051,2.94735 -3.90167,4.4184c0.20784,0.86905 0.35562,1.78715 0.45619,2.78188c0.32207,3.18545 -0.57517,6.71633 0.20884,9.79881c0.79951,0.37314 0.79951,1.35922 0.79951,1.35922l-0.25079,0.14746c0.02985,0.06083 0.06065,0.12141 0.09243,0.18172zM149.3,179.9c0,0 -0.9,-1.2 0.3,-2.1c1.2,-0.9 2.1,0.3 2.1,0.3c0.68096,0.92811 1.2367,1.83017 1.68771,2.75007c2.36739,-2.68239 4.6954,-5.38072 7.05894,-7.88815c0.02857,-0.0951 0.05713,-0.1902 0.08567,-0.28531c-3.97752,-0.2311 -7.95439,-0.17661 -12.03232,-0.17661c-2.4675,0 -4.90021,-0.01904 -7.31284,-0.00848c-0.63212,0.14778 -1.23887,0.29774 -1.79846,0.46011c-4.80194,1.39332 -9.60388,2.78664 -14.40582,4.17996l-1.06488,0.30899c0,0 -1.44058,0.41799 -1.85858,-1.02259c-0.418,-1.44058 1.02259,-1.85858 1.02259,-1.85858c1.51853,-0.44062 3.14356,-0.91213 4.80772,-1.39499c-2.20686,0.26533 -4.41988,0.63284 -6.65067,1.14088c-3.46578,3.24936 2.0965,10.01171 3.83603,13.49076c1.58084,3.16168 2.94499,7.72491 5.17655,10.44282c0.25944,0.31599 0.59278,0.59803 0.96497,0.85366c0.37738,-0.25972 0.75035,-0.50868 1.11823,-0.74204c3.23352,-2.05121 7.02926,-3.89229 9.98438,-6.32035c3.09475,-2.54279 5.98386,-5.5268 8.78665,-8.62263c-0.37344,-1.21105 -0.9418,-2.3862 -1.80586,-3.50752zM172.15578,199.25725c1.66495,-1.0017 4.94736,-2.6462 6.18311,-4.23058c1.15118,-1.47597 1.42185,-3.46323 2.1559,-5.18511c0.72197,-1.69354 2.05748,-3.21732 2.23749,-5.04951c0.24596,-2.50337 -2.79156,-6.45866 -4.76703,-7.51285c-1.66321,-0.9504 -3.19965,-2.1601 -4.97889,-2.86989c-0.39247,-0.15657 -0.79717,-0.27006 -1.20933,-0.35728c-0.42765,8.37539 -0.09395,16.93953 0.10375,25.3684c0.09221,-0.05397 0.18388,-0.10836 0.275,-0.16318zM169.00843,169.86174c0.04217,-0.75892 0.10906,-1.514 0.18849,-2.26695c-0.51312,0.62484 -1.0304,1.24433 -1.55198,1.85798c-0.05462,0.15336 -0.10933,0.30669 -0.16415,0.45998c0.50723,0.07555 1.01107,0.16064 1.51084,0.25635c0.00551,-0.10247 0.01111,-0.20492 0.0168,-0.30736zM52.00378,191.10634c-0.2364,-3.32638 0.99084,-4.73676 -1.56443,-7.04567c0,0 -1.06066,-1.06066 0,-2.12132c1.06066,-1.06066 2.12132,0 2.12132,0c0.77506,0.82888 1.90146,1.43392 2.32516,2.48664c0.22814,0.56683 0.04843,5.59572 0.11041,6.46769c0.44765,6.29899 2.63823,12.3641 2.96345,18.64317c0.13101,-0.00921 0.26185,-0.01905 0.39252,-0.02954c4.29498,-0.34485 8.71274,-1.37961 12.96453,-1.99606c1.59049,-0.2306 3.25079,0.37452 4.82122,0.03311c2.66189,-0.5787 6.16937,-4.4787 6.92641,-6.97903c0.25584,-0.845 0.1932,-1.73381 0.09548,-2.62834c-4.49387,-4.84501 -8.16541,-10.575 -11.53753,-16.41316c-5.36454,0.12679 -11.13078,0.68991 -16.33036,-0.03832c-0.67764,-0.09491 -6.42858,-1.84294 -6.69699,-2.15417c-0.83401,-0.96702 -0.53061,-2.49902 -0.74276,-3.75827c-0.17656,-1.04805 -0.32456,-2.07426 -0.43698,-3.09459c-1.65084,0.12527 -3.25003,0.48434 -4.8409,1.38852c-0.70179,0.39886 -1.64981,0.48521 -2.14613,1.12181c-0.57104,0.73243 -0.43371,3.11733 -0.42818,4.01119c-0.00134,7.86508 0.87185,15.06651 3.88106,22.4146c1.20719,2.9478 3.07883,5.19443 3.93197,8.11328c0.11977,0.00256 0.23963,0.00525 0.35955,0.00803c-0.05781,-0.51182 -0.14523,-1.02172 -0.17258,-1.53591c-0.03542,-0.66573 0,-1.33334 0,-2c0,-2.33334 0,-4.66666 0,-7c0,-1 -0.39392,-2.08086 0,-3v-2c0,-0.46613 0.21262,-0.8826 0.54617,-1.15772c0.15275,-1.98577 0.30551,-3.97155 0.45826,-5.95732c0,0 0.11505,-1.49558 1.61062,-1.38053c1.49558,0.11505 1.38053,1.61062 1.38053,1.61062c-0.23009,2.99116 -0.46017,5.98233 -0.69026,8.97349l-0.22908,2.97797c-0.00475,0.07085 -0.01443,0.14035 -0.02867,0.20818c0.22594,2.87491 0.06461,5.82697 -0.04756,8.72531c-0.01523,0.39341 0.01134,0.97089 0.00654,1.6095c1.32299,0.03292 2.64756,0.05684 3.96377,0.04198c-0.28456,-6.23248 -2.52214,-12.29205 -2.96653,-18.54514zM32.77598,197.7886c0.21693,1.17303 0.04635,2.54063 0.15928,3.78978c-0.01355,-1.27769 -0.01808,-2.5562 -0.0169,-3.8354zM40.84463,209.54013c1.34282,0.38073 2.78069,0.04414 4.18545,-0.02743c-0.44039,-0.7235 -0.98217,-1.38555 -1.40988,-2.11743c-5.13123,-8.78044 -6.61854,-18.38938 -6.6202,-28.39526c0.00968,-1.88071 -0.17123,-4.16965 1.02703,-5.80966c0.70462,-0.96438 2.00588,-1.29801 3.03054,-1.91168c1.2844,-0.76924 2.56361,-1.2262 3.85957,-1.49266c-1.73963,-1.56914 -3.45849,-3.1633 -5.19191,-4.738c-1.49755,-1.368 -2.81939,-2.89256 -4.05369,-4.49392c-0.17274,7.7919 0.32845,15.72849 0.32845,23.44592c0,7.53486 -0.21822,15.06423 0.03827,22.55865c1.55398,1.40195 3.40945,2.58541 4.80636,2.98147zM53.40387,169.50056c3.51846,-0.00039 7.4988,-0.32073 11.36288,-0.20804c-3.56109,-6.37815 -7.3902,-13.73964 -9.20291,-20.68365c-0.37177,-1.42416 -0.55394,-2.98345 -0.68517,-4.55263c-1.46153,2.69996 -3.15378,5.55299 -3.92533,8.31501c-1.16394,4.16666 -0.49728,9.80429 -0.73693,14.14287c-0.05607,1.01506 -0.03474,1.98271 0.02793,2.93363c1.02477,0.01871 2.07495,0.05294 3.15953,0.05282zM72.93468,170.56436c3.27784,1.13557 6.38922,4.23825 8.78312,7.39119c4.08169,-0.50004 8.1199,-1.27002 12.25487,-1.98684c6.79266,-1.17755 13.89909,-1.87921 20.58097,-3.56351c6.68188,-1.6843 13.27179,-4.43505 19.81101,-6.61806c3.48598,-1.16374 7.92426,-1.92257 11.13361,-3.69083c4.0412,-2.22658 7.80688,-6.40937 11.39142,-9.33765c0.84896,-0.69353 1.96552,-1.43838 3.07486,-2.22558c-5.65238,-1.90833 -12.17754,-2.28668 -17.83474,-3.07463c-12.67172,-1.76495 -25.05811,-3.91679 -37.84686,-4.77351c-2.01314,-0.1351 -4.02222,-0.34235 -6.02955,-0.57812c-2.57221,2.93984 -5.12427,5.90105 -7.65861,8.88863c-3.12346,3.68205 -6.92008,7.2919 -9.60015,11.30188c-1.27157,1.90256 -2.06267,3.43966 -3.05794,4.98197l0.40178,0.20654l-1.35696,2.63972c-0.24366,0.49893 -0.75602,0.84261 -1.34865,0.84261c-0.82842,0 -1.5,-0.67157 -1.5,-1.5c0,-0.13712 0.0184,-0.26996 0.05286,-0.39615l0.17964,-0.71914c-0.31924,0.27061 -0.64153,0.53854 -0.92601,0.8291c-0.40371,0.41234 -0.82583,0.79094 -1.26423,1.13833c0.25603,0.0761 0.5093,0.15734 0.75957,0.24405zM168.63969,157.05315c0.02604,-0.04122 0.05208,-0.08246 0.07812,-0.12368c0.29309,-0.91142 0.58304,-1.82392 0.86993,-2.73752c-0.00406,-0.00378 -0.00816,-0.00737 -0.0123,-0.01077c-0.47607,-0.39103 -1.25755,0.25194 -1.8468,0.07214c-0.33958,-0.10361 -0.66351,-0.24553 -0.97929,-0.40744c-0.03091,0.03676 -0.06195,0.07333 -0.09311,0.10969c-3.20204,3.73764 -7.66322,6.87924 -11.33466,10.16422c-1.73945,1.55635 -3.71086,3.85984 -5.73124,5.37501c3.85897,-0.03504 7.99655,-0.23092 12.08453,-0.08423c1.79039,-4.40712 4.32952,-8.18488 6.96482,-12.35743zM146.88699,167.69115c2.25256,-1.24863 4.5094,-4.08489 6.4342,-5.80709c3.46764,-3.10262 7.67945,-6.06732 10.77509,-9.55674c-0.30602,-0.16924 -0.6168,-0.33116 -0.93196,-0.4862c-1.49934,1.15947 -3.15721,2.24464 -4.37668,3.24085c-3.73159,3.04841 -7.62938,7.32107 -11.84167,9.64191c-3.37634,1.86025 -7.96763,2.68581 -11.63136,3.90888c-1.07957,0.3604 -2.16043,0.73584 -3.2428,1.11921c2.95421,-0.20198 5.91568,-0.2584 8.90891,-0.26806c2.06244,-0.44907 4.31913,-0.91298 5.90627,-1.79276zM82.99876,187.99583c0.0583,-2.80196 -1.06939,-4.89303 -2.68761,-6.86626c-1.73996,0.17866 -3.4909,0.30291 -5.2631,0.34976c2.40778,4.09675 4.99389,8.10368 7.952,11.72052c-0.00001,-1.73468 -0.00021,-3.46934 -0.00129,-5.20402zM74.28323,174.5416c-1.13345,-0.8734 -2.51206,-1.20163 -3.92132,-1.37882c0.97597,1.76618 1.96089,3.55343 2.97045,5.33745c0.05594,-0.00015 0.11182,-0.00023 0.16764,-0.00023c1.4388,0 2.8616,-0.05679 4.27402,-0.1574c-1.14715,-1.288 -2.12798,-2.75087 -3.49079,-3.801zM170.03981,142.51817c1.48355,-2.4726 4.17359,-5.6103 5.48099,-8.48301c0.26437,-0.99653 0.51373,-1.99559 0.74065,-3.00002c0.02137,-1.33012 -0.26145,-2.69988 -0.26145,-4.03513c0,-2.73367 0.47859,-6.04725 0.02295,-8.73857c-0.44037,-2.60115 -2.03894,-5.51261 -2.94492,-7.99182c-0.64131,-1.75492 -0.79336,-3.75857 -1.87412,-5.2827c-1.08076,-1.52414 -2.92127,-2.33051 -4.3652,-3.51629c-0.55937,-0.45937 -1.11942,-0.91799 -1.67972,-1.37633c0.8327,1.6877 1.6146,3.38621 2.43061,4.84465c1.36524,2.44009 3.76604,5.4992 4.52811,8.17589c0.76207,2.67669 0.33259,6.54158 0.45732,9.33486c0.12646,2.83195 0.85276,6.52334 0.38199,9.308c-0.63189,3.73769 -3.12375,7.92129 -4.53206,11.45163c-0.16671,0.4179 -2.26043,5.70462 -2.40672,5.90413c-0.14589,0.19896 -0.30683,0.39635 -0.48048,0.59211c0.12521,0.06782 0.2498,0.13673 0.37374,0.20674c1.51564,-2.35861 2.7644,-5.12092 4.12831,-7.3941zM172.65646,143.98837c-0.01481,0.02448 -0.02954,0.04891 -0.04416,0.07329c-1.35567,2.25946 -2.60371,4.93672 -4.08288,7.29841c0.01307,0.00449 0.02616,0.00892 0.03929,0.01327c0.56446,0.18714 1.25654,0.05754 1.86634,0.08856c0.76171,-2.48323 1.5016,-4.97444 2.22142,-7.47352zM178.05947,114.55509c0.47729,-7.58112 0.71255,-15.06685 0.21796,-22.7897c-0.19857,-3.10059 -0.47223,-5.46852 -1.27842,-8.43495c-0.18255,-0.67168 0.23082,-1.68475 -0.35708,-2.05737c-0.5879,-0.37262 -1.32764,0.43354 -2.01298,0.55517c-0.98461,0.17476 -1.98747,0.22353 -2.98165,0.33129c-3.80854,0.41284 -6.98264,2.08289 -10.50559,3.56624c-2.26184,0.95235 -4.83761,1.76559 -7.24241,2.76185c0.06343,0.04761 0.12681,0.09492 0.19015,0.14195c0.17568,0.13044 0.35753,0.26132 0.54441,0.39277c0.73216,0.14023 1.45937,0.27491 2.1806,0.4017c4.0148,3.19497 7.963,6.47187 11.92818,9.72815c0.36362,0.29861 4.75795,3.88713 4.90847,4.09941c0.15052,0.21228 2.08318,5.54636 2.24468,5.9883c0.60798,1.66371 1.48105,3.49501 2.16369,5.31519zM148.17199,87.72123c-2.48225,-2.05724 -5.0438,-4.14363 -7.69912,-5.49175c-2.43517,-1.23636 -5.74901,-1.76184 -8.36112,-2.57249c-6.35793,-1.97315 -13.26804,-5.1781 -19.83659,-6.17393c-3.71175,-0.56273 -8.01386,0.01695 -11.77516,0.01695c-2.77715,0 -5.6381,-0.13841 -8.49915,-0.21854c0.0093,7.44965 0.08515,15.11728 -0.27487,22.66065c1.04005,-0.62637 2.08011,-1.25274 3.12016,-1.87911c2.43489,-1.46641 5.3161,-3.84624 7.99162,-4.77525c3.58983,-1.24648 8.42791,-1.10294 12.2074,-1.58295c5.59407,-0.71048 11.84981,-2.37806 17.47908,-2.20461c5.08713,0.15675 10.41643,1.15916 15.64774,2.22103zM88.62332,97.81068c0.48229,-8.15676 0.38774,-16.5013 0.3775,-24.5835c-2.14001,-0.01146 -4.26355,0.04869 -6.33522,0.26365c-2.909,0.30184 -5.90684,1.18228 -8.82142,1.94327c-0.94782,1.17965 -1.89563,2.35931 -2.84345,3.53897c-6.26342,7.79548 -12.52684,15.59096 -18.79027,23.38644c-4.73436,5.89241 -9.46873,11.78482 -14.2031,17.67723c-0.03041,2.10238 -0.205,3.97447 -0.72036,6.22372c-0.72259,3.15371 -1.54317,6.26792 -2.42802,9.35972c2.46528,-1.51592 6.18819,1.93927 8.64101,1.87982c3.5538,0 7.12436,-0.05238 10.70229,-0.11507c-0.37297,-2.57921 -0.80922,-6.33562 0.22219,-7.43052c0.69288,-0.73553 2.51504,-0.61351 4.09859,-0.30106c0.0151,-0.02535 0.03024,-0.05067 0.04541,-0.07596c3.06156,-5.10578 7.21404,-9.81898 10.74347,-14.6174c2.27035,-3.08665 4.48314,-7.31044 7.30787,-9.88626c0.14298,-0.13038 5.06806,-3.08619 5.37669,-3.27206c2.20894,-1.33033 4.41788,-2.66065 6.62682,-3.99098zM33.21544,141.12824c0.21119,-0.13826 0.45938,-0.22469 0.72649,-0.24121c-0.00042,-0.60349 0.01508,-1.20563 0.05802,-1.80543c0.01252,-0.17484 0.01159,-0.35835 0.00486,-0.54612c-0.25914,0.86547 -0.5225,1.7296 -0.78937,2.59276zM41.74245,162.82746c1.80571,1.64037 3.63487,3.26012 5.43219,4.91135c0.00619,-0.4582 0.02137,-0.92005 0.04615,-1.38689c0.24194,-4.55696 -0.38039,-10.33064 0.82587,-14.72317c1.02539,-3.73391 3.60399,-7.60217 5.2776,-11.10155c0.02056,-0.043 0.0411,-0.08605 0.0616,-0.12915c-3.30477,0.05677 -6.60258,0.10194 -9.88586,0.10194c-1.60387,-0.02745 -3.23606,-0.44098 -4.67082,-1.15836c-0.56405,-0.28202 -1.12469,-0.57169 -1.67381,-0.88177c-0.2079,-0.11739 -0.53682,-0.63084 -0.59472,-0.3992c-0.08984,0.35945 0.39909,0.6527 0.4393,1.02103c0.3062,2.80467 0.21686,6.31607 -0.01881,9.12533c-0.16714,1.99245 -0.82134,3.92406 -0.98625,5.91669c-0.04507,0.54451 -0.08511,1.09026 -0.12056,1.6371c1.75388,2.54009 3.5958,5.01511 5.86812,7.06664zM88.85788,70.23321c-0.16312,-0.94504 -0.45749,-1.87324 -0.84148,-2.74165c-0.28256,-0.63902 -0.03796,-1.69895 -0.67579,-1.98418c-0.63783,-0.28523 -1.26415,0.60559 -1.92941,0.81917c-1.75317,0.56284 -3.82484,0.28165 -5.37447,1.27617c-1.40033,0.89871 -2.1036,2.55685 -3.07715,3.92721c1.79783,-0.4471 3.60067,-0.83523 5.37481,-1.02076c2.13403,-0.22316 4.32061,-0.28633 6.52348,-0.27596zM24.61087,144.51537c-1.43354,4.56269 -2.7232,9.15969 -3.63373,13.7455c-0.5228,2.63306 -0.77645,5.41446 -0.89581,8.22697c2.0427,-4.02293 4.36816,-8.0203 5.76206,-12.30373c0.53975,-1.64899 1.08922,-3.29501 1.63903,-4.9408c-0.87368,-1.16051 -1.69861,-2.34528 -2.31496,-3.5546c-0.19488,-0.38238 -0.37991,-0.77408 -0.55659,-1.17335zM50.66568,173.55351c0.05889,0.53261 0.11452,1.0736 0.16087,1.62808c0.06083,0.72772 -0.43673,1.63742 0.04021,2.19042c0.47694,0.55301 1.45002,0.19382 2.16076,0.36154c0.90578,0.21375 1.75888,0.65186 2.68054,0.78095c4.51911,0.63293 9.50028,0.24714 14.23956,0.06492c-1.05141,-1.87242 -2.08115,-3.74258 -3.10634,-5.58502c-3.60276,1.04455 -7.60109,1.06373 -11.32043,0.85153c-0.3897,-0.02223 -3.06114,-0.16347 -4.85516,-0.29243zM163.59894,147.33945c1.10864,-1.51194 1.34489,-3.50033 2.03956,-5.24173c1.32612,-3.3243 3.7665,-7.32651 4.3605,-10.84013c0.43519,-2.57422 -0.30423,-6.05948 -0.42099,-8.67409c-0.114,-2.55298 0.35192,-6.19707 -0.34565,-8.64722c-0.69757,-2.45014 -3.01304,-5.30235 -4.26084,-7.53253c-1.7493,-3.12652 -3.32168,-7.53511 -5.67687,-10.21435c-1.43691,-1.63462 -3.87072,-3.03529 -5.8596,-4.36003c-1.42306,-0.2369 -2.85699,-0.50782 -4.29724,-0.79069c-3.43165,2.43672 -6.5852,6.06931 -9.67245,8.78462c-9.06623,7.97395 -17.43225,16.12873 -25.63539,24.98812c-4.45358,4.80986 -8.83728,9.65177 -13.16248,14.54915c1.27071,0.13189 2.54249,0.24592 3.81595,0.33108c12.86063,0.86154 25.31766,3.02068 38.0602,4.79549c6.51532,0.90747 13.86654,1.39279 20.13324,3.88724c0.35226,-0.3397 0.66536,-0.68486 0.92204,-1.03491zM75.90105,162.28256c1.88132,-7.26718 3.90129,-14.55143 5.51552,-21.88465c-3.66172,-0.16308 -7.34133,-0.22248 -11.02836,-0.22476c0.30851,0.67801 0.59288,1.37234 0.85584,2.07882c2.10822,5.72237 4.41311,11.65807 4.59255,17.79563c0.00681,0.23299 0.03702,1.1546 0.06445,2.23496zM82.6655,134.2239c1.77569,-9.71259 4.31319,-19.59141 5.37961,-29.40318c0.12083,-1.11176 0.22688,-2.22964 0.31991,-3.35243c-1.60693,0.96777 -3.21385,1.93554 -4.82077,2.90331c-1.62936,0.98127 -3.49759,1.63728 -4.90302,2.91887c-2.67006,2.43478 -4.76374,6.52562 -6.9126,9.44709c-3.34383,4.54609 -7.27134,9.01483 -10.24716,13.82441c3.1876,1.47581 5.53714,3.81149 7.30324,6.61585c4.43502,-0.01641 8.86178,0.03892 13.26241,0.2459c0.21676,-1.06546 0.42344,-2.13203 0.61838,-3.19982zM145.27663,90.26981c-4.28699,-0.8487 -8.59355,-1.6297 -12.80088,-1.77001c-3.55447,-0.11853 -7.56696,0.97637 -11.10042,1.42513c-3.96813,0.50397 -7.93624,1.00795 -11.90437,1.51192c-1.88173,0.23899 -3.85727,0.06273 -5.64916,0.68492c-2.47812,0.86046 -5.17544,3.1546 -7.42793,4.51116c-1.62583,0.97916 -3.25167,1.95831 -4.8775,2.93747c-0.12813,1.87112 -0.28846,3.73105 -0.48882,5.57448c-1.07442,9.88532 -3.62206,19.83369 -5.41096,29.61854c-0.17318,0.94596 -0.3554,1.89095 -0.54552,2.83506c4.00838,0.29442 8.00278,0.85944 12.00216,1.35033c4.77821,-5.44849 9.61679,-10.84184 14.55548,-16.17562c8.27114,-8.93283 16.71402,-17.16253 25.8554,-25.20257c2.52472,-2.22055 5.08103,-4.99153 7.79253,-7.30081zM79.96666,158.58667c1.5558,-1.84151 3.25239,-3.534 4.45901,-4.95641c3.40572,-4.01478 6.82455,-8.00273 10.27158,-11.96214c-3.41339,-0.43258 -6.82567,-0.87308 -10.24821,-1.10653c-1.31609,6.0359 -2.90853,12.03816 -4.48238,18.02508zM69.13642,76.50369c-4.99469,0.96837 -10.41164,1.66454 -15.03809,3.40754c-4.44924,1.67624 -8.79794,4.81537 -12.97899,7.09594c-2.25005,1.2273 -5.71372,2.40732 -7.61868,4.11026c-1.40096,1.2524 -2.1187,3.10425 -3.19442,4.64503c-2.78322,3.98646 -5.52595,8.00402 -8.39788,11.92717c-0.1586,5.44837 -1.63131,11.90976 -0.86094,17.27619c0.34899,2.43112 1.77483,5.22125 2.68584,7.616c0.88977,-1.16349 1.84735,-2.30358 2.81984,-3.42942c0.03985,-0.12006 0.07963,-0.24006 0.11931,-0.35999c1.55621,-4.70297 3.07465,-9.72604 5.46825,-14.08998c0.60806,-1.10859 0.81215,-3.11448 2.07508,-3.17525c1.55714,-0.07493 2.88327,1.55298 3.67009,2.89879c0.12317,0.21067 0.19982,0.43494 0.24402,0.66863c3.914,-4.87138 7.82799,-9.74274 11.74199,-14.61412c6.42153,-7.99226 12.84307,-15.98453 19.2646,-23.97679zM22.93581,139.92702c-0.03024,-0.09581 -0.06035,-0.19169 -0.09032,-0.2876c-2.22521,4.43727 -3.80069,9.5313 -5.71649,13.99075c-1.99697,4.64843 -3.6799,8.92791 -4.81825,13.86077c-0.65412,2.83452 -1.43159,4.8419 -0.85441,7.69666c0.19817,0.98017 0.55115,1.94451 0.57591,2.94421c0.0153,0.61814 -1.04991,1.61701 -0.45849,1.79744c0.59142,0.18043 0.2652,-1.24294 0.62295,-1.74726c0.7604,-1.07193 3.25963,-2.98297 4.08644,-4.05904c0.24626,-0.3205 0.47723,-0.66854 0.69617,-1.03611c0.04736,-1.35479 0.13554,-2.74491 0.23825,-4.18607c0.25855,-3.62771 0.10598,-7.59339 0.80531,-11.16163c1.16617,-5.95029 2.97327,-11.92106 4.91294,-17.81211zM21.57431,170.23484c-0.52282,1.06867 -1.0341,2.10309 -1.5903,3.10318c0.00557,1.5818 0.01913,3.14295 0.016,4.66198c-0.00365,1.76783 0.37005,3.30433 0.37324,4.89384c0.92312,-1.44209 1.67223,-2.94742 2.34554,-4.4887c-0.57397,-1.71668 -1.61263,-4.84799 -1.61598,-5.07507c-0.01445,-0.97727 0.16797,-2.0233 0.47151,-3.09524zM24.28643,174.53035c0.2702,-0.69493 0.54141,-1.39244 0.82197,-2.09021c2.14573,-5.33665 4.57905,-10.61295 6.23078,-16.1242c0.12785,-0.42659 0.2731,-0.84934 0.42388,-1.27085c-0.12487,-0.18194 -0.24987,-0.36373 -0.3751,-0.54528c-1.02726,2.74621 -2.11101,5.4709 -3.28409,8.16191c-1.26827,2.90938 -4.04942,7.37557 -4.0014,10.62401c0.00628,0.42473 0.07489,0.83827 0.18396,1.24462zM33.07924,149.83159c-0.14461,0.41078 -0.29006,0.82122 -0.43645,1.23131c0.04939,0.06829 0.09829,0.13648 0.14663,0.20457c0.03965,0.05585 0.07925,0.11177 0.11879,0.16776c0.04062,-0.20294 0.07514,-0.40721 0.10237,-0.61306c0.04597,-0.34747 0.06583,-0.67633 0.06866,-0.99059zM32.09315,122.60789c0.9591,-1.1937 1.9182,-2.38739 2.8773,-3.58109c0.01241,-0.33629 0.02222,-0.67816 0.02955,-1.0268c0.01703,-0.80938 0.1636,-1.61793 0.11418,-2.42597c-0.0234,-0.38247 -0.11045,-1.41532 -0.32991,-1.10121c-0.26991,0.38631 0.23144,0.95252 0.11479,1.40911c-0.24753,0.96888 -0.78633,1.83894 -1.1795,2.7584c-0.56634,1.32445 -1.10731,2.6439 -1.6264,3.96756zM34.47877,124.42846c-0.35285,0.43917 -0.70571,0.87833 -1.05857,1.31749c-1.30025,1.61831 -2.76046,3.23702 -4.19751,4.88569c-1.02536,3.0767 -2.0974,6.19217 -3.1381,9.33137c0.50206,1.51668 1.05989,2.99522 1.74795,4.34828c0.24198,0.47585 0.5196,0.94782 0.82143,1.41589c1.88214,-5.68168 3.68888,-11.38369 5.03528,-17.21811c0.33238,-1.4403 0.59176,-2.77092 0.78951,-4.0806zM182.29249,144.1014c3.12313,-4.70254 5.77947,-9.72342 8.80109,-14.49764c-1.95107,1.97257 -3.83209,3.96829 -5.35249,6.33537c-4.22488,6.54004 -8.44904,13.07891 -12.62339,19.65082c0.08422,0.53628 0.13491,1.09661 0.15903,1.67129c3.13886,-4.35347 6.12643,-8.80935 9.01576,-13.15984zM68.18443,169.2524c1.12694,-0.55109 2.1817,-1.26735 3.13359,-2.19174c0.57632,-0.55966 1.48519,-0.87161 1.78839,-1.61555c0.66949,-1.64271 -0.223,-3.5416 -0.26868,-5.31491c-0.14906,-5.78759 -2.42116,-11.44627 -4.40872,-16.84113c-0.39321,-1.07978 -0.84012,-2.11977 -1.3556,-3.10386c-3.15742,0.02374 -6.31797,0.07908 -9.4751,0.13684c0.2058,2.48429 0.26126,5.20383 0.86825,7.52904c1.88531,7.22206 6.06694,14.92592 9.71787,21.4013zM59.9981,133.18675c-0.68957,1.34124 -1.32057,2.73388 -1.93795,4.12858c2.3588,-0.04259 4.71932,-0.08311 7.07889,-0.10953c-1.34532,-1.66669 -3.02078,-3.04764 -5.14094,-4.01905zM56.84505,132.79511c0.07662,-0.1575 0.15384,-0.31451 0.23173,-0.47097c-0.21914,-0.2006 -0.43677,-0.47752 -0.50126,-0.27855c-0.084,0.2592 0.10218,0.50005 0.26953,0.74951z" fill="#000000" stroke="none" stroke-width="0.5"/><path d="M220.5,386.5c-1.5,0 -1.5,-1.5 -1.5,-1.5v-2c0,-10.05469 -0.01964,-20.10962 0.00903,-30.16428c2.49784,-11.37597 5.22093,-23.28371 5.99427,-34.93506c0.58916,-8.87648 -0.0033,-18.00164 -0.0033,-26.90066c0,-7.70707 -0.03155,-15.24075 -0.79851,-22.9103c-0.73854,-7.38542 -2.44855,-15.96855 -1.17443,-23.37336c0.32044,-1.86227 1.37843,-3.51895 2.08022,-5.27343c0,0 0.55709,-1.39272 1.9498,-0.83563c1.39272,0.55709 0.83563,1.9498 0.83563,1.9498c-0.63156,1.5789 -1.63941,3.04932 -1.91978,4.72657c-1.02769,6.14795 0.30123,13.38323 0.91515,19.52242c0.87908,8.79077 1.11191,17.35962 1.11191,26.19392c0,8.96596 0.59032,18.15569 -0.0033,27.09934c-0.77477,11.67287 -3.42152,23.68387 -6.00573,35.06494c0.03164,9.9451 0.00903,19.89057 0.00903,29.83572v2c0,0 0,1.5 -1.5,1.5z" fill="#000000" stroke="none" stroke-width="0.5"/><path d="M211.44657,120.50095c1.49905,-0.05343 1.55248,1.44562 1.55248,1.44562l0.07347,2.06138c-0.0642,0.717 -0.59531,1.55432 -0.19259,2.151c0.35814,0.53062 1.24818,0.31264 1.88667,0.35896c2.86952,0.20821 5.87552,-0.02526 8.75311,-0.04372c3.8279,-0.02456 7.64995,-0.13246 11.4704,-0.26808c-0.06706,-6.07229 -0.47373,-11.87339 -1.17005,-17.95577c-0.28297,-2.47174 -1.34321,-6.08197 -0.78967,-8.55076c0.69396,-3.09505 3.58614,-4.49851 5.42627,-6.76619c0.6659,-0.82062 2.91041,-4.81475 3.60518,-5.29355c1.37625,-0.94845 4.71868,-1.08867 6.39293,-1.13915c4.0063,-0.12079 8.03687,-0.00068 12.04523,-0.00068c20.24395,0 40.67622,0.80502 60.87026,-0.63741c5.34386,-0.3817 10.71301,-1.1632 16.06177,-1.36105c14.64448,-0.5417 29.41141,-0.00154 44.06797,-0.00154c4.33391,0.00346 8.60839,-0.83853 12.93203,-0.99846c4.92677,-0.18224 10.01778,0.49119 14.92016,0.00576c4.26612,-0.42243 8.39918,-2.9922 11.42378,1.7041c1.45958,2.26629 1.16932,4.12932 1.2025,6.61956c0.05849,4.38887 0.02152,8.77981 0.02152,13.16903c0,2.09091 0.02042,4.1831 0.05843,6.27624c7.42962,-0.50305 14.88021,-0.90667 22.37517,-1.30114c7.03538,-0.37028 14.02175,-0.4751 21.0664,-0.4751c2,0 4.00786,-0.17719 6,0c0.66022,0.05872 1.29203,0.58196 1.93934,0.43934c0.28762,-0.06337 -0.33923,-0.49169 -0.42997,-0.77188c-0.20767,-0.64129 -0.30721,-1.31269 -0.45782,-1.96972c-0.45564,-1.98768 -0.82346,-3.99706 -1.11221,-6.01575c-0.95385,-6.66865 -2.2468,-13.29285 -3.41745,-19.92666c-0.82731,-4.89545 -0.95677,-12.53836 -4.16994,-16.62127c-2.01691,-2.56285 -8.50788,-1.13405 -11.35194,-1.13405c-10,0 -20,0 -30,0c-19.62993,0 -39.33742,-0.50565 -58.949,0.34703c-12.6673,0.55075 -25.47742,0.60427 -38.11014,1.67082c-7.91679,0.6684 -15.83455,1.98126 -23.71927,2.96569c-7.63013,1.32844 -15.3272,2.4552 -22.91894,3.98561c-12.54785,2.52951 -24.81175,5.96818 -37.44292,8.15471c-9.82496,1.70076 -19.81126,3.94241 -29.7424,4.87155c-10.15286,0.94988 -20.81513,-0.06708 -31.01897,0.03454c-1.2704,0.43072 -3.0793,0.14185 -3.82239,1.25865c-0.22748,0.34189 0.20221,0.80133 0.22403,1.2114c0.10624,1.99717 0,4 0,6c0,7.33334 0,14.66666 0,22c0,3.49814 0.88876,7.89809 -1.30957,10.91262c-0.92472,1.26805 -2.60308,1.75896 -3.83542,2.73077c-0.55942,0.44115 1.24447,0.74667 1.94164,0.89332c9.60562,0.08128 19.10806,1.96578 28.70335,1.96329c8.19346,-0.00213 17.77855,-1.25693 26.0392,0.34402l0.01163,-0.34316l2.63551,0.08937c0.11268,0.00329 0.22224,0.01901 0.32736,0.04583c0.18444,-0.96873 0.43444,-1.86624 0.77312,-2.63288c0.02531,-0.05728 0.23748,-0.3312 0.55299,-0.7236c-3.09789,0.0999 -6.19742,0.17464 -9.30085,0.19454c-3.13888,0.02013 -10.79915,1.35961 -13.05823,-1.51413c-0.79654,-1.01327 -0.27087,-2.56346 -0.4063,-3.84519l-0.07347,-2.06137c0,0 -0.05343,-1.49905 1.44562,-1.55248zM259.5,125.5c20.38815,0 40.71231,-1.95457 61.01616,-3.60083c20.79025,-1.68569 41.39086,-3.32567 62.01097,-6.49379c12.19927,-1.87432 24.34301,-3.04789 36.53484,-3.92057c-0.04028,-2.16272 -0.06197,-4.32443 -0.06197,-6.48481c0,-5.1364 0.72412,-10.83236 -0.03073,-15.90631c-0.13979,-0.93961 -0.82906,-3.26788 -2.04329,-3.70787c-1.82193,-0.66021 -5.55892,0.93664 -7.27817,1.10688c-4.95949,0.49108 -10.09735,-0.17623 -15.07984,0.00576c-4.36981,0.15961 -8.68674,0.99828 -13.06797,1.00154c-14.61183,0 -29.33206,-0.53482 -43.93203,-0.00154c-5.32197,0.19439 -10.66667,0.9767 -15.98397,1.35651c-20.26569,1.44755 -40.76832,0.64503 -61.084,0.64503c-3.97971,0 -7.97665,-0.10607 -11.95477,-0.00068c-0.62039,0.01644 -4.13162,0.14478 -4.76235,0.59775c-1.51533,1.08827 -1.82104,3.27849 -2.99691,4.72691c-1.28533,1.58325 -4.39516,3.27232 -4.81637,5.47644c-0.57252,2.99593 0.78073,7.54535 1.16961,10.56851c0.5947,4.62326 0.78899,9.09817 0.84275,13.68762c0.15407,0.0605 0.31424,0.15439 0.47831,0.29111c0.482,0.40166 0.59438,0.83694 0.56202,1.20742c6.81824,-0.26458 13.63611,-0.55509 20.47771,-0.55509zM219.86381,138.45522c0,0 -1.45522,0.36381 -1.81902,-1.09141c-0.27572,-1.10288 0.49339,-1.57888 0.88197,-1.74472c-0.90047,-0.06603 -1.729,-0.11909 -2.42676,-0.11909c-5.67124,0 -11.40434,0.25537 -17.06797,-0.00154c-8.74607,-0.39673 -17.37234,-1.82628 -26.13803,-2.00417c-2.35905,-0.93494 -5.92774,-1.06127 -4.149,-5.13769c0.98756,-2.26324 4.2928,-2.00782 4.89513,-4.70124c0.50247,-2.24685 -0.04012,-5.35409 -0.04012,-7.65537c0,-6.66666 0,-13.33334 0,-20c0,-2.65992 -0.10283,-5.34287 0,-8c0.03607,-0.93183 -0.2935,-2.01286 0.22403,-2.7886c0.82034,-1.22962 4.72361,-2.2619 5.86971,-2.63872c10.30761,-0.22314 21.03563,0.9065 31.28893,-0.06809c9.83872,-0.93519 19.72999,-3.15152 29.46536,-4.83677c12.59962,-2.18107 24.83275,-5.61187 37.34932,-8.13697c7.64511,-1.54233 15.39663,-2.67939 23.08106,-4.01439c7.94781,-0.99461 15.92952,-2.31419 23.91007,-2.98797c12.67362,-1.07001 25.52398,-1.1261 38.23221,-1.67863c19.65512,-0.85457 39.40582,-0.34985 59.07932,-0.34985c10.66667,0 21.33333,0 32,0c3.89059,0 8.70865,-1.10645 11.64036,2.19416c3.74957,4.22138 3.94624,12.77495 4.83776,18.05053c1.34547,7.6242 2.43903,15.31542 3.84542,22.92231c0.27922,1.51027 2.3977,7.03749 0.73713,8.39366c-0.66966,0.5469 -5.92017,0.43934 -7.06066,0.43934c-7.99142,0 -15.92764,0.0509 -23.90872,0.47096c-7.52625,0.39612 -15.00702,0.80086 -22.4666,1.30699c0.44527,17.20818 1.98758,34.47158 3.05953,51.62264c0.8145,13.0321 0.81576,26.01439 0.81578,39.07006c0.00001,8.13404 0.70696,15.74918 -3.24849,23.1511c-3.42651,6.25931 -9.40473,9.41 -15.63702,12.24661c-4.5836,2.08622 -9.21694,4.49695 -14.14504,5.7065c-5.04838,1.23907 -10.30975,1.52201 -15.57425,1.67971c0.28341,0.21121 0.43475,0.51225 0.51411,0.74543c3.19689,0 6.3938,0 9.59069,0c19.38202,0 38.97442,-0.30422 58.18198,2.43934c4.84767,0.69958 9.5085,2.37277 14.24657,3.62318l0.04214,0.02541l0.00365,-0.01095l2.81324,0.93775c0.61293,0.1885 1.05847,0.75921 1.05847,1.43397c0,0.65798 -0.42365,1.21701 -1.01307,1.4192l-2.78131,1.0274l-0.00108,-0.00293c-0.00711,0.00367 -0.01421,0.00734 -0.02132,0.011c-0.76858,0.39547 -1.7718,0.26369 -2.47902,0.76065c-3.16026,2.22062 -4.47397,7.58373 -5.16772,11.07191c-1.37619,6.91947 -1.10743,13.61433 -1.36645,20.64297c-0.21089,5.72285 -0.67647,11.44864 -1.01673,17.16547c0.00442,19.92637 -0.61269,39.91851 0.91532,59.78974c0.82646,8.44517 1.08533,16.68328 1.08533,25.16591c0,2.33347 0.70605,6.18982 -0.0591,8.41692c-0.10779,0.31374 -3.08545,4.99598 -3.37662,5.457c-2.66996,4.22744 -5.33993,8.45489 -8.0099,12.68233l-0.78614,1.24473c0,0 -0.80099,1.26824 -2.06923,0.46724c-1.26824,-0.80099 -0.46724,-2.06923 -0.46724,-2.06923c2.66996,-4.22744 6.12608,-9.69962 8.79604,-13.92706c0.99383,-1.57356 2.39037,-2.94158 3.0313,-4.68887c0.67649,-1.84426 -0.0591,-5.61678 -0.0591,-7.58308c0,-8.39769 -0.25624,-16.54441 -1.07395,-24.90479c-1.53801,-19.98712 -0.92971,-40.09691 -0.92539,-60.13956c0.33729,-5.7244 0.80628,-11.45705 1.01745,-17.18724c0.30149,-8.18113 -0.24131,-16.21749 2.04408,-24.19582c1.1264,-3.9323 3.54961,-9.30468 7.61701,-10.51434c-4.1164,-1.15436 -8.20013,-2.55263 -12.42148,-3.14906c-19.06673,-2.7242 -38.51747,-2.40919 -57.75772,-2.40919c-3.09083,0 -6.18166,0 -9.27249,0c0.16399,2.10569 0.27584,4.20607 0.35489,6.30406c1.12899,0.8727 2.16107,1.8996 3.07761,3.24496c3.61672,3.64673 4.88244,10.60299 10.27466,12.51535c0.60008,0.21282 1.29964,-0.20564 1.90995,-0.02424c2.02463,0.60178 4.15749,1.93195 4.15537,4.45988c-0.00299,3.55956 -4.53734,4.84512 -7.12083,5.69727c-3.41911,1.12778 -7.86892,1.39667 -11.44984,2.64085c0.39637,5.16289 0.9642,10.32169 1.50459,15.4554c2.19777,20.87882 5.21756,41.66783 7.5458,62.53488c0.77562,6.95159 1.91067,13.96514 2.33512,20.94579c0.5167,8.49768 0.12,16.82356 1.13696,25.30241c0.33115,-0.1461 0.76527,-0.17917 1.29051,0.11996c1.30345,0.74231 0.56114,2.04576 0.56114,2.04576l-1.03686,1.82066c-0.25432,0.46654 -0.74915,0.78308 -1.31791,0.78308c-0.67476,0 -1.24546,-0.44554 -1.43397,-1.05847l-0.93775,-2.81324l0.03429,-0.01142l-0.0741,-0.1311c-1.11377,-8.67717 -0.688,-17.17887 -1.21679,-25.87555c-0.42137,-6.92994 -1.55213,-13.89395 -2.32214,-20.7952c-2.32894,-20.87326 -5.34939,-41.66844 -7.54782,-62.55349c-0.49665,-4.71816 -1.01516,-9.45718 -1.40524,-14.20123c-0.38167,0.44251 -0.70225,0.9647 -1.16809,1.31052c-1.10897,0.82324 -4.0253,1.82947 -5.17294,2.27071c-9.13251,0.15713 -17.50502,3.15688 -26.4072,4.98275c-11.36467,2.33094 -22.81197,2.86897 -34.36533,3.63135c-10.99717,0.72568 -22.0537,0.36782 -33.07314,0.42458c-0.50921,0.00262 -1.12853,0.10859 -1.80516,0.24687c2.21535,20.49376 5.09021,41.35775 8.93687,61.60287c1.49006,7.84668 2.9225,15.70073 4.63867,23.50136c0.92877,4.22161 0.5553,8.51674 4.7158,10.66278l1.65537,-0.04012c0,0 1.5,0 1.5,1.5c0,1.5 -1.5,1.5 -1.5,1.5l-2.34463,-0.04012c-2.07619,-1.01907 -3.74286,-1.48604 -4.97687,-3.7502c-1.25597,-2.30446 -1.40901,-6.59443 -1.97959,-9.18771c-1.72252,-7.82885 -3.16062,-15.71121 -4.65607,-23.5863c-3.84247,-20.24575 -6.72244,-41.10032 -8.94569,-61.59638c-1.92399,0.24669 -3.7468,0.05024 -4.52017,-1.86494c-0.28226,-0.699 2.16071,-5.30308 2.50576,-5.99294c0.33434,-0.66846 0.6688,-1.33686 1.00339,-2.00518c-0.48858,-4.88626 -0.98838,-9.77317 -1.6284,-14.6343c-0.76857,-5.83758 -2.77703,-12.09962 -2.78241,-17.98008c-0.00243,-2.65954 0.57717,-5.51184 1.13496,-8.28172c-0.08797,-0.02638 -0.1759,-0.05311 -0.26379,-0.0802c-10.06249,-0.00364 -19.84399,-0.13611 -29.84378,-1.4069c-3.75779,-0.47755 -8.72331,-0.34584 -12.26058,-1.70061c-2.46697,-0.94484 -5.16398,-3.63609 -7.31398,-5.1718c0,0 -1.2206,-0.87186 -0.34874,-2.09246c0.87186,-1.2206 2.09246,-0.34874 2.09246,-0.34874c1.93903,1.38502 4.45797,3.98658 6.68602,4.8282c3.29318,1.24395 8.02337,1.06455 11.52306,1.50935c7.32509,0.93099 14.52988,1.23989 21.81857,1.33873c-0.87998,-0.40247 -1.74617,-0.80679 -2.59526,-1.19959c-2.34223,-1.08631 -5.40424,-2.38821 -7.30885,-4.14219c-2.95527,-2.72155 -4.52119,-7.55931 -5.83766,-11.23036c-2.80089,-7.81043 -3.46274,-15.6683 -4.45201,-23.83218c-0.72499,-5.98288 -1.85796,-11.91581 -2.26295,-17.93203c-0.23783,-3.54919 -0.45168,-7.09304 -0.6427,-10.6336c-0.11461,-0.39512 -0.23161,-0.78767 -0.35148,-1.17726c-3.53725,-11.51311 -4.95554,-23.29636 -4.94859,-35.30847c0.00103,-1.78471 -0.02945,-4.10346 0.13835,-6.36343c-3.00084,0.75021 -8.47246,2.11812 -11.27454,2.81864zM382.98271,118.3706c-20.69091,3.179 -41.36274,4.8273 -62.22411,6.51877c-20.38475,1.65282 -40.78925,3.61064 -61.2586,3.61064c-7.18349,0 -14.34053,0.3206 -21.49945,0.59494c0.0165,16.36708 0.40442,32.59622 1.27716,48.89438c1.72679,6.0736 2.91386,12.74209 5.33586,18.45947c5.37367,12.68511 16.10485,22.55515 27.64181,29.45975c5.90596,3.56436 12.79599,4.31942 19.51324,5.21439c13.19499,1.75803 26.44646,1.37707 39.73138,1.37707c2.73323,0 5.46765,-0.07576 8.19532,-0.23388c-0.41803,-0.26623 -0.69532,-0.7338 -0.69532,-1.26612c0,-0.82843 0.67158,-1.5 1.5,-1.5h2c0.515,0 1.03211,-0.00458 1.55086,-0.0122l-0.61152,-0.42714c0,0 -1.06066,-1.06066 0,-2.12132c1.06066,-1.06066 2.12132,0 2.12132,0l-0.06066,0.56066c6.93025,0 13.91413,0.1888 20.88617,0.21611c8.17447,-2.45239 16.01946,-5.93921 23.2863,-10.66625c4.7242,-3.04865 9.9733,-8.64139 12.49085,-13.73052c0.87677,-1.77236 1.05175,-3.82924 1.8677,-5.6304c0.09205,-0.20319 2.91441,-4.97915 3.07592,-5.27666c1.41614,-2.60858 2.41999,-5.78047 4.13082,-8.2012c0.54083,-0.76524 1.4809,-1.20167 1.98234,-1.99329c0.83002,-1.31035 0.44504,-3.07572 0.82423,-4.57977c0.18079,-0.71712 0.84654,-1.25831 0.99579,-1.98264c0.52839,-2.5644 -0.04012,-6.03027 -0.04012,-8.65537c0,-2.42339 0.44986,-5.37145 0.01937,-7.75973c-0.31191,-1.7304 -1.909,-2.95437 -2.80487,-4.46731c-2.1667,-3.65911 -3.2145,-8.62421 -3.2145,-12.77297v-2c0,0 0,-1.5 1.5,-1.5c1.5,0 1.5,1.5 1.5,1.5v2c0,3.61553 0.85671,8.05916 2.7855,11.22703c0.51562,0.84687 1.55548,1.29535 2.05132,2.15395c1.93839,3.35653 1.16318,7.93628 1.16318,11.61902c0,2.89319 0.51145,6.51265 -0.04012,9.34463c-0.1436,0.7373 -0.81921,1.28933 -1.00421,2.01736c-0.45532,1.79182 -0.24126,3.82505 -1.17577,5.42023c-0.50901,0.86886 -1.51504,1.35197 -2.10017,2.1715c-1.64083,2.29817 -2.5867,5.40391 -3.93623,7.88986c-0.93707,1.72615 -2.16932,3.29421 -2.9798,5.08329c-0.72495,1.60028 -1.15836,4.2067 -1.92703,5.75379c-2.77686,5.58895 -8.36225,11.49989 -13.52836,14.88395c-4.9562,3.22398 -10.17309,5.89069 -15.57657,8.05979c1.9453,-0.05245 3.88738,-0.12982 5.82479,-0.23984c4.81543,-0.27344 10.06516,-0.45708 14.82121,-1.14193c0.99923,-0.14389 1.93266,-0.81196 2.93898,-0.7314c0.06126,0.00491 0.12234,0.01072 0.18327,0.0174v-0.02864h3c0.82842,0 1.5,0.67157 1.5,1.5c0,0.73732 -0.53199,1.3504 -1.23307,1.47632l-2.03101,0.4062c-1.00687,0.20065 -2.01374,0.4013 -3.02062,0.60195c-7.85023,0.72161 -15.70466,2.21574 -23.5472,2.88899c3.19989,0.52746 6.16787,1.60901 6.81254,4.38627c0.25353,1.09222 -0.66146,2.17159 -1.26377,3.11734c-1.42499,2.23755 -3.681,3.91204 -6.05142,4.99357c6.26118,-0.15838 12.59105,-0.2372 18.58891,-1.70931c4.74883,-1.16555 9.21391,-3.52234 13.63117,-5.52969c5.54827,-2.52131 11.24398,-5.27259 14.22397,-10.93107c3.721,-6.86706 2.89051,-14.15704 2.89051,-21.72992c-0.00002,-12.99327 0.00067,-25.91325 -0.80994,-38.88293c-1.0715,-17.14413 -2.6087,-34.3994 -3.06054,-51.60081c-12.06158,0.86558 -24.07621,2.02913 -36.14681,3.88368zM372.63948,254.20922c0.9885,0.56485 1.94257,1.07741 2.85548,1.59717c-0.07135,-1.43356 -0.1614,-2.86871 -0.27642,-4.30639c-2.65639,0 -5.31279,0 -7.96918,0c1.87213,0.82128 3.6834,1.73395 5.39012,2.70922zM276.31667,280.0718c4.04443,-8.0117 8.9224,-15.63316 12.8256,-23.70944c0.69969,-1.44776 1.33747,-2.96323 1.93912,-4.49834c-3.15942,-0.03591 -6.31251,-0.11521 -9.45479,-0.25807c-3.47483,0.15087 -7.06482,0.35951 -10.34443,-0.12184c-0.35735,-0.05245 -0.71479,-0.11357 -1.07213,-0.18261c-0.52005,2.53756 -1.03695,5.13737 -1.03474,7.5576c0.00525,5.7373 2.00623,11.89082 2.75674,17.59122c0.43878,3.33272 0.812,6.67747 1.16086,10.02582c1.07247,-2.13583 2.14684,-4.2707 3.22376,-6.40433zM293.19372,246.17738c0.22078,-0.60432 1.86696,-5.74009 2.0997,-6.06853c1.32423,-1.86873 4.74577,-3.60613 6.84882,-4.99662c-3.59346,-0.21582 -7.18346,-0.53799 -10.76972,-1.01556c-7.16363,-0.95395 -14.34283,-1.86279 -20.65774,-5.61392c-12.07867,-7.2288 -23.24305,-17.59591 -28.86358,-30.86376c-0.54184,-1.27909 -1.02337,-2.60373 -1.46362,-3.95765c0.51895,4.35123 1.26903,8.67748 1.79635,13.02914c0.96225,7.94087 1.57341,15.58338 4.29771,23.1804c1.12181,3.1283 2.46467,7.70973 5.02297,10.01524c1.71999,1.55004 4.46363,2.68044 6.55921,3.64722c2.9654,1.37183 6.16243,2.922 9.41703,3.96668c0.00638,0 0.01277,0 0.01914,0c0.13301,0.0001 0.26585,0.00101 0.39855,0.0027c0.04189,-0.24524 0.08167,-0.4889 0.11889,-0.73079c0,0 0.22809,-1.48256 1.71064,-1.25448c1.48256,0.22808 1.25447,1.71064 1.25447,1.71064c-0.02184,0.14198 -0.04467,0.28464 -0.06836,0.42793c2.87403,0.23736 5.71141,0.67861 8.61413,0.84018c0.73811,0.04109 1.47688,0.07836 2.21626,0.11209c1.27682,-0.05866 2.53659,-0.10828 3.75542,-0.10828c2.28847,0 4.57156,-0.00125 6.85132,-0.01065c0.2841,-0.77667 0.5638,-1.54939 0.8424,-2.31198zM304.37186,237.2206c-1.72311,1.2308 -5.46023,2.9398 -6.66527,4.67056c-1.06268,1.52629 -1.05684,3.5688 -1.69503,5.31567c-0.1529,0.41853 -0.3062,0.83995 -0.46038,1.26327c7.32821,-0.05963 14.63175,-0.23701 21.97866,-0.76181c1.81457,-0.12962 3.62973,-0.25562 5.44516,-0.38072c-0.55579,-0.27167 -1.10098,-0.52841 -1.63209,-0.75983l-0.44206,-0.19261c0,0 -1.37514,-0.59916 -0.77597,-1.9743c0.59917,-1.37514 1.97431,-0.77597 1.97431,-0.77597l0.44205,0.19261c1.94461,0.84729 4.10978,2.08794 6.27833,3.10711c8.1893,-0.56978 16.37703,-1.18099 24.53315,-2.08411c3.60653,-0.39935 8.32561,0.62719 11.7469,-0.28604c1.74903,-0.46687 3.07635,-1.90929 4.62865,-2.84067c0,0 1.28624,-0.77175 2.05799,0.51449c0.07076,0.11794 0.12423,0.23157 0.16296,0.34066c0.6126,-0.21192 1.2021,-0.46902 1.73872,-0.83007c1.41019,-0.94883 2.42209,-2.38599 3.59521,-3.6159c0.26444,-0.27724 0.84953,-0.51666 0.73623,-0.88266c-0.26684,-0.86202 -3.31621,-1.66574 -3.61483,-1.70984c-2.72967,-0.40312 -5.4392,-0.51653 -8.19644,-1.05911c-2.46069,-0.49214 -5.04894,-1.24419 -7.58983,-1.68346c-8.865,1.88255 -17.99696,2.71213 -27.11827,2.71213c-8.91722,0 -17.81725,0.16409 -26.69642,-0.24667c0.70603,1.15459 -0.43172,1.96727 -0.43172,1.96727zM291.85773,257.63765c-3.90941,8.10492 -8.80676,15.74857 -12.86286,23.78592c-1.78521,3.53691 -3.56338,7.07724 -5.33756,10.61964c0.17931,1.79571 0.35818,3.59112 0.54296,5.38493c2.62545,-0.24811 5.59409,0.07309 8.14537,0.07273c8.96794,-0.00128 17.93858,0.1979 26.88842,-0.39268c11.41953,-0.75356 22.73668,-1.2739 33.96903,-3.57851c8.86863,-1.81963 17.314,-4.98224 26.42836,-4.98694c0.48442,-0.19584 3.40558,-1.31539 3.9915,-1.7596c0.79388,-0.60189 1.26472,-1.60899 2.13801,-2.08844c0.17152,-0.09416 0.34597,-0.18466 0.52311,-0.27173c-0.12103,-1.80484 -0.21816,-3.60985 -0.28313,-5.41415c-0.23737,-6.5923 -0.15963,-13.11271 -0.36383,-19.65023c-1.37455,-0.89493 -2.8917,-1.63359 -4.48604,-2.54464c-3.95477,-2.25986 -8.49879,-4.1671 -13.02989,-5.31395c-6.51178,0 -13.02357,0 -19.53535,0c-1.9411,0.24553 -3.88261,0.33427 -5.71259,0c-1.79107,0 -3.58215,0 -5.37323,0c-11.00194,0 -22.13713,0.41741 -33.21328,0.38633c-0.74638,1.96029 -1.53983,3.90792 -2.42899,5.75132zM269.92303,298.52567c-0.06914,0.21715 0.46506,0.04366 0.68331,-0.02189c0.22569,-0.06778 0.44568,-0.15478 0.66346,-0.2488c-0.05923,-0.57144 -0.11779,-1.14304 -0.17589,-1.71479c-0.47729,0.62147 -0.9365,1.24932 -1.17088,1.98548zM389.94168,280.84752c0.75031,-0.24612 5.06227,-1.40429 5.05832,-2.84751c-0.00553,-2.01716 -3.11249,-1.2502 -3.93468,-1.56436c-1.10192,-0.42104 -2.02407,-1.21794 -2.97778,-1.91215c-4.28474,-3.11887 -5.16087,-8.01731 -8.74755,-11.5725c-0.20373,-0.31328 -0.4159,-0.60667 -0.63601,-0.88283c0.11604,5.59537 0.09175,11.18776 0.29501,16.83272c0.05293,1.47008 0.12751,2.94065 0.21916,4.41123c3.49103,-1.02346 7.46163,-1.39459 10.72353,-2.46458zM234,145c-0.00113,6.07763 0.5523,12.16902 1.6122,18.1701c-0.38288,-10.61522 -0.57491,-21.22808 -0.60725,-31.89508c-1.60536,3.71307 -1.00421,9.78459 -1.00494,13.72499zM365.86626,248.22921c-1.07171,0.08779 -2.14403,0.17777 -3.21661,0.27079c4.14353,0 8.28708,0 12.43061,0c0.07104,-0.23872 0.2054,-0.49818 0.45663,-0.6936c-3.24822,0.08625 -6.4882,0.16205 -9.67063,0.42281z" fill="#000000" stroke="none" stroke-width="0.5"/><path d="M318,171c0,-0.82843 0.67158,-1.5 1.5,-1.5c0.82842,0 1.5,0.67157 1.5,1.5c0,0.82843 -0.67158,1.5 -1.5,1.5c-0.82842,0 -1.5,-0.67157 -1.5,-1.5z" fill="#000000" stroke="none" stroke-width="0.5"/><path d="M437,162c0,-0.82843 0.67158,-1.5 1.5,-1.5c0.82842,0 1.5,0.67157 1.5,1.5c0,0.82843 -0.67158,1.5 -1.5,1.5c-0.82842,0 -1.5,-0.67157 -1.5,-1.5z" fill="#000000" stroke="none" stroke-width="0.5"/><path d="M354,224c0,-0.82843 0.67158,-1.5 1.5,-1.5c0.82842,0 1.5,0.67157 1.5,1.5c0,0.82843 -0.67158,1.5 -1.5,1.5c-0.82842,0 -1.5,-0.67157 -1.5,-1.5z" fill="#000000" stroke="none" stroke-width="0.5"/><path d="M531.15186,181.45904c-1.45904,-0.34814 -1.1109,-1.80718 -1.1109,-1.80718l0.66154,-2.75873c0.70264,-1.84275 1.87077,-3.5166 2.35065,-5.42948c0.2586,-1.03083 -0.20683,-2.19846 0.19499,-3.18234c0.33259,-0.81435 0.94713,-1.68281 1.68055,-2.55253c-1.07628,-1.69074 -2.28033,-3.4607 -2.82431,-5.16905c-11.52638,0.43779 -23.02941,-0.68767 -34.49805,0.93649c-6.31066,0.00767 -13.3686,2.27563 -19.59145,0.90551c-4.45604,-0.98111 -7.20635,-4.78878 -9.71565,-8.32446c-2.34105,-3.29861 -4.55934,-6.40779 -6.42586,-9.71403c-0.4144,-0.1908 -0.72694,-0.565 -0.83359,-1.01859l-0.27144,-1.04978c-1.08216,-2.15126 -2.00497,-4.41301 -2.71063,-6.8828c0,0 -0.20085,-0.70298 0.16868,-1.26759c-0.83871,0.1075 -1.67682,0.22081 -2.51426,0.34044c0,0 -1.48492,0.21213 -1.69705,-1.2728c-0.21213,-1.48493 1.27279,-1.69706 1.27279,-1.69706c0.79521,-0.1136 1.591,-0.22153 2.38734,-0.32422c-1.00402,-3.48272 -1.97866,-6.97302 -2.74793,-10.50254c-1.49171,-6.8441 -2.47749,-13.70369 -4.1815,-20.51736c-0.95929,-3.83594 -1.80227,-7.76326 -2.97186,-11.54061c-1.26443,-4.08369 -3.41242,-7.81677 -2.63246,-12.26622c0.91365,-5.21211 4.58179,-7.34444 9.1921,-8.88978c8.5693,-2.87237 17.25923,-5.02712 26.09618,-6.89558c20.53624,-4.34211 41.41915,-7.47091 62.15132,-10.74099c14.55164,-2.29517 29.16806,-3.81812 43.73697,-5.89843c2.63592,-0.37638 5.36959,-0.75182 7.94815,-1.43966c1.9019,-0.50733 3.54307,-1.61211 5.61468,-0.95052c1.06205,0.33917 1.9112,1.14856 2.86681,1.72284c1.74616,7.8197 2.6257,15.8068 3.04871,23.85214c12.86148,-1.47687 25.79966,-2.62413 38.70363,-2.62413c0.92953,0.07467 2.02733,-0.31457 2.78859,0.22402c0.9182,0.64963 1.37537,1.8462 1.67128,2.93135c0.05213,0.19115 0.04012,5.95485 0.04012,6.34463c0,5.66666 0,11.33334 0,17c0,2.20605 0.85316,7.92471 -0.22402,9.7886c-1.15122,1.99201 -3.51574,1.69819 -5.27598,1.7114c-6.05548,0.04546 -12.0397,-0.42758 -18.07637,-0.85877c-6.486,-0.46495 -12.93163,-1.23107 -19.40228,-1.72424c-0.01292,1.69873 -0.02134,3.39343 -0.02134,5.08302c0,3.60707 0,7.21415 0,10.82121c0.52728,2.23463 0.53033,4.52627 0.41828,6.83465c0.77351,1.30217 2.08818,2.83162 1.3577,4.13273c-0.30209,0.53807 -0.93095,0.66044 -1.62053,0.68333c-0.07952,2.45808 0.03169,4.90347 0.82519,7.2878c0.02276,3.80751 1.46443,10.72816 -1.82524,13.51357c-4.26179,3.60851 -12.4865,2.96878 -17.56218,3.22381c-9.42276,0.47346 -18.69139,3.95203 -27.91555,5.79708c-6.73978,1.34796 -13.72705,2.29588 -20.65402,2.84764c-0.02602,0.20129 -0.1026,0.42033 -0.25212,0.65434c-0.01369,0.02182 -0.02792,0.04325 -0.04268,0.06429c-0.49345,0.71591 -1.12661,0.71891 -1.56011,0.60285c-0.18852,-0.0425 -0.3636,-0.12049 -0.51783,-0.22659c-0.2376,-0.1584 -0.47519,-0.3168 -0.71278,-0.47519c0.50401,0.75163 0.96831,1.55876 1.40094,2.39031c0.75929,-0.76988 1.47852,-1.49386 2.02207,-2.128c0,0 0.97618,-1.13888 2.11507,-0.1627c1.13888,0.97618 0.1627,2.11507 0.1627,2.11507c-0.6943,0.81002 -1.86312,1.87514 -2.96688,2.98853c0.34992,0.79642 0.67976,1.58398 0.99622,2.33687c15.72525,4.20097 31.89211,7.76324 47.98361,10.06203l1.0603,0.15147c0,0 1.48492,0.21213 1.27279,1.69706c-0.21213,1.48493 -1.69705,1.2728 -1.69705,1.2728l-1.0603,-0.15148c-15.42082,-2.20298 -30.91369,-5.55704 -46.0242,-9.52203c3.36485,7.35461 7.63674,14.97264 9.38214,22.71224c0.65418,2.90083 1.24853,5.82009 2.01698,8.69383c0.21691,0.81119 0.34082,1.47704 0.50887,1.99316c0.92537,0.12179 1.75549,0.59872 2.2891,1.29708c0.03269,-0.00232 0.06587,-0.0049 0.09955,-0.00773h2c0.82843,0 1.5,0.67157 1.5,1.5c0,0.82843 -0.67157,1.5 -1.5,1.5h-2c-0.86185,-0.03967 -1.80576,0.25013 -2.58556,-0.11902c-0.40325,-0.1909 -0.76459,-0.44005 -1.0894,-0.73666c-2.24445,2.10217 -3.27599,5.82711 -4.48784,8.37267c-0.80358,1.68795 -1.88358,3.2879 -2.32157,5.10534l-0.06045,0.24167c0,0 -0.36399,1.45516 -1.81915,1.09117c-1.45516,-0.36399 -1.09118,-1.81915 -1.09118,-1.81915l0.06044,-0.24167c1.16048,-4.50106 3.4719,-9.21354 6.39472,-12.89434c0.58759,-0.73997 1.01717,-1.67638 1.67481,-2.33816c-1.09302,-2.56901 -1.38147,-5.91787 -1.86048,-8.05464c-2.06659,-9.21865 -6.45531,-18.56597 -10.66354,-27.24094c-0.51565,-0.13905 -1.03082,-0.27876 -1.54547,-0.41912c0,0 -0.07214,-0.01967 -0.1798,-0.06634c0.03775,0.60682 0.18368,1.23541 0.03665,1.81606c-0.4969,1.96239 -1.66966,3.69095 -2.39326,5.58154l-0.60987,2.56974c0,0 -0.34814,1.45904 -1.80718,1.1109zM531.08019,157.13377c-0.04706,-0.14552 -0.07249,-0.30078 -0.07249,-0.46197c0,-0.82843 0.67157,-1.5 1.5,-1.5c0.3152,0 0.60768,0.09722 0.84911,0.2633c0.46527,0.31018 1.70572,1.13714 2.85441,1.90293c7.64626,-0.50024 15.4165,-1.49328 22.87809,-2.9856c9.36781,-1.87335 18.74666,-5.36046 28.31749,-5.84953c4.63992,-0.2371 11.73262,0.43555 15.8066,-2.51624c1.18157,-0.85611 0.80107,-1.82273 0.78661,-2.98666c-0.03212,-2.58486 0.00123,-5.1748 0.01937,-7.75973c-0.82925,-2.48372 -1.05843,-5.0496 -1.09474,-7.64368c-1.47161,0.02561 -2.95157,-0.09659 -4.42462,-0.09659c-9.36485,0 -18.7297,-0.00004 -28.09455,0.00025c-8.94138,0.00027 -17.99869,-0.41933 -26.9285,0.00705c-11.61752,0.55472 -23.28816,2.19934 -34.88083,3.2074c-13.1798,1.14607 -26.46794,1.28798 -39.66152,2.33757l-0.19422,0.29133c-1.40137,2.10207 -2.69281,3.94777 -3.79559,5.92261c3.43687,2.99448 6.9067,6.48911 11.11702,8.33537c2.56127,1.12314 5.73666,1.63013 8.44163,2.32026c4.65911,1.18869 9.47049,2.88221 14.22373,3.59546c4.82446,0.72394 9.96178,0.57946 14.83504,0.86612c3.27311,0.1936 7.43998,0.76263 10.65414,0.14364c2.67854,-0.51584 5.55534,-2.32662 8.11894,-3.27619c3.75827,-1.39207 7.59991,-2.59487 11.39296,-3.88969l2.28717,-0.78076c0,0 1.41957,-0.48459 1.90416,0.93498c0.48459,1.41957 -0.93498,1.90416 -0.93498,1.90416l-2.28717,0.78075c-3.76865,1.28648 -7.58605,2.48066 -11.32012,3.86377c-2.73076,1.01148 -5.7406,2.8594 -8.59364,3.40885c-0.41599,0.08011 -0.84605,0.14255 -1.28688,0.19004c2.57205,0.01722 5.14521,0.00887 7.71918,-0.07381zM513.38604,157.37824c-4.96713,-0.29218 -10.19527,-0.15616 -15.1132,-0.89554c-4.85224,-0.72951 -9.75568,-2.44044 -14.51112,-3.654c-2.86413,-0.73091 -6.19434,-1.29115 -8.9047,-2.47967c-3.91244,-1.71564 -7.20925,-4.6883 -10.41715,-7.53223c1.82422,3.24578 4.01236,6.28198 6.30716,9.52604c1.92811,2.7257 4.3155,6.43906 7.81219,7.10869c6.05281,1.15915 12.71939,-0.95574 18.83445,-0.94777c6.31225,-0.91015 12.63786,-0.97207 18.97207,-0.91568c-1.0344,-0.07489 -2.03963,-0.15485 -2.9797,-0.20986zM600.43934,109.93934c1.06066,-1.06066 2.12132,0 2.12132,0l0.42998,0.46653c0.00448,-1.80206 0.00936,-3.60407 0.00936,-5.40587c0,-1.7612 0.01044,-3.52465 0.02612,-5.28957c-1.51213,-0.09226 -3.02618,-0.16483 -4.54297,-0.21043h-1.98315c-0.82843,0 -1.5,-0.67158 -1.5,-1.5c0,-0.82842 0.67157,-1.5 1.5,-1.5h2c0,0 0.00767,0 0.02193,0.00055l0.00051,-0.00038c1.51393,0.0452 3.02514,0.11715 4.53445,0.20867c0.08916,-7.88784 0.2244,-15.79617 -0.05593,-23.65537c-0.03057,-0.85699 -0.06857,-1.71337 -0.11327,-2.56918c-2.73818,0.32557 -5.47243,0.66298 -8.20163,1.00413c0,0 -1.48842,0.18605 -1.67447,-1.30237c-0.18605,-1.48842 1.30237,-1.67446 1.30237,-1.67446c2.79209,-0.34901 5.58939,-0.69394 8.39076,-1.02632c-0.52185,-7.51985 -1.4933,-15.00004 -2.40035,-22.47248c-2.20723,-1.04648 -2.81697,-0.27172 -5.26264,0.38492c-3.66017,0.98273 -7.54532,1.47635 -11.29766,1.93953c-13.60437,1.67929 -27.14793,3.32709 -40.69561,5.46391c-20.68081,3.26181 -41.51278,6.38139 -61.99813,10.71274c-7.71925,1.63213 -15.42837,3.35907 -22.92203,5.85783c-3.26031,1.08715 -7.49111,1.72955 -9.29071,5.09439c-2.36055,4.41365 0.50581,9.09028 1.80212,13.27692c1.18593,3.83015 2.04371,7.8106 3.01644,11.7001c1.7113,6.8428 2.70433,13.73346 4.20231,20.60634c0.78949,3.62224 1.79744,7.20321 2.83056,10.77723c2.18067,-0.24645 4.36498,-0.45769 6.55201,-0.64237l0.01091,-0.01636c0,0 0.83205,-1.24807 2.08012,-0.41602c0.11581,0.0772 0.21371,0.15799 0.29602,0.24103c12.88071,-0.97976 25.84462,-1.14841 38.70815,-2.26698c11.63181,-1.01146 23.34072,-2.65866 34.99764,-3.21526c8.97783,-0.42867 18.08218,-0.0102 27.0715,-0.01047c7.36488,-0.00022 14.72976,-0.00025 22.09464,-0.00025c3,0 6,0 9,0c0.48067,0 0.96544,-0.04335 1.4484,-0.06754c0.02331,-1.14426 0.05197,-2.28974 0.0516,-3.43189c-0.00006,-0.18313 0.00575,-0.36693 0.01542,-0.55114c-0.01076,-0.21425 -0.01484,-0.37193 -0.01542,-0.44943c-0.00965,-1.28583 -0.01434,-2.57178 -0.01598,-3.85779c-0.3751,-1.24499 -1.24172,-2.30352 -1.82566,-3.47139l-0.71902,-0.61016c0,0 -1.06066,-1.06066 0,-2.12132zM625.63737,98.64885c4.94914,0.35351 9.89995,0.85195 14.86263,0.85116c1,-0.00016 2.00004,-0.00862 3,0c0.91305,0.00787 2.43592,0.57785 2.72402,-0.2886c0.23378,-0.70306 -0.1922,-1.47118 -0.22402,-2.2114c-0.0859,-1.99815 0,-4 0,-6c0,-5.66666 0,-11.33334 0,-17c0,-1.88587 1.32044,-7.02158 -1.5,-6.5c-12.85815,0 -25.75083,1.15161 -38.56623,2.62759c0.34975,8.92343 0.2022,17.90164 0.11426,26.78636c6.53328,0.49528 13.04086,1.26889 19.58934,1.7349zM461.53592,133.74974c0.29164,1.00918 0.58109,2.01855 0.86398,3.02889c0.76731,-1.14056 1.7344,-2.34824 2.54834,-3.37936c-1.13834,0.10819 -2.27582,0.22461 -3.41231,0.35047z" fill="#000000" stroke="none" stroke-width="0.5"/><path d="M490,131c0,-0.82843 0.67158,-1.5 1.5,-1.5c0.82842,0 1.5,0.67157 1.5,1.5c0,0.82843 -0.67158,1.5 -1.5,1.5c-0.82842,0 -1.5,-0.67157 -1.5,-1.5z" fill="#000000" stroke="none" stroke-width="0.5"/><path d="M529,139c0,-0.82843 0.67157,-1.5 1.5,-1.5c0.82843,0 1.5,0.67157 1.5,1.5c0,0.82843 -0.67157,1.5 -1.5,1.5c-0.82843,0 -1.5,-0.67157 -1.5,-1.5z" fill="#000000" stroke="none" stroke-width="0.5"/><path d="M488,141c0,-0.82843 0.67158,-1.5 1.5,-1.5c0.82842,0 1.5,0.67157 1.5,1.5c0,0.82843 -0.67158,1.5 -1.5,1.5c-0.82842,0 -1.5,-0.67157 -1.5,-1.5z" fill="#000000" stroke="none" stroke-width="0.5"/><path d="M526,277c0,1.5 -1.5,1.5 -1.5,1.5c-7.66666,0 -17.33333,0 -25,0c-3.8938,0 -8.45242,0.63216 -12.28366,-0.02706c-1.86226,-0.32043 -3.51894,-1.37843 -5.27342,-2.08022c0,0 -1.39272,-0.55708 -0.83563,-1.9498c0.55708,-1.39272 1.9498,-0.83563 1.9498,-0.83563c1.5789,0.63156 3.04932,1.63941 4.72658,1.91978c3.64578,0.60942 8.01024,-0.02706 11.71634,-0.02706c7.66667,0 15.33334,0 23,0h2c0,0 1.5,0 1.5,1.5z" fill="#000000" stroke="none" stroke-width="0.5"/><path d="M485,268c0,-0.82842 0.67158,-1.5 1.5,-1.5c0.82842,0 1.5,0.67158 1.5,1.5c0,0.82842 -0.67158,1.5 -1.5,1.5c-0.82842,0 -1.5,-0.67158 -1.5,-1.5z" fill="#000000" stroke="none" stroke-width="0.5"/><path d="M516,270c0,-0.82842 0.67157,-1.5 1.5,-1.5c0.82843,0 1.5,0.67158 1.5,1.5c0,0.82842 -0.67157,1.5 -1.5,1.5c-0.82843,0 -1.5,-0.67158 -1.5,-1.5z" fill="#000000" stroke="none" stroke-width="0.5"/><path d="M597.92303,259.19233c0.47434,1.42302 -0.94869,1.89737 -0.94869,1.89737l-1.06226,0.3526c-3.72312,1.06374 -6.86431,2.05771 -10.74541,2.05771c0,0 -1.5,0 -1.5,-1.5c0,-1.5 1.5,-1.5 1.5,-1.5c1.48697,0 2.85068,-0.16366 4.18435,-0.42573c0.23478,-0.15241 0.51487,-0.24093 0.81565,-0.24093c0.07629,0 0.15127,0.0057 0.2245,0.01668c1.52569,-0.35601 3.04379,-0.82002 4.69676,-1.2923l0.93774,-0.31407c0,0 1.42303,-0.47434 1.89737,0.94868z" fill="#000000" stroke="none" stroke-width="0.5"/><path d="M617.96447,255.67544c0.32456,1.46446 -1.1399,1.78903 -1.1399,1.78903l-2.07304,0.4584c-3.54758,1.06541 -5.22133,1.64449 -8.91026,0.87475c0,0 -1.46428,-0.3254 -1.13888,-1.78967c0.32539,-1.46428 1.78967,-1.13889 1.78967,-1.13889c2.05103,0.49138 3.28153,0.38297 4.74297,-0.00887c0.26643,-0.41702 0.7334,-0.69352 1.26497,-0.69352c0.21522,0 0.41986,0.04533 0.60488,0.12696c0.28004,-0.08782 0.57558,-0.17952 0.89056,-0.27391l2.18,-0.48417c0,0 1.46447,-0.32456 1.78903,1.1399z" fill="#000000" stroke="none" stroke-width="0.5"/><path d="M659.03333,407.23333c-0.9,1.2 -2.1,0.3 -2.1,0.3l-1.46648,-1.11252c-3.83062,-4.60126 -5.26938,-10.43952 -6.97306,-16.09011c-2.96013,-9.82081 -6.50014,-19.47635 -11.87455,-28.27095c-1.95788,-3.20385 -4.31009,-6.47418 -6.79918,-9.28902c-2.52573,-2.85626 -4.23678,-3.90515 -5.42347,-7.67305c0,0 -0.07509,-0.2503 -0.05811,-0.5733c-0.49881,0.00783 -0.99786,0.01233 -1.49712,0.01396c0.07008,3.7953 1.69975,7.63193 2.77092,11.32098c3.19738,11.01152 5.25413,22.26655 7.99518,33.3901c1.50287,4.52096 2.7473,7.36686 7.03321,9.6359l0.23546,0.1264c0,0 1.32161,0.70947 0.61214,2.03108c-0.70947,1.32161 -2.03108,0.61214 -2.03108,0.61214l-0.23546,-0.1264c-5.03071,-2.73299 -6.72644,-6.14931 -8.49587,-11.44463c-2.50627,-10.13576 -4.24423,-20.47437 -7.15806,-30.50706c-1.41328,-4.86608 -3.60681,-9.99877 -3.67628,-15.05876c-4.87607,-0.07704 -9.76452,-0.34171 -14.6318,-0.3708c-0.38492,-0.13161 -0.74273,-0.27769 -1.07549,-0.43728c-0.05763,0.94284 0.08197,1.91941 0.33331,2.90394c0.38838,0.89158 0.76389,1.78978 1.11271,2.70121c0.84451,2.5922 1.29678,3.7503 3.45953,5.50253c0.5034,0.40785 1.23543,0.51648 1.66666,1c0.77077,0.86424 2.31772,1.88271 1.84852,2.94141c-0.3778,0.85247 -1.74052,1.38497 -3.36391,1.72605c2.77345,9.30273 5.33325,18.65621 9.51906,27.46224c1.21391,2.55497 2.21912,4.7718 3.05581,7.47881l0.45108,1.466c0,0 0.44113,1.43367 -0.99254,1.8748c-1.43367,0.44113 -1.8748,-0.99254 -1.8748,-0.99254l-0.45108,-1.466c-0.78971,-2.57907 -1.7403,-4.63659 -2.89818,-7.07364c-4.31472,-9.08544 -6.93384,-18.73079 -9.80841,-28.31924c-1.53648,0.14632 -2.93311,0.19587 -3.63458,0.24723c-3.08889,0.22618 -6.92825,1.01142 -10.00506,0.65263c-7.87758,-0.91863 -7.40508,-13.63106 -8.60714,-19.23441c-1.59718,-7.4601 -3.16689,-15.39895 -2.89738,-23.2049c-0.18317,0.07968 -0.38534,0.12387 -0.59783,0.12387c-0.41422,0 -0.78922,-0.16789 -1.06066,-0.43934l-1.84898,-1.84898c-1.3222,-0.75171 -2.70568,-1.38593 -4.1943,-1.6827c-4.88982,-0.97483 -10.90066,-0.02898 -15.89606,-0.02898c-2,0 -4.00523,0.1446 -6,0c-1.02798,-0.07452 -2.42788,0.37422 -3.06066,-0.43934c-0.54691,-0.70317 -0.43934,-5.89556 -0.43934,-7.06066c0,-5.61502 0.22496,-11.26799 -0.24396,-16.86507c-1.08304,-12.99653 -2.7127,-25.89092 -3.75531,-38.83725c-1.65106,0.83089 -3.93435,1.02264 -5.31746,1.19109c-1.9825,0.24144 -4.00483,0.37808 -6.05048,0.44415c0.2468,1.61722 0.51288,3.23302 0.80636,4.84715c0.67454,3.71555 1.7767,7.30433 2.54315,10.99671c0.39261,1.89141 0.35048,3.87745 0.93075,5.71996c0.83814,2.66132 3.30685,6.51855 5.46401,8.2864c0.80443,0.65925 2.39261,0.75811 2.55934,1.78472c0.60666,3.73528 -2.82143,4.04862 -4.9589,4.85557c-7.66358,2.89321 -15.21146,5.49495 -23.4036,6.41093c-8.74924,0.97214 -17.22935,1.61435 -26.00935,1.66271c-0.04107,0.00293 -0.06455,0.00293 -0.06455,0.00293c-0.06651,0 -0.13308,-0.00057 -0.19971,-0.00166c-0.26648,0.0011 -0.53323,0.00166 -0.80029,0.00166c-0.49755,0 -0.99793,0.00526 -1.49993,0.01238c0.00012,1.34566 0.00038,2.69133 0.0007,4.037c0.71981,-0.25896 1.39923,0.25062 1.39923,0.25062c3.5077,2.63078 7.25561,4.54955 10.90906,6.9369c4.98433,3.25701 9.21046,6.50594 14.88907,8.55825l0.81293,0.2946c0,0 1.41026,0.51106 0.89919,1.92131c-0.51106,1.41026 -1.92132,0.8992 -1.92132,0.8992l-0.81293,-0.2946c-5.88574,-2.13837 -10.31853,-5.47233 -15.48507,-8.85256c-3.57272,-2.33747 -7.23928,-4.24095 -10.68943,-6.76567c0.00168,6.46542 0.00314,12.93084 -0.00529,19.39624c0.77119,5.34847 1.70279,10.75835 2.38074,16.14141c3.04699,2.06107 6.15092,3.5553 9.54281,5.50194c4.31788,2.47807 7.74776,5.40845 12.86459,5.88378l0.86515,0.08667c0,0 1.49253,0.14952 1.34301,1.64205c-0.14952,1.49253 -1.64205,1.34301 -1.64205,1.34301l-0.86515,-0.08667c-5.61379,-0.59717 -9.3126,-3.543 -14.05883,-6.2669c-2.66722,-1.53075 -5.17518,-2.80897 -7.61562,-4.28089c0.06628,0.6655 0.12716,1.33026 0.18183,1.99412c0.05701,0.69228 0.17978,5.92754 -0.70411,6.42378c-1.65407,0.92865 -3.67719,-1.44801 -5.13322,-1.8161c-4.55956,-1.15269 -9.23598,-0.04737 -11.31373,4.21094l0.15836,0.32918c0,0 0,1.5 -1.5,1.5c-1.5,0 -1.5,-1.5 -1.5,-1.5l0.15836,-1.67082c2.4466,-4.79899 5.26653,-5.82918 10.34164,-5.82918c2.29998,0 4.44257,-0.38297 6.43991,0.99107c-0.0383,-0.77415 0.12973,-1.56676 0.06739,-2.34326c-0.13119,-1.63385 -0.78188,-3.19362 -0.97994,-4.8195c-0.49644,-0.37232 -0.99205,-0.76299 -1.48763,-1.17598c0,0 -1.15233,-0.96028 -0.19205,-2.11261c0.4295,-0.5154 0.89741,-0.60818 1.28346,-0.55328c-0.47123,-4.45945 -0.99437,-8.91039 -1.62736,-13.38011c-0.00878,-7.22641 -0.00558,-14.45285 -0.00425,-21.67928c-1.06115,0.43467 -1.7476,-0.59501 -1.7476,-0.59501c-0.64622,-0.99813 -1.1532,-1.90353 -1.51066,-2.78433c-1.3877,1.01754 -2.7,2.26882 -3.90729,3.09362c-3.11579,2.12867 -6.84685,3.90446 -9.07092,6.98764c0.14205,0.21136 0.23694,0.49374 0.23694,0.87102c0,1.5 -1.5,1.5 -1.5,1.5l-2.34164,-2.17082c2.37165,-4.61624 6.83943,-6.8339 10.98329,-9.66494c1.10026,-0.75168 2.19588,-1.69307 3.33774,-2.57395c-1.99897,-1.72321 -1.44936,-4.03539 -1.81754,-6.24409c-0.49225,-2.95297 -1.92091,-5.62777 -2.62471,-8.51445c-0.63761,-2.61514 -0.69967,-5.54265 -1.03293,-8.211c-0.95102,-8.55827 -3.32082,-16.42861 -4.977,-24.83627c-0.54852,-2.78459 -0.52481,-5.71075 -1.1612,-8.47467c-1.18029,-5.12609 -2.98659,-9.40893 -2.59819,-14.29244c-0.22652,-0.00201 -0.45405,-0.0078 -0.68273,-0.01772c-0.99091,-0.043 -2.22706,0.38328 -2.96206,-0.2827c-1.69912,-1.53957 -1.59556,-4.18806 -1.62293,-6.19907c-0.06356,-4.67034 -0.00011,-9.34704 -0.00011,-14.01786c0,-0.62569 -0.14209,-5.5196 0.43934,-6.06066c1.52484,-1.41898 5.13768,0.09595 6.47409,0.62079c5.22447,2.05177 10.15222,3.04686 15.70508,3.94456c10.62712,-0.01729 21.25435,-0.00469 31.88149,-0.00469c2.96547,0 6.04316,-0.21435 9,0c1.02798,0.07452 2.33186,-0.28946 3.06066,0.43934c0.7288,0.7288 0.35019,2.03385 0.43934,3.06066c0.30249,3.4843 -0.81613,7.18233 0.84164,10.32918c0.69498,1.44574 1.13091,3.06695 1.15836,4.67082v1c0,0 0,1.5 -1.5,1.5c-1.5,0 -1.5,-1.5 -1.5,-1.5v-1c0.02774,-1.14431 -0.30814,-2.31647 -0.84164,-3.32918c-1.53961,-3.20274 -1.15836,-6.15463 -1.15836,-9.67082c0,-0.66666 -0.09855,-1.34066 0,-2c0.0511,-0.34187 0.68376,-0.69491 0.43934,-0.93934c-0.24442,-0.24443 -0.5958,0.40102 -0.93934,0.43934c-2.89981,0.32341 -6.08015,0 -9,0c-10.70615,0 -21.41237,0.0114 -32.11851,-0.00469c-4.86325,-0.76627 -9.83726,-1.26869 -14.44887,-3.10676c-1.5629,-0.62293 -3.10899,-1.28753 -4.67289,-1.90792c-0.25268,-0.10024 -0.57748,-0.6631 -0.69907,-0.41997c-0.15461,0.30917 0.40103,0.5958 0.43934,0.93934c0.11084,0.99384 0,2 0,3c0,4.66037 -0.02769,9.32185 -0.00011,13.98214c0.00288,0.48671 -0.05061,3.35825 0.37707,3.80093c0.28586,0.29588 0.79089,-0.2541 1.20126,-0.28342c0.41575,-0.0297 0.82693,-0.06069 1.23477,-0.09333c0.07913,-0.29065 0.16696,-0.58411 0.26398,-0.88065c0,0 0.47434,-1.42302 1.89736,-0.94868c0.96163,0.32055 1.05682,1.07431 1.01745,1.5294c1.44319,-0.15949 2.88521,-0.35391 4.3845,-0.60127c8.70788,-0.01425 17.41583,-0.00511 26.12372,-0.00511c4.22473,0 8.02918,0.48059 12.18327,1.01124c1.08839,0.13904 2.23447,-0.23013 3.29107,0.06574c0.36825,0.10312 4.11059,3.02785 4.26055,3.11538c1.55033,0.90483 3.41406,1.15916 5,2c1.00287,0.5317 1.8868,1.25148 2.76511,1.97984v-0.67219c0,-0.82843 0.67157,-1.5 1.5,-1.5c0.82843,0 1.5,0.67157 1.5,1.5v2.92285c0.02459,0.17691 0.049,0.35381 0.07326,0.53071c3.63798,3.62996 7.31472,7.29524 10.96121,10.79247c0.18588,0.17828 1.39927,0.93576 2.57059,1.68007c-0.37252,-5.62405 -0.60506,-11.26189 -0.60506,-16.9261c0.03806,-1.19134 -0.34916,-2.47582 0.11418,-3.57403c1.02604,-2.43193 2.75351,-2.60688 4.63293,-3.72334c2.31656,-1.37615 4.65129,-3.27181 7.25559,-4.1178c4.20136,-1.36479 8.95747,-1.52903 13.31124,-2.07325c9.60982,-1.20123 19.14181,-2.27961 28.68651,-3.94692c9.26513,-1.84824 18.94793,-3.57844 28.40634,-4.06176c1.97922,-0.10114 3.97325,0.19968 5.9454,0.0044c2.92434,-0.28957 5.13503,-1.14523 8.1478,-1.0073c0.96264,0.04407 2.15566,-0.35577 2.87707,0.28313c0.97006,0.85911 1.03523,2.37695 1.49464,3.58858c1.37422,3.62428 2.12777,7.4878 3.07668,11.23819c2.99027,10.46365 6.00629,20.999 7.74071,31.76543c1.56238,9.69846 2.178,19.58777 3.56862,29.32208c0.96372,6.74603 1.62713,13.42223 1.7156,20.23794c0.02209,1.70195 0.83605,6.87661 -0.41265,8.12531c-0.58143,0.58143 -5.39581,0.43934 -6.06066,0.43934c-3.66666,0 -7.33334,0 -11,0c-0.13085,0 -0.98088,0.01228 -1.99261,0.00896c0.99572,6.00762 0.58717,12.56946 1.0732,18.40575c0.06236,3.65248 0.67574,7.43477 0.4194,11.06643c-0.073,1.03433 0.2919,2.34435 -0.43933,3.07952c-0.72684,0.73075 -2.03276,0.36376 -3.06066,0.43935c-2.06845,0.15211 -3.96502,-0.25027 -6,-0.33333c-1.02533,-0.04185 -2.18426,0.31939 -3.07238,-0.1947c-0.29459,-0.17052 -0.5395,-0.34377 -0.74288,-0.52013c-0.42373,0.07027 -0.87509,0.08664 -1.32645,0.0833c0.94353,3.05664 2.54214,3.79794 4.70909,6.24826c2.6045,2.9451 5.06305,6.35962 7.11171,9.71202c5.50805,9.01329 9.15196,18.90382 12.18701,28.96937c1.51844,5.03731 2.74204,10.67639 6.16703,14.78107l1.20019,0.88748c0,0 1.2,0.9 0.3,2.1zM620.76217,339.13998c0,0 0.52669,-1.40449 1.93118,-0.87781c1.40449,0.52669 0.87781,1.93118 0.87781,1.93118c-0.1653,0.42861 -0.29937,0.85872 -0.40539,1.29004c0.77926,-0.00846 1.55843,-0.01314 2.33692,0.01661c0.52556,0.02008 1.62599,0.3123 2.21353,0.38597c0.00294,-0.14706 0.00842,-0.29646 0.0137,-0.44833c-3.12596,-3.02117 -4.18027,-7.6382 -5.55294,-11.66294c-2.36216,-6.92599 -4.26927,-13.4231 -4.72136,-20.74707c-0.21076,-3.43448 0.01177,-6.86438 -0.12101,-10.29862c-0.00172,-0.04467 -0.00329,-0.09006 -0.00473,-0.13608c-6.54759,0.54767 -13.33567,0.23548 -19.92793,0.03496c-0.09652,0.44684 -0.18741,0.89674 -0.27274,1.34948c0.81511,4.71922 2.04254,9.38271 2.8493,14.10309c0.9426,5.51519 1.40062,11.09081 2.12387,16.63173c0.32292,2.47393 0.06666,6.09405 1.27947,8.42665c0.23043,-0.01168 0.49342,0.03844 0.78895,0.1862c0.82761,0.41381 0.88944,1.08287 0.81532,1.53482c0.22998,0.12964 0.48069,0.23917 0.75413,0.32619c4.81547,-0.0338 9.58523,0.14745 14.3917,0.28517c0.14077,-0.78092 0.34719,-1.55842 0.6302,-2.33122zM604.2921,354.61809c-0.66054,-2.04421 -1.5503,-4.04596 -2.19482,-6.04767c-1.14931,-2.72521 -2.46398,-5.36635 -3.5476,-8.11603c-4.7596,-12.07738 -6.83839,-27.35973 -4.46282,-40.5023c-0.07903,-0.47136 -0.15386,-0.94333 -0.22369,-1.416c-0.80358,-0.01591 -1.60297,-0.02745 -2.39735,-0.03278c-2.13316,3.15365 -4.20547,6.56789 -5.43534,10.06764c-3.79606,10.80217 -1.39966,22.66756 0.89815,33.38149c0.67012,3.13054 1.26229,6.32006 1.72109,9.48935c0.38755,2.67713 0.65585,5.41964 3.25184,6.91722c1.53008,0.88268 1.69405,0.43477 3.81728,0.26439c3.18067,-0.25524 6.41717,-0.274 9.58363,-0.67491c0.01207,-0.00153 0.02453,-0.00325 0.03736,-0.00514c-0.34207,-1.11037 -0.6903,-2.21911 -1.04773,-3.32526zM623.33857,323.25061c1.41606,-0.49476 1.91082,0.92129 1.91082,0.92129l0.58975,1.68814c1.60654,4.31536 4.11543,9.0425 4.81426,13.60752c0.04775,0.31193 -0.00732,0.69832 -0.07116,1.08715c0.255,0.33157 0.43609,0.68268 0.41758,1.08853c-0.01201,0.26324 -0.04061,0.50292 -0.08414,0.72109c1.10811,0.32632 3.80718,0.04496 5.06547,0.14297c0.83709,0.0652 1.68572,-0.11139 2.51886,-0.0073c0.343,0.04285 0.69924,0.68802 0.93934,0.43935c0.24385,-0.25255 -0.39981,-0.60835 -0.43935,-0.95718c-0.10949,-0.96616 0.05476,-1.94623 0.00029,-2.91705c-0.15143,-2.69889 -0.37111,-5.28764 -0.41594,-8.00054c-0.4906,-5.88322 0.01703,-12.62457 -1.12281,-18.64718c-0.38722,-0.03393 -0.66302,-0.07979 -0.75012,-0.14141c-2.02111,-1.42994 -1.67796,-3.32205 -1.71141,-5.27598c0.00206,-0.51449 -0.0219,-1.0013 -0.06601,-1.46872c-1.9959,-3.12695 -5.18553,-6.03715 -8.56655,-8.38383c-1.92669,0.48657 -3.8961,0.84696 -5.89529,1.10999c0.3179,3.50519 -0.22059,7.39105 -0.02221,10.58537c0.30095,4.87558 1.23082,9.76673 2.5773,14.54693c0.0918,-0.05172 0.19513,-0.09852 0.31133,-0.13912zM617.44062,290.77625c0.55709,-1.39272 1.9498,-0.83562 1.9498,-0.83562c2.33772,0.94286 4.94348,2.29863 7.49411,3.9613c1.48163,-0.38049 4.45612,-0.55604 5.79388,-1.88752c-0.43869,-1.52889 -0.94726,-3.03808 -1.49177,-4.53705c-0.2912,-0.10458 -0.56933,-0.22667 -0.77285,-0.44288c-1.75315,-1.8625 -2.82786,-5.58704 -3.80167,-7.90103c-0.10739,-0.25518 -0.21283,-0.51065 -0.31634,-0.76638c-3.55895,0.92984 -7.17253,1.2869 -10.8645,-0.05979c-2.96944,-1.08314 -6.67055,-3.05784 -6.07163,-6.92042c0.06392,-0.41223 0.16858,-0.79125 0.30876,-1.14105c0.02655,-0.65586 0.35148,-1.00719 0.69196,-1.19538c2.32879,-2.96524 7.84869,-3.26514 10.51268,-5.5361c0,0 0.61901,-0.51583 1.32772,-0.33769c-0.20723,-1.33551 -0.38191,-2.67676 -0.52821,-4.02346c-0.64575,-1.84182 -1.21676,-3.72436 -1.61038,-5.72577c-1.81552,-4.51008 -3.3592,-9.34665 -4.39994,-14.15661c-0.0769,-0.06856 -0.1513,-0.13855 -0.22291,-0.21015c-1.17851,-1.17851 -1.8127,-2.83034 -3,-4l0.06066,0.43934c0,0 -1.5,0 -1.5,-1.5c0,-1.5 1.5,-1.5 1.5,-1.5l1.86816,0.3983c-0.11616,-0.53158 -0.23051,-1.06354 -0.33757,-1.59691c-0.09489,-0.47275 0.55358,-1.04766 0.25255,-1.42432c-1.01555,-1.27068 -6.00977,0.95395 -7.02346,1.22441c-8.65379,2.30896 -17.27525,4.32672 -26.0617,6.08792c-2.06876,0.45375 -4.14752,0.93689 -6.23557,1.38983c0.11348,0.49042 -0.05791,0.94746 -0.05791,0.94746c-0.89288,2.381 -2.5161,5.23055 -2.92857,7.74095c-0.98531,5.99685 0.39107,13.66962 2.04718,19.96933c-0.08024,-0.45067 -0.04998,-1.19983 0.86768,-1.60768c1.37072,-0.60921 1.97992,0.7615 1.97992,0.7615c0.44354,0.99797 1.00118,2.06534 1.55662,3.15845c1.33727,-0.18545 2.72794,-0.04924 4.406,-0.04924c2.97253,0 6.46276,-0.09218 9.55983,0.76141c0.02477,-0.09511 0.04746,-0.15183 0.04746,-0.15183c2.22561,-4.94995 8.7193,-4.46223 13.47945,-5.25584l2,-0.33333c0,0 1.47959,-0.2466 1.72619,1.23299c0.2466,1.47959 -1.23299,1.72619 -1.23299,1.72619l-2,0.33334c-2.99021,0.49822 -10.159,0.12268 -11.18722,3.41083c0,0 -0.02337,0.05842 -0.07251,0.14656c0.92242,0.51625 1.76927,1.17411 2.50664,2.01224c4.90364,5.57378 -1.76933,12.87172 -7.08851,14.39507c-2.81895,0.80732 -6.09637,0.3869 -8.97861,0.36967c-0.23388,-0.07624 -0.46874,-0.15008 -0.70451,-0.22122c-0.01118,2.85727 -0.03886,5.71575 0.0275,8.56623c0.41657,0.0331 0.8396,0.15278 1.23932,0.04782c0.72091,-0.1893 1.26837,-0.85762 2,-1c0.2233,-0.04346 4.1656,-0.04234 5.73622,-0.04077c0.23838,-0.34523 0.47632,-0.68736 0.7129,-1.02621c0,0 0.86019,-1.22885 2.08904,-0.36865c0.64253,0.44977 0.71393,1.00034 0.63578,1.42333c0.46586,0.00856 0.93333,0.01883 1.40224,0.03042c0.07732,-0.01979 0.16021,-0.03555 0.24907,-0.04665c0.03679,-0.0046 0.07278,-0.00818 0.108,-0.01078c0.00302,-0.01108 0.00604,-0.02218 0.00907,-0.03325c0.78163,-1.56823 1.508,-3.17197 2.07365,-4.83038l1.12867,-1.53717c0,0 0.9,-1.2 2.1,-0.3c1.2,0.9 0.3,2.1 0.3,2.1l-0.87133,1.1295c-0.40471,1.24687 -0.92954,2.4538 -1.49964,3.6365c6.22031,0.20781 12.60818,0.47677 18.76106,-0.05074c-0.17296,-0.74545 -0.48609,-1.41761 -1.06444,-1.8589l-1.19232,0.07698c0,0 -1.5,0 -1.5,-1.5c0,-1.5 1.5,-1.5 1.5,-1.5l2.141,0.07698c0.12102,0.09031 0.23809,0.18293 0.35135,0.27776c0.01936,-0.12826 0.05637,-0.26542 0.11493,-0.41182zM639.24016,307.47958c0.2855,0.79795 0.52876,1.61477 0.73648,2.44672c0.83109,-0.12169 1.70552,-0.4263 2.52337,-0.4263c3,0 6,0 9,0c1.66666,0 3.34361,-0.18473 5,0c0.34354,0.03832 0.69492,0.68376 0.93934,0.43934c0.24442,-0.24442 -0.40094,-0.59581 -0.43934,-0.93934c-0.18612,-1.66489 -0.00467,-3.35058 -0.02643,-5.02569c-0.08687,-6.68647 -0.74022,-13.23425 -1.6857,-19.85263c-1.38806,-9.71639 -2.00113,-19.58883 -3.56059,-29.26921c-1.71802,-10.66457 -4.71494,-21.0976 -7.67566,-31.46237c-0.94079,-3.71619 -2.02009,-7.37988 -3.02595,-11.06971c-0.18777,-0.68877 0.05584,-1.55636 -0.40273,-2.10352c-0.24796,-0.29586 -0.73784,0.25641 -1.12293,0.28313c-2.7307,0.18948 -5.13374,0.72352 -7.8522,0.9927c-0.45573,0.04513 -5.47922,-0.02451 -6.0546,0.0044c-9.33477,0.46903 -18.8968,2.19295 -28.04115,4.01642c-8.62297,1.50693 -17.20969,2.51786 -25.88918,3.60279c-5.10492,0.63811 -10.74361,0.7236 -15.66559,2.29885c-2.41396,0.77257 -4.60042,2.61525 -6.74441,3.8822c-0.82424,0.48707 -2.95831,1.15372 -3.36707,2.27666c-0.27691,0.76073 0.07612,1.61731 0.11418,2.42597c0,20.43988 3.05007,40.53854 4.74568,60.88579c0.47106,5.68186 0.25432,11.41454 0.25432,17.11421c0,1 0.0886,2.00393 0,3c-0.05872,0.66022 -0.64895,1.31053 -0.43934,1.93934c0.10931,0.32793 0.5958,-0.40103 0.93934,-0.43934c1.98767,-0.22168 4,0 6,0c5.17543,0 11.34028,-0.94326 16.41184,0.07365c2.09789,0.42065 3.9307,0.91264 5.07831,2.26636c-0.08655,-5.18468 -0.71986,-10.2478 -0.97239,-15.4275c-0.20935,-0.06921 -0.39991,-0.17559 -0.56243,-0.33609c-0.74377,-0.73452 -0.41228,-2.05305 -0.51637,-3.09318c-0.19327,-1.93126 -0.22358,-3.88007 -0.49962,-5.80125c-0.50374,-3.52668 -0.56819,-7.37392 -1.39657,-10.82633c-0.67242,-2.80244 -2.22672,-5.43289 -3.04115,-8.20028c-2.10974,-7.16883 -4.22849,-16.94759 -2.97755,-24.42301c0.40703,-2.43239 1.79981,-5.11809 2.77254,-7.49862c-2.63155,0.5111 -5.27715,0.92733 -7.93539,1.13094c0.20794,0.39901 0.33037,1.00585 -0.2524,1.64552c-1.01021,1.10882 -2.11903,0.09862 -2.11903,0.09862l-0.61808,-0.73711l-2.81324,-0.93775c-0.61293,-0.1885 -1.05847,-0.75921 -1.05847,-1.43397c0,-0.82843 0.67157,-1.5 1.5,-1.5h2c6.76991,0.01068 13.49792,-1.80286 20.08179,-3.24665c8.7338,-1.75101 17.30264,-3.75521 25.90447,-6.05047c3.29619,-0.87954 7.14805,-3.05757 10.2306,-0.07995c0.62048,0.59935 0.03835,1.74002 0.25255,2.57568c0.45687,1.7824 0.80732,3.59179 1.12582,5.40403c0.07304,0.41556 0.15052,0.83165 0.23227,1.24803c0.36451,0.11843 0.75037,0.20807 1.04956,0.43246c2.67299,2.00474 4.47668,3.91968 4.62293,7.21687c-0.0001,4.52276 0.14782,8.99766 0.60671,13.41265c1.0721,3.03953 2.33152,5.97753 3.33111,9.15993c0.50933,1.62156 0.53371,3.36554 1,5c0.02751,0.09641 0.05529,0.19273 0.08335,0.28899l1.74673,0.7642c0,0 0.08225,0.03598 0.1977,0.11046c0.69644,-0.24704 1.39147,-0.49194 2.0855,-0.72329l1.3079,-0.43597c0,0 1.42303,-0.47434 1.89737,0.94869c0.47434,1.42302 -0.94868,1.89736 -0.94868,1.89736l-1.3079,0.43597c-1.18917,0.39639 -2.38266,0.82195 -3.58142,1.23201c1.02616,2.82991 2.18413,5.62513 3.24308,8.44833c0.40803,0.15537 0.80532,0.31884 1.04669,0.65974c0.73433,1.03715 1.90511,4.70925 1.21204,6.30091c0.01392,0.05428 0.02775,0.10859 0.04147,0.16294c0.43234,1.7121 0.06331,3.54817 0.39329,5.2829c0.45664,2.40051 1.12729,4.33081 1.45323,6.54371c0.58491,0.97796 1.06955,1.97704 1.432,2.99006zM619.93441,295.30915c0.93872,-0.12297 1.87032,-0.26816 2.79332,-0.43876c-1.32322,-0.7421 -2.62122,-1.37955 -3.8344,-1.89172c0.45516,0.71729 0.79283,1.50041 1.04108,2.33048zM633.40736,298.50422c-0.2026,-1.07344 -0.12464,-2.1873 -0.14876,-3.28429c-0.94925,0.48804 -2.01501,0.77407 -3.10188,1.01842c1.18987,0.93071 2.33322,1.92334 3.39267,2.96563c-0.04943,-0.22816 -0.09699,-0.4611 -0.14203,-0.69976zM583.19936,307.57858c1.11537,-3.18923 2.87417,-6.2925 4.77219,-9.2208c-1.05295,-0.07357 -2.10187,-0.10926 -3.12691,0.10209c-1.28528,0.265 -2.52579,0.95279 -3.81886,1.04006c0.21809,4.29595 0.68494,8.51529 0.8827,12.79134c0.32259,-1.58637 0.74754,-3.15908 1.29089,-4.7127zM599.12766,331.10062c-0.7187,-5.50168 -1.17029,-11.03832 -2.10618,-16.51439c-0.26478,-1.54931 -0.57343,-3.09222 -0.89769,-4.63283c-0.17429,8.01258 1.04165,16.32794 3.28602,23.80969c-0.08278,-0.87835 -0.16566,-1.77086 -0.28214,-2.66246zM620.5633,267.64374c-0.24822,0.14365 -0.53059,0.26789 -0.83779,0.37952c1.30372,0.75045 2.59895,1.49883 3.91134,2.2148c-0.36642,-1.43274 -0.68531,-2.87293 -0.9621,-4.32018c-0.69537,0.58749 -1.32465,1.27054 -2.11145,1.72586zM615.21201,269.2731c0.50243,0.10751 0.99843,0.2332 1.48886,0.37536c-0.16108,-0.17357 -0.32343,-0.41519 -0.37927,-0.71886c-0.37836,0.10258 -0.75153,0.21467 -1.10959,0.3435zM612.30701,271.94647c-0.48475,1.93552 2.96782,3.13059 4.07791,3.51642c2.31767,0.80554 4.59303,0.8575 6.83916,0.51402c-3.41764,-2.08062 -6.91739,-3.82926 -10.8973,-4.10567c-0.00684,0.02487 -0.01343,0.04994 -0.01977,0.07524zM592.59597,281.94357c-2.15226,-1.61168 -4.24201,-2.98108 -6.14992,-4.87625c-0.13196,-0.13032 -0.23988,-0.28493 -0.31649,-0.45658c-0.2011,-0.40762 -0.32211,-1.03951 0.30978,-1.6714c0.63189,-0.63189 1.26378,-0.51088 1.6714,-0.30978c0.17158,0.07658 0.32614,0.18443 0.45642,0.31632c1.8284,1.83871 3.89149,3.14929 5.97019,4.71055l0.94523,0.90371c1.11693,-1.68742 1.43837,-3.60305 -0.14277,-5.27603c-3.0859,-3.26514 -8.53571,-2.78411 -12.50648,-2.78411c-0.99042,0 -2.05768,-0.15489 -3.06873,-0.14119c0.22366,0.52818 0.42431,1.05379 0.58925,1.57207c0.21461,0.08419 0.35134,0.18185 0.35134,0.18185c1.53123,1.09456 3.02725,2.24107 4.47298,3.4463l2.04915,2.04697c0,0 1.06066,1.06066 0,2.12132c-1.06066,1.06066 -2.12132,0 -2.12132,0l-1.95084,-1.95303c-0.79168,-0.65947 -1.60068,-1.29854 -2.4228,-1.92026c0.04788,1.54087 0.09249,3.14143 0.09783,3.3238c0.03547,1.21155 0.05222,2.42462 0.05874,3.63852c0.39825,0.11296 0.79344,0.23602 1.18468,0.36968c2.45494,-0.01723 5.29174,0.38557 7.68806,-0.29699c1.0584,-0.30147 2.45487,-1.07737 3.6958,-2.11775zM575.26667,270.8c0.11514,-0.08006 0.22941,-0.1555 0.34292,-0.22657c-0.53285,-1.02826 -1.06564,-2.03124 -1.4803,-2.96422c0,0 -0.00968,-0.02176 -0.02383,-0.06101c0.25478,0.95706 0.51531,1.88076 0.77413,2.76021c0.0648,0.22019 0.13407,0.43943 0.20706,0.6579c0.10166,-0.10753 0.18003,-0.16631 0.18003,-0.16631zM577.69264,275.55713c-0.16752,-0.73617 -0.43953,-1.49804 -0.768,-2.26744c-0.17325,0.09761 -0.48805,0.23928 -0.84899,0.23417c0.67755,1.6127 1.39352,3.21843 1.82344,4.88709c0.02574,-0.96306 0.00596,-1.92034 -0.20646,-2.85382zM621,245c0.11943,-1.49162 -0.62971,-2.46062 -1.66126,-3.2549c0.49261,1.87737 1.0573,3.74611 1.67535,5.58707c-0.00963,-0.77596 -0.01408,-1.55337 -0.01409,-2.33218zM481.91874,293.11903c0.64191,-1.74767 2.06026,-5.86554 5.36986,-4.39501c0.91766,0.40774 0.84956,4.43325 0.7654,6.75851c0.37281,0.00775 0.74357,0.01389 1.11116,0.01632c0.30926,0.0001 0.5838,0.00034 0.80369,0.00056c8.88366,-0.02191 17.43414,-0.66454 26.27377,-1.64672c5.81829,-0.64217 11.62139,-2.08093 17.12986,-4.06112c0.27805,-0.09995 5.34692,-2.10708 5.58205,-2.18836c0.79008,-0.2731 1.6254,-0.40701 2.40769,-0.70168c0.26327,-0.09916 0.90778,-0.27825 0.70138,-0.4694c-0.35624,-0.32993 -1.03755,0.05539 -1.44066,-0.21528c-0.90433,-0.60719 -1.65,-1.44365 -2.31499,-2.30638c-5.20787,-6.75633 -6.32708,-16.39238 -7.8204,-24.59377c-0.32289,-1.77587 -0.61411,-3.5538 -0.8835,-5.33348c-6.38536,0.01549 -12.91619,-0.48324 -19.10404,-0.48324c-5,0 -10,0 -15,0c-2.85019,0 -6.56746,0.55408 -9.34463,-0.04012c-3.61361,-0.77317 -6.36064,-4.68557 -8.55101,-7.24035c-2.6279,-3.0651 -5.30909,-5.97583 -7.88184,-9.03403c0.37316,1.28267 0.75379,2.59081 1.06701,3.95117c0.64507,2.80159 0.62697,5.75816 1.18325,8.57887c1.67192,8.47777 4.05166,16.42073 5.01077,25.05363c0.31992,2.56106 0.3625,5.39094 0.97931,7.89909c0.72476,2.94713 2.14938,5.66103 2.65779,8.68237c0.23953,1.42342 -0.44611,3.37913 0.60478,4.31685c0.12329,-0.78307 0.35265,-1.62097 0.69331,-2.54844zM484.99997,300.00667c0.00002,-0.33556 0.00003,-0.67111 0.00003,-1.00667c0,-0.1499 0,-0.29979 0,-0.44969c-0.16484,0.00038 -0.32959,0.00023 -0.49421,-0.00056c-0.05363,0.01614 -0.10717,0.03317 -0.16065,0.05103c0.1463,0.44837 0.36324,0.9056 0.65483,1.40589zM485,294c0,-0.15112 -0.00583,-0.32573 -0.01173,-0.51211c-0.08768,0.20947 -0.17084,0.42059 -0.24278,0.63585c-0.15843,0.47403 -0.28828,0.90465 -0.38818,1.30338c0.21377,-0.00225 0.42807,-0.00281 0.64269,-0.00206c0,-0.47502 0,-0.95005 0,-1.42507zM468.7,231.1c3.51155,4.68242 7.39588,8.75967 11.18093,13.16575c1.6633,1.93621 4.11327,5.75975 6.96371,6.27437c2.62942,0.47472 5.97748,-0.04012 8.65537,-0.04012c5,0 10,0 15,0c6.20074,0 12.40148,0 18.60223,0c-0.67083,-4.87696 -1.22604,-9.76545 -1.86705,-14.65892c-0.24152,-0.23431 -0.48097,-0.47018 -0.71798,-0.7079c-2.91389,-2.17948 -5.68018,-3.04185 -8.75208,-4.82554c-1.3614,-0.79049 -2.20682,-2.52498 -3.73945,-2.88462c-0.87936,-0.20635 -1.81192,0.17168 -2.70893,0.06574c-5.04282,-0.59556 -9.69046,-0.98876 -14.81673,-0.98876c-7.62541,0 -15.25088,0.00844 -22.87628,-0.00511c-1.81379,0.30561 -3.57467,0.65202 -5.35939,0.85326c-0.13732,1.14248 -0.12678,2.25296 -0.01603,3.34847c0.28523,0.18141 0.4517,0.40338 0.4517,0.40338zM532.5,250.5c1.93891,0 3.89268,0.25088 5.81673,0.01124c0.96032,-0.11961 1.86035,-0.55039 2.81439,-0.71261c0.64826,-0.11023 2.52351,-0.01011 1.94586,-0.32429c-0.39285,-0.21366 -0.92975,0.02276 -1.32986,-0.17697c-1.88498,-0.94097 -3.15019,-2.80382 -4.61883,-4.31435c-2.02211,-2.07978 -4.25541,-4.01501 -6.45889,-5.97849c0.48459,3.83651 0.93746,7.66945 1.46585,11.49546c0.12158,0 0.24316,0 0.36475,0z" fill="#000000" stroke="none" stroke-width="0.5"/></g></g></svg>