<svg version="1.1" xmlns="http://www.w3.org/2000/svg" xmlns:xlink="http://www.w3.org/1999/xlink" width="740.75" height="427.5" viewBox="0,0,740.75,427.5"><g transform="translate(49.25,33.75)"><g data-paper-data="{&quot;isPaintingLayer&quot;:true}" fill-rule="nonzero" stroke-linejoin="miter" stroke-miterlimit="10" stroke-dasharray="" stroke-dashoffset="0" style="mix-blend-mode: normal"><path d="M582.90552,162.08626l5.2644,-21.93468" fill="none" stroke="#000000" stroke-width="2" stroke-linecap="round"/><path d="M575.08202,161.91236l7.00397,-25.41895l16.94596,4.66931l-7.00397,25.41895z" fill="#000000" stroke="#000000" stroke-width="2" stroke-linecap="butt"/><path d="M577.06312,160.47643l5.68438,-20.62987l13.63045,3.75575l-5.68438,20.62987z" fill="#ff0000" stroke="#000000" stroke-width="2" stroke-linecap="butt"/><path d="M574.98051,162.28075l2.03014,-7.36781l16.20919,4.4663l-2.03014,7.36781z" fill="#ffffff" stroke="#000000" stroke-width="2" stroke-linecap="butt"/><path d="M-49,393.5v-132h729v132z" fill="#8a2f00" stroke="#000000" stroke-width="0.5" stroke-linecap="butt"/><path d="M-47,265.5v-299h724v299z" fill="#ff8c52" stroke="#000000" stroke-width="0.5" stroke-linecap="butt"/><path d="M554.5,156v-137h137v137z" fill="#000000" stroke="none" stroke-width="0" stroke-linecap="butt"/><path d="M573.5,138v-105h98v105z" fill="#ffffff" stroke="none" stroke-width="0" stroke-linecap="butt"/><path d="M574.30186,101.45068l12.58685,-45.68043l49.36435,13.60191l-12.58685,45.68043z" fill="#000000" stroke="#000000" stroke-width="2" stroke-linecap="butt"/><path d="M581.14619,137.02718l11.36876,-41.25975l17.68275,4.87233l-11.36876,41.25975z" fill="#000000" stroke="#000000" stroke-width="2" stroke-linecap="butt"/><path d="M576.92509,123.57693l5.48137,-19.89309l9.20977,2.53767l-5.48137,19.89309z" fill="#000000" stroke="#000000" stroke-width="2" stroke-linecap="butt"/><path d="M577.95954,99.68401l10.96274,-39.78619l44.20687,12.18082l-10.96274,39.78619z" fill="#fff7bd" stroke="#000000" stroke-width="2" stroke-linecap="butt"/><path d="M582.62886,82.73804l5.8874,-21.36666l13.63045,3.75575l-5.8874,21.36666z" fill="#1d1b14" stroke="none" stroke-width="0" stroke-linecap="butt"/><path d="M612.90681,87.22695l5.33019,-19.34445l14.36724,3.95877l-5.33019,19.34445z" fill="#1d1b14" stroke="none" stroke-width="0" stroke-linecap="butt"/><path d="M585.46388,70.12312l2.84219,-10.31493l44.20687,12.18082l-2.84219,10.31493z" fill="#1d1b14" stroke="none" stroke-width="0" stroke-linecap="butt"/><path d="M580.84168,141.61055l9.13561,-36.63336l18.05114,5.49562l-9.13561,36.63336z" fill="#ffffff" stroke="#000000" stroke-width="2" stroke-linecap="butt"/><path d="M578.5492,117.68268l3.55274,-12.89367l8.84138,2.43616l-3.55274,12.89367z" fill="#ffffff" stroke="#000000" stroke-width="2" stroke-linecap="butt"/><path d="M577.19197,124.04682l1.72562,-6.26264l7.7362,2.13164l-1.72562,6.26264z" fill="#fff7bd" stroke="#000000" stroke-width="2" stroke-linecap="butt"/><path d="M594.85861,79.57281l2.74496,-9.96207l5.62375,1.54958l-2.74496,9.96207z" fill="#1d1b14" stroke="none" stroke-width="0" stroke-linecap="butt"/><path d="M598.81339,76.51344l1.46103,-5.3024l4.65968,1.28393l-1.46103,5.3024z" fill="#1d1b14" stroke="none" stroke-width="0" stroke-linecap="butt"/><path d="M608.30983,78.43859l1.32821,-4.82036l7.71257,2.12513l-1.32821,4.82036z" fill="#1d1b14" stroke="none" stroke-width="0" stroke-linecap="butt"/><path d="M610.47727,82.49337l2.74496,-9.96207l4.17764,1.15111l-2.74496,9.96207z" fill="#1d1b14" stroke="none" stroke-width="0" stroke-linecap="butt"/><path d="M577,154.25v-13h32.5v13z" fill="#000000" stroke="none" stroke-width="0" stroke-linecap="butt"/><path d="M631.76976,116.20818l-23.38344,9.44761l-4.86695,-12.04601l23.38344,-9.44761z" fill="#000000" stroke="#000000" stroke-width="2" stroke-linecap="butt"/><path d="M621.66845,119.29201l-12.36362,5.09996l-4.22568,-10.24414l12.36362,-5.09996z" fill="#ffffff" stroke="#000000" stroke-width="2" stroke-linecap="butt"/><path d="M618.02547,109.79935l6.58872,-3.04964l3.85218,8.32259l-6.58872,3.04964z" fill="#fff7bd" stroke="#000000" stroke-width="2" stroke-linecap="butt"/><path d="M594.18082,90.18245l1.66595,-5.16242l0.78771,0.21167l-1.66594,5.16242z" fill="#000000" stroke="#000000" stroke-width="2" stroke-linecap="butt"/><path d="M595.82962,85.79658l0.31632,-0.98021l5.65722,1.52024l-0.31632,0.98021z" fill="#000000" stroke="#000000" stroke-width="2" stroke-linecap="butt"/><path d="M599.1685,90.88365l1.53942,-4.77035l1.00254,0.26941l-1.53941,4.77034z" fill="#000000" stroke="#000000" stroke-width="2" stroke-linecap="butt"/><path d="M605.18082,93.51579l1.81165,-5.16242l0.85661,0.21167l-1.81165,5.16242z" fill="#000000" stroke="#000000" stroke-width="2" stroke-linecap="butt"/><path d="M606.97383,89.12992l0.34399,-0.98021l6.15201,1.52024l-0.34399,0.9802z" fill="#000000" stroke="#000000" stroke-width="2" stroke-linecap="butt"/><path d="M610.60473,94.21698l1.67406,-4.77035l1.09023,0.26941l-1.67405,4.77034z" fill="#000000" stroke="#000000" stroke-width="2" stroke-linecap="butt"/><path d="M625.68086,108.95597l5.34738,-8.45018l2.95756,1.87158l-5.34738,8.45018z" fill="#fff7bd" stroke="#000000" stroke-width="2" stroke-linecap="butt"/><path d="M639.29006,111.61226l-9.59942,2.80196l-0.98069,-3.3598l9.59943,-2.80197z" data-paper-data="{&quot;index&quot;:null}" fill="#fff7bd" stroke="#000000" stroke-width="2" stroke-linecap="butt"/><path d="M201.5,189v-128h225v128z" fill="#000000" stroke="none" stroke-width="0" stroke-linecap="butt"/><path d="M576.97964,83.16208l6.73459,-29.89035l19.25889,4.33922l-6.73459,29.89036z" fill="#1d1b14" stroke="none" stroke-width="0" stroke-linecap="butt"/><path d="M612.90205,87.44716l5.70511,-25.3212l20.28476,4.57036l-5.70511,25.3212z" fill="#1d1b14" stroke="none" stroke-width="0" stroke-linecap="butt"/><path d="M584.13105,73.44939l5.13069,-22.77173l44.73296,10.07878l-5.13069,22.77173z" fill="#1d1b14" stroke="none" stroke-width="0" stroke-linecap="butt"/><path d="M594.5124,80.65421l2.27126,-10.08063l5.69068,1.28217l-2.27126,10.08063z" fill="#1d1b14" stroke="none" stroke-width="0" stroke-linecap="butt"/><path d="M597.94709,76.44415l1.2089,-5.3655l4.71513,1.06237l-1.2089,5.3655z" fill="#1d1b14" stroke="none" stroke-width="0" stroke-linecap="butt"/><path d="M610.55807,79.4858l1.099,-4.87772l7.80436,1.7584l-1.099,4.87772z" fill="#1d1b14" stroke="none" stroke-width="0" stroke-linecap="butt"/><path d="M610.93077,85.04852l2.27126,-10.08063l4.22736,0.95247l-2.27126,10.08063z" fill="#1d1b14" stroke="none" stroke-width="0" stroke-linecap="butt"/><path d="M584.43718,57.43982l1.26317,-5.60638l7.70878,1.73686l-1.26317,5.60638z" fill="#1d1b14" stroke="none" stroke-width="0" stroke-linecap="butt"/><path d="M630.65827,68.00117l1.32633,-5.8867l5.32607,1.20001l-1.32633,5.8867z" fill="#1d1b14" stroke="none" stroke-width="0" stroke-linecap="butt"/><path d="M591.8081,52.17866l0.41053,-1.82206l38.96436,8.77905l-0.41053,1.82206z" fill="#1d1b14" stroke="none" stroke-width="0" stroke-linecap="butt"/><path d="M577.52748,86.14638l1.23159,-5.46622l11.35292,2.55793l-1.23159,5.46622z" fill="#1d1b14" stroke="none" stroke-width="0" stroke-linecap="butt"/><path d="M619.6818,91.22593l0.69475,-3.08351l11.0726,2.49477l-0.69475,3.08351z" fill="#1d1b14" stroke="none" stroke-width="0" stroke-linecap="butt"/><path d="M174.5,205v-159h279v159z" fill="none" stroke="#ffc4a6" stroke-width="2" stroke-linecap="butt"/><path d="M203.5,295l-5,-55c0,0 35.03567,3.28292 45.33609,-4.51763c13.3188,-10.08637 6.42411,-9.98423 14.83991,-11.51437c10.81689,-1.96671 26.50434,1.56651 48.84658,1.79175c14.37233,0.14489 28.02574,1.23685 42.36135,-2.6328c12.20904,-3.29561 10.80361,-0.36746 26.24391,14.39907c1.53023,1.46346 31.01966,-2.09432 32.45705,-0.69511c7.95531,7.74395 12.9151,58.16909 12.9151,58.16909z" fill="#ff0000" stroke="#ffc4a6" stroke-width="2" stroke-linecap="butt"/></g></g></svg>