<svg version="1.1" xmlns="http://www.w3.org/2000/svg" xmlns:xlink="http://www.w3.org/1999/xlink" width="150.16906" height="69.84928" viewBox="0,0,150.16906,69.84928"><defs><linearGradient x1="259.22725" y1="179.87877" x2="391.92517" y2="179.87877" gradientUnits="userSpaceOnUse" id="color-1"><stop offset="0" stop-color="#ffffff"/><stop offset="1" stop-color="#1a1a1a"/></linearGradient><linearGradient x1="325.57622" y1="152.35624" x2="325.57622" y2="207.4013" gradientUnits="userSpaceOnUse" id="color-2"><stop offset="0" stop-color="#000000"/><stop offset="1" stop-color="#ffffff"/></linearGradient><linearGradient x1="270.03446" y1="179.8959" x2="367.06186" y2="179.8959" gradientTransform="translate(-709.6838,-484.32607) scale(2.62812,2.62812)" gradientUnits="userSpaceOnUse" id="color-3"><stop offset="0" stop-color="#1a1a1a"/><stop offset="1" stop-color="#ffffff"/></linearGradient></defs><g transform="translate(-249.52191,-145.07536)"><g data-paper-data="{&quot;isPaintingLayer&quot;:true}" fill-rule="nonzero" stroke-linecap="butt" stroke-linejoin="miter" stroke-miterlimit="10" stroke-dasharray="" stroke-dashoffset="0" style="mix-blend-mode: normal"><path d="M259.22725,207.4013c0,0 -9.45534,-20.40517 -9.45534,-29.94697c0,-8.73523 9.45534,-25.09808 9.45534,-25.09808c0,0 41.22643,-7.03089 62.59108,-7.03089c22.77746,0 70.10686,7.03089 70.10686,7.03089c0,0 7.51578,14.87605 7.51578,23.15853c0,9.80705 -7.51578,31.88653 -7.51578,31.88653c0,0 -47.47229,7.27333 -70.10685,7.27333c-21.54423,0 -62.59108,-7.27333 -62.59108,-7.27333z" fill="url(#color-1)" stroke="url(#color-2)" stroke-width="0.5"/><text transform="translate(270.03468,184.28607) scale(0.3805,0.3805)" font-size="40" xml:space="preserve" fill="url(#color-3)" fill-rule="nonzero" stroke="none" stroke-width="1" stroke-linecap="butt" stroke-linejoin="miter" stroke-miterlimit="10" stroke-dasharray="" stroke-dashoffset="0" font-family="Pixel" font-weight="normal" text-anchor="start" style="mix-blend-mode: normal"><tspan x="0" dy="0">Click to start.</tspan></text></g></g></svg>