<svg version="1.1" xmlns="http://www.w3.org/2000/svg" xmlns:xlink="http://www.w3.org/1999/xlink" width="775.5" height="476.5" viewBox="0,0,775.5,476.5"><g transform="translate(99.75,65.75)"><g data-paper-data="{&quot;isPaintingLayer&quot;:true}" fill-rule="nonzero" stroke-linecap="butt" stroke-linejoin="miter" stroke-miterlimit="10" stroke-dasharray="" stroke-dashoffset="0" style="mix-blend-mode: normal"><text transform="translate(179.5,167) scale(0.5,0.5)" font-size="40" xml:space="preserve" fill="#000000" fill-rule="nonzero" stroke="none" stroke-width="1" stroke-linecap="butt" stroke-linejoin="miter" stroke-miterlimit="10" stroke-dasharray="" stroke-dashoffset="0" font-family="Pixel" font-weight="normal" text-anchor="start" style="mix-blend-mode: normal"><tspan x="0" dy="0">placeholderrr</tspan></text><path d="M-99.5,410.5v-476h775v476z" fill="#000000" stroke="#000000" stroke-width="0.5"/><path d="M307.5,341c-2.5,0 -2.5,-2.5 -2.5,-2.5v-2c0,-2.5332 0.38445,-5.09094 0.03228,-7.59954c-0.29308,-2.08771 -1.65445,-3.92033 -2,-6c-0.01043,-0.0628 -0.01767,-0.46404 -0.02265,-1.03811c-2.52478,-0.53011 -4.98871,-1.19216 -7.34607,-2.00643c-1.40902,-0.4867 -2.5982,-1.49288 -4,-2c-3.68508,-1.33314 -7.65298,-1.37818 -11.43341,-1.87053c-8.10714,-1.05584 -16.10273,-3.34335 -24.28794,-3.874c-0.17676,6.53117 -0.57858,13.21738 1.51064,19.34146l0.41886,1.25658c0,0 0.79057,2.37171 -1.58114,3.16228c-2.37171,0.79057 -3.16228,-1.58114 -3.16228,-1.58114l-0.41886,-1.25658c-2.22175,-6.8005 -1.88762,-13.91009 -1.74946,-21.03229c-8.0455,0.01576 -16.28762,0.10986 -24.23456,-1.12399c-3.32008,-0.51548 -6.55008,-1.50813 -9.85144,-2.13242c-6.06712,-1.14729 -12.14415,-2.11699 -17.62891,-5.08307c-1.14658,-0.62006 -1.8817,-1.81771 -2.94098,-2.57737c-1.44551,-1.03664 -3.21328,-1.61608 -4.54724,-2.7928c-0.88487,-0.78057 -1.31909,-1.95698 -1.96021,-2.94757c-2.87524,-4.44256 -4.97318,-9.05015 -6.67538,-14.07531c-1.26531,-3.7354 -1.77674,-7.48132 -3.37426,-11.1303c-5.6337,-17.00347 -2.59243,-34.93984 -4.03105,-52.47888c-0.61508,-7.49883 -3.32216,-14.93261 -5.46549,-22.25747c-2.67067,1.93957 -5.47959,3.75663 -8.21082,5.47101c-1.08438,0.68066 -2.75218,0.76213 -3.33762,1.90073c-0.62217,1.21002 0.62251,2.76007 0.26599,4.07313c-0.02125,0.07827 -0.0433,0.15625 -0.0661,0.23396l0.03012,0.00602l-0.9715,4.85749c-0.20987,1.16847 -1.23166,2.05512 -2.46053,2.05512c-1.1246,0 -2.07576,-0.74256 -2.38994,-1.76412l-0.98177,-2.94531l0.14665,-0.04888l-0.24266,-0.34123c-0.03465,-5.79715 -0.11313,-11.60365 -0.03228,-17.40046c0.02704,-1.939 -0.4037,-3.95364 0.1369,-5.81594c0.40241,-1.38625 1.73837,-2.30572 2.56434,-3.48953c2.44234,-3.50042 4.74928,-8.44382 8.48443,-10.82116c2.33502,-1.48619 5.60117,-2.34085 8.64448,-3.14121c-0.32226,-1.36221 -0.32028,-2.89821 -0.61814,-4.25314c-0.70844,-3.2227 -1.42352,-6.44425 -2.0819,-9.67754c-3.57567,-17.56001 -2.13012,-35.96795 -2.13012,-53.80148c0,-4.13827 -0.07187,-8.1289 0.56745,-12.2455c0.28284,-1.82123 -0.23054,-4.12027 1.07194,-5.42427c1.52432,-1.5261 4.11468,-1.30107 6.19922,-1.85535c5.76838,-1.53382 11.74016,-0.97488 17.66139,-0.97488c20,0 40,0 60,0c15,0 30,0 45,0c8.6552,0 17.49822,-0.52646 26.13825,0.00383c9.04757,0.5553 18.00515,2.35265 27.04097,3.00261c4.63566,0.33112 9.27798,0.61483 13.9099,0.99516c1.4191,0.11652 3.15231,-0.51255 4.25382,0.38973c1.63873,1.34234 2.07548,3.69481 3.03695,5.58238c2.43694,4.78425 4.31678,9.22137 5.4912,14.45547c1.0181,4.53738 1.86634,9.10524 2.82084,13.64911l4.6368,0.73213l-0.05992,0.3795c4.77721,0.13482 9.48811,0.75195 14.2866,1.87256c3.20085,0.74751 6.2006,2.2962 9.44122,2.84626c4.66262,0.79142 9.95047,0.4272 14.67858,0.63922c9.9706,0.44711 19.95052,1.06605 29.92711,1.34238c4.96557,0.13753 9.97279,-0.13101 14.93168,0.10764c1.64848,0.07934 3.67593,-0.60043 4.92838,0.47434c1.60418,1.37661 1.6291,3.90127 2.44366,5.8519c0.62037,1.36618 4.40688,7.79961 1.965,9.83387c-1.77287,1.47693 -4.56933,0.67867 -6.87102,0.8419c-5.61033,0.39789 -11.3072,-0.1968 -16.93064,-0.00096c-11.6818,0.40682 -23.2754,1.68954 -34.84485,2.99086c-3.28491,0.36948 -6.48061,1.33255 -9.75581,1.77998c-6.04428,0.82572 -12.31664,1.12426 -18.40783,1.1747c-1.1763,0.00481 -2.35815,0.05309 -3.5346,0.1582c-0.00064,1.15925 -0.00525,2.31877 -0.01044,3.4781c0.00076,0.04187 0.00056,0.08303 -0.00055,0.1235c-0.00053,0.11701 -0.00106,0.23401 -0.00159,0.35101c0.08513,0.78575 0.12077,1.56869 -0.00978,2.34213c-0.00235,0.70107 -0.0039,1.40193 -0.0039,2.10248v3c0,0.82104 -0.39579,1.54965 -1.00699,2.00542c0.21542,0.16049 0.33841,0.29284 0.33841,0.29284l1.63946,2.30855c0.05648,1.16886 -0.43819,2.50648 0.16945,3.50657c0.30409,0.5005 1.12211,-0.4649 1.70601,-0.41983c3.26866,0.25228 6.49292,1.58178 9.23864,3.3731c3.02545,3.02545 4.31652,6.0125 6.52745,9.59631c1.74406,2.82704 4.21091,4.11427 5.28031,7.61259c0.55792,1.82512 0.09314,3.81602 0.10727,5.72446c0.03226,4.35598 -0.55852,7.16898 -2.74863,10.93828c-0.9466,1.62914 -1.6507,3.46278 -2.96609,4.81181c-1.28722,1.32014 -3.03513,2.10559 -4.64873,2.99777c-1.9914,1.10107 -3.93117,3.49195 -6.14623,2.97088c-2.19586,-0.51655 -2.77787,-3.55618 -4.10284,-5.38186c-0.16716,-0.23033 -0.32806,-0.46233 -0.48365,-0.69575c-0.49322,4.708 0.24907,9.76255 0.09455,14.44909c-0.18484,5.60616 -1.87242,10.73143 -2.4615,16.21644c-0.52996,4.73826 -0.11203,9.42973 -0.5884,14.13913c-0.33529,3.31467 -1.6361,6.48482 -1.96064,9.80055c-0.16474,1.68311 0.20471,3.39577 -0.00837,5.07344c-0.55256,4.35059 -1.74509,5.36106 -3.10073,9.44939c-0.45577,1.37451 -0.50135,2.88008 -1.07783,4.20849c-3.05425,7.03808 -9.1724,12.2558 -13.30503,18.61593c-2.7198,4.18578 -5.34231,8.46656 -8.17483,12.57665c-1.17271,1.70165 -1.93161,3.84761 -3.62861,5.02704c-1.10681,0.76924 -2.69089,0.16936 -4.03265,0.2976c-2.52332,0.24116 -4.96646,1.06931 -7.36922,1.87682c-5.38878,1.75512 -11.04814,1.4462 -16.69141,1.69156c-6.19682,0.26943 -12.94127,0.10822 -19.49024,-0.81314c0.47994,1.81859 1.58852,3.48314 1.85881,5.34941c0.04206,0.29043 0.03228,7.88143 0.03228,8.40046v2c0,0 0,2.5 -2.5,2.5zM303,316.5c0,0 0,-2.5 2.5,-2.5c2.5,0 2.5,2.5 2.5,2.5c0,0.25168 -0.00619,0.50382 -0.01614,0.75624c0.93706,0.10934 1.86151,0.21018 2.76164,0.31121c2.4013,0.26953 4.69661,1.21889 7.10126,1.45672c3.16659,0.31318 6.35618,-0.31796 9.53522,-0.45618c5.09609,-0.22157 10.48,0.22248 15.32746,-1.4397c3.61617,-1.1964 5.02025,-2.00817 8.63078,-2.12318c0.66291,-0.02112 1.45137,0.71432 1.96735,0.2976c0.9905,-0.79996 1.16447,-2.26669 1.82127,-3.3574c2.57236,-4.27176 5.45641,-8.39592 8.17483,-12.57665c3.94053,-6.06027 10.02351,-11.15332 12.89543,-17.84632c0.51289,-1.19529 0.51511,-2.55617 0.92217,-3.79151c0.99789,-3.02836 2.52598,-5.35202 2.89927,-8.55061c0.19036,-1.63112 -0.17197,-3.29254 -0.00837,-4.92656c0.33226,-3.31849 1.62605,-6.49291 1.96169,-9.81106c0.47695,-4.71518 0.06903,-9.43716 0.59359,-14.18809c0.61462,-5.37378 2.26045,-10.36743 2.43418,-15.84472c0.1836,-5.78852 -1.18962,-12.87585 0.06525,-18.48417c0.19935,-0.89096 0.61371,-1.707 1.06805,-2.50912c-0.46966,-0.79243 -0.98045,-1.57291 -1.56829,-2.33152c-2.1628,-2.79114 -5.61687,-4.73865 -7.6076,-7.51388c-0.12759,3.97039 -0.53603,7.98611 -1.20164,11.92891h0.2426v4c0,1.38071 -1.11929,2.5 -2.5,2.5c-0.69036,0 -1.31536,-0.27982 -1.76777,-0.73223l-2,-2l0.0112,-0.0112l-0.04722,-0.02558c-4.53881,-4.93264 -9.33353,-10.31261 -12.93661,-15.95219c-1.55352,-2.43159 -2.30979,-5.42641 -4.30715,-7.50886c-0.29759,-0.31027 -1.00974,-0.06365 -1.2572,0.2879c-0.74677,1.06089 -0.93462,2.42253 -1.47949,3.59993c-1.9286,4.16752 -4.52948,8.10556 -6.9396,11.99198c-2.07762,0.05332 -4.24186,0.75598 -6.23287,0.15995c-1.41977,-0.42502 -2.2097,-1.97664 -3.27552,-3.0064c-1.96604,-1.8995 -3.57361,-4.14325 -5.21864,-6.32666c-2.78138,-3.69166 -6.62547,-6.70321 -9.19331,-10.55338c-0.59465,-0.89161 -0.69993,-2.06258 -1.33846,-2.92332c-0.25097,-0.33831 0.32388,0.90005 0.10412,1.25941c-0.88921,1.45409 -2.13323,2.66139 -3.27542,3.92649c-1.67373,1.85384 -4.30344,2.58078 -6.20498,4.20012c-0.96257,0.81972 -1.37619,2.12147 -2.08304,3.16973c-1.8636,2.76371 -3.57503,5.6439 -5.66529,8.24042c-1.45923,1.81265 -2.42105,4.57759 -4.66509,5.1935c-1.58657,0.43546 -2.82895,-1.71313 -4.06679,-2.79691c-4.5118,-3.95033 -6.52371,-9.55091 -10.74584,-13.75934c-2.82358,-2.35259 -4.32798,-0.23723 -7.83062,1.32048c-5.55891,2.47218 -10.54877,5.29049 -15.72842,8.46199c-2.79484,1.71129 -7.20399,5.00352 -10.83925,4.34068c-2.06508,-0.37654 -3.52184,-2.30232 -5.13467,-3.64586c-4.03941,-3.36498 -6.03181,-8.02486 -9.64983,-11.64287c-1.09519,-1.09519 -2.57064,-1.74326 -3.73223,-2.76777c-0.84377,-0.74419 -1.25686,-1.99135 -2.25414,-2.51212c-0.36691,-0.19159 0.01055,0.87562 -0.21434,1.22312c-1.50396,2.32399 -3.41537,4.36439 -4.94751,6.6699c-2.59697,3.9078 -5.83142,6.90179 -9.15066,10.20407c-2.48248,3.73547 -5.47363,7.28637 -8.72014,10.39701c-1.66039,1.5909 -2.92611,4.27989 -5.21328,4.51802c-3.74352,0.38975 -5.29456,-6.51473 -6.20676,-8.32531c-1.96098,-3.89222 -5.26954,-7.20348 -7.47714,-10.96503c-0.87186,-1.48557 -1.67087,-3.02235 -2.31603,-4.61949c-0.41884,-1.03686 -0.26548,-2.29551 -0.85989,-3.24271c-0.20008,-0.31882 -0.23322,0.79328 -0.55958,0.9808c-1.86693,1.07272 -3.8775,1.9542 -5.57801,3.26784c2.26033,8.27959 5.45866,16.62649 6.19574,25.14339c1.46902,16.97447 -1.80138,34.66768 3.71702,51.10846c2.86081,6.59633 3.69725,13.81751 7.02268,20.29503c1.08999,2.12317 1.97566,4.53242 3.8052,6.06496c3.46286,2.90071 7.03708,4.39624 11.06857,6.11293c0.76381,0.32525 1.30356,1.09402 2.09367,1.34882c3.02778,0.97643 6.2722,1.0711 9.39803,1.66272c3.24789,0.61473 6.42465,1.59538 9.69072,2.10472c7.85017,1.22423 16.01866,1.07831 23.96108,1.06387c0.34792,-0.53184 0.96177,-1.00101 2.04479,-1.00101c1.14858,0 1.76947,0.5277 2.1051,1.09821c8.495,0.5068 16.74998,2.84208 25.16476,3.9164c4.1684,0.53218 8.50725,0.68203 12.56659,2.12947c1.40412,0.50067 2.59271,1.50831 4,2c1.78453,0.62349 3.70701,1.06836 5.66353,1.41162c0.00002,-0.02297 0.00002,-0.04163 0.00002,-0.0557zM391.61803,198.26393c2.23607,1.11803 1.11803,3.3541 1.11803,3.3541l-0.81463,1.62926c0.93589,1.61755 1.87054,3.23763 2.69109,4.91584c0.49179,1.00582 -0.04348,2.9192 1.04212,3.19307c1.06692,0.26915 1.44857,-1.67789 2.32458,-2.34375c1.15896,-0.88093 2.71576,-1.22361 3.7355,-2.26253c1.01533,-1.03443 1.47119,-2.49815 2.17886,-3.76312c1.78866,-3.19722 2.0713,-4.7998 2.10641,-8.48679c0.01357,-1.42556 0.51536,-2.90957 0.10727,-4.27554c-0.32502,-1.08792 -4.07265,-5.34192 -4.71969,-6.38741c-1.93386,-3.12476 -2.8617,-5.79283 -5.47255,-8.40369c-1.92237,-1.32464 -4.32185,-1.89102 -6.6253,-2.27089c-1.47918,-0.24394 -3.44005,0.34993 -4.43005,-0.77584c-1.44161,-1.63933 -1.19447,-4.19949 -1.79171,-6.29924l-0.39938,0.11436c0,0 -1.70174,-1.83141 0.12967,-3.53316c0.06626,-0.06157 0.13235,-0.11851 0.19819,-0.17108c-0.6052,-0.45626 -0.99645,-1.1812 -0.99645,-1.99751v-3c0,-0.63051 -0.00149,-1.26137 -0.00382,-1.89248c-8.05236,1.91382 -15.90521,4.88359 -24.0459,6.35159c-6.21274,1.12033 -12.73895,0.72782 -18.92103,1.98422c-1.07542,0.21856 -2.04548,0.84906 -3.12879,1.02438c-6.88613,1.11442 -14.23091,-0.69956 -21.1691,0.02155c-3.23877,0.33662 -6.39891,1.21071 -9.59935,1.81079c-9.80729,1.83687 -19.91763,2.14174 -29.68226,4.0935c-2.62061,0.52381 -5.06741,2.00091 -7.73811,2.09747c-0.92931,0.0336 -9.09633,-0.92951 -10.28716,-0.9892c-18.22425,-0.91346 -36.63833,-0.59488 -54.89166,-1.00064c-6.65737,-0.00061 -13.31475,-0.00109 -19.97212,-0.00113c-0.27742,0 -2.06514,0.04108 -4.03389,0.01717c-0.51448,0.6139 -1.23624,0.85448 -1.23624,0.85448c-3.39119,1.1304 -8.43525,1.88139 -11.47624,3.75492c-1.93599,1.19275 -2.96241,3.4594 -4.27348,5.3173c-0.96609,1.36904 -1.79753,2.83134 -2.78909,4.18204c-0.57044,0.77706 -1.6332,1.26047 -1.88866,2.18997c-0.72303,2.63085 0.1369,5.45566 0.1369,8.18406c0,0.85278 -0.00012,1.70549 -0.00055,2.55817c0.76293,-0.43285 1.55527,-0.83851 2.24407,-1.32971c3.21292,-2.29117 6.62961,-4.30732 9.78975,-6.67598c0.09724,-0.73387 0.50635,-1.63933 1.86039,-1.97784c0.27256,-0.06814 0.52215,-0.09799 0.75049,-0.0973c1.96437,-1.54887 4.12103,-2.91473 6.46677,-3.7448c1.37765,-0.4875 2.98918,-1.82062 4.24897,-1.08c1.93951,1.14022 2.49029,3.75143 3.61224,5.70156c2.4735,4.29935 4.89586,8.32342 7.69465,12.44892c1.5764,2.32368 2.96337,4.8358 3.80946,7.51323c0.11892,0.37632 -0.24108,1.47629 0.02383,1.18374c0.72821,-0.80418 0.86752,-2.00973 1.51344,-2.88138c2.67699,-3.6125 6.0327,-6.43445 8.55313,-10.20359c2.34991,-2.36083 4.91361,-4.52395 7.06662,-7.06563c2.6391,-3.11553 4.18723,-6.87154 7.08216,-9.86909c1.06952,-1.10744 2.00154,-3.05423 3.53871,-2.96819c2.23704,0.12522 3.88543,2.23935 5.74586,3.48788c4.73814,3.17975 6.76803,7.1731 10.38863,11.362c1.01708,1.17672 2.17465,2.22518 3.30037,3.29843c0.89698,0.85517 1.55208,2.23343 2.76562,2.48483c1.46187,0.30285 6.69136,-3.32309 7.2811,-3.68786c5.34725,-3.30747 10.56362,-6.21668 16.31799,-8.77262c1.14964,-0.51064 7.12013,-3.4356 8.77812,-3.16266c1.63012,0.26835 2.83543,1.69635 4.25314,2.54452c3.74154,3.75128 4.91361,6.61316 7.98832,10.7219c0.9377,1.25304 2.31637,2.14547 3.1942,3.44116c0.23944,0.35342 -0.20628,1.65171 0.00485,1.28068c0.52867,-0.92908 0.4961,-2.10428 1.0002,-3.04692c1.57194,-2.93941 3.75524,-5.5086 5.66529,-8.24042c0.96295,-1.37725 1.65977,-2.99855 2.92109,-4.10901c1.73374,-1.52638 4.27296,-2.06235 5.79502,-3.79988c0.49544,-0.56558 5.46242,-7.06217 6.8287,-6.81409c2.28464,0.41483 3.52299,3.03192 5.16946,4.66924c3.2768,3.25861 6.68852,7.22803 9.46887,10.90559c2.12259,2.80755 4.33667,7.43446 8.10287,7.77536c1.48569,-3.46018 3.23162,-6.71777 5.0604,-10.00802c0.99191,-1.78459 1.28847,-4.21988 2.99265,-5.34435c1.75769,-1.15977 4.3411,-1.61123 6.27066,-0.76783c0.81806,0.35757 5.67738,8.17608 6.43036,9.36437c2.75347,4.3453 6.30029,8.53315 9.84248,12.45665c-0.36649,-3.66756 1.17243,-8.02797 1.17961,-11.55328v-3.9978c0,-1.38071 1.11929,-2.5 2.5,-2.5c0.69036,0 1.31536,0.27982 1.76777,0.73223l3,3l-0.22199,0.22199c3.66101,2.77557 7.07394,5.98238 9.83959,9.63069c0.5482,-0.50648 1.45909,-0.95777 2.73267,-0.32098zM378,147.5c0,-2.5 2.5,-2.5 2.5,-2.5l0.39044,0.07545c0.15943,-0.03941 0.31918,-0.07764 0.47922,-0.11471c-0.11241,-1.95365 -0.21344,-3.90743 -0.2827,-5.8634c-0.38647,-0.31017 -0.77183,-0.62422 -0.9687,-1.05256c-0.77075,-1.67702 -0.99607,-3.55442 -1.48077,-5.3353c-2.01566,-7.40589 -3.39229,-14.84079 -5.05899,-22.31236c-0.70606,-3.16516 -1.05738,-6.42897 -2.10197,-9.49909c-1.04459,-3.07011 -2.89026,-5.81225 -4.12756,-8.80989c-0.46775,-1.13324 -0.34708,-2.59103 -1.19191,-3.47945c-0.41097,-0.43218 -1.14988,0.37982 -1.74618,0.38973c-1.37474,0.02286 -2.74296,-0.19457 -4.11442,-0.29229c-0.00185,-0.00013 -9.97456,-0.71247 -9.97569,-0.71255c-9.00825,-0.65474 -17.93979,-2.4404 -26.95903,-2.99739c-8.54618,-0.52778 -17.29999,0.00383 -25.86175,0.00383c-15,0 -30,0 -45,0c-20,0 -40,0 -60,0c-5.71695,0 -10.98577,-0.03779 -16.57674,0.85582c-1.17721,0.18815 -2.66385,-0.46924 -3.56265,0.31395c-0.66415,0.57873 0.21919,1.75701 0.17625,2.63689c-0.19245,3.94394 -0.53687,7.73148 -0.53687,11.69334c0,12.84447 -0.87658,26.01429 -0.00651,38.81966c0.43062,6.33775 1.98253,12.62032 3.30674,18.79125c0.35781,1.66743 0.6805,3.34857 0.84376,5.04613c0.10963,1.13992 -0.53881,2.41046 -0.02805,3.43542c0.23216,0.46587 0.92646,-0.54479 1.44479,-0.59243c1.65967,-0.15256 3.33333,0.00002 5,0.00004c6.67596,0.00005 13.35192,0.00043 20.02788,0.00145c18.31827,0.40608 36.7968,0.08987 55.08617,1.00659c3.21781,0.16129 6.39258,1.07447 9.61359,1.00088c2.48589,-0.0568 4.74305,-1.53106 7.18136,-2.01843c9.78689,-1.95621 19.91361,-2.26018 29.74083,-4.10484c0.30828,-0.0578 9.88806,-1.85749 10.05809,-1.87498c6.79711,-0.69911 14.11988,1.17875 20.8309,0.02155c0.99611,-0.17176 1.88013,-0.77685 2.87121,-0.97562c6.24702,-1.2529 12.80988,-0.88672 19.07897,-2.01578c8.34188,-1.50237 16.39002,-4.58308 24.65462,-6.49328c-0.01187,-0.20081 -0.02382,-0.40161 -0.03583,-0.60239l-1.16851,0.05478c0,0 -2.5,0 -2.5,-2.5zM387.00004,144.10403c1.1728,-0.09583 2.34906,-0.14616 3.52154,-0.1593c9.49096,-0.07045 18.40516,-1.87472 27.75391,-2.93463c9.99919,-1.13365 20.01081,-2.16972 30.09354,-2.7289c8.2538,-0.45775 17.12504,-1.10031 25.19004,0.54637c-0.2271,-0.05488 -0.68691,-0.18773 -0.79326,-0.36095c-0.82839,-1.34935 -1.3397,-2.86934 -2.00955,-4.30401c-0.23954,-1.21164 0.08732,-2.69903 -0.71862,-3.63493c-0.44828,-0.52057 -1.3211,0.42466 -2.00656,0.4703c-1.66714,0.111 -3.34168,0.00636 -5.01248,-0.00296c-5.03799,-0.02809 -10.05959,-0.10664 -15.09248,-0.33214c-8.32498,-0.37301 -16.64993,-0.74663 -24.9749,-1.11994c-4.93466,-0.22128 -10.42658,0.12101 -15.29131,-0.70471c-0.85893,-0.14579 -8.65175,-2.65186 -9.7153,-2.9007c-4.10249,-0.95984 -8.59701,-0.68496 -12.42249,-2.06285c0.15625,0.29697 0.28485,0.60602 0.37213,0.93315c0.14862,0.55707 0.09497,9.73736 0.10623,10.68967c0.0076,0.64237 0.0201,1.28437 0.03675,1.92607c0.36357,0.36152 0.68003,0.74605 0.81424,1.22752c0.48833,1.75177 0.1719,3.62662 0.14858,5.45294z" fill="#ffffff" stroke="none" stroke-width="0.5"/><path d="M238.61803,206.26393c2.23607,1.11803 1.11803,3.3541 1.11803,3.3541l-0.86436,1.67254c-1.34513,4.03529 -2.29897,7.96973 -5.33221,11.22525c-1.23957,1.33041 -2.91582,2.17351 -4.37967,3.25224c-4.025,2.96607 -8.07405,5.90027 -12.11087,8.85025c-0.87642,0.64046 -8.20212,6.04573 -8.84231,6.27974c-1.55458,0.56826 -8.05042,-0.75496 -9.11764,-0.93207c0,0 -2.46598,-0.411 -2.05499,-2.87698c0.411,-2.46598 2.87698,-2.05499 2.87698,-2.05499c1.59976,0.26784 3.19643,0.55481 4.79927,0.80352c0.69166,0.10732 1.44029,0.5414 2.08309,0.26441c2.8031,-1.20789 4.84113,-3.7197 7.30551,-5.52059c4.96573,-3.6288 11.55678,-7.07456 15.8051,-11.49817c2.43569,-2.53618 3.15719,-6.17227 4.22432,-9.37375l1.13564,-2.32746c0,0 1.11803,-2.23607 3.3541,-1.11803z" fill="#ffffff" stroke="none" stroke-width="0.5"/><path d="M242.5,259c-2.5,0 -2.5,-2.5 -2.5,-2.5c0,-5 0,-13 0,-18c0,0 0,-2.5 2.5,-2.5c2.5,0 2.5,2.5 2.5,2.5c0,5 0,10 0,15v3c0,0 0,2.5 -2.5,2.5z" fill="#ffffff" stroke="none" stroke-width="0.5"/><path d="M236,274.5c0,2.5 -2.5,2.5 -2.5,2.5l-2.23773,-0.01133c-4.06927,-0.38871 -9.65249,0.01444 -13.43955,-1.35964c-3.69445,-1.34048 -7.68439,-5.78168 -10.82272,-8.12904c0,0 -2,-1.5 -0.5,-3.5c1.5,-2 3.5,-0.5 3.5,-0.5c2.3173,1.74238 6.61149,6.41998 9.49778,7.41797c3.48567,1.20523 8.51768,0.7378 12.23994,1.09336l1.76227,-0.01133c0,0 2.5,0 2.5,2.5z" fill="#ffffff" stroke="none" stroke-width="0.5"/><path d="M331.29057,251.87171c-2.37171,0.79057 -3.16228,-1.58114 -3.16228,-1.58114c-0.33333,-1 -1.66667,-5 -2,-6c0,0 -0.79057,-2.37171 1.58114,-3.16228c2.37171,-0.79057 3.16228,1.58114 3.16228,1.58114c0.33333,1 0.66667,2 1,3l1,3c0,0 0.79057,2.37171 -1.58114,3.16228z" fill="#ffffff" stroke="none" stroke-width="0.5"/><path d="M380,244.5c0,2.5 -2.5,2.5 -2.5,2.5h-4c-1.04855,0 -9.08206,0.00797 -9.40046,-0.03228c-2.43062,-0.30727 -4.66143,-1.55884 -7.06908,-2.01221c-3.09962,-0.58366 -6.22588,-1.05368 -9.28609,-1.81748c-0.38059,-0.09499 -9.01003,-2.22013 -9.47612,-2.46253c-5.31953,-2.76657 -7.20443,-10.21863 -9.10908,-15.29769c0,0 -0.87781,-2.34082 1.46301,-3.21863c2.34082,-0.87781 3.21863,1.46301 3.21863,1.46301c1.32827,3.54204 2.95179,10.85482 6.89092,12.70231c2.55201,1.19692 5.49099,1.27809 8.2253,1.96282c2.96905,0.74352 6.00617,1.18261 9.01248,1.75717c2.36072,0.45118 4.54554,1.69365 6.93092,1.98779c2.84499,0.35082 5.73301,-0.03228 8.59954,-0.03228h4c0,0 2.5,0 2.5,2.5z" fill="#ffffff" stroke="none" stroke-width="0.5"/><path d="M334.95145,267.00971c0.2896,1.448 -0.44715,2.21176 -1.09881,2.59442c2.4243,0.01667 4.85026,-0.1155 7.45538,-0.23402c3.27812,-0.14914 7.51112,0.20913 10.79153,-0.33782c5.16617,-0.86137 10.62495,-3.2625 15.61867,-4.9069l2.78178,-0.12538c0,0 2.5,0 2.5,2.5c0,2.5 -2.5,2.5 -2.5,2.5l-1.21822,-0.12538c-5.24523,1.72651 -10.94331,4.18704 -16.38133,5.0931c-2.09533,0.34911 -4.24836,0.07327 -6.37037,0.16998c-6.92968,0.31582 -13.57673,0.95379 -20.44109,-0.17172c0,0 -1.89766,-0.31628 -2.08616,-2.05862c-0.84801,0.19715 -1.69546,0.39692 -2.54247,0.59864c1.36992,1.71523 2.63261,3.50788 3.72954,5.41243c0.82412,2.27879 3.47883,4.63204 2.47236,6.83638c-0.87039,1.9063 -4.07992,1.00992 -6.16228,1.24518c-1.56514,0.17682 -3.15825,-0.17458 -4.72526,-0.01514c-3.07437,0.31281 -5.98029,1.64008 -9.04594,2.02918c-18.5538,2.35488 -37.39111,2.11121 -56.10138,2.01176c-0.37748,1.13461 -0.70128,2.10147 -0.75572,2.26477l0.12829,0.20943c0,0 0,2.5 -2.5,2.5c-2.5,0 -2.5,-2.5 -2.5,-2.5l0.12829,-1.79057c0.07868,-0.23603 0.15451,-0.47119 0.22772,-0.70557c-0.95245,-0.00245 -1.90447,-0.00386 -2.85601,-0.00386c0,0 -2.5,0 -2.5,-2.5c0,-2.5 2.5,-2.5 2.5,-2.5c1.37041,0 2.73993,0.00162 4.10866,0.00389c0.46333,-2.30559 0.81031,-4.60589 1.25328,-7.00389c-0.12065,0 -0.2413,0 -0.36194,0c0,0 -2.5,0 -2.5,-2.5c0,-2.5 2.5,-2.5 2.5,-2.5c0.34317,0 0.68634,0 1.02951,0c2.23642,-2.52774 7.90282,-3.75838 10.90818,-5.26393c0.32135,-0.16098 9.01641,-4.51321 9.19625,-4.58126c10.3254,-3.90734 23.01439,-4.1548 33.86606,-4.1548c0,0 1.30994,0 2.03339,0.94821c0.06065,-0.07191 0.12681,-0.14395 0.19885,-0.21598c1.76777,-1.76777 3.53553,0 3.53553,0l1,1c2.47977,2.47977 5.05473,4.94016 7.48198,7.52433c4.7043,-1.1386 9.41722,-2.23899 14.16287,-3.1886l0.0971,-0.01942c0,0 2.45145,-0.49029 2.94174,1.96116zM308.80742,275.5838c-0.36372,0.08779 -9.81857,2.37567 -10.01205,2.39869c-4.90836,0.584 -10.34753,0.01751 -15.29537,0.01751c-9.849,0 -19.69801,0 -29.54701,0c-0.16686,1.00387 -0.85869,1.88784 -0.98527,2.90046c-0.16991,1.35927 0.08532,2.74541 0.06175,4.1136c14.75867,0.02483 29.44207,-0.02341 44.18259,-1.36182c3.28918,-0.29865 6.61311,-0.18682 9.89003,-0.59876c0.93301,-0.11729 8.10309,-1.93353 9.12317,-2.03833c1.74905,-0.17969 3.54221,-0.31477 5.27474,-0.01514c0.15394,0.02662 0.34904,0.11987 0.55593,0.24571c-0.40321,-0.28123 -0.81317,-0.55431 -1.20724,-0.84658c-1.33308,-2.35453 -2.97063,-4.52813 -4.76283,-6.59242c-2.42607,0.59348 -4.85109,1.19117 -7.27845,1.77709zM283.5,273c4.7494,0 9.99175,0.57825 14.70463,0.01751c3.21223,-0.38219 6.28502,-1.53509 9.42959,-2.29412c1.50907,-0.36426 3.01725,-0.73289 4.52534,-1.10218c-1.80605,-1.81679 -3.65576,-3.58187 -5.42733,-5.35344l-1,-1c0,0 -0.08113,-0.08113 -0.19125,-0.22601c-0.72183,0.95824 -2.04099,0.95824 -2.04099,0.95824c-6.71087,0 -12.9025,0.44074 -19.54594,1.38909c-4.10396,0.58584 -8.68688,0.96744 -12.588,2.45611c-3.0289,1.15583 -5.79155,2.91529 -8.6923,4.36301c-0.54909,0.27404 -1.1036,0.53799 -1.6629,0.7918c7.49638,0 14.99276,0 22.48914,0z" fill="#ffffff" stroke="none" stroke-width="0.5"/><text transform="translate(149.5,48.5) scale(0.5,0.5)" font-size="40" xml:space="preserve" fill="#ffffff" fill-rule="nonzero" stroke="none" stroke-width="1" stroke-linecap="butt" stroke-linejoin="miter" stroke-miterlimit="10" stroke-dasharray="" stroke-dashoffset="0" font-family="Sans Serif" font-weight="normal" text-anchor="start" style="mix-blend-mode: normal"><tspan x="0" dy="0">this world feels so big still i</tspan></text></g></g></svg>