<svg version="1.1" xmlns="http://www.w3.org/2000/svg" xmlns:xlink="http://www.w3.org/1999/xlink" width="79.07185" height="164.72553" viewBox="0,0,79.07185,164.72553"><g transform="translate(-280.12079,-98.02755)"><g data-paper-data="{&quot;isPaintingLayer&quot;:true}" fill-rule="nonzero" stroke-linejoin="miter" stroke-miterlimit="10" stroke-dasharray="" stroke-dashoffset="0" style="mix-blend-mode: normal"><path d="M313.76396,198.75972c-0.17539,3.68333 -3.34851,6.80841 -5.13895,2.36529c-1.37102,-3.4023 -0.33974,-7.33195 -0.3125,-11c0.01675,-2.25545 4.04647,-3.50823 4.8125,-1.125c0.93627,2.91285 0.5625,6.45306 0.5625,9.37745z" fill="#ffffd6" stroke="none" stroke-width="0.5" stroke-linecap="butt"/><path d="M327.68751,199.87501c-2.87169,0 -3.05656,-7.4911 -2.58778,-10.05722c0.00378,-0.02166 0.00783,-0.04323 0.01216,-0.06469c0.23044,-1.14266 1.24005,-2.00309 2.45062,-2.00309c1.38071,0 2.5,1.11929 2.5,2.5c0,0.2807 -0.04626,0.55058 -0.13157,0.80246c1.18484,3.71708 0.20078,8.82254 -2.24343,8.82254z" fill="#ffffd6" stroke="none" stroke-width="0.5" stroke-linecap="butt"/><path d="M308.75001,186.12501c-2.22479,-4.44958 -0.32308,-11.43322 -0.0625,-16.05776c0.13169,-2.33718 -1.18221,-4.47562 1.00696,-6.17831c1.98412,-1.54321 3.16582,0.82024 3.74676,2.45496c0.01854,-0.0316 0.03812,-0.06291 0.05878,-0.09389c2.33865,-3.50797 4.3278,0.85642 5.84819,2.25016c0.85258,0.78156 1.2335,-2.22366 2.33931,-2.56266c3.10095,-0.95061 7.51792,-5.26239 10.02118,-3.131c0.42723,0.36377 -0.78259,1.15793 -0.38061,1.92874c0.93854,1.79967 -1.04056,3.43299 -1.59369,4.65479c-1.33858,2.95675 -1.8541,4.75356 -1.21427,8.26465c0.4751,2.60718 3.11395,6.48809 1.31016,8.98808c-0.87273,1.20958 -2.98638,0.52235 -4.02952,-0.31264c-0.32118,-0.25709 -2.02193,-1.40089 -2.07399,-1.23716c-0.88989,2.79903 0.85131,3.5792 0.85131,5.92179c0,6.47091 1.73022,13.51687 0.875,19.84549c-0.61487,4.55003 -9.24587,5.22196 -11.89058,2.57726c-2.52904,-2.52903 0.49826,-3.22582 -0.71357,-5.64948c-0.18291,-0.34741 -0.28643,-0.74312 -0.28643,-1.16302c0,-0.02273 0.0003,-0.04538 0.0009,-0.06796c0.08288,-6.02958 0.83786,-12.5083 0.8741,-18.72667c0.00456,-0.78222 0.00832,-1.56444 0.01137,-2.34667c-0.75948,1.97179 -3.47424,3.09056 -4.69887,0.6413z" fill="#ffffff" stroke="none" stroke-width="0.5" stroke-linecap="butt"/><path d="M312.7228,230.04355c-0.4475,-2.75966 -0.07757,-5.77553 -0.41028,-8.56811c-0.12709,-1.06671 -1.49887,-3.35549 -1.25,-4.47543c1.18869,-5.34912 14.53917,-5.14033 16.0625,-0.875c1.53564,4.2998 -0.03792,9.58826 -0.1875,13.99969c-0.12286,3.62358 0.43112,7.06407 0.21389,10.76975c-0.13398,2.28554 0.18175,6.0643 -0.90139,8.23057c-1.37105,2.7421 -3.77847,0.52344 -5.78078,1.19448c-4.46855,1.49757 -7.36251,-1.85782 -5.73858,-6.7296c-0.02832,-0.15063 -0.04314,-0.30603 -0.04314,-0.46488c0,-0.07879 0.00365,-0.15673 0.01078,-0.23367c0.15484,-4.05409 -1.31134,-8.75204 -1.97549,-12.8478z" fill="#ff0000" stroke="none" stroke-width="0.5" stroke-linecap="butt"/><path d="M319.10014,157.52131c0.72138,0.05266 1.1627,0.86078 1.73769,1.29959c0.16734,0.12771 1.30021,-0.75666 2.54778,0.52134c1.94393,1.99134 -1.61228,8.68948 -4.49999,8.52905c-2.75794,-0.15322 -3.66756,-4.35369 -3.64704,-6.47488c0.00236,-0.24371 -0.0529,-2.23394 0.44792,-2.46271l1.52991,-0.78448c0.06043,0 0.1202,0.00285 0.17917,0.00841c0.58014,-0.03841 1.10547,-0.68005 1.70455,-0.63632z" fill="#ffffd6" stroke="none" stroke-width="0.5" stroke-linecap="butt"/><path d="M312.69829,252.01092c1.23703,-0.53784 3.29385,0.16513 4.39282,-0.42898c0.59616,-0.32228 0.86567,-0.89081 1.77813,-0.89081c0.50556,0 1.27658,0.62944 1.65309,0.56665c2.252,-0.37559 3.81047,-1.1736 6.07605,-0.6072c0.87185,0.21796 0.95538,1.44429 1.3811,1.6516c0.69558,0.33873 2.09852,-0.18571 2.96059,-0.07043c2.37446,0.31754 6.29783,2.38183 5.74149,5.50369c-0.65294,3.66388 -9.83986,0.98782 -12.53916,0.46824c-1.1838,-0.22787 -2.59038,-1.33343 -3.56288,-0.62099c-0.76001,0.55677 -6.5524,2.70725 -8.18067,3.23604c-0.58066,0.18858 -1.83874,-0.10851 -2.88434,-0.57896c-0.67602,-0.05939 -1.24958,-0.47586 -1.53092,-1.05966c-0.08337,-0.12187 -0.12956,-0.24227 -0.12956,-0.35806c-0.03674,-0.14683 -0.05624,-0.30049 -0.05624,-0.45871c0,-0.3018 0.07097,-0.58702 0.19714,-0.83988c0.70009,-2.15378 2.88645,-4.72259 4.70337,-5.51255z" fill="#ffffff" stroke="none" stroke-width="0.5" stroke-linecap="butt"/><path d="M298.4037,156.14724c0,0 -4.05212,-17.33496 -3.97667,-24.97671c0.02723,-2.75755 -0.84857,-11.0505 3.69212,-14.93188c5.85506,-5.00492 17.81068,-5.36887 21.84759,-5.32901c3.39234,0.0335 15.76588,-2.21572 21.0692,2.32502c6.79133,5.81481 6.27136,19.0748 6.23178,23.08308c-0.06982,7.0713 -4.02122,20.27224 -4.02122,20.27224c0,0 -15.49812,2.05918 -23.14705,1.98365c-7.28048,-0.07188 -21.69575,-2.42642 -21.69575,-2.42642z" fill="#ffffd6" stroke="#000000" stroke-width="3" stroke-linecap="butt"/><path d="M298.61338,134.94764l21.09296,0.58503" fill="none" stroke="#000000" stroke-width="3" stroke-linecap="round"/><path d="M299.45109,144.21748l-0.44524,-8.18697l12.62968,0.31436l0.1646,8.28675l-8.76133,-0.01438" fill="none" stroke="#000000" stroke-width="3" stroke-linecap="round"/><path d="M307.16909,143.87576l-0.59616,-6.29987" fill="none" stroke="#000000" stroke-width="3" stroke-linecap="round"/><path d="M302.70269,137.18175l3.61701,6.61669" fill="none" stroke="#000000" stroke-width="3" stroke-linecap="round"/><path d="M302.55177,139.06884l3.29025,-0.34797" fill="none" stroke="#000000" stroke-width="3" stroke-linecap="round"/><path d="M307.12621,144.44184l-3.42572,-4.45377l3.53082,2.27774" fill="none" stroke="#000000" stroke-width="3" stroke-linecap="round"/><path d="M306.6858,138.51568l-5.76668,-1.0159" fill="none" stroke="#000000" stroke-width="3" stroke-linecap="round"/><path d="M301.89072,138.98776l0.5494,3.94568" fill="none" stroke="#000000" stroke-width="3" stroke-linecap="round"/><path d="M300.67468,145.01941c-1.7426,-0.88534 -1.15394,-5.87336 -1.15498,-6.83239c-0.00208,-1.90449 2.00187,-2.01484 3.28984,-1.31241c0.80482,0.43892 0.58679,2.87144 2.25505,4.07162c0.85024,0.16767 1.49912,0.90888 1.51704,1.81076c0.01294,0.65159 -0.30654,1.23247 -0.80275,1.58061c-1.25493,1.1822 -3.66158,1.41475 -5.10419,0.68182z" fill="#000000" stroke="none" stroke-width="0.5" stroke-linecap="butt"/><path d="M309.89994,143.82152l0.16654,-5.844" fill="none" stroke="#ffffff" stroke-width="3" stroke-linecap="round"/><path d="M309.0618,144.30919l-0.79384,-6.76698" fill="none" stroke="#ffffff" stroke-width="3" stroke-linecap="round"/><path d="M303.44668,136.69592l8.11151,0.49832l-0.03682,7.63133l-7.81591,0.15525" fill="none" stroke="#000000" stroke-width="3" stroke-linecap="round"/><path d="M322.43761,135.55963l21.09296,0.58502" fill="none" stroke="#000000" stroke-width="3" stroke-linecap="round"/><path d="M326.51304,136.77025l8.75735,-0.26468l0.0722,8.28808l-12.61555,0.67505l0.21116,-8.19635" data-paper-data="{&quot;index&quot;:null}" fill="none" stroke="#000000" stroke-width="3" stroke-linecap="round"/><path d="M330.2469,143.70777l0.41593,-6.31433" data-paper-data="{&quot;index&quot;:null}" fill="none" stroke="#000000" stroke-width="3" stroke-linecap="round"/><path d="M326.38951,144.21233l3.42649,-6.71733" data-paper-data="{&quot;index&quot;:null}" fill="none" stroke="#000000" stroke-width="3" stroke-linecap="round"/><path d="M329.48357,142.58415l-3.29885,-0.25383" data-paper-data="{&quot;index&quot;:null}" fill="none" stroke="#000000" stroke-width="3" stroke-linecap="round"/><path d="M330.39675,139.28678l-3.46431,2.37769l3.29708,-4.54984" data-paper-data="{&quot;index&quot;:null}" fill="none" stroke="#000000" stroke-width="3" stroke-linecap="round"/><path d="M324.59756,143.94537l5.7353,-1.18024" data-paper-data="{&quot;index&quot;:null}" fill="none" stroke="#000000" stroke-width="3" stroke-linecap="round"/><path d="M324.13841,136.4358c1.42108,-0.77384 3.8334,-0.61014 5.12159,0.53573c0.50595,0.33382 0.8419,0.90533 0.84758,1.55702c0.00786,0.90202 -0.61959,1.66147 -1.46469,1.85336c-1.63329,1.24735 -1.34584,3.67264 -2.1378,4.13438c-1.26738,0.73894 -3.27366,0.68589 -3.326,-1.21789c-0.02636,-0.95867 -0.75728,-5.92784 0.95931,-6.8626z" data-paper-data="{&quot;index&quot;:null}" fill="#000000" stroke="none" stroke-width="0.5" stroke-linecap="butt"/><path d="M333.72754,143.2065l-0.33342,-5.83686" data-paper-data="{&quot;index&quot;:null}" fill="none" stroke="#ffffff" stroke-width="3" stroke-linecap="round"/><path d="M331.94217,143.69301l0.60019,-6.78689" data-paper-data="{&quot;index&quot;:null}" fill="none" stroke="#ffffff" stroke-width="3" stroke-linecap="round"/><path d="M327.16904,136.38778l7.81716,-0.0681l0.25482,7.62716l-8.09396,0.72985" data-paper-data="{&quot;index&quot;:null}" fill="none" stroke="#000000" stroke-width="3" stroke-linecap="round"/><path d="M321.70513,152.50676l-9.23073,0.00305" fill="none" stroke="#000000" stroke-width="3" stroke-linecap="round"/><path d="M358.34717,131.10317l-0.14425,0.08225l0.33105,0.37716c-0.01301,1.08927 0.23493,2.21347 -0.03903,3.26781c-0.74722,2.87579 -2.23923,2.14951 -3.43377,4.84629c-0.35904,0.81057 0.45845,2.12455 -0.25772,2.64707c-3.9109,2.85337 -7.26796,-1.05789 -8.23817,-4.16863c-0.68796,-2.20579 -0.19674,-4.22063 0.54955,-6.23594c-0.25035,-0.07209 -0.49974,-0.13408 -0.74807,-0.18157c-3.58287,-0.02265 -7.15473,0.74141 -10.70153,0.46284c-2.81037,-0.22073 -5.51902,-1.13977 -8.32234,-1.40482c-3.05305,-0.28867 -4.09888,-0.12813 -7.25085,-0.58694c-2.96567,-0.43169 -4.97798,-1.73021 -8.12201,-1.45662c-1.55902,0.13566 -4.0631,1.61641 -5.16162,1.94936c-1.29629,0.39288 -2.65026,0.57098 -3.99056,0.76677c-2.21575,0.32367 -3.61937,-0.56756 -5.5325,-0.66038c1.30722,2.73432 1.57719,5.99913 1.45983,8.92023l0.73139,1.34765c0.15856,0.2793 0.24773,0.60292 0.24433,0.94719c-0.00689,0.69722 -0.39169,1.30221 -0.95792,1.62234l-0.00993,1.00544c-0.01027,1.0403 -0.86194,1.8753 -1.90224,1.86503c-0.74131,-0.00732 -1.37837,-0.44188 -1.67961,-1.06749l-0.89531,-1.7664c-1.19392,0.1879 -1.8487,-0.9847 -1.8487,-0.9847l-0.08366,-0.17864c-0.81401,-0.75002 -1.5489,-2.13114 -2.10311,-3.26933c-0.52358,-0.02042 -1.037,-0.08044 -1.51421,-0.28139c-3.07299,-1.29403 -3.36687,-3.83523 -2.58744,-6.5034c-0.19897,-0.82916 -0.24588,-1.88449 -0.10524,-3.21905c0.03101,-0.29422 0.18815,-0.52256 0.40611,-0.72113c-3.80538,0.26054 -6.30563,-0.29263 -6.31881,-4.64736c-0.0077,-2.54257 1.27642,-4.28434 3.01015,-5.69336c0.47492,-0.8411 1.24197,-1.70195 2.15456,-2.42329c0.56424,-1.29865 1.19967,-2.56035 1.92552,-3.8176l0.23416,-0.13438l-0.06035,-0.06155l1.712,-1.67853v0c0.21251,-0.20835 0.47409,-0.36666 0.76554,-0.45609c1.18199,-2.13594 2.73036,-3.98754 5.27314,-4.82892c1.03918,-0.34386 2.32172,-0.6176 3.28246,-0.09308c0.7926,0.43273 0.19331,2.37244 1.08989,2.48019c0.78502,0.09436 0.31433,-1.57787 0.70681,-2.26425c1.5909,-2.78224 3.80431,-5.02797 7.0661,-5.52887c1.28157,-0.19681 2.62872,-0.59901 3.88092,-0.26262c0.71622,0.19241 0.74712,1.43793 1.44349,1.69298c0.8051,0.29488 3.0066,-1.35925 3.49393,-1.57908c2.26137,-1.02008 5.09228,-1.64402 7.5396,-0.82022c0.81469,0.27423 0.79146,1.58507 1.4594,2.12617c1.96634,1.59293 2.73455,0.98822 4.88586,0.59143c2.43688,-0.83254 4.72008,-1.84153 7.40195,-1.67721c3.2988,0.20211 4.69094,2.64341 7.00507,4.35566c0.22552,-0.09234 0.47281,-0.14217 0.73178,-0.13961c0.66419,0.00656 1.2447,0.35609 1.57496,0.87872l0.2636,0.404c1.04345,0.21486 2.13627,0.31978 3.06228,0.81728c2.50268,1.34456 5.86197,5.72905 6.61239,8.65566c0.36252,1.41385 -0.23608,3.09983 -0.00598,4.52106c0.4332,2.67566 3.4393,6.12765 2.31083,8.92185c-0.30316,0.75064 -0.74811,1.43401 -1.25864,2.07396zM352.03657,139.8089c0.00839,0.01035 0.01133,0.00876 0.00751,-0.00865c-0.0025,0.00289 -0.00501,0.00577 -0.00751,0.00865z" fill="#29241d" stroke="none" stroke-width="0.5" stroke-linecap="butt"/><path d="M308.56129,198.01334c0.16905,-1.32035 0.31732,-2.61102 0.37858,-3.77692c0.02564,-0.48784 -1.44854,-0.21155 -1.40795,-0.67387c0.40467,-4.60998 1.41322,-10.99197 1.30684,-13.83228c-0.21043,-5.61847 -1.07237,-15.99266 -1.07237,-15.99266l7.34652,1.3186" fill="none" stroke="#000000" stroke-width="3" stroke-linecap="round"/><path d="M315.96058,251.58193l-4.6466,-34.56538l1.60202,-3.1091l13.31624,0.12559" fill="none" stroke="#000000" stroke-width="3" stroke-linecap="round"/><path d="M322.61641,165.43294l-3.76745,3.13954l-3.17093,-4.83489l-0.56511,-3.57907" fill="none" stroke="#000000" stroke-width="3" stroke-linecap="round"/><path d="M332.44318,162.419l-8.66513,2.26046l0.56512,-4.52093" fill="none" stroke="#000000" stroke-width="3" stroke-linecap="round"/><path d="M313.04082,212.52605l0.75349,-47.09311" fill="none" stroke="#000000" stroke-width="3" stroke-linecap="round"/><path d="M324.97108,165.99808l0.94186,47.65822l1.83032,3.14424l-0.6059,35.28373l9.92095,3.64186l-0.25117,5.27443l-15.32095,-2.51163" fill="none" stroke="#000000" stroke-width="3" stroke-linecap="round"/><path d="M329.66042,195.83652c0.16517,-1.37929 0.34321,-2.85557 0.47238,-4.55744c0.47731,-6.28876 -1.40055,-12.56035 -1.36566,-15.67721c0.04442,-3.96855 2.5458,-12.05263 2.5458,-12.05263" fill="none" stroke="#000000" stroke-width="3" stroke-linecap="round"/><path d="M308.33151,198.5865l3.57907,8.66513" fill="none" stroke="#000000" stroke-width="3" stroke-linecap="round"/><path d="M325.44201,206.62373l4.7721,-10.54886" fill="none" stroke="#000000" stroke-width="3" stroke-linecap="round"/><path d="M320.23037,214.2842l1.25581,43.57682l-11.67909,3.01395l-2.26047,-4.39535l7.66048,-5.02326" fill="none" stroke="#000000" stroke-width="3" stroke-linecap="round"/><path d="M315.96058,250.82845l10.17211,-0.37674" fill="none" stroke="#000000" stroke-width="3" stroke-linecap="round"/><path d="M312.19315,253.96799l2.13489,1.75814" fill="none" stroke="#000000" stroke-width="3" stroke-linecap="round"/><path d="M311.94197,256.6052l-1.88372,-1.38139" fill="none" stroke="#000000" stroke-width="3" stroke-linecap="round"/><path d="M328.51876,254.72148l3.01395,-1.50698" fill="none" stroke="#000000" stroke-width="3" stroke-linecap="round"/><path d="M334.42109,253.96799l-1.75815,1.50698" fill="none" stroke="#000000" stroke-width="3" stroke-linecap="round"/><path d="M308.31251,190.37501l4,-5.125" fill="none" stroke="#000000" stroke-width="3" stroke-linecap="round"/><path d="M325.06251,186.50001l4.5,1.875" fill="none" stroke="#000000" stroke-width="3" stroke-linecap="round"/><path d="M314.83333,189.66668v-10.11111h4v10.11111z" fill="#000000" stroke="none" stroke-width="0" stroke-linecap="butt"/><path d="M324.27779,184.72223c0,2.48528 -1.34314,4.5 -3,4.5c-1.65686,0 -3,-2.01472 -3,-4.5c0,-2.48528 1.34314,-4.5 3,-4.5c1.65686,0 3,2.01472 3,4.5z" fill="#000000" stroke="none" stroke-width="0" stroke-linecap="butt"/><path d="M314.66033,189.27671l5.01269,4.89104" fill="none" stroke="#000000" stroke-width="0.5" stroke-linecap="round"/><path d="M318.65801,195.20744c-3.78264,-4.41308 2.82119,-7.86517 4.94308,-4.53075c2.66095,4.18149 -3.19159,7.20659 -4.89262,4.53356z" fill="#000000" stroke="none" stroke-width="0.5" stroke-linecap="butt"/><path d="M323.4975,184.7125c0.6625,1.06 -0.3975,1.7225 -0.3975,1.7225l-1.92441,0.78726c-0.72317,-0.18311 -1.53185,-0.16215 -2.1695,-0.54932c-0.60853,-0.36948 -2.03173,-2.72403 -2.08875,-0.32433c0,0 -0.22361,1.22984 -1.45344,1.00623c-1.22984,-0.22361 -1.00623,-1.45344 -1.00623,-1.45344c0.5626,-2.22934 2.16507,-4.05662 4.84286,-2.74075c0.8655,0.4253 1.44533,1.47328 2.39889,1.61711l0.07559,-0.46274c0,0 1.06,-0.6625 1.7225,0.3975z" fill="#313131" stroke="none" stroke-width="0.5" stroke-linecap="butt"/><path d="M317.6875,194c-0.75,-1 0.25,-1.75 0.25,-1.75l1,-0.75c0,0 0.07409,-0.05557 0.19707,-0.11629c1.15173,-1.29906 2.24145,-1.23074 4.05293,-0.00871l0.56085,0.97972c0,0 0.39528,1.18585 -0.79057,1.58114c-0.97619,0.3254 -1.41665,-0.42067 -1.54189,-0.69466c-0.29893,-0.07279 -0.68352,-0.00138 -0.7607,0.24086c0,0 -0.38207,0.68773 -1.08559,0.66887l-0.1321,0.09908c0,0 -1,0.75 -1.75,-0.25zM321.60925,193.31718l0.07825,0.05782c-0.02288,-0.02133 -0.04921,-0.04062 -0.07825,-0.05782z" fill="#313131" stroke="none" stroke-width="0.5" stroke-linecap="butt"/><path d="M315.04438,192.80313c0.85916,-0.5155 1.44286,0.07087 1.64068,0.3239c0.16371,-0.09177 0.3026,-0.22398 0.37744,-0.37703c0,0 0.75,-1 1.75,-0.25c1,0.75 0.25,1.75 0.25,1.75c-0.73412,0.84325 -1.88493,1.41866 -3,1.5l-1.44687,-1.23188c0,0 -0.64312,-1.07187 0.42875,-1.71499zM316.38489,193.24162l-0.32239,0.00838c0.10232,0.01954 0.21277,0.01525 0.32239,-0.00838z" fill="#9b9b9b" stroke="none" stroke-width="0.5" stroke-linecap="butt"/></g></g></svg>